<?xml version="1.0" encoding="utf-8" standalone="no"?>
<!DOCTYPE svg PUBLIC "-//W3C//DTD SVG 1.1//EN"
  "http://www.w3.org/Graphics/SVG/1.1/DTD/svg11.dtd">
<!-- Created with matplotlib (https://matplotlib.org/) -->
<svg height="356.480877pt" version="1.1" viewBox="0 0 638.3204 356.480877" width="638.3204pt" xmlns="http://www.w3.org/2000/svg" xmlns:xlink="http://www.w3.org/1999/xlink">
 <metadata>
  <rdf:RDF xmlns:cc="http://creativecommons.org/ns#" xmlns:dc="http://purl.org/dc/elements/1.1/" xmlns:rdf="http://www.w3.org/1999/02/22-rdf-syntax-ns#">
   <cc:Work>
    <dc:type rdf:resource="http://purl.org/dc/dcmitype/StillImage"/>
    <dc:date>2021-08-12T18:17:16.921463</dc:date>
    <dc:format>image/svg+xml</dc:format>
    <dc:creator>
     <cc:Agent>
      <dc:title>Matplotlib v3.3.4, https://matplotlib.org/</dc:title>
     </cc:Agent>
    </dc:creator>
   </cc:Work>
  </rdf:RDF>
 </metadata>
 <defs>
  <style type="text/css">*{stroke-linecap:butt;stroke-linejoin:round;}</style>
 </defs>
 <g id="figure_1">
  <g id="patch_1">
   <path d="M 0 356.480877 
L 638.3204 356.480877 
L 638.3204 0 
L 0 0 
z
" style="fill:#ffffff;"/>
  </g>
  <g id="axes_1">
   <g id="patch_2">
    <path d="M 73.1204 267.118125 
L 631.1204 267.118125 
L 631.1204 22.318125 
L 73.1204 22.318125 
z
" style="fill:#ffffff;"/>
   </g>
   <g id="matplotlib.axis_1">
    <g id="xtick_1">
     <g id="line2d_1">
      <defs>
       <path d="M 0 0 
L 0 3.5 
" id="mba2cfb7c2a" style="stroke:#000000;stroke-width:0.8;"/>
      </defs>
      <g>
       <use style="stroke:#000000;stroke-width:0.8;" x="104.016373" xlink:href="#mba2cfb7c2a" y="267.118125"/>
      </g>
     </g>
     <g id="text_1">
      <!-- 2017-04-13 07:00:00 -->
      <g transform="translate(10.999219 333.80169)rotate(-30)scale(0.1 -0.1)">
       <defs>
        <path d="M 19.1875 8.296875 
L 53.609375 8.296875 
L 53.609375 0 
L 7.328125 0 
L 7.328125 8.296875 
Q 12.9375 14.109375 22.625 23.890625 
Q 32.328125 33.6875 34.8125 36.53125 
Q 39.546875 41.84375 41.421875 45.53125 
Q 43.3125 49.21875 43.3125 52.78125 
Q 43.3125 58.59375 39.234375 62.25 
Q 35.15625 65.921875 28.609375 65.921875 
Q 23.96875 65.921875 18.8125 64.3125 
Q 13.671875 62.703125 7.8125 59.421875 
L 7.8125 69.390625 
Q 13.765625 71.78125 18.9375 73 
Q 24.125 74.21875 28.421875 74.21875 
Q 39.75 74.21875 46.484375 68.546875 
Q 53.21875 62.890625 53.21875 53.421875 
Q 53.21875 48.921875 51.53125 44.890625 
Q 49.859375 40.875 45.40625 35.40625 
Q 44.1875 33.984375 37.640625 27.21875 
Q 31.109375 20.453125 19.1875 8.296875 
z
" id="DejaVuSans-50"/>
        <path d="M 31.78125 66.40625 
Q 24.171875 66.40625 20.328125 58.90625 
Q 16.5 51.421875 16.5 36.375 
Q 16.5 21.390625 20.328125 13.890625 
Q 24.171875 6.390625 31.78125 6.390625 
Q 39.453125 6.390625 43.28125 13.890625 
Q 47.125 21.390625 47.125 36.375 
Q 47.125 51.421875 43.28125 58.90625 
Q 39.453125 66.40625 31.78125 66.40625 
z
M 31.78125 74.21875 
Q 44.046875 74.21875 50.515625 64.515625 
Q 56.984375 54.828125 56.984375 36.375 
Q 56.984375 17.96875 50.515625 8.265625 
Q 44.046875 -1.421875 31.78125 -1.421875 
Q 19.53125 -1.421875 13.0625 8.265625 
Q 6.59375 17.96875 6.59375 36.375 
Q 6.59375 54.828125 13.0625 64.515625 
Q 19.53125 74.21875 31.78125 74.21875 
z
" id="DejaVuSans-48"/>
        <path d="M 12.40625 8.296875 
L 28.515625 8.296875 
L 28.515625 63.921875 
L 10.984375 60.40625 
L 10.984375 69.390625 
L 28.421875 72.90625 
L 38.28125 72.90625 
L 38.28125 8.296875 
L 54.390625 8.296875 
L 54.390625 0 
L 12.40625 0 
z
" id="DejaVuSans-49"/>
        <path d="M 8.203125 72.90625 
L 55.078125 72.90625 
L 55.078125 68.703125 
L 28.609375 0 
L 18.3125 0 
L 43.21875 64.59375 
L 8.203125 64.59375 
z
" id="DejaVuSans-55"/>
        <path d="M 4.890625 31.390625 
L 31.203125 31.390625 
L 31.203125 23.390625 
L 4.890625 23.390625 
z
" id="DejaVuSans-45"/>
        <path d="M 37.796875 64.3125 
L 12.890625 25.390625 
L 37.796875 25.390625 
z
M 35.203125 72.90625 
L 47.609375 72.90625 
L 47.609375 25.390625 
L 58.015625 25.390625 
L 58.015625 17.1875 
L 47.609375 17.1875 
L 47.609375 0 
L 37.796875 0 
L 37.796875 17.1875 
L 4.890625 17.1875 
L 4.890625 26.703125 
z
" id="DejaVuSans-52"/>
        <path d="M 40.578125 39.3125 
Q 47.65625 37.796875 51.625 33 
Q 55.609375 28.21875 55.609375 21.1875 
Q 55.609375 10.40625 48.1875 4.484375 
Q 40.765625 -1.421875 27.09375 -1.421875 
Q 22.515625 -1.421875 17.65625 -0.515625 
Q 12.796875 0.390625 7.625 2.203125 
L 7.625 11.71875 
Q 11.71875 9.328125 16.59375 8.109375 
Q 21.484375 6.890625 26.8125 6.890625 
Q 36.078125 6.890625 40.9375 10.546875 
Q 45.796875 14.203125 45.796875 21.1875 
Q 45.796875 27.640625 41.28125 31.265625 
Q 36.765625 34.90625 28.71875 34.90625 
L 20.21875 34.90625 
L 20.21875 43.015625 
L 29.109375 43.015625 
Q 36.375 43.015625 40.234375 45.921875 
Q 44.09375 48.828125 44.09375 54.296875 
Q 44.09375 59.90625 40.109375 62.90625 
Q 36.140625 65.921875 28.71875 65.921875 
Q 24.65625 65.921875 20.015625 65.03125 
Q 15.375 64.15625 9.8125 62.3125 
L 9.8125 71.09375 
Q 15.4375 72.65625 20.34375 73.4375 
Q 25.25 74.21875 29.59375 74.21875 
Q 40.828125 74.21875 47.359375 69.109375 
Q 53.90625 64.015625 53.90625 55.328125 
Q 53.90625 49.265625 50.4375 45.09375 
Q 46.96875 40.921875 40.578125 39.3125 
z
" id="DejaVuSans-51"/>
        <path id="DejaVuSans-32"/>
        <path d="M 11.71875 12.40625 
L 22.015625 12.40625 
L 22.015625 0 
L 11.71875 0 
z
M 11.71875 51.703125 
L 22.015625 51.703125 
L 22.015625 39.3125 
L 11.71875 39.3125 
z
" id="DejaVuSans-58"/>
       </defs>
       <use xlink:href="#DejaVuSans-50"/>
       <use x="63.623047" xlink:href="#DejaVuSans-48"/>
       <use x="127.246094" xlink:href="#DejaVuSans-49"/>
       <use x="190.869141" xlink:href="#DejaVuSans-55"/>
       <use x="254.492188" xlink:href="#DejaVuSans-45"/>
       <use x="290.576172" xlink:href="#DejaVuSans-48"/>
       <use x="354.199219" xlink:href="#DejaVuSans-52"/>
       <use x="417.822266" xlink:href="#DejaVuSans-45"/>
       <use x="453.90625" xlink:href="#DejaVuSans-49"/>
       <use x="517.529297" xlink:href="#DejaVuSans-51"/>
       <use x="581.152344" xlink:href="#DejaVuSans-32"/>
       <use x="612.939453" xlink:href="#DejaVuSans-48"/>
       <use x="676.5625" xlink:href="#DejaVuSans-55"/>
       <use x="740.185547" xlink:href="#DejaVuSans-58"/>
       <use x="773.876953" xlink:href="#DejaVuSans-48"/>
       <use x="837.5" xlink:href="#DejaVuSans-48"/>
       <use x="901.123047" xlink:href="#DejaVuSans-58"/>
       <use x="934.814453" xlink:href="#DejaVuSans-48"/>
       <use x="998.4375" xlink:href="#DejaVuSans-48"/>
      </g>
     </g>
    </g>
    <g id="xtick_2">
     <g id="line2d_2">
      <g>
       <use style="stroke:#000000;stroke-width:0.8;" x="146.57281" xlink:href="#mba2cfb7c2a" y="267.118125"/>
      </g>
     </g>
     <g id="text_2">
      <!-- 2017-04-13 19:00:00 -->
      <g transform="translate(53.555656 333.80169)rotate(-30)scale(0.1 -0.1)">
       <defs>
        <path d="M 10.984375 1.515625 
L 10.984375 10.5 
Q 14.703125 8.734375 18.5 7.8125 
Q 22.3125 6.890625 25.984375 6.890625 
Q 35.75 6.890625 40.890625 13.453125 
Q 46.046875 20.015625 46.78125 33.40625 
Q 43.953125 29.203125 39.59375 26.953125 
Q 35.25 24.703125 29.984375 24.703125 
Q 19.046875 24.703125 12.671875 31.3125 
Q 6.296875 37.9375 6.296875 49.421875 
Q 6.296875 60.640625 12.9375 67.421875 
Q 19.578125 74.21875 30.609375 74.21875 
Q 43.265625 74.21875 49.921875 64.515625 
Q 56.59375 54.828125 56.59375 36.375 
Q 56.59375 19.140625 48.40625 8.859375 
Q 40.234375 -1.421875 26.421875 -1.421875 
Q 22.703125 -1.421875 18.890625 -0.6875 
Q 15.09375 0.046875 10.984375 1.515625 
z
M 30.609375 32.421875 
Q 37.25 32.421875 41.125 36.953125 
Q 45.015625 41.5 45.015625 49.421875 
Q 45.015625 57.28125 41.125 61.84375 
Q 37.25 66.40625 30.609375 66.40625 
Q 23.96875 66.40625 20.09375 61.84375 
Q 16.21875 57.28125 16.21875 49.421875 
Q 16.21875 41.5 20.09375 36.953125 
Q 23.96875 32.421875 30.609375 32.421875 
z
" id="DejaVuSans-57"/>
       </defs>
       <use xlink:href="#DejaVuSans-50"/>
       <use x="63.623047" xlink:href="#DejaVuSans-48"/>
       <use x="127.246094" xlink:href="#DejaVuSans-49"/>
       <use x="190.869141" xlink:href="#DejaVuSans-55"/>
       <use x="254.492188" xlink:href="#DejaVuSans-45"/>
       <use x="290.576172" xlink:href="#DejaVuSans-48"/>
       <use x="354.199219" xlink:href="#DejaVuSans-52"/>
       <use x="417.822266" xlink:href="#DejaVuSans-45"/>
       <use x="453.90625" xlink:href="#DejaVuSans-49"/>
       <use x="517.529297" xlink:href="#DejaVuSans-51"/>
       <use x="581.152344" xlink:href="#DejaVuSans-32"/>
       <use x="612.939453" xlink:href="#DejaVuSans-49"/>
       <use x="676.5625" xlink:href="#DejaVuSans-57"/>
       <use x="740.185547" xlink:href="#DejaVuSans-58"/>
       <use x="773.876953" xlink:href="#DejaVuSans-48"/>
       <use x="837.5" xlink:href="#DejaVuSans-48"/>
       <use x="901.123047" xlink:href="#DejaVuSans-58"/>
       <use x="934.814453" xlink:href="#DejaVuSans-48"/>
       <use x="998.4375" xlink:href="#DejaVuSans-48"/>
      </g>
     </g>
    </g>
    <g id="xtick_3">
     <g id="line2d_3">
      <g>
       <use style="stroke:#000000;stroke-width:0.8;" x="189.129247" xlink:href="#mba2cfb7c2a" y="267.118125"/>
      </g>
     </g>
     <g id="text_3">
      <!-- 2017-04-14 08:00:00 -->
      <g transform="translate(96.112092 333.80169)rotate(-30)scale(0.1 -0.1)">
       <defs>
        <path d="M 31.78125 34.625 
Q 24.75 34.625 20.71875 30.859375 
Q 16.703125 27.09375 16.703125 20.515625 
Q 16.703125 13.921875 20.71875 10.15625 
Q 24.75 6.390625 31.78125 6.390625 
Q 38.8125 6.390625 42.859375 10.171875 
Q 46.921875 13.96875 46.921875 20.515625 
Q 46.921875 27.09375 42.890625 30.859375 
Q 38.875 34.625 31.78125 34.625 
z
M 21.921875 38.8125 
Q 15.578125 40.375 12.03125 44.71875 
Q 8.5 49.078125 8.5 55.328125 
Q 8.5 64.0625 14.71875 69.140625 
Q 20.953125 74.21875 31.78125 74.21875 
Q 42.671875 74.21875 48.875 69.140625 
Q 55.078125 64.0625 55.078125 55.328125 
Q 55.078125 49.078125 51.53125 44.71875 
Q 48 40.375 41.703125 38.8125 
Q 48.828125 37.15625 52.796875 32.3125 
Q 56.78125 27.484375 56.78125 20.515625 
Q 56.78125 9.90625 50.3125 4.234375 
Q 43.84375 -1.421875 31.78125 -1.421875 
Q 19.734375 -1.421875 13.25 4.234375 
Q 6.78125 9.90625 6.78125 20.515625 
Q 6.78125 27.484375 10.78125 32.3125 
Q 14.796875 37.15625 21.921875 38.8125 
z
M 18.3125 54.390625 
Q 18.3125 48.734375 21.84375 45.5625 
Q 25.390625 42.390625 31.78125 42.390625 
Q 38.140625 42.390625 41.71875 45.5625 
Q 45.3125 48.734375 45.3125 54.390625 
Q 45.3125 60.0625 41.71875 63.234375 
Q 38.140625 66.40625 31.78125 66.40625 
Q 25.390625 66.40625 21.84375 63.234375 
Q 18.3125 60.0625 18.3125 54.390625 
z
" id="DejaVuSans-56"/>
       </defs>
       <use xlink:href="#DejaVuSans-50"/>
       <use x="63.623047" xlink:href="#DejaVuSans-48"/>
       <use x="127.246094" xlink:href="#DejaVuSans-49"/>
       <use x="190.869141" xlink:href="#DejaVuSans-55"/>
       <use x="254.492188" xlink:href="#DejaVuSans-45"/>
       <use x="290.576172" xlink:href="#DejaVuSans-48"/>
       <use x="354.199219" xlink:href="#DejaVuSans-52"/>
       <use x="417.822266" xlink:href="#DejaVuSans-45"/>
       <use x="453.90625" xlink:href="#DejaVuSans-49"/>
       <use x="517.529297" xlink:href="#DejaVuSans-52"/>
       <use x="581.152344" xlink:href="#DejaVuSans-32"/>
       <use x="612.939453" xlink:href="#DejaVuSans-48"/>
       <use x="676.5625" xlink:href="#DejaVuSans-56"/>
       <use x="740.185547" xlink:href="#DejaVuSans-58"/>
       <use x="773.876953" xlink:href="#DejaVuSans-48"/>
       <use x="837.5" xlink:href="#DejaVuSans-48"/>
       <use x="901.123047" xlink:href="#DejaVuSans-58"/>
       <use x="934.814453" xlink:href="#DejaVuSans-48"/>
       <use x="998.4375" xlink:href="#DejaVuSans-48"/>
      </g>
     </g>
    </g>
    <g id="xtick_4">
     <g id="line2d_4">
      <g>
       <use style="stroke:#000000;stroke-width:0.8;" x="231.685684" xlink:href="#mba2cfb7c2a" y="267.118125"/>
      </g>
     </g>
     <g id="text_4">
      <!-- 2017-04-14 20:00:00 -->
      <g transform="translate(138.668529 333.80169)rotate(-30)scale(0.1 -0.1)">
       <use xlink:href="#DejaVuSans-50"/>
       <use x="63.623047" xlink:href="#DejaVuSans-48"/>
       <use x="127.246094" xlink:href="#DejaVuSans-49"/>
       <use x="190.869141" xlink:href="#DejaVuSans-55"/>
       <use x="254.492188" xlink:href="#DejaVuSans-45"/>
       <use x="290.576172" xlink:href="#DejaVuSans-48"/>
       <use x="354.199219" xlink:href="#DejaVuSans-52"/>
       <use x="417.822266" xlink:href="#DejaVuSans-45"/>
       <use x="453.90625" xlink:href="#DejaVuSans-49"/>
       <use x="517.529297" xlink:href="#DejaVuSans-52"/>
       <use x="581.152344" xlink:href="#DejaVuSans-32"/>
       <use x="612.939453" xlink:href="#DejaVuSans-50"/>
       <use x="676.5625" xlink:href="#DejaVuSans-48"/>
       <use x="740.185547" xlink:href="#DejaVuSans-58"/>
       <use x="773.876953" xlink:href="#DejaVuSans-48"/>
       <use x="837.5" xlink:href="#DejaVuSans-48"/>
       <use x="901.123047" xlink:href="#DejaVuSans-58"/>
       <use x="934.814453" xlink:href="#DejaVuSans-48"/>
       <use x="998.4375" xlink:href="#DejaVuSans-48"/>
      </g>
     </g>
    </g>
    <g id="xtick_5">
     <g id="line2d_5">
      <g>
       <use style="stroke:#000000;stroke-width:0.8;" x="274.24212" xlink:href="#mba2cfb7c2a" y="267.118125"/>
      </g>
     </g>
     <g id="text_5">
      <!-- 2017-04-15 09:00:00 -->
      <g transform="translate(181.224966 333.80169)rotate(-30)scale(0.1 -0.1)">
       <defs>
        <path d="M 10.796875 72.90625 
L 49.515625 72.90625 
L 49.515625 64.59375 
L 19.828125 64.59375 
L 19.828125 46.734375 
Q 21.96875 47.46875 24.109375 47.828125 
Q 26.265625 48.1875 28.421875 48.1875 
Q 40.625 48.1875 47.75 41.5 
Q 54.890625 34.8125 54.890625 23.390625 
Q 54.890625 11.625 47.5625 5.09375 
Q 40.234375 -1.421875 26.90625 -1.421875 
Q 22.3125 -1.421875 17.546875 -0.640625 
Q 12.796875 0.140625 7.71875 1.703125 
L 7.71875 11.625 
Q 12.109375 9.234375 16.796875 8.0625 
Q 21.484375 6.890625 26.703125 6.890625 
Q 35.15625 6.890625 40.078125 11.328125 
Q 45.015625 15.765625 45.015625 23.390625 
Q 45.015625 31 40.078125 35.4375 
Q 35.15625 39.890625 26.703125 39.890625 
Q 22.75 39.890625 18.8125 39.015625 
Q 14.890625 38.140625 10.796875 36.28125 
z
" id="DejaVuSans-53"/>
       </defs>
       <use xlink:href="#DejaVuSans-50"/>
       <use x="63.623047" xlink:href="#DejaVuSans-48"/>
       <use x="127.246094" xlink:href="#DejaVuSans-49"/>
       <use x="190.869141" xlink:href="#DejaVuSans-55"/>
       <use x="254.492188" xlink:href="#DejaVuSans-45"/>
       <use x="290.576172" xlink:href="#DejaVuSans-48"/>
       <use x="354.199219" xlink:href="#DejaVuSans-52"/>
       <use x="417.822266" xlink:href="#DejaVuSans-45"/>
       <use x="453.90625" xlink:href="#DejaVuSans-49"/>
       <use x="517.529297" xlink:href="#DejaVuSans-53"/>
       <use x="581.152344" xlink:href="#DejaVuSans-32"/>
       <use x="612.939453" xlink:href="#DejaVuSans-48"/>
       <use x="676.5625" xlink:href="#DejaVuSans-57"/>
       <use x="740.185547" xlink:href="#DejaVuSans-58"/>
       <use x="773.876953" xlink:href="#DejaVuSans-48"/>
       <use x="837.5" xlink:href="#DejaVuSans-48"/>
       <use x="901.123047" xlink:href="#DejaVuSans-58"/>
       <use x="934.814453" xlink:href="#DejaVuSans-48"/>
       <use x="998.4375" xlink:href="#DejaVuSans-48"/>
      </g>
     </g>
    </g>
    <g id="xtick_6">
     <g id="line2d_6">
      <g>
       <use style="stroke:#000000;stroke-width:0.8;" x="316.798557" xlink:href="#mba2cfb7c2a" y="267.118125"/>
      </g>
     </g>
     <g id="text_6">
      <!-- 2017-04-15 21:00:00 -->
      <g transform="translate(223.781403 333.80169)rotate(-30)scale(0.1 -0.1)">
       <use xlink:href="#DejaVuSans-50"/>
       <use x="63.623047" xlink:href="#DejaVuSans-48"/>
       <use x="127.246094" xlink:href="#DejaVuSans-49"/>
       <use x="190.869141" xlink:href="#DejaVuSans-55"/>
       <use x="254.492188" xlink:href="#DejaVuSans-45"/>
       <use x="290.576172" xlink:href="#DejaVuSans-48"/>
       <use x="354.199219" xlink:href="#DejaVuSans-52"/>
       <use x="417.822266" xlink:href="#DejaVuSans-45"/>
       <use x="453.90625" xlink:href="#DejaVuSans-49"/>
       <use x="517.529297" xlink:href="#DejaVuSans-53"/>
       <use x="581.152344" xlink:href="#DejaVuSans-32"/>
       <use x="612.939453" xlink:href="#DejaVuSans-50"/>
       <use x="676.5625" xlink:href="#DejaVuSans-49"/>
       <use x="740.185547" xlink:href="#DejaVuSans-58"/>
       <use x="773.876953" xlink:href="#DejaVuSans-48"/>
       <use x="837.5" xlink:href="#DejaVuSans-48"/>
       <use x="901.123047" xlink:href="#DejaVuSans-58"/>
       <use x="934.814453" xlink:href="#DejaVuSans-48"/>
       <use x="998.4375" xlink:href="#DejaVuSans-48"/>
      </g>
     </g>
    </g>
    <g id="xtick_7">
     <g id="line2d_7">
      <g>
       <use style="stroke:#000000;stroke-width:0.8;" x="359.354994" xlink:href="#mba2cfb7c2a" y="267.118125"/>
      </g>
     </g>
     <g id="text_7">
      <!-- 2017-04-16 10:00:00 -->
      <g transform="translate(266.33784 333.80169)rotate(-30)scale(0.1 -0.1)">
       <defs>
        <path d="M 33.015625 40.375 
Q 26.375 40.375 22.484375 35.828125 
Q 18.609375 31.296875 18.609375 23.390625 
Q 18.609375 15.53125 22.484375 10.953125 
Q 26.375 6.390625 33.015625 6.390625 
Q 39.65625 6.390625 43.53125 10.953125 
Q 47.40625 15.53125 47.40625 23.390625 
Q 47.40625 31.296875 43.53125 35.828125 
Q 39.65625 40.375 33.015625 40.375 
z
M 52.59375 71.296875 
L 52.59375 62.3125 
Q 48.875 64.0625 45.09375 64.984375 
Q 41.3125 65.921875 37.59375 65.921875 
Q 27.828125 65.921875 22.671875 59.328125 
Q 17.53125 52.734375 16.796875 39.40625 
Q 19.671875 43.65625 24.015625 45.921875 
Q 28.375 48.1875 33.59375 48.1875 
Q 44.578125 48.1875 50.953125 41.515625 
Q 57.328125 34.859375 57.328125 23.390625 
Q 57.328125 12.15625 50.6875 5.359375 
Q 44.046875 -1.421875 33.015625 -1.421875 
Q 20.359375 -1.421875 13.671875 8.265625 
Q 6.984375 17.96875 6.984375 36.375 
Q 6.984375 53.65625 15.1875 63.9375 
Q 23.390625 74.21875 37.203125 74.21875 
Q 40.921875 74.21875 44.703125 73.484375 
Q 48.484375 72.75 52.59375 71.296875 
z
" id="DejaVuSans-54"/>
       </defs>
       <use xlink:href="#DejaVuSans-50"/>
       <use x="63.623047" xlink:href="#DejaVuSans-48"/>
       <use x="127.246094" xlink:href="#DejaVuSans-49"/>
       <use x="190.869141" xlink:href="#DejaVuSans-55"/>
       <use x="254.492188" xlink:href="#DejaVuSans-45"/>
       <use x="290.576172" xlink:href="#DejaVuSans-48"/>
       <use x="354.199219" xlink:href="#DejaVuSans-52"/>
       <use x="417.822266" xlink:href="#DejaVuSans-45"/>
       <use x="453.90625" xlink:href="#DejaVuSans-49"/>
       <use x="517.529297" xlink:href="#DejaVuSans-54"/>
       <use x="581.152344" xlink:href="#DejaVuSans-32"/>
       <use x="612.939453" xlink:href="#DejaVuSans-49"/>
       <use x="676.5625" xlink:href="#DejaVuSans-48"/>
       <use x="740.185547" xlink:href="#DejaVuSans-58"/>
       <use x="773.876953" xlink:href="#DejaVuSans-48"/>
       <use x="837.5" xlink:href="#DejaVuSans-48"/>
       <use x="901.123047" xlink:href="#DejaVuSans-58"/>
       <use x="934.814453" xlink:href="#DejaVuSans-48"/>
       <use x="998.4375" xlink:href="#DejaVuSans-48"/>
      </g>
     </g>
    </g>
    <g id="xtick_8">
     <g id="line2d_8">
      <g>
       <use style="stroke:#000000;stroke-width:0.8;" x="401.911431" xlink:href="#mba2cfb7c2a" y="267.118125"/>
      </g>
     </g>
     <g id="text_8">
      <!-- 2017-04-16 22:00:00 -->
      <g transform="translate(308.894277 333.80169)rotate(-30)scale(0.1 -0.1)">
       <use xlink:href="#DejaVuSans-50"/>
       <use x="63.623047" xlink:href="#DejaVuSans-48"/>
       <use x="127.246094" xlink:href="#DejaVuSans-49"/>
       <use x="190.869141" xlink:href="#DejaVuSans-55"/>
       <use x="254.492188" xlink:href="#DejaVuSans-45"/>
       <use x="290.576172" xlink:href="#DejaVuSans-48"/>
       <use x="354.199219" xlink:href="#DejaVuSans-52"/>
       <use x="417.822266" xlink:href="#DejaVuSans-45"/>
       <use x="453.90625" xlink:href="#DejaVuSans-49"/>
       <use x="517.529297" xlink:href="#DejaVuSans-54"/>
       <use x="581.152344" xlink:href="#DejaVuSans-32"/>
       <use x="612.939453" xlink:href="#DejaVuSans-50"/>
       <use x="676.5625" xlink:href="#DejaVuSans-50"/>
       <use x="740.185547" xlink:href="#DejaVuSans-58"/>
       <use x="773.876953" xlink:href="#DejaVuSans-48"/>
       <use x="837.5" xlink:href="#DejaVuSans-48"/>
       <use x="901.123047" xlink:href="#DejaVuSans-58"/>
       <use x="934.814453" xlink:href="#DejaVuSans-48"/>
       <use x="998.4375" xlink:href="#DejaVuSans-48"/>
      </g>
     </g>
    </g>
    <g id="xtick_9">
     <g id="line2d_9">
      <g>
       <use style="stroke:#000000;stroke-width:0.8;" x="444.467868" xlink:href="#mba2cfb7c2a" y="267.118125"/>
      </g>
     </g>
     <g id="text_9">
      <!-- 2017-04-17 11:00:00 -->
      <g transform="translate(351.450714 333.80169)rotate(-30)scale(0.1 -0.1)">
       <use xlink:href="#DejaVuSans-50"/>
       <use x="63.623047" xlink:href="#DejaVuSans-48"/>
       <use x="127.246094" xlink:href="#DejaVuSans-49"/>
       <use x="190.869141" xlink:href="#DejaVuSans-55"/>
       <use x="254.492188" xlink:href="#DejaVuSans-45"/>
       <use x="290.576172" xlink:href="#DejaVuSans-48"/>
       <use x="354.199219" xlink:href="#DejaVuSans-52"/>
       <use x="417.822266" xlink:href="#DejaVuSans-45"/>
       <use x="453.90625" xlink:href="#DejaVuSans-49"/>
       <use x="517.529297" xlink:href="#DejaVuSans-55"/>
       <use x="581.152344" xlink:href="#DejaVuSans-32"/>
       <use x="612.939453" xlink:href="#DejaVuSans-49"/>
       <use x="676.5625" xlink:href="#DejaVuSans-49"/>
       <use x="740.185547" xlink:href="#DejaVuSans-58"/>
       <use x="773.876953" xlink:href="#DejaVuSans-48"/>
       <use x="837.5" xlink:href="#DejaVuSans-48"/>
       <use x="901.123047" xlink:href="#DejaVuSans-58"/>
       <use x="934.814453" xlink:href="#DejaVuSans-48"/>
       <use x="998.4375" xlink:href="#DejaVuSans-48"/>
      </g>
     </g>
    </g>
    <g id="xtick_10">
     <g id="line2d_10">
      <g>
       <use style="stroke:#000000;stroke-width:0.8;" x="487.024305" xlink:href="#mba2cfb7c2a" y="267.118125"/>
      </g>
     </g>
     <g id="text_10">
      <!-- 2017-04-17 23:00:00 -->
      <g transform="translate(394.00715 333.80169)rotate(-30)scale(0.1 -0.1)">
       <use xlink:href="#DejaVuSans-50"/>
       <use x="63.623047" xlink:href="#DejaVuSans-48"/>
       <use x="127.246094" xlink:href="#DejaVuSans-49"/>
       <use x="190.869141" xlink:href="#DejaVuSans-55"/>
       <use x="254.492188" xlink:href="#DejaVuSans-45"/>
       <use x="290.576172" xlink:href="#DejaVuSans-48"/>
       <use x="354.199219" xlink:href="#DejaVuSans-52"/>
       <use x="417.822266" xlink:href="#DejaVuSans-45"/>
       <use x="453.90625" xlink:href="#DejaVuSans-49"/>
       <use x="517.529297" xlink:href="#DejaVuSans-55"/>
       <use x="581.152344" xlink:href="#DejaVuSans-32"/>
       <use x="612.939453" xlink:href="#DejaVuSans-50"/>
       <use x="676.5625" xlink:href="#DejaVuSans-51"/>
       <use x="740.185547" xlink:href="#DejaVuSans-58"/>
       <use x="773.876953" xlink:href="#DejaVuSans-48"/>
       <use x="837.5" xlink:href="#DejaVuSans-48"/>
       <use x="901.123047" xlink:href="#DejaVuSans-58"/>
       <use x="934.814453" xlink:href="#DejaVuSans-48"/>
       <use x="998.4375" xlink:href="#DejaVuSans-48"/>
      </g>
     </g>
    </g>
    <g id="xtick_11">
     <g id="line2d_11">
      <g>
       <use style="stroke:#000000;stroke-width:0.8;" x="529.580742" xlink:href="#mba2cfb7c2a" y="267.118125"/>
      </g>
     </g>
     <g id="text_11">
      <!-- 2017-04-18 12:00:00 -->
      <g transform="translate(436.563587 333.80169)rotate(-30)scale(0.1 -0.1)">
       <use xlink:href="#DejaVuSans-50"/>
       <use x="63.623047" xlink:href="#DejaVuSans-48"/>
       <use x="127.246094" xlink:href="#DejaVuSans-49"/>
       <use x="190.869141" xlink:href="#DejaVuSans-55"/>
       <use x="254.492188" xlink:href="#DejaVuSans-45"/>
       <use x="290.576172" xlink:href="#DejaVuSans-48"/>
       <use x="354.199219" xlink:href="#DejaVuSans-52"/>
       <use x="417.822266" xlink:href="#DejaVuSans-45"/>
       <use x="453.90625" xlink:href="#DejaVuSans-49"/>
       <use x="517.529297" xlink:href="#DejaVuSans-56"/>
       <use x="581.152344" xlink:href="#DejaVuSans-32"/>
       <use x="612.939453" xlink:href="#DejaVuSans-49"/>
       <use x="676.5625" xlink:href="#DejaVuSans-50"/>
       <use x="740.185547" xlink:href="#DejaVuSans-58"/>
       <use x="773.876953" xlink:href="#DejaVuSans-48"/>
       <use x="837.5" xlink:href="#DejaVuSans-48"/>
       <use x="901.123047" xlink:href="#DejaVuSans-58"/>
       <use x="934.814453" xlink:href="#DejaVuSans-48"/>
       <use x="998.4375" xlink:href="#DejaVuSans-48"/>
      </g>
     </g>
    </g>
    <g id="xtick_12">
     <g id="line2d_12">
      <g>
       <use style="stroke:#000000;stroke-width:0.8;" x="572.137178" xlink:href="#mba2cfb7c2a" y="267.118125"/>
      </g>
     </g>
     <g id="text_12">
      <!-- 2017-04-19 00:00:00 -->
      <g transform="translate(479.120024 333.80169)rotate(-30)scale(0.1 -0.1)">
       <use xlink:href="#DejaVuSans-50"/>
       <use x="63.623047" xlink:href="#DejaVuSans-48"/>
       <use x="127.246094" xlink:href="#DejaVuSans-49"/>
       <use x="190.869141" xlink:href="#DejaVuSans-55"/>
       <use x="254.492188" xlink:href="#DejaVuSans-45"/>
       <use x="290.576172" xlink:href="#DejaVuSans-48"/>
       <use x="354.199219" xlink:href="#DejaVuSans-52"/>
       <use x="417.822266" xlink:href="#DejaVuSans-45"/>
       <use x="453.90625" xlink:href="#DejaVuSans-49"/>
       <use x="517.529297" xlink:href="#DejaVuSans-57"/>
       <use x="581.152344" xlink:href="#DejaVuSans-32"/>
       <use x="612.939453" xlink:href="#DejaVuSans-48"/>
       <use x="676.5625" xlink:href="#DejaVuSans-48"/>
       <use x="740.185547" xlink:href="#DejaVuSans-58"/>
       <use x="773.876953" xlink:href="#DejaVuSans-48"/>
       <use x="837.5" xlink:href="#DejaVuSans-48"/>
       <use x="901.123047" xlink:href="#DejaVuSans-58"/>
       <use x="934.814453" xlink:href="#DejaVuSans-48"/>
       <use x="998.4375" xlink:href="#DejaVuSans-48"/>
      </g>
     </g>
    </g>
    <g id="xtick_13">
     <g id="line2d_13">
      <g>
       <use style="stroke:#000000;stroke-width:0.8;" x="614.693615" xlink:href="#mba2cfb7c2a" y="267.118125"/>
      </g>
     </g>
    </g>
    <g id="text_13">
     <!-- Período -->
     <g transform="translate(333.472744 347.20119)scale(0.1 -0.1)">
      <defs>
       <path d="M 19.671875 64.796875 
L 19.671875 37.40625 
L 32.078125 37.40625 
Q 38.96875 37.40625 42.71875 40.96875 
Q 46.484375 44.53125 46.484375 51.125 
Q 46.484375 57.671875 42.71875 61.234375 
Q 38.96875 64.796875 32.078125 64.796875 
z
M 9.8125 72.90625 
L 32.078125 72.90625 
Q 44.34375 72.90625 50.609375 67.359375 
Q 56.890625 61.8125 56.890625 51.125 
Q 56.890625 40.328125 50.609375 34.8125 
Q 44.34375 29.296875 32.078125 29.296875 
L 19.671875 29.296875 
L 19.671875 0 
L 9.8125 0 
z
" id="DejaVuSans-80"/>
       <path d="M 56.203125 29.59375 
L 56.203125 25.203125 
L 14.890625 25.203125 
Q 15.484375 15.921875 20.484375 11.0625 
Q 25.484375 6.203125 34.421875 6.203125 
Q 39.59375 6.203125 44.453125 7.46875 
Q 49.3125 8.734375 54.109375 11.28125 
L 54.109375 2.78125 
Q 49.265625 0.734375 44.1875 -0.34375 
Q 39.109375 -1.421875 33.890625 -1.421875 
Q 20.796875 -1.421875 13.15625 6.1875 
Q 5.515625 13.8125 5.515625 26.8125 
Q 5.515625 40.234375 12.765625 48.109375 
Q 20.015625 56 32.328125 56 
Q 43.359375 56 49.78125 48.890625 
Q 56.203125 41.796875 56.203125 29.59375 
z
M 47.21875 32.234375 
Q 47.125 39.59375 43.09375 43.984375 
Q 39.0625 48.390625 32.421875 48.390625 
Q 24.90625 48.390625 20.390625 44.140625 
Q 15.875 39.890625 15.1875 32.171875 
z
" id="DejaVuSans-101"/>
       <path d="M 41.109375 46.296875 
Q 39.59375 47.171875 37.8125 47.578125 
Q 36.03125 48 33.890625 48 
Q 26.265625 48 22.1875 43.046875 
Q 18.109375 38.09375 18.109375 28.8125 
L 18.109375 0 
L 9.078125 0 
L 9.078125 54.6875 
L 18.109375 54.6875 
L 18.109375 46.1875 
Q 20.953125 51.171875 25.484375 53.578125 
Q 30.03125 56 36.53125 56 
Q 37.453125 56 38.578125 55.875 
Q 39.703125 55.765625 41.0625 55.515625 
z
" id="DejaVuSans-114"/>
       <path d="M 20.703125 79.984375 
L 30.421875 79.984375 
L 14.5 61.625 
L 7.03125 61.625 
z
M 9.421875 54.6875 
L 18.40625 54.6875 
L 18.40625 0 
L 9.421875 0 
z
M 13.921875 56 
z
" id="DejaVuSans-237"/>
       <path d="M 30.609375 48.390625 
Q 23.390625 48.390625 19.1875 42.75 
Q 14.984375 37.109375 14.984375 27.296875 
Q 14.984375 17.484375 19.15625 11.84375 
Q 23.34375 6.203125 30.609375 6.203125 
Q 37.796875 6.203125 41.984375 11.859375 
Q 46.1875 17.53125 46.1875 27.296875 
Q 46.1875 37.015625 41.984375 42.703125 
Q 37.796875 48.390625 30.609375 48.390625 
z
M 30.609375 56 
Q 42.328125 56 49.015625 48.375 
Q 55.71875 40.765625 55.71875 27.296875 
Q 55.71875 13.875 49.015625 6.21875 
Q 42.328125 -1.421875 30.609375 -1.421875 
Q 18.84375 -1.421875 12.171875 6.21875 
Q 5.515625 13.875 5.515625 27.296875 
Q 5.515625 40.765625 12.171875 48.375 
Q 18.84375 56 30.609375 56 
z
" id="DejaVuSans-111"/>
       <path d="M 45.40625 46.390625 
L 45.40625 75.984375 
L 54.390625 75.984375 
L 54.390625 0 
L 45.40625 0 
L 45.40625 8.203125 
Q 42.578125 3.328125 38.25 0.953125 
Q 33.9375 -1.421875 27.875 -1.421875 
Q 17.96875 -1.421875 11.734375 6.484375 
Q 5.515625 14.40625 5.515625 27.296875 
Q 5.515625 40.1875 11.734375 48.09375 
Q 17.96875 56 27.875 56 
Q 33.9375 56 38.25 53.625 
Q 42.578125 51.265625 45.40625 46.390625 
z
M 14.796875 27.296875 
Q 14.796875 17.390625 18.875 11.75 
Q 22.953125 6.109375 30.078125 6.109375 
Q 37.203125 6.109375 41.296875 11.75 
Q 45.40625 17.390625 45.40625 27.296875 
Q 45.40625 37.203125 41.296875 42.84375 
Q 37.203125 48.484375 30.078125 48.484375 
Q 22.953125 48.484375 18.875 42.84375 
Q 14.796875 37.203125 14.796875 27.296875 
z
" id="DejaVuSans-100"/>
      </defs>
      <use xlink:href="#DejaVuSans-80"/>
      <use x="56.677734" xlink:href="#DejaVuSans-101"/>
      <use x="118.201172" xlink:href="#DejaVuSans-114"/>
      <use x="159.314453" xlink:href="#DejaVuSans-237"/>
      <use x="187.097656" xlink:href="#DejaVuSans-111"/>
      <use x="248.279297" xlink:href="#DejaVuSans-100"/>
      <use x="311.755859" xlink:href="#DejaVuSans-111"/>
     </g>
    </g>
   </g>
   <g id="matplotlib.axis_2">
    <g id="ytick_1">
     <g id="line2d_14">
      <defs>
       <path d="M 0 0 
L -3.5 0 
" id="m474c0c43bd" style="stroke:#000000;stroke-width:0.8;"/>
      </defs>
      <g>
       <use style="stroke:#000000;stroke-width:0.8;" x="73.1204" xlink:href="#m474c0c43bd" y="255.326128"/>
      </g>
     </g>
     <g id="text_14">
      <!-- 0.25 -->
      <g transform="translate(43.854775 259.125346)scale(0.1 -0.1)">
       <defs>
        <path d="M 10.6875 12.40625 
L 21 12.40625 
L 21 0 
L 10.6875 0 
z
" id="DejaVuSans-46"/>
       </defs>
       <use xlink:href="#DejaVuSans-48"/>
       <use x="63.623047" xlink:href="#DejaVuSans-46"/>
       <use x="95.410156" xlink:href="#DejaVuSans-50"/>
       <use x="159.033203" xlink:href="#DejaVuSans-53"/>
      </g>
     </g>
    </g>
    <g id="ytick_2">
     <g id="line2d_15">
      <g>
       <use style="stroke:#000000;stroke-width:0.8;" x="73.1204" xlink:href="#m474c0c43bd" y="227.811156"/>
      </g>
     </g>
     <g id="text_15">
      <!-- 0.50 -->
      <g transform="translate(43.854775 231.610375)scale(0.1 -0.1)">
       <use xlink:href="#DejaVuSans-48"/>
       <use x="63.623047" xlink:href="#DejaVuSans-46"/>
       <use x="95.410156" xlink:href="#DejaVuSans-53"/>
       <use x="159.033203" xlink:href="#DejaVuSans-48"/>
      </g>
     </g>
    </g>
    <g id="ytick_3">
     <g id="line2d_16">
      <g>
       <use style="stroke:#000000;stroke-width:0.8;" x="73.1204" xlink:href="#m474c0c43bd" y="200.296185"/>
      </g>
     </g>
     <g id="text_16">
      <!-- 0.75 -->
      <g transform="translate(43.854775 204.095403)scale(0.1 -0.1)">
       <use xlink:href="#DejaVuSans-48"/>
       <use x="63.623047" xlink:href="#DejaVuSans-46"/>
       <use x="95.410156" xlink:href="#DejaVuSans-55"/>
       <use x="159.033203" xlink:href="#DejaVuSans-53"/>
      </g>
     </g>
    </g>
    <g id="ytick_4">
     <g id="line2d_17">
      <g>
       <use style="stroke:#000000;stroke-width:0.8;" x="73.1204" xlink:href="#m474c0c43bd" y="172.781213"/>
      </g>
     </g>
     <g id="text_17">
      <!-- 1.00 -->
      <g transform="translate(43.854775 176.580432)scale(0.1 -0.1)">
       <use xlink:href="#DejaVuSans-49"/>
       <use x="63.623047" xlink:href="#DejaVuSans-46"/>
       <use x="95.410156" xlink:href="#DejaVuSans-48"/>
       <use x="159.033203" xlink:href="#DejaVuSans-48"/>
      </g>
     </g>
    </g>
    <g id="ytick_5">
     <g id="line2d_18">
      <g>
       <use style="stroke:#000000;stroke-width:0.8;" x="73.1204" xlink:href="#m474c0c43bd" y="145.266242"/>
      </g>
     </g>
     <g id="text_18">
      <!-- 1.25 -->
      <g transform="translate(43.854775 149.06546)scale(0.1 -0.1)">
       <use xlink:href="#DejaVuSans-49"/>
       <use x="63.623047" xlink:href="#DejaVuSans-46"/>
       <use x="95.410156" xlink:href="#DejaVuSans-50"/>
       <use x="159.033203" xlink:href="#DejaVuSans-53"/>
      </g>
     </g>
    </g>
    <g id="ytick_6">
     <g id="line2d_19">
      <g>
       <use style="stroke:#000000;stroke-width:0.8;" x="73.1204" xlink:href="#m474c0c43bd" y="117.75127"/>
      </g>
     </g>
     <g id="text_19">
      <!-- 1.50 -->
      <g transform="translate(43.854775 121.550489)scale(0.1 -0.1)">
       <use xlink:href="#DejaVuSans-49"/>
       <use x="63.623047" xlink:href="#DejaVuSans-46"/>
       <use x="95.410156" xlink:href="#DejaVuSans-53"/>
       <use x="159.033203" xlink:href="#DejaVuSans-48"/>
      </g>
     </g>
    </g>
    <g id="ytick_7">
     <g id="line2d_20">
      <g>
       <use style="stroke:#000000;stroke-width:0.8;" x="73.1204" xlink:href="#m474c0c43bd" y="90.236299"/>
      </g>
     </g>
     <g id="text_20">
      <!-- 1.75 -->
      <g transform="translate(43.854775 94.035518)scale(0.1 -0.1)">
       <use xlink:href="#DejaVuSans-49"/>
       <use x="63.623047" xlink:href="#DejaVuSans-46"/>
       <use x="95.410156" xlink:href="#DejaVuSans-55"/>
       <use x="159.033203" xlink:href="#DejaVuSans-53"/>
      </g>
     </g>
    </g>
    <g id="ytick_8">
     <g id="line2d_21">
      <g>
       <use style="stroke:#000000;stroke-width:0.8;" x="73.1204" xlink:href="#m474c0c43bd" y="62.721327"/>
      </g>
     </g>
     <g id="text_21">
      <!-- 2.00 -->
      <g transform="translate(43.854775 66.520546)scale(0.1 -0.1)">
       <use xlink:href="#DejaVuSans-50"/>
       <use x="63.623047" xlink:href="#DejaVuSans-46"/>
       <use x="95.410156" xlink:href="#DejaVuSans-48"/>
       <use x="159.033203" xlink:href="#DejaVuSans-48"/>
      </g>
     </g>
    </g>
    <g id="ytick_9">
     <g id="line2d_22">
      <g>
       <use style="stroke:#000000;stroke-width:0.8;" x="73.1204" xlink:href="#m474c0c43bd" y="35.206356"/>
      </g>
     </g>
     <g id="text_22">
      <!-- 2.25 -->
      <g transform="translate(43.854775 39.005575)scale(0.1 -0.1)">
       <use xlink:href="#DejaVuSans-50"/>
       <use x="63.623047" xlink:href="#DejaVuSans-46"/>
       <use x="95.410156" xlink:href="#DejaVuSans-50"/>
       <use x="159.033203" xlink:href="#DejaVuSans-53"/>
      </g>
     </g>
    </g>
    <g id="text_23">
     <!-- energia (kWh) -->
     <g transform="translate(37.775087 180.13375)rotate(-90)scale(0.1 -0.1)">
      <defs>
       <path d="M 54.890625 33.015625 
L 54.890625 0 
L 45.90625 0 
L 45.90625 32.71875 
Q 45.90625 40.484375 42.875 44.328125 
Q 39.84375 48.1875 33.796875 48.1875 
Q 26.515625 48.1875 22.3125 43.546875 
Q 18.109375 38.921875 18.109375 30.90625 
L 18.109375 0 
L 9.078125 0 
L 9.078125 54.6875 
L 18.109375 54.6875 
L 18.109375 46.1875 
Q 21.34375 51.125 25.703125 53.5625 
Q 30.078125 56 35.796875 56 
Q 45.21875 56 50.046875 50.171875 
Q 54.890625 44.34375 54.890625 33.015625 
z
" id="DejaVuSans-110"/>
       <path d="M 45.40625 27.984375 
Q 45.40625 37.75 41.375 43.109375 
Q 37.359375 48.484375 30.078125 48.484375 
Q 22.859375 48.484375 18.828125 43.109375 
Q 14.796875 37.75 14.796875 27.984375 
Q 14.796875 18.265625 18.828125 12.890625 
Q 22.859375 7.515625 30.078125 7.515625 
Q 37.359375 7.515625 41.375 12.890625 
Q 45.40625 18.265625 45.40625 27.984375 
z
M 54.390625 6.78125 
Q 54.390625 -7.171875 48.1875 -13.984375 
Q 42 -20.796875 29.203125 -20.796875 
Q 24.46875 -20.796875 20.265625 -20.09375 
Q 16.0625 -19.390625 12.109375 -17.921875 
L 12.109375 -9.1875 
Q 16.0625 -11.328125 19.921875 -12.34375 
Q 23.78125 -13.375 27.78125 -13.375 
Q 36.625 -13.375 41.015625 -8.765625 
Q 45.40625 -4.15625 45.40625 5.171875 
L 45.40625 9.625 
Q 42.625 4.78125 38.28125 2.390625 
Q 33.9375 0 27.875 0 
Q 17.828125 0 11.671875 7.65625 
Q 5.515625 15.328125 5.515625 27.984375 
Q 5.515625 40.671875 11.671875 48.328125 
Q 17.828125 56 27.875 56 
Q 33.9375 56 38.28125 53.609375 
Q 42.625 51.21875 45.40625 46.390625 
L 45.40625 54.6875 
L 54.390625 54.6875 
z
" id="DejaVuSans-103"/>
       <path d="M 9.421875 54.6875 
L 18.40625 54.6875 
L 18.40625 0 
L 9.421875 0 
z
M 9.421875 75.984375 
L 18.40625 75.984375 
L 18.40625 64.59375 
L 9.421875 64.59375 
z
" id="DejaVuSans-105"/>
       <path d="M 34.28125 27.484375 
Q 23.390625 27.484375 19.1875 25 
Q 14.984375 22.515625 14.984375 16.5 
Q 14.984375 11.71875 18.140625 8.90625 
Q 21.296875 6.109375 26.703125 6.109375 
Q 34.1875 6.109375 38.703125 11.40625 
Q 43.21875 16.703125 43.21875 25.484375 
L 43.21875 27.484375 
z
M 52.203125 31.203125 
L 52.203125 0 
L 43.21875 0 
L 43.21875 8.296875 
Q 40.140625 3.328125 35.546875 0.953125 
Q 30.953125 -1.421875 24.3125 -1.421875 
Q 15.921875 -1.421875 10.953125 3.296875 
Q 6 8.015625 6 15.921875 
Q 6 25.140625 12.171875 29.828125 
Q 18.359375 34.515625 30.609375 34.515625 
L 43.21875 34.515625 
L 43.21875 35.40625 
Q 43.21875 41.609375 39.140625 45 
Q 35.0625 48.390625 27.6875 48.390625 
Q 23 48.390625 18.546875 47.265625 
Q 14.109375 46.140625 10.015625 43.890625 
L 10.015625 52.203125 
Q 14.9375 54.109375 19.578125 55.046875 
Q 24.21875 56 28.609375 56 
Q 40.484375 56 46.34375 49.84375 
Q 52.203125 43.703125 52.203125 31.203125 
z
" id="DejaVuSans-97"/>
       <path d="M 31 75.875 
Q 24.46875 64.65625 21.28125 53.65625 
Q 18.109375 42.671875 18.109375 31.390625 
Q 18.109375 20.125 21.3125 9.0625 
Q 24.515625 -2 31 -13.1875 
L 23.1875 -13.1875 
Q 15.875 -1.703125 12.234375 9.375 
Q 8.59375 20.453125 8.59375 31.390625 
Q 8.59375 42.28125 12.203125 53.3125 
Q 15.828125 64.359375 23.1875 75.875 
z
" id="DejaVuSans-40"/>
       <path d="M 9.078125 75.984375 
L 18.109375 75.984375 
L 18.109375 31.109375 
L 44.921875 54.6875 
L 56.390625 54.6875 
L 27.390625 29.109375 
L 57.625 0 
L 45.90625 0 
L 18.109375 26.703125 
L 18.109375 0 
L 9.078125 0 
z
" id="DejaVuSans-107"/>
       <path d="M 3.328125 72.90625 
L 13.28125 72.90625 
L 28.609375 11.28125 
L 43.890625 72.90625 
L 54.984375 72.90625 
L 70.3125 11.28125 
L 85.59375 72.90625 
L 95.609375 72.90625 
L 77.296875 0 
L 64.890625 0 
L 49.515625 63.28125 
L 33.984375 0 
L 21.578125 0 
z
" id="DejaVuSans-87"/>
       <path d="M 54.890625 33.015625 
L 54.890625 0 
L 45.90625 0 
L 45.90625 32.71875 
Q 45.90625 40.484375 42.875 44.328125 
Q 39.84375 48.1875 33.796875 48.1875 
Q 26.515625 48.1875 22.3125 43.546875 
Q 18.109375 38.921875 18.109375 30.90625 
L 18.109375 0 
L 9.078125 0 
L 9.078125 75.984375 
L 18.109375 75.984375 
L 18.109375 46.1875 
Q 21.34375 51.125 25.703125 53.5625 
Q 30.078125 56 35.796875 56 
Q 45.21875 56 50.046875 50.171875 
Q 54.890625 44.34375 54.890625 33.015625 
z
" id="DejaVuSans-104"/>
       <path d="M 8.015625 75.875 
L 15.828125 75.875 
Q 23.140625 64.359375 26.78125 53.3125 
Q 30.421875 42.28125 30.421875 31.390625 
Q 30.421875 20.453125 26.78125 9.375 
Q 23.140625 -1.703125 15.828125 -13.1875 
L 8.015625 -13.1875 
Q 14.5 -2 17.703125 9.0625 
Q 20.90625 20.125 20.90625 31.390625 
Q 20.90625 42.671875 17.703125 53.65625 
Q 14.5 64.65625 8.015625 75.875 
z
" id="DejaVuSans-41"/>
      </defs>
      <use xlink:href="#DejaVuSans-101"/>
      <use x="61.523438" xlink:href="#DejaVuSans-110"/>
      <use x="124.902344" xlink:href="#DejaVuSans-101"/>
      <use x="186.425781" xlink:href="#DejaVuSans-114"/>
      <use x="225.789062" xlink:href="#DejaVuSans-103"/>
      <use x="289.265625" xlink:href="#DejaVuSans-105"/>
      <use x="317.048828" xlink:href="#DejaVuSans-97"/>
      <use x="378.328125" xlink:href="#DejaVuSans-32"/>
      <use x="410.115234" xlink:href="#DejaVuSans-40"/>
      <use x="449.128906" xlink:href="#DejaVuSans-107"/>
      <use x="507.039062" xlink:href="#DejaVuSans-87"/>
      <use x="605.916016" xlink:href="#DejaVuSans-104"/>
      <use x="669.294922" xlink:href="#DejaVuSans-41"/>
     </g>
    </g>
   </g>
   <g id="line2d_23">
    <path clip-path="url(#pa9f9e9c3e3)" d="M 98.484036 244.100019 
L 101.888551 236.615947 
L 105.293066 229.572114 
L 108.697581 225.609958 
L 112.102096 214.60397 
L 115.506611 209.100975 
L 118.911126 209.321095 
L 122.315641 211.522293 
L 125.720156 211.522293 
L 129.124671 208.880856 
L 132.529186 203.818101 
L 135.933701 201.176664 
L 139.338216 199.855945 
L 142.742731 201.176664 
L 146.147246 199.855945 
L 152.956275 209.100975 
L 156.36079 214.60397 
L 159.765305 218.125886 
L 163.16982 231.773312 
L 166.574335 237.056186 
L 169.97885 242.99942 
L 173.383365 246.521337 
L 176.78788 248.062175 
L 180.192395 248.502415 
L 183.59691 247.181696 
L 187.001425 242.99942 
L 190.40594 230.232474 
L 193.810455 227.150797 
L 197.21497 224.509359 
L 200.619485 217.685647 
L 204.024 180.705525 
L 207.428515 182.466483 
L 210.83303 184.447561 
L 214.237544 186.868879 
L 217.642059 193.472472 
L 221.046574 230.012354 
L 224.451089 239.697624 
L 227.855604 239.477504 
L 231.260119 237.496426 
L 234.664634 238.597025 
L 238.069149 240.798223 
L 241.473664 241.458582 
L 244.878179 241.678702 
L 248.282694 245.420738 
L 251.687209 246.301217 
L 255.091724 248.502415 
L 258.496239 246.741456 
L 261.900754 245.860977 
L 265.305269 244.320139 
L 268.709784 243.879899 
L 272.114299 229.351994 
L 275.518814 222.528282 
L 278.923329 219.886844 
L 282.327843 213.283251 
L 285.732358 216.144808 
L 289.136873 228.031276 
L 292.541388 238.817145 
L 295.945903 238.156785 
L 299.350418 242.118941 
L 302.754933 237.936666 
L 306.159448 238.156785 
L 309.563963 236.395827 
L 312.968478 239.917744 
L 316.372993 242.99942 
L 319.777508 215.704569 
L 323.182023 215.264329 
L 326.586538 214.60397 
L 329.991053 215.704569 
L 333.395568 215.704569 
L 336.800083 245.640858 
L 340.204598 248.062175 
L 343.609113 249.382894 
L 347.013627 250.263373 
L 350.418142 250.923732 
L 353.822657 244.760378 
L 357.227172 232.653791 
L 360.631687 225.609958 
L 364.036202 217.905766 
L 367.440717 213.723491 
L 370.845232 219.006365 
L 374.249747 229.131875 
L 377.654262 234.414749 
L 381.058777 225.830078 
L 387.867807 190.831034 
L 391.272322 129.857858 
L 394.676837 118.41163 
L 398.081352 129.417618 
L 401.485867 147.24732 
L 404.890382 159.574027 
L 408.294897 221.207563 
L 411.699411 233.094031 
L 418.508441 239.257384 
L 421.912956 244.980498 
L 425.317471 247.401816 
L 428.721986 239.477504 
L 432.126501 231.112953 
L 435.531016 227.591036 
L 438.935531 226.050198 
L 442.340046 225.169719 
L 445.744561 227.370917 
L 449.149076 237.496426 
L 452.553591 237.496426 
L 455.958106 196.994388 
L 459.362621 145.926601 
L 462.767136 81.211388 
L 466.171651 54.136656 
L 469.576166 33.445398 
L 472.980681 69.54504 
L 476.385195 111.587917 
L 479.78971 171.020255 
L 483.194225 190.390795 
L 486.59874 210.421694 
L 490.003255 213.503371 
L 493.40777 219.006365 
L 496.812285 229.792234 
L 500.2168 235.735468 
L 503.621315 237.056186 
L 507.02583 238.817145 
L 510.430345 235.515348 
L 513.83486 226.490437 
L 517.239375 229.351994 
L 520.64389 232.433671 
L 524.048405 221.867922 
L 527.45292 206.459538 
L 530.857435 214.60397 
L 534.26195 213.283251 
L 537.666465 212.182652 
L 541.07098 221.207563 
L 544.475494 242.339061 
L 551.284524 242.339061 
L 554.689039 239.697624 
L 558.093554 233.53427 
L 561.498069 226.710557 
L 564.902584 219.446605 
L 568.307099 211.742413 
L 571.711614 214.16373 
L 575.116129 221.647802 
L 578.520644 227.150797 
L 581.925159 234.634869 
L 585.329674 240.578103 
L 588.734189 239.257384 
L 592.138704 233.094031 
L 595.543219 226.490437 
L 598.947734 224.28924 
L 602.352249 224.509359 
L 605.756764 227.150797 
L 605.756764 227.150797 
" style="fill:none;stroke:#000000;stroke-linecap:square;stroke-width:1.5;"/>
   </g>
   <g id="line2d_24">
    <path clip-path="url(#pa9f9e9c3e3)" d="M 98.484036 243.115013 
L 101.888551 243.155466 
L 105.293066 231.692313 
L 108.697581 223.279249 
L 112.102096 220.549639 
L 115.506611 208.838695 
L 118.911126 206.449225 
L 122.315641 210.857028 
L 125.720156 213.673907 
L 129.124671 213.256457 
L 132.529186 209.53962 
L 135.933701 201.99825 
L 139.338216 197.945144 
L 142.742731 197.131497 
L 146.147246 200.047453 
L 149.55176 198.931275 
L 152.956275 206.866538 
L 156.36079 213.265772 
L 159.765305 220.660006 
L 163.16982 224.089163 
L 166.574335 239.514051 
L 169.97885 241.234383 
L 173.383365 245.536267 
L 176.78788 247.309037 
L 180.192395 247.223526 
L 183.59691 246.585581 
L 187.001425 243.658792 
L 190.40594 237.070828 
L 193.810455 220.954678 
L 197.21497 223.057026 
L 200.619485 224.016792 
L 204.024 217.391105 
L 207.428515 168.110882 
L 210.83303 184.992672 
L 214.237544 192.635723 
L 217.642059 193.81163 
L 221.046574 198.849792 
L 224.451089 238.91461 
L 227.855604 238.140872 
L 231.260119 235.681235 
L 234.664634 234.89748 
L 241.473664 242.555619 
L 244.878179 242.154247 
L 248.282694 241.390181 
L 251.687209 245.905294 
L 255.091724 245.548252 
L 258.496239 247.571276 
L 261.900754 244.29326 
L 265.305269 243.350556 
L 268.709784 240.848335 
L 272.114299 239.247925 
L 275.518814 220.809976 
L 278.923329 218.349349 
L 282.327843 220.456932 
L 285.732358 213.738137 
L 289.136873 220.531487 
L 292.541388 236.310557 
L 295.945903 245.723485 
L 299.350418 239.651521 
L 302.754933 242.516157 
L 306.159448 233.223163 
L 309.563963 233.706176 
L 312.968478 233.304134 
L 316.372993 241.52711 
L 319.777508 245.185401 
L 323.182023 205.807085 
L 326.586538 214.812029 
L 329.991053 218.391635 
L 333.395568 220.052706 
L 336.800083 219.772355 
L 340.204598 255.990852 
L 343.609113 249.330499 
L 347.013627 247.484398 
L 350.418142 246.908613 
L 353.822657 246.457322 
L 357.227172 237.390786 
L 360.631687 223.630397 
L 364.036202 220.267149 
L 367.440717 214.150445 
L 370.845232 211.181424 
L 377.654262 231.739319 
L 381.058777 233.569926 
L 384.463292 220.04385 
L 387.867807 198.604622 
L 391.272322 180.578813 
L 394.676837 101.474884 
L 398.081352 109.242124 
L 401.485867 142.473301 
L 404.890382 169.838295 
L 408.294897 182.203903 
L 411.699411 245.814227 
L 415.103926 242.475875 
L 418.508441 238.849351 
L 421.912956 240.387519 
L 425.317471 246.353459 
L 428.721986 247.071854 
L 432.126501 233.934443 
L 435.531016 222.415897 
L 438.935531 222.244003 
L 442.340046 224.553387 
L 445.744561 225.316731 
L 449.149076 229.570294 
L 452.553591 243.286622 
L 455.958106 240.182018 
L 459.362621 183.081635 
L 462.767136 122.271153 
L 466.171651 51.143783 
L 469.576166 43.898069 
L 472.980681 37.842773 
L 476.385195 94.234051 
L 479.78971 137.987583 
L 483.194225 194.242372 
L 486.59874 207.241033 
L 490.003255 224.762339 
L 493.40777 221.611664 
L 496.812285 225.045256 
L 500.2168 236.191498 
L 503.621315 239.396491 
L 507.02583 237.844337 
L 510.430345 238.897138 
L 513.83486 233.327272 
L 517.239375 220.375436 
L 520.64389 226.894385 
L 524.048405 231.599881 
L 527.45292 217.06642 
L 530.857435 199.693261 
L 534.26195 218.447966 
L 537.666465 214.083361 
L 541.07098 211.276296 
L 544.475494 222.153474 
L 547.880009 245.935202 
L 551.284524 239.370844 
L 554.689039 238.330875 
L 558.093554 234.5454 
L 561.498069 227.283568 
L 564.902584 221.93152 
L 568.307099 217.411382 
L 571.711614 211.442188 
L 575.116129 218.62257 
L 578.520644 228.249435 
L 581.925159 232.195038 
L 585.329674 238.701582 
L 588.734189 242.949283 
L 592.138704 238.27683 
L 595.543219 228.858273 
L 598.947734 220.513126 
L 602.352249 221.140217 
L 605.756764 224.966948 
L 605.756764 224.966948 
" style="fill:none;stroke:#008000;stroke-dasharray:5.55,2.4;stroke-dashoffset:0;stroke-width:1.5;"/>
   </g>
   <g id="patch_3">
    <path d="M 73.1204 267.118125 
L 73.1204 22.318125 
" style="fill:none;stroke:#000000;stroke-linecap:square;stroke-linejoin:miter;stroke-width:0.8;"/>
   </g>
   <g id="patch_4">
    <path d="M 631.1204 267.118125 
L 631.1204 22.318125 
" style="fill:none;stroke:#000000;stroke-linecap:square;stroke-linejoin:miter;stroke-width:0.8;"/>
   </g>
   <g id="patch_5">
    <path d="M 73.1204 267.118125 
L 631.1204 267.118125 
" style="fill:none;stroke:#000000;stroke-linecap:square;stroke-linejoin:miter;stroke-width:0.8;"/>
   </g>
   <g id="patch_6">
    <path d="M 73.1204 22.318125 
L 631.1204 22.318125 
" style="fill:none;stroke:#000000;stroke-linecap:square;stroke-linejoin:miter;stroke-width:0.8;"/>
   </g>
   <g id="text_24">
    <!-- Previsão de Consumo Casa 7 -->
    <g transform="translate(265.170087 16.318125)scale(0.12 -0.12)">
     <defs>
      <path d="M 2.984375 54.6875 
L 12.5 54.6875 
L 29.59375 8.796875 
L 46.6875 54.6875 
L 56.203125 54.6875 
L 35.6875 0 
L 23.484375 0 
z
" id="DejaVuSans-118"/>
      <path d="M 44.28125 53.078125 
L 44.28125 44.578125 
Q 40.484375 46.53125 36.375 47.5 
Q 32.28125 48.484375 27.875 48.484375 
Q 21.1875 48.484375 17.84375 46.4375 
Q 14.5 44.390625 14.5 40.28125 
Q 14.5 37.15625 16.890625 35.375 
Q 19.28125 33.59375 26.515625 31.984375 
L 29.59375 31.296875 
Q 39.15625 29.25 43.1875 25.515625 
Q 47.21875 21.78125 47.21875 15.09375 
Q 47.21875 7.46875 41.1875 3.015625 
Q 35.15625 -1.421875 24.609375 -1.421875 
Q 20.21875 -1.421875 15.453125 -0.5625 
Q 10.6875 0.296875 5.421875 2 
L 5.421875 11.28125 
Q 10.40625 8.6875 15.234375 7.390625 
Q 20.0625 6.109375 24.8125 6.109375 
Q 31.15625 6.109375 34.5625 8.28125 
Q 37.984375 10.453125 37.984375 14.40625 
Q 37.984375 18.0625 35.515625 20.015625 
Q 33.0625 21.96875 24.703125 23.78125 
L 21.578125 24.515625 
Q 13.234375 26.265625 9.515625 29.90625 
Q 5.8125 33.546875 5.8125 39.890625 
Q 5.8125 47.609375 11.28125 51.796875 
Q 16.75 56 26.8125 56 
Q 31.78125 56 36.171875 55.265625 
Q 40.578125 54.546875 44.28125 53.078125 
z
" id="DejaVuSans-115"/>
      <path d="M 34.28125 27.484375 
Q 23.390625 27.484375 19.1875 25 
Q 14.984375 22.515625 14.984375 16.5 
Q 14.984375 11.71875 18.140625 8.90625 
Q 21.296875 6.109375 26.703125 6.109375 
Q 34.1875 6.109375 38.703125 11.40625 
Q 43.21875 16.703125 43.21875 25.484375 
L 43.21875 27.484375 
z
M 52.203125 31.203125 
L 52.203125 0 
L 43.21875 0 
L 43.21875 8.296875 
Q 40.140625 3.328125 35.546875 0.953125 
Q 30.953125 -1.421875 24.3125 -1.421875 
Q 15.921875 -1.421875 10.953125 3.296875 
Q 6 8.015625 6 15.921875 
Q 6 25.140625 12.171875 29.828125 
Q 18.359375 34.515625 30.609375 34.515625 
L 43.21875 34.515625 
L 43.21875 35.40625 
Q 43.21875 41.609375 39.140625 45 
Q 35.0625 48.390625 27.6875 48.390625 
Q 23 48.390625 18.546875 47.265625 
Q 14.109375 46.140625 10.015625 43.890625 
L 10.015625 52.203125 
Q 14.9375 54.109375 19.578125 55.046875 
Q 24.21875 56 28.609375 56 
Q 40.484375 56 46.34375 49.84375 
Q 52.203125 43.703125 52.203125 31.203125 
z
M 28.8125 66.890625 
L 26.03125 69.578125 
Q 24.953125 70.5625 24.140625 71.015625 
Q 23.34375 71.484375 22.703125 71.484375 
Q 20.84375 71.484375 19.96875 69.703125 
Q 19.09375 67.921875 19 63.921875 
L 12.890625 63.921875 
Q 12.984375 70.515625 15.46875 74.09375 
Q 17.96875 77.6875 22.40625 77.6875 
Q 24.265625 77.6875 25.828125 77 
Q 27.390625 76.3125 29.203125 74.703125 
L 31.984375 72.015625 
Q 33.0625 71.046875 33.859375 70.578125 
Q 34.671875 70.125 35.296875 70.125 
Q 37.15625 70.125 38.03125 71.90625 
Q 38.921875 73.6875 39.015625 77.6875 
L 45.125 77.6875 
Q 45.015625 71.09375 42.53125 67.5 
Q 40.046875 63.921875 35.59375 63.921875 
Q 33.734375 63.921875 32.171875 64.59375 
Q 30.609375 65.28125 28.8125 66.890625 
z
" id="DejaVuSans-227"/>
      <path d="M 64.40625 67.28125 
L 64.40625 56.890625 
Q 59.421875 61.53125 53.78125 63.8125 
Q 48.140625 66.109375 41.796875 66.109375 
Q 29.296875 66.109375 22.65625 58.46875 
Q 16.015625 50.828125 16.015625 36.375 
Q 16.015625 21.96875 22.65625 14.328125 
Q 29.296875 6.6875 41.796875 6.6875 
Q 48.140625 6.6875 53.78125 8.984375 
Q 59.421875 11.28125 64.40625 15.921875 
L 64.40625 5.609375 
Q 59.234375 2.09375 53.4375 0.328125 
Q 47.65625 -1.421875 41.21875 -1.421875 
Q 24.65625 -1.421875 15.125 8.703125 
Q 5.609375 18.84375 5.609375 36.375 
Q 5.609375 53.953125 15.125 64.078125 
Q 24.65625 74.21875 41.21875 74.21875 
Q 47.75 74.21875 53.53125 72.484375 
Q 59.328125 70.75 64.40625 67.28125 
z
" id="DejaVuSans-67"/>
      <path d="M 8.5 21.578125 
L 8.5 54.6875 
L 17.484375 54.6875 
L 17.484375 21.921875 
Q 17.484375 14.15625 20.5 10.265625 
Q 23.53125 6.390625 29.59375 6.390625 
Q 36.859375 6.390625 41.078125 11.03125 
Q 45.3125 15.671875 45.3125 23.6875 
L 45.3125 54.6875 
L 54.296875 54.6875 
L 54.296875 0 
L 45.3125 0 
L 45.3125 8.40625 
Q 42.046875 3.421875 37.71875 1 
Q 33.40625 -1.421875 27.6875 -1.421875 
Q 18.265625 -1.421875 13.375 4.4375 
Q 8.5 10.296875 8.5 21.578125 
z
M 31.109375 56 
z
" id="DejaVuSans-117"/>
      <path d="M 52 44.1875 
Q 55.375 50.25 60.0625 53.125 
Q 64.75 56 71.09375 56 
Q 79.640625 56 84.28125 50.015625 
Q 88.921875 44.046875 88.921875 33.015625 
L 88.921875 0 
L 79.890625 0 
L 79.890625 32.71875 
Q 79.890625 40.578125 77.09375 44.375 
Q 74.3125 48.1875 68.609375 48.1875 
Q 61.625 48.1875 57.5625 43.546875 
Q 53.515625 38.921875 53.515625 30.90625 
L 53.515625 0 
L 44.484375 0 
L 44.484375 32.71875 
Q 44.484375 40.625 41.703125 44.40625 
Q 38.921875 48.1875 33.109375 48.1875 
Q 26.21875 48.1875 22.15625 43.53125 
Q 18.109375 38.875 18.109375 30.90625 
L 18.109375 0 
L 9.078125 0 
L 9.078125 54.6875 
L 18.109375 54.6875 
L 18.109375 46.1875 
Q 21.1875 51.21875 25.484375 53.609375 
Q 29.78125 56 35.6875 56 
Q 41.65625 56 45.828125 52.96875 
Q 50 49.953125 52 44.1875 
z
" id="DejaVuSans-109"/>
     </defs>
     <use xlink:href="#DejaVuSans-80"/>
     <use x="58.552734" xlink:href="#DejaVuSans-114"/>
     <use x="97.416016" xlink:href="#DejaVuSans-101"/>
     <use x="158.939453" xlink:href="#DejaVuSans-118"/>
     <use x="218.119141" xlink:href="#DejaVuSans-105"/>
     <use x="245.902344" xlink:href="#DejaVuSans-115"/>
     <use x="298.001953" xlink:href="#DejaVuSans-227"/>
     <use x="359.28125" xlink:href="#DejaVuSans-111"/>
     <use x="420.462891" xlink:href="#DejaVuSans-32"/>
     <use x="452.25" xlink:href="#DejaVuSans-100"/>
     <use x="515.726562" xlink:href="#DejaVuSans-101"/>
     <use x="577.25" xlink:href="#DejaVuSans-32"/>
     <use x="609.037109" xlink:href="#DejaVuSans-67"/>
     <use x="678.861328" xlink:href="#DejaVuSans-111"/>
     <use x="740.042969" xlink:href="#DejaVuSans-110"/>
     <use x="803.421875" xlink:href="#DejaVuSans-115"/>
     <use x="855.521484" xlink:href="#DejaVuSans-117"/>
     <use x="918.900391" xlink:href="#DejaVuSans-109"/>
     <use x="1016.3125" xlink:href="#DejaVuSans-111"/>
     <use x="1077.494141" xlink:href="#DejaVuSans-32"/>
     <use x="1109.28125" xlink:href="#DejaVuSans-67"/>
     <use x="1179.105469" xlink:href="#DejaVuSans-97"/>
     <use x="1240.384766" xlink:href="#DejaVuSans-115"/>
     <use x="1292.484375" xlink:href="#DejaVuSans-97"/>
     <use x="1353.763672" xlink:href="#DejaVuSans-32"/>
     <use x="1385.550781" xlink:href="#DejaVuSans-55"/>
    </g>
   </g>
   <g id="legend_1">
    <g id="patch_7">
     <path d="M 552.281337 59.674375 
L 624.1204 59.674375 
Q 626.1204 59.674375 626.1204 57.674375 
L 626.1204 29.318125 
Q 626.1204 27.318125 624.1204 27.318125 
L 552.281337 27.318125 
Q 550.281337 27.318125 550.281337 29.318125 
L 550.281337 57.674375 
Q 550.281337 59.674375 552.281337 59.674375 
z
" style="fill:#ffffff;opacity:0.8;stroke:#cccccc;stroke-linejoin:miter;"/>
    </g>
    <g id="line2d_25">
     <path d="M 554.281337 35.416562 
L 574.281337 35.416562 
" style="fill:none;stroke:#000000;stroke-linecap:square;stroke-width:1.5;"/>
    </g>
    <g id="line2d_26"/>
    <g id="text_25">
     <!-- Real -->
     <g transform="translate(582.281337 38.916562)scale(0.1 -0.1)">
      <defs>
       <path d="M 44.390625 34.1875 
Q 47.5625 33.109375 50.5625 29.59375 
Q 53.5625 26.078125 56.59375 19.921875 
L 66.609375 0 
L 56 0 
L 46.6875 18.703125 
Q 43.0625 26.03125 39.671875 28.421875 
Q 36.28125 30.8125 30.421875 30.8125 
L 19.671875 30.8125 
L 19.671875 0 
L 9.8125 0 
L 9.8125 72.90625 
L 32.078125 72.90625 
Q 44.578125 72.90625 50.734375 67.671875 
Q 56.890625 62.453125 56.890625 51.90625 
Q 56.890625 45.015625 53.6875 40.46875 
Q 50.484375 35.9375 44.390625 34.1875 
z
M 19.671875 64.796875 
L 19.671875 38.921875 
L 32.078125 38.921875 
Q 39.203125 38.921875 42.84375 42.21875 
Q 46.484375 45.515625 46.484375 51.90625 
Q 46.484375 58.296875 42.84375 61.546875 
Q 39.203125 64.796875 32.078125 64.796875 
z
" id="DejaVuSans-82"/>
       <path d="M 9.421875 75.984375 
L 18.40625 75.984375 
L 18.40625 0 
L 9.421875 0 
z
" id="DejaVuSans-108"/>
      </defs>
      <use xlink:href="#DejaVuSans-82"/>
      <use x="64.982422" xlink:href="#DejaVuSans-101"/>
      <use x="126.505859" xlink:href="#DejaVuSans-97"/>
      <use x="187.785156" xlink:href="#DejaVuSans-108"/>
     </g>
    </g>
    <g id="line2d_27">
     <path d="M 554.281337 50.094688 
L 574.281337 50.094688 
" style="fill:none;stroke:#008000;stroke-dasharray:5.55,2.4;stroke-dashoffset:0;stroke-width:1.5;"/>
    </g>
    <g id="line2d_28"/>
    <g id="text_26">
     <!-- Previsto -->
     <g transform="translate(582.281337 53.594688)scale(0.1 -0.1)">
      <defs>
       <path d="M 18.3125 70.21875 
L 18.3125 54.6875 
L 36.8125 54.6875 
L 36.8125 47.703125 
L 18.3125 47.703125 
L 18.3125 18.015625 
Q 18.3125 11.328125 20.140625 9.421875 
Q 21.96875 7.515625 27.59375 7.515625 
L 36.8125 7.515625 
L 36.8125 0 
L 27.59375 0 
Q 17.1875 0 13.234375 3.875 
Q 9.28125 7.765625 9.28125 18.015625 
L 9.28125 47.703125 
L 2.6875 47.703125 
L 2.6875 54.6875 
L 9.28125 54.6875 
L 9.28125 70.21875 
z
" id="DejaVuSans-116"/>
      </defs>
      <use xlink:href="#DejaVuSans-80"/>
      <use x="58.552734" xlink:href="#DejaVuSans-114"/>
      <use x="97.416016" xlink:href="#DejaVuSans-101"/>
      <use x="158.939453" xlink:href="#DejaVuSans-118"/>
      <use x="218.119141" xlink:href="#DejaVuSans-105"/>
      <use x="245.902344" xlink:href="#DejaVuSans-115"/>
      <use x="298.001953" xlink:href="#DejaVuSans-116"/>
      <use x="337.210938" xlink:href="#DejaVuSans-111"/>
     </g>
    </g>
   </g>
  </g>
 </g>
 <defs>
  <clipPath id="pa9f9e9c3e3">
   <rect height="244.8" width="558" x="73.1204" y="22.318125"/>
  </clipPath>
 </defs>
</svg>
