<?xml version="1.0" encoding="utf-8" standalone="no"?>
<!DOCTYPE svg PUBLIC "-//W3C//DTD SVG 1.1//EN"
  "http://www.w3.org/Graphics/SVG/1.1/DTD/svg11.dtd">
<!-- Created with matplotlib (https://matplotlib.org/) -->
<svg height="356.480877pt" version="1.1" viewBox="0 0 608.98125 356.480877" width="608.98125pt" xmlns="http://www.w3.org/2000/svg" xmlns:xlink="http://www.w3.org/1999/xlink">
 <metadata>
  <rdf:RDF xmlns:cc="http://creativecommons.org/ns#" xmlns:dc="http://purl.org/dc/elements/1.1/" xmlns:rdf="http://www.w3.org/1999/02/22-rdf-syntax-ns#">
   <cc:Work>
    <dc:type rdf:resource="http://purl.org/dc/dcmitype/StillImage"/>
    <dc:date>2021-08-12T18:44:29.537927</dc:date>
    <dc:format>image/svg+xml</dc:format>
    <dc:creator>
     <cc:Agent>
      <dc:title>Matplotlib v3.3.4, https://matplotlib.org/</dc:title>
     </cc:Agent>
    </dc:creator>
   </cc:Work>
  </rdf:RDF>
 </metadata>
 <defs>
  <style type="text/css">*{stroke-linecap:butt;stroke-linejoin:round;}</style>
 </defs>
 <g id="figure_1">
  <g id="patch_1">
   <path d="M 0 356.480877 
L 608.98125 356.480877 
L 608.98125 0 
L 0 0 
z
" style="fill:#ffffff;"/>
  </g>
  <g id="axes_1">
   <g id="patch_2">
    <path d="M 43.78125 267.118125 
L 601.78125 267.118125 
L 601.78125 22.318125 
L 43.78125 22.318125 
z
" style="fill:#ffffff;"/>
   </g>
   <g id="matplotlib.axis_1">
    <g id="xtick_1">
     <g id="line2d_1">
      <defs>
       <path d="M 0 0 
L 0 3.5 
" id="me52fa4b8da" style="stroke:#000000;stroke-width:0.8;"/>
      </defs>
      <g>
       <use style="stroke:#000000;stroke-width:0.8;" x="55.64709" xlink:href="#me52fa4b8da" y="267.118125"/>
      </g>
     </g>
    </g>
    <g id="xtick_2">
     <g id="line2d_2">
      <g>
       <use style="stroke:#000000;stroke-width:0.8;" x="119.1101" xlink:href="#me52fa4b8da" y="267.118125"/>
      </g>
     </g>
     <g id="text_1">
      <!-- 2020-03-30 15:00:00 -->
      <g transform="translate(26.092945 333.80169)rotate(-30)scale(0.1 -0.1)">
       <defs>
        <path d="M 19.1875 8.296875 
L 53.609375 8.296875 
L 53.609375 0 
L 7.328125 0 
L 7.328125 8.296875 
Q 12.9375 14.109375 22.625 23.890625 
Q 32.328125 33.6875 34.8125 36.53125 
Q 39.546875 41.84375 41.421875 45.53125 
Q 43.3125 49.21875 43.3125 52.78125 
Q 43.3125 58.59375 39.234375 62.25 
Q 35.15625 65.921875 28.609375 65.921875 
Q 23.96875 65.921875 18.8125 64.3125 
Q 13.671875 62.703125 7.8125 59.421875 
L 7.8125 69.390625 
Q 13.765625 71.78125 18.9375 73 
Q 24.125 74.21875 28.421875 74.21875 
Q 39.75 74.21875 46.484375 68.546875 
Q 53.21875 62.890625 53.21875 53.421875 
Q 53.21875 48.921875 51.53125 44.890625 
Q 49.859375 40.875 45.40625 35.40625 
Q 44.1875 33.984375 37.640625 27.21875 
Q 31.109375 20.453125 19.1875 8.296875 
z
" id="DejaVuSans-50"/>
        <path d="M 31.78125 66.40625 
Q 24.171875 66.40625 20.328125 58.90625 
Q 16.5 51.421875 16.5 36.375 
Q 16.5 21.390625 20.328125 13.890625 
Q 24.171875 6.390625 31.78125 6.390625 
Q 39.453125 6.390625 43.28125 13.890625 
Q 47.125 21.390625 47.125 36.375 
Q 47.125 51.421875 43.28125 58.90625 
Q 39.453125 66.40625 31.78125 66.40625 
z
M 31.78125 74.21875 
Q 44.046875 74.21875 50.515625 64.515625 
Q 56.984375 54.828125 56.984375 36.375 
Q 56.984375 17.96875 50.515625 8.265625 
Q 44.046875 -1.421875 31.78125 -1.421875 
Q 19.53125 -1.421875 13.0625 8.265625 
Q 6.59375 17.96875 6.59375 36.375 
Q 6.59375 54.828125 13.0625 64.515625 
Q 19.53125 74.21875 31.78125 74.21875 
z
" id="DejaVuSans-48"/>
        <path d="M 4.890625 31.390625 
L 31.203125 31.390625 
L 31.203125 23.390625 
L 4.890625 23.390625 
z
" id="DejaVuSans-45"/>
        <path d="M 40.578125 39.3125 
Q 47.65625 37.796875 51.625 33 
Q 55.609375 28.21875 55.609375 21.1875 
Q 55.609375 10.40625 48.1875 4.484375 
Q 40.765625 -1.421875 27.09375 -1.421875 
Q 22.515625 -1.421875 17.65625 -0.515625 
Q 12.796875 0.390625 7.625 2.203125 
L 7.625 11.71875 
Q 11.71875 9.328125 16.59375 8.109375 
Q 21.484375 6.890625 26.8125 6.890625 
Q 36.078125 6.890625 40.9375 10.546875 
Q 45.796875 14.203125 45.796875 21.1875 
Q 45.796875 27.640625 41.28125 31.265625 
Q 36.765625 34.90625 28.71875 34.90625 
L 20.21875 34.90625 
L 20.21875 43.015625 
L 29.109375 43.015625 
Q 36.375 43.015625 40.234375 45.921875 
Q 44.09375 48.828125 44.09375 54.296875 
Q 44.09375 59.90625 40.109375 62.90625 
Q 36.140625 65.921875 28.71875 65.921875 
Q 24.65625 65.921875 20.015625 65.03125 
Q 15.375 64.15625 9.8125 62.3125 
L 9.8125 71.09375 
Q 15.4375 72.65625 20.34375 73.4375 
Q 25.25 74.21875 29.59375 74.21875 
Q 40.828125 74.21875 47.359375 69.109375 
Q 53.90625 64.015625 53.90625 55.328125 
Q 53.90625 49.265625 50.4375 45.09375 
Q 46.96875 40.921875 40.578125 39.3125 
z
" id="DejaVuSans-51"/>
        <path id="DejaVuSans-32"/>
        <path d="M 12.40625 8.296875 
L 28.515625 8.296875 
L 28.515625 63.921875 
L 10.984375 60.40625 
L 10.984375 69.390625 
L 28.421875 72.90625 
L 38.28125 72.90625 
L 38.28125 8.296875 
L 54.390625 8.296875 
L 54.390625 0 
L 12.40625 0 
z
" id="DejaVuSans-49"/>
        <path d="M 10.796875 72.90625 
L 49.515625 72.90625 
L 49.515625 64.59375 
L 19.828125 64.59375 
L 19.828125 46.734375 
Q 21.96875 47.46875 24.109375 47.828125 
Q 26.265625 48.1875 28.421875 48.1875 
Q 40.625 48.1875 47.75 41.5 
Q 54.890625 34.8125 54.890625 23.390625 
Q 54.890625 11.625 47.5625 5.09375 
Q 40.234375 -1.421875 26.90625 -1.421875 
Q 22.3125 -1.421875 17.546875 -0.640625 
Q 12.796875 0.140625 7.71875 1.703125 
L 7.71875 11.625 
Q 12.109375 9.234375 16.796875 8.0625 
Q 21.484375 6.890625 26.703125 6.890625 
Q 35.15625 6.890625 40.078125 11.328125 
Q 45.015625 15.765625 45.015625 23.390625 
Q 45.015625 31 40.078125 35.4375 
Q 35.15625 39.890625 26.703125 39.890625 
Q 22.75 39.890625 18.8125 39.015625 
Q 14.890625 38.140625 10.796875 36.28125 
z
" id="DejaVuSans-53"/>
        <path d="M 11.71875 12.40625 
L 22.015625 12.40625 
L 22.015625 0 
L 11.71875 0 
z
M 11.71875 51.703125 
L 22.015625 51.703125 
L 22.015625 39.3125 
L 11.71875 39.3125 
z
" id="DejaVuSans-58"/>
       </defs>
       <use xlink:href="#DejaVuSans-50"/>
       <use x="63.623047" xlink:href="#DejaVuSans-48"/>
       <use x="127.246094" xlink:href="#DejaVuSans-50"/>
       <use x="190.869141" xlink:href="#DejaVuSans-48"/>
       <use x="254.492188" xlink:href="#DejaVuSans-45"/>
       <use x="290.576172" xlink:href="#DejaVuSans-48"/>
       <use x="354.199219" xlink:href="#DejaVuSans-51"/>
       <use x="417.822266" xlink:href="#DejaVuSans-45"/>
       <use x="453.90625" xlink:href="#DejaVuSans-51"/>
       <use x="517.529297" xlink:href="#DejaVuSans-48"/>
       <use x="581.152344" xlink:href="#DejaVuSans-32"/>
       <use x="612.939453" xlink:href="#DejaVuSans-49"/>
       <use x="676.5625" xlink:href="#DejaVuSans-53"/>
       <use x="740.185547" xlink:href="#DejaVuSans-58"/>
       <use x="773.876953" xlink:href="#DejaVuSans-48"/>
       <use x="837.5" xlink:href="#DejaVuSans-48"/>
       <use x="901.123047" xlink:href="#DejaVuSans-58"/>
       <use x="934.814453" xlink:href="#DejaVuSans-48"/>
       <use x="998.4375" xlink:href="#DejaVuSans-48"/>
      </g>
     </g>
    </g>
    <g id="xtick_3">
     <g id="line2d_3">
      <g>
       <use style="stroke:#000000;stroke-width:0.8;" x="182.57311" xlink:href="#me52fa4b8da" y="267.118125"/>
      </g>
     </g>
     <g id="text_2">
      <!-- 2020-04-05 18:00:00 -->
      <g transform="translate(89.555956 333.80169)rotate(-30)scale(0.1 -0.1)">
       <defs>
        <path d="M 37.796875 64.3125 
L 12.890625 25.390625 
L 37.796875 25.390625 
z
M 35.203125 72.90625 
L 47.609375 72.90625 
L 47.609375 25.390625 
L 58.015625 25.390625 
L 58.015625 17.1875 
L 47.609375 17.1875 
L 47.609375 0 
L 37.796875 0 
L 37.796875 17.1875 
L 4.890625 17.1875 
L 4.890625 26.703125 
z
" id="DejaVuSans-52"/>
        <path d="M 31.78125 34.625 
Q 24.75 34.625 20.71875 30.859375 
Q 16.703125 27.09375 16.703125 20.515625 
Q 16.703125 13.921875 20.71875 10.15625 
Q 24.75 6.390625 31.78125 6.390625 
Q 38.8125 6.390625 42.859375 10.171875 
Q 46.921875 13.96875 46.921875 20.515625 
Q 46.921875 27.09375 42.890625 30.859375 
Q 38.875 34.625 31.78125 34.625 
z
M 21.921875 38.8125 
Q 15.578125 40.375 12.03125 44.71875 
Q 8.5 49.078125 8.5 55.328125 
Q 8.5 64.0625 14.71875 69.140625 
Q 20.953125 74.21875 31.78125 74.21875 
Q 42.671875 74.21875 48.875 69.140625 
Q 55.078125 64.0625 55.078125 55.328125 
Q 55.078125 49.078125 51.53125 44.71875 
Q 48 40.375 41.703125 38.8125 
Q 48.828125 37.15625 52.796875 32.3125 
Q 56.78125 27.484375 56.78125 20.515625 
Q 56.78125 9.90625 50.3125 4.234375 
Q 43.84375 -1.421875 31.78125 -1.421875 
Q 19.734375 -1.421875 13.25 4.234375 
Q 6.78125 9.90625 6.78125 20.515625 
Q 6.78125 27.484375 10.78125 32.3125 
Q 14.796875 37.15625 21.921875 38.8125 
z
M 18.3125 54.390625 
Q 18.3125 48.734375 21.84375 45.5625 
Q 25.390625 42.390625 31.78125 42.390625 
Q 38.140625 42.390625 41.71875 45.5625 
Q 45.3125 48.734375 45.3125 54.390625 
Q 45.3125 60.0625 41.71875 63.234375 
Q 38.140625 66.40625 31.78125 66.40625 
Q 25.390625 66.40625 21.84375 63.234375 
Q 18.3125 60.0625 18.3125 54.390625 
z
" id="DejaVuSans-56"/>
       </defs>
       <use xlink:href="#DejaVuSans-50"/>
       <use x="63.623047" xlink:href="#DejaVuSans-48"/>
       <use x="127.246094" xlink:href="#DejaVuSans-50"/>
       <use x="190.869141" xlink:href="#DejaVuSans-48"/>
       <use x="254.492188" xlink:href="#DejaVuSans-45"/>
       <use x="290.576172" xlink:href="#DejaVuSans-48"/>
       <use x="354.199219" xlink:href="#DejaVuSans-52"/>
       <use x="417.822266" xlink:href="#DejaVuSans-45"/>
       <use x="453.90625" xlink:href="#DejaVuSans-48"/>
       <use x="517.529297" xlink:href="#DejaVuSans-53"/>
       <use x="581.152344" xlink:href="#DejaVuSans-32"/>
       <use x="612.939453" xlink:href="#DejaVuSans-49"/>
       <use x="676.5625" xlink:href="#DejaVuSans-56"/>
       <use x="740.185547" xlink:href="#DejaVuSans-58"/>
       <use x="773.876953" xlink:href="#DejaVuSans-48"/>
       <use x="837.5" xlink:href="#DejaVuSans-48"/>
       <use x="901.123047" xlink:href="#DejaVuSans-58"/>
       <use x="934.814453" xlink:href="#DejaVuSans-48"/>
       <use x="998.4375" xlink:href="#DejaVuSans-48"/>
      </g>
     </g>
    </g>
    <g id="xtick_4">
     <g id="line2d_4">
      <g>
       <use style="stroke:#000000;stroke-width:0.8;" x="246.03612" xlink:href="#me52fa4b8da" y="267.118125"/>
      </g>
     </g>
     <g id="text_3">
      <!-- 2020-04-11 21:00:00 -->
      <g transform="translate(153.018966 333.80169)rotate(-30)scale(0.1 -0.1)">
       <use xlink:href="#DejaVuSans-50"/>
       <use x="63.623047" xlink:href="#DejaVuSans-48"/>
       <use x="127.246094" xlink:href="#DejaVuSans-50"/>
       <use x="190.869141" xlink:href="#DejaVuSans-48"/>
       <use x="254.492188" xlink:href="#DejaVuSans-45"/>
       <use x="290.576172" xlink:href="#DejaVuSans-48"/>
       <use x="354.199219" xlink:href="#DejaVuSans-52"/>
       <use x="417.822266" xlink:href="#DejaVuSans-45"/>
       <use x="453.90625" xlink:href="#DejaVuSans-49"/>
       <use x="517.529297" xlink:href="#DejaVuSans-49"/>
       <use x="581.152344" xlink:href="#DejaVuSans-32"/>
       <use x="612.939453" xlink:href="#DejaVuSans-50"/>
       <use x="676.5625" xlink:href="#DejaVuSans-49"/>
       <use x="740.185547" xlink:href="#DejaVuSans-58"/>
       <use x="773.876953" xlink:href="#DejaVuSans-48"/>
       <use x="837.5" xlink:href="#DejaVuSans-48"/>
       <use x="901.123047" xlink:href="#DejaVuSans-58"/>
       <use x="934.814453" xlink:href="#DejaVuSans-48"/>
       <use x="998.4375" xlink:href="#DejaVuSans-48"/>
      </g>
     </g>
    </g>
    <g id="xtick_5">
     <g id="line2d_5">
      <g>
       <use style="stroke:#000000;stroke-width:0.8;" x="309.49913" xlink:href="#me52fa4b8da" y="267.118125"/>
      </g>
     </g>
     <g id="text_4">
      <!-- 2020-04-18 00:00:00 -->
      <g transform="translate(216.481976 333.80169)rotate(-30)scale(0.1 -0.1)">
       <use xlink:href="#DejaVuSans-50"/>
       <use x="63.623047" xlink:href="#DejaVuSans-48"/>
       <use x="127.246094" xlink:href="#DejaVuSans-50"/>
       <use x="190.869141" xlink:href="#DejaVuSans-48"/>
       <use x="254.492188" xlink:href="#DejaVuSans-45"/>
       <use x="290.576172" xlink:href="#DejaVuSans-48"/>
       <use x="354.199219" xlink:href="#DejaVuSans-52"/>
       <use x="417.822266" xlink:href="#DejaVuSans-45"/>
       <use x="453.90625" xlink:href="#DejaVuSans-49"/>
       <use x="517.529297" xlink:href="#DejaVuSans-56"/>
       <use x="581.152344" xlink:href="#DejaVuSans-32"/>
       <use x="612.939453" xlink:href="#DejaVuSans-48"/>
       <use x="676.5625" xlink:href="#DejaVuSans-48"/>
       <use x="740.185547" xlink:href="#DejaVuSans-58"/>
       <use x="773.876953" xlink:href="#DejaVuSans-48"/>
       <use x="837.5" xlink:href="#DejaVuSans-48"/>
       <use x="901.123047" xlink:href="#DejaVuSans-58"/>
       <use x="934.814453" xlink:href="#DejaVuSans-48"/>
       <use x="998.4375" xlink:href="#DejaVuSans-48"/>
      </g>
     </g>
    </g>
    <g id="xtick_6">
     <g id="line2d_6">
      <g>
       <use style="stroke:#000000;stroke-width:0.8;" x="372.962141" xlink:href="#me52fa4b8da" y="267.118125"/>
      </g>
     </g>
     <g id="text_5">
      <!-- 2020-04-24 03:00:00 -->
      <g transform="translate(279.944986 333.80169)rotate(-30)scale(0.1 -0.1)">
       <use xlink:href="#DejaVuSans-50"/>
       <use x="63.623047" xlink:href="#DejaVuSans-48"/>
       <use x="127.246094" xlink:href="#DejaVuSans-50"/>
       <use x="190.869141" xlink:href="#DejaVuSans-48"/>
       <use x="254.492188" xlink:href="#DejaVuSans-45"/>
       <use x="290.576172" xlink:href="#DejaVuSans-48"/>
       <use x="354.199219" xlink:href="#DejaVuSans-52"/>
       <use x="417.822266" xlink:href="#DejaVuSans-45"/>
       <use x="453.90625" xlink:href="#DejaVuSans-50"/>
       <use x="517.529297" xlink:href="#DejaVuSans-52"/>
       <use x="581.152344" xlink:href="#DejaVuSans-32"/>
       <use x="612.939453" xlink:href="#DejaVuSans-48"/>
       <use x="676.5625" xlink:href="#DejaVuSans-51"/>
       <use x="740.185547" xlink:href="#DejaVuSans-58"/>
       <use x="773.876953" xlink:href="#DejaVuSans-48"/>
       <use x="837.5" xlink:href="#DejaVuSans-48"/>
       <use x="901.123047" xlink:href="#DejaVuSans-58"/>
       <use x="934.814453" xlink:href="#DejaVuSans-48"/>
       <use x="998.4375" xlink:href="#DejaVuSans-48"/>
      </g>
     </g>
    </g>
    <g id="xtick_7">
     <g id="line2d_7">
      <g>
       <use style="stroke:#000000;stroke-width:0.8;" x="436.425151" xlink:href="#me52fa4b8da" y="267.118125"/>
      </g>
     </g>
     <g id="text_6">
      <!-- 2020-04-30 06:00:00 -->
      <g transform="translate(343.407996 333.80169)rotate(-30)scale(0.1 -0.1)">
       <defs>
        <path d="M 33.015625 40.375 
Q 26.375 40.375 22.484375 35.828125 
Q 18.609375 31.296875 18.609375 23.390625 
Q 18.609375 15.53125 22.484375 10.953125 
Q 26.375 6.390625 33.015625 6.390625 
Q 39.65625 6.390625 43.53125 10.953125 
Q 47.40625 15.53125 47.40625 23.390625 
Q 47.40625 31.296875 43.53125 35.828125 
Q 39.65625 40.375 33.015625 40.375 
z
M 52.59375 71.296875 
L 52.59375 62.3125 
Q 48.875 64.0625 45.09375 64.984375 
Q 41.3125 65.921875 37.59375 65.921875 
Q 27.828125 65.921875 22.671875 59.328125 
Q 17.53125 52.734375 16.796875 39.40625 
Q 19.671875 43.65625 24.015625 45.921875 
Q 28.375 48.1875 33.59375 48.1875 
Q 44.578125 48.1875 50.953125 41.515625 
Q 57.328125 34.859375 57.328125 23.390625 
Q 57.328125 12.15625 50.6875 5.359375 
Q 44.046875 -1.421875 33.015625 -1.421875 
Q 20.359375 -1.421875 13.671875 8.265625 
Q 6.984375 17.96875 6.984375 36.375 
Q 6.984375 53.65625 15.1875 63.9375 
Q 23.390625 74.21875 37.203125 74.21875 
Q 40.921875 74.21875 44.703125 73.484375 
Q 48.484375 72.75 52.59375 71.296875 
z
" id="DejaVuSans-54"/>
       </defs>
       <use xlink:href="#DejaVuSans-50"/>
       <use x="63.623047" xlink:href="#DejaVuSans-48"/>
       <use x="127.246094" xlink:href="#DejaVuSans-50"/>
       <use x="190.869141" xlink:href="#DejaVuSans-48"/>
       <use x="254.492188" xlink:href="#DejaVuSans-45"/>
       <use x="290.576172" xlink:href="#DejaVuSans-48"/>
       <use x="354.199219" xlink:href="#DejaVuSans-52"/>
       <use x="417.822266" xlink:href="#DejaVuSans-45"/>
       <use x="453.90625" xlink:href="#DejaVuSans-51"/>
       <use x="517.529297" xlink:href="#DejaVuSans-48"/>
       <use x="581.152344" xlink:href="#DejaVuSans-32"/>
       <use x="612.939453" xlink:href="#DejaVuSans-48"/>
       <use x="676.5625" xlink:href="#DejaVuSans-54"/>
       <use x="740.185547" xlink:href="#DejaVuSans-58"/>
       <use x="773.876953" xlink:href="#DejaVuSans-48"/>
       <use x="837.5" xlink:href="#DejaVuSans-48"/>
       <use x="901.123047" xlink:href="#DejaVuSans-58"/>
       <use x="934.814453" xlink:href="#DejaVuSans-48"/>
       <use x="998.4375" xlink:href="#DejaVuSans-48"/>
      </g>
     </g>
    </g>
    <g id="xtick_8">
     <g id="line2d_8">
      <g>
       <use style="stroke:#000000;stroke-width:0.8;" x="499.888161" xlink:href="#me52fa4b8da" y="267.118125"/>
      </g>
     </g>
     <g id="text_7">
      <!-- 2020-05-06 15:00:00 -->
      <g transform="translate(406.871007 333.80169)rotate(-30)scale(0.1 -0.1)">
       <use xlink:href="#DejaVuSans-50"/>
       <use x="63.623047" xlink:href="#DejaVuSans-48"/>
       <use x="127.246094" xlink:href="#DejaVuSans-50"/>
       <use x="190.869141" xlink:href="#DejaVuSans-48"/>
       <use x="254.492188" xlink:href="#DejaVuSans-45"/>
       <use x="290.576172" xlink:href="#DejaVuSans-48"/>
       <use x="354.199219" xlink:href="#DejaVuSans-53"/>
       <use x="417.822266" xlink:href="#DejaVuSans-45"/>
       <use x="453.90625" xlink:href="#DejaVuSans-48"/>
       <use x="517.529297" xlink:href="#DejaVuSans-54"/>
       <use x="581.152344" xlink:href="#DejaVuSans-32"/>
       <use x="612.939453" xlink:href="#DejaVuSans-49"/>
       <use x="676.5625" xlink:href="#DejaVuSans-53"/>
       <use x="740.185547" xlink:href="#DejaVuSans-58"/>
       <use x="773.876953" xlink:href="#DejaVuSans-48"/>
       <use x="837.5" xlink:href="#DejaVuSans-48"/>
       <use x="901.123047" xlink:href="#DejaVuSans-58"/>
       <use x="934.814453" xlink:href="#DejaVuSans-48"/>
       <use x="998.4375" xlink:href="#DejaVuSans-48"/>
      </g>
     </g>
    </g>
    <g id="xtick_9">
     <g id="line2d_9">
      <g>
       <use style="stroke:#000000;stroke-width:0.8;" x="563.351171" xlink:href="#me52fa4b8da" y="267.118125"/>
      </g>
     </g>
     <g id="text_8">
      <!-- 2020-05-12 18:00:00 -->
      <g transform="translate(470.334017 333.80169)rotate(-30)scale(0.1 -0.1)">
       <use xlink:href="#DejaVuSans-50"/>
       <use x="63.623047" xlink:href="#DejaVuSans-48"/>
       <use x="127.246094" xlink:href="#DejaVuSans-50"/>
       <use x="190.869141" xlink:href="#DejaVuSans-48"/>
       <use x="254.492188" xlink:href="#DejaVuSans-45"/>
       <use x="290.576172" xlink:href="#DejaVuSans-48"/>
       <use x="354.199219" xlink:href="#DejaVuSans-53"/>
       <use x="417.822266" xlink:href="#DejaVuSans-45"/>
       <use x="453.90625" xlink:href="#DejaVuSans-49"/>
       <use x="517.529297" xlink:href="#DejaVuSans-50"/>
       <use x="581.152344" xlink:href="#DejaVuSans-32"/>
       <use x="612.939453" xlink:href="#DejaVuSans-49"/>
       <use x="676.5625" xlink:href="#DejaVuSans-56"/>
       <use x="740.185547" xlink:href="#DejaVuSans-58"/>
       <use x="773.876953" xlink:href="#DejaVuSans-48"/>
       <use x="837.5" xlink:href="#DejaVuSans-48"/>
       <use x="901.123047" xlink:href="#DejaVuSans-58"/>
       <use x="934.814453" xlink:href="#DejaVuSans-48"/>
       <use x="998.4375" xlink:href="#DejaVuSans-48"/>
      </g>
     </g>
    </g>
    <g id="text_9">
     <!-- Período -->
     <g transform="translate(304.133594 347.20119)scale(0.1 -0.1)">
      <defs>
       <path d="M 19.671875 64.796875 
L 19.671875 37.40625 
L 32.078125 37.40625 
Q 38.96875 37.40625 42.71875 40.96875 
Q 46.484375 44.53125 46.484375 51.125 
Q 46.484375 57.671875 42.71875 61.234375 
Q 38.96875 64.796875 32.078125 64.796875 
z
M 9.8125 72.90625 
L 32.078125 72.90625 
Q 44.34375 72.90625 50.609375 67.359375 
Q 56.890625 61.8125 56.890625 51.125 
Q 56.890625 40.328125 50.609375 34.8125 
Q 44.34375 29.296875 32.078125 29.296875 
L 19.671875 29.296875 
L 19.671875 0 
L 9.8125 0 
z
" id="DejaVuSans-80"/>
       <path d="M 56.203125 29.59375 
L 56.203125 25.203125 
L 14.890625 25.203125 
Q 15.484375 15.921875 20.484375 11.0625 
Q 25.484375 6.203125 34.421875 6.203125 
Q 39.59375 6.203125 44.453125 7.46875 
Q 49.3125 8.734375 54.109375 11.28125 
L 54.109375 2.78125 
Q 49.265625 0.734375 44.1875 -0.34375 
Q 39.109375 -1.421875 33.890625 -1.421875 
Q 20.796875 -1.421875 13.15625 6.1875 
Q 5.515625 13.8125 5.515625 26.8125 
Q 5.515625 40.234375 12.765625 48.109375 
Q 20.015625 56 32.328125 56 
Q 43.359375 56 49.78125 48.890625 
Q 56.203125 41.796875 56.203125 29.59375 
z
M 47.21875 32.234375 
Q 47.125 39.59375 43.09375 43.984375 
Q 39.0625 48.390625 32.421875 48.390625 
Q 24.90625 48.390625 20.390625 44.140625 
Q 15.875 39.890625 15.1875 32.171875 
z
" id="DejaVuSans-101"/>
       <path d="M 41.109375 46.296875 
Q 39.59375 47.171875 37.8125 47.578125 
Q 36.03125 48 33.890625 48 
Q 26.265625 48 22.1875 43.046875 
Q 18.109375 38.09375 18.109375 28.8125 
L 18.109375 0 
L 9.078125 0 
L 9.078125 54.6875 
L 18.109375 54.6875 
L 18.109375 46.1875 
Q 20.953125 51.171875 25.484375 53.578125 
Q 30.03125 56 36.53125 56 
Q 37.453125 56 38.578125 55.875 
Q 39.703125 55.765625 41.0625 55.515625 
z
" id="DejaVuSans-114"/>
       <path d="M 20.703125 79.984375 
L 30.421875 79.984375 
L 14.5 61.625 
L 7.03125 61.625 
z
M 9.421875 54.6875 
L 18.40625 54.6875 
L 18.40625 0 
L 9.421875 0 
z
M 13.921875 56 
z
" id="DejaVuSans-237"/>
       <path d="M 30.609375 48.390625 
Q 23.390625 48.390625 19.1875 42.75 
Q 14.984375 37.109375 14.984375 27.296875 
Q 14.984375 17.484375 19.15625 11.84375 
Q 23.34375 6.203125 30.609375 6.203125 
Q 37.796875 6.203125 41.984375 11.859375 
Q 46.1875 17.53125 46.1875 27.296875 
Q 46.1875 37.015625 41.984375 42.703125 
Q 37.796875 48.390625 30.609375 48.390625 
z
M 30.609375 56 
Q 42.328125 56 49.015625 48.375 
Q 55.71875 40.765625 55.71875 27.296875 
Q 55.71875 13.875 49.015625 6.21875 
Q 42.328125 -1.421875 30.609375 -1.421875 
Q 18.84375 -1.421875 12.171875 6.21875 
Q 5.515625 13.875 5.515625 27.296875 
Q 5.515625 40.765625 12.171875 48.375 
Q 18.84375 56 30.609375 56 
z
" id="DejaVuSans-111"/>
       <path d="M 45.40625 46.390625 
L 45.40625 75.984375 
L 54.390625 75.984375 
L 54.390625 0 
L 45.40625 0 
L 45.40625 8.203125 
Q 42.578125 3.328125 38.25 0.953125 
Q 33.9375 -1.421875 27.875 -1.421875 
Q 17.96875 -1.421875 11.734375 6.484375 
Q 5.515625 14.40625 5.515625 27.296875 
Q 5.515625 40.1875 11.734375 48.09375 
Q 17.96875 56 27.875 56 
Q 33.9375 56 38.25 53.625 
Q 42.578125 51.265625 45.40625 46.390625 
z
M 14.796875 27.296875 
Q 14.796875 17.390625 18.875 11.75 
Q 22.953125 6.109375 30.078125 6.109375 
Q 37.203125 6.109375 41.296875 11.75 
Q 45.40625 17.390625 45.40625 27.296875 
Q 45.40625 37.203125 41.296875 42.84375 
Q 37.203125 48.484375 30.078125 48.484375 
Q 22.953125 48.484375 18.875 42.84375 
Q 14.796875 37.203125 14.796875 27.296875 
z
" id="DejaVuSans-100"/>
      </defs>
      <use xlink:href="#DejaVuSans-80"/>
      <use x="56.677734" xlink:href="#DejaVuSans-101"/>
      <use x="118.201172" xlink:href="#DejaVuSans-114"/>
      <use x="159.314453" xlink:href="#DejaVuSans-237"/>
      <use x="187.097656" xlink:href="#DejaVuSans-111"/>
      <use x="248.279297" xlink:href="#DejaVuSans-100"/>
      <use x="311.755859" xlink:href="#DejaVuSans-111"/>
     </g>
    </g>
   </g>
   <g id="matplotlib.axis_2">
    <g id="ytick_1">
     <g id="line2d_10">
      <defs>
       <path d="M 0 0 
L -3.5 0 
" id="m683b91466d" style="stroke:#000000;stroke-width:0.8;"/>
      </defs>
      <g>
       <use style="stroke:#000000;stroke-width:0.8;" x="43.78125" xlink:href="#m683b91466d" y="234.605532"/>
      </g>
     </g>
     <g id="text_10">
      <!-- 0.2 -->
      <g transform="translate(20.878125 238.40475)scale(0.1 -0.1)">
       <defs>
        <path d="M 10.6875 12.40625 
L 21 12.40625 
L 21 0 
L 10.6875 0 
z
" id="DejaVuSans-46"/>
       </defs>
       <use xlink:href="#DejaVuSans-48"/>
       <use x="63.623047" xlink:href="#DejaVuSans-46"/>
       <use x="95.410156" xlink:href="#DejaVuSans-50"/>
      </g>
     </g>
    </g>
    <g id="ytick_2">
     <g id="line2d_11">
      <g>
       <use style="stroke:#000000;stroke-width:0.8;" x="43.78125" xlink:href="#m683b91466d" y="191.758011"/>
      </g>
     </g>
     <g id="text_11">
      <!-- 0.4 -->
      <g transform="translate(20.878125 195.557229)scale(0.1 -0.1)">
       <use xlink:href="#DejaVuSans-48"/>
       <use x="63.623047" xlink:href="#DejaVuSans-46"/>
       <use x="95.410156" xlink:href="#DejaVuSans-52"/>
      </g>
     </g>
    </g>
    <g id="ytick_3">
     <g id="line2d_12">
      <g>
       <use style="stroke:#000000;stroke-width:0.8;" x="43.78125" xlink:href="#m683b91466d" y="148.91049"/>
      </g>
     </g>
     <g id="text_12">
      <!-- 0.6 -->
      <g transform="translate(20.878125 152.709708)scale(0.1 -0.1)">
       <use xlink:href="#DejaVuSans-48"/>
       <use x="63.623047" xlink:href="#DejaVuSans-46"/>
       <use x="95.410156" xlink:href="#DejaVuSans-54"/>
      </g>
     </g>
    </g>
    <g id="ytick_4">
     <g id="line2d_13">
      <g>
       <use style="stroke:#000000;stroke-width:0.8;" x="43.78125" xlink:href="#m683b91466d" y="106.062969"/>
      </g>
     </g>
     <g id="text_13">
      <!-- 0.8 -->
      <g transform="translate(20.878125 109.862187)scale(0.1 -0.1)">
       <use xlink:href="#DejaVuSans-48"/>
       <use x="63.623047" xlink:href="#DejaVuSans-46"/>
       <use x="95.410156" xlink:href="#DejaVuSans-56"/>
      </g>
     </g>
    </g>
    <g id="ytick_5">
     <g id="line2d_14">
      <g>
       <use style="stroke:#000000;stroke-width:0.8;" x="43.78125" xlink:href="#m683b91466d" y="63.215448"/>
      </g>
     </g>
     <g id="text_14">
      <!-- 1.0 -->
      <g transform="translate(20.878125 67.014666)scale(0.1 -0.1)">
       <use xlink:href="#DejaVuSans-49"/>
       <use x="63.623047" xlink:href="#DejaVuSans-46"/>
       <use x="95.410156" xlink:href="#DejaVuSans-48"/>
      </g>
     </g>
    </g>
    <g id="text_15">
     <!-- energia (kWh) -->
     <g transform="translate(14.798438 180.13375)rotate(-90)scale(0.1 -0.1)">
      <defs>
       <path d="M 54.890625 33.015625 
L 54.890625 0 
L 45.90625 0 
L 45.90625 32.71875 
Q 45.90625 40.484375 42.875 44.328125 
Q 39.84375 48.1875 33.796875 48.1875 
Q 26.515625 48.1875 22.3125 43.546875 
Q 18.109375 38.921875 18.109375 30.90625 
L 18.109375 0 
L 9.078125 0 
L 9.078125 54.6875 
L 18.109375 54.6875 
L 18.109375 46.1875 
Q 21.34375 51.125 25.703125 53.5625 
Q 30.078125 56 35.796875 56 
Q 45.21875 56 50.046875 50.171875 
Q 54.890625 44.34375 54.890625 33.015625 
z
" id="DejaVuSans-110"/>
       <path d="M 45.40625 27.984375 
Q 45.40625 37.75 41.375 43.109375 
Q 37.359375 48.484375 30.078125 48.484375 
Q 22.859375 48.484375 18.828125 43.109375 
Q 14.796875 37.75 14.796875 27.984375 
Q 14.796875 18.265625 18.828125 12.890625 
Q 22.859375 7.515625 30.078125 7.515625 
Q 37.359375 7.515625 41.375 12.890625 
Q 45.40625 18.265625 45.40625 27.984375 
z
M 54.390625 6.78125 
Q 54.390625 -7.171875 48.1875 -13.984375 
Q 42 -20.796875 29.203125 -20.796875 
Q 24.46875 -20.796875 20.265625 -20.09375 
Q 16.0625 -19.390625 12.109375 -17.921875 
L 12.109375 -9.1875 
Q 16.0625 -11.328125 19.921875 -12.34375 
Q 23.78125 -13.375 27.78125 -13.375 
Q 36.625 -13.375 41.015625 -8.765625 
Q 45.40625 -4.15625 45.40625 5.171875 
L 45.40625 9.625 
Q 42.625 4.78125 38.28125 2.390625 
Q 33.9375 0 27.875 0 
Q 17.828125 0 11.671875 7.65625 
Q 5.515625 15.328125 5.515625 27.984375 
Q 5.515625 40.671875 11.671875 48.328125 
Q 17.828125 56 27.875 56 
Q 33.9375 56 38.28125 53.609375 
Q 42.625 51.21875 45.40625 46.390625 
L 45.40625 54.6875 
L 54.390625 54.6875 
z
" id="DejaVuSans-103"/>
       <path d="M 9.421875 54.6875 
L 18.40625 54.6875 
L 18.40625 0 
L 9.421875 0 
z
M 9.421875 75.984375 
L 18.40625 75.984375 
L 18.40625 64.59375 
L 9.421875 64.59375 
z
" id="DejaVuSans-105"/>
       <path d="M 34.28125 27.484375 
Q 23.390625 27.484375 19.1875 25 
Q 14.984375 22.515625 14.984375 16.5 
Q 14.984375 11.71875 18.140625 8.90625 
Q 21.296875 6.109375 26.703125 6.109375 
Q 34.1875 6.109375 38.703125 11.40625 
Q 43.21875 16.703125 43.21875 25.484375 
L 43.21875 27.484375 
z
M 52.203125 31.203125 
L 52.203125 0 
L 43.21875 0 
L 43.21875 8.296875 
Q 40.140625 3.328125 35.546875 0.953125 
Q 30.953125 -1.421875 24.3125 -1.421875 
Q 15.921875 -1.421875 10.953125 3.296875 
Q 6 8.015625 6 15.921875 
Q 6 25.140625 12.171875 29.828125 
Q 18.359375 34.515625 30.609375 34.515625 
L 43.21875 34.515625 
L 43.21875 35.40625 
Q 43.21875 41.609375 39.140625 45 
Q 35.0625 48.390625 27.6875 48.390625 
Q 23 48.390625 18.546875 47.265625 
Q 14.109375 46.140625 10.015625 43.890625 
L 10.015625 52.203125 
Q 14.9375 54.109375 19.578125 55.046875 
Q 24.21875 56 28.609375 56 
Q 40.484375 56 46.34375 49.84375 
Q 52.203125 43.703125 52.203125 31.203125 
z
" id="DejaVuSans-97"/>
       <path d="M 31 75.875 
Q 24.46875 64.65625 21.28125 53.65625 
Q 18.109375 42.671875 18.109375 31.390625 
Q 18.109375 20.125 21.3125 9.0625 
Q 24.515625 -2 31 -13.1875 
L 23.1875 -13.1875 
Q 15.875 -1.703125 12.234375 9.375 
Q 8.59375 20.453125 8.59375 31.390625 
Q 8.59375 42.28125 12.203125 53.3125 
Q 15.828125 64.359375 23.1875 75.875 
z
" id="DejaVuSans-40"/>
       <path d="M 9.078125 75.984375 
L 18.109375 75.984375 
L 18.109375 31.109375 
L 44.921875 54.6875 
L 56.390625 54.6875 
L 27.390625 29.109375 
L 57.625 0 
L 45.90625 0 
L 18.109375 26.703125 
L 18.109375 0 
L 9.078125 0 
z
" id="DejaVuSans-107"/>
       <path d="M 3.328125 72.90625 
L 13.28125 72.90625 
L 28.609375 11.28125 
L 43.890625 72.90625 
L 54.984375 72.90625 
L 70.3125 11.28125 
L 85.59375 72.90625 
L 95.609375 72.90625 
L 77.296875 0 
L 64.890625 0 
L 49.515625 63.28125 
L 33.984375 0 
L 21.578125 0 
z
" id="DejaVuSans-87"/>
       <path d="M 54.890625 33.015625 
L 54.890625 0 
L 45.90625 0 
L 45.90625 32.71875 
Q 45.90625 40.484375 42.875 44.328125 
Q 39.84375 48.1875 33.796875 48.1875 
Q 26.515625 48.1875 22.3125 43.546875 
Q 18.109375 38.921875 18.109375 30.90625 
L 18.109375 0 
L 9.078125 0 
L 9.078125 75.984375 
L 18.109375 75.984375 
L 18.109375 46.1875 
Q 21.34375 51.125 25.703125 53.5625 
Q 30.078125 56 35.796875 56 
Q 45.21875 56 50.046875 50.171875 
Q 54.890625 44.34375 54.890625 33.015625 
z
" id="DejaVuSans-104"/>
       <path d="M 8.015625 75.875 
L 15.828125 75.875 
Q 23.140625 64.359375 26.78125 53.3125 
Q 30.421875 42.28125 30.421875 31.390625 
Q 30.421875 20.453125 26.78125 9.375 
Q 23.140625 -1.703125 15.828125 -13.1875 
L 8.015625 -13.1875 
Q 14.5 -2 17.703125 9.0625 
Q 20.90625 20.125 20.90625 31.390625 
Q 20.90625 42.671875 17.703125 53.65625 
Q 14.5 64.65625 8.015625 75.875 
z
" id="DejaVuSans-41"/>
      </defs>
      <use xlink:href="#DejaVuSans-101"/>
      <use x="61.523438" xlink:href="#DejaVuSans-110"/>
      <use x="124.902344" xlink:href="#DejaVuSans-101"/>
      <use x="186.425781" xlink:href="#DejaVuSans-114"/>
      <use x="225.789062" xlink:href="#DejaVuSans-103"/>
      <use x="289.265625" xlink:href="#DejaVuSans-105"/>
      <use x="317.048828" xlink:href="#DejaVuSans-97"/>
      <use x="378.328125" xlink:href="#DejaVuSans-32"/>
      <use x="410.115234" xlink:href="#DejaVuSans-40"/>
      <use x="449.128906" xlink:href="#DejaVuSans-107"/>
      <use x="507.039062" xlink:href="#DejaVuSans-87"/>
      <use x="605.916016" xlink:href="#DejaVuSans-104"/>
      <use x="669.294922" xlink:href="#DejaVuSans-41"/>
     </g>
    </g>
   </g>
   <g id="line2d_15">
    <path clip-path="url(#p420bb43e76)" d="M 69.144886 210.182445 
L 69.576241 208.897019 
L 70.007595 211.46787 
L 70.438949 212.753296 
L 70.870304 216.181098 
L 72.164367 236.319432 
L 72.595721 243.603511 
L 73.027076 245.745887 
L 73.889784 244.888937 
L 74.321139 241.03266 
L 74.752493 231.17773 
L 75.183847 223.893651 
L 75.615202 223.465176 
L 76.046556 208.897019 
L 76.47791 208.468544 
L 76.909265 217.894998 
L 77.340619 223.465176 
L 77.771974 213.181771 
L 78.203328 218.751949 
L 78.634682 215.324147 
L 79.497391 204.612267 
L 80.3601 212.753296 
L 80.791454 211.039395 
L 81.222808 208.468544 
L 82.516872 224.750602 
L 83.37958 241.88961 
L 83.810935 242.746561 
L 84.242289 242.746561 
L 84.673643 242.318085 
L 85.536352 236.747908 
L 85.967706 236.319432 
L 86.399061 232.891631 
L 86.830415 231.606205 
L 87.261769 233.320106 
L 88.124478 223.893651 
L 88.555833 217.894998 
L 89.849896 204.183792 
L 90.28125 192.614961 
L 90.712604 190.04411 
L 91.143959 190.04411 
L 91.575313 195.614288 
L 92.006667 208.897019 
L 92.438022 226.464503 
L 92.869376 239.318759 
L 93.300731 246.602838 
L 93.732085 247.459788 
L 94.163439 247.031313 
L 94.594794 247.888263 
L 95.026148 246.174362 
L 96.320211 216.609573 
L 97.18292 208.040069 
L 97.614274 213.181771 
L 98.045628 221.3228 
L 98.476983 226.036027 
L 99.339692 233.748581 
L 99.771046 237.604858 
L 100.2024 238.890284 
L 100.633755 237.604858 
L 101.065109 231.17773 
L 101.496463 228.178403 
L 101.927818 227.321453 
L 102.790526 232.891631 
L 103.221881 239.747234 
L 103.653235 244.460461 
L 104.08459 247.031313 
L 104.515944 247.031313 
L 104.947298 247.888263 
L 105.378653 244.031986 
L 105.810007 231.606205 
L 106.241361 215.752622 
L 107.10407 82.068357 
L 107.535424 81.639882 
L 107.966779 87.638535 
L 108.398133 100.492791 
L 109.260842 228.178403 
L 109.692196 230.32078 
L 110.123551 230.749255 
L 110.554905 227.321453 
L 110.986259 229.035354 
L 111.417614 226.036027 
L 111.848968 224.322127 
L 112.280322 227.321453 
L 112.711677 232.463156 
L 113.574385 238.890284 
L 114.00574 242.746561 
L 114.437094 245.317412 
L 114.868449 246.602838 
L 115.299803 246.602838 
L 115.731157 241.461135 
L 116.162512 241.461135 
L 116.593866 242.318085 
L 117.02522 242.318085 
L 117.456575 237.176383 
L 117.887929 238.033333 
L 118.319283 234.605532 
L 118.750638 234.177056 
L 119.181992 234.177056 
L 120.044701 231.17773 
L 120.476055 233.320106 
L 120.90741 225.179077 
L 121.770118 196.899713 
L 122.201473 196.899713 
L 122.632827 197.756664 
L 123.064181 205.469217 
L 123.495536 218.323474 
L 123.92689 240.604185 
L 124.358244 244.031986 
L 124.789599 243.175036 
L 125.220953 243.603511 
L 125.652308 243.603511 
L 126.515016 233.748581 
L 126.946371 232.463156 
L 127.377725 230.32078 
L 127.809079 230.32078 
L 128.240434 232.463156 
L 128.671788 239.747234 
L 129.103142 241.88961 
L 129.534497 241.461135 
L 129.965851 233.320106 
L 130.82856 223.036701 
L 131.259914 221.3228 
L 131.691269 215.752622 
L 132.553977 223.465176 
L 132.985332 227.749928 
L 133.416686 229.892304 
L 133.84804 238.890284 
L 134.710749 246.602838 
L 135.142103 247.888263 
L 135.573458 247.888263 
L 136.004812 247.031313 
L 136.436167 242.318085 
L 136.867521 233.320106 
L 137.298875 233.320106 
L 137.73023 233.748581 
L 138.161584 233.320106 
L 138.592938 230.32078 
L 139.024293 230.749255 
L 139.455647 223.465176 
L 139.887001 222.608226 
L 140.318356 222.608226 
L 140.74971 230.32078 
L 141.181064 234.177056 
L 141.612419 235.034007 
L 142.475128 214.467197 
L 142.906482 208.040069 
L 143.337836 209.753969 
L 143.769191 215.752622 
L 144.631899 238.033333 
L 145.063254 244.888937 
L 145.494608 247.888263 
L 146.357317 248.745214 
L 146.788671 247.888263 
L 147.220026 241.461135 
L 147.65138 231.17773 
L 148.082734 226.036027 
L 148.514089 200.327515 
L 148.945443 115.060948 
L 149.376797 100.492791 
L 149.808152 109.919245 
L 150.239506 108.205345 
L 150.67086 130.486056 
L 151.102215 210.61092 
L 151.533569 225.607552 
L 151.964923 220.037374 
L 152.396278 220.894325 
L 153.258987 211.039395 
L 153.690341 214.038722 
L 154.55305 224.750602 
L 154.984404 232.03468 
L 155.415758 242.318085 
L 155.847113 244.888937 
L 156.278467 246.602838 
L 156.709821 247.031313 
L 157.141176 241.88961 
L 157.57253 227.749928 
L 158.003885 218.323474 
L 158.435239 216.181098 
L 158.866593 207.183118 
L 159.297948 203.326841 
L 160.160656 218.323474 
L 160.592011 218.751949 
L 161.023365 224.322127 
L 161.454719 226.464503 
L 161.886074 226.464503 
L 162.317428 224.322127 
L 163.180137 214.038722 
L 163.611491 209.325494 
L 164.042846 209.753969 
L 164.4742 214.038722 
L 165.336909 229.892304 
L 165.768263 241.461135 
L 166.199617 246.602838 
L 166.630972 247.459788 
L 167.062326 246.602838 
L 167.49368 242.746561 
L 167.925035 227.749928 
L 168.356389 221.751275 
L 169.219098 192.186486 
L 169.650452 184.902407 
L 170.081807 195.614288 
L 170.513161 199.042089 
L 170.944515 212.753296 
L 171.807224 230.32078 
L 172.238578 229.035354 
L 172.669933 226.464503 
L 173.101287 223.036701 
L 173.532641 222.179751 
L 173.963996 218.323474 
L 176.120768 247.459788 
L 176.552122 247.888263 
L 177.414831 247.888263 
L 177.846185 242.746561 
L 179.140248 214.467197 
L 180.002957 213.610246 
L 181.29702 228.606879 
L 181.728374 223.036701 
L 183.022437 218.323474 
L 183.453792 217.466523 
L 183.885146 208.468544 
L 184.3165 196.899713 
L 185.610564 213.181771 
L 186.041918 227.749928 
L 186.473272 246.602838 
L 186.904627 247.888263 
L 187.335981 247.459788 
L 187.767335 247.459788 
L 188.19869 238.890284 
L 188.630044 224.322127 
L 189.492753 211.896345 
L 189.924107 209.325494 
L 190.355462 211.896345 
L 190.786816 222.608226 
L 191.21817 223.036701 
L 191.649525 222.608226 
L 192.080879 217.894998 
L 192.512233 219.608899 
L 192.943588 215.752622 
L 193.374942 214.038722 
L 193.806296 214.038722 
L 194.237651 214.895672 
L 194.669005 217.894998 
L 195.963068 239.747234 
L 196.394423 244.031986 
L 196.825777 243.603511 
L 197.257131 242.746561 
L 197.688486 242.318085 
L 198.11984 241.461135 
L 198.982549 221.3228 
L 199.413903 193.900387 
L 199.845257 146.768114 
L 200.276612 60.216121 
L 200.707966 64.500873 
L 201.139321 71.784952 
L 201.570675 97.064989 
L 202.002029 137.341659 
L 202.433384 218.751949 
L 202.864738 219.608899 
L 203.296092 219.608899 
L 203.727447 216.609573 
L 204.158801 217.466523 
L 204.590155 212.324821 
L 205.02151 214.895672 
L 205.884218 227.321453 
L 206.315573 233.748581 
L 206.746927 244.888937 
L 207.178282 248.316738 
L 208.04099 248.316738 
L 208.472345 244.460461 
L 208.903699 237.176383 
L 209.335053 224.322127 
L 210.197762 211.039395 
L 211.060471 206.754643 
L 211.491825 211.039395 
L 211.923179 210.61092 
L 212.354534 207.611593 
L 212.785888 206.754643 
L 213.217243 208.897019 
L 213.648597 211.896345 
L 214.94266 216.609573 
L 215.374014 219.608899 
L 216.236723 231.17773 
L 217.099432 243.175036 
L 217.530786 247.459788 
L 217.962141 247.459788 
L 218.393495 246.602838 
L 220.118912 216.609573 
L 220.550267 210.61092 
L 220.981621 213.181771 
L 221.412975 213.181771 
L 222.275684 218.323474 
L 222.707038 219.608899 
L 223.138393 219.608899 
L 223.569747 220.037374 
L 224.001102 219.608899 
L 224.86381 217.038048 
L 225.295165 214.895672 
L 225.726519 213.610246 
L 226.157873 214.038722 
L 227.020582 223.465176 
L 228.314645 244.888937 
L 228.746 245.745887 
L 229.177354 241.461135 
L 230.040063 228.606879 
L 230.471417 225.179077 
L 230.902771 220.46585 
L 231.334126 224.322127 
L 232.196834 225.179077 
L 232.628189 222.179751 
L 233.059543 221.3228 
L 233.490897 215.752622 
L 233.922252 217.466523 
L 234.353606 216.609573 
L 234.784961 219.180424 
L 235.216315 218.751949 
L 235.647669 220.037374 
L 236.079024 219.608899 
L 236.510378 225.607552 
L 236.941732 229.463829 
L 238.235795 247.459788 
L 238.66715 247.888263 
L 239.098504 247.888263 
L 239.529859 248.316738 
L 239.961213 244.888937 
L 241.255276 226.464503 
L 241.68663 221.751275 
L 242.117985 220.894325 
L 242.549339 220.894325 
L 242.980693 221.751275 
L 243.412048 213.610246 
L 243.843402 200.327515 
L 244.274756 193.043436 
L 244.706111 193.900387 
L 245.137465 193.471911 
L 245.56882 199.042089 
L 246.000174 211.039395 
L 246.431528 216.609573 
L 246.862883 215.752622 
L 247.294237 219.180424 
L 247.725591 227.321453 
L 248.5883 238.033333 
L 249.019654 244.460461 
L 249.451009 247.031313 
L 249.882363 247.031313 
L 250.313718 242.746561 
L 250.745072 236.319432 
L 251.607781 228.606879 
L 252.039135 220.46585 
L 252.470489 217.894998 
L 252.901844 214.467197 
L 253.333198 205.040742 
L 253.764552 202.041416 
L 254.627261 133.056907 
L 255.058615 135.199283 
L 255.48997 140.340985 
L 255.921324 139.05556 
L 256.784033 213.610246 
L 258.50945 244.031986 
L 258.940805 245.745887 
L 259.372159 246.602838 
L 260.234868 246.602838 
L 260.666222 238.461809 
L 261.097577 232.463156 
L 261.528931 229.035354 
L 262.822994 193.900387 
L 263.254348 194.757337 
L 263.685703 191.758011 
L 264.117057 197.328188 
L 264.548411 205.040742 
L 264.979766 215.324147 
L 265.842474 215.324147 
L 266.273829 216.609573 
L 266.705183 215.324147 
L 267.999246 230.32078 
L 268.861955 242.746561 
L 269.293309 241.03266 
L 270.156018 240.175709 
L 270.587372 238.033333 
L 271.450081 225.179077 
L 271.881436 217.466523 
L 272.31279 213.610246 
L 273.175499 210.61092 
L 273.606853 213.181771 
L 274.038207 216.609573 
L 274.469562 215.752622 
L 274.900916 208.897019 
L 275.33227 208.468544 
L 275.763625 202.469891 
L 276.194979 184.045457 
L 276.626333 181.903081 
L 277.489042 190.472585 
L 277.920397 203.326841 
L 278.351751 227.749928 
L 279.21446 241.88961 
L 279.645814 247.888263 
L 280.077168 247.888263 
L 280.508523 247.459788 
L 280.939877 243.603511 
L 281.802586 229.463829 
L 282.23394 228.178403 
L 282.665295 228.606879 
L 283.096649 226.464503 
L 283.959358 225.607552 
L 284.822066 212.324821 
L 285.253421 213.610246 
L 285.684775 213.610246 
L 286.116129 214.895672 
L 286.547484 216.609573 
L 286.978838 215.324147 
L 287.410192 213.181771 
L 287.841547 216.609573 
L 288.272901 221.3228 
L 289.566964 241.03266 
L 289.998319 244.460461 
L 290.429673 245.317412 
L 290.861027 244.460461 
L 291.292382 244.031986 
L 292.586445 229.463829 
L 293.017799 220.037374 
L 293.449154 216.181098 
L 293.880508 214.895672 
L 294.311862 208.040069 
L 294.743217 141.626411 
L 295.174571 136.484708 
L 295.605925 135.627758 
L 296.03728 141.197936 
L 296.468634 141.197936 
L 296.899988 194.328862 
L 297.331343 195.185812 
L 297.762697 191.329535 
L 298.194051 184.045457 
L 298.625406 194.757337 
L 299.488115 225.179077 
L 300.350823 239.747234 
L 300.782178 240.175709 
L 301.213532 240.175709 
L 301.644886 239.747234 
L 302.938949 215.752622 
L 303.801658 209.753969 
L 304.233013 210.61092 
L 305.095721 223.465176 
L 305.95843 218.323474 
L 306.389784 220.037374 
L 306.821139 215.752622 
L 307.252493 214.895672 
L 307.683847 215.324147 
L 308.546556 217.894998 
L 310.271974 239.747234 
L 310.703328 245.317412 
L 311.134682 246.174362 
L 311.997391 246.174362 
L 312.8601 228.178403 
L 313.291454 218.323474 
L 313.722808 211.896345 
L 314.154163 211.039395 
L 315.448226 221.751275 
L 315.87958 222.608226 
L 317.173643 190.90106 
L 317.604998 186.187833 
L 318.036352 185.759358 
L 318.467706 190.472585 
L 318.899061 193.043436 
L 319.330415 207.183118 
L 319.761769 216.609573 
L 320.193124 221.3228 
L 320.624478 227.321453 
L 321.055833 236.319432 
L 321.487187 240.604185 
L 321.918541 241.88961 
L 322.349896 241.88961 
L 322.78125 239.747234 
L 323.643959 209.753969 
L 324.075313 132.628432 
L 324.506667 106.062969 
L 324.938022 102.635167 
L 325.800731 122.773502 
L 326.232085 193.900387 
L 326.663439 213.610246 
L 327.094794 206.754643 
L 327.526148 204.612267 
L 328.388857 203.755316 
L 328.820211 204.612267 
L 331.408337 241.03266 
L 331.839692 241.461135 
L 332.7024 243.175036 
L 333.133755 235.462482 
L 333.565109 220.46585 
L 333.996463 216.181098 
L 334.859172 211.46787 
L 335.290526 217.038048 
L 335.721881 227.321453 
L 336.153235 226.036027 
L 337.447298 216.609573 
L 337.878653 216.609573 
L 338.310007 217.894998 
L 339.172716 218.751949 
L 339.60407 220.037374 
L 341.329487 241.88961 
L 341.760842 244.031986 
L 342.623551 243.175036 
L 343.054905 241.88961 
L 343.486259 237.604858 
L 343.917614 223.465176 
L 344.348968 219.180424 
L 344.780322 218.751949 
L 345.211677 208.897019 
L 345.643031 202.469891 
L 346.074385 199.470564 
L 346.937094 190.04411 
L 347.368449 194.757337 
L 347.799803 203.755316 
L 348.231157 217.894998 
L 348.662512 222.179751 
L 349.093866 223.465176 
L 349.52522 224.322127 
L 349.956575 226.036027 
L 351.250638 239.747234 
L 351.681992 244.888937 
L 352.113346 247.459788 
L 352.544701 247.888263 
L 353.40741 247.888263 
L 353.838764 241.88961 
L 354.270118 232.463156 
L 354.701473 227.749928 
L 355.132827 217.466523 
L 355.564181 212.753296 
L 355.995536 150.62439 
L 356.42689 136.056233 
L 356.858244 134.770808 
L 357.289599 137.770134 
L 357.720953 136.484708 
L 358.152308 198.613614 
L 358.583662 216.609573 
L 359.015016 216.609573 
L 359.446371 218.323474 
L 359.877725 218.323474 
L 360.309079 215.752622 
L 362.034497 238.461809 
L 362.465851 246.602838 
L 362.897205 246.602838 
L 363.32856 247.031313 
L 363.759914 246.174362 
L 364.622623 230.749255 
L 365.053977 228.606879 
L 365.485332 227.321453 
L 365.916686 224.322127 
L 366.779395 228.606879 
L 367.642103 208.468544 
L 368.936167 180.18918 
L 369.798875 192.614961 
L 370.23023 197.756664 
L 371.092938 223.893651 
L 371.955647 234.177056 
L 372.387001 241.88961 
L 373.24971 244.460461 
L 373.681064 244.460461 
L 374.112419 243.603511 
L 374.543773 236.319432 
L 374.975128 226.036027 
L 375.406482 211.46787 
L 375.837836 133.913857 
L 376.269191 103.920593 
L 376.700545 109.49077 
L 377.131899 117.203324 
L 377.563254 130.914531 
L 377.994608 208.897019 
L 378.425962 238.461809 
L 378.857317 239.318759 
L 379.288671 242.746561 
L 379.720026 243.603511 
L 380.15138 241.03266 
L 380.582734 236.747908 
L 381.445443 220.894325 
L 381.876797 217.466523 
L 382.308152 220.037374 
L 382.739506 226.036027 
L 383.602215 243.175036 
L 384.033569 247.031313 
L 385.327632 241.461135 
L 385.758987 241.461135 
L 386.190341 240.604185 
L 386.621695 241.88961 
L 387.05305 244.031986 
L 387.484404 242.746561 
L 389.209821 217.466523 
L 389.641176 214.895672 
L 390.07253 214.467197 
L 390.503885 213.610246 
L 390.935239 214.038722 
L 391.366593 213.181771 
L 391.797948 211.896345 
L 393.954719 247.459788 
L 394.386074 247.459788 
L 394.817428 247.888263 
L 395.248782 244.031986 
L 395.680137 238.033333 
L 396.111491 220.037374 
L 396.542846 188.330209 
L 396.9742 169.048824 
L 397.405554 169.905775 
L 397.836909 169.905775 
L 398.268263 180.18918 
L 398.699617 204.612267 
L 399.130972 214.895672 
L 399.562326 210.61092 
L 399.99368 208.897019 
L 400.425035 210.182445 
L 400.856389 210.61092 
L 401.287744 213.610246 
L 401.719098 213.610246 
L 402.150452 215.752622 
L 403.87587 241.461135 
L 404.307224 247.031313 
L 404.738578 246.602838 
L 405.169933 247.031313 
L 405.601287 242.318085 
L 406.032641 235.034007 
L 407.326705 226.892978 
L 407.758059 227.749928 
L 408.189413 226.892978 
L 409.483476 211.039395 
L 409.914831 212.324821 
L 410.777539 217.038048 
L 411.208894 218.323474 
L 411.640248 217.894998 
L 412.071603 219.608899 
L 413.79702 243.603511 
L 414.228374 243.175036 
L 414.659729 243.175036 
L 415.091083 242.746561 
L 415.522437 243.175036 
L 415.953792 239.318759 
L 417.247855 216.181098 
L 417.679209 214.038722 
L 418.110564 204.612267 
L 418.541918 204.183792 
L 418.973272 210.61092 
L 419.404627 214.038722 
L 419.835981 208.897019 
L 420.69869 221.3228 
L 421.561398 214.895672 
L 421.992753 214.895672 
L 422.424107 217.894998 
L 422.855462 219.180424 
L 423.286816 223.036701 
L 424.580879 243.175036 
L 425.012233 245.317412 
L 425.443588 245.745887 
L 425.874942 242.318085 
L 426.737651 226.464503 
L 427.169005 223.465176 
L 427.600359 223.465176 
L 428.463068 199.042089 
L 428.894423 191.758011 
L 429.325777 189.187159 
L 429.757131 183.616982 
L 430.188486 199.470564 
L 431.051194 220.894325 
L 431.482549 218.323474 
L 431.913903 217.466523 
L 432.345257 212.324821 
L 432.776612 217.038048 
L 433.207966 223.036701 
L 434.070675 237.604858 
L 434.502029 243.603511 
L 434.933384 246.174362 
L 435.364738 245.317412 
L 435.796092 245.317412 
L 436.227447 243.175036 
L 437.090155 229.892304 
L 437.52151 228.178403 
L 437.952864 222.179751 
L 438.815573 219.608899 
L 439.246927 219.180424 
L 439.678282 215.752622 
L 440.109636 222.179751 
L 440.54099 224.750602 
L 440.972345 231.606205 
L 441.403699 231.606205 
L 441.835053 226.464503 
L 442.697762 206.326168 
L 443.129116 201.184465 
L 443.560471 206.326168 
L 444.854534 237.176383 
L 445.285888 244.460461 
L 446.148597 246.174362 
L 446.579951 242.746561 
L 447.011306 234.605532 
L 447.44266 229.463829 
L 447.874014 226.464503 
L 448.305369 217.038048 
L 448.736723 211.46787 
L 449.168077 210.61092 
L 449.599432 214.038722 
L 450.030786 215.752622 
L 451.324849 243.603511 
L 451.756204 244.888937 
L 452.187558 244.460461 
L 452.618912 238.890284 
L 453.481621 225.607552 
L 453.912975 224.322127 
L 454.34433 226.464503 
L 455.207038 238.461809 
L 455.638393 244.888937 
L 456.069747 247.031313 
L 456.501102 247.031313 
L 456.932456 242.746561 
L 457.795165 222.608226 
L 458.226519 218.323474 
L 458.657873 211.896345 
L 459.089228 211.896345 
L 459.520582 214.467197 
L 459.951936 223.465176 
L 460.383291 227.321453 
L 460.814645 233.748581 
L 461.246 237.604858 
L 461.677354 245.745887 
L 462.108708 247.031313 
L 462.540063 247.459788 
L 462.971417 247.031313 
L 463.834126 247.031313 
L 464.26548 246.174362 
L 464.696834 246.174362 
L 466.422252 247.888263 
L 466.853606 247.459788 
L 467.716315 247.459788 
L 468.147669 247.031313 
L 468.579024 247.031313 
L 469.441732 247.888263 
L 470.735795 247.888263 
L 471.598504 217.466523 
L 472.029859 130.05758 
L 472.461213 105.206018 
L 472.892567 99.207365 
L 473.323922 105.206018 
L 473.755276 105.206018 
L 474.18663 168.620349 
L 474.617985 189.187159 
L 475.480693 203.326841 
L 475.912048 219.608899 
L 476.343402 243.603511 
L 476.774756 247.888263 
L 477.206111 247.459788 
L 477.637465 241.03266 
L 478.500174 221.751275 
L 479.362883 214.038722 
L 479.794237 217.894998 
L 480.656946 232.03468 
L 481.0883 234.605532 
L 481.519654 234.605532 
L 481.951009 230.749255 
L 482.382363 232.03468 
L 482.813718 224.322127 
L 484.107781 244.031986 
L 484.539135 247.031313 
L 484.970489 247.031313 
L 485.401844 246.602838 
L 485.833198 241.88961 
L 486.264552 233.748581 
L 486.695907 228.178403 
L 487.558615 223.465176 
L 487.98997 224.322127 
L 488.421324 223.893651 
L 488.852679 226.036027 
L 489.284033 226.036027 
L 489.715387 221.3228 
L 490.146742 220.894325 
L 490.578096 222.608226 
L 491.00945 219.180424 
L 491.440805 220.037374 
L 491.872159 223.465176 
L 492.303513 221.751275 
L 492.734868 222.608226 
L 493.166222 224.750602 
L 493.597577 226.036027 
L 494.028931 229.035354 
L 494.89164 241.461135 
L 495.322994 245.745887 
L 495.754348 246.174362 
L 496.185703 242.746561 
L 497.048411 223.036701 
L 497.479766 220.46585 
L 497.91112 220.46585 
L 498.342474 216.181098 
L 498.773829 218.323474 
L 499.205183 221.751275 
L 499.636538 219.608899 
L 500.067892 216.181098 
L 501.361955 234.605532 
L 501.793309 238.461809 
L 502.224664 235.462482 
L 502.656018 224.322127 
L 503.087372 220.037374 
L 503.518727 217.466523 
L 503.950081 218.323474 
L 504.381436 222.608226 
L 504.81279 234.177056 
L 505.244144 238.461809 
L 505.675499 240.604185 
L 506.106853 240.604185 
L 506.538207 238.461809 
L 506.969562 232.891631 
L 507.83227 202.898366 
L 508.263625 196.042763 
L 508.694979 199.89904 
L 509.126333 206.326168 
L 509.557688 222.179751 
L 509.989042 233.748581 
L 510.420397 233.748581 
L 511.283105 231.17773 
L 511.71446 228.606879 
L 512.145814 227.321453 
L 512.577168 231.17773 
L 513.439877 224.750602 
L 513.871231 227.321453 
L 514.302586 231.606205 
L 514.73394 234.605532 
L 515.165295 238.890284 
L 515.596649 244.460461 
L 516.028003 245.745887 
L 516.459358 246.174362 
L 516.890712 242.318085 
L 517.322066 226.892978 
L 518.184775 96.208039 
L 518.616129 84.210733 
L 519.047484 82.925307 
L 519.478838 89.780911 
L 520.341547 213.610246 
L 520.772901 221.751275 
L 521.204256 220.894325 
L 521.63561 219.180424 
L 522.066964 219.608899 
L 522.498319 216.609573 
L 522.929673 214.467197 
L 523.361027 216.181098 
L 523.792382 220.894325 
L 524.223736 219.608899 
L 526.380508 246.174362 
L 526.811862 246.174362 
L 527.243217 241.461135 
L 528.105925 228.606879 
L 528.53728 219.180424 
L 528.968634 213.181771 
L 529.399988 217.466523 
L 529.831343 217.894998 
L 530.694051 224.322127 
L 531.125406 224.750602 
L 531.55676 221.751275 
L 531.988115 219.608899 
L 532.419469 207.183118 
L 532.850823 198.185139 
L 533.282178 196.471238 
L 533.713532 190.472585 
L 534.144886 192.614961 
L 535.007595 220.894325 
L 536.301658 242.746561 
L 536.733013 244.031986 
L 537.164367 244.888937 
L 537.595721 244.031986 
L 538.027076 231.17773 
L 538.889784 220.894325 
L 539.321139 220.037374 
L 539.752493 216.181098 
L 540.183847 229.035354 
L 541.046556 240.604185 
L 541.47791 241.88961 
L 541.909265 244.888937 
L 542.771974 240.175709 
L 543.634682 229.035354 
L 544.066037 224.750602 
L 544.928745 227.321453 
L 545.791454 239.318759 
L 546.222808 244.888937 
L 546.654163 246.174362 
L 547.085517 246.602838 
L 547.516872 246.174362 
L 548.37958 228.606879 
L 548.810935 214.038722 
L 549.673643 207.611593 
L 550.536352 213.181771 
L 550.967706 224.322127 
L 551.830415 219.608899 
L 552.261769 218.751949 
L 552.693124 214.895672 
L 553.555833 186.187833 
L 553.987187 180.18918 
L 554.418541 181.04613 
L 554.849896 187.473259 
L 556.143959 235.890957 
L 557.006667 244.888937 
L 557.869376 245.745887 
L 558.300731 243.603511 
L 558.732085 235.034007 
L 559.163439 221.751275 
L 560.457502 203.326841 
L 560.888857 208.468544 
L 561.320211 217.038048 
L 562.18292 219.608899 
L 562.614274 217.466523 
L 563.045628 212.753296 
L 563.476983 209.753969 
L 563.908337 209.325494 
L 564.339692 209.325494 
L 564.771046 211.039395 
L 565.2024 215.324147 
L 566.927818 241.03266 
L 567.359172 244.460461 
L 567.790526 245.745887 
L 568.221881 244.888937 
L 568.653235 239.318759 
L 570.378653 199.89904 
L 570.810007 128.343679 
L 571.241361 103.920593 
L 571.672716 109.49077 
L 572.10407 111.633146 
L 572.535424 117.203324 
L 572.966779 188.758684 
L 573.398133 217.466523 
L 573.829487 217.466523 
L 574.260842 216.609573 
L 575.123551 215.752622 
L 575.554905 215.752622 
L 575.986259 220.46585 
L 576.417614 226.892978 
L 576.417614 226.892978 
" style="fill:none;stroke:#000000;stroke-linecap:square;stroke-width:1.5;"/>
   </g>
   <g id="line2d_16">
    <path clip-path="url(#p420bb43e76)" d="M 69.144886 214.779189 
L 69.576241 206.373514 
L 70.007595 208.063762 
L 70.438949 213.662651 
L 70.870304 215.202321 
L 71.301658 219.450305 
L 72.164367 232.669401 
L 73.027076 246.176502 
L 73.45843 245.103224 
L 73.889784 242.585868 
L 74.321139 242.044592 
L 74.752493 234.762759 
L 75.183847 218.94382 
L 75.615202 214.018494 
L 76.046556 219.624508 
L 76.47791 196.613857 
L 76.909265 207.974739 
L 77.340619 224.132164 
L 77.771974 224.767456 
L 78.203328 202.421834 
L 78.634682 220.559686 
L 79.497391 207.304133 
L 79.928745 204.286706 
L 80.3601 212.970573 
L 80.791454 216.825115 
L 81.222808 213.374768 
L 81.654163 211.026433 
L 82.085517 219.60716 
L 82.516872 225.246611 
L 82.948226 227.314427 
L 83.810935 245.487367 
L 84.242289 240.583228 
L 85.104998 238.651281 
L 85.536352 233.800075 
L 85.967706 230.275962 
L 86.399061 233.479754 
L 86.830415 229.255128 
L 87.261769 231.426122 
L 87.693124 234.950612 
L 88.124478 222.367989 
L 88.987187 210.096823 
L 89.418541 210.936434 
L 89.849896 210.011286 
L 90.28125 206.206366 
L 90.712604 194.514222 
L 91.575313 200.537347 
L 92.006667 207.413377 
L 93.300731 245.168071 
L 93.732085 249.834747 
L 94.163439 245.895246 
L 94.594794 244.254182 
L 95.026148 246.365146 
L 95.457502 241.988799 
L 95.888857 220.974901 
L 96.320211 207.717311 
L 96.751565 209.063733 
L 97.18292 209.323779 
L 97.614274 207.255437 
L 98.476983 227.807492 
L 98.908337 228.943242 
L 99.339692 230.483981 
L 100.2024 237.161329 
L 100.633755 236.717041 
L 101.065109 233.641921 
L 101.496463 223.200226 
L 101.927818 223.450893 
L 102.359172 225.069632 
L 102.790526 230.064456 
L 103.221881 233.101549 
L 103.653235 242.7961 
L 104.08459 246.358793 
L 104.515944 247.663283 
L 104.947298 245.360284 
L 105.378653 247.187397 
L 105.810007 238.141054 
L 106.672716 198.506286 
L 107.10407 107.993506 
L 107.535424 53.787122 
L 108.398133 129.234233 
L 108.829487 140.508576 
L 109.260842 206.66261 
L 109.692196 242.161712 
L 110.123551 224.65071 
L 110.554905 225.420747 
L 110.986259 219.88311 
L 111.417614 225.599565 
L 111.848968 221.312177 
L 112.280322 221.68575 
L 113.143031 234.022598 
L 113.574385 235.33676 
L 114.437094 243.306442 
L 114.868449 245.079926 
L 115.299803 245.175665 
L 115.731157 244.231101 
L 116.162512 233.435955 
L 116.593866 239.10422 
L 117.02522 242.124179 
L 117.456575 241.890678 
L 117.887929 231.253379 
L 118.319283 237.732122 
L 118.750638 228.704764 
L 119.181992 230.25109 
L 119.613346 230.28476 
L 120.044701 227.097974 
L 120.476055 226.209382 
L 120.90741 230.754306 
L 121.770118 203.431791 
L 122.201473 192.089558 
L 122.632827 202.693806 
L 123.064181 206.36363 
L 123.495536 215.150828 
L 123.92689 227.088202 
L 124.358244 250.685855 
L 124.789599 243.52309 
L 125.220953 239.408857 
L 125.652308 240.593866 
L 126.083662 240.178631 
L 126.515016 230.029538 
L 126.946371 225.359823 
L 127.377725 227.27149 
L 127.809079 225.416411 
L 128.240434 229.617091 
L 128.671788 235.663358 
L 129.103142 248.407599 
L 129.965851 238.058713 
L 130.397205 219.553975 
L 130.82856 219.21465 
L 131.259914 215.530122 
L 131.691269 216.809593 
L 132.122623 210.389999 
L 132.553977 218.886619 
L 133.416686 229.538766 
L 133.84804 230.384372 
L 134.279395 243.023692 
L 134.710749 244.141903 
L 135.142103 247.332814 
L 135.573458 246.755221 
L 136.004812 245.721433 
L 136.436167 243.793013 
L 136.867521 234.798409 
L 137.298875 221.701489 
L 137.73023 229.639617 
L 138.161584 230.472208 
L 138.592938 229.277057 
L 139.024293 224.573404 
L 139.455647 227.438911 
L 139.887001 215.19623 
L 140.318356 218.612374 
L 140.74971 218.966256 
L 141.181064 230.603718 
L 141.612419 231.639214 
L 142.043773 231.19786 
L 142.475128 212.6965 
L 142.906482 207.96951 
L 143.337836 206.240519 
L 144.200545 220.336359 
L 144.631899 233.003568 
L 145.063254 241.648612 
L 145.494608 247.253365 
L 145.925962 248.555527 
L 146.357317 247.471491 
L 146.788671 248.009402 
L 147.220026 246.08186 
L 148.082734 219.590151 
L 148.514089 218.33703 
L 148.945443 182.922562 
L 149.376797 80.4177 
L 149.808152 89.02138 
L 150.239506 134.752098 
L 150.67086 135.291702 
L 151.102215 158.507049 
L 151.533569 231.109431 
L 151.964923 226.347124 
L 152.396278 215.358544 
L 152.827632 219.767712 
L 153.258987 214.044984 
L 153.690341 210.750432 
L 154.55305 223.207792 
L 154.984404 228.019648 
L 155.415758 234.979021 
L 155.847113 246.657952 
L 156.278467 244.204151 
L 156.709821 246.016097 
L 157.141176 245.35926 
L 157.57253 234.714918 
L 158.003885 212.976217 
L 158.435239 207.667466 
L 158.866593 211.2854 
L 159.297948 200.563749 
L 159.729302 199.977473 
L 160.160656 214.554094 
L 160.592011 218.659078 
L 161.023365 215.224176 
L 161.454719 222.100799 
L 161.886074 222.672946 
L 162.317428 221.619655 
L 162.748782 218.880994 
L 163.180137 213.466779 
L 164.042846 209.637968 
L 164.4742 213.431975 
L 165.336909 227.022308 
L 165.768263 233.701721 
L 166.199617 246.34846 
L 166.630972 247.504283 
L 167.49368 242.403248 
L 167.925035 235.042301 
L 168.356389 210.330327 
L 168.787744 213.04154 
L 169.219098 195.568004 
L 169.650452 185.610413 
L 170.081807 184.175102 
L 170.513161 202.004812 
L 170.944515 202.829917 
L 171.37587 216.000374 
L 171.807224 221.015189 
L 172.238578 228.32139 
L 172.669933 222.486453 
L 173.101287 219.978014 
L 173.532641 218.213529 
L 173.963996 219.904372 
L 174.39535 216.051126 
L 174.826705 226.593413 
L 175.689413 237.014552 
L 176.120768 242.716415 
L 176.552122 249.916807 
L 176.983476 245.55367 
L 177.846185 244.984617 
L 178.277539 234.483831 
L 178.708894 220.927124 
L 179.140248 211.002459 
L 179.571603 203.745296 
L 180.002957 209.43534 
L 180.434311 209.947904 
L 180.865666 218.529755 
L 181.29702 223.911506 
L 181.728374 226.967587 
L 182.159729 212.208562 
L 182.591083 214.272685 
L 183.022437 213.180262 
L 183.453792 213.745717 
L 183.885146 213.441329 
L 184.747855 196.512383 
L 185.179209 209.837313 
L 185.610564 215.93975 
L 186.041918 219.790071 
L 186.473272 235.537721 
L 186.904627 255.990852 
L 187.335981 246.175585 
L 187.767335 244.354583 
L 188.19869 244.651446 
L 189.061398 207.152961 
L 189.492753 210.378532 
L 189.924107 204.759282 
L 190.355462 206.544983 
L 190.786816 213.876401 
L 191.21817 229.574648 
L 191.649525 217.914843 
L 192.080879 215.928692 
L 192.512233 210.654629 
L 192.943588 218.177921 
L 193.374942 212.279619 
L 193.806296 211.191895 
L 194.669005 215.301553 
L 195.100359 220.258254 
L 195.963068 235.739113 
L 196.394423 242.840596 
L 196.825777 245.419101 
L 197.257131 241.337903 
L 197.688486 240.431143 
L 198.11984 240.143145 
L 198.551194 238.849493 
L 199.413903 210.747923 
L 199.845257 177.789775 
L 200.276612 134.929723 
L 200.707966 33.445398 
L 202.433384 176.612588 
L 202.864738 244.464002 
L 203.296092 219.155482 
L 203.727447 218.037335 
L 204.158801 211.997801 
L 204.590155 214.984249 
L 205.02151 209.12398 
L 206.746927 236.232449 
L 207.178282 250.125053 
L 207.609636 249.891485 
L 208.04099 247.884337 
L 208.472345 248.245077 
L 208.903699 241.017473 
L 209.335053 230.399319 
L 209.766408 213.081106 
L 210.197762 210.860614 
L 210.629116 206.358701 
L 211.060471 209.38379 
L 211.491825 208.92392 
L 211.923179 217.716423 
L 212.785888 209.68586 
L 213.217243 210.142608 
L 213.648597 213.039292 
L 214.079951 214.470428 
L 214.511306 213.101557 
L 215.374014 217.427735 
L 215.805369 221.872997 
L 217.530786 245.514477 
L 217.962141 249.579378 
L 218.393495 246.121784 
L 218.824849 244.349264 
L 219.256204 230.02632 
L 219.687558 223.919206 
L 220.118912 213.657939 
L 220.550267 210.00107 
L 220.981621 205.385335 
L 221.412975 213.410063 
L 221.84433 213.079976 
L 222.275684 217.958917 
L 222.707038 220.149847 
L 223.138393 220.887149 
L 223.569747 219.593267 
L 224.001102 219.176922 
L 224.432456 216.772051 
L 225.295165 213.845428 
L 225.726519 213.340379 
L 226.157873 213.756826 
L 226.589228 215.543702 
L 227.020582 221.897253 
L 227.451936 226.318941 
L 228.746 247.598488 
L 229.177354 244.897557 
L 230.040063 226.326032 
L 230.471417 221.162812 
L 230.902771 219.334396 
L 231.334126 214.018347 
L 231.76548 223.54805 
L 232.196834 221.723631 
L 232.628189 221.718792 
L 233.059543 216.478313 
L 233.490897 217.851889 
L 233.922252 209.902457 
L 234.353606 215.418874 
L 234.784961 213.612313 
L 235.216315 218.49778 
L 235.647669 216.271695 
L 236.079024 219.333866 
L 236.510378 219.02529 
L 236.941732 228.223019 
L 237.373087 231.151864 
L 238.66715 250.986297 
L 239.098504 247.53396 
L 239.529859 246.993214 
L 239.961213 248.077429 
L 240.392567 240.517475 
L 240.823922 230.623648 
L 241.255276 224.458165 
L 242.117985 218.616224 
L 242.549339 222.021449 
L 242.980693 224.131302 
L 243.412048 225.21266 
L 244.274756 194.528045 
L 244.706111 193.519295 
L 245.137465 196.817359 
L 245.56882 194.978862 
L 246.000174 201.346503 
L 246.431528 213.896825 
L 246.862883 219.193107 
L 247.294237 215.747077 
L 247.725591 220.743836 
L 248.156946 230.027409 
L 248.5883 233.366249 
L 249.019654 239.327161 
L 249.451009 246.967317 
L 249.882363 248.163422 
L 250.313718 246.291354 
L 250.745072 239.051619 
L 251.176426 229.918963 
L 251.607781 227.492368 
L 252.039135 222.761707 
L 252.470489 211.918112 
L 252.901844 212.876685 
L 253.333198 210.899785 
L 253.764552 200.297101 
L 254.195907 201.748891 
L 254.627261 157.166628 
L 255.058615 131.151237 
L 255.48997 147.375354 
L 255.921324 156.671348 
L 256.352679 157.678534 
L 257.215387 223.980877 
L 257.646742 224.165461 
L 258.940805 247.21058 
L 259.372159 245.984958 
L 259.803513 246.970165 
L 260.666222 246.605217 
L 261.097577 232.308122 
L 261.528931 227.030774 
L 261.960285 224.831914 
L 262.822994 192.824184 
L 263.254348 191.958651 
L 263.685703 199.728485 
L 264.117057 198.110417 
L 264.548411 206.104114 
L 264.979766 210.521666 
L 265.41112 217.065138 
L 265.842474 211.591263 
L 266.273829 210.221996 
L 266.705183 214.207509 
L 267.136538 214.028786 
L 267.567892 221.769142 
L 268.430601 231.875457 
L 269.293309 244.965523 
L 269.724664 238.697347 
L 270.156018 239.436877 
L 270.587372 239.064248 
L 271.018727 235.621279 
L 272.31279 210.332619 
L 272.744144 208.313171 
L 273.175499 210.128561 
L 273.606853 211.417546 
L 274.038207 217.32261 
L 274.469562 220.914003 
L 274.900916 216.398216 
L 275.33227 206.07742 
L 275.763625 210.262667 
L 276.194979 202.420257 
L 276.626333 181.061903 
L 277.057688 185.122852 
L 277.489042 192.983957 
L 277.920397 198.444832 
L 278.351751 211.718377 
L 278.783105 235.198147 
L 279.21446 236.890024 
L 280.077168 251.454686 
L 280.508523 247.62176 
L 280.939877 247.406836 
L 281.371231 239.80388 
L 282.23394 221.714718 
L 283.096649 228.282589 
L 283.528003 226.601158 
L 283.959358 229.347682 
L 284.390712 227.244287 
L 284.822066 213.316328 
L 285.253421 209.90217 
L 285.684775 218.695503 
L 286.116129 218.320462 
L 286.547484 218.52012 
L 286.978838 217.346604 
L 287.410192 214.008361 
L 287.841547 212.484966 
L 288.272901 219.350524 
L 288.704256 224.280081 
L 289.998319 243.643542 
L 290.429673 245.863747 
L 290.861027 245.634466 
L 291.292382 243.084395 
L 291.723736 243.046913 
L 292.15509 233.99468 
L 293.017799 223.362329 
L 293.449154 210.58619 
L 293.880508 210.884953 
L 294.311862 210.816649 
L 294.743217 203.42063 
L 295.174571 123.96757 
L 296.03728 153.910353 
L 296.468634 161.027529 
L 296.899988 157.446741 
L 297.331343 206.874399 
L 298.625406 190.079649 
L 299.919469 229.154434 
L 300.350823 234.376503 
L 300.782178 241.225595 
L 301.213532 238.32898 
L 301.644886 238.340977 
L 302.076241 237.356378 
L 302.507595 223.50568 
L 302.938949 215.727163 
L 303.370304 205.712868 
L 303.801658 207.058862 
L 304.233013 207.634846 
L 304.664367 212.403917 
L 305.095721 221.838047 
L 305.527076 225.637826 
L 305.95843 214.782241 
L 306.389784 212.420901 
L 306.821139 219.02658 
L 307.252493 212.604476 
L 308.115202 213.565813 
L 308.546556 215.39048 
L 308.97791 217.981768 
L 309.409265 225.559679 
L 309.840619 230.593659 
L 310.271974 237.667438 
L 310.703328 242.149201 
L 311.134682 249.003225 
L 311.566037 246.13018 
L 311.997391 245.676912 
L 312.428745 245.545855 
L 312.8601 228.731864 
L 313.291454 216.660489 
L 313.722808 208.226363 
L 314.154163 206.033416 
L 314.585517 209.952073 
L 315.016872 218.140455 
L 315.448226 220.6314 
L 315.87958 224.790014 
L 316.310935 222.599476 
L 316.742289 205.301439 
L 317.173643 198.625202 
L 317.604998 187.605011 
L 318.036352 188.380308 
L 318.467706 192.584595 
L 318.899061 199.791407 
L 319.330415 202.391404 
L 319.761769 217.219547 
L 320.193124 223.565244 
L 320.624478 225.188181 
L 321.055833 230.654723 
L 321.487187 240.611076 
L 321.918541 242.178076 
L 322.349896 241.742711 
L 322.78125 240.790035 
L 323.212604 236.45441 
L 323.643959 211.570851 
L 324.075313 196.258703 
L 324.506667 104.06665 
L 324.938022 101.723449 
L 325.800731 155.022811 
L 326.232085 167.094167 
L 326.663439 239.667332 
L 327.094794 230.412484 
L 327.526148 207.532791 
L 328.388857 206.130547 
L 328.820211 205.002957 
L 329.251565 207.21248 
L 330.114274 222.216428 
L 330.976983 230.342175 
L 331.839692 244.21913 
L 332.271046 240.143004 
L 333.133755 242.386708 
L 333.565109 226.441315 
L 333.996463 205.425859 
L 334.427818 210.716944 
L 334.859172 212.432291 
L 335.290526 212.328877 
L 336.153235 238.334529 
L 336.58459 225.548969 
L 337.015944 219.769806 
L 337.447298 215.939437 
L 337.878653 218.171907 
L 338.310007 219.641798 
L 338.741361 219.269022 
L 339.172716 217.395199 
L 339.60407 217.253591 
L 340.035424 219.484943 
L 340.466779 227.377863 
L 340.898133 232.610898 
L 341.329487 240.221863 
L 341.760842 244.465665 
L 342.192196 245.520501 
L 342.623551 242.909439 
L 343.054905 242.404078 
L 343.486259 239.991618 
L 343.917614 232.280702 
L 344.348968 210.061642 
L 345.211677 217.844693 
L 345.643031 204.339936 
L 346.074385 202.887335 
L 346.50574 203.528859 
L 346.937094 198.331662 
L 347.368449 195.647578 
L 348.662512 225.795776 
L 349.093866 222.630621 
L 349.52522 221.494929 
L 349.956575 222.714664 
L 350.387929 225.91595 
L 351.250638 237.677905 
L 351.681992 241.616027 
L 352.113346 247.908772 
L 352.544701 249.278584 
L 352.976055 248.312449 
L 353.40741 247.844557 
L 353.838764 247.634648 
L 354.701473 221.248776 
L 355.132827 220.922884 
L 355.564181 207.832097 
L 355.995536 209.876758 
L 356.42689 127.970953 
L 356.858244 143.939705 
L 357.289599 164.91222 
L 357.720953 172.145018 
L 358.152308 170.693969 
L 358.583662 235.056718 
L 359.015016 229.274931 
L 359.446371 218.734087 
L 359.877725 219.78543 
L 360.309079 218.827534 
L 360.740434 215.685183 
L 361.171788 225.044591 
L 362.034497 234.788493 
L 362.465851 241.564744 
L 362.897205 251.70506 
L 363.32856 245.585341 
L 363.759914 246.640758 
L 364.191269 244.38371 
L 364.622623 228.580197 
L 365.053977 222.282025 
L 365.485332 224.714431 
L 365.916686 224.311925 
L 366.34804 220.245102 
L 366.779395 225.46213 
L 367.210749 227.334194 
L 367.642103 211.94581 
L 368.073458 201.079102 
L 369.367521 183.284004 
L 369.798875 194.615185 
L 370.23023 200.988905 
L 370.661584 205.440563 
L 371.524293 229.971216 
L 371.955647 231.055495 
L 372.387001 236.825799 
L 372.818356 245.962519 
L 373.24971 243.099208 
L 373.681064 244.764907 
L 374.112419 243.601623 
L 374.543773 241.864778 
L 375.837836 199.42925 
L 376.269191 105.140991 
L 376.700545 95.984658 
L 377.131899 138.757244 
L 377.563254 158.634553 
L 377.994608 172.688426 
L 378.425962 247.69213 
L 378.857317 248.186376 
L 379.288671 238.01505 
L 379.720026 245.131553 
L 380.15138 243.222677 
L 381.014089 231.700195 
L 381.876797 214.608703 
L 382.308152 215.471063 
L 383.17086 228.736608 
L 384.033569 247.344977 
L 384.464923 249.010785 
L 384.896278 242.769903 
L 385.327632 239.919049 
L 385.758987 237.961089 
L 386.190341 239.904594 
L 386.621695 239.81633 
L 387.484404 254.498351 
L 387.915758 251.188112 
L 388.347113 239.315333 
L 388.778467 231.465577 
L 389.209821 220.706836 
L 389.641176 213.873834 
L 390.07253 213.389018 
L 390.503885 213.526776 
L 390.935239 212.755221 
L 391.366593 214.163984 
L 391.797948 214.280646 
L 392.229302 213.630012 
L 392.660656 223.590604 
L 393.954719 244.309666 
L 394.386074 251.353026 
L 394.817428 246.168818 
L 395.248782 247.01723 
L 396.111491 229.876348 
L 396.542846 201.88444 
L 396.9742 166.421326 
L 397.405554 164.899987 
L 397.836909 184.505917 
L 398.268263 187.873964 
L 398.699617 199.664478 
L 399.130972 224.741221 
L 399.562326 222.786831 
L 399.99368 208.622941 
L 400.425035 207.944105 
L 400.856389 209.288797 
L 401.287744 208.735026 
L 401.719098 213.204964 
L 402.150452 213.817054 
L 402.581807 217.85586 
L 403.013161 226.777854 
L 404.738578 250.492663 
L 405.169933 244.709094 
L 405.601287 246.28435 
L 406.463996 225.926616 
L 406.89535 229.32281 
L 407.326705 228.820057 
L 407.758059 228.046745 
L 408.189413 232.59877 
L 408.620768 227.599099 
L 409.052122 215.175907 
L 409.483476 210.221868 
L 409.914831 208.217137 
L 410.346185 215.242188 
L 410.777539 217.252212 
L 411.640248 215.439324 
L 412.071603 215.379262 
L 412.502957 219.845728 
L 412.934311 228.429915 
L 414.228374 246.984288 
L 414.659729 241.997463 
L 415.091083 242.22472 
L 415.522437 241.336339 
L 415.953792 242.25749 
L 416.385146 234.232855 
L 416.8165 221.913483 
L 417.247855 214.422305 
L 417.679209 210.789418 
L 418.110564 214.633297 
L 418.541918 202.152141 
L 418.973272 208.324919 
L 419.404627 218.511309 
L 419.835981 218.390841 
L 420.267335 208.301474 
L 420.69869 221.649715 
L 421.130044 225.287931 
L 421.561398 216.308094 
L 421.992753 212.25611 
L 422.424107 214.002985 
L 422.855462 219.343067 
L 423.286816 220.742189 
L 423.71817 225.263595 
L 424.580879 239.586118 
L 425.012233 245.704932 
L 425.874942 243.676906 
L 426.306296 236.333807 
L 427.169005 214.873205 
L 427.600359 217.264055 
L 428.031714 221.567721 
L 428.463068 198.709737 
L 428.894423 192.682653 
L 429.325777 190.078659 
L 429.757131 192.32893 
L 430.188486 188.311876 
L 430.61984 214.850616 
L 431.482549 227.691914 
L 431.913903 216.823167 
L 432.345257 216.65671 
L 432.776612 211.104807 
L 433.207966 221.171495 
L 433.639321 227.671205 
L 434.070675 236.121421 
L 434.502029 240.941638 
L 434.933384 247.599985 
L 435.364738 247.935566 
L 435.796092 244.414437 
L 436.227447 244.901257 
L 436.658801 240.430399 
L 437.090155 227.798301 
L 437.52151 222.431167 
L 437.952864 224.350489 
L 438.384218 216.489371 
L 438.815573 221.39735 
L 439.246927 221.227445 
L 439.678282 220.084933 
L 440.109636 212.146592 
L 440.54099 226.205129 
L 440.972345 225.824696 
L 441.403699 235.223115 
L 441.835053 229.8665 
L 442.266408 220.791058 
L 442.697762 206.755898 
L 443.129116 201.856366 
L 443.560471 202.383525 
L 445.285888 241.360623 
L 445.717243 248.115536 
L 446.148597 245.089621 
L 446.579951 246.343949 
L 447.011306 238.667262 
L 447.44266 225.551331 
L 447.874014 222.60498 
L 448.305369 221.099768 
L 448.736723 208.396288 
L 449.168077 208.940131 
L 449.599432 213.935479 
L 450.030786 220.337426 
L 450.462141 218.811579 
L 450.893495 231.31262 
L 451.756204 249.8626 
L 452.187558 246.098639 
L 452.618912 244.466661 
L 453.050267 232.35302 
L 453.481621 223.729888 
L 453.912975 219.628996 
L 454.34433 221.903286 
L 454.775684 226.369126 
L 456.069747 247.671536 
L 456.501102 248.199551 
L 456.932456 246.684752 
L 457.36381 238.279131 
L 457.795165 222.225443 
L 458.226519 213.005032 
L 458.657873 213.066242 
L 459.089228 206.226108 
L 459.520582 210.093943 
L 459.951936 216.297911 
L 460.383291 231.492495 
L 460.814645 231.022346 
L 461.246 239.990309 
L 461.677354 241.42306 
L 462.108708 255.367556 
L 462.540063 251.85808 
L 462.971417 252.196055 
L 463.402771 249.335996 
L 463.834126 248.086977 
L 464.26548 248.161542 
L 464.696834 245.882942 
L 465.128189 246.203203 
L 465.559543 246.8494 
L 466.853606 248.044072 
L 467.284961 246.702614 
L 467.716315 246.972345 
L 468.147669 247.025096 
L 468.579024 245.840583 
L 469.010378 246.471759 
L 469.441732 247.841214 
L 469.873087 249.981887 
L 470.304441 249.392546 
L 470.735795 250.024572 
L 471.16715 249.52987 
L 471.598504 222.570093 
L 472.029859 204.151375 
L 472.461213 100.873342 
L 472.892567 97.451484 
L 473.323922 119.58848 
L 473.755276 132.287255 
L 474.18663 135.832914 
L 474.617985 197.217052 
L 475.049339 207.7215 
L 475.480693 207.631417 
L 475.912048 213.186959 
L 476.343402 228.694184 
L 476.774756 253.123391 
L 477.206111 248.665607 
L 477.637465 246.206328 
L 478.931528 212.158384 
L 479.362883 212.930917 
L 479.794237 209.3837 
L 481.0883 232.191338 
L 481.519654 232.477574 
L 481.951009 231.474678 
L 482.382363 224.644303 
L 482.813718 229.363018 
L 483.245072 218.152561 
L 483.676426 234.224529 
L 484.107781 239.812851 
L 484.539135 248.490898 
L 484.970489 249.02356 
L 485.401844 247.097918 
L 485.833198 246.207034 
L 486.264552 236.830329 
L 486.695907 224.863656 
L 487.127261 221.208763 
L 487.558615 222.535558 
L 487.98997 221.130524 
L 488.421324 226.765375 
L 488.852679 226.981975 
L 489.284033 230.917875 
L 489.715387 227.454793 
L 490.146742 218.991438 
L 491.00945 225.045137 
L 491.440805 218.238596 
L 491.872159 219.801513 
L 492.303513 222.684968 
L 492.734868 218.431052 
L 493.166222 221.081054 
L 493.597577 225.179833 
L 494.028931 226.474893 
L 494.460285 230.457641 
L 494.89164 239.433537 
L 495.754348 249.21519 
L 496.185703 246.888526 
L 496.617057 239.742589 
L 497.048411 221.913342 
L 497.479766 214.166238 
L 497.91112 216.665948 
L 498.342474 220.291494 
L 498.773829 215.741611 
L 499.205183 224.512917 
L 499.636538 229.585866 
L 500.067892 221.523194 
L 500.499246 216.863659 
L 500.930601 229.564247 
L 501.361955 234.468744 
L 501.793309 237.957986 
L 502.224664 238.77377 
L 502.656018 230.960206 
L 503.087372 216.444914 
L 503.518727 217.685374 
L 503.950081 217.650628 
L 504.381436 220.720532 
L 504.81279 226.270222 
L 505.244144 240.037298 
L 505.675499 240.49093 
L 506.106853 242.0531 
L 506.538207 240.843938 
L 506.969562 236.690586 
L 507.400916 228.115372 
L 507.83227 206.259596 
L 508.263625 194.059383 
L 508.694979 194.095279 
L 509.557688 216.223151 
L 509.989042 235.875626 
L 510.420397 243.15638 
L 510.851751 234.531678 
L 511.283105 232.910912 
L 511.71446 230.256022 
L 512.145814 225.082561 
L 512.577168 223.566847 
L 513.008523 230.170383 
L 513.439877 224.386368 
L 513.871231 221.624425 
L 514.73394 233.496952 
L 515.165295 235.496013 
L 515.596649 240.626045 
L 516.028003 247.796681 
L 516.459358 246.057141 
L 516.890712 246.038571 
L 517.322066 238.155225 
L 517.753421 213.050012 
L 518.184775 131.739581 
L 518.616129 74.864743 
L 519.047484 89.053751 
L 519.478838 111.226783 
L 519.910192 123.504431 
L 520.341547 189.982473 
L 520.772901 235.25365 
L 521.204256 224.088247 
L 522.066964 217.464231 
L 522.498319 217.113298 
L 522.929673 210.961558 
L 523.361027 209.579215 
L 523.792382 214.040055 
L 524.223736 221.583562 
L 524.65509 219.852068 
L 525.086445 228.543178 
L 525.517799 234.409221 
L 525.949154 238.351432 
L 526.380508 244.950663 
L 526.811862 249.556827 
L 527.243217 245.966401 
L 528.105925 228.63342 
L 528.968634 209.52398 
L 529.399988 208.550761 
L 529.831343 223.577484 
L 530.262697 223.231186 
L 530.694051 228.963571 
L 531.125406 231.495767 
L 531.55676 228.198891 
L 531.988115 222.514437 
L 532.419469 219.337212 
L 532.850823 201.345194 
L 533.282178 194.399086 
L 533.713532 196.435236 
L 534.144886 194.664507 
L 534.576241 201.085864 
L 535.007595 217.72148 
L 535.438949 229.155104 
L 535.870304 233.394096 
L 536.301658 243.04539 
L 536.733013 246.03657 
L 537.164367 244.730768 
L 537.595721 245.461365 
L 538.027076 242.835545 
L 538.45843 218.171881 
L 538.889784 219.108445 
L 539.321139 214.479462 
L 539.752493 217.246146 
L 540.183847 212.573082 
L 540.615202 239.03636 
L 541.046556 241.236809 
L 541.47791 249.205543 
L 541.909265 248.798985 
L 542.340619 254.913697 
L 542.771974 246.099182 
L 543.203328 242.436806 
L 543.634682 230.087493 
L 544.066037 223.986508 
L 544.497391 220.994694 
L 544.928745 226.701613 
L 545.3601 229.076211 
L 545.791454 239.013595 
L 546.654163 250.301506 
L 547.085517 248.609453 
L 547.516872 248.614558 
L 547.948226 246.8987 
L 548.37958 230.014097 
L 548.810935 218.869999 
L 549.242289 202.104619 
L 549.673643 207.745966 
L 550.104998 204.941919 
L 550.967706 214.786959 
L 551.399061 234.689532 
L 551.830415 223.163443 
L 552.261769 221.619885 
L 552.693124 221.541391 
L 553.124478 214.200243 
L 553.555833 195.215265 
L 553.987187 183.537786 
L 554.418541 184.21795 
L 554.849896 190.500674 
L 555.28125 200.211405 
L 556.143959 235.472562 
L 556.575313 243.359298 
L 557.006667 245.38696 
L 557.438022 248.698237 
L 557.869376 245.576722 
L 558.300731 245.770366 
L 558.732085 240.210051 
L 559.594794 206.526091 
L 560.026148 208.268854 
L 560.457502 202.760585 
L 560.888857 203.258463 
L 561.751565 229.199823 
L 562.18292 223.787983 
L 562.614274 224.60882 
L 563.476983 211.968195 
L 563.908337 210.703855 
L 564.339692 211.014602 
L 564.771046 211.009539 
L 565.2024 213.985625 
L 565.633755 220.151507 
L 566.065109 228.212919 
L 567.359172 246.381322 
L 567.790526 247.882004 
L 568.221881 247.417466 
L 568.653235 244.294186 
L 569.947298 207.951416 
L 570.378653 204.282818 
L 570.810007 195.434275 
L 571.241361 107.362766 
L 571.672716 107.371514 
L 572.10407 147.663014 
L 572.535424 156.750928 
L 572.966779 158.8707 
L 573.398133 235.026732 
L 573.829487 235.412056 
L 574.260842 219.213564 
L 574.692196 215.851838 
L 575.123551 215.179221 
L 575.554905 214.736686 
L 575.986259 216.407991 
L 576.417614 223.528551 
L 576.417614 223.528551 
" style="fill:none;stroke:#008000;stroke-dasharray:5.55,2.4;stroke-dashoffset:0;stroke-width:1.5;"/>
   </g>
   <g id="patch_3">
    <path d="M 43.78125 267.118125 
L 43.78125 22.318125 
" style="fill:none;stroke:#000000;stroke-linecap:square;stroke-linejoin:miter;stroke-width:0.8;"/>
   </g>
   <g id="patch_4">
    <path d="M 601.78125 267.118125 
L 601.78125 22.318125 
" style="fill:none;stroke:#000000;stroke-linecap:square;stroke-linejoin:miter;stroke-width:0.8;"/>
   </g>
   <g id="patch_5">
    <path d="M 43.78125 267.118125 
L 601.78125 267.118125 
" style="fill:none;stroke:#000000;stroke-linecap:square;stroke-linejoin:miter;stroke-width:0.8;"/>
   </g>
   <g id="patch_6">
    <path d="M 43.78125 22.318125 
L 601.78125 22.318125 
" style="fill:none;stroke:#000000;stroke-linecap:square;stroke-linejoin:miter;stroke-width:0.8;"/>
   </g>
   <g id="text_16">
    <!-- Previsão de Consumo Casa 26 -->
    <g transform="translate(232.013438 16.318125)scale(0.12 -0.12)">
     <defs>
      <path d="M 2.984375 54.6875 
L 12.5 54.6875 
L 29.59375 8.796875 
L 46.6875 54.6875 
L 56.203125 54.6875 
L 35.6875 0 
L 23.484375 0 
z
" id="DejaVuSans-118"/>
      <path d="M 44.28125 53.078125 
L 44.28125 44.578125 
Q 40.484375 46.53125 36.375 47.5 
Q 32.28125 48.484375 27.875 48.484375 
Q 21.1875 48.484375 17.84375 46.4375 
Q 14.5 44.390625 14.5 40.28125 
Q 14.5 37.15625 16.890625 35.375 
Q 19.28125 33.59375 26.515625 31.984375 
L 29.59375 31.296875 
Q 39.15625 29.25 43.1875 25.515625 
Q 47.21875 21.78125 47.21875 15.09375 
Q 47.21875 7.46875 41.1875 3.015625 
Q 35.15625 -1.421875 24.609375 -1.421875 
Q 20.21875 -1.421875 15.453125 -0.5625 
Q 10.6875 0.296875 5.421875 2 
L 5.421875 11.28125 
Q 10.40625 8.6875 15.234375 7.390625 
Q 20.0625 6.109375 24.8125 6.109375 
Q 31.15625 6.109375 34.5625 8.28125 
Q 37.984375 10.453125 37.984375 14.40625 
Q 37.984375 18.0625 35.515625 20.015625 
Q 33.0625 21.96875 24.703125 23.78125 
L 21.578125 24.515625 
Q 13.234375 26.265625 9.515625 29.90625 
Q 5.8125 33.546875 5.8125 39.890625 
Q 5.8125 47.609375 11.28125 51.796875 
Q 16.75 56 26.8125 56 
Q 31.78125 56 36.171875 55.265625 
Q 40.578125 54.546875 44.28125 53.078125 
z
" id="DejaVuSans-115"/>
      <path d="M 34.28125 27.484375 
Q 23.390625 27.484375 19.1875 25 
Q 14.984375 22.515625 14.984375 16.5 
Q 14.984375 11.71875 18.140625 8.90625 
Q 21.296875 6.109375 26.703125 6.109375 
Q 34.1875 6.109375 38.703125 11.40625 
Q 43.21875 16.703125 43.21875 25.484375 
L 43.21875 27.484375 
z
M 52.203125 31.203125 
L 52.203125 0 
L 43.21875 0 
L 43.21875 8.296875 
Q 40.140625 3.328125 35.546875 0.953125 
Q 30.953125 -1.421875 24.3125 -1.421875 
Q 15.921875 -1.421875 10.953125 3.296875 
Q 6 8.015625 6 15.921875 
Q 6 25.140625 12.171875 29.828125 
Q 18.359375 34.515625 30.609375 34.515625 
L 43.21875 34.515625 
L 43.21875 35.40625 
Q 43.21875 41.609375 39.140625 45 
Q 35.0625 48.390625 27.6875 48.390625 
Q 23 48.390625 18.546875 47.265625 
Q 14.109375 46.140625 10.015625 43.890625 
L 10.015625 52.203125 
Q 14.9375 54.109375 19.578125 55.046875 
Q 24.21875 56 28.609375 56 
Q 40.484375 56 46.34375 49.84375 
Q 52.203125 43.703125 52.203125 31.203125 
z
M 28.8125 66.890625 
L 26.03125 69.578125 
Q 24.953125 70.5625 24.140625 71.015625 
Q 23.34375 71.484375 22.703125 71.484375 
Q 20.84375 71.484375 19.96875 69.703125 
Q 19.09375 67.921875 19 63.921875 
L 12.890625 63.921875 
Q 12.984375 70.515625 15.46875 74.09375 
Q 17.96875 77.6875 22.40625 77.6875 
Q 24.265625 77.6875 25.828125 77 
Q 27.390625 76.3125 29.203125 74.703125 
L 31.984375 72.015625 
Q 33.0625 71.046875 33.859375 70.578125 
Q 34.671875 70.125 35.296875 70.125 
Q 37.15625 70.125 38.03125 71.90625 
Q 38.921875 73.6875 39.015625 77.6875 
L 45.125 77.6875 
Q 45.015625 71.09375 42.53125 67.5 
Q 40.046875 63.921875 35.59375 63.921875 
Q 33.734375 63.921875 32.171875 64.59375 
Q 30.609375 65.28125 28.8125 66.890625 
z
" id="DejaVuSans-227"/>
      <path d="M 64.40625 67.28125 
L 64.40625 56.890625 
Q 59.421875 61.53125 53.78125 63.8125 
Q 48.140625 66.109375 41.796875 66.109375 
Q 29.296875 66.109375 22.65625 58.46875 
Q 16.015625 50.828125 16.015625 36.375 
Q 16.015625 21.96875 22.65625 14.328125 
Q 29.296875 6.6875 41.796875 6.6875 
Q 48.140625 6.6875 53.78125 8.984375 
Q 59.421875 11.28125 64.40625 15.921875 
L 64.40625 5.609375 
Q 59.234375 2.09375 53.4375 0.328125 
Q 47.65625 -1.421875 41.21875 -1.421875 
Q 24.65625 -1.421875 15.125 8.703125 
Q 5.609375 18.84375 5.609375 36.375 
Q 5.609375 53.953125 15.125 64.078125 
Q 24.65625 74.21875 41.21875 74.21875 
Q 47.75 74.21875 53.53125 72.484375 
Q 59.328125 70.75 64.40625 67.28125 
z
" id="DejaVuSans-67"/>
      <path d="M 8.5 21.578125 
L 8.5 54.6875 
L 17.484375 54.6875 
L 17.484375 21.921875 
Q 17.484375 14.15625 20.5 10.265625 
Q 23.53125 6.390625 29.59375 6.390625 
Q 36.859375 6.390625 41.078125 11.03125 
Q 45.3125 15.671875 45.3125 23.6875 
L 45.3125 54.6875 
L 54.296875 54.6875 
L 54.296875 0 
L 45.3125 0 
L 45.3125 8.40625 
Q 42.046875 3.421875 37.71875 1 
Q 33.40625 -1.421875 27.6875 -1.421875 
Q 18.265625 -1.421875 13.375 4.4375 
Q 8.5 10.296875 8.5 21.578125 
z
M 31.109375 56 
z
" id="DejaVuSans-117"/>
      <path d="M 52 44.1875 
Q 55.375 50.25 60.0625 53.125 
Q 64.75 56 71.09375 56 
Q 79.640625 56 84.28125 50.015625 
Q 88.921875 44.046875 88.921875 33.015625 
L 88.921875 0 
L 79.890625 0 
L 79.890625 32.71875 
Q 79.890625 40.578125 77.09375 44.375 
Q 74.3125 48.1875 68.609375 48.1875 
Q 61.625 48.1875 57.5625 43.546875 
Q 53.515625 38.921875 53.515625 30.90625 
L 53.515625 0 
L 44.484375 0 
L 44.484375 32.71875 
Q 44.484375 40.625 41.703125 44.40625 
Q 38.921875 48.1875 33.109375 48.1875 
Q 26.21875 48.1875 22.15625 43.53125 
Q 18.109375 38.875 18.109375 30.90625 
L 18.109375 0 
L 9.078125 0 
L 9.078125 54.6875 
L 18.109375 54.6875 
L 18.109375 46.1875 
Q 21.1875 51.21875 25.484375 53.609375 
Q 29.78125 56 35.6875 56 
Q 41.65625 56 45.828125 52.96875 
Q 50 49.953125 52 44.1875 
z
" id="DejaVuSans-109"/>
     </defs>
     <use xlink:href="#DejaVuSans-80"/>
     <use x="58.552734" xlink:href="#DejaVuSans-114"/>
     <use x="97.416016" xlink:href="#DejaVuSans-101"/>
     <use x="158.939453" xlink:href="#DejaVuSans-118"/>
     <use x="218.119141" xlink:href="#DejaVuSans-105"/>
     <use x="245.902344" xlink:href="#DejaVuSans-115"/>
     <use x="298.001953" xlink:href="#DejaVuSans-227"/>
     <use x="359.28125" xlink:href="#DejaVuSans-111"/>
     <use x="420.462891" xlink:href="#DejaVuSans-32"/>
     <use x="452.25" xlink:href="#DejaVuSans-100"/>
     <use x="515.726562" xlink:href="#DejaVuSans-101"/>
     <use x="577.25" xlink:href="#DejaVuSans-32"/>
     <use x="609.037109" xlink:href="#DejaVuSans-67"/>
     <use x="678.861328" xlink:href="#DejaVuSans-111"/>
     <use x="740.042969" xlink:href="#DejaVuSans-110"/>
     <use x="803.421875" xlink:href="#DejaVuSans-115"/>
     <use x="855.521484" xlink:href="#DejaVuSans-117"/>
     <use x="918.900391" xlink:href="#DejaVuSans-109"/>
     <use x="1016.3125" xlink:href="#DejaVuSans-111"/>
     <use x="1077.494141" xlink:href="#DejaVuSans-32"/>
     <use x="1109.28125" xlink:href="#DejaVuSans-67"/>
     <use x="1179.105469" xlink:href="#DejaVuSans-97"/>
     <use x="1240.384766" xlink:href="#DejaVuSans-115"/>
     <use x="1292.484375" xlink:href="#DejaVuSans-97"/>
     <use x="1353.763672" xlink:href="#DejaVuSans-32"/>
     <use x="1385.550781" xlink:href="#DejaVuSans-50"/>
     <use x="1449.173828" xlink:href="#DejaVuSans-54"/>
    </g>
   </g>
   <g id="legend_1">
    <g id="patch_7">
     <path d="M 522.942188 59.674375 
L 594.78125 59.674375 
Q 596.78125 59.674375 596.78125 57.674375 
L 596.78125 29.318125 
Q 596.78125 27.318125 594.78125 27.318125 
L 522.942188 27.318125 
Q 520.942188 27.318125 520.942188 29.318125 
L 520.942188 57.674375 
Q 520.942188 59.674375 522.942188 59.674375 
z
" style="fill:#ffffff;opacity:0.8;stroke:#cccccc;stroke-linejoin:miter;"/>
    </g>
    <g id="line2d_17">
     <path d="M 524.942188 35.416562 
L 544.942188 35.416562 
" style="fill:none;stroke:#000000;stroke-linecap:square;stroke-width:1.5;"/>
    </g>
    <g id="line2d_18"/>
    <g id="text_17">
     <!-- Real -->
     <g transform="translate(552.942188 38.916562)scale(0.1 -0.1)">
      <defs>
       <path d="M 44.390625 34.1875 
Q 47.5625 33.109375 50.5625 29.59375 
Q 53.5625 26.078125 56.59375 19.921875 
L 66.609375 0 
L 56 0 
L 46.6875 18.703125 
Q 43.0625 26.03125 39.671875 28.421875 
Q 36.28125 30.8125 30.421875 30.8125 
L 19.671875 30.8125 
L 19.671875 0 
L 9.8125 0 
L 9.8125 72.90625 
L 32.078125 72.90625 
Q 44.578125 72.90625 50.734375 67.671875 
Q 56.890625 62.453125 56.890625 51.90625 
Q 56.890625 45.015625 53.6875 40.46875 
Q 50.484375 35.9375 44.390625 34.1875 
z
M 19.671875 64.796875 
L 19.671875 38.921875 
L 32.078125 38.921875 
Q 39.203125 38.921875 42.84375 42.21875 
Q 46.484375 45.515625 46.484375 51.90625 
Q 46.484375 58.296875 42.84375 61.546875 
Q 39.203125 64.796875 32.078125 64.796875 
z
" id="DejaVuSans-82"/>
       <path d="M 9.421875 75.984375 
L 18.40625 75.984375 
L 18.40625 0 
L 9.421875 0 
z
" id="DejaVuSans-108"/>
      </defs>
      <use xlink:href="#DejaVuSans-82"/>
      <use x="64.982422" xlink:href="#DejaVuSans-101"/>
      <use x="126.505859" xlink:href="#DejaVuSans-97"/>
      <use x="187.785156" xlink:href="#DejaVuSans-108"/>
     </g>
    </g>
    <g id="line2d_19">
     <path d="M 524.942188 50.094688 
L 544.942188 50.094688 
" style="fill:none;stroke:#008000;stroke-dasharray:5.55,2.4;stroke-dashoffset:0;stroke-width:1.5;"/>
    </g>
    <g id="line2d_20"/>
    <g id="text_18">
     <!-- Previsto -->
     <g transform="translate(552.942188 53.594688)scale(0.1 -0.1)">
      <defs>
       <path d="M 18.3125 70.21875 
L 18.3125 54.6875 
L 36.8125 54.6875 
L 36.8125 47.703125 
L 18.3125 47.703125 
L 18.3125 18.015625 
Q 18.3125 11.328125 20.140625 9.421875 
Q 21.96875 7.515625 27.59375 7.515625 
L 36.8125 7.515625 
L 36.8125 0 
L 27.59375 0 
Q 17.1875 0 13.234375 3.875 
Q 9.28125 7.765625 9.28125 18.015625 
L 9.28125 47.703125 
L 2.6875 47.703125 
L 2.6875 54.6875 
L 9.28125 54.6875 
L 9.28125 70.21875 
z
" id="DejaVuSans-116"/>
      </defs>
      <use xlink:href="#DejaVuSans-80"/>
      <use x="58.552734" xlink:href="#DejaVuSans-114"/>
      <use x="97.416016" xlink:href="#DejaVuSans-101"/>
      <use x="158.939453" xlink:href="#DejaVuSans-118"/>
      <use x="218.119141" xlink:href="#DejaVuSans-105"/>
      <use x="245.902344" xlink:href="#DejaVuSans-115"/>
      <use x="298.001953" xlink:href="#DejaVuSans-116"/>
      <use x="337.210938" xlink:href="#DejaVuSans-111"/>
     </g>
    </g>
   </g>
  </g>
 </g>
 <defs>
  <clipPath id="p420bb43e76">
   <rect height="244.8" width="558" x="43.78125" y="22.318125"/>
  </clipPath>
 </defs>
</svg>
