<?xml version="1.0" encoding="utf-8" standalone="no"?>
<!DOCTYPE svg PUBLIC "-//W3C//DTD SVG 1.1//EN"
  "http://www.w3.org/Graphics/SVG/1.1/DTD/svg11.dtd">
<!-- Created with matplotlib (https://matplotlib.org/) -->
<svg height="288pt" version="1.1" viewBox="0 0 432 288" width="432pt" xmlns="http://www.w3.org/2000/svg" xmlns:xlink="http://www.w3.org/1999/xlink">
 <metadata>
  <rdf:RDF xmlns:cc="http://creativecommons.org/ns#" xmlns:dc="http://purl.org/dc/elements/1.1/" xmlns:rdf="http://www.w3.org/1999/02/22-rdf-syntax-ns#">
   <cc:Work>
    <dc:type rdf:resource="http://purl.org/dc/dcmitype/StillImage"/>
    <dc:date>2021-07-21T14:57:46.942092</dc:date>
    <dc:format>image/svg+xml</dc:format>
    <dc:creator>
     <cc:Agent>
      <dc:title>Matplotlib v3.3.4, https://matplotlib.org/</dc:title>
     </cc:Agent>
    </dc:creator>
   </cc:Work>
  </rdf:RDF>
 </metadata>
 <defs>
  <style type="text/css">*{stroke-linecap:butt;stroke-linejoin:round;}</style>
 </defs>
 <g id="figure_1">
  <g id="patch_1">
   <path d="M 0 288 
L 432 288 
L 432 0 
L 0 0 
z
" style="fill:#ffffff;"/>
  </g>
  <g id="axes_1">
   <g id="patch_2">
    <path d="M 54 252 
L 388.8 252 
L 388.8 34.56 
L 54 34.56 
z
" style="fill:#ffffff;"/>
   </g>
   <g id="matplotlib.axis_1">
    <g id="xtick_1">
     <g id="line2d_1">
      <defs>
       <path d="M 0 0 
L 0 3.5 
" id="m4e944abcce" style="stroke:#000000;stroke-width:0.8;"/>
      </defs>
      <g>
       <use style="stroke:#000000;stroke-width:0.8;" x="55.042341" xlink:href="#m4e944abcce" y="252"/>
      </g>
     </g>
     <g id="text_1">
      <!-- 2015-01 -->
      <g transform="translate(42.221059 293.917817)rotate(-45)scale(0.1 -0.1)">
       <defs>
        <path d="M 19.1875 8.296875 
L 53.609375 8.296875 
L 53.609375 0 
L 7.328125 0 
L 7.328125 8.296875 
Q 12.9375 14.109375 22.625 23.890625 
Q 32.328125 33.6875 34.8125 36.53125 
Q 39.546875 41.84375 41.421875 45.53125 
Q 43.3125 49.21875 43.3125 52.78125 
Q 43.3125 58.59375 39.234375 62.25 
Q 35.15625 65.921875 28.609375 65.921875 
Q 23.96875 65.921875 18.8125 64.3125 
Q 13.671875 62.703125 7.8125 59.421875 
L 7.8125 69.390625 
Q 13.765625 71.78125 18.9375 73 
Q 24.125 74.21875 28.421875 74.21875 
Q 39.75 74.21875 46.484375 68.546875 
Q 53.21875 62.890625 53.21875 53.421875 
Q 53.21875 48.921875 51.53125 44.890625 
Q 49.859375 40.875 45.40625 35.40625 
Q 44.1875 33.984375 37.640625 27.21875 
Q 31.109375 20.453125 19.1875 8.296875 
z
" id="DejaVuSans-50"/>
        <path d="M 31.78125 66.40625 
Q 24.171875 66.40625 20.328125 58.90625 
Q 16.5 51.421875 16.5 36.375 
Q 16.5 21.390625 20.328125 13.890625 
Q 24.171875 6.390625 31.78125 6.390625 
Q 39.453125 6.390625 43.28125 13.890625 
Q 47.125 21.390625 47.125 36.375 
Q 47.125 51.421875 43.28125 58.90625 
Q 39.453125 66.40625 31.78125 66.40625 
z
M 31.78125 74.21875 
Q 44.046875 74.21875 50.515625 64.515625 
Q 56.984375 54.828125 56.984375 36.375 
Q 56.984375 17.96875 50.515625 8.265625 
Q 44.046875 -1.421875 31.78125 -1.421875 
Q 19.53125 -1.421875 13.0625 8.265625 
Q 6.59375 17.96875 6.59375 36.375 
Q 6.59375 54.828125 13.0625 64.515625 
Q 19.53125 74.21875 31.78125 74.21875 
z
" id="DejaVuSans-48"/>
        <path d="M 12.40625 8.296875 
L 28.515625 8.296875 
L 28.515625 63.921875 
L 10.984375 60.40625 
L 10.984375 69.390625 
L 28.421875 72.90625 
L 38.28125 72.90625 
L 38.28125 8.296875 
L 54.390625 8.296875 
L 54.390625 0 
L 12.40625 0 
z
" id="DejaVuSans-49"/>
        <path d="M 10.796875 72.90625 
L 49.515625 72.90625 
L 49.515625 64.59375 
L 19.828125 64.59375 
L 19.828125 46.734375 
Q 21.96875 47.46875 24.109375 47.828125 
Q 26.265625 48.1875 28.421875 48.1875 
Q 40.625 48.1875 47.75 41.5 
Q 54.890625 34.8125 54.890625 23.390625 
Q 54.890625 11.625 47.5625 5.09375 
Q 40.234375 -1.421875 26.90625 -1.421875 
Q 22.3125 -1.421875 17.546875 -0.640625 
Q 12.796875 0.140625 7.71875 1.703125 
L 7.71875 11.625 
Q 12.109375 9.234375 16.796875 8.0625 
Q 21.484375 6.890625 26.703125 6.890625 
Q 35.15625 6.890625 40.078125 11.328125 
Q 45.015625 15.765625 45.015625 23.390625 
Q 45.015625 31 40.078125 35.4375 
Q 35.15625 39.890625 26.703125 39.890625 
Q 22.75 39.890625 18.8125 39.015625 
Q 14.890625 38.140625 10.796875 36.28125 
z
" id="DejaVuSans-53"/>
        <path d="M 4.890625 31.390625 
L 31.203125 31.390625 
L 31.203125 23.390625 
L 4.890625 23.390625 
z
" id="DejaVuSans-45"/>
       </defs>
       <use xlink:href="#DejaVuSans-50"/>
       <use x="63.623047" xlink:href="#DejaVuSans-48"/>
       <use x="127.246094" xlink:href="#DejaVuSans-49"/>
       <use x="190.869141" xlink:href="#DejaVuSans-53"/>
       <use x="254.492188" xlink:href="#DejaVuSans-45"/>
       <use x="290.576172" xlink:href="#DejaVuSans-48"/>
       <use x="354.199219" xlink:href="#DejaVuSans-49"/>
      </g>
     </g>
    </g>
    <g id="xtick_2">
     <g id="line2d_2">
      <g>
       <use style="stroke:#000000;stroke-width:0.8;" x="88.39726" xlink:href="#m4e944abcce" y="252"/>
      </g>
     </g>
     <g id="text_2">
      <!-- 2015-05 -->
      <g transform="translate(75.575978 293.917817)rotate(-45)scale(0.1 -0.1)">
       <use xlink:href="#DejaVuSans-50"/>
       <use x="63.623047" xlink:href="#DejaVuSans-48"/>
       <use x="127.246094" xlink:href="#DejaVuSans-49"/>
       <use x="190.869141" xlink:href="#DejaVuSans-53"/>
       <use x="254.492188" xlink:href="#DejaVuSans-45"/>
       <use x="290.576172" xlink:href="#DejaVuSans-48"/>
       <use x="354.199219" xlink:href="#DejaVuSans-53"/>
      </g>
     </g>
    </g>
    <g id="xtick_3">
     <g id="line2d_3">
      <g>
       <use style="stroke:#000000;stroke-width:0.8;" x="122.586052" xlink:href="#m4e944abcce" y="252"/>
      </g>
     </g>
     <g id="text_3">
      <!-- 2015-09 -->
      <g transform="translate(109.76477 293.917817)rotate(-45)scale(0.1 -0.1)">
       <defs>
        <path d="M 10.984375 1.515625 
L 10.984375 10.5 
Q 14.703125 8.734375 18.5 7.8125 
Q 22.3125 6.890625 25.984375 6.890625 
Q 35.75 6.890625 40.890625 13.453125 
Q 46.046875 20.015625 46.78125 33.40625 
Q 43.953125 29.203125 39.59375 26.953125 
Q 35.25 24.703125 29.984375 24.703125 
Q 19.046875 24.703125 12.671875 31.3125 
Q 6.296875 37.9375 6.296875 49.421875 
Q 6.296875 60.640625 12.9375 67.421875 
Q 19.578125 74.21875 30.609375 74.21875 
Q 43.265625 74.21875 49.921875 64.515625 
Q 56.59375 54.828125 56.59375 36.375 
Q 56.59375 19.140625 48.40625 8.859375 
Q 40.234375 -1.421875 26.421875 -1.421875 
Q 22.703125 -1.421875 18.890625 -0.6875 
Q 15.09375 0.046875 10.984375 1.515625 
z
M 30.609375 32.421875 
Q 37.25 32.421875 41.125 36.953125 
Q 45.015625 41.5 45.015625 49.421875 
Q 45.015625 57.28125 41.125 61.84375 
Q 37.25 66.40625 30.609375 66.40625 
Q 23.96875 66.40625 20.09375 61.84375 
Q 16.21875 57.28125 16.21875 49.421875 
Q 16.21875 41.5 20.09375 36.953125 
Q 23.96875 32.421875 30.609375 32.421875 
z
" id="DejaVuSans-57"/>
       </defs>
       <use xlink:href="#DejaVuSans-50"/>
       <use x="63.623047" xlink:href="#DejaVuSans-48"/>
       <use x="127.246094" xlink:href="#DejaVuSans-49"/>
       <use x="190.869141" xlink:href="#DejaVuSans-53"/>
       <use x="254.492188" xlink:href="#DejaVuSans-45"/>
       <use x="290.576172" xlink:href="#DejaVuSans-48"/>
       <use x="354.199219" xlink:href="#DejaVuSans-57"/>
      </g>
     </g>
    </g>
    <g id="xtick_4">
     <g id="line2d_4">
      <g>
       <use style="stroke:#000000;stroke-width:0.8;" x="156.496887" xlink:href="#m4e944abcce" y="252"/>
      </g>
     </g>
     <g id="text_4">
      <!-- 2016-01 -->
      <g transform="translate(143.675604 293.917817)rotate(-45)scale(0.1 -0.1)">
       <defs>
        <path d="M 33.015625 40.375 
Q 26.375 40.375 22.484375 35.828125 
Q 18.609375 31.296875 18.609375 23.390625 
Q 18.609375 15.53125 22.484375 10.953125 
Q 26.375 6.390625 33.015625 6.390625 
Q 39.65625 6.390625 43.53125 10.953125 
Q 47.40625 15.53125 47.40625 23.390625 
Q 47.40625 31.296875 43.53125 35.828125 
Q 39.65625 40.375 33.015625 40.375 
z
M 52.59375 71.296875 
L 52.59375 62.3125 
Q 48.875 64.0625 45.09375 64.984375 
Q 41.3125 65.921875 37.59375 65.921875 
Q 27.828125 65.921875 22.671875 59.328125 
Q 17.53125 52.734375 16.796875 39.40625 
Q 19.671875 43.65625 24.015625 45.921875 
Q 28.375 48.1875 33.59375 48.1875 
Q 44.578125 48.1875 50.953125 41.515625 
Q 57.328125 34.859375 57.328125 23.390625 
Q 57.328125 12.15625 50.6875 5.359375 
Q 44.046875 -1.421875 33.015625 -1.421875 
Q 20.359375 -1.421875 13.671875 8.265625 
Q 6.984375 17.96875 6.984375 36.375 
Q 6.984375 53.65625 15.1875 63.9375 
Q 23.390625 74.21875 37.203125 74.21875 
Q 40.921875 74.21875 44.703125 73.484375 
Q 48.484375 72.75 52.59375 71.296875 
z
" id="DejaVuSans-54"/>
       </defs>
       <use xlink:href="#DejaVuSans-50"/>
       <use x="63.623047" xlink:href="#DejaVuSans-48"/>
       <use x="127.246094" xlink:href="#DejaVuSans-49"/>
       <use x="190.869141" xlink:href="#DejaVuSans-54"/>
       <use x="254.492188" xlink:href="#DejaVuSans-45"/>
       <use x="290.576172" xlink:href="#DejaVuSans-48"/>
       <use x="354.199219" xlink:href="#DejaVuSans-49"/>
      </g>
     </g>
    </g>
    <g id="xtick_5">
     <g id="line2d_5">
      <g>
       <use style="stroke:#000000;stroke-width:0.8;" x="190.129763" xlink:href="#m4e944abcce" y="252"/>
      </g>
     </g>
     <g id="text_5">
      <!-- 2016-05 -->
      <g transform="translate(177.308481 293.917817)rotate(-45)scale(0.1 -0.1)">
       <use xlink:href="#DejaVuSans-50"/>
       <use x="63.623047" xlink:href="#DejaVuSans-48"/>
       <use x="127.246094" xlink:href="#DejaVuSans-49"/>
       <use x="190.869141" xlink:href="#DejaVuSans-54"/>
       <use x="254.492188" xlink:href="#DejaVuSans-45"/>
       <use x="290.576172" xlink:href="#DejaVuSans-48"/>
       <use x="354.199219" xlink:href="#DejaVuSans-53"/>
      </g>
     </g>
    </g>
    <g id="xtick_6">
     <g id="line2d_6">
      <g>
       <use style="stroke:#000000;stroke-width:0.8;" x="224.318555" xlink:href="#m4e944abcce" y="252"/>
      </g>
     </g>
     <g id="text_6">
      <!-- 2016-09 -->
      <g transform="translate(211.497273 293.917817)rotate(-45)scale(0.1 -0.1)">
       <use xlink:href="#DejaVuSans-50"/>
       <use x="63.623047" xlink:href="#DejaVuSans-48"/>
       <use x="127.246094" xlink:href="#DejaVuSans-49"/>
       <use x="190.869141" xlink:href="#DejaVuSans-54"/>
       <use x="254.492188" xlink:href="#DejaVuSans-45"/>
       <use x="290.576172" xlink:href="#DejaVuSans-48"/>
       <use x="354.199219" xlink:href="#DejaVuSans-57"/>
      </g>
     </g>
    </g>
    <g id="xtick_7">
     <g id="line2d_7">
      <g>
       <use style="stroke:#000000;stroke-width:0.8;" x="258.22939" xlink:href="#m4e944abcce" y="252"/>
      </g>
     </g>
     <g id="text_7">
      <!-- 2017-01 -->
      <g transform="translate(245.408108 293.917817)rotate(-45)scale(0.1 -0.1)">
       <defs>
        <path d="M 8.203125 72.90625 
L 55.078125 72.90625 
L 55.078125 68.703125 
L 28.609375 0 
L 18.3125 0 
L 43.21875 64.59375 
L 8.203125 64.59375 
z
" id="DejaVuSans-55"/>
       </defs>
       <use xlink:href="#DejaVuSans-50"/>
       <use x="63.623047" xlink:href="#DejaVuSans-48"/>
       <use x="127.246094" xlink:href="#DejaVuSans-49"/>
       <use x="190.869141" xlink:href="#DejaVuSans-55"/>
       <use x="254.492188" xlink:href="#DejaVuSans-45"/>
       <use x="290.576172" xlink:href="#DejaVuSans-48"/>
       <use x="354.199219" xlink:href="#DejaVuSans-49"/>
      </g>
     </g>
    </g>
    <g id="xtick_8">
     <g id="line2d_8">
      <g>
       <use style="stroke:#000000;stroke-width:0.8;" x="291.584309" xlink:href="#m4e944abcce" y="252"/>
      </g>
     </g>
     <g id="text_8">
      <!-- 2017-05 -->
      <g transform="translate(278.763027 293.917817)rotate(-45)scale(0.1 -0.1)">
       <use xlink:href="#DejaVuSans-50"/>
       <use x="63.623047" xlink:href="#DejaVuSans-48"/>
       <use x="127.246094" xlink:href="#DejaVuSans-49"/>
       <use x="190.869141" xlink:href="#DejaVuSans-55"/>
       <use x="254.492188" xlink:href="#DejaVuSans-45"/>
       <use x="290.576172" xlink:href="#DejaVuSans-48"/>
       <use x="354.199219" xlink:href="#DejaVuSans-53"/>
      </g>
     </g>
    </g>
    <g id="xtick_9">
     <g id="line2d_9">
      <g>
       <use style="stroke:#000000;stroke-width:0.8;" x="325.773101" xlink:href="#m4e944abcce" y="252"/>
      </g>
     </g>
     <g id="text_9">
      <!-- 2017-09 -->
      <g transform="translate(312.951819 293.917817)rotate(-45)scale(0.1 -0.1)">
       <use xlink:href="#DejaVuSans-50"/>
       <use x="63.623047" xlink:href="#DejaVuSans-48"/>
       <use x="127.246094" xlink:href="#DejaVuSans-49"/>
       <use x="190.869141" xlink:href="#DejaVuSans-55"/>
       <use x="254.492188" xlink:href="#DejaVuSans-45"/>
       <use x="290.576172" xlink:href="#DejaVuSans-48"/>
       <use x="354.199219" xlink:href="#DejaVuSans-57"/>
      </g>
     </g>
    </g>
    <g id="xtick_10">
     <g id="line2d_10">
      <g>
       <use style="stroke:#000000;stroke-width:0.8;" x="359.683935" xlink:href="#m4e944abcce" y="252"/>
      </g>
     </g>
     <g id="text_10">
      <!-- 2018-01 -->
      <g transform="translate(346.862653 293.917817)rotate(-45)scale(0.1 -0.1)">
       <defs>
        <path d="M 31.78125 34.625 
Q 24.75 34.625 20.71875 30.859375 
Q 16.703125 27.09375 16.703125 20.515625 
Q 16.703125 13.921875 20.71875 10.15625 
Q 24.75 6.390625 31.78125 6.390625 
Q 38.8125 6.390625 42.859375 10.171875 
Q 46.921875 13.96875 46.921875 20.515625 
Q 46.921875 27.09375 42.890625 30.859375 
Q 38.875 34.625 31.78125 34.625 
z
M 21.921875 38.8125 
Q 15.578125 40.375 12.03125 44.71875 
Q 8.5 49.078125 8.5 55.328125 
Q 8.5 64.0625 14.71875 69.140625 
Q 20.953125 74.21875 31.78125 74.21875 
Q 42.671875 74.21875 48.875 69.140625 
Q 55.078125 64.0625 55.078125 55.328125 
Q 55.078125 49.078125 51.53125 44.71875 
Q 48 40.375 41.703125 38.8125 
Q 48.828125 37.15625 52.796875 32.3125 
Q 56.78125 27.484375 56.78125 20.515625 
Q 56.78125 9.90625 50.3125 4.234375 
Q 43.84375 -1.421875 31.78125 -1.421875 
Q 19.734375 -1.421875 13.25 4.234375 
Q 6.78125 9.90625 6.78125 20.515625 
Q 6.78125 27.484375 10.78125 32.3125 
Q 14.796875 37.15625 21.921875 38.8125 
z
M 18.3125 54.390625 
Q 18.3125 48.734375 21.84375 45.5625 
Q 25.390625 42.390625 31.78125 42.390625 
Q 38.140625 42.390625 41.71875 45.5625 
Q 45.3125 48.734375 45.3125 54.390625 
Q 45.3125 60.0625 41.71875 63.234375 
Q 38.140625 66.40625 31.78125 66.40625 
Q 25.390625 66.40625 21.84375 63.234375 
Q 18.3125 60.0625 18.3125 54.390625 
z
" id="DejaVuSans-56"/>
       </defs>
       <use xlink:href="#DejaVuSans-50"/>
       <use x="63.623047" xlink:href="#DejaVuSans-48"/>
       <use x="127.246094" xlink:href="#DejaVuSans-49"/>
       <use x="190.869141" xlink:href="#DejaVuSans-56"/>
       <use x="254.492188" xlink:href="#DejaVuSans-45"/>
       <use x="290.576172" xlink:href="#DejaVuSans-48"/>
       <use x="354.199219" xlink:href="#DejaVuSans-49"/>
      </g>
     </g>
    </g>
   </g>
   <g id="matplotlib.axis_2">
    <g id="ytick_1">
     <g id="line2d_11">
      <defs>
       <path d="M 0 0 
L -3.5 0 
" id="m1ab2b24b23" style="stroke:#000000;stroke-width:0.8;"/>
      </defs>
      <g>
       <use style="stroke:#000000;stroke-width:0.8;" x="54" xlink:href="#m1ab2b24b23" y="242.116364"/>
      </g>
     </g>
     <g id="text_11">
      <!-- 0 -->
      <g transform="translate(40.6375 245.915582)scale(0.1 -0.1)">
       <use xlink:href="#DejaVuSans-48"/>
      </g>
     </g>
    </g>
    <g id="ytick_2">
     <g id="line2d_12">
      <g>
       <use style="stroke:#000000;stroke-width:0.8;" x="54" xlink:href="#m1ab2b24b23" y="217.891765"/>
      </g>
     </g>
     <g id="text_12">
      <!-- 5 -->
      <g transform="translate(40.6375 221.690983)scale(0.1 -0.1)">
       <use xlink:href="#DejaVuSans-53"/>
      </g>
     </g>
    </g>
    <g id="ytick_3">
     <g id="line2d_13">
      <g>
       <use style="stroke:#000000;stroke-width:0.8;" x="54" xlink:href="#m1ab2b24b23" y="193.667166"/>
      </g>
     </g>
     <g id="text_13">
      <!-- 10 -->
      <g transform="translate(34.275 197.466385)scale(0.1 -0.1)">
       <use xlink:href="#DejaVuSans-49"/>
       <use x="63.623047" xlink:href="#DejaVuSans-48"/>
      </g>
     </g>
    </g>
    <g id="ytick_4">
     <g id="line2d_14">
      <g>
       <use style="stroke:#000000;stroke-width:0.8;" x="54" xlink:href="#m1ab2b24b23" y="169.442567"/>
      </g>
     </g>
     <g id="text_14">
      <!-- 15 -->
      <g transform="translate(34.275 173.241786)scale(0.1 -0.1)">
       <use xlink:href="#DejaVuSans-49"/>
       <use x="63.623047" xlink:href="#DejaVuSans-53"/>
      </g>
     </g>
    </g>
    <g id="ytick_5">
     <g id="line2d_15">
      <g>
       <use style="stroke:#000000;stroke-width:0.8;" x="54" xlink:href="#m1ab2b24b23" y="145.217968"/>
      </g>
     </g>
     <g id="text_15">
      <!-- 20 -->
      <g transform="translate(34.275 149.017187)scale(0.1 -0.1)">
       <use xlink:href="#DejaVuSans-50"/>
       <use x="63.623047" xlink:href="#DejaVuSans-48"/>
      </g>
     </g>
    </g>
    <g id="ytick_6">
     <g id="line2d_16">
      <g>
       <use style="stroke:#000000;stroke-width:0.8;" x="54" xlink:href="#m1ab2b24b23" y="120.993369"/>
      </g>
     </g>
     <g id="text_16">
      <!-- 25 -->
      <g transform="translate(34.275 124.792588)scale(0.1 -0.1)">
       <use xlink:href="#DejaVuSans-50"/>
       <use x="63.623047" xlink:href="#DejaVuSans-53"/>
      </g>
     </g>
    </g>
    <g id="ytick_7">
     <g id="line2d_17">
      <g>
       <use style="stroke:#000000;stroke-width:0.8;" x="54" xlink:href="#m1ab2b24b23" y="96.76877"/>
      </g>
     </g>
     <g id="text_17">
      <!-- 30 -->
      <g transform="translate(34.275 100.567989)scale(0.1 -0.1)">
       <defs>
        <path d="M 40.578125 39.3125 
Q 47.65625 37.796875 51.625 33 
Q 55.609375 28.21875 55.609375 21.1875 
Q 55.609375 10.40625 48.1875 4.484375 
Q 40.765625 -1.421875 27.09375 -1.421875 
Q 22.515625 -1.421875 17.65625 -0.515625 
Q 12.796875 0.390625 7.625 2.203125 
L 7.625 11.71875 
Q 11.71875 9.328125 16.59375 8.109375 
Q 21.484375 6.890625 26.8125 6.890625 
Q 36.078125 6.890625 40.9375 10.546875 
Q 45.796875 14.203125 45.796875 21.1875 
Q 45.796875 27.640625 41.28125 31.265625 
Q 36.765625 34.90625 28.71875 34.90625 
L 20.21875 34.90625 
L 20.21875 43.015625 
L 29.109375 43.015625 
Q 36.375 43.015625 40.234375 45.921875 
Q 44.09375 48.828125 44.09375 54.296875 
Q 44.09375 59.90625 40.109375 62.90625 
Q 36.140625 65.921875 28.71875 65.921875 
Q 24.65625 65.921875 20.015625 65.03125 
Q 15.375 64.15625 9.8125 62.3125 
L 9.8125 71.09375 
Q 15.4375 72.65625 20.34375 73.4375 
Q 25.25 74.21875 29.59375 74.21875 
Q 40.828125 74.21875 47.359375 69.109375 
Q 53.90625 64.015625 53.90625 55.328125 
Q 53.90625 49.265625 50.4375 45.09375 
Q 46.96875 40.921875 40.578125 39.3125 
z
" id="DejaVuSans-51"/>
       </defs>
       <use xlink:href="#DejaVuSans-51"/>
       <use x="63.623047" xlink:href="#DejaVuSans-48"/>
      </g>
     </g>
    </g>
    <g id="ytick_8">
     <g id="line2d_18">
      <g>
       <use style="stroke:#000000;stroke-width:0.8;" x="54" xlink:href="#m1ab2b24b23" y="72.544171"/>
      </g>
     </g>
     <g id="text_18">
      <!-- 35 -->
      <g transform="translate(34.275 76.34339)scale(0.1 -0.1)">
       <use xlink:href="#DejaVuSans-51"/>
       <use x="63.623047" xlink:href="#DejaVuSans-53"/>
      </g>
     </g>
    </g>
    <g id="ytick_9">
     <g id="line2d_19">
      <g>
       <use style="stroke:#000000;stroke-width:0.8;" x="54" xlink:href="#m1ab2b24b23" y="48.319572"/>
      </g>
     </g>
     <g id="text_19">
      <!-- 40 -->
      <g transform="translate(34.275 52.118791)scale(0.1 -0.1)">
       <defs>
        <path d="M 37.796875 64.3125 
L 12.890625 25.390625 
L 37.796875 25.390625 
z
M 35.203125 72.90625 
L 47.609375 72.90625 
L 47.609375 25.390625 
L 58.015625 25.390625 
L 58.015625 17.1875 
L 47.609375 17.1875 
L 47.609375 0 
L 37.796875 0 
L 37.796875 17.1875 
L 4.890625 17.1875 
L 4.890625 26.703125 
z
" id="DejaVuSans-52"/>
       </defs>
       <use xlink:href="#DejaVuSans-52"/>
       <use x="63.623047" xlink:href="#DejaVuSans-48"/>
      </g>
     </g>
    </g>
   </g>
   <g id="line2d_20">
    <path clip-path="url(#pda13a9444c)" d="M 69.218182 141.971872 
L 69.496139 145.07262 
L 70.052055 132.136684 
L 70.330012 151.322567 
L 70.60797 145.411765 
L 70.885928 169.975508 
L 71.163885 169.394118 
L 71.441843 127.340214 
L 71.719801 137.999037 
L 71.997758 168.134439 
L 72.275716 166.680963 
L 72.553674 147.204385 
L 72.831631 164.064706 
L 73.109589 133.880856 
L 73.665504 166.584064 
L 73.943462 156.748877 
L 74.22142 167.504599 
L 74.499377 157.039572 
L 74.777335 153.163636 
L 75.055293 156.022139 
L 75.33325 134.80139 
L 75.611208 147.107487 
L 75.889166 168.66738 
L 76.167123 161.496898 
L 76.445081 102.534225 
L 76.723039 196.574118 
L 77.000996 207.039144 
L 77.278954 194.926845 
L 77.834869 136.06107 
L 78.112827 168.279786 
L 78.390785 158.686845 
L 78.668742 179.132406 
L 78.9467 151.080321 
L 79.224658 158.202353 
L 79.502615 160.237219 
L 79.780573 165.760428 
L 80.058531 176.903743 
L 80.336488 143.473797 
L 80.614446 175.256471 
L 80.892403 137.030053 
L 81.170361 147.543529 
L 81.448319 120.508877 
L 81.726276 177.630481 
L 82.004234 172.446417 
L 82.282192 170.653797 
L 82.560149 184.655615 
L 83.116065 154.374866 
L 83.394022 160.576364 
L 83.67198 158.541497 
L 83.949938 172.25262 
L 84.227895 169.442567 
L 84.505853 169.151872 
L 84.783811 169.87861 
L 85.061768 173.948342 
L 85.339726 158.105455 
L 85.617684 166.680963 
L 85.895641 170.556898 
L 86.173599 162.659679 
L 86.451557 176.952193 
L 86.729514 171.332086 
L 87.007472 151.807059 
L 87.28543 163.677112 
L 87.563387 168.473583 
L 87.841345 177.872727 
L 88.119303 171.283636 
L 88.39726 193.134225 
L 88.953176 157.620963 
L 89.509091 168.231337 
L 89.787049 189.403636 
L 90.065006 187.659465 
L 90.620922 151.031872 
L 90.898879 181.118824 
L 91.176837 187.901711 
L 91.454795 166.487166 
L 91.732752 158.493048 
L 92.01071 158.250802 
L 92.288667 188.822246 
L 92.566625 199.093476 
L 92.844583 193.521818 
L 93.12254 129.617326 
L 93.400498 165.61508 
L 93.678456 170.314652 
L 93.956413 153.357433 
L 94.234371 196.404545 
L 94.512329 169.83016 
L 94.790286 168.812727 
L 95.068244 169.006524 
L 95.346202 165.857326 
L 95.624159 180.295187 
L 95.902117 182.862995 
L 96.180075 183.686631 
L 96.458032 168.522032 
L 96.73599 144.781925 
L 97.291905 186.835829 
L 97.847821 150.014439 
L 98.125778 188.773797 
L 98.403736 186.399786 
L 98.681694 141.390481 
L 98.959651 173.512299 
L 99.237609 169.151872 
L 99.515567 175.644064 
L 99.793524 167.213904 
L 100.071482 195.265989 
L 100.905355 146.622995 
L 101.183313 184.655615 
L 101.46127 191.196257 
L 101.739228 179.810695 
L 102.017186 192.262139 
L 102.295143 172.543316 
L 102.573101 163.19262 
L 102.851059 185.769947 
L 103.129016 166.148021 
L 103.406974 171.67123 
L 103.684932 181.748663 
L 103.962889 159.704278 
L 104.240847 165.663529 
L 104.518804 179.035508 
L 104.796762 186.302888 
L 105.352677 150.692727 
L 105.630635 182.136257 
L 105.908593 189.597433 
L 106.18655 174.820428 
L 106.464508 147.543529 
L 106.742466 192.359037 
L 107.298381 171.08984 
L 107.576339 171.04139 
L 107.854296 188.095508 
L 108.132254 165.711979 
L 108.410212 180.488984 
L 108.688169 186.302888 
L 108.966127 161.98139 
L 109.244085 176.225455 
L 109.522042 167.795294 
L 109.8 188.628449 
L 110.077958 172.397968 
L 110.355915 176.758396 
L 110.633873 167.989091 
L 110.911831 191.293155 
L 111.189788 186.78738 
L 111.467746 171.04139 
L 111.745704 183.250588 
L 112.023661 143.958289 
L 112.301619 185.237005 
L 112.579577 174.384385 
L 112.857534 173.027807 
L 113.135492 185.769947 
L 113.41345 168.909626 
L 113.691407 184.849412 
L 113.969365 133.493262 
L 114.247323 180.73123 
L 114.52528 185.915294 
L 114.803238 182.862995 
L 115.081196 189.16139 
L 115.359153 172.397968 
L 115.637111 197.203957 
L 115.915068 175.934759 
L 116.193026 169.394118 
L 116.470984 183.395936 
L 116.748941 162.805027 
L 117.026899 184.800963 
L 117.304857 181.36107 
L 117.582814 175.934759 
L 117.860772 177.533583 
L 118.13873 171.138289 
L 118.416687 180.392086 
L 118.694645 152.388449 
L 118.972603 206.11861 
L 119.25056 213.434439 
L 119.528518 211.108877 
L 120.084433 211.980963 
L 120.362391 211.593369 
L 120.640349 212.75615 
L 120.918306 211.738717 
L 121.196264 212.368556 
L 121.474222 211.351123 
L 121.752179 212.562353 
L 122.030137 212.271658 
L 122.308095 212.75615 
L 122.586052 213.579786 
L 122.86401 212.610802 
L 123.141968 212.368556 
L 123.697883 214.015829 
L 124.253798 137.369198 
L 124.531756 181.700214 
L 124.809714 194.684599 
L 125.365629 170.605348 
L 125.643587 150.256684 
L 125.921544 166.002674 
L 126.199502 172.785561 
L 126.47746 164.839893 
L 126.755417 183.299037 
L 127.033375 171.719679 
L 127.311333 197.300856 
L 127.867248 157.524064 
L 128.145205 184.558717 
L 128.423163 194.975294 
L 128.701121 159.025989 
L 129.257036 180.973476 
L 129.534994 192.019893 
L 129.812951 148.70631 
L 130.090909 153.066738 
L 130.368867 189.20984 
L 130.646824 192.698182 
L 130.924782 156.070588 
L 131.20274 179.907594 
L 131.480697 180.367861 
L 131.758655 163.386417 
L 132.036613 168.231337 
L 132.31457 183.783529 
L 132.592528 179.665348 
L 132.870486 172.397968 
L 133.148443 188.919144 
L 133.426401 174.481283 
L 133.704359 90.664171 
L 133.982316 144.152086 
L 134.538232 168.03754 
L 134.816189 160.043422 
L 135.094147 174.335936 
L 135.372105 165.130588 
L 135.650062 138.192834 
L 135.92802 172.737112 
L 136.205978 175.159572 
L 136.761893 165.082139 
L 137.039851 182.862995 
L 137.317808 159.122888 
L 137.595766 123.512727 
L 137.873724 151.225668 
L 138.151681 165.275936 
L 138.429639 151.564813 
L 138.707597 152.582246 
L 138.985554 168.764278 
L 139.263512 135.915722 
L 139.541469 128.551444 
L 139.819427 147.591979 
L 140.097385 125.256898 
L 140.375342 149.965989 
L 140.6533 145.750909 
L 140.931258 166.535615 
L 141.209215 168.570481 
L 141.487173 145.460214 
L 141.765131 163.24107 
L 142.043088 146.816791 
L 142.321046 140.082353 
L 142.599004 151.467914 
L 142.876961 182.281604 
L 143.432877 129.665775 
L 143.710834 164.064706 
L 143.988792 139.37984 
L 144.26675 153.599679 
L 144.544707 117.747273 
L 144.822665 165.905775 
L 145.656538 89.065348 
L 146.212453 153.066738 
L 146.490411 109.559358 
L 146.768369 164.452299 
L 147.046326 141.002888 
L 147.324284 97.301711 
L 147.602242 152.533797 
L 147.880199 126.95262 
L 148.158157 162.078289 
L 148.436115 164.549198 
L 148.714072 173.366952 
L 149.269988 109.559358 
L 149.547945 163.919358 
L 149.825903 160.77016 
L 150.103861 173.076257 
L 150.381818 176.661497 
L 150.659776 169.006524 
L 150.937733 108.202781 
L 151.215691 108.784171 
L 151.493649 147.301283 
L 151.771606 146.041604 
L 152.049564 101.419893 
L 152.327522 136.64246 
L 152.605479 157.039572 
L 152.883437 158.347701 
L 153.161395 95.315294 
L 153.71731 121.768556 
L 153.995268 161.545348 
L 154.273225 123.94877 
L 154.551183 44.443636 
L 154.829141 132.960321 
L 155.107098 87.70877 
L 155.663014 158.832193 
L 155.940971 149.529947 
L 156.218929 107.185348 
L 156.496887 113.725989 
L 156.774844 123.754973 
L 157.052802 113.193048 
L 157.33076 155.150053 
L 157.608717 127.58246 
L 157.886675 166.148021 
L 158.164633 146.768342 
L 158.44259 162.659679 
L 158.720548 160.915508 
L 158.998506 157.088021 
L 159.276463 148.318717 
L 159.554421 120.363529 
L 159.832379 159.025989 
L 160.110336 143.328449 
L 160.388294 171.04139 
L 160.666252 151.613262 
L 160.944209 148.609412 
L 161.222167 157.814759 
L 161.500125 131.749091 
L 161.778082 171.138289 
L 162.05604 147.834225 
L 162.611955 174.965775 
L 162.889913 119.782139 
L 163.16787 147.931123 
L 163.445828 154.423316 
L 163.723786 168.425134 
L 164.001743 130.973904 
L 164.279701 163.967807 
L 164.557659 155.925241 
L 164.835616 122.131925 
L 165.113574 148.948556 
L 165.391532 133.396364 
L 165.669489 168.812727 
L 165.947447 153.987273 
L 166.225405 152.194652 
L 166.503362 168.66738 
L 166.78132 156.28861 
L 167.059278 157.378717 
L 167.337235 172.155722 
L 167.893151 125.063102 
L 168.171108 156.748877 
L 168.449066 139.694759 
L 168.727024 176.564599 
L 169.004981 155.150053 
L 169.282939 156.312834 
L 169.560897 153.938824 
L 169.838854 143.061979 
L 170.116812 176.467701 
L 170.950685 132.863422 
L 171.228643 160.527914 
L 171.5066 165.954225 
L 171.784558 145.07262 
L 172.062516 161.4 
L 172.340473 147.882674 
L 172.618431 152.872941 
L 172.896389 242.116364 
L 173.174346 151.298342 
L 173.730262 180.488984 
L 174.008219 154.520214 
L 174.286177 176.419251 
L 174.842092 136.01262 
L 175.12005 145.896257 
L 175.398007 172.930909 
L 175.675965 158.153904 
L 175.953923 162.950374 
L 176.509838 187.078075 
L 176.787796 156.651979 
L 177.343711 170.896043 
L 177.621669 166.971658 
L 177.899626 194.490802 
L 178.177584 209.12246 
L 178.733499 134.365348 
L 179.011457 156.748877 
L 179.289415 133.493262 
L 179.567372 180.973476 
L 179.84533 165.857326 
L 180.123288 135.092086 
L 180.401245 126.855722 
L 180.679203 162.223636 
L 180.957161 157.088021 
L 181.235118 181.31262 
L 181.513076 151.71016 
L 181.791034 180.343636 
L 182.346949 152.34 
L 182.624907 156.748877 
L 182.902864 137.514545 
L 183.180822 185.333904 
L 183.45878 176.952193 
L 183.736737 191.535401 
L 184.014695 164.646096 
L 184.292653 172.88246 
L 184.57061 176.952193 
L 184.848568 155.537647 
L 185.126526 169.24877 
L 185.404483 151.419465 
L 185.682441 175.014225 
L 186.238356 181.409519 
L 186.516314 174.190588 
L 186.794271 158.880642 
L 187.072229 135.818824 
L 187.350187 186.593583 
L 187.628144 171.67123 
L 187.906102 143.570695 
L 188.462017 185.624599 
L 188.739975 160.624813 
L 189.017933 179.229305 
L 189.29589 165.469733 
L 189.573848 186.932727 
L 189.851806 179.229305 
L 190.129763 162.901925 
L 190.407721 188.676898 
L 190.685679 155.634545 
L 190.963636 192.988877 
L 191.241594 168.425134 
L 191.519552 179.132406 
L 192.075467 159.413583 
L 192.353425 193.473369 
L 192.631382 168.134439 
L 192.90934 180.973476 
L 193.187298 167.553048 
L 193.465255 201.85508 
L 193.743213 163.919358 
L 194.021171 168.376684 
L 194.299128 191.874545 
L 194.577086 167.117005 
L 194.855044 163.483316 
L 195.133001 172.30107 
L 195.410959 165.082139 
L 195.688917 153.066738 
L 195.966874 158.347701 
L 196.244832 156.700428 
L 196.52279 171.283636 
L 196.800747 194.200107 
L 197.078705 143.958289 
L 197.356663 191.680749 
L 197.912578 142.940856 
L 198.190535 186.496684 
L 198.468493 172.058824 
L 198.746451 182.184706 
L 199.024408 179.374652 
L 199.302366 171.574332 
L 199.580324 187.417219 
L 199.858281 164.452299 
L 200.136239 189.985027 
L 200.414197 149.093904 
L 200.692154 152.582246 
L 200.970112 188.337754 
L 201.24807 173.366952 
L 201.526027 172.010374 
L 201.803985 179.035508 
L 202.081943 167.601497 
L 202.3599 183.492834 
L 202.637858 182.814545 
L 202.915816 158.202353 
L 203.193773 180.392086 
L 203.471731 145.654011 
L 203.749689 169.442567 
L 204.027646 175.353369 
L 204.305604 191.922995 
L 204.583562 181.506417 
L 204.861519 158.880642 
L 205.139477 185.285455 
L 205.417435 190.566417 
L 205.695392 154.592888 
L 205.97335 170.072406 
L 206.251308 167.843743 
L 206.529265 198.124492 
L 206.807223 166.390267 
L 207.085181 173.802995 
L 207.363138 161.254652 
L 207.641096 181.748663 
L 207.919054 185.091658 
L 208.197011 178.793262 
L 208.474969 186.835829 
L 208.752927 169.491016 
L 209.030884 160.77016 
L 209.308842 193.42492 
L 209.5868 158.444599 
L 209.864757 177.242888 
L 210.142715 159.413583 
L 210.420672 170.799144 
L 210.69863 175.547166 
L 210.976588 177.339786 
L 211.254545 148.948556 
L 211.532503 184.510267 
L 211.810461 163.628663 
L 212.088418 178.163422 
L 212.366376 160.624813 
L 212.644334 167.020107 
L 212.922291 179.035508 
L 213.200249 182.330053 
L 213.756164 199.190374 
L 214.034122 198.705882 
L 214.31208 195.120642 
L 214.590037 178.551016 
L 215.145953 193.376471 
L 215.42391 189.645882 
L 215.701868 196.331872 
L 215.979826 184.897861 
L 216.257783 192.310588 
L 216.535741 205.634118 
L 217.091656 158.202353 
L 217.369614 170.750695 
L 217.647572 189.500535 
L 217.925529 136.545561 
L 218.203487 195.895829 
L 218.481445 191.874545 
L 218.759402 180.925027 
L 219.315318 168.279786 
L 219.593275 194.490802 
L 219.871233 163.919358 
L 220.149191 184.655615 
L 220.705106 156.894225 
L 220.983064 181.021925 
L 221.261021 191.58385 
L 221.538979 160.140321 
L 221.816936 176.322353 
L 222.094894 175.595615 
L 222.372852 151.855508 
L 222.650809 177.921176 
L 222.928767 178.454118 
L 223.206725 162.175187 
L 223.484682 186.835829 
L 224.040598 170.072406 
L 224.318555 144.248984 
L 224.596513 163.144171 
L 224.874471 146.671444 
L 225.152428 193.037326 
L 225.430386 176.225455 
L 225.986301 193.473369 
L 226.264259 163.386417 
L 226.820174 195.21754 
L 227.098132 190.275722 
L 227.37609 191.535401 
L 227.654047 174.481283 
L 227.932005 184.171123 
L 228.209963 180.682781 
L 228.48792 180.585882 
L 228.765878 170.726471 
L 229.043836 184.413369 
L 229.321793 189.597433 
L 229.599751 157.620963 
L 229.877709 194.054759 
L 230.155666 171.017166 
L 230.433624 179.326203 
L 230.711582 195.362888 
L 230.989539 169.006524 
L 231.267497 181.651765 
L 231.545455 182.426952 
L 231.823412 188.531551 
L 232.379328 179.374652 
L 232.657285 151.031872 
L 232.935243 140.760642 
L 233.2132 175.111123 
L 233.491158 160.237219 
L 233.769116 186.205989 
L 234.047073 166.923209 
L 234.325031 184.219572 
L 234.602989 147.979572 
L 234.880946 72.447273 
L 235.158904 182.136257 
L 235.436862 165.227487 
L 235.714819 179.229305 
L 235.992777 157.330267 
L 236.270735 191.58385 
L 236.548692 130.344064 
L 236.82665 178.211872 
L 237.104608 179.713797 
L 237.382565 167.795294 
L 237.660523 181.457968 
L 237.938481 171.865027 
L 238.216438 186.690481 
L 238.494396 168.909626 
L 238.772354 170.023957 
L 239.050311 160.043422 
L 239.328269 171.283636 
L 239.606227 155.198503 
L 240.162142 187.126524 
L 240.4401 163.386417 
L 240.718057 171.961925 
L 240.996015 158.202353 
L 241.273973 166.874759 
L 241.55193 183.589733 
L 241.829888 170.072406 
L 242.107846 175.789412 
L 242.385803 208.323048 
L 242.941719 161.836043 
L 243.219676 164.936791 
L 243.497634 181.457968 
L 244.053549 145.70246 
L 244.331507 139.016471 
L 244.609465 138.628877 
L 244.887422 164.549198 
L 245.16538 139.161818 
L 245.443337 187.514118 
L 245.721295 178.672139 
L 245.999253 158.686845 
L 246.27721 86.49754 
L 246.555168 169.87861 
L 246.833126 168.182888 
L 247.111083 163.265294 
L 247.389041 173.948342 
L 247.666999 165.663529 
L 247.944956 165.130588 
L 248.222914 112.805455 
L 248.500872 149.433048 
L 248.778829 157.475615 
L 249.056787 176.467701 
L 249.334745 150.838075 
L 249.612702 140.615294 
L 249.89066 176.903743 
L 250.168618 169.636364 
L 250.446575 149.626845 
L 250.724533 110.431444 
L 251.002491 170.023957 
L 251.280448 170.944492 
L 251.836364 138.774225 
L 252.114321 153.793476 
L 252.392279 155.246952 
L 252.670237 164.258503 
L 252.948194 141.051337 
L 253.226152 158.589947 
L 253.50411 162.465882 
L 254.060025 146.719893 
L 254.337983 170.023957 
L 254.61594 155.670882 
L 254.893898 160.624813 
L 255.171856 168.861176 
L 255.449813 158.347701 
L 255.727771 161.690695 
L 256.005729 67.553904 
L 256.283686 57.718717 
L 256.561644 149.626845 
L 256.839601 176.903743 
L 257.117559 151.661711 
L 257.395517 159.171337 
L 257.673474 128.648342 
L 257.951432 136.351765 
L 258.22939 118.619358 
L 258.507347 130.489412 
L 258.785305 172.88246 
L 259.063263 173.609198 
L 259.34122 167.262353 
L 259.619178 168.570481 
L 259.897136 154.084171 
L 260.175093 126.128984 
L 260.453051 168.570481 
L 260.731009 163.919358 
L 261.286924 169.297219 
L 261.564882 153.115187 
L 262.120797 171.622781 
L 262.398755 163.919358 
L 262.676712 161.109305 
L 262.95467 187.029626 
L 263.232628 179.083957 
L 263.510585 165.566631 
L 263.788543 162.272086 
L 264.066501 173.657647 
L 264.344458 164.40385 
L 264.622416 169.054973 
L 264.900374 182.669198 
L 265.178331 167.407701 
L 265.456289 170.023957 
L 265.734247 156.409733 
L 266.012204 164.791444 
L 266.290162 165.082139 
L 266.56812 160.624813 
L 266.846077 184.025775 
L 267.124035 157.911658 
L 267.401993 156.55508 
L 267.67995 157.039572 
L 267.957908 156.991123 
L 268.235866 174.965775 
L 268.513823 152.630695 
L 268.791781 184.413369 
L 269.069738 182.572299 
L 269.347696 194.442353 
L 269.625654 144.878824 
L 269.903611 174.771979 
L 270.181569 178.744813 
L 270.459527 168.861176 
L 270.737484 177.72738 
L 271.015442 157.233369 
L 271.2934 186.690481 
L 271.571357 181.021925 
L 271.849315 125.063102 
L 272.127273 164.500749 
L 272.40523 149.578396 
L 272.683188 169.733262 
L 272.961146 171.428984 
L 273.239103 183.589733 
L 273.517061 157.18492 
L 273.795019 176.806845 
L 274.072976 152.485348 
L 274.350934 189.355187 
L 274.628892 163.967807 
L 274.906849 181.36107 
L 275.184807 171.235187 
L 275.462765 143.425348 
L 275.740722 165.03369 
L 276.296638 178.066524 
L 276.574595 146.526096 
L 277.130511 181.36107 
L 277.408468 146.090053 
L 277.686426 158.832193 
L 277.964384 177.194439 
L 278.242341 177.291337 
L 278.520299 192.310588 
L 278.798257 170.217754 
L 279.076214 184.268021 
L 279.354172 142.456364 
L 279.63213 169.030749 
L 279.910087 164.210053 
L 280.188045 191.729198 
L 280.74396 168.473583 
L 281.021918 187.853262 
L 281.299875 184.025775 
L 281.577833 156.991123 
L 281.855791 175.692513 
L 282.133748 173.415401 
L 282.411706 183.977326 
L 282.689664 175.062674 
L 282.967621 180.392086 
L 283.245579 197.688449 
L 283.523537 161.593797 
L 283.801494 176.031658 
L 284.35741 174.965775 
L 284.635367 186.205989 
L 284.913325 160.867059 
L 285.191283 160.382567 
L 285.46924 182.233155 
L 285.747198 181.554866 
L 286.025156 157.330267 
L 286.303113 188.095508 
L 286.859029 188.628449 
L 287.136986 172.640214 
L 287.414944 126.419679 
L 287.692902 189.597433 
L 287.970859 173.270053 
L 288.248817 187.95016 
L 288.526775 181.409519 
L 288.804732 196.816364 
L 289.360648 170.702246 
L 289.916563 195.120642 
L 290.194521 197.591551 
L 290.472478 181.506417 
L 290.750436 188.725348 
L 291.028394 102.098182 
L 291.306351 154.956257 
L 291.862267 191.58385 
L 292.140224 188.822246 
L 292.418182 168.61893 
L 292.696139 184.36492 
L 292.974097 158.299251 
L 293.252055 184.268021 
L 293.530012 190.857112 
L 293.80797 171.08984 
L 294.085928 173.754545 
L 294.641843 189.936578 
L 294.919801 159.268235 
L 295.197758 147.737326 
L 295.475716 172.397968 
L 295.753674 179.035508 
L 296.031631 180.973476 
L 296.309589 194.200107 
L 296.587547 156.119037 
L 296.865504 159.752727 
L 297.143462 196.186524 
L 297.42142 163.677112 
L 297.699377 194.345455 
L 297.977335 163.846684 
L 298.255293 183.977326 
L 298.53325 182.814545 
L 298.811208 183.880428 
L 299.089166 187.078075 
L 299.367123 183.202139 
L 299.645081 174.190588 
L 299.923039 183.541283 
L 300.200996 175.014225 
L 300.478954 191.099358 
L 300.756912 190.954011 
L 301.034869 173.270053 
L 301.312827 185.479251 
L 301.590785 184.800963 
L 301.868742 183.395936 
L 302.1467 171.428984 
L 302.424658 180.295187 
L 302.702615 183.395936 
L 302.980573 183.73508 
L 303.258531 179.762246 
L 303.536488 182.184706 
L 303.814446 181.118824 
L 304.092403 156.942674 
L 304.370361 194.684599 
L 304.648319 186.012193 
L 304.926276 173.027807 
L 305.204234 190.711765 
L 305.482192 187.756364 
L 305.760149 172.591765 
L 306.038107 170.944492 
L 306.316065 210.963529 
L 306.594022 191.680749 
L 306.87198 180.585882 
L 307.149938 198.657433 
L 307.427895 203.260107 
L 307.705853 200.498503 
L 307.983811 182.378503 
L 308.261768 209.461604 
L 308.539726 198.754332 
L 308.817684 175.595615 
L 309.095641 208.49262 
L 309.373599 200.692299 
L 309.651557 160.721711 
L 309.929514 192.455936 
L 310.207472 205.440321 
L 310.48543 208.008128 
L 310.763387 208.783316 
L 311.041345 166.680963 
L 311.319303 164.40385 
L 311.59726 195.169091 
L 311.875218 170.556898 
L 312.153176 198.366738 
L 312.431133 178.841711 
L 312.709091 150.49893 
L 312.987049 195.314439 
L 313.265006 186.205989 
L 313.542964 169.927059 
L 313.820922 186.399786 
L 314.098879 186.835829 
L 314.376837 171.283636 
L 314.654795 168.279786 
L 314.932752 191.147807 
L 315.21071 183.15369 
L 315.488667 158.493048 
L 315.766625 197.252406 
L 316.044583 181.457968 
L 316.32254 176.952193 
L 316.600498 179.616898 
L 316.878456 138.919572 
L 317.434371 181.31262 
L 317.712329 174.868877 
L 317.990286 152.097754 
L 318.824159 190.905561 
L 319.102117 140.85754 
L 319.380075 175.644064 
L 319.658032 162.998824 
L 319.93599 194.878396 
L 320.213948 174.142139 
L 320.491905 128.042727 
L 321.047821 183.928877 
L 321.325778 184.655615 
L 321.603736 139.985455 
L 322.159651 188.676898 
L 322.437609 176.273904 
L 322.715567 198.996578 
L 322.993524 170.750695 
L 323.54944 200.934545 
L 323.827397 203.986845 
L 324.105355 185.624599 
L 324.383313 196.065401 
L 324.66127 201.515936 
L 324.939228 166.293369 
L 325.217186 190.178824 
L 325.495143 183.008342 
L 325.773101 197.05861 
L 326.051059 187.174973 
L 326.329016 194.393904 
L 326.884932 152.34 
L 327.162889 189.79123 
L 327.440847 172.785561 
L 327.718804 186.012193 
L 327.996762 175.062674 
L 328.27472 194.539251 
L 328.552677 189.597433 
L 328.830635 165.905775 
L 329.108593 172.688663 
L 329.38655 148.803209 
L 329.664508 188.289305 
L 329.942466 153.212086 
L 331.054296 188.725348 
L 331.332254 157.524064 
L 331.610212 200.207807 
L 331.888169 171.08984 
L 332.166127 155.537647 
L 332.444085 178.260321 
L 332.722042 145.12107 
L 333 164.646096 
L 333.277958 171.622781 
L 333.555915 190.905561 
L 333.833873 145.411765 
L 334.111831 189.403636 
L 334.667746 207.087594 
L 334.945704 190.275722 
L 335.223661 181.118824 
L 335.501619 202.097326 
L 335.779577 154.326417 
L 336.057534 200.934545 
L 336.335492 133.00877 
L 336.61345 187.99861 
L 336.891407 175.692513 
L 337.169365 144.878824 
L 337.447323 166.729412 
L 337.72528 179.132406 
L 338.003238 166.729412 
L 338.281196 168.570481 
L 338.559153 164.936791 
L 338.837111 179.713797 
L 339.115068 160.334118 
L 339.393026 187.078075 
L 339.670984 164.646096 
L 339.948941 157.281818 
L 340.226899 182.717647 
L 340.504857 178.114973 
L 340.782814 190.42107 
L 341.060772 178.357219 
L 341.33873 176.177005 
L 341.616687 185.430802 
L 341.894645 135.576578 
L 342.172603 176.322353 
L 342.45056 178.551016 
L 342.728518 174.481283 
L 343.006476 136.690909 
L 343.284433 177.775829 
L 343.840349 148.415615 
L 344.118306 161.642246 
L 344.396264 152.679144 
L 344.952179 171.865027 
L 345.230137 188.483102 
L 345.508095 62.612086 
L 345.786052 142.117219 
L 346.06401 155.731444 
L 346.341968 163.047273 
L 346.619925 191.632299 
L 347.175841 184.025775 
L 347.453798 182.184706 
L 347.731756 110.04385 
L 348.009714 176.51615 
L 348.287671 167.746845 
L 348.565629 169.394118 
L 348.843587 192.940428 
L 349.121544 186.399786 
L 349.399502 164.064706 
L 349.67746 158.589947 
L 349.955417 149.529947 
L 350.233375 152.776043 
L 350.511333 175.014225 
L 350.78929 149.433048 
L 351.067248 176.419251 
L 351.623163 150.111337 
L 351.901121 187.99861 
L 352.179078 189.573209 
L 352.457036 184.219572 
L 352.734994 143.28 
L 353.012951 172.058824 
L 353.290909 141.826524 
L 353.568867 136.787807 
L 353.846824 174.868877 
L 354.124782 157.088021 
L 354.40274 182.378503 
L 354.680697 159.268235 
L 354.958655 149.287701 
L 355.236613 133.057219 
L 355.51457 128.842139 
L 355.792528 163.289519 
L 356.348443 145.799358 
L 356.626401 159.122888 
L 356.904359 144.733476 
L 357.182316 102.534225 
L 357.460274 103.697005 
L 357.738232 127.921604 
L 358.016189 139.089144 
L 358.294147 173.173155 
L 358.572105 153.260535 
L 358.850062 146.768342 
L 359.12802 76.22631 
L 359.405978 121.041818 
L 359.961893 159.122888 
L 360.239851 170.944492 
L 360.517808 156.748877 
L 360.795766 159.898075 
L 361.073724 147.446631 
L 361.351681 148.367166 
L 361.629639 189.20984 
L 361.907597 169.927059 
L 362.185554 173.560749 
L 362.463512 162.223636 
L 362.741469 183.541283 
L 363.019427 111.788021 
L 363.297385 169.394118 
L 363.575342 181.409519 
L 363.8533 154.859358 
L 364.131258 177.242888 
L 364.409215 161.739144 
L 364.687173 174.771979 
L 364.965131 171.961925 
L 365.243088 181.506417 
L 365.521046 169.394118 
L 365.799004 164.791444 
L 366.354919 194.103209 
L 366.632877 165.082139 
L 366.910834 116.536043 
L 367.188792 143.231551 
L 367.46675 183.880428 
L 367.744707 190.808663 
L 368.022665 138.047487 
L 368.300623 169.103422 
L 368.57858 183.395936 
L 368.856538 138.386631 
L 369.134496 152.243102 
L 369.412453 176.952193 
L 369.690411 184.413369 
L 369.968369 159.704278 
L 370.524284 182.087807 
L 370.802242 153.938824 
L 371.080199 154.568663 
L 371.358157 147.931123 
L 371.636115 149.965989 
L 372.19203 184.558717 
L 372.469988 170.411551 
L 372.747945 162.223636 
L 373.025903 146.041604 
L 373.303861 183.250588 
L 373.581818 167.601497 
L 373.581818 167.601497 
" style="fill:none;stroke:#000000;stroke-linecap:square;stroke-width:1.5;"/>
   </g>
   <g id="patch_3">
    <path d="M 54 252 
L 54 34.56 
" style="fill:none;stroke:#000000;stroke-linecap:square;stroke-linejoin:miter;stroke-width:0.8;"/>
   </g>
   <g id="patch_4">
    <path d="M 388.8 252 
L 388.8 34.56 
" style="fill:none;stroke:#000000;stroke-linecap:square;stroke-linejoin:miter;stroke-width:0.8;"/>
   </g>
   <g id="patch_5">
    <path d="M 54 252 
L 388.8 252 
" style="fill:none;stroke:#000000;stroke-linecap:square;stroke-linejoin:miter;stroke-width:0.8;"/>
   </g>
   <g id="patch_6">
    <path d="M 54 34.56 
L 388.8 34.56 
" style="fill:none;stroke:#000000;stroke-linecap:square;stroke-linejoin:miter;stroke-width:0.8;"/>
   </g>
   <g id="text_20">
    <!-- Soma Diária de Energia - Casa 10 -->
    <g transform="translate(120.413438 28.56)scale(0.12 -0.12)">
     <defs>
      <path d="M 53.515625 70.515625 
L 53.515625 60.890625 
Q 47.90625 63.578125 42.921875 64.890625 
Q 37.9375 66.21875 33.296875 66.21875 
Q 25.25 66.21875 20.875 63.09375 
Q 16.5 59.96875 16.5 54.203125 
Q 16.5 49.359375 19.40625 46.890625 
Q 22.3125 44.4375 30.421875 42.921875 
L 36.375 41.703125 
Q 47.40625 39.59375 52.65625 34.296875 
Q 57.90625 29 57.90625 20.125 
Q 57.90625 9.515625 50.796875 4.046875 
Q 43.703125 -1.421875 29.984375 -1.421875 
Q 24.8125 -1.421875 18.96875 -0.25 
Q 13.140625 0.921875 6.890625 3.21875 
L 6.890625 13.375 
Q 12.890625 10.015625 18.65625 8.296875 
Q 24.421875 6.59375 29.984375 6.59375 
Q 38.421875 6.59375 43.015625 9.90625 
Q 47.609375 13.234375 47.609375 19.390625 
Q 47.609375 24.75 44.3125 27.78125 
Q 41.015625 30.8125 33.5 32.328125 
L 27.484375 33.5 
Q 16.453125 35.6875 11.515625 40.375 
Q 6.59375 45.0625 6.59375 53.421875 
Q 6.59375 63.09375 13.40625 68.65625 
Q 20.21875 74.21875 32.171875 74.21875 
Q 37.3125 74.21875 42.625 73.28125 
Q 47.953125 72.359375 53.515625 70.515625 
z
" id="DejaVuSans-83"/>
      <path d="M 30.609375 48.390625 
Q 23.390625 48.390625 19.1875 42.75 
Q 14.984375 37.109375 14.984375 27.296875 
Q 14.984375 17.484375 19.15625 11.84375 
Q 23.34375 6.203125 30.609375 6.203125 
Q 37.796875 6.203125 41.984375 11.859375 
Q 46.1875 17.53125 46.1875 27.296875 
Q 46.1875 37.015625 41.984375 42.703125 
Q 37.796875 48.390625 30.609375 48.390625 
z
M 30.609375 56 
Q 42.328125 56 49.015625 48.375 
Q 55.71875 40.765625 55.71875 27.296875 
Q 55.71875 13.875 49.015625 6.21875 
Q 42.328125 -1.421875 30.609375 -1.421875 
Q 18.84375 -1.421875 12.171875 6.21875 
Q 5.515625 13.875 5.515625 27.296875 
Q 5.515625 40.765625 12.171875 48.375 
Q 18.84375 56 30.609375 56 
z
" id="DejaVuSans-111"/>
      <path d="M 52 44.1875 
Q 55.375 50.25 60.0625 53.125 
Q 64.75 56 71.09375 56 
Q 79.640625 56 84.28125 50.015625 
Q 88.921875 44.046875 88.921875 33.015625 
L 88.921875 0 
L 79.890625 0 
L 79.890625 32.71875 
Q 79.890625 40.578125 77.09375 44.375 
Q 74.3125 48.1875 68.609375 48.1875 
Q 61.625 48.1875 57.5625 43.546875 
Q 53.515625 38.921875 53.515625 30.90625 
L 53.515625 0 
L 44.484375 0 
L 44.484375 32.71875 
Q 44.484375 40.625 41.703125 44.40625 
Q 38.921875 48.1875 33.109375 48.1875 
Q 26.21875 48.1875 22.15625 43.53125 
Q 18.109375 38.875 18.109375 30.90625 
L 18.109375 0 
L 9.078125 0 
L 9.078125 54.6875 
L 18.109375 54.6875 
L 18.109375 46.1875 
Q 21.1875 51.21875 25.484375 53.609375 
Q 29.78125 56 35.6875 56 
Q 41.65625 56 45.828125 52.96875 
Q 50 49.953125 52 44.1875 
z
" id="DejaVuSans-109"/>
      <path d="M 34.28125 27.484375 
Q 23.390625 27.484375 19.1875 25 
Q 14.984375 22.515625 14.984375 16.5 
Q 14.984375 11.71875 18.140625 8.90625 
Q 21.296875 6.109375 26.703125 6.109375 
Q 34.1875 6.109375 38.703125 11.40625 
Q 43.21875 16.703125 43.21875 25.484375 
L 43.21875 27.484375 
z
M 52.203125 31.203125 
L 52.203125 0 
L 43.21875 0 
L 43.21875 8.296875 
Q 40.140625 3.328125 35.546875 0.953125 
Q 30.953125 -1.421875 24.3125 -1.421875 
Q 15.921875 -1.421875 10.953125 3.296875 
Q 6 8.015625 6 15.921875 
Q 6 25.140625 12.171875 29.828125 
Q 18.359375 34.515625 30.609375 34.515625 
L 43.21875 34.515625 
L 43.21875 35.40625 
Q 43.21875 41.609375 39.140625 45 
Q 35.0625 48.390625 27.6875 48.390625 
Q 23 48.390625 18.546875 47.265625 
Q 14.109375 46.140625 10.015625 43.890625 
L 10.015625 52.203125 
Q 14.9375 54.109375 19.578125 55.046875 
Q 24.21875 56 28.609375 56 
Q 40.484375 56 46.34375 49.84375 
Q 52.203125 43.703125 52.203125 31.203125 
z
" id="DejaVuSans-97"/>
      <path id="DejaVuSans-32"/>
      <path d="M 19.671875 64.796875 
L 19.671875 8.109375 
L 31.59375 8.109375 
Q 46.6875 8.109375 53.6875 14.9375 
Q 60.6875 21.78125 60.6875 36.53125 
Q 60.6875 51.171875 53.6875 57.984375 
Q 46.6875 64.796875 31.59375 64.796875 
z
M 9.8125 72.90625 
L 30.078125 72.90625 
Q 51.265625 72.90625 61.171875 64.09375 
Q 71.09375 55.28125 71.09375 36.53125 
Q 71.09375 17.671875 61.125 8.828125 
Q 51.171875 0 30.078125 0 
L 9.8125 0 
z
" id="DejaVuSans-68"/>
      <path d="M 9.421875 54.6875 
L 18.40625 54.6875 
L 18.40625 0 
L 9.421875 0 
z
M 9.421875 75.984375 
L 18.40625 75.984375 
L 18.40625 64.59375 
L 9.421875 64.59375 
z
" id="DejaVuSans-105"/>
      <path d="M 34.28125 27.484375 
Q 23.390625 27.484375 19.1875 25 
Q 14.984375 22.515625 14.984375 16.5 
Q 14.984375 11.71875 18.140625 8.90625 
Q 21.296875 6.109375 26.703125 6.109375 
Q 34.1875 6.109375 38.703125 11.40625 
Q 43.21875 16.703125 43.21875 25.484375 
L 43.21875 27.484375 
z
M 52.203125 31.203125 
L 52.203125 0 
L 43.21875 0 
L 43.21875 8.296875 
Q 40.140625 3.328125 35.546875 0.953125 
Q 30.953125 -1.421875 24.3125 -1.421875 
Q 15.921875 -1.421875 10.953125 3.296875 
Q 6 8.015625 6 15.921875 
Q 6 25.140625 12.171875 29.828125 
Q 18.359375 34.515625 30.609375 34.515625 
L 43.21875 34.515625 
L 43.21875 35.40625 
Q 43.21875 41.609375 39.140625 45 
Q 35.0625 48.390625 27.6875 48.390625 
Q 23 48.390625 18.546875 47.265625 
Q 14.109375 46.140625 10.015625 43.890625 
L 10.015625 52.203125 
Q 14.9375 54.109375 19.578125 55.046875 
Q 24.21875 56 28.609375 56 
Q 40.484375 56 46.34375 49.84375 
Q 52.203125 43.703125 52.203125 31.203125 
z
M 35.796875 79.984375 
L 45.515625 79.984375 
L 29.59375 61.625 
L 22.125 61.625 
z
" id="DejaVuSans-225"/>
      <path d="M 41.109375 46.296875 
Q 39.59375 47.171875 37.8125 47.578125 
Q 36.03125 48 33.890625 48 
Q 26.265625 48 22.1875 43.046875 
Q 18.109375 38.09375 18.109375 28.8125 
L 18.109375 0 
L 9.078125 0 
L 9.078125 54.6875 
L 18.109375 54.6875 
L 18.109375 46.1875 
Q 20.953125 51.171875 25.484375 53.578125 
Q 30.03125 56 36.53125 56 
Q 37.453125 56 38.578125 55.875 
Q 39.703125 55.765625 41.0625 55.515625 
z
" id="DejaVuSans-114"/>
      <path d="M 45.40625 46.390625 
L 45.40625 75.984375 
L 54.390625 75.984375 
L 54.390625 0 
L 45.40625 0 
L 45.40625 8.203125 
Q 42.578125 3.328125 38.25 0.953125 
Q 33.9375 -1.421875 27.875 -1.421875 
Q 17.96875 -1.421875 11.734375 6.484375 
Q 5.515625 14.40625 5.515625 27.296875 
Q 5.515625 40.1875 11.734375 48.09375 
Q 17.96875 56 27.875 56 
Q 33.9375 56 38.25 53.625 
Q 42.578125 51.265625 45.40625 46.390625 
z
M 14.796875 27.296875 
Q 14.796875 17.390625 18.875 11.75 
Q 22.953125 6.109375 30.078125 6.109375 
Q 37.203125 6.109375 41.296875 11.75 
Q 45.40625 17.390625 45.40625 27.296875 
Q 45.40625 37.203125 41.296875 42.84375 
Q 37.203125 48.484375 30.078125 48.484375 
Q 22.953125 48.484375 18.875 42.84375 
Q 14.796875 37.203125 14.796875 27.296875 
z
" id="DejaVuSans-100"/>
      <path d="M 56.203125 29.59375 
L 56.203125 25.203125 
L 14.890625 25.203125 
Q 15.484375 15.921875 20.484375 11.0625 
Q 25.484375 6.203125 34.421875 6.203125 
Q 39.59375 6.203125 44.453125 7.46875 
Q 49.3125 8.734375 54.109375 11.28125 
L 54.109375 2.78125 
Q 49.265625 0.734375 44.1875 -0.34375 
Q 39.109375 -1.421875 33.890625 -1.421875 
Q 20.796875 -1.421875 13.15625 6.1875 
Q 5.515625 13.8125 5.515625 26.8125 
Q 5.515625 40.234375 12.765625 48.109375 
Q 20.015625 56 32.328125 56 
Q 43.359375 56 49.78125 48.890625 
Q 56.203125 41.796875 56.203125 29.59375 
z
M 47.21875 32.234375 
Q 47.125 39.59375 43.09375 43.984375 
Q 39.0625 48.390625 32.421875 48.390625 
Q 24.90625 48.390625 20.390625 44.140625 
Q 15.875 39.890625 15.1875 32.171875 
z
" id="DejaVuSans-101"/>
      <path d="M 9.8125 72.90625 
L 55.90625 72.90625 
L 55.90625 64.59375 
L 19.671875 64.59375 
L 19.671875 43.015625 
L 54.390625 43.015625 
L 54.390625 34.71875 
L 19.671875 34.71875 
L 19.671875 8.296875 
L 56.78125 8.296875 
L 56.78125 0 
L 9.8125 0 
z
" id="DejaVuSans-69"/>
      <path d="M 54.890625 33.015625 
L 54.890625 0 
L 45.90625 0 
L 45.90625 32.71875 
Q 45.90625 40.484375 42.875 44.328125 
Q 39.84375 48.1875 33.796875 48.1875 
Q 26.515625 48.1875 22.3125 43.546875 
Q 18.109375 38.921875 18.109375 30.90625 
L 18.109375 0 
L 9.078125 0 
L 9.078125 54.6875 
L 18.109375 54.6875 
L 18.109375 46.1875 
Q 21.34375 51.125 25.703125 53.5625 
Q 30.078125 56 35.796875 56 
Q 45.21875 56 50.046875 50.171875 
Q 54.890625 44.34375 54.890625 33.015625 
z
" id="DejaVuSans-110"/>
      <path d="M 45.40625 27.984375 
Q 45.40625 37.75 41.375 43.109375 
Q 37.359375 48.484375 30.078125 48.484375 
Q 22.859375 48.484375 18.828125 43.109375 
Q 14.796875 37.75 14.796875 27.984375 
Q 14.796875 18.265625 18.828125 12.890625 
Q 22.859375 7.515625 30.078125 7.515625 
Q 37.359375 7.515625 41.375 12.890625 
Q 45.40625 18.265625 45.40625 27.984375 
z
M 54.390625 6.78125 
Q 54.390625 -7.171875 48.1875 -13.984375 
Q 42 -20.796875 29.203125 -20.796875 
Q 24.46875 -20.796875 20.265625 -20.09375 
Q 16.0625 -19.390625 12.109375 -17.921875 
L 12.109375 -9.1875 
Q 16.0625 -11.328125 19.921875 -12.34375 
Q 23.78125 -13.375 27.78125 -13.375 
Q 36.625 -13.375 41.015625 -8.765625 
Q 45.40625 -4.15625 45.40625 5.171875 
L 45.40625 9.625 
Q 42.625 4.78125 38.28125 2.390625 
Q 33.9375 0 27.875 0 
Q 17.828125 0 11.671875 7.65625 
Q 5.515625 15.328125 5.515625 27.984375 
Q 5.515625 40.671875 11.671875 48.328125 
Q 17.828125 56 27.875 56 
Q 33.9375 56 38.28125 53.609375 
Q 42.625 51.21875 45.40625 46.390625 
L 45.40625 54.6875 
L 54.390625 54.6875 
z
" id="DejaVuSans-103"/>
      <path d="M 64.40625 67.28125 
L 64.40625 56.890625 
Q 59.421875 61.53125 53.78125 63.8125 
Q 48.140625 66.109375 41.796875 66.109375 
Q 29.296875 66.109375 22.65625 58.46875 
Q 16.015625 50.828125 16.015625 36.375 
Q 16.015625 21.96875 22.65625 14.328125 
Q 29.296875 6.6875 41.796875 6.6875 
Q 48.140625 6.6875 53.78125 8.984375 
Q 59.421875 11.28125 64.40625 15.921875 
L 64.40625 5.609375 
Q 59.234375 2.09375 53.4375 0.328125 
Q 47.65625 -1.421875 41.21875 -1.421875 
Q 24.65625 -1.421875 15.125 8.703125 
Q 5.609375 18.84375 5.609375 36.375 
Q 5.609375 53.953125 15.125 64.078125 
Q 24.65625 74.21875 41.21875 74.21875 
Q 47.75 74.21875 53.53125 72.484375 
Q 59.328125 70.75 64.40625 67.28125 
z
" id="DejaVuSans-67"/>
      <path d="M 44.28125 53.078125 
L 44.28125 44.578125 
Q 40.484375 46.53125 36.375 47.5 
Q 32.28125 48.484375 27.875 48.484375 
Q 21.1875 48.484375 17.84375 46.4375 
Q 14.5 44.390625 14.5 40.28125 
Q 14.5 37.15625 16.890625 35.375 
Q 19.28125 33.59375 26.515625 31.984375 
L 29.59375 31.296875 
Q 39.15625 29.25 43.1875 25.515625 
Q 47.21875 21.78125 47.21875 15.09375 
Q 47.21875 7.46875 41.1875 3.015625 
Q 35.15625 -1.421875 24.609375 -1.421875 
Q 20.21875 -1.421875 15.453125 -0.5625 
Q 10.6875 0.296875 5.421875 2 
L 5.421875 11.28125 
Q 10.40625 8.6875 15.234375 7.390625 
Q 20.0625 6.109375 24.8125 6.109375 
Q 31.15625 6.109375 34.5625 8.28125 
Q 37.984375 10.453125 37.984375 14.40625 
Q 37.984375 18.0625 35.515625 20.015625 
Q 33.0625 21.96875 24.703125 23.78125 
L 21.578125 24.515625 
Q 13.234375 26.265625 9.515625 29.90625 
Q 5.8125 33.546875 5.8125 39.890625 
Q 5.8125 47.609375 11.28125 51.796875 
Q 16.75 56 26.8125 56 
Q 31.78125 56 36.171875 55.265625 
Q 40.578125 54.546875 44.28125 53.078125 
z
" id="DejaVuSans-115"/>
     </defs>
     <use xlink:href="#DejaVuSans-83"/>
     <use x="63.476562" xlink:href="#DejaVuSans-111"/>
     <use x="124.658203" xlink:href="#DejaVuSans-109"/>
     <use x="222.070312" xlink:href="#DejaVuSans-97"/>
     <use x="283.349609" xlink:href="#DejaVuSans-32"/>
     <use x="315.136719" xlink:href="#DejaVuSans-68"/>
     <use x="392.138672" xlink:href="#DejaVuSans-105"/>
     <use x="419.921875" xlink:href="#DejaVuSans-225"/>
     <use x="481.201172" xlink:href="#DejaVuSans-114"/>
     <use x="522.314453" xlink:href="#DejaVuSans-105"/>
     <use x="550.097656" xlink:href="#DejaVuSans-97"/>
     <use x="611.376953" xlink:href="#DejaVuSans-32"/>
     <use x="643.164062" xlink:href="#DejaVuSans-100"/>
     <use x="706.640625" xlink:href="#DejaVuSans-101"/>
     <use x="768.164062" xlink:href="#DejaVuSans-32"/>
     <use x="799.951172" xlink:href="#DejaVuSans-69"/>
     <use x="863.134766" xlink:href="#DejaVuSans-110"/>
     <use x="926.513672" xlink:href="#DejaVuSans-101"/>
     <use x="988.037109" xlink:href="#DejaVuSans-114"/>
     <use x="1027.400391" xlink:href="#DejaVuSans-103"/>
     <use x="1090.876953" xlink:href="#DejaVuSans-105"/>
     <use x="1118.660156" xlink:href="#DejaVuSans-97"/>
     <use x="1179.939453" xlink:href="#DejaVuSans-32"/>
     <use x="1211.726562" xlink:href="#DejaVuSans-45"/>
     <use x="1247.810547" xlink:href="#DejaVuSans-32"/>
     <use x="1279.597656" xlink:href="#DejaVuSans-67"/>
     <use x="1349.421875" xlink:href="#DejaVuSans-97"/>
     <use x="1410.701172" xlink:href="#DejaVuSans-115"/>
     <use x="1462.800781" xlink:href="#DejaVuSans-97"/>
     <use x="1524.080078" xlink:href="#DejaVuSans-32"/>
     <use x="1555.867188" xlink:href="#DejaVuSans-49"/>
     <use x="1619.490234" xlink:href="#DejaVuSans-48"/>
    </g>
   </g>
  </g>
 </g>
 <defs>
  <clipPath id="pda13a9444c">
   <rect height="217.44" width="334.8" x="54" y="34.56"/>
  </clipPath>
 </defs>
</svg>
