<?xml version="1.0" encoding="utf-8" standalone="no"?>
<!DOCTYPE svg PUBLIC "-//W3C//DTD SVG 1.1//EN"
  "http://www.w3.org/Graphics/SVG/1.1/DTD/svg11.dtd">
<!-- Created with matplotlib (https://matplotlib.org/) -->
<svg height="288pt" version="1.1" viewBox="0 0 432 288" width="432pt" xmlns="http://www.w3.org/2000/svg" xmlns:xlink="http://www.w3.org/1999/xlink">
 <metadata>
  <rdf:RDF xmlns:cc="http://creativecommons.org/ns#" xmlns:dc="http://purl.org/dc/elements/1.1/" xmlns:rdf="http://www.w3.org/1999/02/22-rdf-syntax-ns#">
   <cc:Work>
    <dc:type rdf:resource="http://purl.org/dc/dcmitype/StillImage"/>
    <dc:date>2021-07-21T14:57:48.042094</dc:date>
    <dc:format>image/svg+xml</dc:format>
    <dc:creator>
     <cc:Agent>
      <dc:title>Matplotlib v3.3.4, https://matplotlib.org/</dc:title>
     </cc:Agent>
    </dc:creator>
   </cc:Work>
  </rdf:RDF>
 </metadata>
 <defs>
  <style type="text/css">*{stroke-linecap:butt;stroke-linejoin:round;}</style>
 </defs>
 <g id="figure_1">
  <g id="patch_1">
   <path d="M 0 288 
L 432 288 
L 432 0 
L 0 0 
z
" style="fill:#ffffff;"/>
  </g>
  <g id="axes_1">
   <g id="patch_2">
    <path d="M 54 252 
L 388.8 252 
L 388.8 34.56 
L 54 34.56 
z
" style="fill:#ffffff;"/>
   </g>
   <g id="matplotlib.axis_1">
    <g id="xtick_1">
     <g id="line2d_1">
      <defs>
       <path d="M 0 0 
L 0 3.5 
" id="m6e2a06fa66" style="stroke:#000000;stroke-width:0.8;"/>
      </defs>
      <g>
       <use style="stroke:#000000;stroke-width:0.8;" x="55.042341" xlink:href="#m6e2a06fa66" y="252"/>
      </g>
     </g>
     <g id="text_1">
      <!-- 2015-01 -->
      <g transform="translate(42.221059 293.917817)rotate(-45)scale(0.1 -0.1)">
       <defs>
        <path d="M 19.1875 8.296875 
L 53.609375 8.296875 
L 53.609375 0 
L 7.328125 0 
L 7.328125 8.296875 
Q 12.9375 14.109375 22.625 23.890625 
Q 32.328125 33.6875 34.8125 36.53125 
Q 39.546875 41.84375 41.421875 45.53125 
Q 43.3125 49.21875 43.3125 52.78125 
Q 43.3125 58.59375 39.234375 62.25 
Q 35.15625 65.921875 28.609375 65.921875 
Q 23.96875 65.921875 18.8125 64.3125 
Q 13.671875 62.703125 7.8125 59.421875 
L 7.8125 69.390625 
Q 13.765625 71.78125 18.9375 73 
Q 24.125 74.21875 28.421875 74.21875 
Q 39.75 74.21875 46.484375 68.546875 
Q 53.21875 62.890625 53.21875 53.421875 
Q 53.21875 48.921875 51.53125 44.890625 
Q 49.859375 40.875 45.40625 35.40625 
Q 44.1875 33.984375 37.640625 27.21875 
Q 31.109375 20.453125 19.1875 8.296875 
z
" id="DejaVuSans-50"/>
        <path d="M 31.78125 66.40625 
Q 24.171875 66.40625 20.328125 58.90625 
Q 16.5 51.421875 16.5 36.375 
Q 16.5 21.390625 20.328125 13.890625 
Q 24.171875 6.390625 31.78125 6.390625 
Q 39.453125 6.390625 43.28125 13.890625 
Q 47.125 21.390625 47.125 36.375 
Q 47.125 51.421875 43.28125 58.90625 
Q 39.453125 66.40625 31.78125 66.40625 
z
M 31.78125 74.21875 
Q 44.046875 74.21875 50.515625 64.515625 
Q 56.984375 54.828125 56.984375 36.375 
Q 56.984375 17.96875 50.515625 8.265625 
Q 44.046875 -1.421875 31.78125 -1.421875 
Q 19.53125 -1.421875 13.0625 8.265625 
Q 6.59375 17.96875 6.59375 36.375 
Q 6.59375 54.828125 13.0625 64.515625 
Q 19.53125 74.21875 31.78125 74.21875 
z
" id="DejaVuSans-48"/>
        <path d="M 12.40625 8.296875 
L 28.515625 8.296875 
L 28.515625 63.921875 
L 10.984375 60.40625 
L 10.984375 69.390625 
L 28.421875 72.90625 
L 38.28125 72.90625 
L 38.28125 8.296875 
L 54.390625 8.296875 
L 54.390625 0 
L 12.40625 0 
z
" id="DejaVuSans-49"/>
        <path d="M 10.796875 72.90625 
L 49.515625 72.90625 
L 49.515625 64.59375 
L 19.828125 64.59375 
L 19.828125 46.734375 
Q 21.96875 47.46875 24.109375 47.828125 
Q 26.265625 48.1875 28.421875 48.1875 
Q 40.625 48.1875 47.75 41.5 
Q 54.890625 34.8125 54.890625 23.390625 
Q 54.890625 11.625 47.5625 5.09375 
Q 40.234375 -1.421875 26.90625 -1.421875 
Q 22.3125 -1.421875 17.546875 -0.640625 
Q 12.796875 0.140625 7.71875 1.703125 
L 7.71875 11.625 
Q 12.109375 9.234375 16.796875 8.0625 
Q 21.484375 6.890625 26.703125 6.890625 
Q 35.15625 6.890625 40.078125 11.328125 
Q 45.015625 15.765625 45.015625 23.390625 
Q 45.015625 31 40.078125 35.4375 
Q 35.15625 39.890625 26.703125 39.890625 
Q 22.75 39.890625 18.8125 39.015625 
Q 14.890625 38.140625 10.796875 36.28125 
z
" id="DejaVuSans-53"/>
        <path d="M 4.890625 31.390625 
L 31.203125 31.390625 
L 31.203125 23.390625 
L 4.890625 23.390625 
z
" id="DejaVuSans-45"/>
       </defs>
       <use xlink:href="#DejaVuSans-50"/>
       <use x="63.623047" xlink:href="#DejaVuSans-48"/>
       <use x="127.246094" xlink:href="#DejaVuSans-49"/>
       <use x="190.869141" xlink:href="#DejaVuSans-53"/>
       <use x="254.492188" xlink:href="#DejaVuSans-45"/>
       <use x="290.576172" xlink:href="#DejaVuSans-48"/>
       <use x="354.199219" xlink:href="#DejaVuSans-49"/>
      </g>
     </g>
    </g>
    <g id="xtick_2">
     <g id="line2d_2">
      <g>
       <use style="stroke:#000000;stroke-width:0.8;" x="88.39726" xlink:href="#m6e2a06fa66" y="252"/>
      </g>
     </g>
     <g id="text_2">
      <!-- 2015-05 -->
      <g transform="translate(75.575978 293.917817)rotate(-45)scale(0.1 -0.1)">
       <use xlink:href="#DejaVuSans-50"/>
       <use x="63.623047" xlink:href="#DejaVuSans-48"/>
       <use x="127.246094" xlink:href="#DejaVuSans-49"/>
       <use x="190.869141" xlink:href="#DejaVuSans-53"/>
       <use x="254.492188" xlink:href="#DejaVuSans-45"/>
       <use x="290.576172" xlink:href="#DejaVuSans-48"/>
       <use x="354.199219" xlink:href="#DejaVuSans-53"/>
      </g>
     </g>
    </g>
    <g id="xtick_3">
     <g id="line2d_3">
      <g>
       <use style="stroke:#000000;stroke-width:0.8;" x="122.586052" xlink:href="#m6e2a06fa66" y="252"/>
      </g>
     </g>
     <g id="text_3">
      <!-- 2015-09 -->
      <g transform="translate(109.76477 293.917817)rotate(-45)scale(0.1 -0.1)">
       <defs>
        <path d="M 10.984375 1.515625 
L 10.984375 10.5 
Q 14.703125 8.734375 18.5 7.8125 
Q 22.3125 6.890625 25.984375 6.890625 
Q 35.75 6.890625 40.890625 13.453125 
Q 46.046875 20.015625 46.78125 33.40625 
Q 43.953125 29.203125 39.59375 26.953125 
Q 35.25 24.703125 29.984375 24.703125 
Q 19.046875 24.703125 12.671875 31.3125 
Q 6.296875 37.9375 6.296875 49.421875 
Q 6.296875 60.640625 12.9375 67.421875 
Q 19.578125 74.21875 30.609375 74.21875 
Q 43.265625 74.21875 49.921875 64.515625 
Q 56.59375 54.828125 56.59375 36.375 
Q 56.59375 19.140625 48.40625 8.859375 
Q 40.234375 -1.421875 26.421875 -1.421875 
Q 22.703125 -1.421875 18.890625 -0.6875 
Q 15.09375 0.046875 10.984375 1.515625 
z
M 30.609375 32.421875 
Q 37.25 32.421875 41.125 36.953125 
Q 45.015625 41.5 45.015625 49.421875 
Q 45.015625 57.28125 41.125 61.84375 
Q 37.25 66.40625 30.609375 66.40625 
Q 23.96875 66.40625 20.09375 61.84375 
Q 16.21875 57.28125 16.21875 49.421875 
Q 16.21875 41.5 20.09375 36.953125 
Q 23.96875 32.421875 30.609375 32.421875 
z
" id="DejaVuSans-57"/>
       </defs>
       <use xlink:href="#DejaVuSans-50"/>
       <use x="63.623047" xlink:href="#DejaVuSans-48"/>
       <use x="127.246094" xlink:href="#DejaVuSans-49"/>
       <use x="190.869141" xlink:href="#DejaVuSans-53"/>
       <use x="254.492188" xlink:href="#DejaVuSans-45"/>
       <use x="290.576172" xlink:href="#DejaVuSans-48"/>
       <use x="354.199219" xlink:href="#DejaVuSans-57"/>
      </g>
     </g>
    </g>
    <g id="xtick_4">
     <g id="line2d_4">
      <g>
       <use style="stroke:#000000;stroke-width:0.8;" x="156.496887" xlink:href="#m6e2a06fa66" y="252"/>
      </g>
     </g>
     <g id="text_4">
      <!-- 2016-01 -->
      <g transform="translate(143.675604 293.917817)rotate(-45)scale(0.1 -0.1)">
       <defs>
        <path d="M 33.015625 40.375 
Q 26.375 40.375 22.484375 35.828125 
Q 18.609375 31.296875 18.609375 23.390625 
Q 18.609375 15.53125 22.484375 10.953125 
Q 26.375 6.390625 33.015625 6.390625 
Q 39.65625 6.390625 43.53125 10.953125 
Q 47.40625 15.53125 47.40625 23.390625 
Q 47.40625 31.296875 43.53125 35.828125 
Q 39.65625 40.375 33.015625 40.375 
z
M 52.59375 71.296875 
L 52.59375 62.3125 
Q 48.875 64.0625 45.09375 64.984375 
Q 41.3125 65.921875 37.59375 65.921875 
Q 27.828125 65.921875 22.671875 59.328125 
Q 17.53125 52.734375 16.796875 39.40625 
Q 19.671875 43.65625 24.015625 45.921875 
Q 28.375 48.1875 33.59375 48.1875 
Q 44.578125 48.1875 50.953125 41.515625 
Q 57.328125 34.859375 57.328125 23.390625 
Q 57.328125 12.15625 50.6875 5.359375 
Q 44.046875 -1.421875 33.015625 -1.421875 
Q 20.359375 -1.421875 13.671875 8.265625 
Q 6.984375 17.96875 6.984375 36.375 
Q 6.984375 53.65625 15.1875 63.9375 
Q 23.390625 74.21875 37.203125 74.21875 
Q 40.921875 74.21875 44.703125 73.484375 
Q 48.484375 72.75 52.59375 71.296875 
z
" id="DejaVuSans-54"/>
       </defs>
       <use xlink:href="#DejaVuSans-50"/>
       <use x="63.623047" xlink:href="#DejaVuSans-48"/>
       <use x="127.246094" xlink:href="#DejaVuSans-49"/>
       <use x="190.869141" xlink:href="#DejaVuSans-54"/>
       <use x="254.492188" xlink:href="#DejaVuSans-45"/>
       <use x="290.576172" xlink:href="#DejaVuSans-48"/>
       <use x="354.199219" xlink:href="#DejaVuSans-49"/>
      </g>
     </g>
    </g>
    <g id="xtick_5">
     <g id="line2d_5">
      <g>
       <use style="stroke:#000000;stroke-width:0.8;" x="190.129763" xlink:href="#m6e2a06fa66" y="252"/>
      </g>
     </g>
     <g id="text_5">
      <!-- 2016-05 -->
      <g transform="translate(177.308481 293.917817)rotate(-45)scale(0.1 -0.1)">
       <use xlink:href="#DejaVuSans-50"/>
       <use x="63.623047" xlink:href="#DejaVuSans-48"/>
       <use x="127.246094" xlink:href="#DejaVuSans-49"/>
       <use x="190.869141" xlink:href="#DejaVuSans-54"/>
       <use x="254.492188" xlink:href="#DejaVuSans-45"/>
       <use x="290.576172" xlink:href="#DejaVuSans-48"/>
       <use x="354.199219" xlink:href="#DejaVuSans-53"/>
      </g>
     </g>
    </g>
    <g id="xtick_6">
     <g id="line2d_6">
      <g>
       <use style="stroke:#000000;stroke-width:0.8;" x="224.318555" xlink:href="#m6e2a06fa66" y="252"/>
      </g>
     </g>
     <g id="text_6">
      <!-- 2016-09 -->
      <g transform="translate(211.497273 293.917817)rotate(-45)scale(0.1 -0.1)">
       <use xlink:href="#DejaVuSans-50"/>
       <use x="63.623047" xlink:href="#DejaVuSans-48"/>
       <use x="127.246094" xlink:href="#DejaVuSans-49"/>
       <use x="190.869141" xlink:href="#DejaVuSans-54"/>
       <use x="254.492188" xlink:href="#DejaVuSans-45"/>
       <use x="290.576172" xlink:href="#DejaVuSans-48"/>
       <use x="354.199219" xlink:href="#DejaVuSans-57"/>
      </g>
     </g>
    </g>
    <g id="xtick_7">
     <g id="line2d_7">
      <g>
       <use style="stroke:#000000;stroke-width:0.8;" x="258.22939" xlink:href="#m6e2a06fa66" y="252"/>
      </g>
     </g>
     <g id="text_7">
      <!-- 2017-01 -->
      <g transform="translate(245.408108 293.917817)rotate(-45)scale(0.1 -0.1)">
       <defs>
        <path d="M 8.203125 72.90625 
L 55.078125 72.90625 
L 55.078125 68.703125 
L 28.609375 0 
L 18.3125 0 
L 43.21875 64.59375 
L 8.203125 64.59375 
z
" id="DejaVuSans-55"/>
       </defs>
       <use xlink:href="#DejaVuSans-50"/>
       <use x="63.623047" xlink:href="#DejaVuSans-48"/>
       <use x="127.246094" xlink:href="#DejaVuSans-49"/>
       <use x="190.869141" xlink:href="#DejaVuSans-55"/>
       <use x="254.492188" xlink:href="#DejaVuSans-45"/>
       <use x="290.576172" xlink:href="#DejaVuSans-48"/>
       <use x="354.199219" xlink:href="#DejaVuSans-49"/>
      </g>
     </g>
    </g>
    <g id="xtick_8">
     <g id="line2d_8">
      <g>
       <use style="stroke:#000000;stroke-width:0.8;" x="291.584309" xlink:href="#m6e2a06fa66" y="252"/>
      </g>
     </g>
     <g id="text_8">
      <!-- 2017-05 -->
      <g transform="translate(278.763027 293.917817)rotate(-45)scale(0.1 -0.1)">
       <use xlink:href="#DejaVuSans-50"/>
       <use x="63.623047" xlink:href="#DejaVuSans-48"/>
       <use x="127.246094" xlink:href="#DejaVuSans-49"/>
       <use x="190.869141" xlink:href="#DejaVuSans-55"/>
       <use x="254.492188" xlink:href="#DejaVuSans-45"/>
       <use x="290.576172" xlink:href="#DejaVuSans-48"/>
       <use x="354.199219" xlink:href="#DejaVuSans-53"/>
      </g>
     </g>
    </g>
    <g id="xtick_9">
     <g id="line2d_9">
      <g>
       <use style="stroke:#000000;stroke-width:0.8;" x="325.773101" xlink:href="#m6e2a06fa66" y="252"/>
      </g>
     </g>
     <g id="text_9">
      <!-- 2017-09 -->
      <g transform="translate(312.951819 293.917817)rotate(-45)scale(0.1 -0.1)">
       <use xlink:href="#DejaVuSans-50"/>
       <use x="63.623047" xlink:href="#DejaVuSans-48"/>
       <use x="127.246094" xlink:href="#DejaVuSans-49"/>
       <use x="190.869141" xlink:href="#DejaVuSans-55"/>
       <use x="254.492188" xlink:href="#DejaVuSans-45"/>
       <use x="290.576172" xlink:href="#DejaVuSans-48"/>
       <use x="354.199219" xlink:href="#DejaVuSans-57"/>
      </g>
     </g>
    </g>
    <g id="xtick_10">
     <g id="line2d_10">
      <g>
       <use style="stroke:#000000;stroke-width:0.8;" x="359.683935" xlink:href="#m6e2a06fa66" y="252"/>
      </g>
     </g>
     <g id="text_10">
      <!-- 2018-01 -->
      <g transform="translate(346.862653 293.917817)rotate(-45)scale(0.1 -0.1)">
       <defs>
        <path d="M 31.78125 34.625 
Q 24.75 34.625 20.71875 30.859375 
Q 16.703125 27.09375 16.703125 20.515625 
Q 16.703125 13.921875 20.71875 10.15625 
Q 24.75 6.390625 31.78125 6.390625 
Q 38.8125 6.390625 42.859375 10.171875 
Q 46.921875 13.96875 46.921875 20.515625 
Q 46.921875 27.09375 42.890625 30.859375 
Q 38.875 34.625 31.78125 34.625 
z
M 21.921875 38.8125 
Q 15.578125 40.375 12.03125 44.71875 
Q 8.5 49.078125 8.5 55.328125 
Q 8.5 64.0625 14.71875 69.140625 
Q 20.953125 74.21875 31.78125 74.21875 
Q 42.671875 74.21875 48.875 69.140625 
Q 55.078125 64.0625 55.078125 55.328125 
Q 55.078125 49.078125 51.53125 44.71875 
Q 48 40.375 41.703125 38.8125 
Q 48.828125 37.15625 52.796875 32.3125 
Q 56.78125 27.484375 56.78125 20.515625 
Q 56.78125 9.90625 50.3125 4.234375 
Q 43.84375 -1.421875 31.78125 -1.421875 
Q 19.734375 -1.421875 13.25 4.234375 
Q 6.78125 9.90625 6.78125 20.515625 
Q 6.78125 27.484375 10.78125 32.3125 
Q 14.796875 37.15625 21.921875 38.8125 
z
M 18.3125 54.390625 
Q 18.3125 48.734375 21.84375 45.5625 
Q 25.390625 42.390625 31.78125 42.390625 
Q 38.140625 42.390625 41.71875 45.5625 
Q 45.3125 48.734375 45.3125 54.390625 
Q 45.3125 60.0625 41.71875 63.234375 
Q 38.140625 66.40625 31.78125 66.40625 
Q 25.390625 66.40625 21.84375 63.234375 
Q 18.3125 60.0625 18.3125 54.390625 
z
" id="DejaVuSans-56"/>
       </defs>
       <use xlink:href="#DejaVuSans-50"/>
       <use x="63.623047" xlink:href="#DejaVuSans-48"/>
       <use x="127.246094" xlink:href="#DejaVuSans-49"/>
       <use x="190.869141" xlink:href="#DejaVuSans-56"/>
       <use x="254.492188" xlink:href="#DejaVuSans-45"/>
       <use x="290.576172" xlink:href="#DejaVuSans-48"/>
       <use x="354.199219" xlink:href="#DejaVuSans-49"/>
      </g>
     </g>
    </g>
   </g>
   <g id="matplotlib.axis_2">
    <g id="ytick_1">
     <g id="line2d_11">
      <defs>
       <path d="M 0 0 
L -3.5 0 
" id="m93572b139d" style="stroke:#000000;stroke-width:0.8;"/>
      </defs>
      <g>
       <use style="stroke:#000000;stroke-width:0.8;" x="54" xlink:href="#m93572b139d" y="242.116364"/>
      </g>
     </g>
     <g id="text_11">
      <!-- 0 -->
      <g transform="translate(40.6375 245.915582)scale(0.1 -0.1)">
       <use xlink:href="#DejaVuSans-48"/>
      </g>
     </g>
    </g>
    <g id="ytick_2">
     <g id="line2d_12">
      <g>
       <use style="stroke:#000000;stroke-width:0.8;" x="54" xlink:href="#m93572b139d" y="212.805461"/>
      </g>
     </g>
     <g id="text_12">
      <!-- 5 -->
      <g transform="translate(40.6375 216.60468)scale(0.1 -0.1)">
       <use xlink:href="#DejaVuSans-53"/>
      </g>
     </g>
    </g>
    <g id="ytick_3">
     <g id="line2d_13">
      <g>
       <use style="stroke:#000000;stroke-width:0.8;" x="54" xlink:href="#m93572b139d" y="183.494558"/>
      </g>
     </g>
     <g id="text_13">
      <!-- 10 -->
      <g transform="translate(34.275 187.293777)scale(0.1 -0.1)">
       <use xlink:href="#DejaVuSans-49"/>
       <use x="63.623047" xlink:href="#DejaVuSans-48"/>
      </g>
     </g>
    </g>
    <g id="ytick_4">
     <g id="line2d_14">
      <g>
       <use style="stroke:#000000;stroke-width:0.8;" x="54" xlink:href="#m93572b139d" y="154.183656"/>
      </g>
     </g>
     <g id="text_14">
      <!-- 15 -->
      <g transform="translate(34.275 157.982875)scale(0.1 -0.1)">
       <use xlink:href="#DejaVuSans-49"/>
       <use x="63.623047" xlink:href="#DejaVuSans-53"/>
      </g>
     </g>
    </g>
    <g id="ytick_5">
     <g id="line2d_15">
      <g>
       <use style="stroke:#000000;stroke-width:0.8;" x="54" xlink:href="#m93572b139d" y="124.872753"/>
      </g>
     </g>
     <g id="text_15">
      <!-- 20 -->
      <g transform="translate(34.275 128.671972)scale(0.1 -0.1)">
       <use xlink:href="#DejaVuSans-50"/>
       <use x="63.623047" xlink:href="#DejaVuSans-48"/>
      </g>
     </g>
    </g>
    <g id="ytick_6">
     <g id="line2d_16">
      <g>
       <use style="stroke:#000000;stroke-width:0.8;" x="54" xlink:href="#m93572b139d" y="95.561851"/>
      </g>
     </g>
     <g id="text_16">
      <!-- 25 -->
      <g transform="translate(34.275 99.361069)scale(0.1 -0.1)">
       <use xlink:href="#DejaVuSans-50"/>
       <use x="63.623047" xlink:href="#DejaVuSans-53"/>
      </g>
     </g>
    </g>
    <g id="ytick_7">
     <g id="line2d_17">
      <g>
       <use style="stroke:#000000;stroke-width:0.8;" x="54" xlink:href="#m93572b139d" y="66.250948"/>
      </g>
     </g>
     <g id="text_17">
      <!-- 30 -->
      <g transform="translate(34.275 70.050167)scale(0.1 -0.1)">
       <defs>
        <path d="M 40.578125 39.3125 
Q 47.65625 37.796875 51.625 33 
Q 55.609375 28.21875 55.609375 21.1875 
Q 55.609375 10.40625 48.1875 4.484375 
Q 40.765625 -1.421875 27.09375 -1.421875 
Q 22.515625 -1.421875 17.65625 -0.515625 
Q 12.796875 0.390625 7.625 2.203125 
L 7.625 11.71875 
Q 11.71875 9.328125 16.59375 8.109375 
Q 21.484375 6.890625 26.8125 6.890625 
Q 36.078125 6.890625 40.9375 10.546875 
Q 45.796875 14.203125 45.796875 21.1875 
Q 45.796875 27.640625 41.28125 31.265625 
Q 36.765625 34.90625 28.71875 34.90625 
L 20.21875 34.90625 
L 20.21875 43.015625 
L 29.109375 43.015625 
Q 36.375 43.015625 40.234375 45.921875 
Q 44.09375 48.828125 44.09375 54.296875 
Q 44.09375 59.90625 40.109375 62.90625 
Q 36.140625 65.921875 28.71875 65.921875 
Q 24.65625 65.921875 20.015625 65.03125 
Q 15.375 64.15625 9.8125 62.3125 
L 9.8125 71.09375 
Q 15.4375 72.65625 20.34375 73.4375 
Q 25.25 74.21875 29.59375 74.21875 
Q 40.828125 74.21875 47.359375 69.109375 
Q 53.90625 64.015625 53.90625 55.328125 
Q 53.90625 49.265625 50.4375 45.09375 
Q 46.96875 40.921875 40.578125 39.3125 
z
" id="DejaVuSans-51"/>
       </defs>
       <use xlink:href="#DejaVuSans-51"/>
       <use x="63.623047" xlink:href="#DejaVuSans-48"/>
      </g>
     </g>
    </g>
    <g id="ytick_8">
     <g id="line2d_18">
      <g>
       <use style="stroke:#000000;stroke-width:0.8;" x="54" xlink:href="#m93572b139d" y="36.940045"/>
      </g>
     </g>
     <g id="text_18">
      <!-- 35 -->
      <g transform="translate(34.275 40.739264)scale(0.1 -0.1)">
       <use xlink:href="#DejaVuSans-51"/>
       <use x="63.623047" xlink:href="#DejaVuSans-53"/>
      </g>
     </g>
    </g>
   </g>
   <g id="line2d_19">
    <path clip-path="url(#p916d93ecd0)" d="M 69.218182 144.745545 
L 69.774097 175.053018 
L 70.052055 171.359845 
L 70.330012 182.966962 
L 70.885928 166.318369 
L 71.163885 152.249136 
L 71.441843 151.662918 
L 71.719801 177.397891 
L 71.997758 181.26693 
L 72.275716 189.70847 
L 72.553674 179.215167 
L 72.831631 176.459942 
L 73.109589 180.211737 
L 73.387547 167.549427 
L 73.665504 180.62209 
L 73.943462 178.628949 
L 74.499377 188.360168 
L 75.055293 169.542569 
L 75.33325 168.721863 
L 75.611208 134.721216 
L 75.889166 178.042731 
L 76.167123 187.539463 
L 76.445081 174.173691 
L 76.723039 175.697858 
L 77.000996 161.745869 
L 77.278954 165.02869 
L 77.556912 189.649848 
L 77.834869 172.356415 
L 78.112827 178.394461 
L 78.390785 176.108211 
L 78.668742 186.48427 
L 78.9467 165.790773 
L 79.224658 157.525099 
L 79.502615 137.76955 
L 80.058531 177.163403 
L 80.614446 145.21452 
L 80.892403 160.16308 
L 81.170361 143.514487 
L 81.448319 136.890223 
L 81.726276 183.260071 
L 82.282192 192.170586 
L 82.560149 180.856577 
L 82.838107 184.960104 
L 83.116065 143.690353 
L 83.67198 185.370456 
L 83.949938 188.477412 
L 84.227895 173.059877 
L 84.505853 177.808243 
L 84.783811 190.411931 
L 85.061768 177.749621 
L 85.339726 182.439366 
L 85.617684 181.853148 
L 85.895641 176.225455 
L 86.173599 185.135969 
L 86.451557 180.915199 
L 86.729514 173.118499 
L 87.007472 155.590579 
L 87.28543 174.877153 
L 87.563387 186.073918 
L 87.841345 190.763662 
L 88.119303 177.749621 
L 88.39726 180.797955 
L 88.953176 146.386956 
L 89.231133 146.328334 
L 89.509091 168.60462 
L 89.787049 154.594008 
L 90.065006 158.8734 
L 90.342964 148.614584 
L 90.620922 171.242601 
L 90.898879 183.963533 
L 91.176837 184.784238 
L 91.454795 178.68757 
L 91.732752 177.984109 
L 92.01071 191.584368 
L 92.288667 182.116946 
L 92.566625 162.097599 
L 92.844583 155.004361 
L 93.12254 157.056124 
L 93.400498 163.09417 
L 93.678456 186.249783 
L 93.956413 190.118822 
L 94.512329 168.633931 
L 94.790286 150.959456 
L 95.068244 156.352663 
L 95.346202 180.446225 
L 95.624159 180.446225 
L 95.902117 186.718758 
L 96.180075 171.418467 
L 96.458032 168.956351 
L 96.73599 159.166509 
L 97.013948 188.887764 
L 97.291905 177.925487 
L 97.569863 187.715328 
L 97.847821 185.780809 
L 98.125778 186.249783 
L 98.403736 171.53571 
L 98.681694 166.435613 
L 98.959651 173.118499 
L 99.237609 175.053018 
L 99.793524 189.70847 
L 100.071482 182.966962 
L 100.34944 169.542569 
L 100.627397 147.676635 
L 100.905355 182.615231 
L 101.183313 193.343022 
L 101.739228 185.604943 
L 102.017186 187.598085 
L 102.295143 186.542892 
L 102.573101 173.352986 
L 102.851059 178.863436 
L 103.129016 190.177444 
L 103.406974 190.470553 
L 103.684932 186.015296 
L 103.962889 177.339269 
L 104.240847 152.014649 
L 104.518804 158.638913 
L 105.07472 148.438719 
L 105.352677 181.149686 
L 105.908593 148.849071 
L 106.18655 162.625196 
L 106.464508 148.262853 
L 106.742466 156.763015 
L 107.020423 147.090417 
L 107.298381 171.828819 
L 107.576339 165.497664 
L 107.854296 173.235742 
L 108.132254 159.576862 
L 108.688169 176.753051 
L 108.966127 172.415037 
L 109.244085 172.82539 
L 109.522042 171.477088 
L 109.8 165.790773 
L 110.077958 168.135645 
L 110.355915 158.521669 
L 110.633873 177.984109 
L 110.911831 174.349557 
L 111.189788 176.049589 
L 111.745704 164.970068 
L 112.023661 140.231666 
L 112.579577 186.953245 
L 112.857534 191.701611 
L 113.135492 187.480841 
L 113.691407 170.011543 
L 113.969365 151.662918 
L 114.247323 167.197697 
L 114.52528 154.65263 
L 114.803238 166.787344 
L 115.081196 149.493911 
L 115.359153 181.618661 
L 115.637111 180.856577 
L 115.915068 164.735581 
L 116.193026 168.839107 
L 116.470984 184.84286 
L 116.748941 176.049589 
L 117.026899 187.422219 
L 117.304857 187.246354 
L 117.860772 153.538816 
L 118.13873 163.152792 
L 118.416687 179.860006 
L 118.694645 186.601514 
L 118.972603 174.173691 
L 119.25056 170.656383 
L 119.528518 169.777056 
L 119.806476 153.890547 
L 120.362391 170.187409 
L 120.640349 183.670424 
L 120.918306 187.949816 
L 121.196264 179.742763 
L 121.474222 162.507952 
L 121.752179 172.884012 
L 122.030137 172.18055 
L 122.308095 183.904911 
L 122.586052 109.631084 
L 122.86401 169.190838 
L 123.141968 168.252889 
L 123.419925 172.649524 
L 123.697883 180.328981 
L 123.975841 176.870294 
L 124.253798 143.92484 
L 124.531756 155.766445 
L 124.809714 159.283753 
L 125.087671 172.415037 
L 125.365629 140.231666 
L 125.643587 126.279676 
L 125.921544 147.735257 
L 126.199502 151.897405 
L 126.47746 174.349557 
L 126.755417 171.770197 
L 127.033375 173.880582 
L 127.311333 168.721863 
L 127.58929 111.565603 
L 128.145205 169.952921 
L 128.423163 179.97725 
L 128.701121 172.708146 
L 128.979078 183.201449 
L 129.257036 172.590903 
L 129.534994 182.849719 
L 129.812951 156.352663 
L 130.090909 183.494558 
L 130.368867 184.725616 
L 130.646824 176.635807 
L 130.924782 187.539463 
L 131.480697 178.628949 
L 131.758655 177.749621 
L 132.036613 149.728399 
L 132.31457 171.946063 
L 132.592528 173.587473 
L 132.870486 141.052371 
L 133.148443 155.883688 
L 133.426401 146.445577 
L 133.704359 84.951304 
L 133.982316 150.900835 
L 134.260274 175.375438 
L 134.538232 181.442795 
L 134.816189 174.232313 
L 135.094147 175.521993 
L 135.372105 162.859683 
L 135.650062 158.111317 
L 135.92802 169.132216 
L 136.205978 172.590903 
L 136.483935 185.4877 
L 136.761893 192.991291 
L 137.317808 159.51824 
L 137.595766 194.632701 
L 137.873724 197.446548 
L 138.151681 197.563792 
L 138.429639 196.684465 
L 138.707597 196.743086 
L 139.263512 144.511058 
L 139.541469 152.425002 
L 139.819427 180.504846 
L 140.097385 182.087635 
L 140.375342 176.635807 
L 140.6533 188.360168 
L 140.931258 179.508276 
L 141.209215 176.870294 
L 141.487173 164.032119 
L 141.765131 183.025584 
L 142.599004 165.468353 
L 142.876961 197.563792 
L 143.154919 197.681035 
L 143.710834 198.912093 
L 143.988792 198.267253 
L 144.544707 199.14658 
L 144.822665 198.853471 
L 145.100623 199.556933 
L 145.656538 198.267253 
L 145.934496 198.384497 
L 146.490411 199.908664 
L 147.324284 199.967286 
L 147.602242 200.319016 
L 148.158157 198.443119 
L 148.436115 198.091388 
L 148.714072 197.094817 
L 148.99203 151.897405 
L 149.269988 152.131893 
L 149.547945 171.711576 
L 149.825903 162.625196 
L 150.103861 186.191161 
L 150.381818 165.849395 
L 150.659776 174.818531 
L 150.937733 140.583397 
L 151.215691 165.614908 
L 151.493649 179.684141 
L 151.771606 156.088864 
L 152.049564 187.246354 
L 152.327522 171.946063 
L 152.605479 145.390385 
L 152.883437 131.672883 
L 153.161395 141.462724 
L 153.439352 178.33584 
L 153.71731 183.729046 
L 153.995268 159.928593 
L 154.273225 115.493264 
L 154.551183 98.844672 
L 154.829141 125.75208 
L 155.107098 132.610831 
L 155.385056 166.142504 
L 155.663014 171.652954 
L 155.940971 169.718434 
L 156.496887 46.143669 
L 156.774844 94.56528 
L 157.052802 97.320505 
L 157.33076 90.520375 
L 157.608717 111.565603 
L 157.886675 110.100058 
L 158.44259 105.234448 
L 158.720548 109.806949 
L 158.998506 110.744898 
L 159.276463 105.879288 
L 159.832379 109.337975 
L 160.110336 121.003714 
L 160.388294 113.500123 
L 160.666252 112.503552 
L 160.944209 118.189867 
L 161.778082 181.970391 
L 162.05604 178.277218 
L 162.333998 85.4789 
L 162.611955 165.849395 
L 162.889913 136.069518 
L 163.16787 183.142828 
L 163.445828 177.163403 
L 163.723786 180.387603 
L 164.001743 172.033995 
L 164.557659 130.734934 
L 165.113574 174.584044 
L 165.391532 175.932346 
L 165.669489 147.852501 
L 165.947447 135.659165 
L 166.225405 136.948845 
L 166.503362 168.194267 
L 166.78132 133.255671 
L 167.059278 139.879935 
L 167.337235 176.635807 
L 167.615193 180.563468 
L 167.893151 180.094494 
L 168.449066 133.900511 
L 168.727024 129.503876 
L 169.004981 169.24946 
L 169.282939 162.976927 
L 169.560897 173.763339 
L 169.838854 175.11164 
L 170.116812 154.242278 
L 170.39477 160.104458 
L 170.672727 147.090417 
L 170.950685 168.018402 
L 171.228643 171.359845 
L 171.5066 151.018078 
L 171.784558 172.766768 
L 172.062516 168.252889 
L 172.340473 128.859036 
L 172.618431 162.273465 
L 172.896389 242.116364 
L 173.174346 163.621766 
L 173.452304 174.906464 
L 173.730262 174.290935 
L 174.008219 158.756157 
L 174.286177 158.580291 
L 174.564134 151.545675 
L 174.842092 169.777056 
L 175.12005 179.742763 
L 175.398007 163.387279 
L 175.675965 167.608049 
L 175.953923 166.904588 
L 176.509838 139.528204 
L 176.787796 163.504523 
L 177.065753 176.225455 
L 177.343711 165.380421 
L 177.621669 162.332087 
L 177.899626 164.559715 
L 178.177584 168.780485 
L 178.455542 146.797308 
L 178.733499 169.073594 
L 179.011457 166.787344 
L 179.289415 158.22856 
L 179.567372 171.711576 
L 179.84533 145.56625 
L 180.123288 157.994073 
L 180.401245 109.748327 
L 180.679203 153.480194 
L 180.957161 171.008114 
L 181.235118 173.294364 
L 181.513076 160.397567 
L 181.791034 170.187409 
L 182.068991 97.027396 
L 182.624907 159.928593 
L 182.902864 175.697858 
L 183.180822 168.839107 
L 183.45878 175.228884 
L 183.736737 164.676959 
L 184.014695 175.404749 
L 184.292653 133.54878 
L 184.57061 171.828819 
L 184.848568 173.646095 
L 185.126526 167.197697 
L 185.404483 175.053018 
L 185.682441 174.4668 
L 185.960399 162.156221 
L 186.238356 163.797632 
L 186.516314 175.228884 
L 187.072229 180.109149 
L 187.350187 179.684141 
L 187.628144 173.821961 
L 187.906102 142.166186 
L 188.18406 153.480194 
L 188.462017 180.563468 
L 188.739975 172.766768 
L 189.017933 181.853148 
L 189.29589 187.011867 
L 189.573848 178.277218 
L 189.851806 162.683818 
L 190.407721 183.025584 
L 190.685679 167.666671 
L 190.963636 142.283429 
L 191.241594 172.415037 
L 191.519552 175.815102 
L 191.797509 141.404102 
L 192.353425 182.497988 
L 192.631382 182.732475 
L 192.90934 146.504199 
L 193.187298 135.717787 
L 193.465255 130.383203 
L 193.743213 161.745869 
L 194.021171 147.442148 
L 194.299128 166.552857 
L 194.577086 170.89087 
L 194.855044 166.02526 
L 195.133001 164.559715 
L 195.410959 166.6701 
L 195.688917 164.032119 
L 195.966874 166.083882 
L 196.244832 144.042083 
L 196.52279 163.621766 
L 196.800747 171.477088 
L 197.078705 156.821637 
L 197.356663 167.139075 
L 197.63462 138.004038 
L 197.912578 137.007467 
L 198.190535 171.828819 
L 198.468493 175.697858 
L 198.746451 174.642666 
L 199.024408 176.40132 
L 199.302366 167.197697 
L 199.580324 168.194267 
L 199.858281 183.377315 
L 200.136239 187.539463 
L 200.414197 187.480841 
L 200.692154 189.239495 
L 201.24807 176.166833 
L 201.526027 172.415037 
L 201.803985 157.935451 
L 202.081943 183.846289 
L 202.637858 174.408179 
L 202.915816 176.577185 
L 203.193773 173.118499 
L 203.471731 146.797308 
L 203.749689 149.552533 
L 204.027646 174.584044 
L 204.305604 166.376991 
L 204.583562 168.370133 
L 204.861519 162.859683 
L 205.139477 160.280324 
L 205.417435 166.963209 
L 205.695392 161.921734 
L 205.97335 170.363274 
L 206.251308 169.366703 
L 206.529265 178.804814 
L 206.807223 167.783915 
L 207.085181 162.068289 
L 207.363138 169.073594 
L 207.641096 157.759586 
L 207.919054 171.887441 
L 208.197011 174.701288 
L 208.474969 158.169939 
L 208.752927 170.949492 
L 209.030884 176.108211 
L 209.308842 158.111317 
L 209.864757 170.773627 
L 210.142715 182.146257 
L 210.420672 187.070489 
L 210.69863 183.787667 
L 210.976588 174.994397 
L 211.254545 187.45153 
L 211.532503 163.270036 
L 212.088418 191.818855 
L 212.366376 185.4877 
L 212.644334 184.84286 
L 212.922291 168.545998 
L 213.200249 184.022155 
L 213.478207 175.815102 
L 213.756164 182.146257 
L 214.034122 181.384173 
L 214.31208 182.55661 
L 214.590037 181.91177 
L 214.867995 188.536034 
L 215.145953 192.111964 
L 215.42391 173.997826 
L 215.701868 174.935775 
L 215.979826 178.834125 
L 216.257783 168.311511 
L 216.535741 185.722187 
L 217.091656 140.231666 
L 217.369614 172.473659 
L 217.647572 183.318693 
L 217.925529 179.508276 
L 218.203487 171.828819 
L 218.481445 170.363274 
L 218.759402 170.656383 
L 219.03736 153.949169 
L 219.593275 175.932346 
L 219.871233 148.849071 
L 220.149191 178.628949 
L 220.427148 184.022155 
L 220.705106 173.118499 
L 220.983064 150.43186 
L 221.261021 158.521669 
L 221.538979 178.804814 
L 221.816936 178.453083 
L 222.094894 183.084206 
L 222.372852 168.897729 
L 222.650809 169.542569 
L 222.928767 170.656383 
L 223.206725 178.511705 
L 223.484682 136.12814 
L 223.76264 141.286859 
L 224.040598 179.097923 
L 224.318555 167.197697 
L 224.596513 174.642666 
L 225.152428 177.691 
L 225.430386 149.78702 
L 225.708344 166.963209 
L 225.986301 152.776732 
L 226.264259 184.432507 
L 226.542217 176.753051 
L 226.820174 183.963533 
L 227.098132 176.108211 
L 227.37609 178.511705 
L 227.654047 174.173691 
L 227.932005 184.725616 
L 228.209963 174.584044 
L 228.48792 183.201449 
L 228.765878 160.866542 
L 229.043836 126.279676 
L 229.321793 169.952921 
L 229.599751 170.656383 
L 229.877709 169.718434 
L 230.433624 164.735581 
L 230.711582 153.362951 
L 230.989539 155.590579 
L 231.545455 177.515134 
L 231.823412 176.928916 
L 232.10137 171.770197 
L 232.379328 154.711252 
L 232.657285 167.95978 
L 232.935243 171.066736 
L 233.2132 147.031796 
L 233.491158 176.870294 
L 233.769116 168.897729 
L 234.047073 148.028366 
L 234.325031 163.856254 
L 234.880946 80.144316 
L 235.158904 146.562821 
L 235.436862 151.018078 
L 235.714819 181.618661 
L 235.992777 177.456512 
L 236.270735 182.497988 
L 236.548692 118.424355 
L 236.82665 136.304005 
L 237.104608 176.811673 
L 237.382565 179.625519 
L 237.660523 186.601514 
L 237.938481 175.053018 
L 238.216438 172.590903 
L 238.494396 156.58715 
L 238.772354 151.0767 
L 239.050311 168.370133 
L 239.328269 169.542569 
L 239.606227 174.290935 
L 239.884184 174.994397 
L 240.162142 180.211737 
L 240.4401 153.949169 
L 240.718057 138.238525 
L 240.996015 168.428754 
L 241.273973 176.987538 
L 241.55193 178.804814 
L 241.829888 184.022155 
L 242.107846 182.380744 
L 242.385803 171.242601 
L 242.663761 133.783268 
L 242.941719 177.515134 
L 243.219676 173.235742 
L 243.497634 162.801061 
L 243.775592 192.053342 
L 244.331507 193.225778 
L 244.609465 192.756804 
L 244.887422 193.636131 
L 245.16538 193.987862 
L 245.443337 194.105105 
L 245.721295 195.922381 
L 245.999253 198.882782 
L 246.555168 199.087959 
L 246.833126 198.970715 
L 247.111083 199.263824 
L 247.389041 198.560362 
L 247.666999 199.732798 
L 248.222914 183.260071 
L 248.500872 184.139398 
L 248.778829 183.846289 
L 249.056787 184.608373 
L 249.334745 184.373885 
L 249.612702 184.725616 
L 249.89066 183.201449 
L 250.446575 92.513517 
L 250.724533 150.900835 
L 251.002491 179.215167 
L 251.836364 173.528852 
L 252.114321 124.814131 
L 252.392279 107.579321 
L 252.670237 136.479871 
L 252.948194 119.303682 
L 253.50411 151.545675 
L 253.782067 56.57835 
L 254.060025 126.162433 
L 254.337983 80.378803 
L 254.893898 141.579968 
L 255.171856 148.614584 
L 255.727771 82.137457 
L 256.005729 98.668806 
L 256.283686 44.443636 
L 256.561644 83.19265 
L 256.839601 80.261559 
L 257.117559 127.276247 
L 257.395517 149.669777 
L 257.673474 151.369809 
L 257.951432 181.501417 
L 258.22939 152.307758 
L 258.507347 93.041113 
L 258.785305 146.621443 
L 259.063263 135.541922 
L 259.34122 141.521346 
L 259.619178 136.245383 
L 259.897136 118.951951 
L 260.175093 138.297147 
L 260.453051 179.508276 
L 260.731009 126.103811 
L 261.008966 187.12911 
L 261.286924 189.473983 
L 261.842839 179.449654 
L 262.120797 158.638913 
L 262.398755 157.818208 
L 262.676712 167.95978 
L 262.95467 169.132216 
L 263.232628 177.691 
L 263.510585 175.75648 
L 263.788543 176.40132 
L 264.066501 134.428107 
L 264.344458 124.696888 
L 264.622416 175.287506 
L 264.900374 179.156545 
L 265.178331 176.577185 
L 265.456289 172.708146 
L 265.734247 147.50077 
L 266.012204 168.428754 
L 266.290162 180.973821 
L 266.56812 140.114423 
L 266.846077 164.325228 
L 267.124035 150.255995 
L 267.401993 130.148716 
L 267.67995 145.53694 
L 267.957908 135.4833 
L 268.235866 147.031796 
L 268.513823 168.545998 
L 268.791781 125.10724 
L 269.069738 143.338622 
L 269.347696 177.515134 
L 269.625654 180.328981 
L 269.903611 180.856577 
L 270.181569 161.394138 
L 270.459527 156.411284 
L 270.737484 181.325552 
L 271.015442 183.025584 
L 271.2934 176.753051 
L 271.571357 167.842536 
L 271.849315 147.266283 
L 272.127273 166.083882 
L 272.40523 175.815102 
L 272.683188 146.680065 
L 272.961146 180.328981 
L 273.239103 177.984109 
L 273.517061 171.770197 
L 273.795019 173.880582 
L 274.072976 177.632378 
L 274.350934 173.997826 
L 274.628892 194.867189 
L 274.906849 192.053342 
L 275.184807 190.880906 
L 275.462765 157.935451 
L 275.740722 153.949169 
L 276.01868 184.139398 
L 276.296638 191.34988 
L 276.574595 192.698182 
L 276.852553 191.818855 
L 277.130511 192.170586 
L 277.408468 105.29307 
L 277.686426 158.463048 
L 277.964384 185.282523 
L 278.242341 181.442795 
L 278.520299 186.660136 
L 278.798257 182.497988 
L 279.076214 185.253213 
L 279.354172 186.894623 
L 279.63213 175.287506 
L 279.910087 177.749621 
L 280.188045 182.791097 
L 280.466002 192.287829 
L 280.74396 187.598085 
L 281.021918 161.511381 
L 281.299875 162.038978 
L 281.577833 166.083882 
L 281.855791 178.394461 
L 282.133748 180.035872 
L 282.689664 189.767092 
L 282.967621 187.77395 
L 283.245579 158.22856 
L 283.523537 159.635484 
L 283.801494 175.639236 
L 284.079452 183.318693 
L 284.35741 180.797955 
L 284.635367 188.946386 
L 284.913325 175.11164 
L 285.191283 149.962886 
L 285.747198 191.056771 
L 286.025156 191.115393 
L 286.303113 190.880906 
L 286.859029 155.180226 
L 287.136986 180.446225 
L 287.414944 136.919534 
L 287.692902 169.659812 
L 287.970859 175.463371 
L 288.248817 186.953245 
L 288.526775 186.836001 
L 288.804732 190.646419 
L 289.08269 173.880582 
L 289.638605 185.956674 
L 289.916563 182.791097 
L 290.194521 192.463695 
L 290.750436 190.70504 
L 291.028394 149.78702 
L 291.306351 181.853148 
L 291.584309 190.587797 
L 291.862267 185.722187 
L 292.140224 182.966962 
L 292.418182 186.073918 
L 292.696139 193.694753 
L 292.974097 174.408179 
L 293.252055 174.290935 
L 293.530012 190.294688 
L 293.80797 190.763662 
L 294.085928 167.842536 
L 294.363885 174.759909 
L 294.641843 161.863112 
L 294.919801 176.40132 
L 295.197758 180.446225 
L 295.475716 186.48427 
L 295.753674 185.370456 
L 296.031631 186.718758 
L 296.309589 190.177444 
L 296.587547 182.497988 
L 296.865504 184.84286 
L 297.143462 153.597438 
L 297.42142 154.711252 
L 297.699377 179.830696 
L 297.977335 176.987538 
L 298.255293 184.549751 
L 298.53325 188.41879 
L 298.811208 181.208308 
L 299.089166 161.276894 
L 299.367123 181.149686 
L 299.645081 182.732475 
L 299.923039 177.163403 
L 300.200996 181.325552 
L 300.478954 178.453083 
L 300.756912 157.290611 
L 301.312827 184.080776 
L 301.590785 176.577185 
L 301.868742 187.656707 
L 302.1467 184.608373 
L 302.424658 154.535387 
L 302.702615 146.504199 
L 303.258531 179.918628 
L 303.536488 179.068612 
L 304.092403 173.880582 
L 304.370361 158.756157 
L 304.648319 166.787344 
L 304.926276 164.911446 
L 305.204234 181.560039 
L 305.482192 175.287506 
L 305.760149 182.966962 
L 306.038107 177.515134 
L 306.316065 178.628949 
L 306.594022 182.732475 
L 306.87198 165.732151 
L 307.149938 163.211414 
L 307.427895 178.922058 
L 307.705853 179.97725 
L 307.983811 183.260071 
L 308.261768 164.970068 
L 308.539726 179.801385 
L 308.817684 172.708146 
L 309.095641 160.573433 
L 309.373599 178.218596 
L 309.651557 181.560039 
L 309.929514 177.397891 
L 310.207472 176.694429 
L 310.48543 183.435937 
L 310.763387 160.749298 
L 311.041345 175.639236 
L 311.319303 174.525422 
L 311.59726 179.97725 
L 311.875218 177.691 
L 312.153176 182.204879 
L 312.431133 139.05923 
L 312.709091 151.838784 
L 312.987049 176.518564 
L 313.265006 172.063306 
L 313.542964 178.394461 
L 313.820922 155.238848 
L 314.098879 173.880582 
L 314.654795 159.752727 
L 314.932752 170.011543 
L 315.21071 175.75648 
L 315.488667 175.639236 
L 315.766625 174.642666 
L 316.044583 140.817884 
L 316.32254 172.063306 
L 316.600498 172.356415 
L 316.878456 177.163403 
L 317.156413 172.063306 
L 317.434371 179.742763 
L 317.712329 176.987538 
L 317.990286 182.90834 
L 318.824159 160.925163 
L 319.102117 162.625196 
L 319.380075 178.394461 
L 319.658032 174.701288 
L 319.93599 173.646095 
L 320.213948 136.890223 
L 320.491905 151.897405 
L 320.769863 176.665118 
L 321.047821 176.635807 
L 321.325778 177.397891 
L 321.603736 168.194267 
L 321.881694 172.766768 
L 322.437609 144.56968 
L 322.715567 165.966639 
L 323.271482 176.928916 
L 323.54944 181.384173 
L 323.827397 176.166833 
L 324.383313 150.842213 
L 324.939228 171.125357 
L 325.217186 180.504846 
L 325.495143 175.697858 
L 325.773101 177.104782 
L 326.051059 153.480194 
L 326.329016 155.121605 
L 326.606974 148.321475 
L 326.884932 171.594332 
L 327.440847 177.280647 
L 327.718804 185.253213 
L 327.996762 175.463371 
L 328.27472 150.549104 
L 328.552677 179.918628 
L 328.830635 177.632378 
L 329.108593 179.156545 
L 329.38655 155.473335 
L 329.942466 197.153439 
L 330.498381 197.974144 
L 330.776339 198.237942 
L 331.054296 201.960427 
L 331.332254 207.353633 
L 331.610212 207.646742 
L 331.888169 206.884659 
L 332.166127 207.881229 
L 332.722042 198.325875 
L 333 198.384497 
L 333.277958 198.032766 
L 333.555915 198.384497 
L 333.833873 197.622413 
L 334.111831 193.577509 
L 334.389788 160.456189 
L 334.667746 183.729046 
L 334.945704 192.522316 
L 335.223661 188.946386 
L 335.501619 189.591226 
L 335.779577 151.897405 
L 336.057534 157.114746 
L 336.61345 186.718758 
L 336.891407 191.34988 
L 337.169365 184.84286 
L 337.447323 187.832572 
L 338.003238 173.001255 
L 338.281196 189.532604 
L 338.559153 185.370456 
L 338.837111 140.173044 
L 339.115068 147.266283 
L 339.393026 188.41879 
L 339.670984 146.85593 
L 339.948941 170.715005 
L 340.226899 158.990644 
L 340.782814 172.18055 
L 341.060772 172.239172 
L 341.33873 188.360168 
L 341.616687 151.428431 
L 341.894645 129.32801 
L 342.172603 172.004685 
L 342.45056 168.135645 
L 342.728518 178.746192 
L 343.006476 169.308082 
L 343.284433 172.884012 
L 343.562391 172.473659 
L 343.840349 155.356092 
L 344.118306 173.352986 
L 344.674222 188.008437 
L 345.230137 178.804814 
L 345.508095 157.349233 
L 345.786052 199.732798 
L 346.341968 183.963533 
L 346.619925 189.825713 
L 346.897883 172.532281 
L 347.175841 183.260071 
L 347.453798 142.576538 
L 348.009714 182.204879 
L 348.287671 184.84286 
L 348.565629 185.077347 
L 348.843587 186.425649 
L 349.121544 174.525422 
L 349.399502 194.632701 
L 349.67746 194.808567 
L 349.955417 195.160298 
L 350.511333 191.936098 
L 350.78929 191.99472 
L 351.067248 193.518887 
L 351.345205 193.401643 
L 351.623163 193.753374 
L 351.901121 194.57408 
L 352.179078 218.345222 
L 352.457036 230.230793 
L 353.568867 147.383526 
L 353.846824 170.773627 
L 354.40274 188.653277 
L 354.680697 184.080776 
L 354.958655 168.018402 
L 355.236613 167.608049 
L 355.51457 140.202355 
L 355.792528 182.55661 
L 356.070486 131.145286 
L 356.348443 182.673853 
L 356.626401 180.270359 
L 356.904359 140.642019 
L 357.182316 119.948522 
L 357.460274 119.538169 
L 357.738232 89.758292 
L 358.016189 150.197373 
L 358.294147 172.766768 
L 358.572105 182.2635 
L 358.850062 182.029013 
L 359.12802 138.707499 
L 359.405978 175.287506 
L 359.683935 173.528852 
L 359.961893 163.973497 
L 360.239851 183.318693 
L 360.517808 183.904911 
L 360.795766 184.84286 
L 361.351681 130.61769 
L 361.629639 173.411608 
L 361.907597 181.501417 
L 362.185554 179.097923 
L 362.463512 183.846289 
L 362.741469 175.404749 
L 363.019427 155.414714 
L 363.297385 151.545675 
L 363.575342 170.421896 
L 363.8533 178.130663 
L 364.131258 169.483947 
L 364.409215 187.891194 
L 364.687173 185.722187 
L 364.965131 146.445577 
L 365.243088 151.193944 
L 365.799004 187.949816 
L 366.076961 184.432507 
L 366.354919 185.370456 
L 366.632877 182.966962 
L 366.910834 169.366703 
L 367.188792 161.863112 
L 367.46675 160.104458 
L 367.744707 173.763339 
L 368.022665 174.642666 
L 368.300623 161.745869 
L 368.57858 139.645448 
L 368.856538 159.635484 
L 369.690411 184.666995 
L 369.968369 187.070489 
L 370.246326 156.352663 
L 370.524284 160.221702 
L 370.802242 159.694105 
L 371.080199 129.386632 
L 371.358157 166.904588 
L 371.636115 179.156545 
L 371.914072 184.373885 
L 372.19203 184.608373 
L 372.469988 185.194591 
L 372.747945 162.156221 
L 373.025903 152.249136 
L 373.303861 184.549751 
L 373.581818 185.663565 
L 373.581818 185.663565 
" style="fill:none;stroke:#000000;stroke-linecap:square;stroke-width:1.5;"/>
   </g>
   <g id="patch_3">
    <path d="M 54 252 
L 54 34.56 
" style="fill:none;stroke:#000000;stroke-linecap:square;stroke-linejoin:miter;stroke-width:0.8;"/>
   </g>
   <g id="patch_4">
    <path d="M 388.8 252 
L 388.8 34.56 
" style="fill:none;stroke:#000000;stroke-linecap:square;stroke-linejoin:miter;stroke-width:0.8;"/>
   </g>
   <g id="patch_5">
    <path d="M 54 252 
L 388.8 252 
" style="fill:none;stroke:#000000;stroke-linecap:square;stroke-linejoin:miter;stroke-width:0.8;"/>
   </g>
   <g id="patch_6">
    <path d="M 54 34.56 
L 388.8 34.56 
" style="fill:none;stroke:#000000;stroke-linecap:square;stroke-linejoin:miter;stroke-width:0.8;"/>
   </g>
   <g id="text_19">
    <!-- Soma Diária de Energia - Casa 12 -->
    <g transform="translate(120.413438 28.56)scale(0.12 -0.12)">
     <defs>
      <path d="M 53.515625 70.515625 
L 53.515625 60.890625 
Q 47.90625 63.578125 42.921875 64.890625 
Q 37.9375 66.21875 33.296875 66.21875 
Q 25.25 66.21875 20.875 63.09375 
Q 16.5 59.96875 16.5 54.203125 
Q 16.5 49.359375 19.40625 46.890625 
Q 22.3125 44.4375 30.421875 42.921875 
L 36.375 41.703125 
Q 47.40625 39.59375 52.65625 34.296875 
Q 57.90625 29 57.90625 20.125 
Q 57.90625 9.515625 50.796875 4.046875 
Q 43.703125 -1.421875 29.984375 -1.421875 
Q 24.8125 -1.421875 18.96875 -0.25 
Q 13.140625 0.921875 6.890625 3.21875 
L 6.890625 13.375 
Q 12.890625 10.015625 18.65625 8.296875 
Q 24.421875 6.59375 29.984375 6.59375 
Q 38.421875 6.59375 43.015625 9.90625 
Q 47.609375 13.234375 47.609375 19.390625 
Q 47.609375 24.75 44.3125 27.78125 
Q 41.015625 30.8125 33.5 32.328125 
L 27.484375 33.5 
Q 16.453125 35.6875 11.515625 40.375 
Q 6.59375 45.0625 6.59375 53.421875 
Q 6.59375 63.09375 13.40625 68.65625 
Q 20.21875 74.21875 32.171875 74.21875 
Q 37.3125 74.21875 42.625 73.28125 
Q 47.953125 72.359375 53.515625 70.515625 
z
" id="DejaVuSans-83"/>
      <path d="M 30.609375 48.390625 
Q 23.390625 48.390625 19.1875 42.75 
Q 14.984375 37.109375 14.984375 27.296875 
Q 14.984375 17.484375 19.15625 11.84375 
Q 23.34375 6.203125 30.609375 6.203125 
Q 37.796875 6.203125 41.984375 11.859375 
Q 46.1875 17.53125 46.1875 27.296875 
Q 46.1875 37.015625 41.984375 42.703125 
Q 37.796875 48.390625 30.609375 48.390625 
z
M 30.609375 56 
Q 42.328125 56 49.015625 48.375 
Q 55.71875 40.765625 55.71875 27.296875 
Q 55.71875 13.875 49.015625 6.21875 
Q 42.328125 -1.421875 30.609375 -1.421875 
Q 18.84375 -1.421875 12.171875 6.21875 
Q 5.515625 13.875 5.515625 27.296875 
Q 5.515625 40.765625 12.171875 48.375 
Q 18.84375 56 30.609375 56 
z
" id="DejaVuSans-111"/>
      <path d="M 52 44.1875 
Q 55.375 50.25 60.0625 53.125 
Q 64.75 56 71.09375 56 
Q 79.640625 56 84.28125 50.015625 
Q 88.921875 44.046875 88.921875 33.015625 
L 88.921875 0 
L 79.890625 0 
L 79.890625 32.71875 
Q 79.890625 40.578125 77.09375 44.375 
Q 74.3125 48.1875 68.609375 48.1875 
Q 61.625 48.1875 57.5625 43.546875 
Q 53.515625 38.921875 53.515625 30.90625 
L 53.515625 0 
L 44.484375 0 
L 44.484375 32.71875 
Q 44.484375 40.625 41.703125 44.40625 
Q 38.921875 48.1875 33.109375 48.1875 
Q 26.21875 48.1875 22.15625 43.53125 
Q 18.109375 38.875 18.109375 30.90625 
L 18.109375 0 
L 9.078125 0 
L 9.078125 54.6875 
L 18.109375 54.6875 
L 18.109375 46.1875 
Q 21.1875 51.21875 25.484375 53.609375 
Q 29.78125 56 35.6875 56 
Q 41.65625 56 45.828125 52.96875 
Q 50 49.953125 52 44.1875 
z
" id="DejaVuSans-109"/>
      <path d="M 34.28125 27.484375 
Q 23.390625 27.484375 19.1875 25 
Q 14.984375 22.515625 14.984375 16.5 
Q 14.984375 11.71875 18.140625 8.90625 
Q 21.296875 6.109375 26.703125 6.109375 
Q 34.1875 6.109375 38.703125 11.40625 
Q 43.21875 16.703125 43.21875 25.484375 
L 43.21875 27.484375 
z
M 52.203125 31.203125 
L 52.203125 0 
L 43.21875 0 
L 43.21875 8.296875 
Q 40.140625 3.328125 35.546875 0.953125 
Q 30.953125 -1.421875 24.3125 -1.421875 
Q 15.921875 -1.421875 10.953125 3.296875 
Q 6 8.015625 6 15.921875 
Q 6 25.140625 12.171875 29.828125 
Q 18.359375 34.515625 30.609375 34.515625 
L 43.21875 34.515625 
L 43.21875 35.40625 
Q 43.21875 41.609375 39.140625 45 
Q 35.0625 48.390625 27.6875 48.390625 
Q 23 48.390625 18.546875 47.265625 
Q 14.109375 46.140625 10.015625 43.890625 
L 10.015625 52.203125 
Q 14.9375 54.109375 19.578125 55.046875 
Q 24.21875 56 28.609375 56 
Q 40.484375 56 46.34375 49.84375 
Q 52.203125 43.703125 52.203125 31.203125 
z
" id="DejaVuSans-97"/>
      <path id="DejaVuSans-32"/>
      <path d="M 19.671875 64.796875 
L 19.671875 8.109375 
L 31.59375 8.109375 
Q 46.6875 8.109375 53.6875 14.9375 
Q 60.6875 21.78125 60.6875 36.53125 
Q 60.6875 51.171875 53.6875 57.984375 
Q 46.6875 64.796875 31.59375 64.796875 
z
M 9.8125 72.90625 
L 30.078125 72.90625 
Q 51.265625 72.90625 61.171875 64.09375 
Q 71.09375 55.28125 71.09375 36.53125 
Q 71.09375 17.671875 61.125 8.828125 
Q 51.171875 0 30.078125 0 
L 9.8125 0 
z
" id="DejaVuSans-68"/>
      <path d="M 9.421875 54.6875 
L 18.40625 54.6875 
L 18.40625 0 
L 9.421875 0 
z
M 9.421875 75.984375 
L 18.40625 75.984375 
L 18.40625 64.59375 
L 9.421875 64.59375 
z
" id="DejaVuSans-105"/>
      <path d="M 34.28125 27.484375 
Q 23.390625 27.484375 19.1875 25 
Q 14.984375 22.515625 14.984375 16.5 
Q 14.984375 11.71875 18.140625 8.90625 
Q 21.296875 6.109375 26.703125 6.109375 
Q 34.1875 6.109375 38.703125 11.40625 
Q 43.21875 16.703125 43.21875 25.484375 
L 43.21875 27.484375 
z
M 52.203125 31.203125 
L 52.203125 0 
L 43.21875 0 
L 43.21875 8.296875 
Q 40.140625 3.328125 35.546875 0.953125 
Q 30.953125 -1.421875 24.3125 -1.421875 
Q 15.921875 -1.421875 10.953125 3.296875 
Q 6 8.015625 6 15.921875 
Q 6 25.140625 12.171875 29.828125 
Q 18.359375 34.515625 30.609375 34.515625 
L 43.21875 34.515625 
L 43.21875 35.40625 
Q 43.21875 41.609375 39.140625 45 
Q 35.0625 48.390625 27.6875 48.390625 
Q 23 48.390625 18.546875 47.265625 
Q 14.109375 46.140625 10.015625 43.890625 
L 10.015625 52.203125 
Q 14.9375 54.109375 19.578125 55.046875 
Q 24.21875 56 28.609375 56 
Q 40.484375 56 46.34375 49.84375 
Q 52.203125 43.703125 52.203125 31.203125 
z
M 35.796875 79.984375 
L 45.515625 79.984375 
L 29.59375 61.625 
L 22.125 61.625 
z
" id="DejaVuSans-225"/>
      <path d="M 41.109375 46.296875 
Q 39.59375 47.171875 37.8125 47.578125 
Q 36.03125 48 33.890625 48 
Q 26.265625 48 22.1875 43.046875 
Q 18.109375 38.09375 18.109375 28.8125 
L 18.109375 0 
L 9.078125 0 
L 9.078125 54.6875 
L 18.109375 54.6875 
L 18.109375 46.1875 
Q 20.953125 51.171875 25.484375 53.578125 
Q 30.03125 56 36.53125 56 
Q 37.453125 56 38.578125 55.875 
Q 39.703125 55.765625 41.0625 55.515625 
z
" id="DejaVuSans-114"/>
      <path d="M 45.40625 46.390625 
L 45.40625 75.984375 
L 54.390625 75.984375 
L 54.390625 0 
L 45.40625 0 
L 45.40625 8.203125 
Q 42.578125 3.328125 38.25 0.953125 
Q 33.9375 -1.421875 27.875 -1.421875 
Q 17.96875 -1.421875 11.734375 6.484375 
Q 5.515625 14.40625 5.515625 27.296875 
Q 5.515625 40.1875 11.734375 48.09375 
Q 17.96875 56 27.875 56 
Q 33.9375 56 38.25 53.625 
Q 42.578125 51.265625 45.40625 46.390625 
z
M 14.796875 27.296875 
Q 14.796875 17.390625 18.875 11.75 
Q 22.953125 6.109375 30.078125 6.109375 
Q 37.203125 6.109375 41.296875 11.75 
Q 45.40625 17.390625 45.40625 27.296875 
Q 45.40625 37.203125 41.296875 42.84375 
Q 37.203125 48.484375 30.078125 48.484375 
Q 22.953125 48.484375 18.875 42.84375 
Q 14.796875 37.203125 14.796875 27.296875 
z
" id="DejaVuSans-100"/>
      <path d="M 56.203125 29.59375 
L 56.203125 25.203125 
L 14.890625 25.203125 
Q 15.484375 15.921875 20.484375 11.0625 
Q 25.484375 6.203125 34.421875 6.203125 
Q 39.59375 6.203125 44.453125 7.46875 
Q 49.3125 8.734375 54.109375 11.28125 
L 54.109375 2.78125 
Q 49.265625 0.734375 44.1875 -0.34375 
Q 39.109375 -1.421875 33.890625 -1.421875 
Q 20.796875 -1.421875 13.15625 6.1875 
Q 5.515625 13.8125 5.515625 26.8125 
Q 5.515625 40.234375 12.765625 48.109375 
Q 20.015625 56 32.328125 56 
Q 43.359375 56 49.78125 48.890625 
Q 56.203125 41.796875 56.203125 29.59375 
z
M 47.21875 32.234375 
Q 47.125 39.59375 43.09375 43.984375 
Q 39.0625 48.390625 32.421875 48.390625 
Q 24.90625 48.390625 20.390625 44.140625 
Q 15.875 39.890625 15.1875 32.171875 
z
" id="DejaVuSans-101"/>
      <path d="M 9.8125 72.90625 
L 55.90625 72.90625 
L 55.90625 64.59375 
L 19.671875 64.59375 
L 19.671875 43.015625 
L 54.390625 43.015625 
L 54.390625 34.71875 
L 19.671875 34.71875 
L 19.671875 8.296875 
L 56.78125 8.296875 
L 56.78125 0 
L 9.8125 0 
z
" id="DejaVuSans-69"/>
      <path d="M 54.890625 33.015625 
L 54.890625 0 
L 45.90625 0 
L 45.90625 32.71875 
Q 45.90625 40.484375 42.875 44.328125 
Q 39.84375 48.1875 33.796875 48.1875 
Q 26.515625 48.1875 22.3125 43.546875 
Q 18.109375 38.921875 18.109375 30.90625 
L 18.109375 0 
L 9.078125 0 
L 9.078125 54.6875 
L 18.109375 54.6875 
L 18.109375 46.1875 
Q 21.34375 51.125 25.703125 53.5625 
Q 30.078125 56 35.796875 56 
Q 45.21875 56 50.046875 50.171875 
Q 54.890625 44.34375 54.890625 33.015625 
z
" id="DejaVuSans-110"/>
      <path d="M 45.40625 27.984375 
Q 45.40625 37.75 41.375 43.109375 
Q 37.359375 48.484375 30.078125 48.484375 
Q 22.859375 48.484375 18.828125 43.109375 
Q 14.796875 37.75 14.796875 27.984375 
Q 14.796875 18.265625 18.828125 12.890625 
Q 22.859375 7.515625 30.078125 7.515625 
Q 37.359375 7.515625 41.375 12.890625 
Q 45.40625 18.265625 45.40625 27.984375 
z
M 54.390625 6.78125 
Q 54.390625 -7.171875 48.1875 -13.984375 
Q 42 -20.796875 29.203125 -20.796875 
Q 24.46875 -20.796875 20.265625 -20.09375 
Q 16.0625 -19.390625 12.109375 -17.921875 
L 12.109375 -9.1875 
Q 16.0625 -11.328125 19.921875 -12.34375 
Q 23.78125 -13.375 27.78125 -13.375 
Q 36.625 -13.375 41.015625 -8.765625 
Q 45.40625 -4.15625 45.40625 5.171875 
L 45.40625 9.625 
Q 42.625 4.78125 38.28125 2.390625 
Q 33.9375 0 27.875 0 
Q 17.828125 0 11.671875 7.65625 
Q 5.515625 15.328125 5.515625 27.984375 
Q 5.515625 40.671875 11.671875 48.328125 
Q 17.828125 56 27.875 56 
Q 33.9375 56 38.28125 53.609375 
Q 42.625 51.21875 45.40625 46.390625 
L 45.40625 54.6875 
L 54.390625 54.6875 
z
" id="DejaVuSans-103"/>
      <path d="M 64.40625 67.28125 
L 64.40625 56.890625 
Q 59.421875 61.53125 53.78125 63.8125 
Q 48.140625 66.109375 41.796875 66.109375 
Q 29.296875 66.109375 22.65625 58.46875 
Q 16.015625 50.828125 16.015625 36.375 
Q 16.015625 21.96875 22.65625 14.328125 
Q 29.296875 6.6875 41.796875 6.6875 
Q 48.140625 6.6875 53.78125 8.984375 
Q 59.421875 11.28125 64.40625 15.921875 
L 64.40625 5.609375 
Q 59.234375 2.09375 53.4375 0.328125 
Q 47.65625 -1.421875 41.21875 -1.421875 
Q 24.65625 -1.421875 15.125 8.703125 
Q 5.609375 18.84375 5.609375 36.375 
Q 5.609375 53.953125 15.125 64.078125 
Q 24.65625 74.21875 41.21875 74.21875 
Q 47.75 74.21875 53.53125 72.484375 
Q 59.328125 70.75 64.40625 67.28125 
z
" id="DejaVuSans-67"/>
      <path d="M 44.28125 53.078125 
L 44.28125 44.578125 
Q 40.484375 46.53125 36.375 47.5 
Q 32.28125 48.484375 27.875 48.484375 
Q 21.1875 48.484375 17.84375 46.4375 
Q 14.5 44.390625 14.5 40.28125 
Q 14.5 37.15625 16.890625 35.375 
Q 19.28125 33.59375 26.515625 31.984375 
L 29.59375 31.296875 
Q 39.15625 29.25 43.1875 25.515625 
Q 47.21875 21.78125 47.21875 15.09375 
Q 47.21875 7.46875 41.1875 3.015625 
Q 35.15625 -1.421875 24.609375 -1.421875 
Q 20.21875 -1.421875 15.453125 -0.5625 
Q 10.6875 0.296875 5.421875 2 
L 5.421875 11.28125 
Q 10.40625 8.6875 15.234375 7.390625 
Q 20.0625 6.109375 24.8125 6.109375 
Q 31.15625 6.109375 34.5625 8.28125 
Q 37.984375 10.453125 37.984375 14.40625 
Q 37.984375 18.0625 35.515625 20.015625 
Q 33.0625 21.96875 24.703125 23.78125 
L 21.578125 24.515625 
Q 13.234375 26.265625 9.515625 29.90625 
Q 5.8125 33.546875 5.8125 39.890625 
Q 5.8125 47.609375 11.28125 51.796875 
Q 16.75 56 26.8125 56 
Q 31.78125 56 36.171875 55.265625 
Q 40.578125 54.546875 44.28125 53.078125 
z
" id="DejaVuSans-115"/>
     </defs>
     <use xlink:href="#DejaVuSans-83"/>
     <use x="63.476562" xlink:href="#DejaVuSans-111"/>
     <use x="124.658203" xlink:href="#DejaVuSans-109"/>
     <use x="222.070312" xlink:href="#DejaVuSans-97"/>
     <use x="283.349609" xlink:href="#DejaVuSans-32"/>
     <use x="315.136719" xlink:href="#DejaVuSans-68"/>
     <use x="392.138672" xlink:href="#DejaVuSans-105"/>
     <use x="419.921875" xlink:href="#DejaVuSans-225"/>
     <use x="481.201172" xlink:href="#DejaVuSans-114"/>
     <use x="522.314453" xlink:href="#DejaVuSans-105"/>
     <use x="550.097656" xlink:href="#DejaVuSans-97"/>
     <use x="611.376953" xlink:href="#DejaVuSans-32"/>
     <use x="643.164062" xlink:href="#DejaVuSans-100"/>
     <use x="706.640625" xlink:href="#DejaVuSans-101"/>
     <use x="768.164062" xlink:href="#DejaVuSans-32"/>
     <use x="799.951172" xlink:href="#DejaVuSans-69"/>
     <use x="863.134766" xlink:href="#DejaVuSans-110"/>
     <use x="926.513672" xlink:href="#DejaVuSans-101"/>
     <use x="988.037109" xlink:href="#DejaVuSans-114"/>
     <use x="1027.400391" xlink:href="#DejaVuSans-103"/>
     <use x="1090.876953" xlink:href="#DejaVuSans-105"/>
     <use x="1118.660156" xlink:href="#DejaVuSans-97"/>
     <use x="1179.939453" xlink:href="#DejaVuSans-32"/>
     <use x="1211.726562" xlink:href="#DejaVuSans-45"/>
     <use x="1247.810547" xlink:href="#DejaVuSans-32"/>
     <use x="1279.597656" xlink:href="#DejaVuSans-67"/>
     <use x="1349.421875" xlink:href="#DejaVuSans-97"/>
     <use x="1410.701172" xlink:href="#DejaVuSans-115"/>
     <use x="1462.800781" xlink:href="#DejaVuSans-97"/>
     <use x="1524.080078" xlink:href="#DejaVuSans-32"/>
     <use x="1555.867188" xlink:href="#DejaVuSans-49"/>
     <use x="1619.490234" xlink:href="#DejaVuSans-50"/>
    </g>
   </g>
  </g>
 </g>
 <defs>
  <clipPath id="p916d93ecd0">
   <rect height="217.44" width="334.8" x="54" y="34.56"/>
  </clipPath>
 </defs>
</svg>
