<?xml version="1.0" encoding="utf-8" standalone="no"?>
<!DOCTYPE svg PUBLIC "-//W3C//DTD SVG 1.1//EN"
  "http://www.w3.org/Graphics/SVG/1.1/DTD/svg11.dtd">
<!-- Created with matplotlib (https://matplotlib.org/) -->
<svg height="288pt" version="1.1" viewBox="0 0 432 288" width="432pt" xmlns="http://www.w3.org/2000/svg" xmlns:xlink="http://www.w3.org/1999/xlink">
 <metadata>
  <rdf:RDF xmlns:cc="http://creativecommons.org/ns#" xmlns:dc="http://purl.org/dc/elements/1.1/" xmlns:rdf="http://www.w3.org/1999/02/22-rdf-syntax-ns#">
   <cc:Work>
    <dc:type rdf:resource="http://purl.org/dc/dcmitype/StillImage"/>
    <dc:date>2021-07-21T14:57:45.859093</dc:date>
    <dc:format>image/svg+xml</dc:format>
    <dc:creator>
     <cc:Agent>
      <dc:title>Matplotlib v3.3.4, https://matplotlib.org/</dc:title>
     </cc:Agent>
    </dc:creator>
   </cc:Work>
  </rdf:RDF>
 </metadata>
 <defs>
  <style type="text/css">*{stroke-linecap:butt;stroke-linejoin:round;}</style>
 </defs>
 <g id="figure_1">
  <g id="patch_1">
   <path d="M 0 288 
L 432 288 
L 432 0 
L 0 0 
z
" style="fill:#ffffff;"/>
  </g>
  <g id="axes_1">
   <g id="patch_2">
    <path d="M 54 252 
L 388.8 252 
L 388.8 34.56 
L 54 34.56 
z
" style="fill:#ffffff;"/>
   </g>
   <g id="matplotlib.axis_1">
    <g id="xtick_1">
     <g id="line2d_1">
      <defs>
       <path d="M 0 0 
L 0 3.5 
" id="m50d346ac42" style="stroke:#000000;stroke-width:0.8;"/>
      </defs>
      <g>
       <use style="stroke:#000000;stroke-width:0.8;" x="55.042341" xlink:href="#m50d346ac42" y="252"/>
      </g>
     </g>
     <g id="text_1">
      <!-- 2015-01 -->
      <g transform="translate(42.221059 293.917817)rotate(-45)scale(0.1 -0.1)">
       <defs>
        <path d="M 19.1875 8.296875 
L 53.609375 8.296875 
L 53.609375 0 
L 7.328125 0 
L 7.328125 8.296875 
Q 12.9375 14.109375 22.625 23.890625 
Q 32.328125 33.6875 34.8125 36.53125 
Q 39.546875 41.84375 41.421875 45.53125 
Q 43.3125 49.21875 43.3125 52.78125 
Q 43.3125 58.59375 39.234375 62.25 
Q 35.15625 65.921875 28.609375 65.921875 
Q 23.96875 65.921875 18.8125 64.3125 
Q 13.671875 62.703125 7.8125 59.421875 
L 7.8125 69.390625 
Q 13.765625 71.78125 18.9375 73 
Q 24.125 74.21875 28.421875 74.21875 
Q 39.75 74.21875 46.484375 68.546875 
Q 53.21875 62.890625 53.21875 53.421875 
Q 53.21875 48.921875 51.53125 44.890625 
Q 49.859375 40.875 45.40625 35.40625 
Q 44.1875 33.984375 37.640625 27.21875 
Q 31.109375 20.453125 19.1875 8.296875 
z
" id="DejaVuSans-50"/>
        <path d="M 31.78125 66.40625 
Q 24.171875 66.40625 20.328125 58.90625 
Q 16.5 51.421875 16.5 36.375 
Q 16.5 21.390625 20.328125 13.890625 
Q 24.171875 6.390625 31.78125 6.390625 
Q 39.453125 6.390625 43.28125 13.890625 
Q 47.125 21.390625 47.125 36.375 
Q 47.125 51.421875 43.28125 58.90625 
Q 39.453125 66.40625 31.78125 66.40625 
z
M 31.78125 74.21875 
Q 44.046875 74.21875 50.515625 64.515625 
Q 56.984375 54.828125 56.984375 36.375 
Q 56.984375 17.96875 50.515625 8.265625 
Q 44.046875 -1.421875 31.78125 -1.421875 
Q 19.53125 -1.421875 13.0625 8.265625 
Q 6.59375 17.96875 6.59375 36.375 
Q 6.59375 54.828125 13.0625 64.515625 
Q 19.53125 74.21875 31.78125 74.21875 
z
" id="DejaVuSans-48"/>
        <path d="M 12.40625 8.296875 
L 28.515625 8.296875 
L 28.515625 63.921875 
L 10.984375 60.40625 
L 10.984375 69.390625 
L 28.421875 72.90625 
L 38.28125 72.90625 
L 38.28125 8.296875 
L 54.390625 8.296875 
L 54.390625 0 
L 12.40625 0 
z
" id="DejaVuSans-49"/>
        <path d="M 10.796875 72.90625 
L 49.515625 72.90625 
L 49.515625 64.59375 
L 19.828125 64.59375 
L 19.828125 46.734375 
Q 21.96875 47.46875 24.109375 47.828125 
Q 26.265625 48.1875 28.421875 48.1875 
Q 40.625 48.1875 47.75 41.5 
Q 54.890625 34.8125 54.890625 23.390625 
Q 54.890625 11.625 47.5625 5.09375 
Q 40.234375 -1.421875 26.90625 -1.421875 
Q 22.3125 -1.421875 17.546875 -0.640625 
Q 12.796875 0.140625 7.71875 1.703125 
L 7.71875 11.625 
Q 12.109375 9.234375 16.796875 8.0625 
Q 21.484375 6.890625 26.703125 6.890625 
Q 35.15625 6.890625 40.078125 11.328125 
Q 45.015625 15.765625 45.015625 23.390625 
Q 45.015625 31 40.078125 35.4375 
Q 35.15625 39.890625 26.703125 39.890625 
Q 22.75 39.890625 18.8125 39.015625 
Q 14.890625 38.140625 10.796875 36.28125 
z
" id="DejaVuSans-53"/>
        <path d="M 4.890625 31.390625 
L 31.203125 31.390625 
L 31.203125 23.390625 
L 4.890625 23.390625 
z
" id="DejaVuSans-45"/>
       </defs>
       <use xlink:href="#DejaVuSans-50"/>
       <use x="63.623047" xlink:href="#DejaVuSans-48"/>
       <use x="127.246094" xlink:href="#DejaVuSans-49"/>
       <use x="190.869141" xlink:href="#DejaVuSans-53"/>
       <use x="254.492188" xlink:href="#DejaVuSans-45"/>
       <use x="290.576172" xlink:href="#DejaVuSans-48"/>
       <use x="354.199219" xlink:href="#DejaVuSans-49"/>
      </g>
     </g>
    </g>
    <g id="xtick_2">
     <g id="line2d_2">
      <g>
       <use style="stroke:#000000;stroke-width:0.8;" x="88.39726" xlink:href="#m50d346ac42" y="252"/>
      </g>
     </g>
     <g id="text_2">
      <!-- 2015-05 -->
      <g transform="translate(75.575978 293.917817)rotate(-45)scale(0.1 -0.1)">
       <use xlink:href="#DejaVuSans-50"/>
       <use x="63.623047" xlink:href="#DejaVuSans-48"/>
       <use x="127.246094" xlink:href="#DejaVuSans-49"/>
       <use x="190.869141" xlink:href="#DejaVuSans-53"/>
       <use x="254.492188" xlink:href="#DejaVuSans-45"/>
       <use x="290.576172" xlink:href="#DejaVuSans-48"/>
       <use x="354.199219" xlink:href="#DejaVuSans-53"/>
      </g>
     </g>
    </g>
    <g id="xtick_3">
     <g id="line2d_3">
      <g>
       <use style="stroke:#000000;stroke-width:0.8;" x="122.586052" xlink:href="#m50d346ac42" y="252"/>
      </g>
     </g>
     <g id="text_3">
      <!-- 2015-09 -->
      <g transform="translate(109.76477 293.917817)rotate(-45)scale(0.1 -0.1)">
       <defs>
        <path d="M 10.984375 1.515625 
L 10.984375 10.5 
Q 14.703125 8.734375 18.5 7.8125 
Q 22.3125 6.890625 25.984375 6.890625 
Q 35.75 6.890625 40.890625 13.453125 
Q 46.046875 20.015625 46.78125 33.40625 
Q 43.953125 29.203125 39.59375 26.953125 
Q 35.25 24.703125 29.984375 24.703125 
Q 19.046875 24.703125 12.671875 31.3125 
Q 6.296875 37.9375 6.296875 49.421875 
Q 6.296875 60.640625 12.9375 67.421875 
Q 19.578125 74.21875 30.609375 74.21875 
Q 43.265625 74.21875 49.921875 64.515625 
Q 56.59375 54.828125 56.59375 36.375 
Q 56.59375 19.140625 48.40625 8.859375 
Q 40.234375 -1.421875 26.421875 -1.421875 
Q 22.703125 -1.421875 18.890625 -0.6875 
Q 15.09375 0.046875 10.984375 1.515625 
z
M 30.609375 32.421875 
Q 37.25 32.421875 41.125 36.953125 
Q 45.015625 41.5 45.015625 49.421875 
Q 45.015625 57.28125 41.125 61.84375 
Q 37.25 66.40625 30.609375 66.40625 
Q 23.96875 66.40625 20.09375 61.84375 
Q 16.21875 57.28125 16.21875 49.421875 
Q 16.21875 41.5 20.09375 36.953125 
Q 23.96875 32.421875 30.609375 32.421875 
z
" id="DejaVuSans-57"/>
       </defs>
       <use xlink:href="#DejaVuSans-50"/>
       <use x="63.623047" xlink:href="#DejaVuSans-48"/>
       <use x="127.246094" xlink:href="#DejaVuSans-49"/>
       <use x="190.869141" xlink:href="#DejaVuSans-53"/>
       <use x="254.492188" xlink:href="#DejaVuSans-45"/>
       <use x="290.576172" xlink:href="#DejaVuSans-48"/>
       <use x="354.199219" xlink:href="#DejaVuSans-57"/>
      </g>
     </g>
    </g>
    <g id="xtick_4">
     <g id="line2d_4">
      <g>
       <use style="stroke:#000000;stroke-width:0.8;" x="156.496887" xlink:href="#m50d346ac42" y="252"/>
      </g>
     </g>
     <g id="text_4">
      <!-- 2016-01 -->
      <g transform="translate(143.675604 293.917817)rotate(-45)scale(0.1 -0.1)">
       <defs>
        <path d="M 33.015625 40.375 
Q 26.375 40.375 22.484375 35.828125 
Q 18.609375 31.296875 18.609375 23.390625 
Q 18.609375 15.53125 22.484375 10.953125 
Q 26.375 6.390625 33.015625 6.390625 
Q 39.65625 6.390625 43.53125 10.953125 
Q 47.40625 15.53125 47.40625 23.390625 
Q 47.40625 31.296875 43.53125 35.828125 
Q 39.65625 40.375 33.015625 40.375 
z
M 52.59375 71.296875 
L 52.59375 62.3125 
Q 48.875 64.0625 45.09375 64.984375 
Q 41.3125 65.921875 37.59375 65.921875 
Q 27.828125 65.921875 22.671875 59.328125 
Q 17.53125 52.734375 16.796875 39.40625 
Q 19.671875 43.65625 24.015625 45.921875 
Q 28.375 48.1875 33.59375 48.1875 
Q 44.578125 48.1875 50.953125 41.515625 
Q 57.328125 34.859375 57.328125 23.390625 
Q 57.328125 12.15625 50.6875 5.359375 
Q 44.046875 -1.421875 33.015625 -1.421875 
Q 20.359375 -1.421875 13.671875 8.265625 
Q 6.984375 17.96875 6.984375 36.375 
Q 6.984375 53.65625 15.1875 63.9375 
Q 23.390625 74.21875 37.203125 74.21875 
Q 40.921875 74.21875 44.703125 73.484375 
Q 48.484375 72.75 52.59375 71.296875 
z
" id="DejaVuSans-54"/>
       </defs>
       <use xlink:href="#DejaVuSans-50"/>
       <use x="63.623047" xlink:href="#DejaVuSans-48"/>
       <use x="127.246094" xlink:href="#DejaVuSans-49"/>
       <use x="190.869141" xlink:href="#DejaVuSans-54"/>
       <use x="254.492188" xlink:href="#DejaVuSans-45"/>
       <use x="290.576172" xlink:href="#DejaVuSans-48"/>
       <use x="354.199219" xlink:href="#DejaVuSans-49"/>
      </g>
     </g>
    </g>
    <g id="xtick_5">
     <g id="line2d_5">
      <g>
       <use style="stroke:#000000;stroke-width:0.8;" x="190.129763" xlink:href="#m50d346ac42" y="252"/>
      </g>
     </g>
     <g id="text_5">
      <!-- 2016-05 -->
      <g transform="translate(177.308481 293.917817)rotate(-45)scale(0.1 -0.1)">
       <use xlink:href="#DejaVuSans-50"/>
       <use x="63.623047" xlink:href="#DejaVuSans-48"/>
       <use x="127.246094" xlink:href="#DejaVuSans-49"/>
       <use x="190.869141" xlink:href="#DejaVuSans-54"/>
       <use x="254.492188" xlink:href="#DejaVuSans-45"/>
       <use x="290.576172" xlink:href="#DejaVuSans-48"/>
       <use x="354.199219" xlink:href="#DejaVuSans-53"/>
      </g>
     </g>
    </g>
    <g id="xtick_6">
     <g id="line2d_6">
      <g>
       <use style="stroke:#000000;stroke-width:0.8;" x="224.318555" xlink:href="#m50d346ac42" y="252"/>
      </g>
     </g>
     <g id="text_6">
      <!-- 2016-09 -->
      <g transform="translate(211.497273 293.917817)rotate(-45)scale(0.1 -0.1)">
       <use xlink:href="#DejaVuSans-50"/>
       <use x="63.623047" xlink:href="#DejaVuSans-48"/>
       <use x="127.246094" xlink:href="#DejaVuSans-49"/>
       <use x="190.869141" xlink:href="#DejaVuSans-54"/>
       <use x="254.492188" xlink:href="#DejaVuSans-45"/>
       <use x="290.576172" xlink:href="#DejaVuSans-48"/>
       <use x="354.199219" xlink:href="#DejaVuSans-57"/>
      </g>
     </g>
    </g>
    <g id="xtick_7">
     <g id="line2d_7">
      <g>
       <use style="stroke:#000000;stroke-width:0.8;" x="258.22939" xlink:href="#m50d346ac42" y="252"/>
      </g>
     </g>
     <g id="text_7">
      <!-- 2017-01 -->
      <g transform="translate(245.408108 293.917817)rotate(-45)scale(0.1 -0.1)">
       <defs>
        <path d="M 8.203125 72.90625 
L 55.078125 72.90625 
L 55.078125 68.703125 
L 28.609375 0 
L 18.3125 0 
L 43.21875 64.59375 
L 8.203125 64.59375 
z
" id="DejaVuSans-55"/>
       </defs>
       <use xlink:href="#DejaVuSans-50"/>
       <use x="63.623047" xlink:href="#DejaVuSans-48"/>
       <use x="127.246094" xlink:href="#DejaVuSans-49"/>
       <use x="190.869141" xlink:href="#DejaVuSans-55"/>
       <use x="254.492188" xlink:href="#DejaVuSans-45"/>
       <use x="290.576172" xlink:href="#DejaVuSans-48"/>
       <use x="354.199219" xlink:href="#DejaVuSans-49"/>
      </g>
     </g>
    </g>
    <g id="xtick_8">
     <g id="line2d_8">
      <g>
       <use style="stroke:#000000;stroke-width:0.8;" x="291.584309" xlink:href="#m50d346ac42" y="252"/>
      </g>
     </g>
     <g id="text_8">
      <!-- 2017-05 -->
      <g transform="translate(278.763027 293.917817)rotate(-45)scale(0.1 -0.1)">
       <use xlink:href="#DejaVuSans-50"/>
       <use x="63.623047" xlink:href="#DejaVuSans-48"/>
       <use x="127.246094" xlink:href="#DejaVuSans-49"/>
       <use x="190.869141" xlink:href="#DejaVuSans-55"/>
       <use x="254.492188" xlink:href="#DejaVuSans-45"/>
       <use x="290.576172" xlink:href="#DejaVuSans-48"/>
       <use x="354.199219" xlink:href="#DejaVuSans-53"/>
      </g>
     </g>
    </g>
    <g id="xtick_9">
     <g id="line2d_9">
      <g>
       <use style="stroke:#000000;stroke-width:0.8;" x="325.773101" xlink:href="#m50d346ac42" y="252"/>
      </g>
     </g>
     <g id="text_9">
      <!-- 2017-09 -->
      <g transform="translate(312.951819 293.917817)rotate(-45)scale(0.1 -0.1)">
       <use xlink:href="#DejaVuSans-50"/>
       <use x="63.623047" xlink:href="#DejaVuSans-48"/>
       <use x="127.246094" xlink:href="#DejaVuSans-49"/>
       <use x="190.869141" xlink:href="#DejaVuSans-55"/>
       <use x="254.492188" xlink:href="#DejaVuSans-45"/>
       <use x="290.576172" xlink:href="#DejaVuSans-48"/>
       <use x="354.199219" xlink:href="#DejaVuSans-57"/>
      </g>
     </g>
    </g>
    <g id="xtick_10">
     <g id="line2d_10">
      <g>
       <use style="stroke:#000000;stroke-width:0.8;" x="359.683935" xlink:href="#m50d346ac42" y="252"/>
      </g>
     </g>
     <g id="text_10">
      <!-- 2018-01 -->
      <g transform="translate(346.862653 293.917817)rotate(-45)scale(0.1 -0.1)">
       <defs>
        <path d="M 31.78125 34.625 
Q 24.75 34.625 20.71875 30.859375 
Q 16.703125 27.09375 16.703125 20.515625 
Q 16.703125 13.921875 20.71875 10.15625 
Q 24.75 6.390625 31.78125 6.390625 
Q 38.8125 6.390625 42.859375 10.171875 
Q 46.921875 13.96875 46.921875 20.515625 
Q 46.921875 27.09375 42.890625 30.859375 
Q 38.875 34.625 31.78125 34.625 
z
M 21.921875 38.8125 
Q 15.578125 40.375 12.03125 44.71875 
Q 8.5 49.078125 8.5 55.328125 
Q 8.5 64.0625 14.71875 69.140625 
Q 20.953125 74.21875 31.78125 74.21875 
Q 42.671875 74.21875 48.875 69.140625 
Q 55.078125 64.0625 55.078125 55.328125 
Q 55.078125 49.078125 51.53125 44.71875 
Q 48 40.375 41.703125 38.8125 
Q 48.828125 37.15625 52.796875 32.3125 
Q 56.78125 27.484375 56.78125 20.515625 
Q 56.78125 9.90625 50.3125 4.234375 
Q 43.84375 -1.421875 31.78125 -1.421875 
Q 19.734375 -1.421875 13.25 4.234375 
Q 6.78125 9.90625 6.78125 20.515625 
Q 6.78125 27.484375 10.78125 32.3125 
Q 14.796875 37.15625 21.921875 38.8125 
z
M 18.3125 54.390625 
Q 18.3125 48.734375 21.84375 45.5625 
Q 25.390625 42.390625 31.78125 42.390625 
Q 38.140625 42.390625 41.71875 45.5625 
Q 45.3125 48.734375 45.3125 54.390625 
Q 45.3125 60.0625 41.71875 63.234375 
Q 38.140625 66.40625 31.78125 66.40625 
Q 25.390625 66.40625 21.84375 63.234375 
Q 18.3125 60.0625 18.3125 54.390625 
z
" id="DejaVuSans-56"/>
       </defs>
       <use xlink:href="#DejaVuSans-50"/>
       <use x="63.623047" xlink:href="#DejaVuSans-48"/>
       <use x="127.246094" xlink:href="#DejaVuSans-49"/>
       <use x="190.869141" xlink:href="#DejaVuSans-56"/>
       <use x="254.492188" xlink:href="#DejaVuSans-45"/>
       <use x="290.576172" xlink:href="#DejaVuSans-48"/>
       <use x="354.199219" xlink:href="#DejaVuSans-49"/>
      </g>
     </g>
    </g>
   </g>
   <g id="matplotlib.axis_2">
    <g id="ytick_1">
     <g id="line2d_11">
      <defs>
       <path d="M 0 0 
L -3.5 0 
" id="m64039b99d6" style="stroke:#000000;stroke-width:0.8;"/>
      </defs>
      <g>
       <use style="stroke:#000000;stroke-width:0.8;" x="54" xlink:href="#m64039b99d6" y="242.116364"/>
      </g>
     </g>
     <g id="text_11">
      <!-- 0 -->
      <g transform="translate(40.6375 245.915582)scale(0.1 -0.1)">
       <use xlink:href="#DejaVuSans-48"/>
      </g>
     </g>
    </g>
    <g id="ytick_2">
     <g id="line2d_12">
      <g>
       <use style="stroke:#000000;stroke-width:0.8;" x="54" xlink:href="#m64039b99d6" y="216.317261"/>
      </g>
     </g>
     <g id="text_12">
      <!-- 5 -->
      <g transform="translate(40.6375 220.116479)scale(0.1 -0.1)">
       <use xlink:href="#DejaVuSans-53"/>
      </g>
     </g>
    </g>
    <g id="ytick_3">
     <g id="line2d_13">
      <g>
       <use style="stroke:#000000;stroke-width:0.8;" x="54" xlink:href="#m64039b99d6" y="190.518158"/>
      </g>
     </g>
     <g id="text_13">
      <!-- 10 -->
      <g transform="translate(34.275 194.317376)scale(0.1 -0.1)">
       <use xlink:href="#DejaVuSans-49"/>
       <use x="63.623047" xlink:href="#DejaVuSans-48"/>
      </g>
     </g>
    </g>
    <g id="ytick_4">
     <g id="line2d_14">
      <g>
       <use style="stroke:#000000;stroke-width:0.8;" x="54" xlink:href="#m64039b99d6" y="164.719055"/>
      </g>
     </g>
     <g id="text_14">
      <!-- 15 -->
      <g transform="translate(34.275 168.518273)scale(0.1 -0.1)">
       <use xlink:href="#DejaVuSans-49"/>
       <use x="63.623047" xlink:href="#DejaVuSans-53"/>
      </g>
     </g>
    </g>
    <g id="ytick_5">
     <g id="line2d_15">
      <g>
       <use style="stroke:#000000;stroke-width:0.8;" x="54" xlink:href="#m64039b99d6" y="138.919952"/>
      </g>
     </g>
     <g id="text_15">
      <!-- 20 -->
      <g transform="translate(34.275 142.71917)scale(0.1 -0.1)">
       <use xlink:href="#DejaVuSans-50"/>
       <use x="63.623047" xlink:href="#DejaVuSans-48"/>
      </g>
     </g>
    </g>
    <g id="ytick_6">
     <g id="line2d_16">
      <g>
       <use style="stroke:#000000;stroke-width:0.8;" x="54" xlink:href="#m64039b99d6" y="113.120849"/>
      </g>
     </g>
     <g id="text_16">
      <!-- 25 -->
      <g transform="translate(34.275 116.920067)scale(0.1 -0.1)">
       <use xlink:href="#DejaVuSans-50"/>
       <use x="63.623047" xlink:href="#DejaVuSans-53"/>
      </g>
     </g>
    </g>
    <g id="ytick_7">
     <g id="line2d_17">
      <g>
       <use style="stroke:#000000;stroke-width:0.8;" x="54" xlink:href="#m64039b99d6" y="87.321746"/>
      </g>
     </g>
     <g id="text_17">
      <!-- 30 -->
      <g transform="translate(34.275 91.120964)scale(0.1 -0.1)">
       <defs>
        <path d="M 40.578125 39.3125 
Q 47.65625 37.796875 51.625 33 
Q 55.609375 28.21875 55.609375 21.1875 
Q 55.609375 10.40625 48.1875 4.484375 
Q 40.765625 -1.421875 27.09375 -1.421875 
Q 22.515625 -1.421875 17.65625 -0.515625 
Q 12.796875 0.390625 7.625 2.203125 
L 7.625 11.71875 
Q 11.71875 9.328125 16.59375 8.109375 
Q 21.484375 6.890625 26.8125 6.890625 
Q 36.078125 6.890625 40.9375 10.546875 
Q 45.796875 14.203125 45.796875 21.1875 
Q 45.796875 27.640625 41.28125 31.265625 
Q 36.765625 34.90625 28.71875 34.90625 
L 20.21875 34.90625 
L 20.21875 43.015625 
L 29.109375 43.015625 
Q 36.375 43.015625 40.234375 45.921875 
Q 44.09375 48.828125 44.09375 54.296875 
Q 44.09375 59.90625 40.109375 62.90625 
Q 36.140625 65.921875 28.71875 65.921875 
Q 24.65625 65.921875 20.015625 65.03125 
Q 15.375 64.15625 9.8125 62.3125 
L 9.8125 71.09375 
Q 15.4375 72.65625 20.34375 73.4375 
Q 25.25 74.21875 29.59375 74.21875 
Q 40.828125 74.21875 47.359375 69.109375 
Q 53.90625 64.015625 53.90625 55.328125 
Q 53.90625 49.265625 50.4375 45.09375 
Q 46.96875 40.921875 40.578125 39.3125 
z
" id="DejaVuSans-51"/>
       </defs>
       <use xlink:href="#DejaVuSans-51"/>
       <use x="63.623047" xlink:href="#DejaVuSans-48"/>
      </g>
     </g>
    </g>
    <g id="ytick_8">
     <g id="line2d_18">
      <g>
       <use style="stroke:#000000;stroke-width:0.8;" x="54" xlink:href="#m64039b99d6" y="61.522643"/>
      </g>
     </g>
     <g id="text_18">
      <!-- 35 -->
      <g transform="translate(34.275 65.321861)scale(0.1 -0.1)">
       <use xlink:href="#DejaVuSans-51"/>
       <use x="63.623047" xlink:href="#DejaVuSans-53"/>
      </g>
     </g>
    </g>
    <g id="ytick_9">
     <g id="line2d_19">
      <g>
       <use style="stroke:#000000;stroke-width:0.8;" x="54" xlink:href="#m64039b99d6" y="35.72354"/>
      </g>
     </g>
     <g id="text_19">
      <!-- 40 -->
      <g transform="translate(34.275 39.522758)scale(0.1 -0.1)">
       <defs>
        <path d="M 37.796875 64.3125 
L 12.890625 25.390625 
L 37.796875 25.390625 
z
M 35.203125 72.90625 
L 47.609375 72.90625 
L 47.609375 25.390625 
L 58.015625 25.390625 
L 58.015625 17.1875 
L 47.609375 17.1875 
L 47.609375 0 
L 37.796875 0 
L 37.796875 17.1875 
L 4.890625 17.1875 
L 4.890625 26.703125 
z
" id="DejaVuSans-52"/>
       </defs>
       <use xlink:href="#DejaVuSans-52"/>
       <use x="63.623047" xlink:href="#DejaVuSans-48"/>
      </g>
     </g>
    </g>
   </g>
   <g id="line2d_20">
    <path clip-path="url(#p418cc5e76c)" d="M 69.218182 156.463342 
L 69.496139 128.445516 
L 69.774097 174.729107 
L 70.052055 149.394387 
L 70.330012 172.561982 
L 70.60797 168.537322 
L 70.885928 178.340981 
L 71.163885 192.427291 
L 71.441843 171.633214 
L 71.719801 135.772461 
L 71.997758 133.347345 
L 72.275716 166.989376 
L 72.553674 175.657874 
L 72.831631 173.955133 
L 73.109589 181.488472 
L 73.387547 138.97155 
L 73.665504 163.325903 
L 73.943462 161.158778 
L 74.22142 125.659213 
L 74.499377 141.654657 
L 74.777335 171.375223 
L 75.055293 119.673821 
L 75.33325 120.912178 
L 75.611208 191.962907 
L 75.889166 199.031862 
L 76.167123 198.670674 
L 76.445081 199.393049 
L 76.723039 186.467698 
L 77.000996 111.624501 
L 77.556912 179.424543 
L 78.112827 165.647822 
L 78.390785 186.69989 
L 78.668742 123.285695 
L 78.9467 176.277053 
L 79.224658 95.113075 
L 79.780573 181.901257 
L 80.058531 184.016784 
L 80.336488 161.829555 
L 80.614446 188.557426 
L 80.892403 194.439621 
L 81.170361 187.267471 
L 81.448319 131.902596 
L 81.726276 189.228202 
L 82.004234 186.648292 
L 82.282192 188.093042 
L 82.560149 149.755575 
L 82.838107 175.296687 
L 83.394022 129.838667 
L 83.67198 177.412213 
L 83.949938 187.731854 
L 84.227895 173.026366 
L 84.783811 184.893953 
L 85.061768 137.475202 
L 85.339726 195.884371 
L 85.617684 182.881623 
L 85.895641 190.621354 
L 86.173599 149.445986 
L 86.451557 171.47842 
L 86.729514 171.581616 
L 87.007472 147.743245 
L 87.28543 139.332737 
L 87.563387 190.672952 
L 87.841345 187.061078 
L 88.119303 173.800339 
L 88.39726 181.282079 
L 88.675218 185.358337 
L 88.953176 141.241871 
L 89.231133 194.026836 
L 89.509091 195.265193 
L 89.787049 167.195768 
L 90.342964 188.557426 
L 90.620922 186.441899 
L 91.176837 152.180691 
L 91.454795 177.309017 
L 91.732752 163.532296 
L 92.288667 182.804226 
L 92.566625 181.230481 
L 92.844583 158.217681 
L 93.12254 158.269279 
L 93.400498 196.864737 
L 93.678456 184.223176 
L 93.956413 199.341451 
L 94.234371 196.271358 
L 94.512329 188.71222 
L 95.068244 120.602588 
L 95.346202 184.635962 
L 95.624159 191.60172 
L 95.902117 192.117702 
L 96.180075 183.036418 
L 96.458032 190.518158 
L 96.73599 168.485724 
L 97.013948 191.137336 
L 97.291905 163.583894 
L 97.569863 188.71222 
L 97.847821 197.329121 
L 98.125778 173.49075 
L 98.403736 170.807643 
L 98.681694 175.915865 
L 98.959651 163.841885 
L 99.237609 167.814947 
L 99.515567 194.904005 
L 99.793524 186.751489 
L 100.071482 155.121788 
L 100.34944 199.599442 
L 100.627397 157.908091 
L 100.905355 158.682064 
L 101.183313 188.14464 
L 101.46127 192.994872 
L 101.739228 158.372475 
L 102.017186 165.028644 
L 102.295143 201.353781 
L 102.851059 165.802617 
L 103.129016 160.488002 
L 103.406974 182.417239 
L 103.684932 153.93503 
L 103.962889 183.758793 
L 104.240847 193.61405 
L 104.518804 193.149666 
L 104.796762 167.402161 
L 105.07472 112.656465 
L 105.352677 179.837329 
L 105.630635 164.048278 
L 105.908593 188.815417 
L 106.18655 197.948299 
L 106.464508 144.286165 
L 106.742466 165.802617 
L 107.020423 119.209437 
L 107.298381 161.416769 
L 107.576339 162.087546 
L 107.854296 172.407187 
L 108.132254 170.085268 
L 108.410212 110.695733 
L 108.688169 142.377031 
L 108.966127 190.208568 
L 109.244085 154.141422 
L 109.522042 184.99715 
L 109.8 195.781175 
L 110.077958 195.265193 
L 110.355915 176.225455 
L 110.633873 127.568346 
L 110.911831 162.603528 
L 111.189788 169.982072 
L 111.467746 182.67523 
L 112.023661 185.409935 
L 112.301619 177.567008 
L 112.579577 98.260565 
L 112.857534 174.677508 
L 113.135492 195.471585 
L 113.41345 194.646014 
L 113.691407 194.388023 
L 113.969365 193.717246 
L 114.247323 194.284827 
L 114.803238 193.201264 
L 115.081196 195.62638 
L 115.359153 200.631406 
L 115.637111 196.245558 
L 115.915068 194.18163 
L 116.193026 196.761541 
L 116.470984 127.000766 
L 116.748941 169.414491 
L 117.026899 175.554678 
L 117.304857 140.777487 
L 117.582814 152.232289 
L 117.860772 172.097598 
L 118.13873 178.702168 
L 118.416687 176.019062 
L 118.694645 176.225455 
L 118.972603 173.748741 
L 119.25056 177.670204 
L 119.528518 175.709472 
L 119.806476 167.402161 
L 120.084433 154.141422 
L 120.362391 116.629527 
L 120.640349 167.402161 
L 120.918306 171.994402 
L 121.196264 185.667926 
L 121.752179 138.816755 
L 122.030137 149.239593 
L 122.308095 104.349154 
L 122.586052 129.580676 
L 122.86401 104.45235 
L 123.141968 156.772931 
L 123.419925 150.219959 
L 123.697883 180.146918 
L 123.975841 141.190273 
L 124.253798 174.05833 
L 124.531756 95.422664 
L 124.809714 184.584364 
L 125.087671 190.260167 
L 125.643587 187.112676 
L 125.921544 180.301713 
L 126.199502 117.97108 
L 126.47746 137.475202 
L 126.755417 182.726829 
L 127.033375 158.991654 
L 127.311333 148.414021 
L 127.58929 142.480228 
L 127.867248 99.292529 
L 128.145205 148.568816 
L 128.423163 169.982072 
L 128.701121 169.569286 
L 128.979078 132.160587 
L 129.257036 131.541408 
L 129.534994 161.158778 
L 129.812951 159.404439 
L 130.090909 156.927725 
L 130.368867 151.509914 
L 130.646824 166.628188 
L 130.924782 172.61358 
L 131.20274 123.750079 
L 131.758655 182.004454 
L 132.036613 161.10718 
L 132.31457 159.765627 
L 132.592528 161.468368 
L 132.870486 138.09438 
L 133.148443 134.018122 
L 133.426401 178.186186 
L 133.704359 143.305799 
L 133.982316 143.56379 
L 134.260274 131.180221 
L 134.538232 140.932282 
L 134.816189 168.124536 
L 135.094147 166.421795 
L 135.372105 162.500332 
L 135.650062 114.462402 
L 135.92802 129.116292 
L 136.205978 168.537322 
L 136.483935 157.443708 
L 136.761893 153.212655 
L 137.317808 161.468368 
L 137.595766 180.043722 
L 137.873724 89.230879 
L 138.151681 133.037756 
L 138.707597 112.398474 
L 138.985554 153.212655 
L 139.541469 115.029982 
L 139.819427 147.58845 
L 140.097385 123.234097 
L 140.375342 146.969272 
L 140.6533 146.866075 
L 140.931258 145.421326 
L 141.209215 141.448264 
L 141.765131 169.208099 
L 142.043088 80.613979 
L 142.321046 160.849189 
L 142.599004 133.940725 
L 142.876961 165.596224 
L 143.154919 166.267001 
L 143.432877 122.924508 
L 143.710834 118.848249 
L 143.988792 127.671543 
L 144.26675 161.365171 
L 144.544707 142.583424 
L 144.822665 135.411274 
L 145.100623 154.347815 
L 145.37858 119.98341 
L 145.656538 134.276113 
L 145.934496 165.544626 
L 146.212453 174.522714 
L 146.490411 141.396665 
L 146.768369 162.139144 
L 147.046326 131.180221 
L 147.324284 157.237315 
L 147.602242 130.819033 
L 147.880199 120.963776 
L 148.158157 147.485254 
L 148.436115 145.730915 
L 148.714072 147.562651 
L 148.99203 153.522244 
L 149.269988 97.950976 
L 149.547945 119.673821 
L 149.825903 120.55099 
L 150.103861 157.546904 
L 150.381818 122.356927 
L 150.659776 147.898039 
L 150.937733 122.150535 
L 151.215691 150.684343 
L 151.493649 105.123127 
L 151.771606 140.70009 
L 152.049564 147.898039 
L 152.327522 140.364701 
L 152.605479 95.113075 
L 152.883437 108.735001 
L 153.161395 132.62497 
L 153.439352 181.694864 
L 153.71731 191.137336 
L 153.995268 190.879345 
L 154.273225 191.343729 
L 154.829141 190.363363 
L 155.107098 170.652848 
L 155.385056 98.208967 
L 155.663014 172.561982 
L 155.940971 99.344128 
L 156.218929 152.025896 
L 156.496887 127.413552 
L 156.774844 160.694395 
L 157.052802 101.511252 
L 157.33076 162.345537 
L 157.608717 139.229541 
L 157.886675 156.618136 
L 158.164633 141.345067 
L 158.44259 158.372475 
L 158.998506 169.362893 
L 159.276463 101.717645 
L 159.554421 147.175665 
L 159.832379 158.475672 
L 160.110336 148.723611 
L 160.388294 149.703977 
L 160.944209 162.861519 
L 161.222167 114.823589 
L 161.500125 159.301243 
L 161.778082 157.856493 
L 162.05604 142.738219 
L 162.333998 121.376562 
L 162.611955 161.313573 
L 162.889913 105.845502 
L 163.16787 153.831833 
L 163.445828 119.828615 
L 163.723786 146.092102 
L 164.001743 155.173386 
L 164.279701 141.370866 
L 164.557659 148.568816 
L 164.835616 109.612171 
L 165.113574 164.977046 
L 165.391532 167.608554 
L 165.947447 87.166951 
L 166.225405 164.409465 
L 166.503362 189.279801 
L 166.78132 189.434595 
L 167.059278 183.397605 
L 167.337235 140.932282 
L 167.615193 148.052834 
L 167.893151 170.549652 
L 168.449066 131.335015 
L 169.004981 146.556486 
L 169.282939 167.040974 
L 169.560897 155.586172 
L 169.838854 151.303521 
L 170.116812 82.832702 
L 170.39477 178.960159 
L 170.672727 170.03367 
L 171.228643 148.362423 
L 171.5066 169.1565 
L 172.062516 104.761939 
L 172.618431 138.300773 
L 172.896389 242.116364 
L 173.174346 88.456906 
L 173.452304 134.172917 
L 173.730262 158.062886 
L 174.008219 136.391639 
L 174.286177 169.053304 
L 174.564134 126.0204 
L 174.842092 111.36651 
L 175.12005 171.581616 
L 175.675965 155.63777 
L 175.953923 112.037286 
L 176.23188 160.023618 
L 176.509838 135.308077 
L 177.065753 132.263783 
L 177.343711 151.148726 
L 177.899626 133.347345 
L 178.177584 185.900118 
L 178.455542 198.877067 
L 178.733499 180.043722 
L 179.011457 186.441899 
L 179.289415 144.956942 
L 179.567372 161.571564 
L 179.84533 107.187055 
L 180.123288 174.883901 
L 180.401245 127.774739 
L 180.679203 189.537792 
L 180.957161 110.179751 
L 181.513076 152.387083 
L 181.791034 171.891205 
L 182.068991 168.743715 
L 182.346949 139.590728 
L 182.624907 161.519966 
L 182.902864 133.50214 
L 183.180822 139.126344 
L 183.736737 179.992124 
L 184.014695 188.918613 
L 184.57061 121.015374 
L 184.848568 119.003044 
L 185.126526 165.183438 
L 185.404483 174.109928 
L 185.682441 144.13137 
L 185.960399 167.247367 
L 186.238356 175.348285 
L 186.516314 166.679786 
L 186.794271 143.176804 
L 187.072229 182.623632 
L 187.350187 178.08299 
L 187.628144 143.718585 
L 187.906102 144.647352 
L 188.18406 159.507636 
L 188.462017 118.332267 
L 188.739975 178.08299 
L 189.017933 171.994402 
L 189.29589 169.878875 
L 189.573848 144.544156 
L 189.851806 189.744185 
L 190.129763 179.063356 
L 190.685679 148.981602 
L 190.963636 173.903535 
L 191.241594 147.846441 
L 191.519552 183.603998 
L 191.797509 173.387553 
L 192.075467 191.859711 
L 192.631382 139.590728 
L 192.90934 172.665178 
L 193.187298 171.375223 
L 193.465255 175.967464 
L 193.743213 183.449203 
L 194.021171 181.024088 
L 194.299128 97.899378 
L 194.577086 182.417239 
L 194.855044 139.074746 
L 195.410959 190.414961 
L 195.688917 172.923169 
L 195.966874 168.692116 
L 196.244832 77.595484 
L 196.52279 152.541878 
L 196.800747 178.186186 
L 197.078705 169.46609 
L 197.356663 126.484784 
L 197.63462 115.184777 
L 197.912578 189.58939 
L 198.190535 179.166552 
L 198.746451 127.619944 
L 199.024408 167.298965 
L 199.302366 149.961968 
L 199.580324 184.377971 
L 199.858281 167.608554 
L 200.136239 141.293469 
L 200.414197 175.399883 
L 200.692154 178.702168 
L 200.970112 165.957412 
L 201.24807 160.384805 
L 201.526027 169.982072 
L 201.803985 173.903535 
L 202.081943 137.268809 
L 202.3599 116.216741 
L 202.637858 179.52774 
L 203.193773 188.763819 
L 203.471731 156.618136 
L 203.749689 181.101485 
L 204.027646 135.462872 
L 204.305604 174.832303 
L 204.583562 175.141892 
L 204.861519 131.077024 
L 205.139477 144.802147 
L 205.417435 181.333677 
L 205.695392 184.481168 
L 205.97335 181.952855 
L 206.251308 153.212655 
L 206.529265 164.770653 
L 206.807223 171.426821 
L 207.085181 199.36725 
L 207.363138 203.417709 
L 207.641096 189.228202 
L 207.919054 128.548712 
L 208.197011 142.738219 
L 208.474969 168.02134 
L 208.752927 142.273835 
L 209.030884 180.508106 
L 209.308842 197.948299 
L 209.5868 198.619076 
L 210.142715 104.710341 
L 210.420672 153.315851 
L 210.976588 190.543957 
L 211.254545 189.176604 
L 211.532503 135.617666 
L 211.810461 156.927725 
L 212.088418 188.351033 
L 212.366376 191.446925 
L 212.644334 191.240532 
L 213.200249 192.272497 
L 213.478207 190.414961 
L 213.756164 191.395327 
L 214.034122 196.090764 
L 214.31208 198.464281 
L 214.590037 197.741906 
L 214.867995 218.845573 
L 215.42391 190.982541 
L 215.701868 192.478889 
L 215.979826 193.04647 
L 216.257783 193.149666 
L 216.535741 191.446925 
L 216.813699 193.459255 
L 217.091656 182.468837 
L 217.369614 183.088016 
L 217.647572 114.049616 
L 217.925529 134.121318 
L 218.203487 133.656935 
L 218.481445 178.495776 
L 218.759402 163.016314 
L 219.03736 169.001706 
L 219.315318 171.994402 
L 219.593275 142.325433 
L 219.871233 132.108988 
L 220.427148 157.030922 
L 220.705106 169.362893 
L 220.983064 187.57706 
L 221.261021 150.426352 
L 221.816936 183.707194 
L 222.094894 176.07066 
L 222.372852 126.949168 
L 222.650809 177.618606 
L 222.928767 191.240532 
L 223.206725 182.159248 
L 223.484682 132.05739 
L 223.76264 184.274775 
L 224.040598 158.062886 
L 224.596513 136.494836 
L 224.874471 187.164274 
L 225.152428 197.587112 
L 225.430386 197.329121 
L 225.708344 180.456507 
L 225.986301 112.243679 
L 226.264259 81.800738 
L 226.542217 179.424543 
L 226.820174 168.537322 
L 227.098132 178.547374 
L 227.37609 154.966994 
L 227.654047 178.08299 
L 227.932005 185.616328 
L 228.209963 173.748741 
L 228.48792 98.621753 
L 229.043836 159.559234 
L 229.321793 119.157839 
L 229.599751 169.878875 
L 229.877709 150.993932 
L 230.155666 164.099876 
L 230.433624 143.460594 
L 230.711582 177.721803 
L 230.989539 142.686621 
L 231.267497 142.273835 
L 231.545455 131.025426 
L 231.823412 185.048748 
L 232.10137 172.303991 
L 232.379328 174.419517 
L 232.657285 149.858771 
L 232.935243 177.154222 
L 233.2132 119.622223 
L 233.491158 109.715367 
L 233.769116 172.303991 
L 234.047073 138.868353 
L 234.325031 152.232289 
L 234.880946 127.929534 
L 235.158904 157.598502 
L 235.436862 115.339571 
L 235.992777 145.111736 
L 236.270735 148.517218 
L 236.548692 137.681595 
L 236.82665 163.274305 
L 237.104608 82.729505 
L 237.382565 151.664708 
L 237.660523 142.531826 
L 237.938481 148.46562 
L 238.216438 159.66243 
L 238.494396 139.384335 
L 238.772354 140.829085 
L 239.050311 113.482036 
L 239.328269 110.076554 
L 239.606227 135.566068 
L 239.884184 128.239123 
L 240.162142 154.966994 
L 240.4401 131.231819 
L 240.718057 139.229541 
L 240.996015 108.528608 
L 241.273973 44.443636 
L 241.829888 180.456507 
L 242.107846 199.599442 
L 242.385803 202.798531 
L 242.663761 178.08299 
L 242.941719 124.730445 
L 243.219676 160.5396 
L 243.497634 145.885709 
L 243.775592 149.910369 
L 244.053549 147.02087 
L 244.331507 136.752827 
L 244.609465 107.806233 
L 244.887422 110.076554 
L 245.16538 135.669265 
L 245.443337 149.239593 
L 245.721295 150.735941 
L 245.999253 143.305799 
L 246.27721 163.429099 
L 246.555168 109.663769 
L 246.833126 120.808981 
L 247.111083 154.915395 
L 247.389041 154.554208 
L 247.666999 198.335286 
L 247.944956 220.225825 
L 248.500872 74.628587 
L 248.778829 138.40397 
L 249.056787 113.894822 
L 249.334745 144.286165 
L 249.612702 152.903065 
L 249.89066 129.941864 
L 250.168618 151.251923 
L 250.446575 158.785261 
L 250.724533 132.108988 
L 251.002491 124.29186 
L 251.280448 128.135927 
L 251.558406 153.831833 
L 251.836364 132.573372 
L 252.392279 172.458786 
L 252.670237 118.177473 
L 252.948194 132.005792 
L 253.226152 158.578868 
L 253.50411 171.091433 
L 253.782067 149.187995 
L 254.337983 172.200794 
L 254.61594 79.840006 
L 254.893898 96.764217 
L 255.171856 146.969272 
L 255.449813 102.285225 
L 255.727771 163.325903 
L 256.005729 168.279331 
L 256.283686 129.271087 
L 256.561644 117.300303 
L 256.839601 167.763349 
L 257.117559 83.658273 
L 257.673474 147.175665 
L 257.951432 173.697142 
L 258.22939 169.672482 
L 258.507347 180.301713 
L 258.785305 92.068781 
L 259.063263 145.782513 
L 259.34122 161.261975 
L 259.619178 154.760601 
L 259.897136 173.851937 
L 260.175093 144.853745 
L 260.453051 131.128622 
L 260.731009 170.652848 
L 261.008966 151.148726 
L 261.286924 170.343259 
L 261.564882 168.02134 
L 261.842839 184.584364 
L 262.120797 115.236375 
L 262.398755 170.807643 
L 262.676712 120.705785 
L 262.95467 162.861519 
L 263.232628 164.719055 
L 263.510585 174.264723 
L 264.344458 138.145979 
L 264.622416 147.485254 
L 264.900374 168.382527 
L 265.178331 172.149196 
L 265.456289 180.09532 
L 265.734247 148.001236 
L 266.012204 145.421326 
L 266.290162 106.619475 
L 266.56812 134.6373 
L 266.846077 180.559704 
L 267.124035 160.849189 
L 267.401993 153.367449 
L 267.67995 178.444177 
L 267.957908 182.623632 
L 268.235866 148.001236 
L 268.513823 132.366979 
L 268.791781 170.343259 
L 269.069738 136.133648 
L 269.347696 184.790757 
L 269.625654 195.62638 
L 269.903611 196.142362 
L 270.181569 194.542818 
L 270.459527 169.982072 
L 270.737484 65.082919 
L 271.015442 156.566538 
L 271.2934 138.713559 
L 271.571357 161.881153 
L 271.849315 171.065634 
L 272.127273 130.561042 
L 272.40523 136.340041 
L 272.683188 182.572034 
L 272.961146 189.486193 
L 273.239103 186.596694 
L 273.517061 181.952855 
L 273.795019 169.053304 
L 274.072976 121.686151 
L 274.350934 157.95969 
L 274.628892 139.023148 
L 274.906849 144.698951 
L 275.184807 132.470176 
L 275.462765 175.864267 
L 275.740722 175.348285 
L 276.01868 129.374283 
L 276.296638 154.915395 
L 276.574595 165.493028 
L 276.852553 130.973828 
L 277.130511 130.04506 
L 277.408468 182.159248 
L 277.686426 199.909031 
L 277.964384 200.889397 
L 278.242341 180.482307 
L 278.520299 120.912178 
L 278.798257 112.243679 
L 279.076214 109.457376 
L 279.354172 195.677978 
L 279.63213 195.0588 
L 280.188045 196.658344 
L 280.74396 202.23095 
L 281.021918 203.520906 
L 281.299875 188.71222 
L 281.577833 91.913986 
L 281.855791 150.271557 
L 282.133748 147.536852 
L 282.411706 170.394857 
L 282.689664 155.07019 
L 282.967621 180.766097 
L 283.245579 163.274305 
L 283.523537 190.15697 
L 283.801494 158.114484 
L 284.079452 147.485254 
L 284.35741 168.898509 
L 284.635367 176.999428 
L 284.913325 166.731385 
L 285.191283 164.409465 
L 285.46924 153.135257 
L 285.747198 79.066033 
L 286.025156 166.628188 
L 286.303113 154.966994 
L 286.581071 175.245089 
L 286.859029 150.735941 
L 287.136986 156.489141 
L 287.414944 144.698951 
L 287.692902 171.220429 
L 287.970859 150.839137 
L 288.526775 124.988436 
L 288.804732 178.598972 
L 289.08269 172.819973 
L 289.360648 180.353311 
L 289.638605 141.190273 
L 289.916563 175.967464 
L 290.472478 165.802617 
L 290.750436 146.092102 
L 291.028394 160.591198 
L 291.306351 156.308547 
L 291.584309 169.569286 
L 291.862267 158.114484 
L 292.140224 171.684812 
L 292.418182 191.137336 
L 292.696139 146.556486 
L 292.974097 178.547374 
L 293.252055 159.765627 
L 293.530012 185.719524 
L 293.80797 146.556486 
L 294.085928 172.61358 
L 294.363885 166.00901 
L 294.641843 166.989376 
L 294.919801 175.348285 
L 295.197758 195.677978 
L 295.475716 144.13137 
L 295.753674 182.98482 
L 296.031631 163.171108 
L 296.309589 188.093042 
L 296.587547 188.867015 
L 296.865504 202.901727 
L 297.143462 201.66337 
L 297.42142 168.382527 
L 297.699377 154.193021 
L 297.977335 187.57706 
L 298.255293 191.653318 
L 298.53325 187.00948 
L 298.811208 197.432317 
L 299.089166 189.795783 
L 299.645081 125.607614 
L 300.200996 166.989376 
L 300.478954 183.500802 
L 300.756912 183.088016 
L 301.034869 172.458786 
L 301.312827 155.998958 
L 301.590785 161.881153 
L 301.868742 184.481168 
L 302.1467 183.139614 
L 302.424658 170.704447 
L 302.702615 190.879345 
L 302.980573 173.903535 
L 303.258531 136.546434 
L 303.536488 145.885709 
L 303.814446 189.950577 
L 304.092403 182.520436 
L 304.370361 200.940995 
L 304.648319 162.448734 
L 304.926276 143.976576 
L 305.204234 177.979794 
L 305.482192 194.026836 
L 305.760149 193.665648 
L 306.038107 194.233228 
L 306.316065 184.171578 
L 306.594022 154.863797 
L 307.427895 172.407187 
L 307.705853 174.05833 
L 308.261768 186.69989 
L 308.539726 210.796253 
L 308.817684 212.189404 
L 309.095641 191.292131 
L 309.373599 161.003984 
L 309.929514 180.972489 
L 310.207472 188.609024 
L 310.48543 167.350563 
L 310.763387 193.201264 
L 311.041345 170.962438 
L 311.319303 184.171578 
L 311.59726 180.817695 
L 311.875218 181.591668 
L 312.153176 178.237785 
L 312.431133 158.114484 
L 312.709091 176.380249 
L 312.987049 170.136866 
L 313.265006 195.0588 
L 313.542964 191.704916 
L 313.820922 137.165613 
L 314.376837 195.677978 
L 314.654795 196.709942 
L 314.932752 188.351033 
L 315.21071 131.954194 
L 315.488667 171.117232 
L 316.044583 203.056522 
L 316.32254 196.50355 
L 316.600498 198.722272 
L 316.878456 198.257889 
L 317.156413 196.658344 
L 317.434371 197.277523 
L 317.712329 197.225924 
L 317.990286 195.987567 
L 318.824159 199.08346 
L 319.102117 174.05833 
L 319.380075 193.975237 
L 319.658032 166.834581 
L 319.93599 196.709942 
L 320.213948 187.57706 
L 320.491905 126.484784 
L 320.769863 188.093042 
L 321.047821 195.677978 
L 321.325778 176.896231 
L 321.603736 181.643266 
L 321.881694 184.068382 
L 322.159651 171.633214 
L 322.437609 191.911309 
L 322.715567 139.023148 
L 323.271482 194.336425 
L 323.54944 188.093042 
L 323.827397 178.134588 
L 324.105355 148.878405 
L 324.383313 175.19349 
L 324.66127 154.966994 
L 324.939228 158.940056 
L 325.217186 171.994402 
L 325.495143 165.802617 
L 325.773101 174.832303 
L 326.051059 188.660622 
L 326.606974 201.921361 
L 326.884932 146.969272 
L 327.162889 174.574312 
L 327.440847 134.172917 
L 327.718804 172.149196 
L 327.996762 137.784791 
L 328.27472 138.455568 
L 328.552677 171.942803 
L 328.830635 177.876597 
L 329.108593 187.164274 
L 329.38655 186.029114 
L 329.664508 183.500802 
L 330.220423 105.8971 
L 330.498381 177.928195 
L 330.776339 181.101485 
L 331.054296 186.080712 
L 331.610212 176.844633 
L 331.888169 145.988906 
L 332.166127 133.450542 
L 332.444085 177.721803 
L 332.722042 182.520436 
L 333 162.655126 
L 333.555915 190.776149 
L 334.111831 131.696203 
L 334.389788 184.326373 
L 334.667746 171.736411 
L 334.945704 184.842355 
L 335.223661 177.154222 
L 336.057534 137.887987 
L 336.335492 100.788877 
L 336.61345 163.325903 
L 336.891407 176.896231 
L 337.169365 163.274305 
L 337.447323 199.65104 
L 337.72528 148.46562 
L 338.003238 153.05786 
L 338.281196 127.258757 
L 338.559153 133.863327 
L 338.837111 121.737749 
L 339.115068 155.07019 
L 339.393026 155.07019 
L 339.670984 159.559234 
L 339.948941 96.454628 
L 340.226899 175.812669 
L 340.504857 160.849189 
L 341.060772 169.672482 
L 341.33873 188.299435 
L 341.616687 177.928195 
L 341.894645 75.97014 
L 342.172603 170.240063 
L 342.45056 149.652378 
L 343.006476 171.994402 
L 343.284433 188.093042 
L 343.562391 163.738689 
L 343.840349 98.312163 
L 344.118306 153.161056 
L 344.396264 155.173386 
L 344.674222 174.367919 
L 344.952179 174.109928 
L 345.230137 178.65057 
L 345.508095 158.320877 
L 345.786052 121.789347 
L 346.06401 104.194359 
L 346.341968 165.854215 
L 346.619925 174.05833 
L 347.175841 177.876597 
L 347.453798 181.746463 
L 347.731756 211.931413 
L 348.009714 227.023888 
L 348.287671 234.570126 
L 348.565629 238.343245 
L 349.121544 176.277053 
L 349.399502 110.540938 
L 349.67746 121.582954 
L 349.955417 176.431847 
L 350.233375 160.565399 
L 350.511333 184.016784 
L 351.067248 155.224985 
L 351.345205 150.323155 
L 351.623163 119.777017 
L 351.901121 110.953724 
L 352.179078 145.00854 
L 352.457036 143.202603 
L 352.734994 158.785261 
L 353.012951 150.735941 
L 353.568867 185.719524 
L 353.846824 119.467428 
L 354.40274 166.524992 
L 354.680697 161.67476 
L 354.958655 186.390301 
L 355.236613 117.4035 
L 355.792528 157.908091 
L 356.070486 150.245758 
L 356.348443 149.342789 
L 356.626401 166.215403 
L 356.904359 175.709472 
L 357.182316 106.206689 
L 357.460274 93.358736 
L 358.016189 152.799869 
L 358.294147 142.583424 
L 358.572105 113.430438 
L 358.850062 166.782983 
L 359.12802 167.45376 
L 359.405978 168.950107 
L 359.683935 128.987297 
L 359.961893 123.646883 
L 360.239851 129.167891 
L 360.795766 200.683004 
L 361.073724 164.590059 
L 361.351681 86.547772 
L 361.629639 174.367919 
L 361.907597 158.785261 
L 362.185554 165.389831 
L 362.463512 178.289383 
L 362.741469 166.679786 
L 363.019427 174.419517 
L 363.297385 75.660551 
L 363.575342 183.088016 
L 363.8533 154.709003 
L 364.131258 174.729107 
L 364.409215 169.053304 
L 364.687173 174.935499 
L 365.243088 88.405308 
L 365.521046 159.043252 
L 365.799004 174.677508 
L 366.076961 175.50308 
L 366.354919 170.291661 
L 366.632877 175.915865 
L 366.910834 115.287973 
L 367.188792 86.34138 
L 367.46675 142.841415 
L 368.022665 170.704447 
L 368.300623 165.493028 
L 368.57858 170.704447 
L 368.856538 165.389831 
L 369.134496 107.857832 
L 369.412453 182.933221 
L 369.690411 170.498054 
L 369.968369 124.111266 
L 370.246326 157.856493 
L 370.524284 168.124536 
L 370.802242 206.049218 
L 371.080199 207.803557 
L 371.636115 164.719055 
L 372.469988 179.424543 
L 372.747945 92.429968 
L 373.025903 155.482976 
L 373.303861 183.603998 
L 373.581818 172.510384 
L 373.581818 172.510384 
" style="fill:none;stroke:#000000;stroke-linecap:square;stroke-width:1.5;"/>
   </g>
   <g id="patch_3">
    <path d="M 54 252 
L 54 34.56 
" style="fill:none;stroke:#000000;stroke-linecap:square;stroke-linejoin:miter;stroke-width:0.8;"/>
   </g>
   <g id="patch_4">
    <path d="M 388.8 252 
L 388.8 34.56 
" style="fill:none;stroke:#000000;stroke-linecap:square;stroke-linejoin:miter;stroke-width:0.8;"/>
   </g>
   <g id="patch_5">
    <path d="M 54 252 
L 388.8 252 
" style="fill:none;stroke:#000000;stroke-linecap:square;stroke-linejoin:miter;stroke-width:0.8;"/>
   </g>
   <g id="patch_6">
    <path d="M 54 34.56 
L 388.8 34.56 
" style="fill:none;stroke:#000000;stroke-linecap:square;stroke-linejoin:miter;stroke-width:0.8;"/>
   </g>
   <g id="text_20">
    <!-- Soma Diária de Energia - Casa 8 -->
    <g transform="translate(124.230938 28.56)scale(0.12 -0.12)">
     <defs>
      <path d="M 53.515625 70.515625 
L 53.515625 60.890625 
Q 47.90625 63.578125 42.921875 64.890625 
Q 37.9375 66.21875 33.296875 66.21875 
Q 25.25 66.21875 20.875 63.09375 
Q 16.5 59.96875 16.5 54.203125 
Q 16.5 49.359375 19.40625 46.890625 
Q 22.3125 44.4375 30.421875 42.921875 
L 36.375 41.703125 
Q 47.40625 39.59375 52.65625 34.296875 
Q 57.90625 29 57.90625 20.125 
Q 57.90625 9.515625 50.796875 4.046875 
Q 43.703125 -1.421875 29.984375 -1.421875 
Q 24.8125 -1.421875 18.96875 -0.25 
Q 13.140625 0.921875 6.890625 3.21875 
L 6.890625 13.375 
Q 12.890625 10.015625 18.65625 8.296875 
Q 24.421875 6.59375 29.984375 6.59375 
Q 38.421875 6.59375 43.015625 9.90625 
Q 47.609375 13.234375 47.609375 19.390625 
Q 47.609375 24.75 44.3125 27.78125 
Q 41.015625 30.8125 33.5 32.328125 
L 27.484375 33.5 
Q 16.453125 35.6875 11.515625 40.375 
Q 6.59375 45.0625 6.59375 53.421875 
Q 6.59375 63.09375 13.40625 68.65625 
Q 20.21875 74.21875 32.171875 74.21875 
Q 37.3125 74.21875 42.625 73.28125 
Q 47.953125 72.359375 53.515625 70.515625 
z
" id="DejaVuSans-83"/>
      <path d="M 30.609375 48.390625 
Q 23.390625 48.390625 19.1875 42.75 
Q 14.984375 37.109375 14.984375 27.296875 
Q 14.984375 17.484375 19.15625 11.84375 
Q 23.34375 6.203125 30.609375 6.203125 
Q 37.796875 6.203125 41.984375 11.859375 
Q 46.1875 17.53125 46.1875 27.296875 
Q 46.1875 37.015625 41.984375 42.703125 
Q 37.796875 48.390625 30.609375 48.390625 
z
M 30.609375 56 
Q 42.328125 56 49.015625 48.375 
Q 55.71875 40.765625 55.71875 27.296875 
Q 55.71875 13.875 49.015625 6.21875 
Q 42.328125 -1.421875 30.609375 -1.421875 
Q 18.84375 -1.421875 12.171875 6.21875 
Q 5.515625 13.875 5.515625 27.296875 
Q 5.515625 40.765625 12.171875 48.375 
Q 18.84375 56 30.609375 56 
z
" id="DejaVuSans-111"/>
      <path d="M 52 44.1875 
Q 55.375 50.25 60.0625 53.125 
Q 64.75 56 71.09375 56 
Q 79.640625 56 84.28125 50.015625 
Q 88.921875 44.046875 88.921875 33.015625 
L 88.921875 0 
L 79.890625 0 
L 79.890625 32.71875 
Q 79.890625 40.578125 77.09375 44.375 
Q 74.3125 48.1875 68.609375 48.1875 
Q 61.625 48.1875 57.5625 43.546875 
Q 53.515625 38.921875 53.515625 30.90625 
L 53.515625 0 
L 44.484375 0 
L 44.484375 32.71875 
Q 44.484375 40.625 41.703125 44.40625 
Q 38.921875 48.1875 33.109375 48.1875 
Q 26.21875 48.1875 22.15625 43.53125 
Q 18.109375 38.875 18.109375 30.90625 
L 18.109375 0 
L 9.078125 0 
L 9.078125 54.6875 
L 18.109375 54.6875 
L 18.109375 46.1875 
Q 21.1875 51.21875 25.484375 53.609375 
Q 29.78125 56 35.6875 56 
Q 41.65625 56 45.828125 52.96875 
Q 50 49.953125 52 44.1875 
z
" id="DejaVuSans-109"/>
      <path d="M 34.28125 27.484375 
Q 23.390625 27.484375 19.1875 25 
Q 14.984375 22.515625 14.984375 16.5 
Q 14.984375 11.71875 18.140625 8.90625 
Q 21.296875 6.109375 26.703125 6.109375 
Q 34.1875 6.109375 38.703125 11.40625 
Q 43.21875 16.703125 43.21875 25.484375 
L 43.21875 27.484375 
z
M 52.203125 31.203125 
L 52.203125 0 
L 43.21875 0 
L 43.21875 8.296875 
Q 40.140625 3.328125 35.546875 0.953125 
Q 30.953125 -1.421875 24.3125 -1.421875 
Q 15.921875 -1.421875 10.953125 3.296875 
Q 6 8.015625 6 15.921875 
Q 6 25.140625 12.171875 29.828125 
Q 18.359375 34.515625 30.609375 34.515625 
L 43.21875 34.515625 
L 43.21875 35.40625 
Q 43.21875 41.609375 39.140625 45 
Q 35.0625 48.390625 27.6875 48.390625 
Q 23 48.390625 18.546875 47.265625 
Q 14.109375 46.140625 10.015625 43.890625 
L 10.015625 52.203125 
Q 14.9375 54.109375 19.578125 55.046875 
Q 24.21875 56 28.609375 56 
Q 40.484375 56 46.34375 49.84375 
Q 52.203125 43.703125 52.203125 31.203125 
z
" id="DejaVuSans-97"/>
      <path id="DejaVuSans-32"/>
      <path d="M 19.671875 64.796875 
L 19.671875 8.109375 
L 31.59375 8.109375 
Q 46.6875 8.109375 53.6875 14.9375 
Q 60.6875 21.78125 60.6875 36.53125 
Q 60.6875 51.171875 53.6875 57.984375 
Q 46.6875 64.796875 31.59375 64.796875 
z
M 9.8125 72.90625 
L 30.078125 72.90625 
Q 51.265625 72.90625 61.171875 64.09375 
Q 71.09375 55.28125 71.09375 36.53125 
Q 71.09375 17.671875 61.125 8.828125 
Q 51.171875 0 30.078125 0 
L 9.8125 0 
z
" id="DejaVuSans-68"/>
      <path d="M 9.421875 54.6875 
L 18.40625 54.6875 
L 18.40625 0 
L 9.421875 0 
z
M 9.421875 75.984375 
L 18.40625 75.984375 
L 18.40625 64.59375 
L 9.421875 64.59375 
z
" id="DejaVuSans-105"/>
      <path d="M 34.28125 27.484375 
Q 23.390625 27.484375 19.1875 25 
Q 14.984375 22.515625 14.984375 16.5 
Q 14.984375 11.71875 18.140625 8.90625 
Q 21.296875 6.109375 26.703125 6.109375 
Q 34.1875 6.109375 38.703125 11.40625 
Q 43.21875 16.703125 43.21875 25.484375 
L 43.21875 27.484375 
z
M 52.203125 31.203125 
L 52.203125 0 
L 43.21875 0 
L 43.21875 8.296875 
Q 40.140625 3.328125 35.546875 0.953125 
Q 30.953125 -1.421875 24.3125 -1.421875 
Q 15.921875 -1.421875 10.953125 3.296875 
Q 6 8.015625 6 15.921875 
Q 6 25.140625 12.171875 29.828125 
Q 18.359375 34.515625 30.609375 34.515625 
L 43.21875 34.515625 
L 43.21875 35.40625 
Q 43.21875 41.609375 39.140625 45 
Q 35.0625 48.390625 27.6875 48.390625 
Q 23 48.390625 18.546875 47.265625 
Q 14.109375 46.140625 10.015625 43.890625 
L 10.015625 52.203125 
Q 14.9375 54.109375 19.578125 55.046875 
Q 24.21875 56 28.609375 56 
Q 40.484375 56 46.34375 49.84375 
Q 52.203125 43.703125 52.203125 31.203125 
z
M 35.796875 79.984375 
L 45.515625 79.984375 
L 29.59375 61.625 
L 22.125 61.625 
z
" id="DejaVuSans-225"/>
      <path d="M 41.109375 46.296875 
Q 39.59375 47.171875 37.8125 47.578125 
Q 36.03125 48 33.890625 48 
Q 26.265625 48 22.1875 43.046875 
Q 18.109375 38.09375 18.109375 28.8125 
L 18.109375 0 
L 9.078125 0 
L 9.078125 54.6875 
L 18.109375 54.6875 
L 18.109375 46.1875 
Q 20.953125 51.171875 25.484375 53.578125 
Q 30.03125 56 36.53125 56 
Q 37.453125 56 38.578125 55.875 
Q 39.703125 55.765625 41.0625 55.515625 
z
" id="DejaVuSans-114"/>
      <path d="M 45.40625 46.390625 
L 45.40625 75.984375 
L 54.390625 75.984375 
L 54.390625 0 
L 45.40625 0 
L 45.40625 8.203125 
Q 42.578125 3.328125 38.25 0.953125 
Q 33.9375 -1.421875 27.875 -1.421875 
Q 17.96875 -1.421875 11.734375 6.484375 
Q 5.515625 14.40625 5.515625 27.296875 
Q 5.515625 40.1875 11.734375 48.09375 
Q 17.96875 56 27.875 56 
Q 33.9375 56 38.25 53.625 
Q 42.578125 51.265625 45.40625 46.390625 
z
M 14.796875 27.296875 
Q 14.796875 17.390625 18.875 11.75 
Q 22.953125 6.109375 30.078125 6.109375 
Q 37.203125 6.109375 41.296875 11.75 
Q 45.40625 17.390625 45.40625 27.296875 
Q 45.40625 37.203125 41.296875 42.84375 
Q 37.203125 48.484375 30.078125 48.484375 
Q 22.953125 48.484375 18.875 42.84375 
Q 14.796875 37.203125 14.796875 27.296875 
z
" id="DejaVuSans-100"/>
      <path d="M 56.203125 29.59375 
L 56.203125 25.203125 
L 14.890625 25.203125 
Q 15.484375 15.921875 20.484375 11.0625 
Q 25.484375 6.203125 34.421875 6.203125 
Q 39.59375 6.203125 44.453125 7.46875 
Q 49.3125 8.734375 54.109375 11.28125 
L 54.109375 2.78125 
Q 49.265625 0.734375 44.1875 -0.34375 
Q 39.109375 -1.421875 33.890625 -1.421875 
Q 20.796875 -1.421875 13.15625 6.1875 
Q 5.515625 13.8125 5.515625 26.8125 
Q 5.515625 40.234375 12.765625 48.109375 
Q 20.015625 56 32.328125 56 
Q 43.359375 56 49.78125 48.890625 
Q 56.203125 41.796875 56.203125 29.59375 
z
M 47.21875 32.234375 
Q 47.125 39.59375 43.09375 43.984375 
Q 39.0625 48.390625 32.421875 48.390625 
Q 24.90625 48.390625 20.390625 44.140625 
Q 15.875 39.890625 15.1875 32.171875 
z
" id="DejaVuSans-101"/>
      <path d="M 9.8125 72.90625 
L 55.90625 72.90625 
L 55.90625 64.59375 
L 19.671875 64.59375 
L 19.671875 43.015625 
L 54.390625 43.015625 
L 54.390625 34.71875 
L 19.671875 34.71875 
L 19.671875 8.296875 
L 56.78125 8.296875 
L 56.78125 0 
L 9.8125 0 
z
" id="DejaVuSans-69"/>
      <path d="M 54.890625 33.015625 
L 54.890625 0 
L 45.90625 0 
L 45.90625 32.71875 
Q 45.90625 40.484375 42.875 44.328125 
Q 39.84375 48.1875 33.796875 48.1875 
Q 26.515625 48.1875 22.3125 43.546875 
Q 18.109375 38.921875 18.109375 30.90625 
L 18.109375 0 
L 9.078125 0 
L 9.078125 54.6875 
L 18.109375 54.6875 
L 18.109375 46.1875 
Q 21.34375 51.125 25.703125 53.5625 
Q 30.078125 56 35.796875 56 
Q 45.21875 56 50.046875 50.171875 
Q 54.890625 44.34375 54.890625 33.015625 
z
" id="DejaVuSans-110"/>
      <path d="M 45.40625 27.984375 
Q 45.40625 37.75 41.375 43.109375 
Q 37.359375 48.484375 30.078125 48.484375 
Q 22.859375 48.484375 18.828125 43.109375 
Q 14.796875 37.75 14.796875 27.984375 
Q 14.796875 18.265625 18.828125 12.890625 
Q 22.859375 7.515625 30.078125 7.515625 
Q 37.359375 7.515625 41.375 12.890625 
Q 45.40625 18.265625 45.40625 27.984375 
z
M 54.390625 6.78125 
Q 54.390625 -7.171875 48.1875 -13.984375 
Q 42 -20.796875 29.203125 -20.796875 
Q 24.46875 -20.796875 20.265625 -20.09375 
Q 16.0625 -19.390625 12.109375 -17.921875 
L 12.109375 -9.1875 
Q 16.0625 -11.328125 19.921875 -12.34375 
Q 23.78125 -13.375 27.78125 -13.375 
Q 36.625 -13.375 41.015625 -8.765625 
Q 45.40625 -4.15625 45.40625 5.171875 
L 45.40625 9.625 
Q 42.625 4.78125 38.28125 2.390625 
Q 33.9375 0 27.875 0 
Q 17.828125 0 11.671875 7.65625 
Q 5.515625 15.328125 5.515625 27.984375 
Q 5.515625 40.671875 11.671875 48.328125 
Q 17.828125 56 27.875 56 
Q 33.9375 56 38.28125 53.609375 
Q 42.625 51.21875 45.40625 46.390625 
L 45.40625 54.6875 
L 54.390625 54.6875 
z
" id="DejaVuSans-103"/>
      <path d="M 64.40625 67.28125 
L 64.40625 56.890625 
Q 59.421875 61.53125 53.78125 63.8125 
Q 48.140625 66.109375 41.796875 66.109375 
Q 29.296875 66.109375 22.65625 58.46875 
Q 16.015625 50.828125 16.015625 36.375 
Q 16.015625 21.96875 22.65625 14.328125 
Q 29.296875 6.6875 41.796875 6.6875 
Q 48.140625 6.6875 53.78125 8.984375 
Q 59.421875 11.28125 64.40625 15.921875 
L 64.40625 5.609375 
Q 59.234375 2.09375 53.4375 0.328125 
Q 47.65625 -1.421875 41.21875 -1.421875 
Q 24.65625 -1.421875 15.125 8.703125 
Q 5.609375 18.84375 5.609375 36.375 
Q 5.609375 53.953125 15.125 64.078125 
Q 24.65625 74.21875 41.21875 74.21875 
Q 47.75 74.21875 53.53125 72.484375 
Q 59.328125 70.75 64.40625 67.28125 
z
" id="DejaVuSans-67"/>
      <path d="M 44.28125 53.078125 
L 44.28125 44.578125 
Q 40.484375 46.53125 36.375 47.5 
Q 32.28125 48.484375 27.875 48.484375 
Q 21.1875 48.484375 17.84375 46.4375 
Q 14.5 44.390625 14.5 40.28125 
Q 14.5 37.15625 16.890625 35.375 
Q 19.28125 33.59375 26.515625 31.984375 
L 29.59375 31.296875 
Q 39.15625 29.25 43.1875 25.515625 
Q 47.21875 21.78125 47.21875 15.09375 
Q 47.21875 7.46875 41.1875 3.015625 
Q 35.15625 -1.421875 24.609375 -1.421875 
Q 20.21875 -1.421875 15.453125 -0.5625 
Q 10.6875 0.296875 5.421875 2 
L 5.421875 11.28125 
Q 10.40625 8.6875 15.234375 7.390625 
Q 20.0625 6.109375 24.8125 6.109375 
Q 31.15625 6.109375 34.5625 8.28125 
Q 37.984375 10.453125 37.984375 14.40625 
Q 37.984375 18.0625 35.515625 20.015625 
Q 33.0625 21.96875 24.703125 23.78125 
L 21.578125 24.515625 
Q 13.234375 26.265625 9.515625 29.90625 
Q 5.8125 33.546875 5.8125 39.890625 
Q 5.8125 47.609375 11.28125 51.796875 
Q 16.75 56 26.8125 56 
Q 31.78125 56 36.171875 55.265625 
Q 40.578125 54.546875 44.28125 53.078125 
z
" id="DejaVuSans-115"/>
     </defs>
     <use xlink:href="#DejaVuSans-83"/>
     <use x="63.476562" xlink:href="#DejaVuSans-111"/>
     <use x="124.658203" xlink:href="#DejaVuSans-109"/>
     <use x="222.070312" xlink:href="#DejaVuSans-97"/>
     <use x="283.349609" xlink:href="#DejaVuSans-32"/>
     <use x="315.136719" xlink:href="#DejaVuSans-68"/>
     <use x="392.138672" xlink:href="#DejaVuSans-105"/>
     <use x="419.921875" xlink:href="#DejaVuSans-225"/>
     <use x="481.201172" xlink:href="#DejaVuSans-114"/>
     <use x="522.314453" xlink:href="#DejaVuSans-105"/>
     <use x="550.097656" xlink:href="#DejaVuSans-97"/>
     <use x="611.376953" xlink:href="#DejaVuSans-32"/>
     <use x="643.164062" xlink:href="#DejaVuSans-100"/>
     <use x="706.640625" xlink:href="#DejaVuSans-101"/>
     <use x="768.164062" xlink:href="#DejaVuSans-32"/>
     <use x="799.951172" xlink:href="#DejaVuSans-69"/>
     <use x="863.134766" xlink:href="#DejaVuSans-110"/>
     <use x="926.513672" xlink:href="#DejaVuSans-101"/>
     <use x="988.037109" xlink:href="#DejaVuSans-114"/>
     <use x="1027.400391" xlink:href="#DejaVuSans-103"/>
     <use x="1090.876953" xlink:href="#DejaVuSans-105"/>
     <use x="1118.660156" xlink:href="#DejaVuSans-97"/>
     <use x="1179.939453" xlink:href="#DejaVuSans-32"/>
     <use x="1211.726562" xlink:href="#DejaVuSans-45"/>
     <use x="1247.810547" xlink:href="#DejaVuSans-32"/>
     <use x="1279.597656" xlink:href="#DejaVuSans-67"/>
     <use x="1349.421875" xlink:href="#DejaVuSans-97"/>
     <use x="1410.701172" xlink:href="#DejaVuSans-115"/>
     <use x="1462.800781" xlink:href="#DejaVuSans-97"/>
     <use x="1524.080078" xlink:href="#DejaVuSans-32"/>
     <use x="1555.867188" xlink:href="#DejaVuSans-56"/>
    </g>
   </g>
  </g>
 </g>
 <defs>
  <clipPath id="p418cc5e76c">
   <rect height="217.44" width="334.8" x="54" y="34.56"/>
  </clipPath>
 </defs>
</svg>
