<?xml version="1.0" encoding="utf-8" standalone="no"?>
<!DOCTYPE svg PUBLIC "-//W3C//DTD SVG 1.1//EN"
  "http://www.w3.org/Graphics/SVG/1.1/DTD/svg11.dtd">
<!-- Created with matplotlib (https://matplotlib.org/) -->
<svg height="288pt" version="1.1" viewBox="0 0 432 288" width="432pt" xmlns="http://www.w3.org/2000/svg" xmlns:xlink="http://www.w3.org/1999/xlink">
 <metadata>
  <rdf:RDF xmlns:cc="http://creativecommons.org/ns#" xmlns:dc="http://purl.org/dc/elements/1.1/" xmlns:rdf="http://www.w3.org/1999/02/22-rdf-syntax-ns#">
   <cc:Work>
    <dc:type rdf:resource="http://purl.org/dc/dcmitype/StillImage"/>
    <dc:date>2021-07-21T14:57:44.795098</dc:date>
    <dc:format>image/svg+xml</dc:format>
    <dc:creator>
     <cc:Agent>
      <dc:title>Matplotlib v3.3.4, https://matplotlib.org/</dc:title>
     </cc:Agent>
    </dc:creator>
   </cc:Work>
  </rdf:RDF>
 </metadata>
 <defs>
  <style type="text/css">*{stroke-linecap:butt;stroke-linejoin:round;}</style>
 </defs>
 <g id="figure_1">
  <g id="patch_1">
   <path d="M 0 288 
L 432 288 
L 432 0 
L 0 0 
z
" style="fill:#ffffff;"/>
  </g>
  <g id="axes_1">
   <g id="patch_2">
    <path d="M 54 252 
L 388.8 252 
L 388.8 34.56 
L 54 34.56 
z
" style="fill:#ffffff;"/>
   </g>
   <g id="matplotlib.axis_1">
    <g id="xtick_1">
     <g id="line2d_1">
      <defs>
       <path d="M 0 0 
L 0 3.5 
" id="ma73b18d6c7" style="stroke:#000000;stroke-width:0.8;"/>
      </defs>
      <g>
       <use style="stroke:#000000;stroke-width:0.8;" x="61.15741" xlink:href="#ma73b18d6c7" y="252"/>
      </g>
     </g>
     <g id="text_1">
      <!-- 2015-01 -->
      <g transform="translate(48.336127 293.917817)rotate(-45)scale(0.1 -0.1)">
       <defs>
        <path d="M 19.1875 8.296875 
L 53.609375 8.296875 
L 53.609375 0 
L 7.328125 0 
L 7.328125 8.296875 
Q 12.9375 14.109375 22.625 23.890625 
Q 32.328125 33.6875 34.8125 36.53125 
Q 39.546875 41.84375 41.421875 45.53125 
Q 43.3125 49.21875 43.3125 52.78125 
Q 43.3125 58.59375 39.234375 62.25 
Q 35.15625 65.921875 28.609375 65.921875 
Q 23.96875 65.921875 18.8125 64.3125 
Q 13.671875 62.703125 7.8125 59.421875 
L 7.8125 69.390625 
Q 13.765625 71.78125 18.9375 73 
Q 24.125 74.21875 28.421875 74.21875 
Q 39.75 74.21875 46.484375 68.546875 
Q 53.21875 62.890625 53.21875 53.421875 
Q 53.21875 48.921875 51.53125 44.890625 
Q 49.859375 40.875 45.40625 35.40625 
Q 44.1875 33.984375 37.640625 27.21875 
Q 31.109375 20.453125 19.1875 8.296875 
z
" id="DejaVuSans-50"/>
        <path d="M 31.78125 66.40625 
Q 24.171875 66.40625 20.328125 58.90625 
Q 16.5 51.421875 16.5 36.375 
Q 16.5 21.390625 20.328125 13.890625 
Q 24.171875 6.390625 31.78125 6.390625 
Q 39.453125 6.390625 43.28125 13.890625 
Q 47.125 21.390625 47.125 36.375 
Q 47.125 51.421875 43.28125 58.90625 
Q 39.453125 66.40625 31.78125 66.40625 
z
M 31.78125 74.21875 
Q 44.046875 74.21875 50.515625 64.515625 
Q 56.984375 54.828125 56.984375 36.375 
Q 56.984375 17.96875 50.515625 8.265625 
Q 44.046875 -1.421875 31.78125 -1.421875 
Q 19.53125 -1.421875 13.0625 8.265625 
Q 6.59375 17.96875 6.59375 36.375 
Q 6.59375 54.828125 13.0625 64.515625 
Q 19.53125 74.21875 31.78125 74.21875 
z
" id="DejaVuSans-48"/>
        <path d="M 12.40625 8.296875 
L 28.515625 8.296875 
L 28.515625 63.921875 
L 10.984375 60.40625 
L 10.984375 69.390625 
L 28.421875 72.90625 
L 38.28125 72.90625 
L 38.28125 8.296875 
L 54.390625 8.296875 
L 54.390625 0 
L 12.40625 0 
z
" id="DejaVuSans-49"/>
        <path d="M 10.796875 72.90625 
L 49.515625 72.90625 
L 49.515625 64.59375 
L 19.828125 64.59375 
L 19.828125 46.734375 
Q 21.96875 47.46875 24.109375 47.828125 
Q 26.265625 48.1875 28.421875 48.1875 
Q 40.625 48.1875 47.75 41.5 
Q 54.890625 34.8125 54.890625 23.390625 
Q 54.890625 11.625 47.5625 5.09375 
Q 40.234375 -1.421875 26.90625 -1.421875 
Q 22.3125 -1.421875 17.546875 -0.640625 
Q 12.796875 0.140625 7.71875 1.703125 
L 7.71875 11.625 
Q 12.109375 9.234375 16.796875 8.0625 
Q 21.484375 6.890625 26.703125 6.890625 
Q 35.15625 6.890625 40.078125 11.328125 
Q 45.015625 15.765625 45.015625 23.390625 
Q 45.015625 31 40.078125 35.4375 
Q 35.15625 39.890625 26.703125 39.890625 
Q 22.75 39.890625 18.8125 39.015625 
Q 14.890625 38.140625 10.796875 36.28125 
z
" id="DejaVuSans-53"/>
        <path d="M 4.890625 31.390625 
L 31.203125 31.390625 
L 31.203125 23.390625 
L 4.890625 23.390625 
z
" id="DejaVuSans-45"/>
       </defs>
       <use xlink:href="#DejaVuSans-50"/>
       <use x="63.623047" xlink:href="#DejaVuSans-48"/>
       <use x="127.246094" xlink:href="#DejaVuSans-49"/>
       <use x="190.869141" xlink:href="#DejaVuSans-53"/>
       <use x="254.492188" xlink:href="#DejaVuSans-45"/>
       <use x="290.576172" xlink:href="#DejaVuSans-48"/>
       <use x="354.199219" xlink:href="#DejaVuSans-49"/>
      </g>
     </g>
    </g>
    <g id="xtick_2">
     <g id="line2d_2">
      <g>
       <use style="stroke:#000000;stroke-width:0.8;" x="94.512329" xlink:href="#ma73b18d6c7" y="252"/>
      </g>
     </g>
     <g id="text_2">
      <!-- 2015-05 -->
      <g transform="translate(81.691047 293.917817)rotate(-45)scale(0.1 -0.1)">
       <use xlink:href="#DejaVuSans-50"/>
       <use x="63.623047" xlink:href="#DejaVuSans-48"/>
       <use x="127.246094" xlink:href="#DejaVuSans-49"/>
       <use x="190.869141" xlink:href="#DejaVuSans-53"/>
       <use x="254.492188" xlink:href="#DejaVuSans-45"/>
       <use x="290.576172" xlink:href="#DejaVuSans-48"/>
       <use x="354.199219" xlink:href="#DejaVuSans-53"/>
      </g>
     </g>
    </g>
    <g id="xtick_3">
     <g id="line2d_3">
      <g>
       <use style="stroke:#000000;stroke-width:0.8;" x="128.701121" xlink:href="#ma73b18d6c7" y="252"/>
      </g>
     </g>
     <g id="text_3">
      <!-- 2015-09 -->
      <g transform="translate(115.879839 293.917817)rotate(-45)scale(0.1 -0.1)">
       <defs>
        <path d="M 10.984375 1.515625 
L 10.984375 10.5 
Q 14.703125 8.734375 18.5 7.8125 
Q 22.3125 6.890625 25.984375 6.890625 
Q 35.75 6.890625 40.890625 13.453125 
Q 46.046875 20.015625 46.78125 33.40625 
Q 43.953125 29.203125 39.59375 26.953125 
Q 35.25 24.703125 29.984375 24.703125 
Q 19.046875 24.703125 12.671875 31.3125 
Q 6.296875 37.9375 6.296875 49.421875 
Q 6.296875 60.640625 12.9375 67.421875 
Q 19.578125 74.21875 30.609375 74.21875 
Q 43.265625 74.21875 49.921875 64.515625 
Q 56.59375 54.828125 56.59375 36.375 
Q 56.59375 19.140625 48.40625 8.859375 
Q 40.234375 -1.421875 26.421875 -1.421875 
Q 22.703125 -1.421875 18.890625 -0.6875 
Q 15.09375 0.046875 10.984375 1.515625 
z
M 30.609375 32.421875 
Q 37.25 32.421875 41.125 36.953125 
Q 45.015625 41.5 45.015625 49.421875 
Q 45.015625 57.28125 41.125 61.84375 
Q 37.25 66.40625 30.609375 66.40625 
Q 23.96875 66.40625 20.09375 61.84375 
Q 16.21875 57.28125 16.21875 49.421875 
Q 16.21875 41.5 20.09375 36.953125 
Q 23.96875 32.421875 30.609375 32.421875 
z
" id="DejaVuSans-57"/>
       </defs>
       <use xlink:href="#DejaVuSans-50"/>
       <use x="63.623047" xlink:href="#DejaVuSans-48"/>
       <use x="127.246094" xlink:href="#DejaVuSans-49"/>
       <use x="190.869141" xlink:href="#DejaVuSans-53"/>
       <use x="254.492188" xlink:href="#DejaVuSans-45"/>
       <use x="290.576172" xlink:href="#DejaVuSans-48"/>
       <use x="354.199219" xlink:href="#DejaVuSans-57"/>
      </g>
     </g>
    </g>
    <g id="xtick_4">
     <g id="line2d_4">
      <g>
       <use style="stroke:#000000;stroke-width:0.8;" x="162.611955" xlink:href="#ma73b18d6c7" y="252"/>
      </g>
     </g>
     <g id="text_4">
      <!-- 2016-01 -->
      <g transform="translate(149.790673 293.917817)rotate(-45)scale(0.1 -0.1)">
       <defs>
        <path d="M 33.015625 40.375 
Q 26.375 40.375 22.484375 35.828125 
Q 18.609375 31.296875 18.609375 23.390625 
Q 18.609375 15.53125 22.484375 10.953125 
Q 26.375 6.390625 33.015625 6.390625 
Q 39.65625 6.390625 43.53125 10.953125 
Q 47.40625 15.53125 47.40625 23.390625 
Q 47.40625 31.296875 43.53125 35.828125 
Q 39.65625 40.375 33.015625 40.375 
z
M 52.59375 71.296875 
L 52.59375 62.3125 
Q 48.875 64.0625 45.09375 64.984375 
Q 41.3125 65.921875 37.59375 65.921875 
Q 27.828125 65.921875 22.671875 59.328125 
Q 17.53125 52.734375 16.796875 39.40625 
Q 19.671875 43.65625 24.015625 45.921875 
Q 28.375 48.1875 33.59375 48.1875 
Q 44.578125 48.1875 50.953125 41.515625 
Q 57.328125 34.859375 57.328125 23.390625 
Q 57.328125 12.15625 50.6875 5.359375 
Q 44.046875 -1.421875 33.015625 -1.421875 
Q 20.359375 -1.421875 13.671875 8.265625 
Q 6.984375 17.96875 6.984375 36.375 
Q 6.984375 53.65625 15.1875 63.9375 
Q 23.390625 74.21875 37.203125 74.21875 
Q 40.921875 74.21875 44.703125 73.484375 
Q 48.484375 72.75 52.59375 71.296875 
z
" id="DejaVuSans-54"/>
       </defs>
       <use xlink:href="#DejaVuSans-50"/>
       <use x="63.623047" xlink:href="#DejaVuSans-48"/>
       <use x="127.246094" xlink:href="#DejaVuSans-49"/>
       <use x="190.869141" xlink:href="#DejaVuSans-54"/>
       <use x="254.492188" xlink:href="#DejaVuSans-45"/>
       <use x="290.576172" xlink:href="#DejaVuSans-48"/>
       <use x="354.199219" xlink:href="#DejaVuSans-49"/>
      </g>
     </g>
    </g>
    <g id="xtick_5">
     <g id="line2d_5">
      <g>
       <use style="stroke:#000000;stroke-width:0.8;" x="196.244832" xlink:href="#ma73b18d6c7" y="252"/>
      </g>
     </g>
     <g id="text_5">
      <!-- 2016-05 -->
      <g transform="translate(183.42355 293.917817)rotate(-45)scale(0.1 -0.1)">
       <use xlink:href="#DejaVuSans-50"/>
       <use x="63.623047" xlink:href="#DejaVuSans-48"/>
       <use x="127.246094" xlink:href="#DejaVuSans-49"/>
       <use x="190.869141" xlink:href="#DejaVuSans-54"/>
       <use x="254.492188" xlink:href="#DejaVuSans-45"/>
       <use x="290.576172" xlink:href="#DejaVuSans-48"/>
       <use x="354.199219" xlink:href="#DejaVuSans-53"/>
      </g>
     </g>
    </g>
    <g id="xtick_6">
     <g id="line2d_6">
      <g>
       <use style="stroke:#000000;stroke-width:0.8;" x="230.433624" xlink:href="#ma73b18d6c7" y="252"/>
      </g>
     </g>
     <g id="text_6">
      <!-- 2016-09 -->
      <g transform="translate(217.612342 293.917817)rotate(-45)scale(0.1 -0.1)">
       <use xlink:href="#DejaVuSans-50"/>
       <use x="63.623047" xlink:href="#DejaVuSans-48"/>
       <use x="127.246094" xlink:href="#DejaVuSans-49"/>
       <use x="190.869141" xlink:href="#DejaVuSans-54"/>
       <use x="254.492188" xlink:href="#DejaVuSans-45"/>
       <use x="290.576172" xlink:href="#DejaVuSans-48"/>
       <use x="354.199219" xlink:href="#DejaVuSans-57"/>
      </g>
     </g>
    </g>
    <g id="xtick_7">
     <g id="line2d_7">
      <g>
       <use style="stroke:#000000;stroke-width:0.8;" x="264.344458" xlink:href="#ma73b18d6c7" y="252"/>
      </g>
     </g>
     <g id="text_7">
      <!-- 2017-01 -->
      <g transform="translate(251.523176 293.917817)rotate(-45)scale(0.1 -0.1)">
       <defs>
        <path d="M 8.203125 72.90625 
L 55.078125 72.90625 
L 55.078125 68.703125 
L 28.609375 0 
L 18.3125 0 
L 43.21875 64.59375 
L 8.203125 64.59375 
z
" id="DejaVuSans-55"/>
       </defs>
       <use xlink:href="#DejaVuSans-50"/>
       <use x="63.623047" xlink:href="#DejaVuSans-48"/>
       <use x="127.246094" xlink:href="#DejaVuSans-49"/>
       <use x="190.869141" xlink:href="#DejaVuSans-55"/>
       <use x="254.492188" xlink:href="#DejaVuSans-45"/>
       <use x="290.576172" xlink:href="#DejaVuSans-48"/>
       <use x="354.199219" xlink:href="#DejaVuSans-49"/>
      </g>
     </g>
    </g>
    <g id="xtick_8">
     <g id="line2d_8">
      <g>
       <use style="stroke:#000000;stroke-width:0.8;" x="297.699377" xlink:href="#ma73b18d6c7" y="252"/>
      </g>
     </g>
     <g id="text_8">
      <!-- 2017-05 -->
      <g transform="translate(284.878095 293.917817)rotate(-45)scale(0.1 -0.1)">
       <use xlink:href="#DejaVuSans-50"/>
       <use x="63.623047" xlink:href="#DejaVuSans-48"/>
       <use x="127.246094" xlink:href="#DejaVuSans-49"/>
       <use x="190.869141" xlink:href="#DejaVuSans-55"/>
       <use x="254.492188" xlink:href="#DejaVuSans-45"/>
       <use x="290.576172" xlink:href="#DejaVuSans-48"/>
       <use x="354.199219" xlink:href="#DejaVuSans-53"/>
      </g>
     </g>
    </g>
    <g id="xtick_9">
     <g id="line2d_9">
      <g>
       <use style="stroke:#000000;stroke-width:0.8;" x="331.888169" xlink:href="#ma73b18d6c7" y="252"/>
      </g>
     </g>
     <g id="text_9">
      <!-- 2017-09 -->
      <g transform="translate(319.066887 293.917817)rotate(-45)scale(0.1 -0.1)">
       <use xlink:href="#DejaVuSans-50"/>
       <use x="63.623047" xlink:href="#DejaVuSans-48"/>
       <use x="127.246094" xlink:href="#DejaVuSans-49"/>
       <use x="190.869141" xlink:href="#DejaVuSans-55"/>
       <use x="254.492188" xlink:href="#DejaVuSans-45"/>
       <use x="290.576172" xlink:href="#DejaVuSans-48"/>
       <use x="354.199219" xlink:href="#DejaVuSans-57"/>
      </g>
     </g>
    </g>
    <g id="xtick_10">
     <g id="line2d_10">
      <g>
       <use style="stroke:#000000;stroke-width:0.8;" x="365.799004" xlink:href="#ma73b18d6c7" y="252"/>
      </g>
     </g>
     <g id="text_10">
      <!-- 2018-01 -->
      <g transform="translate(352.977721 293.917817)rotate(-45)scale(0.1 -0.1)">
       <defs>
        <path d="M 31.78125 34.625 
Q 24.75 34.625 20.71875 30.859375 
Q 16.703125 27.09375 16.703125 20.515625 
Q 16.703125 13.921875 20.71875 10.15625 
Q 24.75 6.390625 31.78125 6.390625 
Q 38.8125 6.390625 42.859375 10.171875 
Q 46.921875 13.96875 46.921875 20.515625 
Q 46.921875 27.09375 42.890625 30.859375 
Q 38.875 34.625 31.78125 34.625 
z
M 21.921875 38.8125 
Q 15.578125 40.375 12.03125 44.71875 
Q 8.5 49.078125 8.5 55.328125 
Q 8.5 64.0625 14.71875 69.140625 
Q 20.953125 74.21875 31.78125 74.21875 
Q 42.671875 74.21875 48.875 69.140625 
Q 55.078125 64.0625 55.078125 55.328125 
Q 55.078125 49.078125 51.53125 44.71875 
Q 48 40.375 41.703125 38.8125 
Q 48.828125 37.15625 52.796875 32.3125 
Q 56.78125 27.484375 56.78125 20.515625 
Q 56.78125 9.90625 50.3125 4.234375 
Q 43.84375 -1.421875 31.78125 -1.421875 
Q 19.734375 -1.421875 13.25 4.234375 
Q 6.78125 9.90625 6.78125 20.515625 
Q 6.78125 27.484375 10.78125 32.3125 
Q 14.796875 37.15625 21.921875 38.8125 
z
M 18.3125 54.390625 
Q 18.3125 48.734375 21.84375 45.5625 
Q 25.390625 42.390625 31.78125 42.390625 
Q 38.140625 42.390625 41.71875 45.5625 
Q 45.3125 48.734375 45.3125 54.390625 
Q 45.3125 60.0625 41.71875 63.234375 
Q 38.140625 66.40625 31.78125 66.40625 
Q 25.390625 66.40625 21.84375 63.234375 
Q 18.3125 60.0625 18.3125 54.390625 
z
" id="DejaVuSans-56"/>
       </defs>
       <use xlink:href="#DejaVuSans-50"/>
       <use x="63.623047" xlink:href="#DejaVuSans-48"/>
       <use x="127.246094" xlink:href="#DejaVuSans-49"/>
       <use x="190.869141" xlink:href="#DejaVuSans-56"/>
       <use x="254.492188" xlink:href="#DejaVuSans-45"/>
       <use x="290.576172" xlink:href="#DejaVuSans-48"/>
       <use x="354.199219" xlink:href="#DejaVuSans-49"/>
      </g>
     </g>
    </g>
   </g>
   <g id="matplotlib.axis_2">
    <g id="ytick_1">
     <g id="line2d_11">
      <defs>
       <path d="M 0 0 
L -3.5 0 
" id="m18a42e9cf6" style="stroke:#000000;stroke-width:0.8;"/>
      </defs>
      <g>
       <use style="stroke:#000000;stroke-width:0.8;" x="54" xlink:href="#m18a42e9cf6" y="242.116364"/>
      </g>
     </g>
     <g id="text_11">
      <!-- 0.0 -->
      <g transform="translate(31.096875 245.915582)scale(0.1 -0.1)">
       <defs>
        <path d="M 10.6875 12.40625 
L 21 12.40625 
L 21 0 
L 10.6875 0 
z
" id="DejaVuSans-46"/>
       </defs>
       <use xlink:href="#DejaVuSans-48"/>
       <use x="63.623047" xlink:href="#DejaVuSans-46"/>
       <use x="95.410156" xlink:href="#DejaVuSans-48"/>
      </g>
     </g>
    </g>
    <g id="ytick_2">
     <g id="line2d_12">
      <g>
       <use style="stroke:#000000;stroke-width:0.8;" x="54" xlink:href="#m18a42e9cf6" y="214.661818"/>
      </g>
     </g>
     <g id="text_12">
      <!-- 2.5 -->
      <g transform="translate(31.096875 218.461037)scale(0.1 -0.1)">
       <use xlink:href="#DejaVuSans-50"/>
       <use x="63.623047" xlink:href="#DejaVuSans-46"/>
       <use x="95.410156" xlink:href="#DejaVuSans-53"/>
      </g>
     </g>
    </g>
    <g id="ytick_3">
     <g id="line2d_13">
      <g>
       <use style="stroke:#000000;stroke-width:0.8;" x="54" xlink:href="#m18a42e9cf6" y="187.207273"/>
      </g>
     </g>
     <g id="text_13">
      <!-- 5.0 -->
      <g transform="translate(31.096875 191.006491)scale(0.1 -0.1)">
       <use xlink:href="#DejaVuSans-53"/>
       <use x="63.623047" xlink:href="#DejaVuSans-46"/>
       <use x="95.410156" xlink:href="#DejaVuSans-48"/>
      </g>
     </g>
    </g>
    <g id="ytick_4">
     <g id="line2d_14">
      <g>
       <use style="stroke:#000000;stroke-width:0.8;" x="54" xlink:href="#m18a42e9cf6" y="159.752727"/>
      </g>
     </g>
     <g id="text_14">
      <!-- 7.5 -->
      <g transform="translate(31.096875 163.551946)scale(0.1 -0.1)">
       <use xlink:href="#DejaVuSans-55"/>
       <use x="63.623047" xlink:href="#DejaVuSans-46"/>
       <use x="95.410156" xlink:href="#DejaVuSans-53"/>
      </g>
     </g>
    </g>
    <g id="ytick_5">
     <g id="line2d_15">
      <g>
       <use style="stroke:#000000;stroke-width:0.8;" x="54" xlink:href="#m18a42e9cf6" y="132.298182"/>
      </g>
     </g>
     <g id="text_15">
      <!-- 10.0 -->
      <g transform="translate(24.734375 136.097401)scale(0.1 -0.1)">
       <use xlink:href="#DejaVuSans-49"/>
       <use x="63.623047" xlink:href="#DejaVuSans-48"/>
       <use x="127.246094" xlink:href="#DejaVuSans-46"/>
       <use x="159.033203" xlink:href="#DejaVuSans-48"/>
      </g>
     </g>
    </g>
    <g id="ytick_6">
     <g id="line2d_16">
      <g>
       <use style="stroke:#000000;stroke-width:0.8;" x="54" xlink:href="#m18a42e9cf6" y="104.843636"/>
      </g>
     </g>
     <g id="text_16">
      <!-- 12.5 -->
      <g transform="translate(24.734375 108.642855)scale(0.1 -0.1)">
       <use xlink:href="#DejaVuSans-49"/>
       <use x="63.623047" xlink:href="#DejaVuSans-50"/>
       <use x="127.246094" xlink:href="#DejaVuSans-46"/>
       <use x="159.033203" xlink:href="#DejaVuSans-53"/>
      </g>
     </g>
    </g>
    <g id="ytick_7">
     <g id="line2d_17">
      <g>
       <use style="stroke:#000000;stroke-width:0.8;" x="54" xlink:href="#m18a42e9cf6" y="77.389091"/>
      </g>
     </g>
     <g id="text_17">
      <!-- 15.0 -->
      <g transform="translate(24.734375 81.18831)scale(0.1 -0.1)">
       <use xlink:href="#DejaVuSans-49"/>
       <use x="63.623047" xlink:href="#DejaVuSans-53"/>
       <use x="127.246094" xlink:href="#DejaVuSans-46"/>
       <use x="159.033203" xlink:href="#DejaVuSans-48"/>
      </g>
     </g>
    </g>
    <g id="ytick_8">
     <g id="line2d_18">
      <g>
       <use style="stroke:#000000;stroke-width:0.8;" x="54" xlink:href="#m18a42e9cf6" y="49.934545"/>
      </g>
     </g>
     <g id="text_18">
      <!-- 17.5 -->
      <g transform="translate(24.734375 53.733764)scale(0.1 -0.1)">
       <use xlink:href="#DejaVuSans-49"/>
       <use x="63.623047" xlink:href="#DejaVuSans-55"/>
       <use x="127.246094" xlink:href="#DejaVuSans-46"/>
       <use x="159.033203" xlink:href="#DejaVuSans-53"/>
      </g>
     </g>
    </g>
   </g>
   <g id="line2d_19">
    <path clip-path="url(#pe13efad9a0)" d="M 69.218182 107.589091 
L 69.496139 115.825455 
L 69.774097 131.529455 
L 70.052055 135.153455 
L 70.330012 121.865455 
L 70.60797 155.909091 
L 70.885928 139.656 
L 71.163885 134.824 
L 71.441843 54.766545 
L 71.719801 92.983273 
L 71.997758 81.452364 
L 72.553674 133.396364 
L 73.109589 115.825455 
L 73.387547 146.354909 
L 73.665504 129.552727 
L 73.943462 122.414545 
L 74.22142 119.339636 
L 74.499377 119.12 
L 74.777335 73.106182 
L 75.055293 162.388364 
L 75.33325 145.586182 
L 75.611208 61.245818 
L 76.167123 128.125091 
L 76.445081 60.696727 
L 76.723039 101.439273 
L 77.000996 91.445818 
L 77.278954 93.422545 
L 77.556912 89.469091 
L 77.834869 98.364364 
L 78.112827 142.401455 
L 78.390785 154.371636 
L 78.9467 124.720727 
L 79.224658 132.957091 
L 79.502615 124.610909 
L 79.780573 128.234909 
L 80.058531 138.777455 
L 80.614446 84.527273 
L 80.892403 93.642182 
L 81.170361 123.402909 
L 81.448319 91.885091 
L 81.726276 110.224727 
L 82.004234 117.253091 
L 82.282192 111.981818 
L 82.560149 109.565818 
L 82.838107 151.186909 
L 83.116065 129.992 
L 83.394022 95.509091 
L 83.67198 146.245091 
L 84.227895 78.816727 
L 84.505853 135.153455 
L 84.783811 124.501091 
L 85.061768 60.806545 
L 85.339726 63.771636 
L 85.617684 127.356364 
L 85.895641 134.384727 
L 86.173599 117.802182 
L 86.451557 117.253091 
L 86.729514 98.913455 
L 87.28543 149.210182 
L 87.563387 114.178182 
L 88.119303 150.088727 
L 88.39726 119.229818 
L 88.675218 146.574545 
L 89.231133 120.437818 
L 89.509091 114.507636 
L 89.787049 138.118545 
L 90.065006 140.095273 
L 90.342964 129.058545 
L 90.620922 155.909091 
L 90.898879 98.474182 
L 91.176837 152.504727 
L 91.454795 116.704 
L 91.732752 128.344727 
L 92.01071 133.066909 
L 92.288667 96.058182 
L 92.566625 131.639273 
L 92.844583 118.790545 
L 93.12254 119.229818 
L 93.400498 137.130182 
L 93.678456 146.354909 
L 93.956413 151.736 
L 94.234371 186.328727 
L 94.790286 143.829091 
L 95.068244 95.728727 
L 95.346202 155.36 
L 95.624159 172.821091 
L 95.902117 170.240364 
L 96.180075 120.877091 
L 96.458032 160.521455 
L 96.73599 132.737455 
L 97.013948 132.408 
L 97.291905 172.052364 
L 97.569863 177.872727 
L 97.847821 119.339636 
L 98.125778 165.353455 
L 98.403736 127.136727 
L 98.681694 192.368727 
L 98.959651 171.283636 
L 99.237609 192.149091 
L 99.515567 198.573455 
L 99.793524 174.797818 
L 100.071482 176.225455 
L 100.627397 160.960727 
L 100.905355 141.522909 
L 101.183313 178.421818 
L 101.46127 184.901091 
L 101.739228 150.747636 
L 102.017186 137.459636 
L 102.295143 169.526545 
L 102.573101 126.697455 
L 102.851059 141.962182 
L 103.129016 141.193455 
L 103.406974 143.884 
L 103.684932 188.525091 
L 103.962889 173.699636 
L 104.240847 172.930909 
L 104.518804 183.912727 
L 104.796762 203.460364 
L 105.07472 124.501091 
L 105.352677 164.584727 
L 105.630635 143.499636 
L 105.908593 167.549818 
L 106.18655 181.496727 
L 106.464508 155.799273 
L 106.742466 184.681455 
L 107.020423 159.972364 
L 107.576339 169.965818 
L 107.854296 180.728 
L 108.132254 185.889455 
L 108.410212 160.192 
L 108.688169 175.127273 
L 108.966127 178.312 
L 109.244085 163.047273 
L 109.522042 176.225455 
L 109.8 174.688 
L 110.077958 186.438545 
L 110.355915 188.744727 
L 110.633873 116.704 
L 110.911831 185.450182 
L 111.189788 168.098909 
L 111.467746 121.755636 
L 111.745704 172.381818 
L 112.023661 177.653091 
L 112.579577 121.206545 
L 112.857534 118.790545 
L 113.135492 152.724364 
L 113.41345 132.957091 
L 113.691407 148.661091 
L 114.247323 220.262545 
L 114.52528 161.839273 
L 114.803238 153.712727 
L 115.081196 140.314909 
L 115.359153 165.243636 
L 115.637111 154.481455 
L 115.915068 164.749455 
L 116.193026 159.972364 
L 116.470984 94.685455 
L 116.748941 166.341818 
L 117.026899 146.904 
L 117.304857 165.902545 
L 117.582814 169.306909 
L 117.860772 164.694545 
L 118.13873 176.884364 
L 118.416687 146.904 
L 118.694645 165.902545 
L 118.972603 149.869091 
L 119.25056 173.589818 
L 119.528518 139.436364 
L 119.806476 169.746182 
L 120.084433 117.472727 
L 120.362391 135.922182 
L 120.640349 165.024 
L 120.918306 163.157091 
L 121.196264 178.531636 
L 121.474222 158.984 
L 121.752179 185.999273 
L 122.308095 162.937455 
L 122.586052 178.531636 
L 122.86401 164.584727 
L 123.141968 166.232 
L 123.419925 181.057455 
L 123.697883 177.433455 
L 124.253798 128.234909 
L 124.531756 153.932364 
L 125.087671 174.029091 
L 125.365629 174.907636 
L 125.643587 143.719273 
L 125.921544 155.140364 
L 126.199502 146.739273 
L 126.47746 160.192 
L 126.755417 132.408 
L 127.033375 177.762909 
L 127.311333 148.661091 
L 127.867248 176.170545 
L 128.145205 179.629818 
L 128.423163 187.866182 
L 128.701121 155.469818 
L 128.979078 156.677818 
L 129.257036 155.250182 
L 129.812951 222.349091 
L 130.090909 205.766545 
L 130.368867 121.536 
L 130.924782 188.634909 
L 131.20274 146.794182 
L 131.480697 183.363636 
L 131.758655 176.884364 
L 132.036613 158.654545 
L 132.31457 166.012364 
L 132.592528 165.792727 
L 132.870486 172.491636 
L 133.148443 164.255273 
L 133.426401 161.619636 
L 133.704359 165.243636 
L 133.982316 122.744 
L 134.260274 116.704 
L 134.538232 148.770909 
L 134.816189 133.945455 
L 135.094147 86.394182 
L 135.372105 96.277818 
L 135.650062 163.706182 
L 136.205978 136.251636 
L 136.483935 162.717818 
L 136.761893 135.482909 
L 137.039851 167.659636 
L 137.317808 129.003636 
L 137.595766 190.831273 
L 137.873724 210.708364 
L 138.151681 203.570182 
L 138.429639 187.756364 
L 138.707597 197.749818 
L 138.985554 180.398545 
L 139.263512 205.107636 
L 139.541469 184.132364 
L 139.819427 195.992727 
L 140.097385 213.453818 
L 140.375342 217.352364 
L 140.6533 192.917818 
L 141.209215 215.979636 
L 141.487173 218.285818 
L 141.765131 216.858182 
L 142.043088 209.829818 
L 142.321046 208.072727 
L 142.599004 215.540364 
L 142.876961 204.119273 
L 143.154919 210.928 
L 143.432877 176.115636 
L 143.710834 184.901091 
L 144.26675 134.165091 
L 144.544707 150.637818 
L 144.822665 137.679273 
L 145.100623 170.405091 
L 145.656538 106.820364 
L 145.934496 145.915636 
L 146.212453 149.539636 
L 146.490411 148.880727 
L 146.768369 107.149818 
L 147.046326 148.551273 
L 147.324284 159.203636 
L 147.602242 151.296727 
L 148.158157 116.264727 
L 148.714072 157.940727 
L 148.99203 167.44 
L 149.269988 147.562909 
L 149.547945 110.664 
L 149.825903 97.046545 
L 150.103861 98.144727 
L 150.659776 144.927273 
L 150.937733 124.171636 
L 151.215691 159.972364 
L 151.493649 89.798545 
L 151.771606 132.737455 
L 152.049564 147.013818 
L 152.327522 105.612364 
L 152.605479 137.789091 
L 153.161395 66.846545 
L 153.439352 148.221818 
L 153.71731 80.244364 
L 153.995268 100.121455 
L 154.273225 151.626182 
L 154.551183 173.589818 
L 154.829141 145.201818 
L 155.107098 90.786909 
L 155.385056 92.653818 
L 155.663014 156.238545 
L 155.940971 105.173091 
L 156.218929 98.254545 
L 156.496887 127.026909 
L 156.774844 171.503273 
L 157.052802 128.674182 
L 157.33076 115.056727 
L 157.608717 135.922182 
L 157.886675 104.184727 
L 158.164633 134.274909 
L 158.44259 97.925091 
L 158.998506 162.937455 
L 159.276463 157.226909 
L 159.554421 133.396364 
L 159.832379 71.678545 
L 160.110336 101.878545 
L 160.666252 65.968 
L 161.222167 132.957091 
L 161.500125 100.121455 
L 161.778082 103.196364 
L 162.05604 123.622545 
L 162.333998 173.809455 
L 162.611955 112.091636 
L 162.889913 111.103273 
L 163.16787 87.162909 
L 163.445828 131.639273 
L 163.723786 148.661091 
L 164.001743 127.576 
L 164.279701 173.040727 
L 164.557659 196.541818 
L 164.835616 133.506182 
L 165.113574 123.073455 
L 165.391532 84.307636 
L 165.669489 87.712 
L 165.947447 116.264727 
L 166.225405 71.129455 
L 166.503362 133.066909 
L 166.78132 66.297455 
L 167.337235 119.778909 
L 167.615193 122.853818 
L 167.893151 145.696 
L 168.171108 121.755636 
L 168.449066 108.467636 
L 168.727024 113.409455 
L 169.004981 126.697455 
L 169.282939 115.386182 
L 169.560897 93.642182 
L 169.838854 167.110545 
L 170.116812 145.146909 
L 170.39477 146.464727 
L 170.672727 91.555636 
L 170.950685 69.482182 
L 171.228643 144.488 
L 171.5066 138.338182 
L 171.784558 123.952 
L 172.062516 120.767273 
L 172.340473 155.140364 
L 172.618431 125.050182 
L 172.896389 170.405091 
L 173.174346 160.850909 
L 173.452304 137.898909 
L 173.730262 139.656 
L 174.008219 134.494545 
L 174.286177 150.637818 
L 174.564134 97.705455 
L 174.842092 132.188364 
L 175.12005 44.443636 
L 175.398007 157.117091 
L 175.675965 132.517818 
L 176.23188 152.834182 
L 176.509838 116.923636 
L 176.787796 102.427636 
L 177.065753 100.450909 
L 177.343711 130.760727 
L 177.621669 96.058182 
L 177.899626 143.829091 
L 178.177584 119.449455 
L 178.455542 134.604364 
L 178.733499 105.941818 
L 179.011457 242.116364 
L 179.289415 113.738909 
L 179.567372 135.592727 
L 179.84533 142.730909 
L 180.123288 134.933818 
L 180.401245 171.942545 
L 180.679203 105.722182 
L 180.957161 131.090182 
L 181.235118 133.506182 
L 181.513076 104.843636 
L 181.791034 184.461818 
L 182.068991 185.56 
L 182.346949 121.755636 
L 182.624907 135.592727 
L 182.902864 162.058909 
L 183.180822 127.466182 
L 183.45878 168.648 
L 183.736737 149.210182 
L 184.014695 139.985455 
L 184.292653 167.659636 
L 184.57061 129.003636 
L 184.848568 130.211636 
L 185.682441 157.666182 
L 185.960399 174.138909 
L 186.238356 177.543273 
L 186.516314 150.747636 
L 186.794271 158.874182 
L 187.072229 119.669091 
L 187.350187 148.661091 
L 187.628144 142.511273 
L 187.906102 168.538182 
L 188.18406 151.736 
L 188.462017 121.865455 
L 188.739975 154.810909 
L 189.017933 121.316364 
L 189.29589 144.158545 
L 189.573848 140.205091 
L 189.851806 145.805818 
L 190.129763 139.106909 
L 190.407721 160.411636 
L 190.685679 163.596364 
L 190.963636 90.567273 
L 191.519552 171.393455 
L 191.797509 150.418182 
L 192.075467 97.925091 
L 192.353425 143.609455 
L 192.631382 140.424727 
L 192.90934 141.413091 
L 193.187298 115.605818 
L 193.743213 177.872727 
L 194.021171 75.961455 
L 194.299128 137.679273 
L 194.577086 149.32 
L 194.855044 123.732364 
L 195.133001 147.453091 
L 195.410959 150.857455 
L 195.688917 176.115636 
L 195.966874 182.155636 
L 196.244832 150.088727 
L 196.52279 148.441455 
L 196.800747 151.626182 
L 197.078705 166.232 
L 197.356663 137.789091 
L 197.63462 163.102182 
L 197.912578 141.742545 
L 198.468493 157.117091 
L 198.746451 136.690909 
L 199.024408 148.221818 
L 199.302366 143.719273 
L 199.580324 148.002182 
L 199.858281 169.416727 
L 200.136239 128.234909 
L 200.414197 147.782545 
L 200.692154 152.614545 
L 200.970112 173.919273 
L 201.24807 149.429818 
L 201.526027 175.676364 
L 201.803985 122.744 
L 202.3599 150.637818 
L 202.637858 139.765818 
L 202.915816 152.724364 
L 203.193773 153.273455 
L 203.471731 163.706182 
L 203.749689 151.845818 
L 204.027646 99.462545 
L 204.305604 157.446545 
L 204.583562 143.829091 
L 204.861519 136.471273 
L 205.139477 139.106909 
L 205.695392 159.862545 
L 205.97335 174.138909 
L 206.251308 159.093818 
L 206.529265 178.970909 
L 207.085181 138.228364 
L 207.363138 122.194909 
L 207.641096 166.341818 
L 207.919054 163.157091 
L 208.197011 156.018909 
L 208.474969 119.229818 
L 208.752927 114.397818 
L 209.030884 173.150545 
L 209.5868 126.697455 
L 209.864757 119.449455 
L 210.142715 139.216727 
L 210.420672 121.206545 
L 210.69863 153.163636 
L 210.976588 155.36 
L 211.254545 164.255273 
L 211.532503 127.356364 
L 211.810461 138.777455 
L 212.088418 124.171636 
L 212.366376 156.018909 
L 212.644334 122.634182 
L 212.922291 166.232 
L 213.200249 147.672727 
L 213.478207 105.173091 
L 213.756164 149.978909 
L 214.034122 147.892364 
L 214.31208 159.752727 
L 214.590037 153.383273 
L 214.867995 149.649455 
L 215.145953 149.32 
L 215.42391 148.331636 
L 215.701868 177.213818 
L 215.979826 143.499636 
L 216.257783 128.564364 
L 216.535741 151.186909 
L 216.813699 151.845818 
L 217.091656 164.145455 
L 217.369614 108.028364 
L 217.647572 143.609455 
L 217.925529 147.562909 
L 218.203487 157.226909 
L 218.481445 107.369455 
L 218.759402 170.405091 
L 219.315318 127.026909 
L 219.871233 114.727273 
L 220.149191 176.005818 
L 220.427148 138.118545 
L 220.705106 164.035636 
L 220.983064 155.030545 
L 221.261021 159.533091 
L 221.538979 184.352 
L 221.816936 162.168727 
L 222.094894 155.579636 
L 222.372852 100.341091 
L 222.650809 157.666182 
L 222.928767 158.544727 
L 223.206725 172.491636 
L 223.484682 152.504727 
L 223.76264 151.736 
L 224.040598 160.631273 
L 224.318555 117.692364 
L 224.596513 175.127273 
L 224.874471 176.774545 
L 225.152428 191.050909 
L 225.430386 186.218909 
L 225.708344 142.730909 
L 225.986301 124.281455 
L 226.264259 142.840727 
L 226.820174 157.885818 
L 227.098132 128.893818 
L 227.37609 133.176727 
L 227.654047 114.837091 
L 227.932005 151.955636 
L 228.209963 115.935273 
L 228.48792 177.104 
L 228.765878 149.649455 
L 229.043836 158.325091 
L 229.321793 139.985455 
L 229.599751 142.291636 
L 229.877709 111.762182 
L 230.155666 153.822545 
L 230.433624 156.568 
L 230.711582 158.105455 
L 230.989539 168.757818 
L 231.545455 141.083636 
L 231.823412 153.932364 
L 232.10137 143.28 
L 232.657285 159.642909 
L 232.935243 131.529455 
L 233.2132 155.469818 
L 233.491158 139.875636 
L 233.769116 141.522909 
L 234.047073 156.787636 
L 234.602989 141.083636 
L 234.880946 139.436364 
L 235.158904 118.131636 
L 235.436862 150.637818 
L 235.714819 158.325091 
L 235.992777 180.837818 
L 236.270735 137.130182 
L 236.548692 190.282182 
L 236.82665 196.541818 
L 237.104608 156.787636 
L 237.382565 162.937455 
L 237.660523 147.013818 
L 237.938481 142.730909 
L 238.494396 170.295273 
L 238.772354 147.343273 
L 239.050311 137.349818 
L 239.328269 140.095273 
L 239.606227 154.920727 
L 239.884184 137.020364 
L 240.162142 174.029091 
L 240.4401 159.313455 
L 240.718057 132.737455 
L 240.996015 53.558545 
L 241.273973 79.475636 
L 241.55193 160.301818 
L 241.829888 162.058909 
L 242.107846 131.419636 
L 242.385803 179.300364 
L 242.663761 125.818909 
L 242.941719 118.900364 
L 243.219676 142.511273 
L 243.497634 138.228364 
L 243.775592 122.414545 
L 244.053549 113.958545 
L 244.331507 156.018909 
L 244.609465 133.066909 
L 244.887422 128.674182 
L 245.16538 133.616 
L 245.443337 134.604364 
L 246.27721 179.190545 
L 246.555168 132.078545 
L 246.833126 188.195636 
L 247.111083 218.834909 
L 247.389041 220.701818 
L 247.666999 219.603636 
L 247.944956 219.384 
L 248.222914 218.944727 
L 248.500872 215.979636 
L 248.778829 153.053818 
L 249.056787 122.194909 
L 249.612702 140.424727 
L 249.89066 138.667636 
L 250.168618 101.329455 
L 250.446575 142.072 
L 250.724533 94.96 
L 251.002491 146.025455 
L 251.280448 111.432727 
L 251.558406 161.509818 
L 251.836364 175.017455 
L 252.114321 154.042182 
L 252.392279 148.496364 
L 252.670237 155.250182 
L 252.948194 139.875636 
L 253.226152 140.973818 
L 253.50411 135.922182 
L 253.782067 167.220364 
L 254.060025 147.123636 
L 254.337983 147.782545 
L 254.61594 93.093091 
L 254.893898 135.373091 
L 255.171856 156.238545 
L 255.449813 133.176727 
L 255.727771 119.449455 
L 256.005729 146.245091 
L 256.283686 121.645818 
L 256.561644 124.171636 
L 256.839601 136.690909 
L 257.117559 137.569455 
L 257.395517 107.149818 
L 257.673474 171.173818 
L 258.22939 104.514182 
L 258.507347 129.992 
L 258.785305 128.234909 
L 259.34122 155.799273 
L 259.619178 143.170182 
L 259.897136 141.303273 
L 260.175093 174.578182 
L 260.453051 80.683636 
L 260.731009 151.296727 
L 261.008966 182.814545 
L 261.286924 121.536 
L 261.564882 154.701091 
L 261.842839 78.487273 
L 262.120797 84.197818 
L 262.398755 120.108364 
L 262.676712 110.773818 
L 262.95467 119.229818 
L 263.232628 176.884364 
L 263.510585 96.936727 
L 263.788543 117.143273 
L 264.066501 129.223273 
L 264.344458 116.594182 
L 264.622416 130.101818 
L 264.900374 168.538182 
L 265.178331 168.867636 
L 265.734247 123.842182 
L 266.012204 63.112727 
L 266.290162 127.026909 
L 266.56812 154.152 
L 266.846077 146.245091 
L 267.124035 130.321455 
L 267.401993 140.095273 
L 267.67995 134.933818 
L 267.957908 154.481455 
L 268.235866 102.757091 
L 268.513823 152.614545 
L 268.791781 152.669455 
L 269.347696 134.165091 
L 269.625654 155.140364 
L 269.903611 145.586182 
L 270.181569 57.512 
L 270.459527 115.386182 
L 270.737484 139.985455 
L 271.015442 144.158545 
L 271.2934 122.194909 
L 271.571357 171.613091 
L 271.849315 159.203636 
L 272.127273 107.259636 
L 272.683188 170.185455 
L 272.961146 158.874182 
L 273.239103 127.246545 
L 273.517061 137.898909 
L 273.795019 125.434545 
L 274.072976 146.904 
L 274.350934 132.957091 
L 274.628892 126.917091 
L 274.906849 141.193455 
L 275.184807 136.141818 
L 275.462765 123.293091 
L 275.740722 185.999273 
L 276.01868 218.285818 
L 276.296638 218.395636 
L 276.852553 217.407273 
L 277.130511 217.736727 
L 277.408468 217.846545 
L 277.964384 219.274182 
L 278.520299 219.823273 
L 278.798257 221.141091 
L 279.076214 219.933091 
L 279.354172 219.713455 
L 280.188045 143.28 
L 280.466002 151.077091 
L 280.74396 136.032 
L 281.021918 137.24 
L 281.299875 140.973818 
L 281.577833 110.114909 
L 281.855791 151.845818 
L 282.133748 153.163636 
L 282.411706 160.631273 
L 282.689664 144.817455 
L 282.967621 168.428364 
L 283.245579 166.012364 
L 283.523537 131.529455 
L 283.801494 142.730909 
L 284.079452 107.259636 
L 284.635367 151.845818 
L 284.913325 147.453091 
L 285.191283 157.446545 
L 285.46924 160.631273 
L 285.747198 145.586182 
L 286.025156 160.521455 
L 286.581071 136.965455 
L 286.859029 173.040727 
L 287.136986 148.221818 
L 287.414944 163.376727 
L 287.692902 116.154909 
L 287.970859 163.816 
L 288.248817 125.709091 
L 288.526775 135.812364 
L 288.804732 81.562182 
L 289.08269 143.609455 
L 289.360648 131.090182 
L 289.638605 128.564364 
L 289.916563 138.557818 
L 290.194521 127.685818 
L 290.472478 143.28 
L 290.750436 115.276364 
L 291.028394 171.832727 
L 291.306351 122.634182 
L 291.862267 139.216727 
L 292.140224 140.754182 
L 292.418182 125.379636 
L 292.696139 154.591273 
L 292.974097 133.725818 
L 293.252055 150.088727 
L 293.530012 117.802182 
L 293.80797 111.762182 
L 294.085928 143.060364 
L 294.363885 134.933818 
L 294.641843 137.679273 
L 294.919801 154.481455 
L 295.197758 147.343273 
L 295.475716 102.098182 
L 295.753674 159.533091 
L 296.031631 158.544727 
L 296.309589 156.018909 
L 296.587547 162.498182 
L 296.865504 144.927273 
L 297.143462 156.018909 
L 297.42142 138.557818 
L 297.699377 174.633091 
L 297.977335 133.616 
L 298.255293 134.933818 
L 298.53325 173.809455 
L 298.811208 131.858909 
L 299.089166 120.218182 
L 299.367123 162.168727 
L 299.645081 135.702545 
L 299.923039 124.940364 
L 300.200996 131.090182 
L 300.478954 148.990545 
L 300.756912 152.175273 
L 301.034869 165.682909 
L 301.312827 166.451636 
L 301.590785 150.528 
L 301.868742 162.717818 
L 302.1467 110.444364 
L 302.702615 198.518545 
L 302.980573 216.089455 
L 303.258531 197.969455 
L 303.536488 154.591273 
L 303.814446 171.613091 
L 304.370361 133.725818 
L 304.648319 131.090182 
L 304.926276 138.118545 
L 305.204234 131.090182 
L 305.482192 151.077091 
L 305.760149 136.361455 
L 306.038107 151.186909 
L 306.316065 156.677818 
L 306.594022 154.152 
L 306.87198 143.829091 
L 307.427895 166.890909 
L 307.705853 169.856 
L 307.983811 156.458182 
L 308.261768 150.747636 
L 308.539726 160.850909 
L 308.817684 127.905455 
L 309.095641 149.869091 
L 309.373599 133.286545 
L 309.651557 158.105455 
L 309.929514 149.649455 
L 310.207472 152.285091 
L 310.763387 209.829818 
L 311.041345 188.854545 
L 311.319303 155.799273 
L 311.59726 161.4 
L 311.875218 169.856 
L 312.153176 154.810909 
L 312.709091 194.894545 
L 312.987049 168.867636 
L 313.265006 178.751273 
L 313.542964 159.862545 
L 313.820922 154.810909 
L 314.098879 135.592727 
L 314.376837 135.373091 
L 314.654795 135.922182 
L 314.932752 149.100364 
L 315.21071 134.055273 
L 315.488667 180.288727 
L 315.766625 158.874182 
L 316.044583 165.353455 
L 316.32254 135.043636 
L 316.600498 162.608 
L 316.878456 125.928727 
L 317.434371 163.706182 
L 317.712329 156.348364 
L 317.990286 161.729455 
L 318.268244 171.173818 
L 318.824159 146.904 
L 319.102117 161.949091 
L 319.380075 159.642909 
L 319.658032 177.653091 
L 319.93599 166.451636 
L 320.213948 170.954182 
L 320.491905 137.898909 
L 320.769863 126.258182 
L 321.047821 156.018909 
L 321.325778 147.123636 
L 321.881694 171.832727 
L 322.159651 161.839273 
L 322.437609 179.629818 
L 322.715567 141.083636 
L 322.993524 167.330182 
L 323.271482 141.632727 
L 323.54944 153.822545 
L 323.827397 148.441455 
L 324.105355 151.516364 
L 324.383313 214.332364 
L 324.66127 195.004364 
L 324.939228 151.626182 
L 325.217186 153.602909 
L 325.495143 166.232 
L 325.773101 158.874182 
L 326.051059 161.125455 
L 326.606974 134.274909 
L 326.884932 154.481455 
L 327.162889 120.877091 
L 327.440847 119.833818 
L 327.718804 128.674182 
L 327.996762 143.719273 
L 328.27472 172.162182 
L 328.552677 212.026182 
L 328.830635 211.477091 
L 329.108593 203.68 
L 329.38655 150.308364 
L 329.664508 168.318545 
L 329.942466 154.920727 
L 330.498381 175.896 
L 330.776339 156.238545 
L 331.054296 128.015273 
L 331.332254 173.150545 
L 331.610212 182.924364 
L 331.888169 184.352 
L 332.444085 156.568 
L 333.277958 176.115636 
L 333.555915 159.588 
L 333.833873 190.282182 
L 334.111831 157.885818 
L 334.389788 138.887273 
L 334.667746 179.410182 
L 334.945704 154.810909 
L 335.223661 179.080727 
L 335.501619 160.411636 
L 335.779577 169.032364 
L 336.057534 171.503273 
L 336.335492 115.825455 
L 336.61345 142.072 
L 336.891407 139.436364 
L 337.169365 140.424727 
L 337.447323 179.849455 
L 337.72528 191.160727 
L 338.003238 158.325091 
L 338.281196 170.185455 
L 338.559153 173.150545 
L 338.837111 187.317091 
L 339.393026 154.591273 
L 339.670984 165.024 
L 339.948941 161.290182 
L 340.226899 153.383273 
L 340.504857 166.232 
L 340.782814 144.378182 
L 341.060772 189.733091 
L 341.33873 158.215273 
L 341.616687 185.340364 
L 341.894645 112.640727 
L 342.172603 159.093818 
L 342.45056 123.732364 
L 342.728518 126.368 
L 343.006476 148.002182 
L 343.284433 149.429818 
L 343.562391 141.083636 
L 343.840349 158.654545 
L 344.118306 156.348364 
L 344.396264 174.138909 
L 344.674222 169.197091 
L 344.952179 145.586182 
L 345.230137 149.32 
L 345.508095 157.226909 
L 345.786052 171.722909 
L 346.06401 118.021818 
L 346.341968 145.805818 
L 346.619925 139.985455 
L 346.897883 158.654545 
L 347.175841 154.371636 
L 347.453798 159.972364 
L 347.731756 159.972364 
L 348.009714 136.141818 
L 348.287671 150.637818 
L 348.565629 150.528 
L 348.843587 145.037091 
L 349.121544 125.489455 
L 349.399502 141.742545 
L 349.67746 197.530182 
L 349.955417 219.164364 
L 350.233375 220.701818 
L 350.511333 220.921455 
L 350.78929 221.470545 
L 351.067248 220.482182 
L 351.345205 220.042909 
L 351.623163 220.811636 
L 351.901121 220.042909 
L 352.179078 220.152727 
L 352.457036 220.482182 
L 352.734994 115.496 
L 353.012951 149.759273 
L 353.290909 117.802182 
L 353.568867 135.702545 
L 353.846824 134.714182 
L 354.124782 123.073455 
L 354.40274 133.945455 
L 354.680697 123.512727 
L 354.958655 162.937455 
L 355.236613 120.547636 
L 355.51457 136.251636 
L 355.792528 70.141091 
L 356.070486 131.090182 
L 356.626401 151.626182 
L 356.904359 116.264727 
L 357.460274 144.378182 
L 357.738232 101.768727 
L 358.016189 159.203636 
L 358.294147 161.729455 
L 358.572105 126.807273 
L 358.850062 116.539273 
L 359.12802 168.867636 
L 359.405978 139.326545 
L 359.683935 122.963636 
L 359.961893 136.361455 
L 360.239851 143.060364 
L 360.517808 109.236364 
L 360.795766 111.872 
L 361.073724 145.586182 
L 361.351681 126.587636 
L 361.629639 141.303273 
L 361.907597 141.413091 
L 362.185554 144.817455 
L 362.463512 132.957091 
L 363.019427 148.002182 
L 363.297385 148.880727 
L 363.575342 68.823273 
L 363.8533 99.242909 
L 364.131258 98.144727 
L 364.409215 111.432727 
L 364.687173 161.949091 
L 364.965131 164.365091 
L 365.243088 130.980364 
L 365.521046 133.396364 
L 365.799004 110.114909 
L 366.076961 110.005091 
L 366.354919 92.544 
L 366.632877 150.528 
L 366.910834 123.073455 
L 367.188792 118.790545 
L 367.46675 103.306182 
L 367.744707 111.981818 
L 368.022665 113.409455 
L 368.300623 104.294545 
L 368.57858 114.837091 
L 368.856538 90.128 
L 369.134496 97.705455 
L 369.412453 116.923636 
L 369.690411 93.312727 
L 369.968369 103.306182 
L 370.246326 121.975273 
L 370.524284 114.288 
L 370.802242 89.798545 
L 371.080199 109.346182 
L 371.358157 101.109818 
L 371.636115 109.565818 
L 371.914072 133.286545 
L 372.469988 80.573818 
L 372.747945 110.993455 
L 373.025903 116.045091 
L 373.303861 128.893818 
L 373.581818 124.501091 
L 373.581818 124.501091 
" style="fill:none;stroke:#000000;stroke-linecap:square;stroke-width:1.5;"/>
   </g>
   <g id="patch_3">
    <path d="M 54 252 
L 54 34.56 
" style="fill:none;stroke:#000000;stroke-linecap:square;stroke-linejoin:miter;stroke-width:0.8;"/>
   </g>
   <g id="patch_4">
    <path d="M 388.8 252 
L 388.8 34.56 
" style="fill:none;stroke:#000000;stroke-linecap:square;stroke-linejoin:miter;stroke-width:0.8;"/>
   </g>
   <g id="patch_5">
    <path d="M 54 252 
L 388.8 252 
" style="fill:none;stroke:#000000;stroke-linecap:square;stroke-linejoin:miter;stroke-width:0.8;"/>
   </g>
   <g id="patch_6">
    <path d="M 54 34.56 
L 388.8 34.56 
" style="fill:none;stroke:#000000;stroke-linecap:square;stroke-linejoin:miter;stroke-width:0.8;"/>
   </g>
   <g id="text_19">
    <!-- Soma Diária de Energia - Casa 6 -->
    <g transform="translate(124.230938 28.56)scale(0.12 -0.12)">
     <defs>
      <path d="M 53.515625 70.515625 
L 53.515625 60.890625 
Q 47.90625 63.578125 42.921875 64.890625 
Q 37.9375 66.21875 33.296875 66.21875 
Q 25.25 66.21875 20.875 63.09375 
Q 16.5 59.96875 16.5 54.203125 
Q 16.5 49.359375 19.40625 46.890625 
Q 22.3125 44.4375 30.421875 42.921875 
L 36.375 41.703125 
Q 47.40625 39.59375 52.65625 34.296875 
Q 57.90625 29 57.90625 20.125 
Q 57.90625 9.515625 50.796875 4.046875 
Q 43.703125 -1.421875 29.984375 -1.421875 
Q 24.8125 -1.421875 18.96875 -0.25 
Q 13.140625 0.921875 6.890625 3.21875 
L 6.890625 13.375 
Q 12.890625 10.015625 18.65625 8.296875 
Q 24.421875 6.59375 29.984375 6.59375 
Q 38.421875 6.59375 43.015625 9.90625 
Q 47.609375 13.234375 47.609375 19.390625 
Q 47.609375 24.75 44.3125 27.78125 
Q 41.015625 30.8125 33.5 32.328125 
L 27.484375 33.5 
Q 16.453125 35.6875 11.515625 40.375 
Q 6.59375 45.0625 6.59375 53.421875 
Q 6.59375 63.09375 13.40625 68.65625 
Q 20.21875 74.21875 32.171875 74.21875 
Q 37.3125 74.21875 42.625 73.28125 
Q 47.953125 72.359375 53.515625 70.515625 
z
" id="DejaVuSans-83"/>
      <path d="M 30.609375 48.390625 
Q 23.390625 48.390625 19.1875 42.75 
Q 14.984375 37.109375 14.984375 27.296875 
Q 14.984375 17.484375 19.15625 11.84375 
Q 23.34375 6.203125 30.609375 6.203125 
Q 37.796875 6.203125 41.984375 11.859375 
Q 46.1875 17.53125 46.1875 27.296875 
Q 46.1875 37.015625 41.984375 42.703125 
Q 37.796875 48.390625 30.609375 48.390625 
z
M 30.609375 56 
Q 42.328125 56 49.015625 48.375 
Q 55.71875 40.765625 55.71875 27.296875 
Q 55.71875 13.875 49.015625 6.21875 
Q 42.328125 -1.421875 30.609375 -1.421875 
Q 18.84375 -1.421875 12.171875 6.21875 
Q 5.515625 13.875 5.515625 27.296875 
Q 5.515625 40.765625 12.171875 48.375 
Q 18.84375 56 30.609375 56 
z
" id="DejaVuSans-111"/>
      <path d="M 52 44.1875 
Q 55.375 50.25 60.0625 53.125 
Q 64.75 56 71.09375 56 
Q 79.640625 56 84.28125 50.015625 
Q 88.921875 44.046875 88.921875 33.015625 
L 88.921875 0 
L 79.890625 0 
L 79.890625 32.71875 
Q 79.890625 40.578125 77.09375 44.375 
Q 74.3125 48.1875 68.609375 48.1875 
Q 61.625 48.1875 57.5625 43.546875 
Q 53.515625 38.921875 53.515625 30.90625 
L 53.515625 0 
L 44.484375 0 
L 44.484375 32.71875 
Q 44.484375 40.625 41.703125 44.40625 
Q 38.921875 48.1875 33.109375 48.1875 
Q 26.21875 48.1875 22.15625 43.53125 
Q 18.109375 38.875 18.109375 30.90625 
L 18.109375 0 
L 9.078125 0 
L 9.078125 54.6875 
L 18.109375 54.6875 
L 18.109375 46.1875 
Q 21.1875 51.21875 25.484375 53.609375 
Q 29.78125 56 35.6875 56 
Q 41.65625 56 45.828125 52.96875 
Q 50 49.953125 52 44.1875 
z
" id="DejaVuSans-109"/>
      <path d="M 34.28125 27.484375 
Q 23.390625 27.484375 19.1875 25 
Q 14.984375 22.515625 14.984375 16.5 
Q 14.984375 11.71875 18.140625 8.90625 
Q 21.296875 6.109375 26.703125 6.109375 
Q 34.1875 6.109375 38.703125 11.40625 
Q 43.21875 16.703125 43.21875 25.484375 
L 43.21875 27.484375 
z
M 52.203125 31.203125 
L 52.203125 0 
L 43.21875 0 
L 43.21875 8.296875 
Q 40.140625 3.328125 35.546875 0.953125 
Q 30.953125 -1.421875 24.3125 -1.421875 
Q 15.921875 -1.421875 10.953125 3.296875 
Q 6 8.015625 6 15.921875 
Q 6 25.140625 12.171875 29.828125 
Q 18.359375 34.515625 30.609375 34.515625 
L 43.21875 34.515625 
L 43.21875 35.40625 
Q 43.21875 41.609375 39.140625 45 
Q 35.0625 48.390625 27.6875 48.390625 
Q 23 48.390625 18.546875 47.265625 
Q 14.109375 46.140625 10.015625 43.890625 
L 10.015625 52.203125 
Q 14.9375 54.109375 19.578125 55.046875 
Q 24.21875 56 28.609375 56 
Q 40.484375 56 46.34375 49.84375 
Q 52.203125 43.703125 52.203125 31.203125 
z
" id="DejaVuSans-97"/>
      <path id="DejaVuSans-32"/>
      <path d="M 19.671875 64.796875 
L 19.671875 8.109375 
L 31.59375 8.109375 
Q 46.6875 8.109375 53.6875 14.9375 
Q 60.6875 21.78125 60.6875 36.53125 
Q 60.6875 51.171875 53.6875 57.984375 
Q 46.6875 64.796875 31.59375 64.796875 
z
M 9.8125 72.90625 
L 30.078125 72.90625 
Q 51.265625 72.90625 61.171875 64.09375 
Q 71.09375 55.28125 71.09375 36.53125 
Q 71.09375 17.671875 61.125 8.828125 
Q 51.171875 0 30.078125 0 
L 9.8125 0 
z
" id="DejaVuSans-68"/>
      <path d="M 9.421875 54.6875 
L 18.40625 54.6875 
L 18.40625 0 
L 9.421875 0 
z
M 9.421875 75.984375 
L 18.40625 75.984375 
L 18.40625 64.59375 
L 9.421875 64.59375 
z
" id="DejaVuSans-105"/>
      <path d="M 34.28125 27.484375 
Q 23.390625 27.484375 19.1875 25 
Q 14.984375 22.515625 14.984375 16.5 
Q 14.984375 11.71875 18.140625 8.90625 
Q 21.296875 6.109375 26.703125 6.109375 
Q 34.1875 6.109375 38.703125 11.40625 
Q 43.21875 16.703125 43.21875 25.484375 
L 43.21875 27.484375 
z
M 52.203125 31.203125 
L 52.203125 0 
L 43.21875 0 
L 43.21875 8.296875 
Q 40.140625 3.328125 35.546875 0.953125 
Q 30.953125 -1.421875 24.3125 -1.421875 
Q 15.921875 -1.421875 10.953125 3.296875 
Q 6 8.015625 6 15.921875 
Q 6 25.140625 12.171875 29.828125 
Q 18.359375 34.515625 30.609375 34.515625 
L 43.21875 34.515625 
L 43.21875 35.40625 
Q 43.21875 41.609375 39.140625 45 
Q 35.0625 48.390625 27.6875 48.390625 
Q 23 48.390625 18.546875 47.265625 
Q 14.109375 46.140625 10.015625 43.890625 
L 10.015625 52.203125 
Q 14.9375 54.109375 19.578125 55.046875 
Q 24.21875 56 28.609375 56 
Q 40.484375 56 46.34375 49.84375 
Q 52.203125 43.703125 52.203125 31.203125 
z
M 35.796875 79.984375 
L 45.515625 79.984375 
L 29.59375 61.625 
L 22.125 61.625 
z
" id="DejaVuSans-225"/>
      <path d="M 41.109375 46.296875 
Q 39.59375 47.171875 37.8125 47.578125 
Q 36.03125 48 33.890625 48 
Q 26.265625 48 22.1875 43.046875 
Q 18.109375 38.09375 18.109375 28.8125 
L 18.109375 0 
L 9.078125 0 
L 9.078125 54.6875 
L 18.109375 54.6875 
L 18.109375 46.1875 
Q 20.953125 51.171875 25.484375 53.578125 
Q 30.03125 56 36.53125 56 
Q 37.453125 56 38.578125 55.875 
Q 39.703125 55.765625 41.0625 55.515625 
z
" id="DejaVuSans-114"/>
      <path d="M 45.40625 46.390625 
L 45.40625 75.984375 
L 54.390625 75.984375 
L 54.390625 0 
L 45.40625 0 
L 45.40625 8.203125 
Q 42.578125 3.328125 38.25 0.953125 
Q 33.9375 -1.421875 27.875 -1.421875 
Q 17.96875 -1.421875 11.734375 6.484375 
Q 5.515625 14.40625 5.515625 27.296875 
Q 5.515625 40.1875 11.734375 48.09375 
Q 17.96875 56 27.875 56 
Q 33.9375 56 38.25 53.625 
Q 42.578125 51.265625 45.40625 46.390625 
z
M 14.796875 27.296875 
Q 14.796875 17.390625 18.875 11.75 
Q 22.953125 6.109375 30.078125 6.109375 
Q 37.203125 6.109375 41.296875 11.75 
Q 45.40625 17.390625 45.40625 27.296875 
Q 45.40625 37.203125 41.296875 42.84375 
Q 37.203125 48.484375 30.078125 48.484375 
Q 22.953125 48.484375 18.875 42.84375 
Q 14.796875 37.203125 14.796875 27.296875 
z
" id="DejaVuSans-100"/>
      <path d="M 56.203125 29.59375 
L 56.203125 25.203125 
L 14.890625 25.203125 
Q 15.484375 15.921875 20.484375 11.0625 
Q 25.484375 6.203125 34.421875 6.203125 
Q 39.59375 6.203125 44.453125 7.46875 
Q 49.3125 8.734375 54.109375 11.28125 
L 54.109375 2.78125 
Q 49.265625 0.734375 44.1875 -0.34375 
Q 39.109375 -1.421875 33.890625 -1.421875 
Q 20.796875 -1.421875 13.15625 6.1875 
Q 5.515625 13.8125 5.515625 26.8125 
Q 5.515625 40.234375 12.765625 48.109375 
Q 20.015625 56 32.328125 56 
Q 43.359375 56 49.78125 48.890625 
Q 56.203125 41.796875 56.203125 29.59375 
z
M 47.21875 32.234375 
Q 47.125 39.59375 43.09375 43.984375 
Q 39.0625 48.390625 32.421875 48.390625 
Q 24.90625 48.390625 20.390625 44.140625 
Q 15.875 39.890625 15.1875 32.171875 
z
" id="DejaVuSans-101"/>
      <path d="M 9.8125 72.90625 
L 55.90625 72.90625 
L 55.90625 64.59375 
L 19.671875 64.59375 
L 19.671875 43.015625 
L 54.390625 43.015625 
L 54.390625 34.71875 
L 19.671875 34.71875 
L 19.671875 8.296875 
L 56.78125 8.296875 
L 56.78125 0 
L 9.8125 0 
z
" id="DejaVuSans-69"/>
      <path d="M 54.890625 33.015625 
L 54.890625 0 
L 45.90625 0 
L 45.90625 32.71875 
Q 45.90625 40.484375 42.875 44.328125 
Q 39.84375 48.1875 33.796875 48.1875 
Q 26.515625 48.1875 22.3125 43.546875 
Q 18.109375 38.921875 18.109375 30.90625 
L 18.109375 0 
L 9.078125 0 
L 9.078125 54.6875 
L 18.109375 54.6875 
L 18.109375 46.1875 
Q 21.34375 51.125 25.703125 53.5625 
Q 30.078125 56 35.796875 56 
Q 45.21875 56 50.046875 50.171875 
Q 54.890625 44.34375 54.890625 33.015625 
z
" id="DejaVuSans-110"/>
      <path d="M 45.40625 27.984375 
Q 45.40625 37.75 41.375 43.109375 
Q 37.359375 48.484375 30.078125 48.484375 
Q 22.859375 48.484375 18.828125 43.109375 
Q 14.796875 37.75 14.796875 27.984375 
Q 14.796875 18.265625 18.828125 12.890625 
Q 22.859375 7.515625 30.078125 7.515625 
Q 37.359375 7.515625 41.375 12.890625 
Q 45.40625 18.265625 45.40625 27.984375 
z
M 54.390625 6.78125 
Q 54.390625 -7.171875 48.1875 -13.984375 
Q 42 -20.796875 29.203125 -20.796875 
Q 24.46875 -20.796875 20.265625 -20.09375 
Q 16.0625 -19.390625 12.109375 -17.921875 
L 12.109375 -9.1875 
Q 16.0625 -11.328125 19.921875 -12.34375 
Q 23.78125 -13.375 27.78125 -13.375 
Q 36.625 -13.375 41.015625 -8.765625 
Q 45.40625 -4.15625 45.40625 5.171875 
L 45.40625 9.625 
Q 42.625 4.78125 38.28125 2.390625 
Q 33.9375 0 27.875 0 
Q 17.828125 0 11.671875 7.65625 
Q 5.515625 15.328125 5.515625 27.984375 
Q 5.515625 40.671875 11.671875 48.328125 
Q 17.828125 56 27.875 56 
Q 33.9375 56 38.28125 53.609375 
Q 42.625 51.21875 45.40625 46.390625 
L 45.40625 54.6875 
L 54.390625 54.6875 
z
" id="DejaVuSans-103"/>
      <path d="M 64.40625 67.28125 
L 64.40625 56.890625 
Q 59.421875 61.53125 53.78125 63.8125 
Q 48.140625 66.109375 41.796875 66.109375 
Q 29.296875 66.109375 22.65625 58.46875 
Q 16.015625 50.828125 16.015625 36.375 
Q 16.015625 21.96875 22.65625 14.328125 
Q 29.296875 6.6875 41.796875 6.6875 
Q 48.140625 6.6875 53.78125 8.984375 
Q 59.421875 11.28125 64.40625 15.921875 
L 64.40625 5.609375 
Q 59.234375 2.09375 53.4375 0.328125 
Q 47.65625 -1.421875 41.21875 -1.421875 
Q 24.65625 -1.421875 15.125 8.703125 
Q 5.609375 18.84375 5.609375 36.375 
Q 5.609375 53.953125 15.125 64.078125 
Q 24.65625 74.21875 41.21875 74.21875 
Q 47.75 74.21875 53.53125 72.484375 
Q 59.328125 70.75 64.40625 67.28125 
z
" id="DejaVuSans-67"/>
      <path d="M 44.28125 53.078125 
L 44.28125 44.578125 
Q 40.484375 46.53125 36.375 47.5 
Q 32.28125 48.484375 27.875 48.484375 
Q 21.1875 48.484375 17.84375 46.4375 
Q 14.5 44.390625 14.5 40.28125 
Q 14.5 37.15625 16.890625 35.375 
Q 19.28125 33.59375 26.515625 31.984375 
L 29.59375 31.296875 
Q 39.15625 29.25 43.1875 25.515625 
Q 47.21875 21.78125 47.21875 15.09375 
Q 47.21875 7.46875 41.1875 3.015625 
Q 35.15625 -1.421875 24.609375 -1.421875 
Q 20.21875 -1.421875 15.453125 -0.5625 
Q 10.6875 0.296875 5.421875 2 
L 5.421875 11.28125 
Q 10.40625 8.6875 15.234375 7.390625 
Q 20.0625 6.109375 24.8125 6.109375 
Q 31.15625 6.109375 34.5625 8.28125 
Q 37.984375 10.453125 37.984375 14.40625 
Q 37.984375 18.0625 35.515625 20.015625 
Q 33.0625 21.96875 24.703125 23.78125 
L 21.578125 24.515625 
Q 13.234375 26.265625 9.515625 29.90625 
Q 5.8125 33.546875 5.8125 39.890625 
Q 5.8125 47.609375 11.28125 51.796875 
Q 16.75 56 26.8125 56 
Q 31.78125 56 36.171875 55.265625 
Q 40.578125 54.546875 44.28125 53.078125 
z
" id="DejaVuSans-115"/>
     </defs>
     <use xlink:href="#DejaVuSans-83"/>
     <use x="63.476562" xlink:href="#DejaVuSans-111"/>
     <use x="124.658203" xlink:href="#DejaVuSans-109"/>
     <use x="222.070312" xlink:href="#DejaVuSans-97"/>
     <use x="283.349609" xlink:href="#DejaVuSans-32"/>
     <use x="315.136719" xlink:href="#DejaVuSans-68"/>
     <use x="392.138672" xlink:href="#DejaVuSans-105"/>
     <use x="419.921875" xlink:href="#DejaVuSans-225"/>
     <use x="481.201172" xlink:href="#DejaVuSans-114"/>
     <use x="522.314453" xlink:href="#DejaVuSans-105"/>
     <use x="550.097656" xlink:href="#DejaVuSans-97"/>
     <use x="611.376953" xlink:href="#DejaVuSans-32"/>
     <use x="643.164062" xlink:href="#DejaVuSans-100"/>
     <use x="706.640625" xlink:href="#DejaVuSans-101"/>
     <use x="768.164062" xlink:href="#DejaVuSans-32"/>
     <use x="799.951172" xlink:href="#DejaVuSans-69"/>
     <use x="863.134766" xlink:href="#DejaVuSans-110"/>
     <use x="926.513672" xlink:href="#DejaVuSans-101"/>
     <use x="988.037109" xlink:href="#DejaVuSans-114"/>
     <use x="1027.400391" xlink:href="#DejaVuSans-103"/>
     <use x="1090.876953" xlink:href="#DejaVuSans-105"/>
     <use x="1118.660156" xlink:href="#DejaVuSans-97"/>
     <use x="1179.939453" xlink:href="#DejaVuSans-32"/>
     <use x="1211.726562" xlink:href="#DejaVuSans-45"/>
     <use x="1247.810547" xlink:href="#DejaVuSans-32"/>
     <use x="1279.597656" xlink:href="#DejaVuSans-67"/>
     <use x="1349.421875" xlink:href="#DejaVuSans-97"/>
     <use x="1410.701172" xlink:href="#DejaVuSans-115"/>
     <use x="1462.800781" xlink:href="#DejaVuSans-97"/>
     <use x="1524.080078" xlink:href="#DejaVuSans-32"/>
     <use x="1555.867188" xlink:href="#DejaVuSans-54"/>
    </g>
   </g>
  </g>
 </g>
 <defs>
  <clipPath id="pe13efad9a0">
   <rect height="217.44" width="334.8" x="54" y="34.56"/>
  </clipPath>
 </defs>
</svg>
