<?xml version="1.0" encoding="utf-8" standalone="no"?>
<!DOCTYPE svg PUBLIC "-//W3C//DTD SVG 1.1//EN"
  "http://www.w3.org/Graphics/SVG/1.1/DTD/svg11.dtd">
<!-- Created with matplotlib (https://matplotlib.org/) -->
<svg height="288pt" version="1.1" viewBox="0 0 432 288" width="432pt" xmlns="http://www.w3.org/2000/svg" xmlns:xlink="http://www.w3.org/1999/xlink">
 <metadata>
  <rdf:RDF xmlns:cc="http://creativecommons.org/ns#" xmlns:dc="http://purl.org/dc/elements/1.1/" xmlns:rdf="http://www.w3.org/1999/02/22-rdf-syntax-ns#">
   <cc:Work>
    <dc:type rdf:resource="http://purl.org/dc/dcmitype/StillImage"/>
    <dc:date>2021-07-21T14:57:56.027093</dc:date>
    <dc:format>image/svg+xml</dc:format>
    <dc:creator>
     <cc:Agent>
      <dc:title>Matplotlib v3.3.4, https://matplotlib.org/</dc:title>
     </cc:Agent>
    </dc:creator>
   </cc:Work>
  </rdf:RDF>
 </metadata>
 <defs>
  <style type="text/css">*{stroke-linecap:butt;stroke-linejoin:round;}</style>
 </defs>
 <g id="figure_1">
  <g id="patch_1">
   <path d="M 0 288 
L 432 288 
L 432 0 
L 0 0 
z
" style="fill:#ffffff;"/>
  </g>
  <g id="axes_1">
   <g id="patch_2">
    <path d="M 54 252 
L 388.8 252 
L 388.8 34.56 
L 54 34.56 
z
" style="fill:#ffffff;"/>
   </g>
   <g id="matplotlib.axis_1">
    <g id="xtick_1">
     <g id="line2d_1">
      <defs>
       <path d="M 0 0 
L 0 3.5 
" id="mdd4b01ae74" style="stroke:#000000;stroke-width:0.8;"/>
      </defs>
      <g>
       <use style="stroke:#000000;stroke-width:0.8;" x="54.746905" xlink:href="#mdd4b01ae74" y="252"/>
      </g>
     </g>
     <g id="text_1">
      <!-- 2018-07 -->
      <g transform="translate(41.925622 293.917817)rotate(-45)scale(0.1 -0.1)">
       <defs>
        <path d="M 19.1875 8.296875 
L 53.609375 8.296875 
L 53.609375 0 
L 7.328125 0 
L 7.328125 8.296875 
Q 12.9375 14.109375 22.625 23.890625 
Q 32.328125 33.6875 34.8125 36.53125 
Q 39.546875 41.84375 41.421875 45.53125 
Q 43.3125 49.21875 43.3125 52.78125 
Q 43.3125 58.59375 39.234375 62.25 
Q 35.15625 65.921875 28.609375 65.921875 
Q 23.96875 65.921875 18.8125 64.3125 
Q 13.671875 62.703125 7.8125 59.421875 
L 7.8125 69.390625 
Q 13.765625 71.78125 18.9375 73 
Q 24.125 74.21875 28.421875 74.21875 
Q 39.75 74.21875 46.484375 68.546875 
Q 53.21875 62.890625 53.21875 53.421875 
Q 53.21875 48.921875 51.53125 44.890625 
Q 49.859375 40.875 45.40625 35.40625 
Q 44.1875 33.984375 37.640625 27.21875 
Q 31.109375 20.453125 19.1875 8.296875 
z
" id="DejaVuSans-50"/>
        <path d="M 31.78125 66.40625 
Q 24.171875 66.40625 20.328125 58.90625 
Q 16.5 51.421875 16.5 36.375 
Q 16.5 21.390625 20.328125 13.890625 
Q 24.171875 6.390625 31.78125 6.390625 
Q 39.453125 6.390625 43.28125 13.890625 
Q 47.125 21.390625 47.125 36.375 
Q 47.125 51.421875 43.28125 58.90625 
Q 39.453125 66.40625 31.78125 66.40625 
z
M 31.78125 74.21875 
Q 44.046875 74.21875 50.515625 64.515625 
Q 56.984375 54.828125 56.984375 36.375 
Q 56.984375 17.96875 50.515625 8.265625 
Q 44.046875 -1.421875 31.78125 -1.421875 
Q 19.53125 -1.421875 13.0625 8.265625 
Q 6.59375 17.96875 6.59375 36.375 
Q 6.59375 54.828125 13.0625 64.515625 
Q 19.53125 74.21875 31.78125 74.21875 
z
" id="DejaVuSans-48"/>
        <path d="M 12.40625 8.296875 
L 28.515625 8.296875 
L 28.515625 63.921875 
L 10.984375 60.40625 
L 10.984375 69.390625 
L 28.421875 72.90625 
L 38.28125 72.90625 
L 38.28125 8.296875 
L 54.390625 8.296875 
L 54.390625 0 
L 12.40625 0 
z
" id="DejaVuSans-49"/>
        <path d="M 31.78125 34.625 
Q 24.75 34.625 20.71875 30.859375 
Q 16.703125 27.09375 16.703125 20.515625 
Q 16.703125 13.921875 20.71875 10.15625 
Q 24.75 6.390625 31.78125 6.390625 
Q 38.8125 6.390625 42.859375 10.171875 
Q 46.921875 13.96875 46.921875 20.515625 
Q 46.921875 27.09375 42.890625 30.859375 
Q 38.875 34.625 31.78125 34.625 
z
M 21.921875 38.8125 
Q 15.578125 40.375 12.03125 44.71875 
Q 8.5 49.078125 8.5 55.328125 
Q 8.5 64.0625 14.71875 69.140625 
Q 20.953125 74.21875 31.78125 74.21875 
Q 42.671875 74.21875 48.875 69.140625 
Q 55.078125 64.0625 55.078125 55.328125 
Q 55.078125 49.078125 51.53125 44.71875 
Q 48 40.375 41.703125 38.8125 
Q 48.828125 37.15625 52.796875 32.3125 
Q 56.78125 27.484375 56.78125 20.515625 
Q 56.78125 9.90625 50.3125 4.234375 
Q 43.84375 -1.421875 31.78125 -1.421875 
Q 19.734375 -1.421875 13.25 4.234375 
Q 6.78125 9.90625 6.78125 20.515625 
Q 6.78125 27.484375 10.78125 32.3125 
Q 14.796875 37.15625 21.921875 38.8125 
z
M 18.3125 54.390625 
Q 18.3125 48.734375 21.84375 45.5625 
Q 25.390625 42.390625 31.78125 42.390625 
Q 38.140625 42.390625 41.71875 45.5625 
Q 45.3125 48.734375 45.3125 54.390625 
Q 45.3125 60.0625 41.71875 63.234375 
Q 38.140625 66.40625 31.78125 66.40625 
Q 25.390625 66.40625 21.84375 63.234375 
Q 18.3125 60.0625 18.3125 54.390625 
z
" id="DejaVuSans-56"/>
        <path d="M 4.890625 31.390625 
L 31.203125 31.390625 
L 31.203125 23.390625 
L 4.890625 23.390625 
z
" id="DejaVuSans-45"/>
        <path d="M 8.203125 72.90625 
L 55.078125 72.90625 
L 55.078125 68.703125 
L 28.609375 0 
L 18.3125 0 
L 43.21875 64.59375 
L 8.203125 64.59375 
z
" id="DejaVuSans-55"/>
       </defs>
       <use xlink:href="#DejaVuSans-50"/>
       <use x="63.623047" xlink:href="#DejaVuSans-48"/>
       <use x="127.246094" xlink:href="#DejaVuSans-49"/>
       <use x="190.869141" xlink:href="#DejaVuSans-56"/>
       <use x="254.492188" xlink:href="#DejaVuSans-45"/>
       <use x="290.576172" xlink:href="#DejaVuSans-48"/>
       <use x="354.199219" xlink:href="#DejaVuSans-55"/>
      </g>
     </g>
    </g>
    <g id="xtick_2">
     <g id="line2d_2">
      <g>
       <use style="stroke:#000000;stroke-width:0.8;" x="97.693921" xlink:href="#mdd4b01ae74" y="252"/>
      </g>
     </g>
     <g id="text_2">
      <!-- 2018-10 -->
      <g transform="translate(84.872639 293.917817)rotate(-45)scale(0.1 -0.1)">
       <use xlink:href="#DejaVuSans-50"/>
       <use x="63.623047" xlink:href="#DejaVuSans-48"/>
       <use x="127.246094" xlink:href="#DejaVuSans-49"/>
       <use x="190.869141" xlink:href="#DejaVuSans-56"/>
       <use x="254.492188" xlink:href="#DejaVuSans-45"/>
       <use x="290.576172" xlink:href="#DejaVuSans-49"/>
       <use x="354.199219" xlink:href="#DejaVuSans-48"/>
      </g>
     </g>
    </g>
    <g id="xtick_3">
     <g id="line2d_3">
      <g>
       <use style="stroke:#000000;stroke-width:0.8;" x="140.640937" xlink:href="#mdd4b01ae74" y="252"/>
      </g>
     </g>
     <g id="text_3">
      <!-- 2019-01 -->
      <g transform="translate(127.819655 293.917817)rotate(-45)scale(0.1 -0.1)">
       <defs>
        <path d="M 10.984375 1.515625 
L 10.984375 10.5 
Q 14.703125 8.734375 18.5 7.8125 
Q 22.3125 6.890625 25.984375 6.890625 
Q 35.75 6.890625 40.890625 13.453125 
Q 46.046875 20.015625 46.78125 33.40625 
Q 43.953125 29.203125 39.59375 26.953125 
Q 35.25 24.703125 29.984375 24.703125 
Q 19.046875 24.703125 12.671875 31.3125 
Q 6.296875 37.9375 6.296875 49.421875 
Q 6.296875 60.640625 12.9375 67.421875 
Q 19.578125 74.21875 30.609375 74.21875 
Q 43.265625 74.21875 49.921875 64.515625 
Q 56.59375 54.828125 56.59375 36.375 
Q 56.59375 19.140625 48.40625 8.859375 
Q 40.234375 -1.421875 26.421875 -1.421875 
Q 22.703125 -1.421875 18.890625 -0.6875 
Q 15.09375 0.046875 10.984375 1.515625 
z
M 30.609375 32.421875 
Q 37.25 32.421875 41.125 36.953125 
Q 45.015625 41.5 45.015625 49.421875 
Q 45.015625 57.28125 41.125 61.84375 
Q 37.25 66.40625 30.609375 66.40625 
Q 23.96875 66.40625 20.09375 61.84375 
Q 16.21875 57.28125 16.21875 49.421875 
Q 16.21875 41.5 20.09375 36.953125 
Q 23.96875 32.421875 30.609375 32.421875 
z
" id="DejaVuSans-57"/>
       </defs>
       <use xlink:href="#DejaVuSans-50"/>
       <use x="63.623047" xlink:href="#DejaVuSans-48"/>
       <use x="127.246094" xlink:href="#DejaVuSans-49"/>
       <use x="190.869141" xlink:href="#DejaVuSans-57"/>
       <use x="254.492188" xlink:href="#DejaVuSans-45"/>
       <use x="290.576172" xlink:href="#DejaVuSans-48"/>
       <use x="354.199219" xlink:href="#DejaVuSans-49"/>
      </g>
     </g>
    </g>
    <g id="xtick_4">
     <g id="line2d_4">
      <g>
       <use style="stroke:#000000;stroke-width:0.8;" x="182.654322" xlink:href="#mdd4b01ae74" y="252"/>
      </g>
     </g>
     <g id="text_4">
      <!-- 2019-04 -->
      <g transform="translate(169.83304 293.917817)rotate(-45)scale(0.1 -0.1)">
       <defs>
        <path d="M 37.796875 64.3125 
L 12.890625 25.390625 
L 37.796875 25.390625 
z
M 35.203125 72.90625 
L 47.609375 72.90625 
L 47.609375 25.390625 
L 58.015625 25.390625 
L 58.015625 17.1875 
L 47.609375 17.1875 
L 47.609375 0 
L 37.796875 0 
L 37.796875 17.1875 
L 4.890625 17.1875 
L 4.890625 26.703125 
z
" id="DejaVuSans-52"/>
       </defs>
       <use xlink:href="#DejaVuSans-50"/>
       <use x="63.623047" xlink:href="#DejaVuSans-48"/>
       <use x="127.246094" xlink:href="#DejaVuSans-49"/>
       <use x="190.869141" xlink:href="#DejaVuSans-57"/>
       <use x="254.492188" xlink:href="#DejaVuSans-45"/>
       <use x="290.576172" xlink:href="#DejaVuSans-48"/>
       <use x="354.199219" xlink:href="#DejaVuSans-52"/>
      </g>
     </g>
    </g>
    <g id="xtick_5">
     <g id="line2d_5">
      <g>
       <use style="stroke:#000000;stroke-width:0.8;" x="225.134523" xlink:href="#mdd4b01ae74" y="252"/>
      </g>
     </g>
     <g id="text_5">
      <!-- 2019-07 -->
      <g transform="translate(212.313241 293.917817)rotate(-45)scale(0.1 -0.1)">
       <use xlink:href="#DejaVuSans-50"/>
       <use x="63.623047" xlink:href="#DejaVuSans-48"/>
       <use x="127.246094" xlink:href="#DejaVuSans-49"/>
       <use x="190.869141" xlink:href="#DejaVuSans-57"/>
       <use x="254.492188" xlink:href="#DejaVuSans-45"/>
       <use x="290.576172" xlink:href="#DejaVuSans-48"/>
       <use x="354.199219" xlink:href="#DejaVuSans-55"/>
      </g>
     </g>
    </g>
    <g id="xtick_6">
     <g id="line2d_6">
      <g>
       <use style="stroke:#000000;stroke-width:0.8;" x="268.081539" xlink:href="#mdd4b01ae74" y="252"/>
      </g>
     </g>
     <g id="text_6">
      <!-- 2019-10 -->
      <g transform="translate(255.260257 293.917817)rotate(-45)scale(0.1 -0.1)">
       <use xlink:href="#DejaVuSans-50"/>
       <use x="63.623047" xlink:href="#DejaVuSans-48"/>
       <use x="127.246094" xlink:href="#DejaVuSans-49"/>
       <use x="190.869141" xlink:href="#DejaVuSans-57"/>
       <use x="254.492188" xlink:href="#DejaVuSans-45"/>
       <use x="290.576172" xlink:href="#DejaVuSans-49"/>
       <use x="354.199219" xlink:href="#DejaVuSans-48"/>
      </g>
     </g>
    </g>
    <g id="xtick_7">
     <g id="line2d_7">
      <g>
       <use style="stroke:#000000;stroke-width:0.8;" x="311.028555" xlink:href="#mdd4b01ae74" y="252"/>
      </g>
     </g>
     <g id="text_7">
      <!-- 2020-01 -->
      <g transform="translate(298.207273 293.917817)rotate(-45)scale(0.1 -0.1)">
       <use xlink:href="#DejaVuSans-50"/>
       <use x="63.623047" xlink:href="#DejaVuSans-48"/>
       <use x="127.246094" xlink:href="#DejaVuSans-50"/>
       <use x="190.869141" xlink:href="#DejaVuSans-48"/>
       <use x="254.492188" xlink:href="#DejaVuSans-45"/>
       <use x="290.576172" xlink:href="#DejaVuSans-48"/>
       <use x="354.199219" xlink:href="#DejaVuSans-49"/>
      </g>
     </g>
    </g>
    <g id="xtick_8">
     <g id="line2d_8">
      <g>
       <use style="stroke:#000000;stroke-width:0.8;" x="353.508756" xlink:href="#mdd4b01ae74" y="252"/>
      </g>
     </g>
     <g id="text_8">
      <!-- 2020-04 -->
      <g transform="translate(340.687474 293.917817)rotate(-45)scale(0.1 -0.1)">
       <use xlink:href="#DejaVuSans-50"/>
       <use x="63.623047" xlink:href="#DejaVuSans-48"/>
       <use x="127.246094" xlink:href="#DejaVuSans-50"/>
       <use x="190.869141" xlink:href="#DejaVuSans-48"/>
       <use x="254.492188" xlink:href="#DejaVuSans-45"/>
       <use x="290.576172" xlink:href="#DejaVuSans-48"/>
       <use x="354.199219" xlink:href="#DejaVuSans-52"/>
      </g>
     </g>
    </g>
   </g>
   <g id="matplotlib.axis_2">
    <g id="ytick_1">
     <g id="line2d_9">
      <defs>
       <path d="M 0 0 
L -3.5 0 
" id="m8af7048681" style="stroke:#000000;stroke-width:0.8;"/>
      </defs>
      <g>
       <use style="stroke:#000000;stroke-width:0.8;" x="54" xlink:href="#m8af7048681" y="242.116364"/>
      </g>
     </g>
     <g id="text_9">
      <!-- 0 -->
      <g transform="translate(40.6375 245.915582)scale(0.1 -0.1)">
       <use xlink:href="#DejaVuSans-48"/>
      </g>
     </g>
    </g>
    <g id="ytick_2">
     <g id="line2d_10">
      <g>
       <use style="stroke:#000000;stroke-width:0.8;" x="54" xlink:href="#m8af7048681" y="211.528708"/>
      </g>
     </g>
     <g id="text_10">
      <!-- 20 -->
      <g transform="translate(34.275 215.327926)scale(0.1 -0.1)">
       <use xlink:href="#DejaVuSans-50"/>
       <use x="63.623047" xlink:href="#DejaVuSans-48"/>
      </g>
     </g>
    </g>
    <g id="ytick_3">
     <g id="line2d_11">
      <g>
       <use style="stroke:#000000;stroke-width:0.8;" x="54" xlink:href="#m8af7048681" y="180.941052"/>
      </g>
     </g>
     <g id="text_11">
      <!-- 40 -->
      <g transform="translate(34.275 184.74027)scale(0.1 -0.1)">
       <use xlink:href="#DejaVuSans-52"/>
       <use x="63.623047" xlink:href="#DejaVuSans-48"/>
      </g>
     </g>
    </g>
    <g id="ytick_4">
     <g id="line2d_12">
      <g>
       <use style="stroke:#000000;stroke-width:0.8;" x="54" xlink:href="#m8af7048681" y="150.353395"/>
      </g>
     </g>
     <g id="text_12">
      <!-- 60 -->
      <g transform="translate(34.275 154.152614)scale(0.1 -0.1)">
       <defs>
        <path d="M 33.015625 40.375 
Q 26.375 40.375 22.484375 35.828125 
Q 18.609375 31.296875 18.609375 23.390625 
Q 18.609375 15.53125 22.484375 10.953125 
Q 26.375 6.390625 33.015625 6.390625 
Q 39.65625 6.390625 43.53125 10.953125 
Q 47.40625 15.53125 47.40625 23.390625 
Q 47.40625 31.296875 43.53125 35.828125 
Q 39.65625 40.375 33.015625 40.375 
z
M 52.59375 71.296875 
L 52.59375 62.3125 
Q 48.875 64.0625 45.09375 64.984375 
Q 41.3125 65.921875 37.59375 65.921875 
Q 27.828125 65.921875 22.671875 59.328125 
Q 17.53125 52.734375 16.796875 39.40625 
Q 19.671875 43.65625 24.015625 45.921875 
Q 28.375 48.1875 33.59375 48.1875 
Q 44.578125 48.1875 50.953125 41.515625 
Q 57.328125 34.859375 57.328125 23.390625 
Q 57.328125 12.15625 50.6875 5.359375 
Q 44.046875 -1.421875 33.015625 -1.421875 
Q 20.359375 -1.421875 13.671875 8.265625 
Q 6.984375 17.96875 6.984375 36.375 
Q 6.984375 53.65625 15.1875 63.9375 
Q 23.390625 74.21875 37.203125 74.21875 
Q 40.921875 74.21875 44.703125 73.484375 
Q 48.484375 72.75 52.59375 71.296875 
z
" id="DejaVuSans-54"/>
       </defs>
       <use xlink:href="#DejaVuSans-54"/>
       <use x="63.623047" xlink:href="#DejaVuSans-48"/>
      </g>
     </g>
    </g>
    <g id="ytick_5">
     <g id="line2d_13">
      <g>
       <use style="stroke:#000000;stroke-width:0.8;" x="54" xlink:href="#m8af7048681" y="119.765739"/>
      </g>
     </g>
     <g id="text_13">
      <!-- 80 -->
      <g transform="translate(34.275 123.564958)scale(0.1 -0.1)">
       <use xlink:href="#DejaVuSans-56"/>
       <use x="63.623047" xlink:href="#DejaVuSans-48"/>
      </g>
     </g>
    </g>
    <g id="ytick_6">
     <g id="line2d_14">
      <g>
       <use style="stroke:#000000;stroke-width:0.8;" x="54" xlink:href="#m8af7048681" y="89.178083"/>
      </g>
     </g>
     <g id="text_14">
      <!-- 100 -->
      <g transform="translate(27.9125 92.977302)scale(0.1 -0.1)">
       <use xlink:href="#DejaVuSans-49"/>
       <use x="63.623047" xlink:href="#DejaVuSans-48"/>
       <use x="127.246094" xlink:href="#DejaVuSans-48"/>
      </g>
     </g>
    </g>
    <g id="ytick_7">
     <g id="line2d_15">
      <g>
       <use style="stroke:#000000;stroke-width:0.8;" x="54" xlink:href="#m8af7048681" y="58.590427"/>
      </g>
     </g>
     <g id="text_15">
      <!-- 120 -->
      <g transform="translate(27.9125 62.389646)scale(0.1 -0.1)">
       <use xlink:href="#DejaVuSans-49"/>
       <use x="63.623047" xlink:href="#DejaVuSans-50"/>
       <use x="127.246094" xlink:href="#DejaVuSans-48"/>
      </g>
     </g>
    </g>
   </g>
   <g id="line2d_16">
    <path clip-path="url(#p4149f59faf)" d="M 69.218182 198.651304 
L 69.684997 194.583146 
L 70.151813 219.473851 
L 70.618628 225.186096 
L 71.085443 224.268466 
L 71.552259 223.901414 
L 72.019074 221.423814 
L 72.48589 199.03365 
L 72.952705 186.959173 
L 73.41952 191.279679 
L 73.886336 217.982703 
L 74.353151 219.236797 
L 74.819967 196.892514 
L 75.286782 202.321823 
L 75.753597 200.257156 
L 76.220413 206.527626 
L 76.687228 210.366377 
L 77.154044 218.319167 
L 77.620859 216.269794 
L 78.087674 216.483908 
L 79.021305 202.321823 
L 79.48812 203.040633 
L 79.954936 212.201636 
L 80.888567 213.226322 
L 81.355382 202.887695 
L 81.822197 209.831093 
L 82.289013 204.753542 
L 82.755828 211.436945 
L 83.222644 204.294727 
L 83.689459 226.195489 
L 84.156274 228.581326 
L 84.62309 225.790202 
L 85.089905 196.800751 
L 85.556721 192.090252 
L 86.023536 190.086761 
L 86.490351 168.705989 
L 86.957167 123.497433 
L 87.423982 127.229127 
L 88.357613 189.291482 
L 88.824428 197.79485 
L 89.291244 199.308939 
L 89.758059 158.734413 
L 90.224875 159.468517 
L 90.69169 136.711301 
L 91.158505 104.303679 
L 91.625321 130.012604 
L 92.092136 144.832324 
L 92.558951 164.087253 
L 93.025767 131.23611 
L 93.492582 63.958561 
L 93.959398 47.731809 
L 94.426213 44.443636 
L 94.893028 75.627752 
L 95.359844 84.696992 
L 95.826659 101.443733 
L 96.293475 127.412653 
L 97.227105 117.028144 
L 97.693921 169.975377 
L 98.160736 150.185163 
L 98.627552 163.322562 
L 99.094367 180.910464 
L 99.561182 175.802325 
L 100.027998 201.863008 
L 100.494813 196.999571 
L 100.961629 200.379507 
L 101.428444 193.053763 
L 101.895259 189.337363 
L 102.362075 173.340019 
L 102.82889 187.318578 
L 103.295706 159.055584 
L 103.762521 167.482483 
L 104.229336 162.603752 
L 104.696152 142.905301 
L 105.162967 151.056912 
L 105.629782 168.904809 
L 106.096598 133.339012 
L 106.563413 165.218996 
L 107.030229 181.644568 
L 107.497044 152.418062 
L 107.963859 182.393965 
L 108.430675 176.26114 
L 108.89749 153.16746 
L 109.364306 155.461534 
L 109.831121 160.324971 
L 110.297936 185.00921 
L 110.764752 177.49994 
L 111.231567 160.126152 
L 111.698383 160.523791 
L 112.165198 157.495613 
L 112.632013 182.393965 
L 113.098829 165.03547 
L 113.565644 159.652043 
L 114.03246 150.032225 
L 114.96609 199.981867 
L 115.432906 189.2456 
L 115.899721 132.398441 
L 116.366537 174.349412 
L 116.833352 148.793425 
L 117.300167 158.612063 
L 117.766983 137.613637 
L 118.233798 151.194556 
L 118.700613 151.852191 
L 119.167429 163.750789 
L 119.634244 162.986097 
L 120.10106 149.359297 
L 120.567875 144.205277 
L 121.03469 164.240191 
L 121.501506 156.256813 
L 121.968321 156.149756 
L 122.435137 142.905301 
L 122.901952 142.324136 
L 123.368767 152.861583 
L 123.835583 127.779705 
L 124.302398 153.610981 
L 124.769214 154.941544 
L 125.236029 171.565935 
L 125.702844 158.810882 
L 126.636475 174.364705 
L 127.103291 169.333036 
L 127.570106 180.558706 
L 128.036921 151.867484 
L 128.503737 175.871148 
L 128.970552 144.587622 
L 129.437368 152.295712 
L 129.904183 191.509087 
L 130.370998 163.659026 
L 130.837814 164.331954 
L 131.304629 144.327627 
L 131.771445 144.159395 
L 132.23826 201.664189 
L 132.705075 195.600186 
L 133.171891 200.975966 
L 133.638706 123.298614 
L 134.105521 174.257649 
L 135.039152 150.521628 
L 135.505968 128.177345 
L 135.972783 160.355559 
L 136.439598 163.934315 
L 136.906414 164.897826 
L 137.373229 166.603088 
L 138.30686 131.327873 
L 138.773675 158.780295 
L 139.240491 155.339183 
L 139.707306 167.375426 
L 140.174122 166.702498 
L 140.640937 178.157575 
L 141.107752 112.210588 
L 141.574568 138.408916 
L 142.041383 143.165296 
L 142.508199 153.28981 
L 142.975014 152.234536 
L 143.441829 117.899892 
L 143.908645 150.383983 
L 144.37546 153.916857 
L 144.842276 147.631094 
L 145.309091 166.641322 
L 145.775906 123.665666 
L 146.709537 146.017595 
L 147.176352 138.22539 
L 147.643168 148.028734 
L 148.109983 137.583049 
L 148.576799 155.492122 
L 149.043614 164.255485 
L 149.510429 198.590129 
L 149.977245 209.311103 
L 150.44406 172.605915 
L 150.910876 206.14528 
L 151.377691 189.352657 
L 151.844506 141.192392 
L 152.311322 124.950347 
L 152.778137 144.266452 
L 153.244953 153.519218 
L 153.711768 176.972303 
L 154.178583 151.561608 
L 154.645399 165.555461 
L 155.112214 136.650126 
L 155.57903 142.370017 
L 156.045845 130.838471 
L 156.51266 166.014275 
L 156.979476 140.764165 
L 157.446291 130.043192 
L 157.913107 125.378574 
L 158.379922 124.399769 
L 158.846737 169.822439 
L 159.313553 140.657108 
L 159.780368 128.63616 
L 160.247183 165.815456 
L 160.713999 165.922512 
L 161.180814 147.554625 
L 161.64763 180.115185 
L 162.114445 148.931069 
L 162.58126 153.916857 
L 163.048076 161.563771 
L 163.514891 141.085336 
L 163.981707 143.777049 
L 164.448522 142.477074 
L 164.915337 168.124824 
L 165.382153 150.062813 
L 165.848968 160.019095 
L 166.315784 165.922512 
L 166.782599 174.70117 
L 167.249414 162.833159 
L 167.71623 170.709481 
L 168.183045 152.601588 
L 168.649861 173.959419 
L 169.116676 159.973213 
L 169.583491 182.088089 
L 170.517122 172.437683 
L 170.983938 181.568098 
L 171.450753 153.473336 
L 171.917568 146.652289 
L 172.384384 167.941298 
L 172.851199 149.114595 
L 173.318015 170.158903 
L 173.78483 167.620127 
L 174.251645 191.142035 
L 174.718461 184.458632 
L 175.185276 186.599768 
L 175.652091 184.61157 
L 176.118907 174.227061 
L 176.585722 190.897334 
L 177.052538 199.415996 
L 177.519353 205.30412 
L 177.986168 175.924676 
L 178.919799 172.070631 
L 179.386615 172.116513 
L 179.85343 150.032225 
L 180.320245 159.697924 
L 180.787061 187.700924 
L 181.253876 161.273189 
L 181.720692 148.227553 
L 182.187507 152.800408 
L 182.654322 180.864582 
L 183.121138 177.637585 
L 183.587953 180.574 
L 184.054769 189.138543 
L 184.521584 140.014768 
L 185.455215 182.026913 
L 185.92203 151.53102 
L 186.388846 166.35074 
L 186.855661 164.087253 
L 187.789292 182.913955 
L 188.256107 159.086171 
L 188.722922 167.421308 
L 189.189738 184.871565 
L 189.656553 159.284991 
L 190.123369 174.716464 
L 190.590184 216.759197 
L 191.056999 208.317004 
L 191.523815 231.380096 
L 191.99063 231.318921 
L 192.457446 223.687301 
L 192.924261 223.029666 
L 193.391076 169.271861 
L 193.857892 174.471762 
L 194.324707 156.455633 
L 194.791523 170.464779 
L 195.258338 196.464287 
L 195.725153 185.636257 
L 196.191969 204.126495 
L 197.1256 196.663107 
L 197.592415 163.766083 
L 198.05923 187.012701 
L 198.526046 186.982114 
L 198.992861 198.11602 
L 199.459677 218.349755 
L 199.926492 224.497874 
L 200.393307 224.589637 
L 200.860123 222.173212 
L 201.326938 218.242698 
L 201.793753 222.72379 
L 202.260569 219.909725 
L 202.727384 212.186342 
L 203.1942 215.841567 
L 203.661015 211.81929 
L 204.12783 197.932494 
L 204.594646 211.360475 
L 205.061461 218.670925 
L 205.528277 208.271122 
L 205.995092 191.845551 
L 206.461907 214.663942 
L 206.928723 211.268713 
L 207.395538 181.965738 
L 207.862354 190.713808 
L 208.329169 208.026421 
L 208.795984 195.271368 
L 209.2628 206.084105 
L 209.729615 209.678154 
L 210.196431 206.573507 
L 210.663246 211.222831 
L 211.130061 218.043878 
L 211.596877 214.618061 
L 212.063692 213.13456 
L 212.530508 214.832174 
L 212.997323 209.24228 
L 213.464138 212.767508 
L 213.930954 218.028584 
L 214.397769 175.695269 
L 214.864584 217.110955 
L 215.3314 214.954525 
L 215.798215 214.143952 
L 216.265031 215.21452 
L 217.198661 200.425388 
L 217.665477 207.108791 
L 218.132292 217.921528 
L 218.599108 225.384916 
L 219.065923 221.974392 
L 219.532738 214.618061 
L 219.999554 224.6814 
L 220.466369 223.060254 
L 220.933185 209.34169 
L 221.4 206.053517 
L 221.866815 211.911053 
L 222.333631 213.45573 
L 222.800446 218.28858 
L 223.267262 205.518233 
L 223.734077 183.678647 
L 224.200892 209.876974 
L 224.667708 197.336035 
L 225.601339 219.710906 
L 226.068154 212.308693 
L 226.534969 217.065073 
L 227.4686 231.502447 
L 227.935416 229.682481 
L 228.402231 218.976802 
L 228.869046 221.026175 
L 229.335862 176.215259 
L 229.802677 216.881547 
L 230.269492 218.793276 
L 230.736308 212.140461 
L 231.203123 201.450075 
L 231.669939 218.441518 
L 232.136754 219.037977 
L 232.603569 214.709824 
L 233.070385 214.985113 
L 233.5372 223.259074 
L 234.004016 226.608422 
L 234.470831 223.060254 
L 234.937646 220.689711 
L 235.404462 200.486564 
L 235.871277 219.833256 
L 236.338093 218.334461 
L 236.804908 218.777982 
L 237.271723 221.347345 
L 237.738539 219.466204 
L 238.205354 211.559295 
L 238.67217 201.098317 
L 239.138985 218.319167 
L 239.6058 212.33928 
L 240.072616 210.182851 
L 240.539431 203.438273 
L 241.006247 214.128658 
L 241.473062 219.206209 
L 241.939877 217.17213 
L 242.406693 218.533281 
L 242.873508 216.361557 
L 243.340323 209.815799 
L 243.807139 220.24619 
L 244.273954 206.527626 
L 244.74077 203.881794 
L 245.6744 212.522806 
L 246.141216 210.626372 
L 246.608031 225.537854 
L 247.074847 219.909725 
L 247.541662 212.499866 
L 248.008477 217.982703 
L 248.475293 215.21452 
L 248.942108 218.823864 
L 249.408924 208.30171 
L 249.875739 215.505103 
L 250.342554 205.457058 
L 250.80937 203.46886 
L 251.276185 196.387818 
L 251.743001 214.511004 
L 252.209816 205.074712 
L 252.676631 205.94646 
L 253.143447 216.942723 
L 253.610262 208.959344 
L 254.077078 187.762099 
L 255.010708 209.509922 
L 255.477524 209.968737 
L 255.944339 192.732593 
L 256.411154 200.379507 
L 256.87797 187.853862 
L 257.344785 201.878302 
L 257.811601 194.292563 
L 258.278416 196.433699 
L 258.745231 189.994998 
L 259.212047 181.965738 
L 259.678862 196.341936 
L 260.145678 171.642404 
L 260.612493 206.068811 
L 261.546124 169.47068 
L 262.012939 187.945625 
L 262.479755 185.039797 
L 262.94657 167.834241 
L 263.413385 161.961411 
L 263.880201 180.574 
L 264.813832 186.890351 
L 265.280647 180.069303 
L 265.747462 193.145526 
L 266.214278 197.412504 
L 266.681093 179.166967 
L 267.147909 200.364213 
L 267.614724 176.765836 
L 268.081539 171.672992 
L 269.481985 197.106628 
L 269.948801 178.555214 
L 270.415616 184.015111 
L 270.882432 187.80798 
L 271.349247 186.003309 
L 271.816062 182.325143 
L 272.282878 165.75428 
L 272.749693 188.832667 
L 273.216509 224.635518 
L 273.683324 223.947296 
L 274.150139 222.540264 
L 275.08377 207.919364 
L 275.550586 208.798759 
L 276.017401 196.433699 
L 276.484216 164.530774 
L 276.951032 156.302695 
L 277.417847 185.804489 
L 277.884663 183.908054 
L 278.351478 182.676901 
L 278.818293 182.592785 
L 279.285109 193.436109 
L 280.21874 169.073041 
L 280.685555 157.572082 
L 281.15237 171.336528 
L 281.619186 189.352657 
L 282.086001 162.771984 
L 282.552817 165.922512 
L 283.019632 174.578819 
L 283.486447 170.893007 
L 283.953263 164.148428 
L 284.420078 162.95551 
L 284.886893 148.296376 
L 285.353709 175.54233 
L 285.820524 216.958017 
L 286.28734 222.066155 
L 286.754155 222.739084 
L 287.22097 220.139133 
L 287.687786 180.833995 
L 288.154601 183.189244 
L 289.088232 161.594359 
L 290.021863 195.409013 
L 290.488678 188.098563 
L 290.955494 194.889023 
L 291.422309 208.745231 
L 291.889124 149.37459 
L 292.35594 172.34592 
L 292.822755 164.546068 
L 293.289571 181.002227 
L 293.756386 162.924922 
L 294.223201 170.709481 
L 294.690017 171.481819 
L 295.156832 143.425291 
L 295.623648 162.573164 
L 296.557278 175.052928 
L 297.024094 148.839306 
L 297.490909 172.988261 
L 297.957724 170.021258 
L 298.42454 181.09399 
L 298.891355 182.088089 
L 299.358171 165.402522 
L 299.824986 193.283171 
L 300.291801 165.280172 
L 300.758617 192.564361 
L 301.225432 190.316168 
L 302.159063 181.369279 
L 302.625878 182.118676 
L 303.092694 167.421308 
L 303.559509 158.459124 
L 304.026325 184.550395 
L 304.49314 187.563279 
L 304.959955 161.410833 
L 305.426771 162.083762 
L 305.893586 114.4129 
L 306.360402 165.586048 
L 307.294032 184.168049 
L 307.760848 215.902742 
L 308.227663 211.574589 
L 308.694479 140.718284 
L 309.161294 152.295712 
L 309.628109 145.061731 
L 310.094925 114.581132 
L 310.56174 131.878451 
L 311.028555 136.4666 
L 311.495371 137.277172 
L 311.962186 151.622783 
L 312.429002 177.071713 
L 312.895817 135.961903 
L 313.362632 135.900728 
L 313.829448 161.808473 
L 314.296263 159.300285 
L 314.763079 143.845872 
L 315.229894 151.118087 
L 315.696709 142.645306 
L 316.163525 125.883271 
L 316.63034 138.852437 
L 317.097156 144.786442 
L 317.563971 142.737069 
L 318.030786 150.613391 
L 318.497602 149.007539 
L 318.964417 146.835815 
L 319.431233 149.925168 
L 319.898048 177.775229 
L 320.364863 150.032225 
L 320.831679 138.531266 
L 321.298494 158.12266 
L 321.76531 168.23188 
L 322.232125 181.797506 
L 322.69894 208.286416 
L 323.165756 145.33702 
L 323.632571 145.122906 
L 324.099387 153.656862 
L 324.566202 151.102793 
L 325.499833 176.719955 
L 325.966648 171.458878 
L 326.433463 158.32148 
L 326.900279 153.580393 
L 327.367094 150.827504 
L 327.83391 175.93997 
L 328.300725 170.58713 
L 328.76754 141.391212 
L 329.234356 183.755116 
L 329.701171 147.111104 
L 330.167987 169.990671 
L 330.634802 173.049436 
L 331.101617 161.793179 
L 331.568433 121.463354 
L 332.035248 159.468517 
L 332.502064 172.009456 
L 332.968879 149.420472 
L 333.435694 135.640733 
L 333.90251 160.462616 
L 334.369325 196.020766 
L 334.836141 197.366623 
L 335.302956 152.586294 
L 335.769771 146.117005 
L 336.236587 175.74115 
L 336.703402 172.085925 
L 337.170218 165.662517 
L 337.637033 167.314251 
L 338.103848 161.441421 
L 338.570664 242.116364 
L 339.037479 169.440093 
L 339.504294 165.295465 
L 339.97111 145.704072 
L 340.437925 144.189983 
L 340.904741 180.849289 
L 341.371556 198.421897 
L 341.838371 152.418062 
L 342.305187 153.549806 
L 342.772002 170.648305 
L 343.238818 172.02475 
L 343.705633 169.745969 
L 344.172448 168.62952 
L 344.639264 157.617964 
L 345.106079 165.800162 
L 345.572895 137.475992 
L 346.03971 158.550887 
L 346.506525 170.877713 
L 346.973341 180.161066 
L 347.440156 181.782212 
L 347.906972 178.876385 
L 348.373787 184.519807 
L 348.840602 185.544494 
L 349.307418 182.944543 
L 349.774233 188.190326 
L 350.241049 197.106628 
L 350.707864 192.365541 
L 351.174679 200.608914 
L 351.641495 162.940216 
L 352.10831 166.044863 
L 352.575125 185.223323 
L 353.041941 169.730676 
L 353.508756 205.258238 
L 353.975572 171.657698 
L 354.442387 184.902153 
L 354.909202 180.222242 
L 355.376018 191.325561 
L 355.842833 176.092908 
L 356.309649 177.117595 
L 356.776464 186.492711 
L 357.243279 181.491629 
L 357.710095 179.304612 
L 358.17691 183.908054 
L 358.643726 184.152755 
L 359.110541 182.776311 
L 359.577356 182.103382 
L 360.044172 189.505595 
L 360.510987 178.509333 
L 360.977803 178.01993 
L 361.444618 179.426963 
L 361.911433 189.76559 
L 362.378249 182.164558 
L 362.845064 169.164804 
L 363.31188 175.74115 
L 363.778695 188.618553 
L 364.24551 168.476582 
L 364.712326 177.194064 
L 365.179141 170.082434 
L 365.645956 173.875303 
L 366.112772 189.092662 
L 366.579587 174.854108 
L 367.046403 167.956592 
L 367.513218 167.115431 
L 368.446849 185.72802 
L 368.913664 149.160477 
L 369.38048 188.496203 
L 369.847295 182.256321 
L 370.31411 189.230306 
L 370.780926 192.304366 
L 371.247741 200.593621 
L 371.714557 211.406357 
L 372.181372 201.557132 
L 372.648187 185.078032 
L 373.115003 194.965492 
L 373.581818 240.801094 
L 373.581818 240.801094 
" style="fill:none;stroke:#000000;stroke-linecap:square;stroke-width:1.5;"/>
   </g>
   <g id="patch_3">
    <path d="M 54 252 
L 54 34.56 
" style="fill:none;stroke:#000000;stroke-linecap:square;stroke-linejoin:miter;stroke-width:0.8;"/>
   </g>
   <g id="patch_4">
    <path d="M 388.8 252 
L 388.8 34.56 
" style="fill:none;stroke:#000000;stroke-linecap:square;stroke-linejoin:miter;stroke-width:0.8;"/>
   </g>
   <g id="patch_5">
    <path d="M 54 252 
L 388.8 252 
" style="fill:none;stroke:#000000;stroke-linecap:square;stroke-linejoin:miter;stroke-width:0.8;"/>
   </g>
   <g id="patch_6">
    <path d="M 54 34.56 
L 388.8 34.56 
" style="fill:none;stroke:#000000;stroke-linecap:square;stroke-linejoin:miter;stroke-width:0.8;"/>
   </g>
   <g id="text_16">
    <!-- Soma Diária de Energia - Casa 28 -->
    <g transform="translate(120.413438 28.56)scale(0.12 -0.12)">
     <defs>
      <path d="M 53.515625 70.515625 
L 53.515625 60.890625 
Q 47.90625 63.578125 42.921875 64.890625 
Q 37.9375 66.21875 33.296875 66.21875 
Q 25.25 66.21875 20.875 63.09375 
Q 16.5 59.96875 16.5 54.203125 
Q 16.5 49.359375 19.40625 46.890625 
Q 22.3125 44.4375 30.421875 42.921875 
L 36.375 41.703125 
Q 47.40625 39.59375 52.65625 34.296875 
Q 57.90625 29 57.90625 20.125 
Q 57.90625 9.515625 50.796875 4.046875 
Q 43.703125 -1.421875 29.984375 -1.421875 
Q 24.8125 -1.421875 18.96875 -0.25 
Q 13.140625 0.921875 6.890625 3.21875 
L 6.890625 13.375 
Q 12.890625 10.015625 18.65625 8.296875 
Q 24.421875 6.59375 29.984375 6.59375 
Q 38.421875 6.59375 43.015625 9.90625 
Q 47.609375 13.234375 47.609375 19.390625 
Q 47.609375 24.75 44.3125 27.78125 
Q 41.015625 30.8125 33.5 32.328125 
L 27.484375 33.5 
Q 16.453125 35.6875 11.515625 40.375 
Q 6.59375 45.0625 6.59375 53.421875 
Q 6.59375 63.09375 13.40625 68.65625 
Q 20.21875 74.21875 32.171875 74.21875 
Q 37.3125 74.21875 42.625 73.28125 
Q 47.953125 72.359375 53.515625 70.515625 
z
" id="DejaVuSans-83"/>
      <path d="M 30.609375 48.390625 
Q 23.390625 48.390625 19.1875 42.75 
Q 14.984375 37.109375 14.984375 27.296875 
Q 14.984375 17.484375 19.15625 11.84375 
Q 23.34375 6.203125 30.609375 6.203125 
Q 37.796875 6.203125 41.984375 11.859375 
Q 46.1875 17.53125 46.1875 27.296875 
Q 46.1875 37.015625 41.984375 42.703125 
Q 37.796875 48.390625 30.609375 48.390625 
z
M 30.609375 56 
Q 42.328125 56 49.015625 48.375 
Q 55.71875 40.765625 55.71875 27.296875 
Q 55.71875 13.875 49.015625 6.21875 
Q 42.328125 -1.421875 30.609375 -1.421875 
Q 18.84375 -1.421875 12.171875 6.21875 
Q 5.515625 13.875 5.515625 27.296875 
Q 5.515625 40.765625 12.171875 48.375 
Q 18.84375 56 30.609375 56 
z
" id="DejaVuSans-111"/>
      <path d="M 52 44.1875 
Q 55.375 50.25 60.0625 53.125 
Q 64.75 56 71.09375 56 
Q 79.640625 56 84.28125 50.015625 
Q 88.921875 44.046875 88.921875 33.015625 
L 88.921875 0 
L 79.890625 0 
L 79.890625 32.71875 
Q 79.890625 40.578125 77.09375 44.375 
Q 74.3125 48.1875 68.609375 48.1875 
Q 61.625 48.1875 57.5625 43.546875 
Q 53.515625 38.921875 53.515625 30.90625 
L 53.515625 0 
L 44.484375 0 
L 44.484375 32.71875 
Q 44.484375 40.625 41.703125 44.40625 
Q 38.921875 48.1875 33.109375 48.1875 
Q 26.21875 48.1875 22.15625 43.53125 
Q 18.109375 38.875 18.109375 30.90625 
L 18.109375 0 
L 9.078125 0 
L 9.078125 54.6875 
L 18.109375 54.6875 
L 18.109375 46.1875 
Q 21.1875 51.21875 25.484375 53.609375 
Q 29.78125 56 35.6875 56 
Q 41.65625 56 45.828125 52.96875 
Q 50 49.953125 52 44.1875 
z
" id="DejaVuSans-109"/>
      <path d="M 34.28125 27.484375 
Q 23.390625 27.484375 19.1875 25 
Q 14.984375 22.515625 14.984375 16.5 
Q 14.984375 11.71875 18.140625 8.90625 
Q 21.296875 6.109375 26.703125 6.109375 
Q 34.1875 6.109375 38.703125 11.40625 
Q 43.21875 16.703125 43.21875 25.484375 
L 43.21875 27.484375 
z
M 52.203125 31.203125 
L 52.203125 0 
L 43.21875 0 
L 43.21875 8.296875 
Q 40.140625 3.328125 35.546875 0.953125 
Q 30.953125 -1.421875 24.3125 -1.421875 
Q 15.921875 -1.421875 10.953125 3.296875 
Q 6 8.015625 6 15.921875 
Q 6 25.140625 12.171875 29.828125 
Q 18.359375 34.515625 30.609375 34.515625 
L 43.21875 34.515625 
L 43.21875 35.40625 
Q 43.21875 41.609375 39.140625 45 
Q 35.0625 48.390625 27.6875 48.390625 
Q 23 48.390625 18.546875 47.265625 
Q 14.109375 46.140625 10.015625 43.890625 
L 10.015625 52.203125 
Q 14.9375 54.109375 19.578125 55.046875 
Q 24.21875 56 28.609375 56 
Q 40.484375 56 46.34375 49.84375 
Q 52.203125 43.703125 52.203125 31.203125 
z
" id="DejaVuSans-97"/>
      <path id="DejaVuSans-32"/>
      <path d="M 19.671875 64.796875 
L 19.671875 8.109375 
L 31.59375 8.109375 
Q 46.6875 8.109375 53.6875 14.9375 
Q 60.6875 21.78125 60.6875 36.53125 
Q 60.6875 51.171875 53.6875 57.984375 
Q 46.6875 64.796875 31.59375 64.796875 
z
M 9.8125 72.90625 
L 30.078125 72.90625 
Q 51.265625 72.90625 61.171875 64.09375 
Q 71.09375 55.28125 71.09375 36.53125 
Q 71.09375 17.671875 61.125 8.828125 
Q 51.171875 0 30.078125 0 
L 9.8125 0 
z
" id="DejaVuSans-68"/>
      <path d="M 9.421875 54.6875 
L 18.40625 54.6875 
L 18.40625 0 
L 9.421875 0 
z
M 9.421875 75.984375 
L 18.40625 75.984375 
L 18.40625 64.59375 
L 9.421875 64.59375 
z
" id="DejaVuSans-105"/>
      <path d="M 34.28125 27.484375 
Q 23.390625 27.484375 19.1875 25 
Q 14.984375 22.515625 14.984375 16.5 
Q 14.984375 11.71875 18.140625 8.90625 
Q 21.296875 6.109375 26.703125 6.109375 
Q 34.1875 6.109375 38.703125 11.40625 
Q 43.21875 16.703125 43.21875 25.484375 
L 43.21875 27.484375 
z
M 52.203125 31.203125 
L 52.203125 0 
L 43.21875 0 
L 43.21875 8.296875 
Q 40.140625 3.328125 35.546875 0.953125 
Q 30.953125 -1.421875 24.3125 -1.421875 
Q 15.921875 -1.421875 10.953125 3.296875 
Q 6 8.015625 6 15.921875 
Q 6 25.140625 12.171875 29.828125 
Q 18.359375 34.515625 30.609375 34.515625 
L 43.21875 34.515625 
L 43.21875 35.40625 
Q 43.21875 41.609375 39.140625 45 
Q 35.0625 48.390625 27.6875 48.390625 
Q 23 48.390625 18.546875 47.265625 
Q 14.109375 46.140625 10.015625 43.890625 
L 10.015625 52.203125 
Q 14.9375 54.109375 19.578125 55.046875 
Q 24.21875 56 28.609375 56 
Q 40.484375 56 46.34375 49.84375 
Q 52.203125 43.703125 52.203125 31.203125 
z
M 35.796875 79.984375 
L 45.515625 79.984375 
L 29.59375 61.625 
L 22.125 61.625 
z
" id="DejaVuSans-225"/>
      <path d="M 41.109375 46.296875 
Q 39.59375 47.171875 37.8125 47.578125 
Q 36.03125 48 33.890625 48 
Q 26.265625 48 22.1875 43.046875 
Q 18.109375 38.09375 18.109375 28.8125 
L 18.109375 0 
L 9.078125 0 
L 9.078125 54.6875 
L 18.109375 54.6875 
L 18.109375 46.1875 
Q 20.953125 51.171875 25.484375 53.578125 
Q 30.03125 56 36.53125 56 
Q 37.453125 56 38.578125 55.875 
Q 39.703125 55.765625 41.0625 55.515625 
z
" id="DejaVuSans-114"/>
      <path d="M 45.40625 46.390625 
L 45.40625 75.984375 
L 54.390625 75.984375 
L 54.390625 0 
L 45.40625 0 
L 45.40625 8.203125 
Q 42.578125 3.328125 38.25 0.953125 
Q 33.9375 -1.421875 27.875 -1.421875 
Q 17.96875 -1.421875 11.734375 6.484375 
Q 5.515625 14.40625 5.515625 27.296875 
Q 5.515625 40.1875 11.734375 48.09375 
Q 17.96875 56 27.875 56 
Q 33.9375 56 38.25 53.625 
Q 42.578125 51.265625 45.40625 46.390625 
z
M 14.796875 27.296875 
Q 14.796875 17.390625 18.875 11.75 
Q 22.953125 6.109375 30.078125 6.109375 
Q 37.203125 6.109375 41.296875 11.75 
Q 45.40625 17.390625 45.40625 27.296875 
Q 45.40625 37.203125 41.296875 42.84375 
Q 37.203125 48.484375 30.078125 48.484375 
Q 22.953125 48.484375 18.875 42.84375 
Q 14.796875 37.203125 14.796875 27.296875 
z
" id="DejaVuSans-100"/>
      <path d="M 56.203125 29.59375 
L 56.203125 25.203125 
L 14.890625 25.203125 
Q 15.484375 15.921875 20.484375 11.0625 
Q 25.484375 6.203125 34.421875 6.203125 
Q 39.59375 6.203125 44.453125 7.46875 
Q 49.3125 8.734375 54.109375 11.28125 
L 54.109375 2.78125 
Q 49.265625 0.734375 44.1875 -0.34375 
Q 39.109375 -1.421875 33.890625 -1.421875 
Q 20.796875 -1.421875 13.15625 6.1875 
Q 5.515625 13.8125 5.515625 26.8125 
Q 5.515625 40.234375 12.765625 48.109375 
Q 20.015625 56 32.328125 56 
Q 43.359375 56 49.78125 48.890625 
Q 56.203125 41.796875 56.203125 29.59375 
z
M 47.21875 32.234375 
Q 47.125 39.59375 43.09375 43.984375 
Q 39.0625 48.390625 32.421875 48.390625 
Q 24.90625 48.390625 20.390625 44.140625 
Q 15.875 39.890625 15.1875 32.171875 
z
" id="DejaVuSans-101"/>
      <path d="M 9.8125 72.90625 
L 55.90625 72.90625 
L 55.90625 64.59375 
L 19.671875 64.59375 
L 19.671875 43.015625 
L 54.390625 43.015625 
L 54.390625 34.71875 
L 19.671875 34.71875 
L 19.671875 8.296875 
L 56.78125 8.296875 
L 56.78125 0 
L 9.8125 0 
z
" id="DejaVuSans-69"/>
      <path d="M 54.890625 33.015625 
L 54.890625 0 
L 45.90625 0 
L 45.90625 32.71875 
Q 45.90625 40.484375 42.875 44.328125 
Q 39.84375 48.1875 33.796875 48.1875 
Q 26.515625 48.1875 22.3125 43.546875 
Q 18.109375 38.921875 18.109375 30.90625 
L 18.109375 0 
L 9.078125 0 
L 9.078125 54.6875 
L 18.109375 54.6875 
L 18.109375 46.1875 
Q 21.34375 51.125 25.703125 53.5625 
Q 30.078125 56 35.796875 56 
Q 45.21875 56 50.046875 50.171875 
Q 54.890625 44.34375 54.890625 33.015625 
z
" id="DejaVuSans-110"/>
      <path d="M 45.40625 27.984375 
Q 45.40625 37.75 41.375 43.109375 
Q 37.359375 48.484375 30.078125 48.484375 
Q 22.859375 48.484375 18.828125 43.109375 
Q 14.796875 37.75 14.796875 27.984375 
Q 14.796875 18.265625 18.828125 12.890625 
Q 22.859375 7.515625 30.078125 7.515625 
Q 37.359375 7.515625 41.375 12.890625 
Q 45.40625 18.265625 45.40625 27.984375 
z
M 54.390625 6.78125 
Q 54.390625 -7.171875 48.1875 -13.984375 
Q 42 -20.796875 29.203125 -20.796875 
Q 24.46875 -20.796875 20.265625 -20.09375 
Q 16.0625 -19.390625 12.109375 -17.921875 
L 12.109375 -9.1875 
Q 16.0625 -11.328125 19.921875 -12.34375 
Q 23.78125 -13.375 27.78125 -13.375 
Q 36.625 -13.375 41.015625 -8.765625 
Q 45.40625 -4.15625 45.40625 5.171875 
L 45.40625 9.625 
Q 42.625 4.78125 38.28125 2.390625 
Q 33.9375 0 27.875 0 
Q 17.828125 0 11.671875 7.65625 
Q 5.515625 15.328125 5.515625 27.984375 
Q 5.515625 40.671875 11.671875 48.328125 
Q 17.828125 56 27.875 56 
Q 33.9375 56 38.28125 53.609375 
Q 42.625 51.21875 45.40625 46.390625 
L 45.40625 54.6875 
L 54.390625 54.6875 
z
" id="DejaVuSans-103"/>
      <path d="M 64.40625 67.28125 
L 64.40625 56.890625 
Q 59.421875 61.53125 53.78125 63.8125 
Q 48.140625 66.109375 41.796875 66.109375 
Q 29.296875 66.109375 22.65625 58.46875 
Q 16.015625 50.828125 16.015625 36.375 
Q 16.015625 21.96875 22.65625 14.328125 
Q 29.296875 6.6875 41.796875 6.6875 
Q 48.140625 6.6875 53.78125 8.984375 
Q 59.421875 11.28125 64.40625 15.921875 
L 64.40625 5.609375 
Q 59.234375 2.09375 53.4375 0.328125 
Q 47.65625 -1.421875 41.21875 -1.421875 
Q 24.65625 -1.421875 15.125 8.703125 
Q 5.609375 18.84375 5.609375 36.375 
Q 5.609375 53.953125 15.125 64.078125 
Q 24.65625 74.21875 41.21875 74.21875 
Q 47.75 74.21875 53.53125 72.484375 
Q 59.328125 70.75 64.40625 67.28125 
z
" id="DejaVuSans-67"/>
      <path d="M 44.28125 53.078125 
L 44.28125 44.578125 
Q 40.484375 46.53125 36.375 47.5 
Q 32.28125 48.484375 27.875 48.484375 
Q 21.1875 48.484375 17.84375 46.4375 
Q 14.5 44.390625 14.5 40.28125 
Q 14.5 37.15625 16.890625 35.375 
Q 19.28125 33.59375 26.515625 31.984375 
L 29.59375 31.296875 
Q 39.15625 29.25 43.1875 25.515625 
Q 47.21875 21.78125 47.21875 15.09375 
Q 47.21875 7.46875 41.1875 3.015625 
Q 35.15625 -1.421875 24.609375 -1.421875 
Q 20.21875 -1.421875 15.453125 -0.5625 
Q 10.6875 0.296875 5.421875 2 
L 5.421875 11.28125 
Q 10.40625 8.6875 15.234375 7.390625 
Q 20.0625 6.109375 24.8125 6.109375 
Q 31.15625 6.109375 34.5625 8.28125 
Q 37.984375 10.453125 37.984375 14.40625 
Q 37.984375 18.0625 35.515625 20.015625 
Q 33.0625 21.96875 24.703125 23.78125 
L 21.578125 24.515625 
Q 13.234375 26.265625 9.515625 29.90625 
Q 5.8125 33.546875 5.8125 39.890625 
Q 5.8125 47.609375 11.28125 51.796875 
Q 16.75 56 26.8125 56 
Q 31.78125 56 36.171875 55.265625 
Q 40.578125 54.546875 44.28125 53.078125 
z
" id="DejaVuSans-115"/>
     </defs>
     <use xlink:href="#DejaVuSans-83"/>
     <use x="63.476562" xlink:href="#DejaVuSans-111"/>
     <use x="124.658203" xlink:href="#DejaVuSans-109"/>
     <use x="222.070312" xlink:href="#DejaVuSans-97"/>
     <use x="283.349609" xlink:href="#DejaVuSans-32"/>
     <use x="315.136719" xlink:href="#DejaVuSans-68"/>
     <use x="392.138672" xlink:href="#DejaVuSans-105"/>
     <use x="419.921875" xlink:href="#DejaVuSans-225"/>
     <use x="481.201172" xlink:href="#DejaVuSans-114"/>
     <use x="522.314453" xlink:href="#DejaVuSans-105"/>
     <use x="550.097656" xlink:href="#DejaVuSans-97"/>
     <use x="611.376953" xlink:href="#DejaVuSans-32"/>
     <use x="643.164062" xlink:href="#DejaVuSans-100"/>
     <use x="706.640625" xlink:href="#DejaVuSans-101"/>
     <use x="768.164062" xlink:href="#DejaVuSans-32"/>
     <use x="799.951172" xlink:href="#DejaVuSans-69"/>
     <use x="863.134766" xlink:href="#DejaVuSans-110"/>
     <use x="926.513672" xlink:href="#DejaVuSans-101"/>
     <use x="988.037109" xlink:href="#DejaVuSans-114"/>
     <use x="1027.400391" xlink:href="#DejaVuSans-103"/>
     <use x="1090.876953" xlink:href="#DejaVuSans-105"/>
     <use x="1118.660156" xlink:href="#DejaVuSans-97"/>
     <use x="1179.939453" xlink:href="#DejaVuSans-32"/>
     <use x="1211.726562" xlink:href="#DejaVuSans-45"/>
     <use x="1247.810547" xlink:href="#DejaVuSans-32"/>
     <use x="1279.597656" xlink:href="#DejaVuSans-67"/>
     <use x="1349.421875" xlink:href="#DejaVuSans-97"/>
     <use x="1410.701172" xlink:href="#DejaVuSans-115"/>
     <use x="1462.800781" xlink:href="#DejaVuSans-97"/>
     <use x="1524.080078" xlink:href="#DejaVuSans-32"/>
     <use x="1555.867188" xlink:href="#DejaVuSans-50"/>
     <use x="1619.490234" xlink:href="#DejaVuSans-56"/>
    </g>
   </g>
  </g>
 </g>
 <defs>
  <clipPath id="p4149f59faf">
   <rect height="217.44" width="334.8" x="54" y="34.56"/>
  </clipPath>
 </defs>
</svg>
