<?xml version="1.0" encoding="utf-8" standalone="no"?>
<!DOCTYPE svg PUBLIC "-//W3C//DTD SVG 1.1//EN"
  "http://www.w3.org/Graphics/SVG/1.1/DTD/svg11.dtd">
<!-- Created with matplotlib (https://matplotlib.org/) -->
<svg height="288pt" version="1.1" viewBox="0 0 432 288" width="432pt" xmlns="http://www.w3.org/2000/svg" xmlns:xlink="http://www.w3.org/1999/xlink">
 <metadata>
  <rdf:RDF xmlns:cc="http://creativecommons.org/ns#" xmlns:dc="http://purl.org/dc/elements/1.1/" xmlns:rdf="http://www.w3.org/1999/02/22-rdf-syntax-ns#">
   <cc:Work>
    <dc:type rdf:resource="http://purl.org/dc/dcmitype/StillImage"/>
    <dc:date>2021-07-21T14:57:47.492098</dc:date>
    <dc:format>image/svg+xml</dc:format>
    <dc:creator>
     <cc:Agent>
      <dc:title>Matplotlib v3.3.4, https://matplotlib.org/</dc:title>
     </cc:Agent>
    </dc:creator>
   </cc:Work>
  </rdf:RDF>
 </metadata>
 <defs>
  <style type="text/css">*{stroke-linecap:butt;stroke-linejoin:round;}</style>
 </defs>
 <g id="figure_1">
  <g id="patch_1">
   <path d="M 0 288 
L 432 288 
L 432 0 
L 0 0 
z
" style="fill:#ffffff;"/>
  </g>
  <g id="axes_1">
   <g id="patch_2">
    <path d="M 54 252 
L 388.8 252 
L 388.8 34.56 
L 54 34.56 
z
" style="fill:#ffffff;"/>
   </g>
   <g id="matplotlib.axis_1">
    <g id="xtick_1">
     <g id="line2d_1">
      <defs>
       <path d="M 0 0 
L 0 3.5 
" id="mf10516f875" style="stroke:#000000;stroke-width:0.8;"/>
      </defs>
      <g>
       <use style="stroke:#000000;stroke-width:0.8;" x="55.042341" xlink:href="#mf10516f875" y="252"/>
      </g>
     </g>
     <g id="text_1">
      <!-- 2015-01 -->
      <g transform="translate(42.221059 293.917817)rotate(-45)scale(0.1 -0.1)">
       <defs>
        <path d="M 19.1875 8.296875 
L 53.609375 8.296875 
L 53.609375 0 
L 7.328125 0 
L 7.328125 8.296875 
Q 12.9375 14.109375 22.625 23.890625 
Q 32.328125 33.6875 34.8125 36.53125 
Q 39.546875 41.84375 41.421875 45.53125 
Q 43.3125 49.21875 43.3125 52.78125 
Q 43.3125 58.59375 39.234375 62.25 
Q 35.15625 65.921875 28.609375 65.921875 
Q 23.96875 65.921875 18.8125 64.3125 
Q 13.671875 62.703125 7.8125 59.421875 
L 7.8125 69.390625 
Q 13.765625 71.78125 18.9375 73 
Q 24.125 74.21875 28.421875 74.21875 
Q 39.75 74.21875 46.484375 68.546875 
Q 53.21875 62.890625 53.21875 53.421875 
Q 53.21875 48.921875 51.53125 44.890625 
Q 49.859375 40.875 45.40625 35.40625 
Q 44.1875 33.984375 37.640625 27.21875 
Q 31.109375 20.453125 19.1875 8.296875 
z
" id="DejaVuSans-50"/>
        <path d="M 31.78125 66.40625 
Q 24.171875 66.40625 20.328125 58.90625 
Q 16.5 51.421875 16.5 36.375 
Q 16.5 21.390625 20.328125 13.890625 
Q 24.171875 6.390625 31.78125 6.390625 
Q 39.453125 6.390625 43.28125 13.890625 
Q 47.125 21.390625 47.125 36.375 
Q 47.125 51.421875 43.28125 58.90625 
Q 39.453125 66.40625 31.78125 66.40625 
z
M 31.78125 74.21875 
Q 44.046875 74.21875 50.515625 64.515625 
Q 56.984375 54.828125 56.984375 36.375 
Q 56.984375 17.96875 50.515625 8.265625 
Q 44.046875 -1.421875 31.78125 -1.421875 
Q 19.53125 -1.421875 13.0625 8.265625 
Q 6.59375 17.96875 6.59375 36.375 
Q 6.59375 54.828125 13.0625 64.515625 
Q 19.53125 74.21875 31.78125 74.21875 
z
" id="DejaVuSans-48"/>
        <path d="M 12.40625 8.296875 
L 28.515625 8.296875 
L 28.515625 63.921875 
L 10.984375 60.40625 
L 10.984375 69.390625 
L 28.421875 72.90625 
L 38.28125 72.90625 
L 38.28125 8.296875 
L 54.390625 8.296875 
L 54.390625 0 
L 12.40625 0 
z
" id="DejaVuSans-49"/>
        <path d="M 10.796875 72.90625 
L 49.515625 72.90625 
L 49.515625 64.59375 
L 19.828125 64.59375 
L 19.828125 46.734375 
Q 21.96875 47.46875 24.109375 47.828125 
Q 26.265625 48.1875 28.421875 48.1875 
Q 40.625 48.1875 47.75 41.5 
Q 54.890625 34.8125 54.890625 23.390625 
Q 54.890625 11.625 47.5625 5.09375 
Q 40.234375 -1.421875 26.90625 -1.421875 
Q 22.3125 -1.421875 17.546875 -0.640625 
Q 12.796875 0.140625 7.71875 1.703125 
L 7.71875 11.625 
Q 12.109375 9.234375 16.796875 8.0625 
Q 21.484375 6.890625 26.703125 6.890625 
Q 35.15625 6.890625 40.078125 11.328125 
Q 45.015625 15.765625 45.015625 23.390625 
Q 45.015625 31 40.078125 35.4375 
Q 35.15625 39.890625 26.703125 39.890625 
Q 22.75 39.890625 18.8125 39.015625 
Q 14.890625 38.140625 10.796875 36.28125 
z
" id="DejaVuSans-53"/>
        <path d="M 4.890625 31.390625 
L 31.203125 31.390625 
L 31.203125 23.390625 
L 4.890625 23.390625 
z
" id="DejaVuSans-45"/>
       </defs>
       <use xlink:href="#DejaVuSans-50"/>
       <use x="63.623047" xlink:href="#DejaVuSans-48"/>
       <use x="127.246094" xlink:href="#DejaVuSans-49"/>
       <use x="190.869141" xlink:href="#DejaVuSans-53"/>
       <use x="254.492188" xlink:href="#DejaVuSans-45"/>
       <use x="290.576172" xlink:href="#DejaVuSans-48"/>
       <use x="354.199219" xlink:href="#DejaVuSans-49"/>
      </g>
     </g>
    </g>
    <g id="xtick_2">
     <g id="line2d_2">
      <g>
       <use style="stroke:#000000;stroke-width:0.8;" x="88.39726" xlink:href="#mf10516f875" y="252"/>
      </g>
     </g>
     <g id="text_2">
      <!-- 2015-05 -->
      <g transform="translate(75.575978 293.917817)rotate(-45)scale(0.1 -0.1)">
       <use xlink:href="#DejaVuSans-50"/>
       <use x="63.623047" xlink:href="#DejaVuSans-48"/>
       <use x="127.246094" xlink:href="#DejaVuSans-49"/>
       <use x="190.869141" xlink:href="#DejaVuSans-53"/>
       <use x="254.492188" xlink:href="#DejaVuSans-45"/>
       <use x="290.576172" xlink:href="#DejaVuSans-48"/>
       <use x="354.199219" xlink:href="#DejaVuSans-53"/>
      </g>
     </g>
    </g>
    <g id="xtick_3">
     <g id="line2d_3">
      <g>
       <use style="stroke:#000000;stroke-width:0.8;" x="122.586052" xlink:href="#mf10516f875" y="252"/>
      </g>
     </g>
     <g id="text_3">
      <!-- 2015-09 -->
      <g transform="translate(109.76477 293.917817)rotate(-45)scale(0.1 -0.1)">
       <defs>
        <path d="M 10.984375 1.515625 
L 10.984375 10.5 
Q 14.703125 8.734375 18.5 7.8125 
Q 22.3125 6.890625 25.984375 6.890625 
Q 35.75 6.890625 40.890625 13.453125 
Q 46.046875 20.015625 46.78125 33.40625 
Q 43.953125 29.203125 39.59375 26.953125 
Q 35.25 24.703125 29.984375 24.703125 
Q 19.046875 24.703125 12.671875 31.3125 
Q 6.296875 37.9375 6.296875 49.421875 
Q 6.296875 60.640625 12.9375 67.421875 
Q 19.578125 74.21875 30.609375 74.21875 
Q 43.265625 74.21875 49.921875 64.515625 
Q 56.59375 54.828125 56.59375 36.375 
Q 56.59375 19.140625 48.40625 8.859375 
Q 40.234375 -1.421875 26.421875 -1.421875 
Q 22.703125 -1.421875 18.890625 -0.6875 
Q 15.09375 0.046875 10.984375 1.515625 
z
M 30.609375 32.421875 
Q 37.25 32.421875 41.125 36.953125 
Q 45.015625 41.5 45.015625 49.421875 
Q 45.015625 57.28125 41.125 61.84375 
Q 37.25 66.40625 30.609375 66.40625 
Q 23.96875 66.40625 20.09375 61.84375 
Q 16.21875 57.28125 16.21875 49.421875 
Q 16.21875 41.5 20.09375 36.953125 
Q 23.96875 32.421875 30.609375 32.421875 
z
" id="DejaVuSans-57"/>
       </defs>
       <use xlink:href="#DejaVuSans-50"/>
       <use x="63.623047" xlink:href="#DejaVuSans-48"/>
       <use x="127.246094" xlink:href="#DejaVuSans-49"/>
       <use x="190.869141" xlink:href="#DejaVuSans-53"/>
       <use x="254.492188" xlink:href="#DejaVuSans-45"/>
       <use x="290.576172" xlink:href="#DejaVuSans-48"/>
       <use x="354.199219" xlink:href="#DejaVuSans-57"/>
      </g>
     </g>
    </g>
    <g id="xtick_4">
     <g id="line2d_4">
      <g>
       <use style="stroke:#000000;stroke-width:0.8;" x="156.496887" xlink:href="#mf10516f875" y="252"/>
      </g>
     </g>
     <g id="text_4">
      <!-- 2016-01 -->
      <g transform="translate(143.675604 293.917817)rotate(-45)scale(0.1 -0.1)">
       <defs>
        <path d="M 33.015625 40.375 
Q 26.375 40.375 22.484375 35.828125 
Q 18.609375 31.296875 18.609375 23.390625 
Q 18.609375 15.53125 22.484375 10.953125 
Q 26.375 6.390625 33.015625 6.390625 
Q 39.65625 6.390625 43.53125 10.953125 
Q 47.40625 15.53125 47.40625 23.390625 
Q 47.40625 31.296875 43.53125 35.828125 
Q 39.65625 40.375 33.015625 40.375 
z
M 52.59375 71.296875 
L 52.59375 62.3125 
Q 48.875 64.0625 45.09375 64.984375 
Q 41.3125 65.921875 37.59375 65.921875 
Q 27.828125 65.921875 22.671875 59.328125 
Q 17.53125 52.734375 16.796875 39.40625 
Q 19.671875 43.65625 24.015625 45.921875 
Q 28.375 48.1875 33.59375 48.1875 
Q 44.578125 48.1875 50.953125 41.515625 
Q 57.328125 34.859375 57.328125 23.390625 
Q 57.328125 12.15625 50.6875 5.359375 
Q 44.046875 -1.421875 33.015625 -1.421875 
Q 20.359375 -1.421875 13.671875 8.265625 
Q 6.984375 17.96875 6.984375 36.375 
Q 6.984375 53.65625 15.1875 63.9375 
Q 23.390625 74.21875 37.203125 74.21875 
Q 40.921875 74.21875 44.703125 73.484375 
Q 48.484375 72.75 52.59375 71.296875 
z
" id="DejaVuSans-54"/>
       </defs>
       <use xlink:href="#DejaVuSans-50"/>
       <use x="63.623047" xlink:href="#DejaVuSans-48"/>
       <use x="127.246094" xlink:href="#DejaVuSans-49"/>
       <use x="190.869141" xlink:href="#DejaVuSans-54"/>
       <use x="254.492188" xlink:href="#DejaVuSans-45"/>
       <use x="290.576172" xlink:href="#DejaVuSans-48"/>
       <use x="354.199219" xlink:href="#DejaVuSans-49"/>
      </g>
     </g>
    </g>
    <g id="xtick_5">
     <g id="line2d_5">
      <g>
       <use style="stroke:#000000;stroke-width:0.8;" x="190.129763" xlink:href="#mf10516f875" y="252"/>
      </g>
     </g>
     <g id="text_5">
      <!-- 2016-05 -->
      <g transform="translate(177.308481 293.917817)rotate(-45)scale(0.1 -0.1)">
       <use xlink:href="#DejaVuSans-50"/>
       <use x="63.623047" xlink:href="#DejaVuSans-48"/>
       <use x="127.246094" xlink:href="#DejaVuSans-49"/>
       <use x="190.869141" xlink:href="#DejaVuSans-54"/>
       <use x="254.492188" xlink:href="#DejaVuSans-45"/>
       <use x="290.576172" xlink:href="#DejaVuSans-48"/>
       <use x="354.199219" xlink:href="#DejaVuSans-53"/>
      </g>
     </g>
    </g>
    <g id="xtick_6">
     <g id="line2d_6">
      <g>
       <use style="stroke:#000000;stroke-width:0.8;" x="224.318555" xlink:href="#mf10516f875" y="252"/>
      </g>
     </g>
     <g id="text_6">
      <!-- 2016-09 -->
      <g transform="translate(211.497273 293.917817)rotate(-45)scale(0.1 -0.1)">
       <use xlink:href="#DejaVuSans-50"/>
       <use x="63.623047" xlink:href="#DejaVuSans-48"/>
       <use x="127.246094" xlink:href="#DejaVuSans-49"/>
       <use x="190.869141" xlink:href="#DejaVuSans-54"/>
       <use x="254.492188" xlink:href="#DejaVuSans-45"/>
       <use x="290.576172" xlink:href="#DejaVuSans-48"/>
       <use x="354.199219" xlink:href="#DejaVuSans-57"/>
      </g>
     </g>
    </g>
    <g id="xtick_7">
     <g id="line2d_7">
      <g>
       <use style="stroke:#000000;stroke-width:0.8;" x="258.22939" xlink:href="#mf10516f875" y="252"/>
      </g>
     </g>
     <g id="text_7">
      <!-- 2017-01 -->
      <g transform="translate(245.408108 293.917817)rotate(-45)scale(0.1 -0.1)">
       <defs>
        <path d="M 8.203125 72.90625 
L 55.078125 72.90625 
L 55.078125 68.703125 
L 28.609375 0 
L 18.3125 0 
L 43.21875 64.59375 
L 8.203125 64.59375 
z
" id="DejaVuSans-55"/>
       </defs>
       <use xlink:href="#DejaVuSans-50"/>
       <use x="63.623047" xlink:href="#DejaVuSans-48"/>
       <use x="127.246094" xlink:href="#DejaVuSans-49"/>
       <use x="190.869141" xlink:href="#DejaVuSans-55"/>
       <use x="254.492188" xlink:href="#DejaVuSans-45"/>
       <use x="290.576172" xlink:href="#DejaVuSans-48"/>
       <use x="354.199219" xlink:href="#DejaVuSans-49"/>
      </g>
     </g>
    </g>
    <g id="xtick_8">
     <g id="line2d_8">
      <g>
       <use style="stroke:#000000;stroke-width:0.8;" x="291.584309" xlink:href="#mf10516f875" y="252"/>
      </g>
     </g>
     <g id="text_8">
      <!-- 2017-05 -->
      <g transform="translate(278.763027 293.917817)rotate(-45)scale(0.1 -0.1)">
       <use xlink:href="#DejaVuSans-50"/>
       <use x="63.623047" xlink:href="#DejaVuSans-48"/>
       <use x="127.246094" xlink:href="#DejaVuSans-49"/>
       <use x="190.869141" xlink:href="#DejaVuSans-55"/>
       <use x="254.492188" xlink:href="#DejaVuSans-45"/>
       <use x="290.576172" xlink:href="#DejaVuSans-48"/>
       <use x="354.199219" xlink:href="#DejaVuSans-53"/>
      </g>
     </g>
    </g>
    <g id="xtick_9">
     <g id="line2d_9">
      <g>
       <use style="stroke:#000000;stroke-width:0.8;" x="325.773101" xlink:href="#mf10516f875" y="252"/>
      </g>
     </g>
     <g id="text_9">
      <!-- 2017-09 -->
      <g transform="translate(312.951819 293.917817)rotate(-45)scale(0.1 -0.1)">
       <use xlink:href="#DejaVuSans-50"/>
       <use x="63.623047" xlink:href="#DejaVuSans-48"/>
       <use x="127.246094" xlink:href="#DejaVuSans-49"/>
       <use x="190.869141" xlink:href="#DejaVuSans-55"/>
       <use x="254.492188" xlink:href="#DejaVuSans-45"/>
       <use x="290.576172" xlink:href="#DejaVuSans-48"/>
       <use x="354.199219" xlink:href="#DejaVuSans-57"/>
      </g>
     </g>
    </g>
    <g id="xtick_10">
     <g id="line2d_10">
      <g>
       <use style="stroke:#000000;stroke-width:0.8;" x="359.683935" xlink:href="#mf10516f875" y="252"/>
      </g>
     </g>
     <g id="text_10">
      <!-- 2018-01 -->
      <g transform="translate(346.862653 293.917817)rotate(-45)scale(0.1 -0.1)">
       <defs>
        <path d="M 31.78125 34.625 
Q 24.75 34.625 20.71875 30.859375 
Q 16.703125 27.09375 16.703125 20.515625 
Q 16.703125 13.921875 20.71875 10.15625 
Q 24.75 6.390625 31.78125 6.390625 
Q 38.8125 6.390625 42.859375 10.171875 
Q 46.921875 13.96875 46.921875 20.515625 
Q 46.921875 27.09375 42.890625 30.859375 
Q 38.875 34.625 31.78125 34.625 
z
M 21.921875 38.8125 
Q 15.578125 40.375 12.03125 44.71875 
Q 8.5 49.078125 8.5 55.328125 
Q 8.5 64.0625 14.71875 69.140625 
Q 20.953125 74.21875 31.78125 74.21875 
Q 42.671875 74.21875 48.875 69.140625 
Q 55.078125 64.0625 55.078125 55.328125 
Q 55.078125 49.078125 51.53125 44.71875 
Q 48 40.375 41.703125 38.8125 
Q 48.828125 37.15625 52.796875 32.3125 
Q 56.78125 27.484375 56.78125 20.515625 
Q 56.78125 9.90625 50.3125 4.234375 
Q 43.84375 -1.421875 31.78125 -1.421875 
Q 19.734375 -1.421875 13.25 4.234375 
Q 6.78125 9.90625 6.78125 20.515625 
Q 6.78125 27.484375 10.78125 32.3125 
Q 14.796875 37.15625 21.921875 38.8125 
z
M 18.3125 54.390625 
Q 18.3125 48.734375 21.84375 45.5625 
Q 25.390625 42.390625 31.78125 42.390625 
Q 38.140625 42.390625 41.71875 45.5625 
Q 45.3125 48.734375 45.3125 54.390625 
Q 45.3125 60.0625 41.71875 63.234375 
Q 38.140625 66.40625 31.78125 66.40625 
Q 25.390625 66.40625 21.84375 63.234375 
Q 18.3125 60.0625 18.3125 54.390625 
z
" id="DejaVuSans-56"/>
       </defs>
       <use xlink:href="#DejaVuSans-50"/>
       <use x="63.623047" xlink:href="#DejaVuSans-48"/>
       <use x="127.246094" xlink:href="#DejaVuSans-49"/>
       <use x="190.869141" xlink:href="#DejaVuSans-56"/>
       <use x="254.492188" xlink:href="#DejaVuSans-45"/>
       <use x="290.576172" xlink:href="#DejaVuSans-48"/>
       <use x="354.199219" xlink:href="#DejaVuSans-49"/>
      </g>
     </g>
    </g>
   </g>
   <g id="matplotlib.axis_2">
    <g id="ytick_1">
     <g id="line2d_11">
      <defs>
       <path d="M 0 0 
L -3.5 0 
" id="m9573efa74b" style="stroke:#000000;stroke-width:0.8;"/>
      </defs>
      <g>
       <use style="stroke:#000000;stroke-width:0.8;" x="54" xlink:href="#m9573efa74b" y="242.116364"/>
      </g>
     </g>
     <g id="text_11">
      <!-- 0 -->
      <g transform="translate(40.6375 245.915582)scale(0.1 -0.1)">
       <use xlink:href="#DejaVuSans-48"/>
      </g>
     </g>
    </g>
    <g id="ytick_2">
     <g id="line2d_12">
      <g>
       <use style="stroke:#000000;stroke-width:0.8;" x="54" xlink:href="#m9573efa74b" y="199.477725"/>
      </g>
     </g>
     <g id="text_12">
      <!-- 10 -->
      <g transform="translate(34.275 203.276944)scale(0.1 -0.1)">
       <use xlink:href="#DejaVuSans-49"/>
       <use x="63.623047" xlink:href="#DejaVuSans-48"/>
      </g>
     </g>
    </g>
    <g id="ytick_3">
     <g id="line2d_13">
      <g>
       <use style="stroke:#000000;stroke-width:0.8;" x="54" xlink:href="#m9573efa74b" y="156.839087"/>
      </g>
     </g>
     <g id="text_13">
      <!-- 20 -->
      <g transform="translate(34.275 160.638306)scale(0.1 -0.1)">
       <use xlink:href="#DejaVuSans-50"/>
       <use x="63.623047" xlink:href="#DejaVuSans-48"/>
      </g>
     </g>
    </g>
    <g id="ytick_4">
     <g id="line2d_14">
      <g>
       <use style="stroke:#000000;stroke-width:0.8;" x="54" xlink:href="#m9573efa74b" y="114.200449"/>
      </g>
     </g>
     <g id="text_14">
      <!-- 30 -->
      <g transform="translate(34.275 117.999667)scale(0.1 -0.1)">
       <defs>
        <path d="M 40.578125 39.3125 
Q 47.65625 37.796875 51.625 33 
Q 55.609375 28.21875 55.609375 21.1875 
Q 55.609375 10.40625 48.1875 4.484375 
Q 40.765625 -1.421875 27.09375 -1.421875 
Q 22.515625 -1.421875 17.65625 -0.515625 
Q 12.796875 0.390625 7.625 2.203125 
L 7.625 11.71875 
Q 11.71875 9.328125 16.59375 8.109375 
Q 21.484375 6.890625 26.8125 6.890625 
Q 36.078125 6.890625 40.9375 10.546875 
Q 45.796875 14.203125 45.796875 21.1875 
Q 45.796875 27.640625 41.28125 31.265625 
Q 36.765625 34.90625 28.71875 34.90625 
L 20.21875 34.90625 
L 20.21875 43.015625 
L 29.109375 43.015625 
Q 36.375 43.015625 40.234375 45.921875 
Q 44.09375 48.828125 44.09375 54.296875 
Q 44.09375 59.90625 40.109375 62.90625 
Q 36.140625 65.921875 28.71875 65.921875 
Q 24.65625 65.921875 20.015625 65.03125 
Q 15.375 64.15625 9.8125 62.3125 
L 9.8125 71.09375 
Q 15.4375 72.65625 20.34375 73.4375 
Q 25.25 74.21875 29.59375 74.21875 
Q 40.828125 74.21875 47.359375 69.109375 
Q 53.90625 64.015625 53.90625 55.328125 
Q 53.90625 49.265625 50.4375 45.09375 
Q 46.96875 40.921875 40.578125 39.3125 
z
" id="DejaVuSans-51"/>
       </defs>
       <use xlink:href="#DejaVuSans-51"/>
       <use x="63.623047" xlink:href="#DejaVuSans-48"/>
      </g>
     </g>
    </g>
    <g id="ytick_5">
     <g id="line2d_15">
      <g>
       <use style="stroke:#000000;stroke-width:0.8;" x="54" xlink:href="#m9573efa74b" y="71.56181"/>
      </g>
     </g>
     <g id="text_15">
      <!-- 40 -->
      <g transform="translate(34.275 75.361029)scale(0.1 -0.1)">
       <defs>
        <path d="M 37.796875 64.3125 
L 12.890625 25.390625 
L 37.796875 25.390625 
z
M 35.203125 72.90625 
L 47.609375 72.90625 
L 47.609375 25.390625 
L 58.015625 25.390625 
L 58.015625 17.1875 
L 47.609375 17.1875 
L 47.609375 0 
L 37.796875 0 
L 37.796875 17.1875 
L 4.890625 17.1875 
L 4.890625 26.703125 
z
" id="DejaVuSans-52"/>
       </defs>
       <use xlink:href="#DejaVuSans-52"/>
       <use x="63.623047" xlink:href="#DejaVuSans-48"/>
      </g>
     </g>
    </g>
   </g>
   <g id="line2d_16">
    <path clip-path="url(#p5b664b971e)" d="M 69.218182 203.059371 
L 69.496139 174.576761 
L 69.774097 190.139864 
L 70.052055 175.85592 
L 70.330012 153.364038 
L 70.60797 180.929918 
L 70.885928 196.535659 
L 71.163885 187.880016 
L 71.441843 149.931628 
L 71.719801 186.387663 
L 71.997758 181.825329 
L 72.275716 179.224372 
L 72.831631 206.129353 
L 73.109589 148.9083 
L 73.665504 201.311187 
L 73.943462 174.747315 
L 74.22142 194.702198 
L 74.499377 201.481741 
L 74.777335 182.635463 
L 75.055293 178.67007 
L 75.33325 156.028953 
L 75.611208 196.109273 
L 75.889166 183.871984 
L 76.167123 182.635463 
L 76.445081 188.263763 
L 76.723039 202.206598 
L 77.000996 187.283075 
L 77.278954 162.808496 
L 77.556912 183.871984 
L 77.834869 185.108504 
L 78.112827 187.368352 
L 78.390785 199.072658 
L 78.668742 204.807555 
L 78.9467 188.199805 
L 79.224658 141.382581 
L 79.502615 180.887279 
L 79.780573 198.198566 
L 80.058531 173.425517 
L 80.336488 202.846178 
L 80.614446 174.619399 
L 80.892403 197.558987 
L 81.170361 148.865662 
L 81.726276 194.915391 
L 82.004234 192.676862 
L 82.282192 186.067874 
L 82.560149 193.636232 
L 82.838107 190.24646 
L 83.116065 144.303327 
L 83.67198 200.032028 
L 83.949938 183.36032 
L 84.227895 183.147127 
L 84.505853 188.860704 
L 84.783811 179.394927 
L 85.061768 179.522843 
L 85.339726 180.802002 
L 85.617684 162.254194 
L 85.895641 194.574282 
L 86.173599 190.139864 
L 86.451557 193.423039 
L 86.729514 187.027243 
L 87.007472 153.59855 
L 87.563387 189.116536 
L 87.841345 196.791491 
L 88.119303 161.699892 
L 88.39726 205.489773 
L 88.675218 175.429533 
L 88.953176 168.180965 
L 89.231133 200.543691 
L 89.509091 198.624953 
L 89.787049 206.21463 
L 90.065006 200.970078 
L 90.342964 213.292644 
L 90.620922 199.435087 
L 90.898879 140.210018 
L 91.176837 191.5043 
L 91.454795 188.604873 
L 91.732752 183.573513 
L 92.01071 191.888048 
L 92.288667 192.271795 
L 92.566625 193.550955 
L 92.844583 194.233173 
L 93.12254 191.930686 
L 93.400498 198.155928 
L 93.678456 186.217109 
L 94.234371 208.922184 
L 94.790286 159.781153 
L 95.346202 207.195319 
L 95.624159 201.993405 
L 95.902117 208.218646 
L 96.180075 180.759363 
L 96.458032 210.009469 
L 97.013948 160.079623 
L 97.291905 186.771411 
L 97.847821 206.768932 
L 98.125778 194.574282 
L 98.403736 208.474478 
L 98.681694 184.511563 
L 98.959651 204.466446 
L 99.237609 209.838914 
L 99.515567 197.217877 
L 100.071482 211.331267 
L 100.34944 196.109273 
L 100.627397 159.994346 
L 100.905355 206.470462 
L 101.183313 193.465677 
L 101.46127 202.419791 
L 101.739228 207.493789 
L 102.017186 208.048092 
L 102.295143 189.670838 
L 102.573101 180.716724 
L 102.851059 189.201813 
L 103.129016 204.637001 
L 103.406974 207.024764 
L 103.684932 210.563771 
L 103.962889 207.962814 
L 104.518804 177.220356 
L 104.796762 193.892064 
L 105.07472 199.989389 
L 105.352677 169.502763 
L 105.630635 199.392448 
L 105.908593 210.649049 
L 106.18655 199.861473 
L 106.464508 177.518827 
L 106.742466 203.826866 
L 107.020423 203.357841 
L 107.298381 210.435855 
L 107.576339 209.284612 
L 107.854296 215.339299 
L 108.132254 170.184981 
L 108.410212 185.406975 
L 108.688169 190.523611 
L 108.966127 208.73031 
L 109.244085 200.714246 
L 109.522042 205.702967 
L 109.8 202.632985 
L 110.077958 197.665583 
L 110.355915 195.981357 
L 110.633873 172.018442 
L 110.911831 186.558218 
L 111.189788 182.166438 
L 111.467746 211.245989 
L 111.745704 192.527627 
L 112.023661 193.636232 
L 112.301619 163.746546 
L 112.579577 188.775427 
L 112.857534 200.927439 
L 113.135492 200.799523 
L 113.41345 185.406975 
L 113.691407 197.644264 
L 113.969365 203.571035 
L 114.247323 178.925902 
L 114.52528 180.631447 
L 114.803238 207.280596 
L 115.081196 189.6282 
L 115.359153 181.910606 
L 115.637111 210.691687 
L 115.915068 192.74082 
L 116.193026 198.752868 
L 116.470984 179.437565 
L 116.748941 200.58633 
L 117.026899 192.015964 
L 117.582814 206.513101 
L 117.860772 174.363567 
L 118.13873 176.069113 
L 118.416687 192.74082 
L 118.694645 199.563003 
L 118.972603 202.334514 
L 119.25056 210.393217 
L 119.806476 196.748852 
L 120.084433 201.140632 
L 120.362391 193.561614 
L 120.640349 202.078682 
L 120.918306 185.065866 
L 121.196264 208.986142 
L 121.474222 209.625721 
L 121.752179 185.001908 
L 122.030137 177.049802 
L 122.308095 199.776196 
L 122.586052 210.649049 
L 122.86401 192.058602 
L 123.419925 210.478494 
L 123.697883 180.503531 
L 123.975841 171.506779 
L 124.253798 136.628372 
L 124.531756 190.779443 
L 124.809714 206.385185 
L 125.087671 201.865489 
L 125.365629 212.141401 
L 125.643587 174.491483 
L 125.921544 164.002378 
L 126.199502 186.941966 
L 126.47746 197.047323 
L 126.755417 194.787475 
L 127.311333 203.016732 
L 127.58929 171.506779 
L 127.867248 171.336224 
L 128.145205 190.480973 
L 128.423163 191.461661 
L 128.701121 201.183271 
L 128.979078 178.627431 
L 129.257036 194.31845 
L 129.534994 195.938718 
L 129.812951 176.623415 
L 130.090909 188.007932 
L 130.646824 198.028012 
L 130.924782 198.113289 
L 131.20274 203.485757 
L 131.480697 199.690919 
L 131.758655 181.185749 
L 132.31457 189.329729 
L 132.870486 192.14388 
L 133.148443 185.065866 
L 133.704359 124.732192 
L 134.260274 191.845409 
L 134.538232 188.818066 
L 134.816189 195.171223 
L 135.094147 196.620937 
L 135.372105 192.527627 
L 135.650062 185.065866 
L 135.92802 149.590518 
L 136.205978 199.904112 
L 136.483935 190.949998 
L 136.761893 203.698951 
L 137.039851 203.997421 
L 137.595766 141.105429 
L 137.873724 181.78269 
L 138.151681 197.942734 
L 138.429639 190.907359 
L 138.707597 192.229157 
L 138.985554 203.315203 
L 139.541469 135.306575 
L 139.819427 190.779443 
L 140.097385 195.043307 
L 140.375342 187.11252 
L 140.6533 208.73031 
L 140.931258 212.567787 
L 141.209215 149.888989 
L 141.487173 132.279231 
L 141.765131 196.535659 
L 142.321046 211.309947 
L 142.599004 183.189765 
L 142.876961 199.520364 
L 143.154919 164.215571 
L 143.432877 144.21805 
L 143.710834 152.745778 
L 143.988792 185.939958 
L 144.26675 179.181733 
L 144.544707 175.429533 
L 144.822665 200.458414 
L 145.100623 169.033738 
L 145.37858 162.467387 
L 145.656538 180.972556 
L 145.934496 191.760132 
L 146.212453 160.975035 
L 146.490411 178.755347 
L 147.046326 195.89608 
L 147.324284 170.611367 
L 147.602242 183.829345 
L 147.880199 170.568729 
L 148.158157 172.572745 
L 148.436115 199.776196 
L 148.99203 165.622646 
L 149.269988 138.802943 
L 149.547945 170.440813 
L 149.825903 165.452092 
L 150.103861 152.873694 
L 150.381818 180.460893 
L 150.659776 192.868736 
L 150.937733 184.426286 
L 151.215691 124.646915 
L 151.493649 186.387663 
L 151.771606 181.654774 
L 152.049564 186.856688 
L 152.327522 161.827808 
L 152.605479 201.993405 
L 153.161395 134.539079 
L 153.439352 174.832592 
L 153.71731 152.6605 
L 153.995268 163.981059 
L 154.273225 118.421674 
L 154.551183 44.443636 
L 154.829141 90.791836 
L 155.107098 112.494903 
L 155.385056 164.983067 
L 155.663014 172.615383 
L 155.940971 117.099876 
L 156.218929 156.881726 
L 156.496887 159.86643 
L 156.774844 152.6605 
L 157.052802 180.588809 
L 157.33076 173.254963 
L 157.608717 169.545401 
L 157.886675 153.811744 
L 158.164633 189.500284 
L 158.44259 195.89608 
L 158.720548 183.488236 
L 158.998506 141.659732 
L 159.276463 125.542326 
L 159.554421 153.30008 
L 159.832379 144.260689 
L 160.388294 182.081161 
L 160.666252 180.503531 
L 160.944209 159.184212 
L 161.222167 181.143111 
L 161.500125 194.105257 
L 161.778082 182.038522 
L 162.05604 177.73202 
L 162.333998 191.888048 
L 162.611955 188.349041 
L 162.889913 130.275215 
L 163.445828 174.193013 
L 163.723786 166.240907 
L 164.001743 168.820544 
L 164.557659 150.528569 
L 164.835616 147.842334 
L 165.113574 189.031259 
L 165.391532 184.170454 
L 165.669489 197.260516 
L 165.947447 192.14388 
L 166.225405 201.865489 
L 166.503362 171.293585 
L 166.78132 164.471403 
L 167.059278 182.678102 
L 167.337235 188.945982 
L 167.615193 180.354296 
L 167.893151 156.199507 
L 168.171108 192.612905 
L 168.449066 163.106967 
L 168.727024 167.114999 
L 169.004981 173.169685 
L 169.282939 196.663575 
L 169.560897 174.725996 
L 169.838854 175.173701 
L 170.116812 183.488236 
L 170.39477 179.991868 
L 170.672727 136.671011 
L 171.228643 197.217877 
L 171.5066 211.970846 
L 171.784558 198.795507 
L 172.062516 207.706983 
L 172.340473 191.845409 
L 172.618431 168.692628 
L 172.896389 242.116364 
L 173.174346 195.853441 
L 173.452304 202.313195 
L 173.730262 192.271795 
L 174.008219 211.245989 
L 174.564134 186.686134 
L 174.842092 199.392448 
L 175.12005 194.787475 
L 175.398007 132.96145 
L 175.675965 185.321697 
L 175.953923 205.319219 
L 176.23188 176.623415 
L 176.509838 177.348272 
L 176.787796 191.973325 
L 177.065753 199.733557 
L 177.343711 184.426286 
L 177.621669 202.121321 
L 177.899626 200.373137 
L 178.177584 170.398174 
L 178.455542 166.475419 
L 178.733499 187.837377 
L 179.011457 193.039291 
L 179.289415 186.81405 
L 179.567372 205.063387 
L 179.84533 208.986142 
L 180.123288 168.692628 
L 180.401245 151.807728 
L 180.679203 194.01998 
L 180.957161 186.558218 
L 181.235118 206.257269 
L 181.513076 211.203351 
L 181.791034 197.431071 
L 182.068991 191.461661 
L 182.346949 151.850366 
L 182.624907 166.901806 
L 182.902864 171.080392 
L 183.180822 210.307939 
L 183.45878 199.221893 
L 183.736737 209.114058 
L 184.014695 205.106026 
L 184.292653 177.774658 
L 184.57061 198.880784 
L 184.848568 199.861473 
L 185.126526 207.365873 
L 185.404483 203.229925 
L 185.682441 191.717493 
L 185.960399 156.75381 
L 186.238356 164.556681 
L 186.516314 199.904112 
L 186.794271 206.470462 
L 187.072229 206.811571 
L 187.350187 204.445127 
L 187.628144 215.765685 
L 187.906102 180.802002 
L 188.18406 179.650758 
L 188.462017 194.361089 
L 188.739975 196.023996 
L 189.017933 210.691687 
L 189.29589 192.996652 
L 189.573848 202.547707 
L 189.851806 196.066634 
L 190.129763 186.089193 
L 190.407721 201.652296 
L 190.685679 200.799523 
L 190.963636 202.675623 
L 191.241594 209.924192 
L 191.519552 209.753637 
L 191.797509 207.195319 
L 192.075467 182.187757 
L 192.353425 208.815587 
L 192.90934 203.357841 
L 193.465255 212.525149 
L 193.743213 190.651527 
L 194.021171 139.485161 
L 194.299128 201.950766 
L 194.577086 199.520364 
L 194.855044 207.024764 
L 195.133001 200.842162 
L 195.410959 212.610426 
L 195.688917 186.302386 
L 195.966874 196.493021 
L 196.244832 164.855151 
L 196.52279 204.33853 
L 196.800747 207.046084 
L 197.078705 203.357841 
L 197.356663 206.044076 
L 197.63462 178.499515 
L 197.912578 178.67007 
L 198.190535 201.481741 
L 199.024408 182.464909 
L 199.302366 210.691687 
L 199.580324 195.213861 
L 199.858281 197.1326 
L 200.136239 203.40048 
L 200.414197 207.024764 
L 200.692154 206.086714 
L 200.970112 193.614913 
L 201.24807 212.098762 
L 201.526027 199.051339 
L 201.803985 193.252484 
L 202.081943 193.08193 
L 202.637858 201.567019 
L 202.915816 186.131832 
L 203.193773 200.373137 
L 203.471731 200.287859 
L 203.749689 207.024764 
L 204.027646 206.982126 
L 204.305604 200.159944 
L 204.583562 200.415775 
L 204.861519 205.958798 
L 205.417435 201.865489 
L 205.695392 184.127816 
L 206.251308 210.180024 
L 206.529265 207.79226 
L 206.807223 210.819603 
L 207.085181 169.694636 
L 207.363138 168.991099 
L 207.641096 178.371599 
L 207.919054 199.94675 
L 208.197011 193.977341 
L 208.474969 213.292644 
L 208.752927 201.055355 
L 209.030884 205.617689 
L 209.308842 191.035275 
L 209.5868 200.756884 
L 209.864757 193.337761 
L 210.142715 204.722278 
L 210.420672 205.660328 
L 210.69863 212.695703 
L 210.976588 209.02878 
L 211.254545 209.710999 
L 211.532503 189.329729 
L 211.810461 204.210614 
L 212.366376 216.575819 
L 212.644334 202.803539 
L 212.922291 211.118074 
L 213.200249 187.7521 
L 213.478207 211.587099 
L 213.756164 205.830882 
L 214.034122 212.610426 
L 214.31208 216.106794 
L 214.590037 197.516348 
L 214.867995 206.790252 
L 215.145953 196.450382 
L 215.42391 196.706214 
L 215.701868 180.759363 
L 215.979826 202.121321 
L 216.257783 206.129353 
L 216.535741 184.468925 
L 216.813699 213.633753 
L 217.369614 178.840624 
L 217.647572 164.684596 
L 217.925529 188.178486 
L 218.203487 192.14388 
L 218.481445 194.062618 
L 218.759402 214.102778 
L 219.03736 192.357073 
L 219.315318 186.17447 
L 219.593275 202.334514 
L 219.871233 199.904112 
L 220.427148 213.292644 
L 220.705106 213.591115 
L 220.983064 184.213093 
L 221.261021 185.406975 
L 221.538979 185.151143 
L 221.816936 189.372368 
L 222.094894 208.005453 
L 222.372852 202.846178 
L 222.650809 202.7609 
L 222.928767 200.970078 
L 223.206725 167.370831 
L 223.484682 183.275043 
L 223.76264 173.553433 
L 224.040598 187.837377 
L 224.318555 189.116536 
L 224.596513 204.892832 
L 224.874471 195.427055 
L 225.152428 177.433549 
L 225.430386 188.69015 
L 225.708344 187.027243 
L 225.986301 194.616921 
L 226.264259 193.892064 
L 226.542217 210.819603 
L 226.820174 183.9999 
L 227.098132 192.229157 
L 227.37609 193.3804 
L 227.654047 204.253253 
L 227.932005 198.667591 
L 228.209963 188.818066 
L 228.48792 205.532412 
L 228.765878 171.229627 
L 229.877709 204.850194 
L 230.155666 214.550484 
L 230.433624 203.048711 
L 230.711582 175.557449 
L 230.989539 176.495499 
L 231.267497 202.249237 
L 231.545455 188.263763 
L 231.823412 193.806786 
L 232.10137 190.651527 
L 232.379328 201.908128 
L 232.657285 161.785169 
L 232.935243 174.704676 
L 233.2132 195.512332 
L 233.491158 198.497037 
L 233.769116 198.454398 
L 234.047073 204.935471 
L 234.325031 202.206598 
L 234.880946 136.884204 
L 235.436862 197.345793 
L 235.714819 177.859936 
L 235.992777 205.958798 
L 236.270735 204.466446 
L 236.82665 133.089365 
L 237.104608 192.527627 
L 237.382565 199.605641 
L 237.660523 197.217877 
L 237.938481 192.996652 
L 238.216438 208.687671 
L 238.772354 168.522074 
L 239.050311 191.589577 
L 239.328269 202.718262 
L 239.606227 194.147896 
L 239.884184 191.632216 
L 240.162142 199.904112 
L 240.4401 180.290338 
L 240.718057 175.685365 
L 240.996015 197.601625 
L 241.273973 187.240436 
L 241.829888 204.892832 
L 242.107846 208.218646 
L 242.385803 193.124568 
L 242.663761 147.757057 
L 242.941719 187.965293 
L 243.219676 178.328961 
L 243.497634 188.775427 
L 243.775592 209.66836 
L 244.331507 182.678102 
L 244.609465 142.555143 
L 244.887422 196.919407 
L 245.16538 201.950766 
L 245.443337 185.193781 
L 245.721295 203.762908 
L 245.999253 194.659559 
L 246.27721 176.367583 
L 246.555168 172.231635 
L 246.833126 198.795507 
L 247.111083 191.333745 
L 247.389041 190.267779 
L 247.666999 206.21463 
L 247.944956 205.106026 
L 248.222914 178.371599 
L 248.500872 166.390142 
L 248.778829 192.484989 
L 249.056787 193.465677 
L 249.334745 189.287091 
L 249.612702 201.140632 
L 249.89066 197.985373 
L 250.168618 164.002378 
L 250.446575 178.883263 
L 250.724533 162.424749 
L 251.280448 195.597609 
L 251.558406 176.452861 
L 251.836364 182.1238 
L 252.114321 146.477898 
L 252.392279 171.592056 
L 252.670237 186.387663 
L 252.948194 169.843872 
L 253.226152 190.86472 
L 253.50411 186.899327 
L 253.782067 197.516348 
L 254.060025 151.466619 
L 254.337983 145.539848 
L 254.61594 150.741762 
L 254.893898 136.287263 
L 255.171856 171.890526 
L 255.449813 180.034506 
L 255.727771 133.814222 
L 256.005729 150.827039 
L 256.283686 99.532757 
L 256.561644 107.847292 
L 257.117559 181.612136 
L 257.395517 165.324176 
L 257.673474 186.81405 
L 258.22939 140.849598 
L 258.507347 144.345966 
L 258.785305 166.390142 
L 259.063263 171.592056 
L 259.34122 155.517289 
L 259.619178 177.774658 
L 259.897136 178.03049 
L 260.175093 133.686306 
L 260.731009 178.755347 
L 261.008966 164.087656 
L 261.286924 170.184981 
L 261.564882 186.046554 
L 261.842839 172.40219 
L 262.120797 141.531816 
L 262.398755 181.526859 
L 262.676712 182.976572 
L 262.95467 191.461661 
L 263.232628 183.616152 
L 263.510585 197.217877 
L 263.788543 148.652468 
L 264.066501 131.469097 
L 264.344458 195.938718 
L 264.622416 185.492252 
L 264.900374 188.732788 
L 265.178331 188.178486 
L 265.456289 197.814818 
L 265.734247 182.933934 
L 266.012204 146.648452 
L 266.290162 149.249409 
L 266.56812 190.395695 
L 266.846077 204.33853 
L 267.124035 201.481741 
L 267.401993 195.128584 
L 267.67995 170.227619 
L 267.957908 177.518827 
L 268.235866 194.531643 
L 268.513823 194.574282 
L 268.791781 185.321697 
L 269.069738 195.2565 
L 269.347696 195.427055 
L 269.625654 183.488236 
L 269.903611 161.955724 
L 270.181569 163.106967 
L 270.459527 208.303923 
L 270.737484 180.162422 
L 271.015442 195.000668 
L 271.2934 198.198566 
L 271.571357 204.807555 
L 271.849315 141.4039 
L 272.127273 163.95974 
L 272.40523 198.07065 
L 272.683188 199.051339 
L 272.961146 202.419791 
L 273.239103 192.826098 
L 273.517061 192.14388 
L 273.795019 171.933165 
L 274.072976 189.287091 
L 274.350934 183.402959 
L 274.628892 190.651527 
L 274.906849 177.007163 
L 275.184807 197.601625 
L 275.462765 198.624953 
L 275.740722 180.972556 
L 276.01868 194.31845 
L 276.296638 179.650758 
L 276.574595 195.512332 
L 276.852553 201.737573 
L 277.130511 202.974094 
L 277.408468 205.106026 
L 277.686426 148.865662 
L 277.964384 194.361089 
L 278.242341 190.608889 
L 278.520299 194.93671 
L 278.798257 197.260516 
L 279.076214 209.66836 
L 279.354172 168.074368 
L 279.63213 188.604873 
L 279.910087 178.712708 
L 280.466002 198.326482 
L 280.74396 187.7521 
L 281.021918 196.83413 
L 281.299875 196.237189 
L 281.577833 140.679043 
L 281.855791 194.105257 
L 282.133748 185.364336 
L 282.411706 186.515579 
L 282.689664 205.745605 
L 282.967621 201.82285 
L 283.245579 200.756884 
L 283.523537 191.120552 
L 283.801494 206.044076 
L 284.079452 196.706214 
L 284.35741 154.749794 
L 284.635367 199.520364 
L 284.913325 180.119784 
L 285.191283 199.64828 
L 285.46924 181.654774 
L 285.747198 181.697413 
L 286.025156 208.346562 
L 286.303113 184.127816 
L 286.581071 191.248468 
L 286.859029 157.862414 
L 287.136986 161.401421 
L 287.414944 169.460124 
L 287.970859 201.183271 
L 288.248817 204.807555 
L 288.526775 198.71023 
L 288.804732 205.020748 
L 289.08269 189.756116 
L 289.360648 153.683828 
L 289.638605 200.714246 
L 289.916563 204.850194 
L 290.194521 199.861473 
L 290.472478 207.706983 
L 290.750436 208.474478 
L 291.028394 188.647511 
L 291.306351 186.728772 
L 291.584309 192.570266 
L 291.862267 206.257269 
L 292.140224 202.206598 
L 292.418182 207.15268 
L 292.696139 209.071419 
L 292.974097 203.40048 
L 293.252055 165.409453 
L 293.530012 200.543691 
L 293.80797 199.221893 
L 294.363885 204.892832 
L 294.641843 203.741589 
L 294.919801 211.075435 
L 295.475716 156.199507 
L 295.753674 189.884032 
L 296.031631 186.302386 
L 296.309589 203.656312 
L 296.587547 207.408512 
L 296.865504 207.877537 
L 297.143462 205.27658 
L 297.42142 194.616921 
L 297.699377 197.857457 
L 297.977335 210.052108 
L 298.255293 209.199335 
L 298.53325 216.447903 
L 298.811208 205.063387 
L 299.089166 179.352288 
L 299.645081 213.12209 
L 299.923039 207.79226 
L 300.200996 197.431071 
L 300.756912 220.328019 
L 301.034869 206.427823 
L 301.312827 199.776196 
L 301.590785 201.396464 
L 301.868742 205.489773 
L 302.1467 220.221423 
L 302.702615 205.89484 
L 302.980573 197.729541 
L 303.258531 202.974094 
L 303.536488 198.497037 
L 303.814446 210.60641 
L 304.092403 184.042538 
L 304.370361 198.752868 
L 304.648319 193.764148 
L 304.926276 168.394158 
L 305.204234 199.861473 
L 305.482192 204.807555 
L 305.760149 212.610426 
L 306.038107 209.881553 
L 306.316065 210.819603 
L 306.594022 197.942734 
L 306.87198 175.728004 
L 307.149938 209.96683 
L 307.427895 195.384416 
L 307.705853 209.284612 
L 307.983811 210.052108 
L 308.261768 215.339299 
L 308.539726 186.899327 
L 308.817684 195.810802 
L 309.095641 197.004684 
L 309.373599 203.144648 
L 309.651557 197.004684 
L 310.207472 213.846946 
L 310.48543 216.23471 
L 310.763387 204.381169 
L 311.041345 208.133369 
L 311.319303 202.121321 
L 311.875218 213.036812 
L 312.153176 217.471231 
L 312.431133 184.682118 
L 312.709091 189.031259 
L 312.987049 207.237957 
L 313.265006 205.106026 
L 313.542964 211.331267 
L 313.820922 189.969309 
L 314.376837 197.431071 
L 314.654795 178.158406 
L 314.932752 185.662806 
L 315.21071 163.917101 
L 315.488667 205.447135 
L 315.766625 216.490542 
L 316.044583 214.614442 
L 316.32254 202.632985 
L 316.600498 203.528396 
L 316.878456 190.992636 
L 317.434371 205.447135 
L 317.712329 202.078682 
L 317.990286 212.013485 
L 318.268244 177.305633 
L 318.546202 189.841393 
L 318.824159 189.841393 
L 319.102117 197.601625 
L 319.380075 210.350578 
L 319.658032 198.966062 
L 319.93599 210.734326 
L 320.491905 172.999131 
L 320.769863 203.656312 
L 321.047821 194.062618 
L 321.325778 188.860704 
L 321.881694 213.804308 
L 322.159651 210.435855 
L 322.715567 168.94846 
L 322.993524 204.295891 
L 323.271482 206.129353 
L 323.54944 194.31845 
L 323.827397 205.063387 
L 324.383313 180.183741 
L 324.66127 184.554202 
L 324.939228 186.984604 
L 325.495143 195.981357 
L 325.773101 209.284612 
L 326.051059 212.48251 
L 326.329016 196.663575 
L 326.606974 167.157637 
L 326.884932 175.813281 
L 327.162889 193.892064 
L 327.440847 187.368352 
L 327.718804 200.970078 
L 327.996762 167.541385 
L 328.27472 172.785938 
L 328.552677 200.842162 
L 328.830635 191.333745 
L 329.108593 194.01998 
L 329.664508 207.834898 
L 329.942466 185.705445 
L 330.220423 138.206002 
L 330.498381 200.756884 
L 330.776339 197.217877 
L 331.054296 202.036044 
L 331.332254 197.388432 
L 331.610212 200.159944 
L 331.888169 191.035275 
L 332.166127 171.208308 
L 332.444085 200.458414 
L 332.722042 205.319219 
L 333 193.892064 
L 333.277958 204.892832 
L 333.555915 200.58633 
L 333.833873 153.641189 
L 334.111831 156.75381 
L 334.389788 195.299139 
L 334.667746 193.593593 
L 334.945704 204.082698 
L 335.223661 194.105257 
L 335.501619 197.047323 
L 335.779577 165.409453 
L 336.057534 150.528569 
L 336.61345 187.666822 
L 336.891407 197.217877 
L 337.169365 197.1326 
L 337.447323 202.377153 
L 337.72528 163.02169 
L 338.003238 156.711171 
L 338.281196 181.995884 
L 338.559153 180.929918 
L 338.837111 188.604873 
L 339.115068 183.65879 
L 339.393026 196.663575 
L 339.670984 180.375615 
L 340.226899 176.324945 
L 340.504857 195.682887 
L 340.782814 190.822082 
L 341.060772 192.868736 
L 341.33873 198.838146 
L 341.616687 189.884032 
L 341.894645 187.410991 
L 342.172603 183.530875 
L 342.45056 207.579067 
L 342.728518 181.995884 
L 343.006476 179.437565 
L 343.284433 199.904112 
L 343.562391 179.863952 
L 343.840349 167.882494 
L 344.118306 188.903343 
L 344.396264 185.23642 
L 344.952179 199.200574 
L 345.230137 203.485757 
L 345.508095 160.975035 
L 345.786052 168.394158 
L 346.06401 157.777137 
L 347.175841 192.101241 
L 347.731756 148.226082 
L 348.009714 174.832592 
L 348.287671 185.364336 
L 348.565629 188.391679 
L 348.843587 189.756116 
L 349.121544 198.155928 
L 349.399502 145.411932 
L 349.67746 145.1561 
L 349.955417 189.116536 
L 350.233375 196.535659 
L 350.511333 170.057065 
L 350.78929 175.258979 
L 351.067248 200.842162 
L 351.345205 152.916332 
L 351.623163 125.627604 
L 351.901121 169.289569 
L 352.179078 186.941966 
L 352.457036 183.97858 
L 353.012951 205.830882 
L 353.290909 189.201813 
L 353.568867 137.097397 
L 353.846824 183.914622 
L 354.124782 179.053818 
L 354.40274 206.939487 
L 354.680697 177.049802 
L 354.958655 171.847888 
L 355.236613 150.059543 
L 355.51457 158.715187 
L 355.792528 172.70066 
L 356.070486 165.068344 
L 356.348443 149.334687 
L 356.904359 171.46414 
L 357.182316 133.302559 
L 357.460274 115.778078 
L 357.738232 80.601202 
L 358.294147 162.765858 
L 358.572105 156.370062 
L 358.850062 144.985546 
L 359.12802 152.703139 
L 359.405978 164.087656 
L 359.683935 140.039463 
L 359.961893 173.809265 
L 360.239851 172.487467 
L 360.517808 188.945982 
L 360.795766 195.341777 
L 361.073724 171.677333 
L 361.351681 132.705618 
L 361.629639 194.830114 
L 361.907597 195.640248 
L 362.185554 179.949229 
L 362.463512 188.306402 
L 362.741469 181.015195 
L 363.019427 162.637942 
L 363.297385 177.859936 
L 363.575342 176.708692 
L 363.8533 187.624184 
L 364.131258 178.243683 
L 364.409215 177.604104 
L 364.687173 195.89608 
L 364.965131 182.336993 
L 365.243088 162.38211 
L 365.521046 193.465677 
L 366.076961 172.444829 
L 366.354919 183.957261 
L 366.632877 184.93795 
L 366.910834 196.748852 
L 367.188792 173.723988 
L 367.46675 187.368352 
L 367.744707 192.698182 
L 368.022665 192.357073 
L 368.57858 196.706214 
L 368.856538 188.221125 
L 369.134496 147.373309 
L 369.412453 188.775427 
L 369.968369 196.279827 
L 370.246326 180.674086 
L 370.524284 198.880784 
L 370.802242 174.704676 
L 371.080199 180.674086 
L 371.358157 153.385357 
L 371.636115 203.10201 
L 371.914072 186.941966 
L 372.19203 179.011179 
L 372.469988 199.221893 
L 372.747945 174.27829 
L 373.025903 172.359551 
L 373.303861 191.589577 
L 373.581818 190.097225 
L 373.581818 190.097225 
" style="fill:none;stroke:#000000;stroke-linecap:square;stroke-width:1.5;"/>
   </g>
   <g id="patch_3">
    <path d="M 54 252 
L 54 34.56 
" style="fill:none;stroke:#000000;stroke-linecap:square;stroke-linejoin:miter;stroke-width:0.8;"/>
   </g>
   <g id="patch_4">
    <path d="M 388.8 252 
L 388.8 34.56 
" style="fill:none;stroke:#000000;stroke-linecap:square;stroke-linejoin:miter;stroke-width:0.8;"/>
   </g>
   <g id="patch_5">
    <path d="M 54 252 
L 388.8 252 
" style="fill:none;stroke:#000000;stroke-linecap:square;stroke-linejoin:miter;stroke-width:0.8;"/>
   </g>
   <g id="patch_6">
    <path d="M 54 34.56 
L 388.8 34.56 
" style="fill:none;stroke:#000000;stroke-linecap:square;stroke-linejoin:miter;stroke-width:0.8;"/>
   </g>
   <g id="text_16">
    <!-- Soma Diária de Energia - Casa 11 -->
    <g transform="translate(120.413438 28.56)scale(0.12 -0.12)">
     <defs>
      <path d="M 53.515625 70.515625 
L 53.515625 60.890625 
Q 47.90625 63.578125 42.921875 64.890625 
Q 37.9375 66.21875 33.296875 66.21875 
Q 25.25 66.21875 20.875 63.09375 
Q 16.5 59.96875 16.5 54.203125 
Q 16.5 49.359375 19.40625 46.890625 
Q 22.3125 44.4375 30.421875 42.921875 
L 36.375 41.703125 
Q 47.40625 39.59375 52.65625 34.296875 
Q 57.90625 29 57.90625 20.125 
Q 57.90625 9.515625 50.796875 4.046875 
Q 43.703125 -1.421875 29.984375 -1.421875 
Q 24.8125 -1.421875 18.96875 -0.25 
Q 13.140625 0.921875 6.890625 3.21875 
L 6.890625 13.375 
Q 12.890625 10.015625 18.65625 8.296875 
Q 24.421875 6.59375 29.984375 6.59375 
Q 38.421875 6.59375 43.015625 9.90625 
Q 47.609375 13.234375 47.609375 19.390625 
Q 47.609375 24.75 44.3125 27.78125 
Q 41.015625 30.8125 33.5 32.328125 
L 27.484375 33.5 
Q 16.453125 35.6875 11.515625 40.375 
Q 6.59375 45.0625 6.59375 53.421875 
Q 6.59375 63.09375 13.40625 68.65625 
Q 20.21875 74.21875 32.171875 74.21875 
Q 37.3125 74.21875 42.625 73.28125 
Q 47.953125 72.359375 53.515625 70.515625 
z
" id="DejaVuSans-83"/>
      <path d="M 30.609375 48.390625 
Q 23.390625 48.390625 19.1875 42.75 
Q 14.984375 37.109375 14.984375 27.296875 
Q 14.984375 17.484375 19.15625 11.84375 
Q 23.34375 6.203125 30.609375 6.203125 
Q 37.796875 6.203125 41.984375 11.859375 
Q 46.1875 17.53125 46.1875 27.296875 
Q 46.1875 37.015625 41.984375 42.703125 
Q 37.796875 48.390625 30.609375 48.390625 
z
M 30.609375 56 
Q 42.328125 56 49.015625 48.375 
Q 55.71875 40.765625 55.71875 27.296875 
Q 55.71875 13.875 49.015625 6.21875 
Q 42.328125 -1.421875 30.609375 -1.421875 
Q 18.84375 -1.421875 12.171875 6.21875 
Q 5.515625 13.875 5.515625 27.296875 
Q 5.515625 40.765625 12.171875 48.375 
Q 18.84375 56 30.609375 56 
z
" id="DejaVuSans-111"/>
      <path d="M 52 44.1875 
Q 55.375 50.25 60.0625 53.125 
Q 64.75 56 71.09375 56 
Q 79.640625 56 84.28125 50.015625 
Q 88.921875 44.046875 88.921875 33.015625 
L 88.921875 0 
L 79.890625 0 
L 79.890625 32.71875 
Q 79.890625 40.578125 77.09375 44.375 
Q 74.3125 48.1875 68.609375 48.1875 
Q 61.625 48.1875 57.5625 43.546875 
Q 53.515625 38.921875 53.515625 30.90625 
L 53.515625 0 
L 44.484375 0 
L 44.484375 32.71875 
Q 44.484375 40.625 41.703125 44.40625 
Q 38.921875 48.1875 33.109375 48.1875 
Q 26.21875 48.1875 22.15625 43.53125 
Q 18.109375 38.875 18.109375 30.90625 
L 18.109375 0 
L 9.078125 0 
L 9.078125 54.6875 
L 18.109375 54.6875 
L 18.109375 46.1875 
Q 21.1875 51.21875 25.484375 53.609375 
Q 29.78125 56 35.6875 56 
Q 41.65625 56 45.828125 52.96875 
Q 50 49.953125 52 44.1875 
z
" id="DejaVuSans-109"/>
      <path d="M 34.28125 27.484375 
Q 23.390625 27.484375 19.1875 25 
Q 14.984375 22.515625 14.984375 16.5 
Q 14.984375 11.71875 18.140625 8.90625 
Q 21.296875 6.109375 26.703125 6.109375 
Q 34.1875 6.109375 38.703125 11.40625 
Q 43.21875 16.703125 43.21875 25.484375 
L 43.21875 27.484375 
z
M 52.203125 31.203125 
L 52.203125 0 
L 43.21875 0 
L 43.21875 8.296875 
Q 40.140625 3.328125 35.546875 0.953125 
Q 30.953125 -1.421875 24.3125 -1.421875 
Q 15.921875 -1.421875 10.953125 3.296875 
Q 6 8.015625 6 15.921875 
Q 6 25.140625 12.171875 29.828125 
Q 18.359375 34.515625 30.609375 34.515625 
L 43.21875 34.515625 
L 43.21875 35.40625 
Q 43.21875 41.609375 39.140625 45 
Q 35.0625 48.390625 27.6875 48.390625 
Q 23 48.390625 18.546875 47.265625 
Q 14.109375 46.140625 10.015625 43.890625 
L 10.015625 52.203125 
Q 14.9375 54.109375 19.578125 55.046875 
Q 24.21875 56 28.609375 56 
Q 40.484375 56 46.34375 49.84375 
Q 52.203125 43.703125 52.203125 31.203125 
z
" id="DejaVuSans-97"/>
      <path id="DejaVuSans-32"/>
      <path d="M 19.671875 64.796875 
L 19.671875 8.109375 
L 31.59375 8.109375 
Q 46.6875 8.109375 53.6875 14.9375 
Q 60.6875 21.78125 60.6875 36.53125 
Q 60.6875 51.171875 53.6875 57.984375 
Q 46.6875 64.796875 31.59375 64.796875 
z
M 9.8125 72.90625 
L 30.078125 72.90625 
Q 51.265625 72.90625 61.171875 64.09375 
Q 71.09375 55.28125 71.09375 36.53125 
Q 71.09375 17.671875 61.125 8.828125 
Q 51.171875 0 30.078125 0 
L 9.8125 0 
z
" id="DejaVuSans-68"/>
      <path d="M 9.421875 54.6875 
L 18.40625 54.6875 
L 18.40625 0 
L 9.421875 0 
z
M 9.421875 75.984375 
L 18.40625 75.984375 
L 18.40625 64.59375 
L 9.421875 64.59375 
z
" id="DejaVuSans-105"/>
      <path d="M 34.28125 27.484375 
Q 23.390625 27.484375 19.1875 25 
Q 14.984375 22.515625 14.984375 16.5 
Q 14.984375 11.71875 18.140625 8.90625 
Q 21.296875 6.109375 26.703125 6.109375 
Q 34.1875 6.109375 38.703125 11.40625 
Q 43.21875 16.703125 43.21875 25.484375 
L 43.21875 27.484375 
z
M 52.203125 31.203125 
L 52.203125 0 
L 43.21875 0 
L 43.21875 8.296875 
Q 40.140625 3.328125 35.546875 0.953125 
Q 30.953125 -1.421875 24.3125 -1.421875 
Q 15.921875 -1.421875 10.953125 3.296875 
Q 6 8.015625 6 15.921875 
Q 6 25.140625 12.171875 29.828125 
Q 18.359375 34.515625 30.609375 34.515625 
L 43.21875 34.515625 
L 43.21875 35.40625 
Q 43.21875 41.609375 39.140625 45 
Q 35.0625 48.390625 27.6875 48.390625 
Q 23 48.390625 18.546875 47.265625 
Q 14.109375 46.140625 10.015625 43.890625 
L 10.015625 52.203125 
Q 14.9375 54.109375 19.578125 55.046875 
Q 24.21875 56 28.609375 56 
Q 40.484375 56 46.34375 49.84375 
Q 52.203125 43.703125 52.203125 31.203125 
z
M 35.796875 79.984375 
L 45.515625 79.984375 
L 29.59375 61.625 
L 22.125 61.625 
z
" id="DejaVuSans-225"/>
      <path d="M 41.109375 46.296875 
Q 39.59375 47.171875 37.8125 47.578125 
Q 36.03125 48 33.890625 48 
Q 26.265625 48 22.1875 43.046875 
Q 18.109375 38.09375 18.109375 28.8125 
L 18.109375 0 
L 9.078125 0 
L 9.078125 54.6875 
L 18.109375 54.6875 
L 18.109375 46.1875 
Q 20.953125 51.171875 25.484375 53.578125 
Q 30.03125 56 36.53125 56 
Q 37.453125 56 38.578125 55.875 
Q 39.703125 55.765625 41.0625 55.515625 
z
" id="DejaVuSans-114"/>
      <path d="M 45.40625 46.390625 
L 45.40625 75.984375 
L 54.390625 75.984375 
L 54.390625 0 
L 45.40625 0 
L 45.40625 8.203125 
Q 42.578125 3.328125 38.25 0.953125 
Q 33.9375 -1.421875 27.875 -1.421875 
Q 17.96875 -1.421875 11.734375 6.484375 
Q 5.515625 14.40625 5.515625 27.296875 
Q 5.515625 40.1875 11.734375 48.09375 
Q 17.96875 56 27.875 56 
Q 33.9375 56 38.25 53.625 
Q 42.578125 51.265625 45.40625 46.390625 
z
M 14.796875 27.296875 
Q 14.796875 17.390625 18.875 11.75 
Q 22.953125 6.109375 30.078125 6.109375 
Q 37.203125 6.109375 41.296875 11.75 
Q 45.40625 17.390625 45.40625 27.296875 
Q 45.40625 37.203125 41.296875 42.84375 
Q 37.203125 48.484375 30.078125 48.484375 
Q 22.953125 48.484375 18.875 42.84375 
Q 14.796875 37.203125 14.796875 27.296875 
z
" id="DejaVuSans-100"/>
      <path d="M 56.203125 29.59375 
L 56.203125 25.203125 
L 14.890625 25.203125 
Q 15.484375 15.921875 20.484375 11.0625 
Q 25.484375 6.203125 34.421875 6.203125 
Q 39.59375 6.203125 44.453125 7.46875 
Q 49.3125 8.734375 54.109375 11.28125 
L 54.109375 2.78125 
Q 49.265625 0.734375 44.1875 -0.34375 
Q 39.109375 -1.421875 33.890625 -1.421875 
Q 20.796875 -1.421875 13.15625 6.1875 
Q 5.515625 13.8125 5.515625 26.8125 
Q 5.515625 40.234375 12.765625 48.109375 
Q 20.015625 56 32.328125 56 
Q 43.359375 56 49.78125 48.890625 
Q 56.203125 41.796875 56.203125 29.59375 
z
M 47.21875 32.234375 
Q 47.125 39.59375 43.09375 43.984375 
Q 39.0625 48.390625 32.421875 48.390625 
Q 24.90625 48.390625 20.390625 44.140625 
Q 15.875 39.890625 15.1875 32.171875 
z
" id="DejaVuSans-101"/>
      <path d="M 9.8125 72.90625 
L 55.90625 72.90625 
L 55.90625 64.59375 
L 19.671875 64.59375 
L 19.671875 43.015625 
L 54.390625 43.015625 
L 54.390625 34.71875 
L 19.671875 34.71875 
L 19.671875 8.296875 
L 56.78125 8.296875 
L 56.78125 0 
L 9.8125 0 
z
" id="DejaVuSans-69"/>
      <path d="M 54.890625 33.015625 
L 54.890625 0 
L 45.90625 0 
L 45.90625 32.71875 
Q 45.90625 40.484375 42.875 44.328125 
Q 39.84375 48.1875 33.796875 48.1875 
Q 26.515625 48.1875 22.3125 43.546875 
Q 18.109375 38.921875 18.109375 30.90625 
L 18.109375 0 
L 9.078125 0 
L 9.078125 54.6875 
L 18.109375 54.6875 
L 18.109375 46.1875 
Q 21.34375 51.125 25.703125 53.5625 
Q 30.078125 56 35.796875 56 
Q 45.21875 56 50.046875 50.171875 
Q 54.890625 44.34375 54.890625 33.015625 
z
" id="DejaVuSans-110"/>
      <path d="M 45.40625 27.984375 
Q 45.40625 37.75 41.375 43.109375 
Q 37.359375 48.484375 30.078125 48.484375 
Q 22.859375 48.484375 18.828125 43.109375 
Q 14.796875 37.75 14.796875 27.984375 
Q 14.796875 18.265625 18.828125 12.890625 
Q 22.859375 7.515625 30.078125 7.515625 
Q 37.359375 7.515625 41.375 12.890625 
Q 45.40625 18.265625 45.40625 27.984375 
z
M 54.390625 6.78125 
Q 54.390625 -7.171875 48.1875 -13.984375 
Q 42 -20.796875 29.203125 -20.796875 
Q 24.46875 -20.796875 20.265625 -20.09375 
Q 16.0625 -19.390625 12.109375 -17.921875 
L 12.109375 -9.1875 
Q 16.0625 -11.328125 19.921875 -12.34375 
Q 23.78125 -13.375 27.78125 -13.375 
Q 36.625 -13.375 41.015625 -8.765625 
Q 45.40625 -4.15625 45.40625 5.171875 
L 45.40625 9.625 
Q 42.625 4.78125 38.28125 2.390625 
Q 33.9375 0 27.875 0 
Q 17.828125 0 11.671875 7.65625 
Q 5.515625 15.328125 5.515625 27.984375 
Q 5.515625 40.671875 11.671875 48.328125 
Q 17.828125 56 27.875 56 
Q 33.9375 56 38.28125 53.609375 
Q 42.625 51.21875 45.40625 46.390625 
L 45.40625 54.6875 
L 54.390625 54.6875 
z
" id="DejaVuSans-103"/>
      <path d="M 64.40625 67.28125 
L 64.40625 56.890625 
Q 59.421875 61.53125 53.78125 63.8125 
Q 48.140625 66.109375 41.796875 66.109375 
Q 29.296875 66.109375 22.65625 58.46875 
Q 16.015625 50.828125 16.015625 36.375 
Q 16.015625 21.96875 22.65625 14.328125 
Q 29.296875 6.6875 41.796875 6.6875 
Q 48.140625 6.6875 53.78125 8.984375 
Q 59.421875 11.28125 64.40625 15.921875 
L 64.40625 5.609375 
Q 59.234375 2.09375 53.4375 0.328125 
Q 47.65625 -1.421875 41.21875 -1.421875 
Q 24.65625 -1.421875 15.125 8.703125 
Q 5.609375 18.84375 5.609375 36.375 
Q 5.609375 53.953125 15.125 64.078125 
Q 24.65625 74.21875 41.21875 74.21875 
Q 47.75 74.21875 53.53125 72.484375 
Q 59.328125 70.75 64.40625 67.28125 
z
" id="DejaVuSans-67"/>
      <path d="M 44.28125 53.078125 
L 44.28125 44.578125 
Q 40.484375 46.53125 36.375 47.5 
Q 32.28125 48.484375 27.875 48.484375 
Q 21.1875 48.484375 17.84375 46.4375 
Q 14.5 44.390625 14.5 40.28125 
Q 14.5 37.15625 16.890625 35.375 
Q 19.28125 33.59375 26.515625 31.984375 
L 29.59375 31.296875 
Q 39.15625 29.25 43.1875 25.515625 
Q 47.21875 21.78125 47.21875 15.09375 
Q 47.21875 7.46875 41.1875 3.015625 
Q 35.15625 -1.421875 24.609375 -1.421875 
Q 20.21875 -1.421875 15.453125 -0.5625 
Q 10.6875 0.296875 5.421875 2 
L 5.421875 11.28125 
Q 10.40625 8.6875 15.234375 7.390625 
Q 20.0625 6.109375 24.8125 6.109375 
Q 31.15625 6.109375 34.5625 8.28125 
Q 37.984375 10.453125 37.984375 14.40625 
Q 37.984375 18.0625 35.515625 20.015625 
Q 33.0625 21.96875 24.703125 23.78125 
L 21.578125 24.515625 
Q 13.234375 26.265625 9.515625 29.90625 
Q 5.8125 33.546875 5.8125 39.890625 
Q 5.8125 47.609375 11.28125 51.796875 
Q 16.75 56 26.8125 56 
Q 31.78125 56 36.171875 55.265625 
Q 40.578125 54.546875 44.28125 53.078125 
z
" id="DejaVuSans-115"/>
     </defs>
     <use xlink:href="#DejaVuSans-83"/>
     <use x="63.476562" xlink:href="#DejaVuSans-111"/>
     <use x="124.658203" xlink:href="#DejaVuSans-109"/>
     <use x="222.070312" xlink:href="#DejaVuSans-97"/>
     <use x="283.349609" xlink:href="#DejaVuSans-32"/>
     <use x="315.136719" xlink:href="#DejaVuSans-68"/>
     <use x="392.138672" xlink:href="#DejaVuSans-105"/>
     <use x="419.921875" xlink:href="#DejaVuSans-225"/>
     <use x="481.201172" xlink:href="#DejaVuSans-114"/>
     <use x="522.314453" xlink:href="#DejaVuSans-105"/>
     <use x="550.097656" xlink:href="#DejaVuSans-97"/>
     <use x="611.376953" xlink:href="#DejaVuSans-32"/>
     <use x="643.164062" xlink:href="#DejaVuSans-100"/>
     <use x="706.640625" xlink:href="#DejaVuSans-101"/>
     <use x="768.164062" xlink:href="#DejaVuSans-32"/>
     <use x="799.951172" xlink:href="#DejaVuSans-69"/>
     <use x="863.134766" xlink:href="#DejaVuSans-110"/>
     <use x="926.513672" xlink:href="#DejaVuSans-101"/>
     <use x="988.037109" xlink:href="#DejaVuSans-114"/>
     <use x="1027.400391" xlink:href="#DejaVuSans-103"/>
     <use x="1090.876953" xlink:href="#DejaVuSans-105"/>
     <use x="1118.660156" xlink:href="#DejaVuSans-97"/>
     <use x="1179.939453" xlink:href="#DejaVuSans-32"/>
     <use x="1211.726562" xlink:href="#DejaVuSans-45"/>
     <use x="1247.810547" xlink:href="#DejaVuSans-32"/>
     <use x="1279.597656" xlink:href="#DejaVuSans-67"/>
     <use x="1349.421875" xlink:href="#DejaVuSans-97"/>
     <use x="1410.701172" xlink:href="#DejaVuSans-115"/>
     <use x="1462.800781" xlink:href="#DejaVuSans-97"/>
     <use x="1524.080078" xlink:href="#DejaVuSans-32"/>
     <use x="1555.867188" xlink:href="#DejaVuSans-49"/>
     <use x="1619.490234" xlink:href="#DejaVuSans-49"/>
    </g>
   </g>
  </g>
 </g>
 <defs>
  <clipPath id="p5b664b971e">
   <rect height="217.44" width="334.8" x="54" y="34.56"/>
  </clipPath>
 </defs>
</svg>
