<?xml version="1.0" encoding="utf-8" standalone="no"?>
<!DOCTYPE svg PUBLIC "-//W3C//DTD SVG 1.1//EN"
  "http://www.w3.org/Graphics/SVG/1.1/DTD/svg11.dtd">
<!-- Created with matplotlib (https://matplotlib.org/) -->
<svg height="720pt" version="1.1" viewBox="0 0 1080 720" width="1080pt" xmlns="http://www.w3.org/2000/svg" xmlns:xlink="http://www.w3.org/1999/xlink">
 <metadata>
  <rdf:RDF xmlns:cc="http://creativecommons.org/ns#" xmlns:dc="http://purl.org/dc/elements/1.1/" xmlns:rdf="http://www.w3.org/1999/02/22-rdf-syntax-ns#">
   <cc:Work>
    <dc:type rdf:resource="http://purl.org/dc/dcmitype/StillImage"/>
    <dc:date>2021-07-21T11:41:56.563756</dc:date>
    <dc:format>image/svg+xml</dc:format>
    <dc:creator>
     <cc:Agent>
      <dc:title>Matplotlib v3.3.4, https://matplotlib.org/</dc:title>
     </cc:Agent>
    </dc:creator>
   </cc:Work>
  </rdf:RDF>
 </metadata>
 <defs>
  <style type="text/css">*{stroke-linecap:butt;stroke-linejoin:round;}</style>
 </defs>
 <g id="figure_1">
  <g id="patch_1">
   <path d="M 0 720 
L 1080 720 
L 1080 0 
L 0 0 
z
" style="fill:#ffffff;"/>
  </g>
  <g id="axes_1">
   <g id="patch_2">
    <path d="M 135 630 
L 972 630 
L 972 86.4 
L 135 86.4 
z
" style="fill:#ffffff;"/>
   </g>
   <g id="matplotlib.axis_1">
    <g id="xtick_1">
     <g id="line2d_1">
      <defs>
       <path d="M 0 0 
L 0 3.5 
" id="m830358c614" style="stroke:#000000;stroke-width:0.8;"/>
      </defs>
      <g>
       <use style="stroke:#000000;stroke-width:0.8;" x="173.045455" xlink:href="#m830358c614" y="630"/>
      </g>
     </g>
     <g id="text_1">
      <!-- 0 -->
      <g transform="translate(169.864205 644.598438)scale(0.1 -0.1)">
       <defs>
        <path d="M 31.78125 66.40625 
Q 24.171875 66.40625 20.328125 58.90625 
Q 16.5 51.421875 16.5 36.375 
Q 16.5 21.390625 20.328125 13.890625 
Q 24.171875 6.390625 31.78125 6.390625 
Q 39.453125 6.390625 43.28125 13.890625 
Q 47.125 21.390625 47.125 36.375 
Q 47.125 51.421875 43.28125 58.90625 
Q 39.453125 66.40625 31.78125 66.40625 
z
M 31.78125 74.21875 
Q 44.046875 74.21875 50.515625 64.515625 
Q 56.984375 54.828125 56.984375 36.375 
Q 56.984375 17.96875 50.515625 8.265625 
Q 44.046875 -1.421875 31.78125 -1.421875 
Q 19.53125 -1.421875 13.0625 8.265625 
Q 6.59375 17.96875 6.59375 36.375 
Q 6.59375 54.828125 13.0625 64.515625 
Q 19.53125 74.21875 31.78125 74.21875 
z
" id="DejaVuSans-48"/>
       </defs>
       <use xlink:href="#DejaVuSans-48"/>
      </g>
     </g>
    </g>
    <g id="xtick_2">
     <g id="line2d_2">
      <g>
       <use style="stroke:#000000;stroke-width:0.8;" x="355.342793" xlink:href="#m830358c614" y="630"/>
      </g>
     </g>
     <g id="text_2">
      <!-- 1000 -->
      <g transform="translate(342.617793 644.598438)scale(0.1 -0.1)">
       <defs>
        <path d="M 12.40625 8.296875 
L 28.515625 8.296875 
L 28.515625 63.921875 
L 10.984375 60.40625 
L 10.984375 69.390625 
L 28.421875 72.90625 
L 38.28125 72.90625 
L 38.28125 8.296875 
L 54.390625 8.296875 
L 54.390625 0 
L 12.40625 0 
z
" id="DejaVuSans-49"/>
       </defs>
       <use xlink:href="#DejaVuSans-49"/>
       <use x="63.623047" xlink:href="#DejaVuSans-48"/>
       <use x="127.246094" xlink:href="#DejaVuSans-48"/>
       <use x="190.869141" xlink:href="#DejaVuSans-48"/>
      </g>
     </g>
    </g>
    <g id="xtick_3">
     <g id="line2d_3">
      <g>
       <use style="stroke:#000000;stroke-width:0.8;" x="537.640132" xlink:href="#m830358c614" y="630"/>
      </g>
     </g>
     <g id="text_3">
      <!-- 2000 -->
      <g transform="translate(524.915132 644.598438)scale(0.1 -0.1)">
       <defs>
        <path d="M 19.1875 8.296875 
L 53.609375 8.296875 
L 53.609375 0 
L 7.328125 0 
L 7.328125 8.296875 
Q 12.9375 14.109375 22.625 23.890625 
Q 32.328125 33.6875 34.8125 36.53125 
Q 39.546875 41.84375 41.421875 45.53125 
Q 43.3125 49.21875 43.3125 52.78125 
Q 43.3125 58.59375 39.234375 62.25 
Q 35.15625 65.921875 28.609375 65.921875 
Q 23.96875 65.921875 18.8125 64.3125 
Q 13.671875 62.703125 7.8125 59.421875 
L 7.8125 69.390625 
Q 13.765625 71.78125 18.9375 73 
Q 24.125 74.21875 28.421875 74.21875 
Q 39.75 74.21875 46.484375 68.546875 
Q 53.21875 62.890625 53.21875 53.421875 
Q 53.21875 48.921875 51.53125 44.890625 
Q 49.859375 40.875 45.40625 35.40625 
Q 44.1875 33.984375 37.640625 27.21875 
Q 31.109375 20.453125 19.1875 8.296875 
z
" id="DejaVuSans-50"/>
       </defs>
       <use xlink:href="#DejaVuSans-50"/>
       <use x="63.623047" xlink:href="#DejaVuSans-48"/>
       <use x="127.246094" xlink:href="#DejaVuSans-48"/>
       <use x="190.869141" xlink:href="#DejaVuSans-48"/>
      </g>
     </g>
    </g>
    <g id="xtick_4">
     <g id="line2d_4">
      <g>
       <use style="stroke:#000000;stroke-width:0.8;" x="719.93747" xlink:href="#m830358c614" y="630"/>
      </g>
     </g>
     <g id="text_4">
      <!-- 3000 -->
      <g transform="translate(707.21247 644.598438)scale(0.1 -0.1)">
       <defs>
        <path d="M 40.578125 39.3125 
Q 47.65625 37.796875 51.625 33 
Q 55.609375 28.21875 55.609375 21.1875 
Q 55.609375 10.40625 48.1875 4.484375 
Q 40.765625 -1.421875 27.09375 -1.421875 
Q 22.515625 -1.421875 17.65625 -0.515625 
Q 12.796875 0.390625 7.625 2.203125 
L 7.625 11.71875 
Q 11.71875 9.328125 16.59375 8.109375 
Q 21.484375 6.890625 26.8125 6.890625 
Q 36.078125 6.890625 40.9375 10.546875 
Q 45.796875 14.203125 45.796875 21.1875 
Q 45.796875 27.640625 41.28125 31.265625 
Q 36.765625 34.90625 28.71875 34.90625 
L 20.21875 34.90625 
L 20.21875 43.015625 
L 29.109375 43.015625 
Q 36.375 43.015625 40.234375 45.921875 
Q 44.09375 48.828125 44.09375 54.296875 
Q 44.09375 59.90625 40.109375 62.90625 
Q 36.140625 65.921875 28.71875 65.921875 
Q 24.65625 65.921875 20.015625 65.03125 
Q 15.375 64.15625 9.8125 62.3125 
L 9.8125 71.09375 
Q 15.4375 72.65625 20.34375 73.4375 
Q 25.25 74.21875 29.59375 74.21875 
Q 40.828125 74.21875 47.359375 69.109375 
Q 53.90625 64.015625 53.90625 55.328125 
Q 53.90625 49.265625 50.4375 45.09375 
Q 46.96875 40.921875 40.578125 39.3125 
z
" id="DejaVuSans-51"/>
       </defs>
       <use xlink:href="#DejaVuSans-51"/>
       <use x="63.623047" xlink:href="#DejaVuSans-48"/>
       <use x="127.246094" xlink:href="#DejaVuSans-48"/>
       <use x="190.869141" xlink:href="#DejaVuSans-48"/>
      </g>
     </g>
    </g>
    <g id="xtick_5">
     <g id="line2d_5">
      <g>
       <use style="stroke:#000000;stroke-width:0.8;" x="902.234809" xlink:href="#m830358c614" y="630"/>
      </g>
     </g>
     <g id="text_5">
      <!-- 4000 -->
      <g transform="translate(889.509809 644.598438)scale(0.1 -0.1)">
       <defs>
        <path d="M 37.796875 64.3125 
L 12.890625 25.390625 
L 37.796875 25.390625 
z
M 35.203125 72.90625 
L 47.609375 72.90625 
L 47.609375 25.390625 
L 58.015625 25.390625 
L 58.015625 17.1875 
L 47.609375 17.1875 
L 47.609375 0 
L 37.796875 0 
L 37.796875 17.1875 
L 4.890625 17.1875 
L 4.890625 26.703125 
z
" id="DejaVuSans-52"/>
       </defs>
       <use xlink:href="#DejaVuSans-52"/>
       <use x="63.623047" xlink:href="#DejaVuSans-48"/>
       <use x="127.246094" xlink:href="#DejaVuSans-48"/>
       <use x="190.869141" xlink:href="#DejaVuSans-48"/>
      </g>
     </g>
    </g>
   </g>
   <g id="matplotlib.axis_2">
    <g id="ytick_1">
     <g id="line2d_6">
      <defs>
       <path d="M 0 0 
L -3.5 0 
" id="mc705c59713" style="stroke:#000000;stroke-width:0.8;"/>
      </defs>
      <g>
       <use style="stroke:#000000;stroke-width:0.8;" x="135" xlink:href="#mc705c59713" y="617.645455"/>
      </g>
     </g>
     <g id="text_6">
      <!-- 0.0 -->
      <g transform="translate(112.096875 621.444673)scale(0.1 -0.1)">
       <defs>
        <path d="M 10.6875 12.40625 
L 21 12.40625 
L 21 0 
L 10.6875 0 
z
" id="DejaVuSans-46"/>
       </defs>
       <use xlink:href="#DejaVuSans-48"/>
       <use x="63.623047" xlink:href="#DejaVuSans-46"/>
       <use x="95.410156" xlink:href="#DejaVuSans-48"/>
      </g>
     </g>
    </g>
    <g id="ytick_2">
     <g id="line2d_7">
      <g>
       <use style="stroke:#000000;stroke-width:0.8;" x="135" xlink:href="#mc705c59713" y="514.690909"/>
      </g>
     </g>
     <g id="text_7">
      <!-- 0.5 -->
      <g transform="translate(112.096875 518.490128)scale(0.1 -0.1)">
       <defs>
        <path d="M 10.796875 72.90625 
L 49.515625 72.90625 
L 49.515625 64.59375 
L 19.828125 64.59375 
L 19.828125 46.734375 
Q 21.96875 47.46875 24.109375 47.828125 
Q 26.265625 48.1875 28.421875 48.1875 
Q 40.625 48.1875 47.75 41.5 
Q 54.890625 34.8125 54.890625 23.390625 
Q 54.890625 11.625 47.5625 5.09375 
Q 40.234375 -1.421875 26.90625 -1.421875 
Q 22.3125 -1.421875 17.546875 -0.640625 
Q 12.796875 0.140625 7.71875 1.703125 
L 7.71875 11.625 
Q 12.109375 9.234375 16.796875 8.0625 
Q 21.484375 6.890625 26.703125 6.890625 
Q 35.15625 6.890625 40.078125 11.328125 
Q 45.015625 15.765625 45.015625 23.390625 
Q 45.015625 31 40.078125 35.4375 
Q 35.15625 39.890625 26.703125 39.890625 
Q 22.75 39.890625 18.8125 39.015625 
Q 14.890625 38.140625 10.796875 36.28125 
z
" id="DejaVuSans-53"/>
       </defs>
       <use xlink:href="#DejaVuSans-48"/>
       <use x="63.623047" xlink:href="#DejaVuSans-46"/>
       <use x="95.410156" xlink:href="#DejaVuSans-53"/>
      </g>
     </g>
    </g>
    <g id="ytick_3">
     <g id="line2d_8">
      <g>
       <use style="stroke:#000000;stroke-width:0.8;" x="135" xlink:href="#mc705c59713" y="411.736364"/>
      </g>
     </g>
     <g id="text_8">
      <!-- 1.0 -->
      <g transform="translate(112.096875 415.535582)scale(0.1 -0.1)">
       <use xlink:href="#DejaVuSans-49"/>
       <use x="63.623047" xlink:href="#DejaVuSans-46"/>
       <use x="95.410156" xlink:href="#DejaVuSans-48"/>
      </g>
     </g>
    </g>
    <g id="ytick_4">
     <g id="line2d_9">
      <g>
       <use style="stroke:#000000;stroke-width:0.8;" x="135" xlink:href="#mc705c59713" y="308.781818"/>
      </g>
     </g>
     <g id="text_9">
      <!-- 1.5 -->
      <g transform="translate(112.096875 312.581037)scale(0.1 -0.1)">
       <use xlink:href="#DejaVuSans-49"/>
       <use x="63.623047" xlink:href="#DejaVuSans-46"/>
       <use x="95.410156" xlink:href="#DejaVuSans-53"/>
      </g>
     </g>
    </g>
    <g id="ytick_5">
     <g id="line2d_10">
      <g>
       <use style="stroke:#000000;stroke-width:0.8;" x="135" xlink:href="#mc705c59713" y="205.827273"/>
      </g>
     </g>
     <g id="text_10">
      <!-- 2.0 -->
      <g transform="translate(112.096875 209.626491)scale(0.1 -0.1)">
       <use xlink:href="#DejaVuSans-50"/>
       <use x="63.623047" xlink:href="#DejaVuSans-46"/>
       <use x="95.410156" xlink:href="#DejaVuSans-48"/>
      </g>
     </g>
    </g>
    <g id="ytick_6">
     <g id="line2d_11">
      <g>
       <use style="stroke:#000000;stroke-width:0.8;" x="135" xlink:href="#mc705c59713" y="102.872727"/>
      </g>
     </g>
     <g id="text_11">
      <!-- 2.5 -->
      <g transform="translate(112.096875 106.671946)scale(0.1 -0.1)">
       <use xlink:href="#DejaVuSans-50"/>
       <use x="63.623047" xlink:href="#DejaVuSans-46"/>
       <use x="95.410156" xlink:href="#DejaVuSans-53"/>
      </g>
     </g>
    </g>
   </g>
   <g id="line2d_12">
    <path clip-path="url(#pd96623386b)" d="M 173.045455 599.113636 
L 173.227752 599.113636 
L 173.410049 597.054545 
L 173.592347 599.113636 
L 173.774644 597.054545 
L 173.956941 599.113636 
L 174.139239 599.113636 
L 174.321536 601.172727 
L 174.503833 597.054545 
L 174.686131 599.113636 
L 176.144509 599.113636 
L 176.326807 601.172727 
L 176.509104 599.113636 
L 177.967483 599.113636 
L 178.14978 601.172727 
L 178.332077 599.113636 
L 178.878969 599.113636 
L 179.061267 601.172727 
L 179.243564 599.113636 
L 179.790456 599.113636 
L 179.972753 601.172727 
L 180.155051 599.113636 
L 180.88424 599.113636 
L 181.066537 594.995455 
L 181.248835 594.995455 
L 181.431132 599.113636 
L 182.524916 599.113636 
L 182.707213 601.172727 
L 182.889511 599.113636 
L 183.254106 599.113636 
L 183.436403 601.172727 
L 183.6187 597.054545 
L 183.800998 599.113636 
L 184.530187 599.113636 
L 184.712484 601.172727 
L 184.894782 599.113636 
L 185.077079 601.172727 
L 185.259376 599.113636 
L 185.806268 599.113636 
L 185.988566 601.172727 
L 186.170863 599.113636 
L 186.717755 599.113636 
L 186.900052 601.172727 
L 187.08235 599.113636 
L 187.629242 599.113636 
L 187.811539 594.995455 
L 187.993836 572.345455 
L 188.176134 518.809091 
L 188.358431 547.636364 
L 188.540728 553.813636 
L 188.905323 599.113636 
L 189.08762 599.113636 
L 189.269918 601.172727 
L 189.452215 597.054545 
L 189.634512 599.113636 
L 189.81681 597.054545 
L 190.181404 597.054545 
L 190.363702 601.172727 
L 190.545999 597.054545 
L 191.092891 597.054545 
L 191.457486 601.172727 
L 191.639783 597.054545 
L 191.82208 599.113636 
L 192.004378 599.113636 
L 192.368972 547.636364 
L 192.55127 549.695455 
L 192.733567 599.113636 
L 194.374243 599.113636 
L 194.55654 601.172727 
L 194.738838 597.054545 
L 194.921135 599.113636 
L 196.379514 599.113636 
L 196.561811 601.172727 
L 196.744109 599.113636 
L 197.291001 599.113636 
L 197.473298 594.995455 
L 197.837893 599.113636 
L 198.384785 599.113636 
L 198.567082 601.172727 
L 198.749379 599.113636 
L 200.390055 599.113636 
L 200.572353 601.172727 
L 200.75465 599.113636 
L 201.483839 599.113636 
L 201.666137 601.172727 
L 201.848434 599.113636 
L 202.213029 599.113636 
L 202.395326 601.172727 
L 202.577623 599.113636 
L 204.218299 599.113636 
L 204.400597 601.172727 
L 204.582894 597.054545 
L 204.765191 599.113636 
L 206.405867 599.113636 
L 206.770462 594.995455 
L 206.95276 599.113636 
L 208.95803 599.113636 
L 209.140328 597.054545 
L 209.322625 599.113636 
L 209.504922 592.936364 
L 209.68722 582.640909 
L 209.869517 588.818182 
L 210.051814 586.759091 
L 210.234112 599.113636 
L 210.963301 599.113636 
L 211.145598 597.054545 
L 211.510193 601.172727 
L 211.69249 597.054545 
L 211.874788 599.113636 
L 212.42168 599.113636 
L 212.603977 588.818182 
L 212.786274 590.877273 
L 212.968572 597.054545 
L 213.150869 597.054545 
L 213.333166 599.113636 
L 213.515464 597.054545 
L 213.880058 601.172727 
L 214.062356 597.054545 
L 214.244653 599.113636 
L 216.249924 599.113636 
L 216.432221 601.172727 
L 216.614518 599.113636 
L 217.8906 599.113636 
L 218.072897 588.818182 
L 218.255194 588.818182 
L 218.437492 599.113636 
L 218.619789 601.172727 
L 218.802087 559.990909 
L 219.166681 582.640909 
L 219.531276 597.054545 
L 220.62506 597.054545 
L 220.807357 594.995455 
L 220.989655 599.113636 
L 221.171952 594.995455 
L 221.354249 597.054545 
L 221.536547 597.054545 
L 221.901141 590.877273 
L 222.083439 597.054545 
L 222.265736 597.054545 
L 222.448033 570.286364 
L 222.630331 485.863636 
L 222.812628 220.240909 
L 222.994925 559.990909 
L 223.177223 588.818182 
L 223.541817 594.995455 
L 223.724115 333.490909 
L 223.906412 592.936364 
L 224.271007 597.054545 
L 225.182493 597.054545 
L 225.364791 599.113636 
L 225.547088 594.995455 
L 225.729385 597.054545 
L 226.640872 597.054545 
L 227.005467 524.986364 
L 227.187764 203.768182 
L 227.552359 590.877273 
L 227.734656 590.877273 
L 228.099251 597.054545 
L 229.739927 597.054545 
L 229.922224 594.995455 
L 230.104521 599.113636 
L 230.286819 594.995455 
L 230.469116 597.054545 
L 230.651414 597.054545 
L 230.833711 590.877273 
L 231.016008 592.936364 
L 231.198306 584.7 
L 231.5629 594.995455 
L 231.745198 594.995455 
L 231.927495 597.054545 
L 232.109792 597.054545 
L 232.29209 582.640909 
L 232.656684 599.113636 
L 232.838982 594.995455 
L 233.021279 597.054545 
L 233.385874 597.054545 
L 233.568171 594.995455 
L 233.750468 599.113636 
L 233.932766 594.995455 
L 234.115063 597.054545 
L 234.29736 597.054545 
L 234.479658 594.995455 
L 234.661955 597.054545 
L 234.844252 594.995455 
L 235.208847 594.995455 
L 235.391144 597.054545 
L 235.573442 597.054545 
L 235.755739 599.113636 
L 235.938036 594.995455 
L 236.120334 597.054545 
L 236.667226 597.054545 
L 236.849523 562.05 
L 237.03182 572.345455 
L 237.214118 590.877273 
L 237.396415 597.054545 
L 237.943307 597.054545 
L 238.125604 599.113636 
L 238.307902 594.995455 
L 238.490199 597.054545 
L 239.76628 597.054545 
L 239.948578 592.936364 
L 240.130875 592.936364 
L 240.313172 597.054545 
L 241.042362 597.054545 
L 241.224659 594.995455 
L 241.406956 594.995455 
L 241.771551 599.113636 
L 241.953848 597.054545 
L 243.594525 597.054545 
L 243.776822 594.995455 
L 243.959119 597.054545 
L 245.052903 597.054545 
L 245.235201 599.113636 
L 245.417498 594.995455 
L 245.96439 549.695455 
L 246.146687 553.813636 
L 246.328985 592.936364 
L 246.511282 590.877273 
L 246.693579 564.109091 
L 246.875877 566.168182 
L 247.058174 572.345455 
L 247.422769 592.936364 
L 247.605066 594.995455 
L 247.969661 594.995455 
L 248.151958 597.054545 
L 248.334255 592.936364 
L 248.516553 594.995455 
L 248.69885 586.759091 
L 248.881147 584.7 
L 249.063445 594.995455 
L 249.245742 597.054545 
L 249.428039 588.818182 
L 249.610337 594.995455 
L 249.974931 594.995455 
L 250.157229 576.463636 
L 250.339526 594.995455 
L 250.704121 551.754545 
L 250.886418 559.990909 
L 251.068715 586.759091 
L 251.251013 590.877273 
L 251.43331 590.877273 
L 251.615607 582.640909 
L 251.980202 592.936364 
L 252.162499 580.581818 
L 252.527094 592.936364 
L 252.709391 592.936364 
L 252.891689 586.759091 
L 253.073986 576.463636 
L 253.256283 592.936364 
L 253.438581 594.995455 
L 253.620878 592.936364 
L 253.803176 597.054545 
L 253.985473 592.936364 
L 254.16777 594.995455 
L 254.350068 562.05 
L 254.89696 594.995455 
L 255.261554 586.759091 
L 255.443852 562.05 
L 255.626149 564.109091 
L 255.808446 559.990909 
L 255.990744 568.227273 
L 256.173041 594.995455 
L 256.355338 592.936364 
L 256.537636 594.995455 
L 256.90223 594.995455 
L 257.084528 597.054545 
L 257.266825 586.759091 
L 257.449122 594.995455 
L 257.813717 594.995455 
L 257.996014 597.054545 
L 258.178312 584.7 
L 258.360609 586.759091 
L 258.542906 590.877273 
L 258.725204 590.877273 
L 258.907501 576.463636 
L 259.089798 594.995455 
L 259.272096 597.054545 
L 259.63669 586.759091 
L 259.818988 564.109091 
L 260.001285 564.109091 
L 260.183582 562.05 
L 260.548177 594.995455 
L 260.730474 590.877273 
L 261.095069 590.877273 
L 261.459664 594.995455 
L 261.641961 594.995455 
L 261.824258 562.05 
L 262.006556 562.05 
L 262.188853 588.818182 
L 262.553448 594.995455 
L 262.918042 594.995455 
L 263.10034 597.054545 
L 263.282637 572.345455 
L 263.464934 518.809091 
L 263.647232 500.277273 
L 263.829529 555.872727 
L 264.011826 566.168182 
L 264.194124 555.872727 
L 264.376421 537.340909 
L 264.923313 592.936364 
L 265.10561 592.936364 
L 265.287908 594.995455 
L 265.470205 592.936364 
L 265.8348 597.054545 
L 266.017097 592.936364 
L 266.199395 549.695455 
L 266.381692 594.995455 
L 266.563989 592.936364 
L 266.746287 592.936364 
L 266.928584 578.522727 
L 267.110881 597.054545 
L 267.293179 601.172727 
L 267.475476 599.113636 
L 267.657773 590.877273 
L 268.022368 564.109091 
L 268.204665 553.813636 
L 268.386963 508.513636 
L 268.56926 564.109091 
L 268.933855 265.540909 
L 269.116152 588.818182 
L 269.298449 590.877273 
L 269.480747 597.054545 
L 269.663044 599.113636 
L 270.209936 599.113636 
L 270.939125 564.109091 
L 271.121423 568.227273 
L 271.30372 588.818182 
L 271.486017 590.877273 
L 271.850612 247.009091 
L 272.032909 559.990909 
L 272.215207 559.990909 
L 272.579801 588.818182 
L 272.944396 588.818182 
L 273.126693 553.813636 
L 273.308991 568.227273 
L 273.673585 568.227273 
L 273.855883 590.877273 
L 274.03818 588.818182 
L 274.402775 588.818182 
L 274.585072 594.995455 
L 274.767369 588.818182 
L 274.949667 589.847727 
L 275.131964 541.459091 
L 275.496559 588.818182 
L 275.678856 590.877273 
L 276.043451 590.877273 
L 276.408045 574.404545 
L 276.77264 531.163636 
L 276.954937 537.340909 
L 277.137235 549.695455 
L 277.319532 576.463636 
L 277.50183 584.7 
L 277.866424 584.7 
L 278.048722 555.872727 
L 278.231019 559.990909 
L 278.413316 590.877273 
L 278.960208 590.877273 
L 279.142506 572.345455 
L 279.324803 592.936364 
L 279.5071 590.877273 
L 279.689398 586.759091 
L 279.871695 590.877273 
L 280.053992 590.877273 
L 280.418587 555.872727 
L 280.600884 518.809091 
L 280.965479 329.372727 
L 281.330074 368.495455 
L 281.512371 518.809091 
L 281.694668 430.268182 
L 281.876966 440.563636 
L 282.059263 514.690909 
L 282.24156 465.272727 
L 282.423858 584.7 
L 282.606155 582.640909 
L 282.788452 582.640909 
L 283.153047 590.877273 
L 283.699939 590.877273 
L 283.882236 545.577273 
L 284.064534 234.654545 
L 284.246831 247.009091 
L 284.429128 533.222727 
L 284.611426 389.086364 
L 284.793723 566.168182 
L 284.97602 586.759091 
L 285.158318 529.104545 
L 285.522912 582.640909 
L 285.70521 590.877273 
L 285.887507 590.877273 
L 286.252102 562.05 
L 286.434399 562.05 
L 286.616696 588.818182 
L 286.798994 588.818182 
L 286.981291 590.877273 
L 287.345886 590.877273 
L 287.528183 588.818182 
L 287.71048 564.109091 
L 287.892778 562.05 
L 288.075075 562.05 
L 288.43967 555.872727 
L 288.621967 570.286364 
L 288.804264 566.168182 
L 288.986562 584.7 
L 289.168859 588.818182 
L 289.351157 559.990909 
L 289.533454 559.990909 
L 289.715751 568.227273 
L 289.898049 551.754545 
L 290.080346 545.577273 
L 290.262643 547.636364 
L 290.444941 580.581818 
L 290.627238 572.345455 
L 290.809535 586.759091 
L 291.17413 590.877273 
L 291.356427 590.877273 
L 291.538725 588.818182 
L 291.721022 590.877273 
L 291.903319 590.877273 
L 292.085617 592.936364 
L 292.267914 590.877273 
L 292.450211 578.522727 
L 292.632509 537.340909 
L 292.814806 580.581818 
L 292.997103 590.877273 
L 293.179401 592.936364 
L 293.361698 582.640909 
L 293.543995 580.581818 
L 293.726293 586.759091 
L 293.90859 584.7 
L 294.090887 590.877273 
L 294.273185 590.877273 
L 294.455482 564.109091 
L 294.637779 572.345455 
L 294.820077 568.227273 
L 295.002374 569.256818 
L 295.184671 574.404545 
L 295.366969 588.818182 
L 295.549266 590.877273 
L 295.731563 588.818182 
L 295.913861 590.877273 
L 296.278455 590.877273 
L 296.460753 588.818182 
L 296.64305 590.877273 
L 296.825347 590.877273 
L 297.007645 582.640909 
L 297.189942 564.109091 
L 297.554537 590.877273 
L 297.736834 590.877273 
L 297.919131 557.931818 
L 298.101429 555.872727 
L 298.283726 543.518182 
L 298.466023 543.518182 
L 299.012915 570.286364 
L 299.195213 570.286364 
L 299.559807 562.05 
L 299.742105 586.759091 
L 299.924402 590.877273 
L 300.471294 590.877273 
L 300.653591 592.936364 
L 300.835889 588.818182 
L 301.018186 578.522727 
L 301.200484 582.640909 
L 301.382781 576.463636 
L 301.747376 543.518182 
L 301.929673 584.7 
L 302.294268 590.877273 
L 302.476565 588.818182 
L 302.658862 584.7 
L 302.84116 564.109091 
L 303.023457 559.990909 
L 303.205754 559.990909 
L 303.570349 578.522727 
L 303.752646 559.990909 
L 303.934944 566.168182 
L 304.117241 586.759091 
L 304.299538 586.759091 
L 304.481836 590.877273 
L 304.84643 590.877273 
L 305.028728 588.818182 
L 305.211025 590.877273 
L 305.393322 590.877273 
L 305.57562 592.936364 
L 305.940214 559.990909 
L 306.122512 562.05 
L 306.304809 578.522727 
L 306.487106 518.809091 
L 306.669404 362.318182 
L 306.851701 323.195455 
L 307.033998 576.463636 
L 307.398593 541.459091 
L 307.58089 562.05 
L 307.763188 562.05 
L 307.945485 566.168182 
L 308.127782 524.986364 
L 308.492377 578.522727 
L 308.674674 588.818182 
L 308.856972 590.877273 
L 309.039269 588.818182 
L 309.221566 590.877273 
L 309.768458 590.877273 
L 309.950756 584.7 
L 310.133053 531.163636 
L 310.31535 549.695455 
L 310.497648 555.872727 
L 310.679945 580.581818 
L 310.862242 584.7 
L 311.04454 559.990909 
L 311.226837 580.581818 
L 311.409134 580.581818 
L 311.591432 541.459091 
L 311.956026 564.109091 
L 312.138324 547.636364 
L 312.320621 549.695455 
L 312.502918 547.636364 
L 312.685216 553.813636 
L 312.867513 564.109091 
L 313.049811 587.788636 
L 313.232108 578.522727 
L 313.779 590.877273 
L 313.961297 588.818182 
L 314.143595 590.877273 
L 314.325892 588.818182 
L 314.690487 551.754545 
L 314.872784 568.227273 
L 315.055081 564.109091 
L 315.237379 555.872727 
L 315.419676 555.872727 
L 315.601973 514.690909 
L 315.784271 284.072727 
L 315.966568 520.868182 
L 316.148865 572.345455 
L 316.331163 590.877273 
L 316.695757 568.227273 
L 316.878055 566.168182 
L 317.242649 553.813636 
L 317.424947 586.759091 
L 317.607244 592.936364 
L 317.789541 588.818182 
L 317.971839 590.877273 
L 318.518731 590.877273 
L 318.883325 586.759091 
L 319.065623 559.990909 
L 319.430217 578.522727 
L 319.612515 580.581818 
L 319.794812 562.05 
L 319.977109 562.05 
L 320.159407 557.931818 
L 320.341704 549.695455 
L 320.524001 518.809091 
L 320.706299 566.168182 
L 320.888596 570.286364 
L 321.253191 547.636364 
L 321.435488 553.813636 
L 321.98238 592.936364 
L 322.164677 588.818182 
L 322.529272 588.818182 
L 322.711569 590.877273 
L 322.893867 588.818182 
L 323.076164 590.877273 
L 323.258461 568.227273 
L 323.623056 551.754545 
L 323.805353 557.931818 
L 323.987651 590.877273 
L 324.169948 514.690909 
L 324.352246 360.259091 
L 324.534543 347.904545 
L 324.71684 549.695455 
L 324.899138 549.695455 
L 325.081435 557.931818 
L 325.263732 557.931818 
L 325.44603 539.4 
L 325.810624 557.931818 
L 326.175219 588.818182 
L 326.357516 588.818182 
L 326.539814 590.877273 
L 326.722111 588.818182 
L 326.904408 590.877273 
L 327.086706 588.818182 
L 327.269003 590.877273 
L 327.4513 590.877273 
L 327.633598 580.581818 
L 327.815895 543.518182 
L 328.362787 590.877273 
L 328.727382 590.877273 
L 328.909679 594.995455 
L 329.091976 590.877273 
L 329.274274 535.281818 
L 329.638868 549.695455 
L 329.821166 547.636364 
L 330.003463 543.518182 
L 330.18576 555.872727 
L 330.368058 592.936364 
L 330.550355 601.172727 
L 330.732652 597.054545 
L 330.91495 599.113636 
L 331.461842 599.113636 
L 331.644139 592.936364 
L 331.826436 590.877273 
L 332.008734 553.813636 
L 332.373328 594.995455 
L 332.555626 586.759091 
L 332.737923 564.109091 
L 333.284815 601.172727 
L 333.467112 597.054545 
L 333.64941 597.054545 
L 333.831707 599.113636 
L 334.196302 599.113636 
L 334.378599 601.172727 
L 334.560896 597.054545 
L 334.743194 599.113636 
L 334.925491 599.113636 
L 335.107788 597.054545 
L 335.290086 597.054545 
L 335.472383 601.172727 
L 335.65468 597.054545 
L 335.836978 599.113636 
L 336.201573 599.113636 
L 336.38387 594.995455 
L 336.566167 549.695455 
L 336.748465 549.695455 
L 336.930762 516.75 
L 337.113059 397.322727 
L 337.295357 183.177273 
L 337.477654 450.859091 
L 337.659951 409.677273 
L 337.842249 533.222727 
L 338.024546 516.75 
L 338.206843 543.518182 
L 338.571438 562.05 
L 338.753735 588.818182 
L 338.936033 588.818182 
L 339.11833 570.286364 
L 339.300627 586.759091 
L 339.482925 590.877273 
L 339.665222 588.818182 
L 339.847519 590.877273 
L 340.212114 590.877273 
L 340.394411 592.936364 
L 340.576709 586.759091 
L 340.759006 590.877273 
L 341.305898 590.877273 
L 341.488195 592.936364 
L 341.670493 588.818182 
L 341.85279 590.877273 
L 342.035087 562.05 
L 342.399682 568.227273 
L 342.581979 562.05 
L 342.764277 566.168182 
L 342.946574 559.990909 
L 343.128871 568.227273 
L 343.311169 535.281818 
L 343.493466 578.522727 
L 343.675763 590.877273 
L 343.858061 588.818182 
L 344.040358 578.522727 
L 344.404953 588.818182 
L 344.58725 588.818182 
L 344.769547 584.7 
L 344.951845 590.877273 
L 345.134142 592.936364 
L 345.316439 588.818182 
L 345.498737 590.877273 
L 346.045629 590.877273 
L 346.227926 555.872727 
L 346.410223 590.877273 
L 347.139413 590.877273 
L 347.504007 541.459091 
L 347.686305 578.522727 
L 347.868602 588.818182 
L 348.0509 590.877273 
L 348.780089 590.877273 
L 349.144684 586.759091 
L 349.326981 590.877273 
L 349.509278 590.877273 
L 349.691576 592.936364 
L 349.873873 590.877273 
L 350.05617 578.522727 
L 350.238468 582.640909 
L 350.603062 549.695455 
L 350.78536 551.754545 
L 350.967657 564.109091 
L 351.149954 543.518182 
L 351.332252 549.695455 
L 351.514549 537.340909 
L 351.696846 590.877273 
L 351.879144 574.404545 
L 352.061441 537.340909 
L 352.243738 584.7 
L 352.426036 590.877273 
L 353.155225 590.877273 
L 353.337522 588.818182 
L 353.51982 590.877273 
L 353.702117 590.877273 
L 353.884414 531.163636 
L 354.066712 294.368182 
L 354.431306 568.227273 
L 354.613604 551.754545 
L 354.795901 553.813636 
L 354.978198 551.754545 
L 355.160496 545.577273 
L 355.342793 543.518182 
L 355.707388 553.813636 
L 355.889685 582.640909 
L 356.071982 582.640909 
L 356.25428 537.340909 
L 356.436577 541.459091 
L 356.618874 578.522727 
L 356.801172 586.759091 
L 357.165766 586.759091 
L 357.348064 588.818182 
L 357.530361 588.818182 
L 357.712658 590.877273 
L 357.894956 584.7 
L 358.077253 545.577273 
L 358.441848 570.286364 
L 358.624145 566.168182 
L 358.98874 547.636364 
L 359.353334 551.754545 
L 359.535632 557.931818 
L 359.717929 555.872727 
L 359.900227 555.872727 
L 360.082524 547.636364 
L 360.264821 545.577273 
L 360.447119 576.463636 
L 360.811713 559.990909 
L 360.994011 559.990909 
L 361.176308 586.759091 
L 361.358605 582.640909 
L 361.540903 584.7 
L 361.905497 584.7 
L 362.087795 586.759091 
L 362.270092 574.404545 
L 362.452389 576.463636 
L 362.816984 539.4 
L 363.181579 588.818182 
L 363.546173 570.286364 
L 364.45766 541.459091 
L 364.639957 541.459091 
L 364.822255 539.4 
L 365.186849 531.163636 
L 365.369147 541.459091 
L 365.551444 543.518182 
L 365.733741 512.631818 
L 365.916039 570.286364 
L 366.098336 584.7 
L 366.462931 584.7 
L 366.645228 586.759091 
L 366.827525 584.7 
L 367.19212 537.340909 
L 367.374417 539.4 
L 367.556715 535.281818 
L 367.739012 588.818182 
L 367.921309 580.581818 
L 368.103607 553.813636 
L 368.285904 551.754545 
L 368.468201 545.577273 
L 368.650499 543.518182 
L 368.832796 555.872727 
L 369.015093 537.340909 
L 369.197391 539.4 
L 369.379688 545.577273 
L 369.561985 578.522727 
L 369.744283 582.640909 
L 370.108877 582.640909 
L 370.291175 584.7 
L 370.473472 582.640909 
L 370.655769 586.759091 
L 370.838067 582.640909 
L 371.020364 557.931818 
L 371.202661 574.404545 
L 371.384959 570.286364 
L 371.567256 553.813636 
L 371.749554 574.404545 
L 372.114148 559.990909 
L 372.296446 584.7 
L 372.478743 582.640909 
L 372.66104 584.7 
L 373.025635 584.7 
L 373.207932 543.518182 
L 373.39023 555.872727 
L 373.572527 553.813636 
L 373.937122 580.581818 
L 374.119419 584.7 
L 374.301716 584.7 
L 374.484014 574.404545 
L 374.666311 574.404545 
L 375.030906 584.7 
L 375.213203 582.640909 
L 375.3955 572.345455 
L 375.577798 537.340909 
L 375.760095 566.168182 
L 375.942392 349.963636 
L 376.306987 582.640909 
L 376.489284 576.463636 
L 376.671582 584.7 
L 376.853879 582.640909 
L 377.036176 586.759091 
L 377.218474 584.7 
L 377.400771 588.818182 
L 377.583068 551.754545 
L 377.765366 551.754545 
L 377.947663 559.990909 
L 378.12996 557.931818 
L 378.312258 580.581818 
L 378.676852 584.7 
L 378.85915 582.640909 
L 379.041447 586.759091 
L 379.223744 582.640909 
L 379.588339 590.877273 
L 379.770636 588.818182 
L 379.952934 555.872727 
L 380.135231 543.518182 
L 380.499826 590.877273 
L 380.682123 535.281818 
L 380.86442 547.636364 
L 381.046718 545.577273 
L 381.229015 537.340909 
L 381.411312 568.227273 
L 381.958204 529.104545 
L 382.140502 547.636364 
L 382.322799 518.809091 
L 382.505096 539.4 
L 382.687394 537.340909 
L 382.869691 586.759091 
L 383.051989 582.640909 
L 383.416583 582.640909 
L 383.598881 584.7 
L 383.781178 582.640909 
L 383.963475 584.7 
L 384.145773 555.872727 
L 384.32807 574.404545 
L 384.510367 574.404545 
L 384.692665 541.459091 
L 384.874962 543.518182 
L 385.239557 582.640909 
L 385.421854 582.640909 
L 385.604151 584.7 
L 385.786449 584.7 
L 386.151043 512.631818 
L 386.333341 220.240909 
L 386.697935 537.340909 
L 386.880233 537.340909 
L 387.06253 574.404545 
L 387.427125 582.640909 
L 387.609422 580.581818 
L 387.791719 580.581818 
L 387.974017 582.640909 
L 388.338611 582.640909 
L 388.520909 572.345455 
L 388.885503 586.759091 
L 389.067801 586.759091 
L 389.250098 582.640909 
L 389.432395 582.640909 
L 389.614693 584.7 
L 389.79699 582.640909 
L 389.979287 582.640909 
L 390.161585 584.7 
L 390.343882 582.640909 
L 390.708477 529.104545 
L 391.073071 557.931818 
L 391.255369 557.931818 
L 391.437666 545.577273 
L 391.802261 582.640909 
L 392.166855 582.640909 
L 392.349153 584.7 
L 392.53145 582.640909 
L 392.713747 586.759091 
L 392.896045 574.404545 
L 393.078342 570.286364 
L 393.260639 580.581818 
L 393.625234 584.7 
L 393.807531 582.640909 
L 394.172126 545.577273 
L 394.719018 590.877273 
L 395.083613 586.759091 
L 395.26591 588.818182 
L 395.630505 588.818182 
L 395.812802 582.640909 
L 395.9951 570.286364 
L 396.177397 586.759091 
L 396.359694 588.818182 
L 396.541992 588.818182 
L 396.724289 586.759091 
L 396.906586 590.877273 
L 397.088884 586.759091 
L 397.271181 588.818182 
L 397.453478 578.522727 
L 397.635776 555.872727 
L 397.818073 518.809091 
L 398.00037 547.636364 
L 398.182668 531.163636 
L 398.364965 588.818182 
L 398.547262 588.818182 
L 398.72956 559.990909 
L 398.911857 570.286364 
L 399.094154 541.459091 
L 399.276452 543.518182 
L 399.458749 557.931818 
L 399.641046 549.695455 
L 399.823344 547.636364 
L 400.005641 547.636364 
L 400.187938 574.404545 
L 400.370236 584.7 
L 400.552533 586.759091 
L 400.73483 586.759091 
L 400.917128 584.7 
L 401.099425 586.759091 
L 401.281722 590.877273 
L 401.46402 586.759091 
L 401.646317 586.759091 
L 402.010912 539.4 
L 402.193209 543.518182 
L 402.375506 586.759091 
L 402.557804 588.818182 
L 402.740101 564.109091 
L 403.104696 588.818182 
L 403.286993 588.818182 
L 403.46929 551.754545 
L 403.651588 545.577273 
L 403.833885 566.168182 
L 404.016182 555.872727 
L 404.19848 562.05 
L 404.563074 557.931818 
L 404.745372 584.7 
L 404.927669 586.759091 
L 405.109966 576.463636 
L 405.292264 576.463636 
L 405.474561 580.581818 
L 405.656858 590.877273 
L 405.839156 586.759091 
L 406.021453 586.759091 
L 406.20375 580.581818 
L 406.386048 586.759091 
L 406.568345 586.759091 
L 406.750643 574.404545 
L 406.93294 549.695455 
L 407.115237 566.168182 
L 407.297535 537.340909 
L 407.479832 562.05 
L 407.662129 543.518182 
L 407.844427 568.227273 
L 408.209021 586.759091 
L 408.391319 578.522727 
L 408.573616 545.577273 
L 408.755913 553.813636 
L 408.938211 555.872727 
L 409.120508 553.813636 
L 409.302805 584.7 
L 409.485103 588.818182 
L 409.6674 588.818182 
L 409.849697 586.759091 
L 410.031995 590.877273 
L 410.214292 586.759091 
L 410.396589 588.818182 
L 410.943481 514.690909 
L 411.125779 434.386364 
L 411.308076 115.227273 
L 411.490373 512.631818 
L 411.672671 580.581818 
L 411.854968 586.759091 
L 412.037265 586.759091 
L 412.219563 541.459091 
L 412.40186 555.872727 
L 412.584157 559.990909 
L 412.766455 555.872727 
L 412.948752 564.109091 
L 413.131049 562.05 
L 413.313347 566.168182 
L 413.495644 559.990909 
L 413.677941 586.759091 
L 413.860239 588.818182 
L 414.042536 586.759091 
L 414.224833 588.818182 
L 414.407131 586.759091 
L 414.589428 588.818182 
L 414.771725 592.936364 
L 414.954023 574.404545 
L 415.13632 543.518182 
L 415.318617 584.7 
L 415.683212 590.877273 
L 415.865509 271.718182 
L 416.230104 559.990909 
L 416.412401 590.877273 
L 416.594699 588.818182 
L 416.776996 588.818182 
L 416.959293 590.877273 
L 417.323888 551.754545 
L 417.506185 553.813636 
L 417.688483 537.340909 
L 417.87078 502.336364 
L 418.053077 584.7 
L 418.235375 588.818182 
L 418.417672 588.818182 
L 418.59997 584.7 
L 418.782267 588.818182 
L 418.964564 586.759091 
L 419.146862 592.936364 
L 419.329159 588.818182 
L 419.511456 574.404545 
L 419.693754 574.404545 
L 419.876051 564.109091 
L 420.058348 576.463636 
L 420.240646 574.404545 
L 420.422943 590.877273 
L 420.60524 588.818182 
L 420.787538 588.818182 
L 420.969835 584.7 
L 421.152132 572.345455 
L 421.33443 547.636364 
L 421.516727 541.459091 
L 421.699024 547.636364 
L 421.881322 562.05 
L 422.063619 539.4 
L 422.792808 582.640909 
L 422.975106 586.759091 
L 423.157403 580.581818 
L 423.3397 582.640909 
L 423.521998 568.227273 
L 423.704295 576.463636 
L 424.06889 562.05 
L 424.251187 566.168182 
L 424.433484 580.581818 
L 424.615782 580.581818 
L 424.798079 576.463636 
L 424.980376 557.931818 
L 425.162674 557.931818 
L 425.344971 564.109091 
L 425.527268 555.872727 
L 425.709566 557.931818 
L 425.891863 557.931818 
L 426.07416 555.872727 
L 426.256458 559.990909 
L 426.438755 555.872727 
L 426.621052 562.05 
L 426.985647 520.868182 
L 427.350242 580.581818 
L 427.532539 582.640909 
L 427.714836 586.759091 
L 427.897134 580.581818 
L 428.079431 584.7 
L 428.261728 578.522727 
L 428.444026 551.754545 
L 428.626323 547.636364 
L 428.990918 586.759091 
L 429.173215 564.109091 
L 429.355512 568.227273 
L 429.53781 547.636364 
L 429.720107 555.872727 
L 429.902404 549.695455 
L 430.084702 549.695455 
L 430.266999 553.813636 
L 430.449297 553.813636 
L 430.813891 582.640909 
L 430.996189 582.640909 
L 431.178486 584.7 
L 431.360783 584.7 
L 431.543081 586.759091 
L 431.725378 582.640909 
L 431.907675 584.7 
L 432.089973 584.7 
L 432.27227 576.463636 
L 432.454567 580.581818 
L 432.636865 572.345455 
L 432.819162 549.695455 
L 433.183757 568.227273 
L 433.366054 590.877273 
L 433.912946 590.877273 
L 434.095243 574.404545 
L 434.277541 516.75 
L 434.459838 555.872727 
L 434.642135 564.109091 
L 434.824433 564.109091 
L 435.00673 566.168182 
L 435.189027 584.7 
L 435.553622 588.818182 
L 435.735919 576.463636 
L 436.100514 588.818182 
L 436.282811 586.759091 
L 436.465109 590.877273 
L 436.647406 578.522727 
L 436.829703 580.581818 
L 437.012001 570.286364 
L 437.194298 533.222727 
L 437.376595 527.045455 
L 437.558893 580.581818 
L 437.74119 586.759091 
L 437.923487 582.640909 
L 438.105785 582.640909 
L 438.288082 590.877273 
L 438.470379 588.818182 
L 438.652677 580.581818 
L 438.834974 559.990909 
L 439.199569 564.109091 
L 439.381866 559.990909 
L 439.564163 568.227273 
L 439.746461 588.818182 
L 439.928758 586.759091 
L 440.111055 586.759091 
L 440.293353 588.818182 
L 440.47565 588.818182 
L 440.657947 592.936364 
L 440.840245 588.818182 
L 441.022542 588.818182 
L 441.387137 553.813636 
L 441.569434 586.759091 
L 441.751731 545.577273 
L 441.934029 545.577273 
L 442.116326 551.754545 
L 442.298624 562.05 
L 442.480921 588.818182 
L 442.663218 588.818182 
L 442.845516 590.877273 
L 443.027813 518.809091 
L 443.392408 559.990909 
L 443.574705 269.659091 
L 443.9393 580.581818 
L 444.121597 584.7 
L 444.486192 584.7 
L 444.668489 582.640909 
L 444.850786 584.7 
L 445.215381 584.7 
L 445.397678 551.754545 
L 445.579976 576.463636 
L 445.762273 578.522727 
L 445.94457 584.7 
L 446.126868 586.759091 
L 446.309165 572.345455 
L 446.491462 582.640909 
L 446.67376 543.518182 
L 446.856057 574.404545 
L 447.038354 584.7 
L 447.220652 555.872727 
L 447.402949 551.754545 
L 447.585246 586.759091 
L 447.949841 545.577273 
L 448.314436 559.990909 
L 448.496733 586.759091 
L 448.861328 590.877273 
L 449.043625 590.877273 
L 449.225922 588.818182 
L 449.40822 590.877273 
L 449.590517 588.818182 
L 449.772814 590.877273 
L 449.955112 586.759091 
L 450.319706 436.445455 
L 450.502004 111.109091 
L 450.684301 557.931818 
L 450.866598 562.05 
L 451.048896 586.759091 
L 451.231193 588.818182 
L 451.41349 566.168182 
L 451.595788 590.877273 
L 451.778085 588.818182 
L 451.960382 590.877273 
L 452.14268 545.577273 
L 452.324977 568.227273 
L 452.507274 553.813636 
L 452.689572 551.754545 
L 452.871869 568.227273 
L 453.054166 559.990909 
L 453.418761 588.818182 
L 453.601059 592.936364 
L 453.965653 582.640909 
L 454.147951 578.522727 
L 454.330248 582.640909 
L 454.694843 570.286364 
L 454.87714 576.463636 
L 455.059437 588.818182 
L 455.606329 588.818182 
L 455.788627 578.522727 
L 455.970924 559.990909 
L 456.153221 555.872727 
L 456.335519 568.227273 
L 456.517816 562.05 
L 456.700113 564.109091 
L 456.882411 564.109091 
L 457.064708 566.168182 
L 457.247005 562.05 
L 457.6116 588.818182 
L 457.793897 590.877273 
L 457.976195 588.818182 
L 458.158492 588.818182 
L 458.340789 590.877273 
L 458.523087 590.877273 
L 458.705384 586.759091 
L 458.887681 564.109091 
L 459.069979 568.227273 
L 459.252276 566.168182 
L 459.434573 568.227273 
L 459.616871 586.759091 
L 459.799168 566.168182 
L 459.981465 588.818182 
L 460.163763 557.931818 
L 460.528357 588.818182 
L 460.710655 588.818182 
L 460.892952 590.877273 
L 461.075249 590.877273 
L 461.257547 592.936364 
L 461.439844 553.813636 
L 461.986736 590.877273 
L 462.169033 590.877273 
L 462.351331 588.818182 
L 462.715925 588.818182 
L 462.898223 590.877273 
L 463.08052 582.640909 
L 463.262817 547.636364 
L 463.627412 592.936364 
L 463.992007 582.640909 
L 464.174304 588.818182 
L 464.356601 588.818182 
L 464.538899 578.522727 
L 464.903493 543.518182 
L 465.085791 545.577273 
L 465.268088 580.581818 
L 465.450386 582.640909 
L 465.632683 562.05 
L 465.81498 557.931818 
L 465.997278 584.7 
L 466.179575 584.7 
L 466.361872 574.404545 
L 466.726467 588.818182 
L 467.091062 588.818182 
L 467.273359 576.463636 
L 467.455656 533.222727 
L 467.637954 524.986364 
L 467.820251 504.395455 
L 468.002548 588.818182 
L 468.184846 580.581818 
L 468.367143 555.872727 
L 468.54944 562.05 
L 468.731738 562.05 
L 468.914035 584.7 
L 469.096332 574.404545 
L 469.27863 551.754545 
L 469.643224 543.518182 
L 469.825522 547.636364 
L 470.007819 547.636364 
L 470.372414 588.818182 
L 470.737008 588.818182 
L 470.919306 590.877273 
L 471.101603 586.759091 
L 471.2839 588.818182 
L 471.648495 588.818182 
L 471.830792 584.7 
L 472.01309 590.877273 
L 472.195387 588.818182 
L 472.377684 576.463636 
L 472.924576 588.818182 
L 473.289171 588.818182 
L 473.471468 592.936364 
L 473.653766 578.522727 
L 473.836063 584.7 
L 474.01836 553.813636 
L 474.200658 551.754545 
L 474.382955 551.754545 
L 474.565252 549.695455 
L 474.929847 588.818182 
L 475.112144 586.759091 
L 475.294442 588.818182 
L 476.023631 588.818182 
L 476.388226 584.7 
L 476.570523 590.877273 
L 476.75282 590.877273 
L 476.935118 543.518182 
L 477.117415 407.618182 
L 477.299713 360.259091 
L 477.48201 582.640909 
L 477.664307 582.640909 
L 477.846605 580.581818 
L 478.028902 549.695455 
L 478.211199 559.990909 
L 478.575794 545.577273 
L 478.940389 584.7 
L 479.304983 588.818182 
L 479.487281 588.818182 
L 479.669578 590.877273 
L 479.851875 588.818182 
L 480.21647 588.818182 
L 480.398767 562.05 
L 480.763362 588.818182 
L 480.945659 592.936364 
L 481.127957 588.818182 
L 481.492551 559.990909 
L 481.674849 562.05 
L 482.039443 590.877273 
L 482.404038 553.813636 
L 482.586335 555.872727 
L 482.768633 553.813636 
L 483.133227 564.109091 
L 483.315525 562.05 
L 483.497822 564.109091 
L 483.680119 568.227273 
L 483.862417 586.759091 
L 484.044714 588.818182 
L 484.227011 588.818182 
L 484.409309 590.877273 
L 484.591606 578.522727 
L 484.773903 582.640909 
L 484.956201 580.581818 
L 485.138498 566.168182 
L 485.320795 541.459091 
L 485.503093 533.222727 
L 485.867687 384.968182 
L 486.049985 568.227273 
L 486.232282 564.109091 
L 486.414579 564.109091 
L 486.596877 566.168182 
L 486.779174 566.168182 
L 486.961471 551.754545 
L 487.143769 580.581818 
L 487.326066 586.759091 
L 487.508363 549.695455 
L 487.872958 564.109091 
L 488.055255 588.818182 
L 488.237553 588.818182 
L 488.41985 590.877273 
L 488.602147 586.759091 
L 488.784445 588.818182 
L 489.331337 588.818182 
L 489.513634 555.872727 
L 489.695932 547.636364 
L 489.878229 582.640909 
L 490.060526 588.818182 
L 490.242824 590.877273 
L 490.425121 586.759091 
L 490.789716 483.804545 
L 491.15431 588.818182 
L 491.336608 584.7 
L 491.518905 588.818182 
L 491.701202 551.754545 
L 491.8835 555.872727 
L 492.065797 582.640909 
L 492.430392 588.818182 
L 492.794986 588.818182 
L 492.977284 590.877273 
L 493.159581 588.818182 
L 493.341878 588.818182 
L 493.524176 580.581818 
L 493.706473 582.640909 
L 493.88877 590.877273 
L 494.071068 592.936364 
L 494.253365 586.759091 
L 494.435662 588.818182 
L 494.61796 586.759091 
L 494.800257 588.818182 
L 494.982554 588.818182 
L 495.164852 592.936364 
L 495.347149 566.168182 
L 495.529446 514.690909 
L 495.711744 553.813636 
L 495.894041 553.813636 
L 496.440933 584.7 
L 496.62323 590.877273 
L 496.805528 578.522727 
L 496.987825 580.581818 
L 497.170122 586.759091 
L 497.35242 586.759091 
L 497.534717 588.818182 
L 497.717014 588.818182 
L 497.899312 559.990909 
L 498.263906 586.759091 
L 498.446204 586.759091 
L 498.628501 572.345455 
L 498.810798 572.345455 
L 498.993096 576.463636 
L 499.175393 557.931818 
L 499.35769 555.872727 
L 499.539988 557.931818 
L 499.722285 562.05 
L 499.904582 553.813636 
L 500.08688 553.813636 
L 500.451474 557.931818 
L 500.633772 529.104545 
L 500.816069 584.7 
L 501.180664 588.818182 
L 501.362961 586.759091 
L 501.545259 588.818182 
L 501.909853 588.818182 
L 502.092151 586.759091 
L 502.274448 564.109091 
L 502.456745 564.109091 
L 502.639043 586.759091 
L 502.82134 588.818182 
L 503.003637 574.404545 
L 503.185935 576.463636 
L 503.368232 553.813636 
L 503.732827 481.745455 
L 503.915124 557.931818 
L 504.097421 562.05 
L 504.462016 576.463636 
L 504.644313 568.227273 
L 504.826611 549.695455 
L 505.191205 584.7 
L 505.373503 586.759091 
L 505.5558 592.936364 
L 505.738097 586.759091 
L 505.920395 588.818182 
L 506.284989 588.818182 
L 506.467287 590.877273 
L 506.649584 564.109091 
L 506.831881 582.640909 
L 507.014179 553.813636 
L 507.196476 559.990909 
L 507.378773 586.759091 
L 507.561071 205.827273 
L 507.743368 578.522727 
L 507.925665 588.818182 
L 508.107963 588.818182 
L 508.29026 590.877273 
L 508.472557 584.7 
L 508.654855 559.990909 
L 508.837152 588.818182 
L 509.019449 541.459091 
L 509.384044 551.754545 
L 509.566341 549.695455 
L 509.748639 584.7 
L 509.930936 588.818182 
L 510.113233 584.7 
L 510.295531 588.818182 
L 510.477828 586.759091 
L 510.660125 588.818182 
L 510.842423 588.818182 
L 511.02472 586.759091 
L 511.207017 590.877273 
L 511.389315 586.759091 
L 511.753909 590.877273 
L 512.118504 590.877273 
L 512.300801 588.818182 
L 512.665396 574.404545 
L 512.847694 588.818182 
L 513.212288 553.813636 
L 513.576883 590.877273 
L 513.75918 588.818182 
L 513.941478 590.877273 
L 514.123775 574.404545 
L 514.306072 586.759091 
L 514.48837 590.877273 
L 514.670667 588.818182 
L 514.852964 590.877273 
L 515.035262 588.818182 
L 515.217559 572.345455 
L 515.582154 586.759091 
L 515.764451 582.640909 
L 515.946748 590.877273 
L 516.129046 588.818182 
L 516.311343 578.522727 
L 516.49364 555.872727 
L 516.858235 590.877273 
L 517.040532 520.868182 
L 517.22283 582.640909 
L 517.405127 162.586364 
L 517.587424 475.568182 
L 517.769722 494.1 
L 517.952019 547.636364 
L 518.134316 555.872727 
L 518.498911 592.936364 
L 518.681208 590.877273 
L 518.863506 592.936364 
L 519.410398 592.936364 
L 519.592695 601.172727 
L 520.139587 601.172727 
L 520.321884 603.231818 
L 520.504182 601.172727 
L 521.051074 601.172727 
L 521.233371 594.995455 
L 521.415668 592.936364 
L 521.597966 599.113636 
L 521.780263 599.113636 
L 521.96256 601.172727 
L 522.144858 601.172727 
L 522.327155 603.231818 
L 522.509452 601.172727 
L 523.056344 601.172727 
L 523.238642 603.231818 
L 523.420939 601.172727 
L 523.967831 601.172727 
L 524.150129 603.231818 
L 524.332426 601.172727 
L 524.514723 603.231818 
L 524.697021 601.172727 
L 524.879318 603.231818 
L 525.608507 603.231818 
L 525.790805 601.172727 
L 525.973102 603.231818 
L 526.155399 601.172727 
L 526.337697 601.172727 
L 526.519994 603.231818 
L 526.702291 601.172727 
L 526.884589 603.231818 
L 527.066886 603.231818 
L 527.249183 601.172727 
L 527.431481 603.231818 
L 527.613778 601.172727 
L 527.796075 603.231818 
L 527.978373 601.172727 
L 528.16067 603.231818 
L 528.525265 603.231818 
L 528.707562 601.172727 
L 528.889859 602.202273 
L 529.072157 601.172727 
L 529.254454 603.231818 
L 529.983643 603.231818 
L 530.165941 601.172727 
L 530.348238 597.054545 
L 530.712833 601.172727 
L 531.077427 601.172727 
L 531.259725 603.231818 
L 531.442022 601.172727 
L 531.624319 603.231818 
L 531.806617 601.172727 
L 531.988914 603.231818 
L 532.171211 603.231818 
L 532.353509 601.172727 
L 532.535806 603.231818 
L 532.718103 601.172727 
L 533.082698 605.290909 
L 533.264995 601.172727 
L 533.447293 601.172727 
L 533.62959 603.231818 
L 533.811887 601.172727 
L 533.994185 603.231818 
L 534.176482 601.172727 
L 534.358779 603.231818 
L 534.541077 603.231818 
L 534.723374 601.172727 
L 534.905671 603.231818 
L 535.087969 601.172727 
L 535.270266 603.231818 
L 535.452563 601.172727 
L 535.634861 603.231818 
L 535.999456 603.231818 
L 536.181753 601.172727 
L 536.36405 601.172727 
L 536.546348 603.231818 
L 536.910942 603.231818 
L 537.09324 601.172727 
L 537.275537 603.231818 
L 537.457834 601.172727 
L 537.640132 601.172727 
L 537.822429 603.231818 
L 538.004726 601.172727 
L 538.187024 603.231818 
L 538.733916 603.231818 
L 538.916213 601.172727 
L 539.09851 603.231818 
L 539.280808 603.231818 
L 539.463105 594.995455 
L 539.645402 601.172727 
L 539.8277 601.172727 
L 540.009997 603.231818 
L 540.192294 603.231818 
L 540.374592 599.113636 
L 540.556889 603.231818 
L 540.739186 601.172727 
L 540.921484 601.172727 
L 541.103781 603.231818 
L 541.286078 601.172727 
L 541.468376 603.231818 
L 541.650673 603.231818 
L 541.83297 601.172727 
L 542.015268 603.231818 
L 542.379862 603.231818 
L 542.56216 601.172727 
L 542.744457 603.231818 
L 542.926754 601.172727 
L 543.109052 603.231818 
L 543.291349 601.172727 
L 543.655944 601.172727 
L 543.838241 603.231818 
L 544.020538 603.231818 
L 544.202836 601.172727 
L 544.385133 603.231818 
L 544.56743 603.231818 
L 544.749728 574.404545 
L 544.932025 582.640909 
L 545.114322 584.7 
L 545.29662 584.7 
L 545.478917 586.759091 
L 546.025809 586.759091 
L 546.208106 574.404545 
L 546.390404 533.222727 
L 546.572701 216.122727 
L 546.754998 537.340909 
L 546.937296 576.463636 
L 547.30189 586.759091 
L 547.484188 584.7 
L 547.848783 238.772727 
L 548.03108 551.754545 
L 548.213377 588.818182 
L 548.395675 590.877273 
L 548.942567 584.7 
L 549.124864 572.345455 
L 549.307161 570.286364 
L 549.489459 588.818182 
L 549.671756 588.818182 
L 549.854053 590.877273 
L 550.036351 588.818182 
L 550.218648 592.936364 
L 550.583243 586.759091 
L 550.76554 584.7 
L 550.947837 559.990909 
L 551.130135 559.990909 
L 551.312432 574.404545 
L 551.494729 555.872727 
L 552.041621 562.05 
L 552.223919 444.681818 
L 552.406216 199.65 
L 552.588513 514.690909 
L 552.770811 547.636364 
L 553.135405 551.754545 
L 553.317703 562.05 
L 553.5 588.818182 
L 553.682297 588.818182 
L 553.864595 592.936364 
L 554.046892 588.818182 
L 554.229189 588.818182 
L 554.411487 590.877273 
L 554.776081 590.877273 
L 554.958379 566.168182 
L 555.140676 557.931818 
L 555.322973 562.05 
L 555.505271 562.05 
L 555.869865 566.168182 
L 556.052163 574.404545 
L 556.23446 592.936364 
L 556.416757 559.990909 
L 556.599055 557.931818 
L 556.781352 578.522727 
L 556.963649 559.990909 
L 557.145947 553.813636 
L 557.510541 590.877273 
L 557.692839 586.759091 
L 557.875136 555.872727 
L 558.057433 553.813636 
L 558.239731 586.759091 
L 558.422028 588.818182 
L 558.604325 574.404545 
L 558.96892 590.877273 
L 559.151217 586.759091 
L 559.333515 549.695455 
L 559.515812 551.754545 
L 559.69811 559.990909 
L 560.062704 564.109091 
L 560.245002 564.109091 
L 560.427299 562.05 
L 560.609596 568.227273 
L 560.791894 559.990909 
L 560.974191 559.990909 
L 561.338786 502.336364 
L 561.521083 514.690909 
L 561.70338 551.754545 
L 562.067975 562.05 
L 562.250272 588.818182 
L 562.43257 588.818182 
L 562.614867 590.877273 
L 562.797164 588.818182 
L 562.979462 588.818182 
L 563.161759 590.877273 
L 563.526354 590.877273 
L 563.708651 562.05 
L 563.890948 557.931818 
L 564.073246 568.227273 
L 564.255543 566.168182 
L 564.620138 557.931818 
L 564.802435 557.931818 
L 564.984732 551.754545 
L 565.16703 568.227273 
L 565.349327 557.931818 
L 565.531624 555.872727 
L 565.713922 555.872727 
L 565.896219 574.404545 
L 566.078516 553.813636 
L 566.260814 553.813636 
L 566.443111 555.872727 
L 566.625408 586.759091 
L 566.807706 588.818182 
L 567.1723 588.818182 
L 567.354598 592.936364 
L 567.536895 588.818182 
L 567.719192 588.818182 
L 567.90149 582.640909 
L 568.083787 588.818182 
L 568.266084 590.877273 
L 568.630679 590.877273 
L 568.812976 588.818182 
L 568.995274 590.877273 
L 569.177571 588.818182 
L 569.359868 590.877273 
L 569.542166 588.818182 
L 569.724463 582.640909 
L 569.90676 553.813636 
L 570.089058 562.05 
L 570.271355 562.05 
L 570.453652 564.109091 
L 570.63595 564.109091 
L 571.000544 582.640909 
L 571.365139 588.818182 
L 571.729734 588.818182 
L 571.912031 590.877273 
L 572.094329 586.759091 
L 572.276626 588.818182 
L 572.458923 582.640909 
L 572.641221 590.877273 
L 573.005815 590.877273 
L 573.188113 592.936364 
L 573.735005 555.872727 
L 574.099599 551.754545 
L 574.464194 568.227273 
L 574.646491 566.168182 
L 574.828789 566.168182 
L 575.011086 564.109091 
L 575.193383 588.818182 
L 575.740275 588.818182 
L 575.922573 590.877273 
L 576.10487 588.818182 
L 576.469465 588.818182 
L 576.651762 586.759091 
L 576.834059 568.227273 
L 577.016357 570.286364 
L 577.198654 584.7 
L 577.380951 588.818182 
L 578.110141 588.818182 
L 578.292438 584.7 
L 578.474735 555.872727 
L 578.657033 553.813636 
L 578.83933 555.872727 
L 579.021627 568.227273 
L 579.203925 566.168182 
L 579.568519 586.759091 
L 579.750817 590.877273 
L 580.115411 582.640909 
L 580.297709 588.818182 
L 580.662303 588.818182 
L 580.844601 590.877273 
L 581.209195 590.877273 
L 581.391493 588.818182 
L 581.756087 557.931818 
L 581.938385 559.990909 
L 582.120682 551.754545 
L 582.302979 572.345455 
L 582.485277 574.404545 
L 582.667574 568.227273 
L 582.849871 574.404545 
L 583.214466 549.695455 
L 583.396764 555.872727 
L 583.579061 555.872727 
L 583.761358 557.931818 
L 583.943656 580.581818 
L 584.125953 586.759091 
L 584.30825 588.818182 
L 584.490548 588.818182 
L 584.672845 590.877273 
L 584.855142 590.877273 
L 585.03744 588.818182 
L 585.219737 592.936364 
L 585.402034 584.7 
L 585.584332 551.754545 
L 585.948926 588.818182 
L 586.313521 588.818182 
L 586.495818 590.877273 
L 586.678116 557.931818 
L 586.860413 582.640909 
L 587.04271 588.818182 
L 587.225008 590.877273 
L 587.407305 559.990909 
L 587.589602 494.1 
L 587.7719 183.177273 
L 587.954197 494.1 
L 588.318792 588.818182 
L 588.501089 588.818182 
L 588.683386 590.877273 
L 588.865684 588.818182 
L 589.047981 590.877273 
L 589.230278 576.463636 
L 589.594873 588.818182 
L 589.77717 588.818182 
L 590.324062 506.454545 
L 590.50636 508.513636 
L 590.688657 570.286364 
L 590.870954 292.309091 
L 591.417846 553.813636 
L 591.600144 473.509091 
L 591.782441 220.240909 
L 591.964738 557.931818 
L 592.147036 566.168182 
L 592.329333 566.168182 
L 592.51163 572.345455 
L 592.876225 590.877273 
L 593.058522 588.818182 
L 593.423117 588.818182 
L 593.605414 590.877273 
L 593.787712 588.818182 
L 593.970009 592.936364 
L 594.334604 578.522727 
L 594.516901 590.877273 
L 594.699199 588.818182 
L 594.881496 590.877273 
L 595.063793 590.877273 
L 595.246091 559.990909 
L 595.428388 562.05 
L 595.610685 570.286364 
L 595.792983 572.345455 
L 595.97528 588.818182 
L 596.339875 588.818182 
L 596.522172 557.931818 
L 596.704469 553.813636 
L 596.886767 562.05 
L 597.069064 586.759091 
L 597.433659 590.877273 
L 597.615956 590.877273 
L 597.798253 588.818182 
L 597.980551 588.818182 
L 598.162848 590.877273 
L 598.345145 588.818182 
L 598.527443 566.168182 
L 598.70974 590.877273 
L 598.892037 592.936364 
L 599.074335 588.818182 
L 599.256632 549.695455 
L 599.621227 380.85 
L 599.803524 568.227273 
L 599.985821 586.759091 
L 600.168119 584.7 
L 600.350416 584.7 
L 600.897308 539.4 
L 601.079605 481.745455 
L 601.261903 545.577273 
L 601.626497 582.640909 
L 601.808795 586.759091 
L 602.537984 586.759091 
L 602.720281 588.818182 
L 602.902579 578.522727 
L 603.267173 588.818182 
L 603.996363 588.818182 
L 604.17866 578.522727 
L 604.360957 588.818182 
L 604.543255 590.877273 
L 605.090147 557.931818 
L 605.272444 557.931818 
L 605.454741 564.109091 
L 605.637039 564.109091 
L 605.819336 547.636364 
L 606.001633 584.7 
L 606.183931 588.818182 
L 606.366228 588.818182 
L 606.548526 590.877273 
L 606.730823 588.818182 
L 606.91312 590.877273 
L 607.095418 588.818182 
L 607.277715 574.404545 
L 607.460012 547.636364 
L 607.64231 543.518182 
L 607.824607 559.990909 
L 608.006904 588.818182 
L 608.189202 586.759091 
L 608.371499 590.877273 
L 608.553796 498.218182 
L 608.736094 487.922727 
L 608.918391 205.827273 
L 609.100688 578.522727 
L 609.282986 584.7 
L 609.465283 584.7 
L 609.829878 553.813636 
L 610.012175 557.931818 
L 610.37677 588.818182 
L 610.559067 588.818182 
L 610.741364 586.759091 
L 610.923662 590.877273 
L 611.105959 586.759091 
L 611.288256 588.818182 
L 611.470554 588.818182 
L 611.652851 549.695455 
L 611.835148 551.754545 
L 612.199743 529.104545 
L 612.746635 588.818182 
L 612.928932 586.759091 
L 613.11123 590.877273 
L 613.293527 580.581818 
L 613.658122 537.340909 
L 613.840419 545.577273 
L 614.022716 547.636364 
L 614.387311 508.513636 
L 614.751906 586.759091 
L 614.934203 586.759091 
L 615.1165 588.818182 
L 615.298798 586.759091 
L 615.481095 590.877273 
L 615.663392 588.818182 
L 615.84569 549.695455 
L 616.027987 582.640909 
L 616.210284 584.7 
L 616.392582 580.581818 
L 616.574879 588.818182 
L 616.757176 588.818182 
L 616.939474 592.936364 
L 617.121771 578.522727 
L 617.668663 588.818182 
L 617.85096 564.109091 
L 618.033258 564.109091 
L 618.215555 546.606818 
L 618.397853 555.872727 
L 618.762447 506.454545 
L 618.944745 572.345455 
L 619.127042 584.7 
L 619.309339 586.759091 
L 619.491637 584.7 
L 619.673934 574.404545 
L 619.856231 576.463636 
L 620.038529 582.640909 
L 620.220826 582.640909 
L 620.403123 578.522727 
L 620.585421 584.7 
L 621.31461 584.7 
L 621.496907 559.990909 
L 621.679205 562.05 
L 621.861502 586.759091 
L 622.043799 559.990909 
L 622.226097 559.990909 
L 622.408394 531.163636 
L 622.590691 547.636364 
L 622.772989 549.695455 
L 622.955286 564.109091 
L 623.137583 588.818182 
L 624.04907 588.818182 
L 624.231367 592.936364 
L 624.413665 588.818182 
L 624.595962 562.05 
L 624.778259 582.640909 
L 624.960557 588.818182 
L 625.325151 588.818182 
L 625.507449 590.877273 
L 625.872043 543.518182 
L 626.054341 578.522727 
L 626.236638 588.818182 
L 626.418935 584.7 
L 626.601233 588.818182 
L 626.78353 557.931818 
L 626.965827 555.872727 
L 627.148125 549.695455 
L 627.330422 557.931818 
L 627.512719 586.759091 
L 627.695017 588.818182 
L 628.059611 588.818182 
L 628.241909 590.877273 
L 628.424206 588.818182 
L 628.606503 590.877273 
L 628.788801 588.818182 
L 628.971098 570.286364 
L 629.335693 590.877273 
L 629.51799 588.818182 
L 629.700287 588.818182 
L 629.882585 559.990909 
L 630.24718 586.759091 
L 630.429477 588.818182 
L 630.611774 588.818182 
L 630.794072 590.877273 
L 630.976369 576.463636 
L 631.158666 492.040909 
L 631.340964 158.468182 
L 631.523261 489.981818 
L 632.25245 582.640909 
L 632.434748 588.818182 
L 632.617045 586.759091 
L 632.98164 586.759091 
L 633.163937 588.818182 
L 633.346234 580.581818 
L 633.528532 580.581818 
L 633.710829 557.931818 
L 634.075424 586.759091 
L 634.257721 586.759091 
L 634.440018 568.227273 
L 634.622316 566.168182 
L 634.804613 584.7 
L 634.98691 584.7 
L 635.169208 562.05 
L 635.533802 588.818182 
L 635.898397 481.745455 
L 636.080694 496.159091 
L 636.445289 586.759091 
L 636.809884 586.759091 
L 636.992181 588.818182 
L 637.174478 588.818182 
L 637.356776 590.877273 
L 637.539073 586.759091 
L 637.72137 588.818182 
L 638.085965 463.213636 
L 638.45056 586.759091 
L 638.632857 588.818182 
L 638.815154 584.7 
L 638.997452 197.590909 
L 639.179749 448.8 
L 639.544344 580.581818 
L 639.726641 586.759091 
L 640.091236 553.813636 
L 640.273533 551.754545 
L 640.45583 551.754545 
L 640.638128 553.813636 
L 641.002722 584.7 
L 641.367317 588.818182 
L 641.549614 586.759091 
L 641.731912 588.818182 
L 641.914209 586.759091 
L 642.096507 588.818182 
L 642.278804 545.577273 
L 642.461101 475.568182 
L 642.643399 469.390909 
L 642.825696 586.759091 
L 643.007993 588.818182 
L 643.190291 588.818182 
L 643.372588 586.759091 
L 643.554885 574.404545 
L 643.737183 586.759091 
L 643.91948 574.404545 
L 644.101777 535.281818 
L 644.284075 541.459091 
L 644.466372 551.754545 
L 644.648669 549.695455 
L 644.830967 553.813636 
L 645.560156 588.818182 
L 646.107048 588.818182 
L 646.289345 590.877273 
L 646.471643 586.759091 
L 646.836237 533.222727 
L 647.018535 586.759091 
L 647.200832 588.818182 
L 647.383129 572.345455 
L 647.565427 586.759091 
L 647.747724 535.281818 
L 647.930021 527.045455 
L 648.112319 586.759091 
L 648.294616 572.345455 
L 648.476913 586.759091 
L 648.659211 553.813636 
L 648.841508 555.872727 
L 649.206103 555.872727 
L 649.3884 549.695455 
L 649.570697 582.640909 
L 649.752995 588.818182 
L 650.117589 588.818182 
L 650.299887 576.463636 
L 650.664481 586.759091 
L 650.846779 586.759091 
L 651.029076 508.513636 
L 651.211373 282.013636 
L 651.393671 541.459091 
L 651.575968 524.986364 
L 651.940563 590.877273 
L 652.12286 537.340909 
L 652.305157 570.286364 
L 652.487455 564.109091 
L 652.669752 562.05 
L 653.034347 551.754545 
L 653.216644 547.636364 
L 653.398941 551.754545 
L 653.581239 559.990909 
L 653.763536 545.577273 
L 654.128131 590.877273 
L 654.492726 586.759091 
L 654.675023 588.818182 
L 655.221915 588.818182 
L 655.404212 568.227273 
L 655.58651 454.977273 
L 655.768807 574.404545 
L 655.951104 588.818182 
L 656.497996 578.522727 
L 656.680294 551.754545 
L 656.862591 559.990909 
L 657.227186 539.4 
L 657.409483 475.568182 
L 657.59178 461.154545 
L 657.956375 549.695455 
L 658.138672 339.668182 
L 658.32097 545.577273 
L 658.685564 584.7 
L 659.050159 584.7 
L 659.232456 588.818182 
L 659.414754 586.759091 
L 659.597051 586.759091 
L 659.961646 500.277273 
L 660.143943 549.695455 
L 660.508538 588.818182 
L 660.690835 588.818182 
L 660.873132 584.7 
L 661.237727 551.754545 
L 661.420024 553.813636 
L 661.784619 545.577273 
L 661.966916 545.577273 
L 662.149214 547.636364 
L 662.331511 541.459091 
L 662.513808 539.4 
L 662.696106 572.345455 
L 663.242998 582.640909 
L 663.425295 582.640909 
L 663.607592 584.7 
L 663.78989 582.640909 
L 663.972187 582.640909 
L 664.154484 568.227273 
L 664.336782 473.509091 
L 664.519079 489.981818 
L 664.701376 461.154545 
L 665.065971 588.818182 
L 665.248269 570.286364 
L 665.430566 586.759091 
L 665.612863 586.759091 
L 665.977458 531.163636 
L 666.159755 520.868182 
L 666.342053 557.931818 
L 666.706647 473.509091 
L 666.888945 557.931818 
L 667.071242 584.7 
L 667.253539 584.7 
L 667.435837 582.640909 
L 667.800431 588.818182 
L 667.982729 586.759091 
L 668.165026 590.877273 
L 668.347323 586.759091 
L 668.711918 467.331818 
L 668.894215 471.45 
L 669.25881 586.759091 
L 669.441107 588.818182 
L 669.805702 314.959091 
L 669.987999 566.168182 
L 670.170297 566.168182 
L 670.352594 533.222727 
L 670.534891 555.872727 
L 670.717189 553.813636 
L 670.899486 547.636364 
L 671.081783 557.931818 
L 671.264081 557.931818 
L 671.810973 588.818182 
L 671.99327 586.759091 
L 672.175567 588.818182 
L 672.357865 586.759091 
L 672.540162 588.818182 
L 672.722459 588.818182 
L 672.904757 496.159091 
L 673.087054 539.4 
L 673.269351 500.277273 
L 673.451649 489.981818 
L 673.633946 566.168182 
L 673.816243 576.463636 
L 674.180838 580.581818 
L 674.363135 588.818182 
L 674.545433 582.640909 
L 674.72773 543.518182 
L 674.910027 537.340909 
L 675.092325 543.518182 
L 675.274622 562.05 
L 675.456919 559.990909 
L 675.639217 555.872727 
L 676.003811 590.877273 
L 676.186109 586.759091 
L 676.368406 586.759091 
L 676.550703 588.818182 
L 676.733001 588.818182 
L 676.915298 559.990909 
L 677.097596 568.227273 
L 677.279893 586.759091 
L 677.46219 572.345455 
L 677.644488 522.927273 
L 677.826785 273.777273 
L 678.009082 294.368182 
L 678.19138 549.695455 
L 678.373677 588.818182 
L 678.555974 566.168182 
L 678.738272 566.168182 
L 678.920569 562.05 
L 679.102866 535.281818 
L 679.285164 566.168182 
L 679.467461 564.109091 
L 679.649758 557.931818 
L 679.832056 555.872727 
L 680.014353 564.109091 
L 680.19665 586.759091 
L 680.378948 584.7 
L 680.743542 584.7 
L 680.92584 572.345455 
L 681.290434 584.7 
L 681.472732 584.7 
L 681.655029 586.759091 
L 681.837326 531.163636 
L 682.019624 524.986364 
L 682.201921 564.109091 
L 682.384218 329.372727 
L 682.748813 261.422727 
L 683.113408 391.145455 
L 683.295705 531.163636 
L 683.478002 483.804545 
L 683.6603 568.227273 
L 684.024894 549.695455 
L 684.207192 580.581818 
L 684.389489 551.754545 
L 684.571786 564.109091 
L 684.754084 584.7 
L 685.300976 590.877273 
L 685.483273 588.818182 
L 685.847868 588.818182 
L 686.212462 566.168182 
L 686.39476 588.818182 
L 686.577057 588.818182 
L 686.941652 578.522727 
L 687.123949 553.813636 
L 687.306246 580.581818 
L 687.670841 541.459091 
L 687.853138 547.636364 
L 688.035436 557.931818 
L 688.217733 555.872727 
L 688.40003 555.872727 
L 688.582328 553.813636 
L 688.764625 553.813636 
L 689.12922 586.759091 
L 689.311517 588.818182 
L 689.493815 586.759091 
L 689.676112 588.818182 
L 689.858409 584.7 
L 690.040707 584.7 
L 690.223004 586.759091 
L 690.587599 541.459091 
L 690.769896 549.695455 
L 690.952193 582.640909 
L 691.134491 516.75 
L 691.499085 586.759091 
L 691.681383 576.463636 
L 691.86368 533.222727 
L 692.410572 557.931818 
L 692.592869 553.813636 
L 692.775167 553.813636 
L 692.957464 562.05 
L 693.139761 541.459091 
L 693.322059 545.577273 
L 693.504356 580.581818 
L 693.686653 584.7 
L 693.868951 582.640909 
L 694.051248 582.640909 
L 694.233545 586.759091 
L 694.415843 584.7 
L 694.59814 584.7 
L 694.780437 580.581818 
L 694.962735 570.286364 
L 695.145032 572.345455 
L 695.327329 582.640909 
L 695.509627 568.227273 
L 695.874221 578.522727 
L 696.056519 551.754545 
L 696.238816 557.931818 
L 696.421113 539.4 
L 696.603411 553.813636 
L 696.785708 557.931818 
L 697.150303 502.336364 
L 697.879492 590.877273 
L 698.061789 586.759091 
L 698.244087 588.818182 
L 698.790979 588.818182 
L 698.973276 590.877273 
L 699.155573 580.581818 
L 699.337871 537.340909 
L 699.520168 529.104545 
L 699.884763 570.286364 
L 700.06706 559.990909 
L 700.249357 562.05 
L 700.431655 568.227273 
L 700.79625 586.759091 
L 700.978547 580.581818 
L 701.160844 580.581818 
L 701.343142 574.404545 
L 701.525439 574.404545 
L 701.707736 555.872727 
L 702.254628 586.759091 
L 702.436926 588.818182 
L 702.983818 588.818182 
L 703.166115 586.759091 
L 703.348412 592.936364 
L 703.53071 570.286364 
L 703.895304 512.631818 
L 704.077602 238.772727 
L 704.259899 298.486364 
L 704.442196 568.227273 
L 704.624494 557.931818 
L 704.806791 574.404545 
L 704.989088 566.168182 
L 705.171386 584.7 
L 705.353683 578.522727 
L 705.53598 559.990909 
L 705.718278 557.931818 
L 705.900575 574.404545 
L 706.082872 570.286364 
L 706.26517 570.286364 
L 706.447467 574.404545 
L 706.812062 588.818182 
L 706.994359 586.759091 
L 707.176656 588.818182 
L 707.358954 586.759091 
L 707.541251 588.818182 
L 707.723548 588.818182 
L 707.905846 562.05 
L 708.088143 588.818182 
L 708.27044 590.877273 
L 708.452738 588.818182 
L 708.635035 564.109091 
L 708.817332 566.168182 
L 708.99963 572.345455 
L 709.181927 588.818182 
L 709.364224 588.818182 
L 709.546522 555.872727 
L 709.728819 559.990909 
L 709.911116 582.640909 
L 710.458008 481.745455 
L 710.640306 559.990909 
L 710.822603 586.759091 
L 711.0049 586.759091 
L 711.187198 588.818182 
L 711.369495 588.818182 
L 711.551792 576.463636 
L 711.916387 588.818182 
L 712.098684 588.818182 
L 712.463279 553.813636 
L 712.645577 576.463636 
L 712.827874 578.522727 
L 713.010171 588.818182 
L 713.192469 574.404545 
L 713.374766 588.818182 
L 713.557063 586.759091 
L 713.739361 576.463636 
L 713.921658 549.695455 
L 714.103955 551.754545 
L 714.46855 578.522727 
L 714.650847 549.695455 
L 714.833145 566.168182 
L 715.015442 572.345455 
L 715.380037 588.818182 
L 715.562334 592.936364 
L 715.744631 586.759091 
L 715.926929 588.818182 
L 716.473821 588.818182 
L 716.838415 545.577273 
L 717.020713 588.818182 
L 717.20301 590.877273 
L 717.385307 586.759091 
L 717.567605 549.695455 
L 717.749902 547.636364 
L 717.932199 553.813636 
L 718.114497 586.759091 
L 718.479091 586.759091 
L 719.025983 531.163636 
L 719.93747 588.818182 
L 720.119767 592.936364 
L 720.302065 588.818182 
L 720.666659 588.818182 
L 720.848957 590.877273 
L 721.031254 588.818182 
L 721.395849 539.4 
L 721.578146 564.109091 
L 721.760443 467.331818 
L 721.942741 179.059091 
L 722.125038 487.922727 
L 722.307335 584.7 
L 722.489633 555.872727 
L 722.67193 574.404545 
L 723.036525 559.990909 
L 723.218822 557.931818 
L 723.401119 559.990909 
L 723.765714 539.4 
L 723.948011 574.404545 
L 724.312606 586.759091 
L 724.494904 586.759091 
L 724.677201 588.818182 
L 724.859498 586.759091 
L 725.041796 590.877273 
L 725.224093 588.818182 
L 725.588688 520.868182 
L 725.770985 541.459091 
L 725.953282 580.581818 
L 726.13558 545.577273 
L 726.317877 543.518182 
L 726.682472 572.345455 
L 726.864769 582.640909 
L 727.047066 572.345455 
L 727.229364 553.813636 
L 727.411661 562.05 
L 727.593958 562.05 
L 727.958553 549.695455 
L 728.14085 531.163636 
L 728.505445 582.640909 
L 728.687742 592.936364 
L 729.052337 586.759091 
L 729.234634 588.818182 
L 729.416932 586.759091 
L 729.599229 588.818182 
L 729.781526 570.286364 
L 729.963824 514.690909 
L 730.146121 559.990909 
L 730.328418 512.631818 
L 730.510716 520.868182 
L 730.693013 535.281818 
L 730.87531 566.168182 
L 731.057608 576.463636 
L 731.239905 578.522727 
L 731.422202 564.109091 
L 731.6045 576.463636 
L 731.786797 559.990909 
L 731.969094 564.109091 
L 732.515986 557.931818 
L 732.698284 586.759091 
L 733.062878 590.877273 
L 733.245176 588.818182 
L 733.792068 588.818182 
L 733.974365 590.877273 
L 734.33896 545.577273 
L 734.521257 541.459091 
L 734.703554 543.518182 
L 734.885852 588.818182 
L 735.068149 562.05 
L 735.250446 568.227273 
L 735.432744 568.227273 
L 735.615041 566.168182 
L 735.797339 562.05 
L 735.979636 553.813636 
L 736.344231 564.109091 
L 736.526528 562.05 
L 736.891123 498.218182 
L 737.07342 582.640909 
L 737.255717 590.877273 
L 737.438015 588.818182 
L 738.349501 588.818182 
L 738.714096 518.809091 
L 738.896393 562.05 
L 739.078691 555.872727 
L 739.260988 576.463636 
L 739.443285 559.990909 
L 739.625583 570.286364 
L 739.80788 564.109091 
L 739.990177 553.813636 
L 740.172475 553.813636 
L 740.354772 568.227273 
L 740.537069 551.754545 
L 740.719367 555.872727 
L 740.901664 553.813636 
L 741.083961 557.931818 
L 741.266259 582.640909 
L 741.630853 590.877273 
L 741.813151 588.818182 
L 741.995448 578.522727 
L 742.360043 582.640909 
L 742.54234 588.818182 
L 742.724637 584.7 
L 742.906935 535.281818 
L 743.089232 527.045455 
L 743.453827 362.318182 
L 743.636124 168.763636 
L 743.818421 555.872727 
L 744.000719 562.05 
L 744.183016 572.345455 
L 744.365313 555.872727 
L 744.547611 559.990909 
L 744.729908 559.990909 
L 744.912205 562.05 
L 745.094503 557.931818 
L 745.2768 559.990909 
L 745.459097 535.281818 
L 745.823692 588.818182 
L 746.005989 590.877273 
L 746.188287 590.877273 
L 746.370584 588.818182 
L 746.735179 588.818182 
L 746.917476 590.877273 
L 747.464368 527.045455 
L 747.646666 555.872727 
L 748.01126 562.05 
L 748.193558 543.518182 
L 748.558152 553.813636 
L 748.74045 545.577273 
L 748.922747 557.931818 
L 749.105044 553.813636 
L 749.287342 562.05 
L 749.469639 562.05 
L 749.651936 555.872727 
L 750.016531 568.227273 
L 750.198828 586.759091 
L 750.381126 592.936364 
L 750.563423 586.759091 
L 750.74572 588.818182 
L 750.928018 588.818182 
L 751.110315 586.759091 
L 751.292612 588.818182 
L 751.47491 549.695455 
L 751.657207 555.872727 
L 751.839504 545.577273 
L 752.204099 559.990909 
L 752.386396 562.05 
L 752.568694 555.872727 
L 752.750991 557.931818 
L 752.933288 568.227273 
L 753.115586 566.168182 
L 753.662478 555.872727 
L 753.844775 562.05 
L 754.027072 559.990909 
L 754.20937 551.754545 
L 754.391667 551.754545 
L 754.573964 557.931818 
L 754.756262 584.7 
L 754.938559 582.640909 
L 755.303154 588.818182 
L 755.667748 588.818182 
L 755.850046 562.05 
L 756.032343 553.813636 
L 756.21464 559.990909 
L 756.396938 572.345455 
L 756.579235 566.168182 
L 756.761532 580.581818 
L 756.94383 555.872727 
L 757.126127 562.05 
L 757.308424 557.931818 
L 757.490722 562.05 
L 757.673019 553.813636 
L 757.855316 564.109091 
L 758.037614 557.931818 
L 758.219911 570.286364 
L 758.402208 559.990909 
L 758.584506 559.990909 
L 758.766803 562.05 
L 758.9491 586.759091 
L 759.131398 588.818182 
L 759.313695 588.818182 
L 759.495993 590.877273 
L 759.67829 588.818182 
L 760.042885 588.818182 
L 760.225182 590.877273 
L 760.589777 557.931818 
L 760.772074 557.931818 
L 761.318966 570.286364 
L 761.501263 557.931818 
L 761.683561 562.05 
L 762.048155 504.395455 
L 762.41275 562.05 
L 762.595047 559.990909 
L 762.777345 549.695455 
L 762.959642 562.05 
L 763.141939 562.05 
L 763.324237 557.931818 
L 763.688831 588.818182 
L 763.871129 586.759091 
L 764.053426 588.818182 
L 764.600318 588.818182 
L 764.782615 566.168182 
L 764.964913 557.931818 
L 765.14721 570.286364 
L 765.329507 570.286364 
L 765.511805 549.695455 
L 765.694102 553.813636 
L 766.058697 524.986364 
L 766.240994 555.872727 
L 766.423291 370.554545 
L 766.605589 401.440909 
L 766.787886 551.754545 
L 766.970183 549.695455 
L 767.152481 549.695455 
L 767.334778 551.754545 
L 767.517075 578.522727 
L 767.699373 586.759091 
L 768.063967 586.759091 
L 768.246265 588.818182 
L 768.428562 586.759091 
L 768.610859 590.877273 
L 768.793157 586.759091 
L 768.975454 586.759091 
L 769.157751 549.695455 
L 769.340049 557.931818 
L 769.522346 574.404545 
L 769.704643 527.045455 
L 769.886941 514.690909 
L 770.069238 512.631818 
L 770.251535 562.05 
L 770.433833 559.990909 
L 770.61613 553.813636 
L 770.798427 551.754545 
L 770.980725 562.05 
L 771.163022 562.05 
L 771.34532 559.990909 
L 771.527617 559.990909 
L 771.709914 545.577273 
L 771.892212 584.7 
L 772.074509 584.7 
L 772.439104 588.818182 
L 772.621401 576.463636 
L 772.803698 576.463636 
L 772.985996 582.640909 
L 773.168293 584.7 
L 773.35059 578.522727 
L 773.532888 547.636364 
L 773.715185 543.518182 
L 773.897482 545.577273 
L 774.07978 566.168182 
L 774.262077 570.286364 
L 774.444374 541.459091 
L 774.808969 562.05 
L 774.991266 562.05 
L 775.173564 537.340909 
L 775.355861 539.4 
L 775.538158 527.045455 
L 775.720456 473.509091 
L 775.902753 551.754545 
L 776.08505 557.931818 
L 776.267348 559.990909 
L 776.449645 588.818182 
L 776.631942 590.877273 
L 776.81424 588.818182 
L 777.543429 588.818182 
L 777.908024 555.872727 
L 778.090321 553.813636 
L 778.272618 582.640909 
L 778.454916 590.877273 
L 778.637213 559.990909 
L 778.81951 553.813636 
L 779.001808 551.754545 
L 779.184105 547.636364 
L 779.366402 562.05 
L 779.5487 566.168182 
L 779.730997 553.813636 
L 779.913294 557.931818 
L 780.095592 555.872727 
L 780.460186 555.872727 
L 780.824781 580.581818 
L 781.007078 588.818182 
L 781.189376 586.759091 
L 781.55397 586.759091 
L 781.736268 584.7 
L 782.100862 584.7 
L 782.28316 562.05 
L 782.465457 562.05 
L 782.647754 564.109091 
L 782.830052 539.4 
L 783.012349 566.168182 
L 783.194647 555.872727 
L 783.376944 529.104545 
L 783.559241 244.95 
L 783.741539 514.690909 
L 784.106133 582.640909 
L 784.470728 500.277273 
L 785.382215 582.640909 
L 785.564512 582.640909 
L 785.746809 580.581818 
L 785.929107 580.581818 
L 786.111404 582.640909 
L 786.293701 582.640909 
L 786.475999 580.581818 
L 786.658296 543.518182 
L 786.840593 545.577273 
L 787.022891 539.4 
L 787.205188 566.168182 
L 787.387485 568.227273 
L 787.569783 547.636364 
L 787.75208 578.522727 
L 788.116675 553.813636 
L 788.298972 555.872727 
L 788.481269 555.872727 
L 788.663567 557.931818 
L 788.845864 564.109091 
L 789.028161 555.872727 
L 789.210459 562.05 
L 789.392756 562.05 
L 789.575053 582.640909 
L 789.757351 588.818182 
L 789.939648 586.759091 
L 790.121945 586.759091 
L 790.304243 588.818182 
L 790.48654 586.759091 
L 790.668837 588.818182 
L 790.851135 586.759091 
L 791.033432 547.636364 
L 791.215729 541.459091 
L 791.398027 539.4 
L 791.762621 582.640909 
L 792.127216 555.872727 
L 792.309513 557.931818 
L 792.491811 562.05 
L 792.674108 531.163636 
L 792.856405 527.045455 
L 793.038703 494.1 
L 793.403297 559.990909 
L 793.585595 553.813636 
L 793.767892 539.4 
L 794.132487 580.581818 
L 794.314784 582.640909 
L 794.861676 582.640909 
L 795.043974 586.759091 
L 795.226271 582.640909 
L 795.408568 572.345455 
L 795.590866 514.690909 
L 795.773163 506.454545 
L 795.95546 216.122727 
L 796.320055 555.872727 
L 796.502352 559.990909 
L 796.68465 557.931818 
L 796.866947 557.931818 
L 797.049244 549.695455 
L 797.231542 522.927273 
L 797.413839 549.695455 
L 797.596136 555.872727 
L 797.778434 555.872727 
L 798.143028 551.754545 
L 798.325326 582.640909 
L 798.507623 580.581818 
L 798.68992 580.581818 
L 798.872218 584.7 
L 799.601407 584.7 
L 799.966002 512.631818 
L 800.148299 564.109091 
L 800.330596 574.404545 
L 800.512894 572.345455 
L 800.695191 574.404545 
L 800.877488 562.05 
L 801.059786 557.931818 
L 801.242083 557.931818 
L 801.42438 551.754545 
L 801.606678 566.168182 
L 801.788975 562.05 
L 801.971272 564.109091 
L 802.335867 553.813636 
L 802.700462 588.818182 
L 802.882759 588.818182 
L 803.065056 590.877273 
L 803.247354 576.463636 
L 803.611948 586.759091 
L 803.794246 586.759091 
L 803.976543 584.7 
L 804.341138 514.690909 
L 804.523435 566.168182 
L 804.705732 584.7 
L 804.88803 537.340909 
L 805.070327 524.986364 
L 805.252624 500.277273 
L 805.617219 562.05 
L 805.799516 559.990909 
L 805.981814 568.227273 
L 806.164111 568.227273 
L 806.346409 564.109091 
L 806.528706 568.227273 
L 806.711003 564.109091 
L 807.075598 588.818182 
L 807.804787 588.818182 
L 807.987085 590.877273 
L 808.169382 588.818182 
L 808.351679 588.818182 
L 808.716274 543.518182 
L 808.898571 568.227273 
L 809.080869 539.4 
L 809.263166 566.168182 
L 809.445463 261.422727 
L 809.810058 562.05 
L 809.992355 553.813636 
L 810.174653 559.990909 
L 810.539247 559.990909 
L 810.721545 562.05 
L 810.903842 562.05 
L 811.086139 559.990909 
L 811.268437 547.636364 
L 811.450734 586.759091 
L 811.633031 586.759091 
L 811.997626 590.877273 
L 812.179923 586.759091 
L 812.362221 586.759091 
L 812.544518 588.818182 
L 812.726815 584.7 
L 812.909113 551.754545 
L 813.09141 551.754545 
L 813.273707 576.463636 
L 813.456005 582.640909 
L 813.820599 562.05 
L 814.002897 562.05 
L 814.185194 533.222727 
L 814.549789 524.986364 
L 814.732086 514.690909 
L 814.914383 518.809091 
L 815.096681 564.109091 
L 815.461275 549.695455 
L 815.643573 576.463636 
L 816.008167 586.759091 
L 816.190465 584.7 
L 816.372762 586.759091 
L 816.555059 582.640909 
L 816.737357 588.818182 
L 816.919654 586.759091 
L 817.101951 580.581818 
L 817.466546 533.222727 
L 817.648843 518.809091 
L 817.831141 214.063636 
L 818.195736 578.522727 
L 818.378033 570.286364 
L 818.56033 584.7 
L 818.742628 588.818182 
L 818.924925 578.522727 
L 819.471817 588.818182 
L 820.201006 545.577273 
L 820.565601 588.818182 
L 820.747898 586.759091 
L 820.930196 588.818182 
L 821.112493 586.759091 
L 821.29479 590.877273 
L 821.659385 576.463636 
L 822.206277 586.759091 
L 822.570872 586.759091 
L 822.935466 557.931818 
L 823.117764 557.931818 
L 823.300061 553.813636 
L 823.482358 555.872727 
L 823.664656 562.05 
L 823.846953 555.872727 
L 824.02925 553.813636 
L 824.211548 555.872727 
L 824.393845 551.754545 
L 824.576142 555.872727 
L 824.75844 588.818182 
L 825.669926 588.818182 
L 825.852224 590.877273 
L 826.216818 559.990909 
L 826.581413 436.445455 
L 826.946008 574.404545 
L 827.310602 551.754545 
L 827.4929 553.813636 
L 827.675197 547.636364 
L 827.857494 553.813636 
L 828.039792 551.754545 
L 828.222089 557.931818 
L 828.404386 555.872727 
L 828.586684 562.05 
L 828.768981 553.813636 
L 828.951278 562.05 
L 829.133576 590.877273 
L 829.315873 586.759091 
L 829.49817 588.818182 
L 829.680468 586.759091 
L 829.862765 588.818182 
L 830.22736 588.818182 
L 830.591955 551.754545 
L 830.774252 576.463636 
L 830.956549 576.463636 
L 831.138847 574.404545 
L 831.321144 570.286364 
L 831.503441 547.636364 
L 831.685739 549.695455 
L 831.868036 549.695455 
L 832.050333 551.754545 
L 832.232631 576.463636 
L 832.414928 559.990909 
L 832.597225 559.990909 
L 832.96182 549.695455 
L 833.144117 584.7 
L 833.326415 588.818182 
L 833.508712 588.818182 
L 833.873307 578.522727 
L 834.237901 588.818182 
L 834.420199 586.759091 
L 834.602496 586.759091 
L 834.967091 543.518182 
L 835.331685 553.813636 
L 835.513983 576.463636 
L 835.69628 514.690909 
L 836.060875 580.581818 
L 836.243172 570.286364 
L 836.425469 551.754545 
L 836.607767 545.577273 
L 836.790064 570.286364 
L 836.972361 566.168182 
L 837.154659 553.813636 
L 837.336956 551.754545 
L 837.519253 559.990909 
L 837.883848 584.7 
L 838.066145 586.759091 
L 838.248443 584.7 
L 838.43074 590.877273 
L 838.613037 586.759091 
L 838.795335 586.759091 
L 839.159929 549.695455 
L 839.342227 549.695455 
L 839.706821 586.759091 
L 839.889119 504.395455 
L 840.071416 498.218182 
L 840.253713 514.690909 
L 840.436011 559.990909 
L 840.618308 559.990909 
L 840.800605 580.581818 
L 840.982903 553.813636 
L 841.1652 562.05 
L 841.347497 547.636364 
L 841.529795 555.872727 
L 841.712092 555.872727 
L 842.076687 590.877273 
L 842.258984 586.759091 
L 842.441282 586.759091 
L 842.623579 584.7 
L 842.805876 588.818182 
L 842.988174 586.759091 
L 843.170471 586.759091 
L 843.352768 576.463636 
L 843.535066 549.695455 
L 843.717363 559.990909 
L 843.89966 578.522727 
L 844.081958 557.931818 
L 844.264255 570.286364 
L 844.446552 543.518182 
L 844.62885 557.931818 
L 844.811147 562.05 
L 844.993444 588.818182 
L 845.358039 576.463636 
L 845.722634 537.340909 
L 845.904931 535.281818 
L 846.087228 539.4 
L 846.269526 551.754545 
L 846.451823 582.640909 
L 846.63412 586.759091 
L 847.36331 586.759091 
L 847.545607 590.877273 
L 847.910202 547.636364 
L 848.274796 572.345455 
L 848.457094 545.577273 
L 848.639391 543.518182 
L 848.821688 543.518182 
L 849.003986 578.522727 
L 849.186283 580.581818 
L 849.36858 588.818182 
L 849.550878 590.877273 
L 850.09777 578.522727 
L 850.280067 562.05 
L 850.462364 555.872727 
L 850.644662 557.931818 
L 851.009256 588.818182 
L 851.191554 588.818182 
L 851.373851 586.759091 
L 851.556148 588.818182 
L 851.920743 588.818182 
L 852.285338 537.340909 
L 852.467635 541.459091 
L 852.649932 568.227273 
L 852.83223 557.931818 
L 853.014527 568.227273 
L 853.196824 549.695455 
L 853.379122 584.7 
L 853.743717 588.818182 
L 853.926014 586.759091 
L 854.290609 590.877273 
L 854.655203 586.759091 
L 854.837501 586.759091 
L 855.019798 588.818182 
L 855.202095 586.759091 
L 855.384393 588.818182 
L 855.748987 588.818182 
L 855.931285 590.877273 
L 856.295879 586.759091 
L 856.478177 588.818182 
L 857.207366 588.818182 
L 857.389663 590.877273 
L 857.571961 588.818182 
L 857.936555 588.818182 
L 858.118853 522.927273 
L 858.30115 510.572727 
L 858.483447 168.763636 
L 858.665745 469.390909 
L 858.848042 559.990909 
L 859.030339 551.754545 
L 859.394934 473.509091 
L 859.577231 568.227273 
L 859.759529 590.877273 
L 859.941826 588.818182 
L 860.671015 588.818182 
L 861.03561 543.518182 
L 861.217907 541.459091 
L 861.400205 570.286364 
L 861.582502 570.286364 
L 861.764799 576.463636 
L 862.129394 576.463636 
L 862.311691 582.640909 
L 862.676286 557.931818 
L 862.858583 582.640909 
L 863.040881 512.631818 
L 863.223178 559.990909 
L 863.405475 557.931818 
L 863.587773 553.813636 
L 863.952367 586.759091 
L 864.134665 590.877273 
L 864.316962 586.759091 
L 864.499259 588.818182 
L 864.681557 588.818182 
L 864.863854 586.759091 
L 865.046152 588.818182 
L 865.410746 549.695455 
L 865.775341 576.463636 
L 865.957638 576.463636 
L 866.139936 568.227273 
L 866.322233 547.636364 
L 866.50453 572.345455 
L 866.686828 576.463636 
L 866.869125 553.813636 
L 867.051422 566.168182 
L 867.23372 555.872727 
L 867.416017 555.872727 
L 867.598314 580.581818 
L 867.962909 557.931818 
L 868.145206 559.990909 
L 868.327504 566.168182 
L 868.509801 586.759091 
L 868.692098 584.7 
L 868.874396 590.877273 
L 869.056693 586.759091 
L 869.23899 586.759091 
L 869.421288 588.818182 
L 869.785882 539.4 
L 869.96818 543.518182 
L 870.332774 588.818182 
L 870.515072 547.636364 
L 870.697369 549.695455 
L 871.061964 564.109091 
L 871.426558 576.463636 
L 871.608856 580.581818 
L 871.791153 588.818182 
L 871.97345 582.640909 
L 872.338045 522.927273 
L 872.70264 576.463636 
L 872.884937 586.759091 
L 873.067234 578.522727 
L 873.249532 578.522727 
L 873.431829 580.581818 
L 873.614126 586.759091 
L 873.796424 586.759091 
L 874.161018 551.754545 
L 874.343316 506.454545 
L 874.525613 516.75 
L 874.890208 586.759091 
L 875.072505 582.640909 
L 875.254802 582.640909 
L 875.4371 572.345455 
L 875.619397 553.813636 
L 875.801694 580.581818 
L 876.348586 566.168182 
L 876.530884 572.345455 
L 876.895479 559.990909 
L 877.077776 582.640909 
L 877.260073 586.759091 
L 877.806965 586.759091 
L 877.989263 588.818182 
L 878.17156 588.818182 
L 878.353857 568.227273 
L 878.536155 512.631818 
L 878.718452 273.777273 
L 878.900749 273.777273 
L 879.083047 531.163636 
L 879.265344 562.05 
L 879.447641 545.577273 
L 879.629939 568.227273 
L 879.812236 574.404545 
L 879.994533 570.286364 
L 880.176831 557.931818 
L 880.359128 537.340909 
L 880.541425 570.286364 
L 880.723723 559.990909 
L 880.90602 559.990909 
L 881.088317 566.168182 
L 881.270615 559.990909 
L 881.452912 564.109091 
L 881.635209 586.759091 
L 881.817507 588.818182 
L 881.999804 588.818182 
L 882.182101 586.759091 
L 882.546696 586.759091 
L 882.728993 566.168182 
L 883.093588 553.813636 
L 883.275885 541.459091 
L 883.458183 557.931818 
L 883.64048 586.759091 
L 883.822777 562.05 
L 884.005075 568.227273 
L 884.187372 557.931818 
L 884.369669 559.990909 
L 884.551967 572.345455 
L 884.734264 551.754545 
L 884.916561 508.513636 
L 885.098859 514.690909 
L 885.281156 551.754545 
L 885.463453 543.518182 
L 885.828048 578.522727 
L 886.010345 580.581818 
L 886.192643 588.818182 
L 886.37494 586.759091 
L 886.557237 586.759091 
L 886.739535 584.7 
L 887.104129 584.7 
L 887.286427 524.986364 
L 887.468724 562.05 
L 887.651021 559.990909 
L 887.833319 580.581818 
L 888.015616 566.168182 
L 888.197913 586.759091 
L 888.380211 590.877273 
L 888.562508 586.759091 
L 888.744806 586.759091 
L 889.1094 574.404545 
L 889.291698 580.581818 
L 889.473995 557.931818 
L 889.656292 562.05 
L 889.83859 559.990909 
L 890.020887 580.581818 
L 890.203184 586.759091 
L 890.385482 588.818182 
L 890.567779 588.818182 
L 890.750076 586.759091 
L 890.932374 586.759091 
L 891.114671 588.818182 
L 891.296968 586.759091 
L 891.479266 549.695455 
L 891.661563 541.459091 
L 891.84386 516.75 
L 892.026158 574.404545 
L 892.208455 570.286364 
L 892.57305 555.872727 
L 892.755347 570.286364 
L 892.937644 562.05 
L 893.302239 557.931818 
L 893.484536 537.340909 
L 893.666834 502.336364 
L 893.849131 492.040909 
L 894.213726 562.05 
L 894.396023 568.227273 
L 894.57832 584.7 
L 894.760618 586.759091 
L 895.489807 586.759091 
L 895.672104 588.818182 
L 895.854402 576.463636 
L 896.218996 522.927273 
L 896.401294 555.872727 
L 896.583591 551.754545 
L 896.765888 555.872727 
L 896.948186 570.286364 
L 897.130483 564.109091 
L 897.31278 562.05 
L 897.495078 557.931818 
L 897.677375 545.577273 
L 898.04197 549.695455 
L 898.224267 559.990909 
L 898.406564 557.931818 
L 898.588862 553.813636 
L 899.135754 590.877273 
L 899.500348 584.7 
L 899.682646 584.7 
L 899.864943 588.818182 
L 900.04724 586.759091 
L 900.411835 539.4 
L 900.594133 533.222727 
L 900.77643 549.695455 
L 900.958727 533.222727 
L 901.141025 216.122727 
L 901.505619 559.990909 
L 902.417106 559.990909 
L 902.599403 555.872727 
L 902.781701 557.931818 
L 902.963998 557.931818 
L 903.146295 559.990909 
L 903.328593 582.640909 
L 903.51089 586.759091 
L 903.693187 574.404545 
L 903.875485 580.581818 
L 904.057782 578.522727 
L 904.422377 584.7 
L 904.604674 582.640909 
L 904.786971 551.754545 
L 904.969269 541.459091 
L 905.151566 574.404545 
L 905.516161 570.286364 
L 905.698458 580.581818 
L 905.880755 562.05 
L 906.24535 576.463636 
L 906.427647 555.872727 
L 906.609945 502.336364 
L 906.792242 496.159091 
L 906.974539 508.513636 
L 907.156837 555.872727 
L 907.339134 557.931818 
L 907.521431 555.872727 
L 907.703729 582.640909 
L 907.886026 584.7 
L 908.068323 588.818182 
L 908.250621 582.640909 
L 908.432918 580.581818 
L 908.797513 580.581818 
L 908.97981 572.345455 
L 909.162107 545.577273 
L 909.344405 551.754545 
L 909.708999 574.404545 
L 909.891297 545.577273 
L 910.255891 562.05 
L 910.438189 564.109091 
L 910.802783 559.990909 
L 910.985081 562.05 
L 911.167378 582.640909 
L 911.71427 545.577273 
L 911.896567 549.695455 
L 912.261162 586.759091 
L 913.354946 586.759091 
L 913.537244 555.872727 
L 913.719541 545.577273 
L 913.901838 547.636364 
L 914.266433 586.759091 
L 914.44873 584.7 
L 914.631028 529.104545 
L 914.995622 547.636364 
L 915.17792 543.518182 
L 915.360217 506.454545 
L 915.724812 559.990909 
L 916.089406 539.4 
L 916.271704 541.459091 
L 916.454001 551.754545 
L 916.818596 582.640909 
L 917.000893 582.640909 
L 917.18319 580.581818 
L 917.365488 586.759091 
L 917.547785 584.7 
L 918.094677 531.163636 
L 918.276974 555.872727 
L 918.459272 555.872727 
L 918.823866 533.222727 
L 919.006164 323.195455 
L 919.188461 559.990909 
L 919.370758 557.931818 
L 919.553056 553.813636 
L 919.91765 553.813636 
L 920.099948 545.577273 
L 920.282245 559.990909 
L 920.464542 557.931818 
L 920.64684 551.754545 
L 920.829137 576.463636 
L 921.193732 582.640909 
L 921.376029 580.581818 
L 921.558326 584.7 
L 921.740624 584.7 
L 921.922921 580.581818 
L 922.287516 553.813636 
L 922.469813 541.459091 
L 922.65211 568.227273 
L 922.834408 535.281818 
L 923.016705 556.902273 
L 923.199002 547.636364 
L 923.745894 566.168182 
L 923.928192 553.813636 
L 924.110489 500.277273 
L 924.292787 572.345455 
L 924.475084 559.990909 
L 924.657381 559.990909 
L 924.839679 553.813636 
L 925.204273 584.7 
L 925.751165 584.7 
L 925.933463 586.759091 
L 926.11576 584.7 
L 926.298057 586.759091 
L 926.662652 541.459091 
L 926.844949 543.518182 
L 927.027247 572.345455 
L 927.209544 568.227273 
L 927.391841 570.286364 
L 927.574139 566.168182 
L 927.938733 586.759091 
L 928.121031 555.872727 
L 928.303328 465.272727 
L 928.485625 553.813636 
L 928.85022 564.109091 
L 929.032517 559.990909 
L 929.214815 559.990909 
L 929.397112 551.754545 
L 929.579409 578.522727 
L 929.761707 586.759091 
L 929.944004 584.7 
L 930.126301 586.759091 
L 930.490896 586.759091 
L 930.673193 590.877273 
L 930.855491 582.640909 
L 931.220085 527.045455 
L 931.402383 535.281818 
L 931.58468 527.045455 
L 931.766977 566.168182 
L 931.949275 559.990909 
L 932.131572 590.877273 
L 932.313869 584.7 
L 932.496167 572.345455 
L 932.678464 454.977273 
L 932.860761 564.109091 
L 933.043059 559.990909 
L 933.225356 562.05 
L 933.407653 559.990909 
L 933.589951 559.990909 
L 933.954545 590.877273 
L 933.954545 590.877273 
" style="fill:none;stroke:#000000;stroke-linecap:square;stroke-width:1.5;"/>
   </g>
   <g id="patch_3">
    <path d="M 135 630 
L 135 86.4 
" style="fill:none;stroke:#000000;stroke-linecap:square;stroke-linejoin:miter;stroke-width:0.8;"/>
   </g>
   <g id="patch_4">
    <path d="M 972 630 
L 972 86.4 
" style="fill:none;stroke:#000000;stroke-linecap:square;stroke-linejoin:miter;stroke-width:0.8;"/>
   </g>
   <g id="patch_5">
    <path d="M 135 630 
L 972 630 
" style="fill:none;stroke:#000000;stroke-linecap:square;stroke-linejoin:miter;stroke-width:0.8;"/>
   </g>
   <g id="patch_6">
    <path d="M 135 86.4 
L 972 86.4 
" style="fill:none;stroke:#000000;stroke-linecap:square;stroke-linejoin:miter;stroke-width:0.8;"/>
   </g>
   <g id="text_12">
    <!-- Casa 26 - Tratada -->
    <g transform="translate(500.8725 80.4)scale(0.12 -0.12)">
     <defs>
      <path d="M 64.40625 67.28125 
L 64.40625 56.890625 
Q 59.421875 61.53125 53.78125 63.8125 
Q 48.140625 66.109375 41.796875 66.109375 
Q 29.296875 66.109375 22.65625 58.46875 
Q 16.015625 50.828125 16.015625 36.375 
Q 16.015625 21.96875 22.65625 14.328125 
Q 29.296875 6.6875 41.796875 6.6875 
Q 48.140625 6.6875 53.78125 8.984375 
Q 59.421875 11.28125 64.40625 15.921875 
L 64.40625 5.609375 
Q 59.234375 2.09375 53.4375 0.328125 
Q 47.65625 -1.421875 41.21875 -1.421875 
Q 24.65625 -1.421875 15.125 8.703125 
Q 5.609375 18.84375 5.609375 36.375 
Q 5.609375 53.953125 15.125 64.078125 
Q 24.65625 74.21875 41.21875 74.21875 
Q 47.75 74.21875 53.53125 72.484375 
Q 59.328125 70.75 64.40625 67.28125 
z
" id="DejaVuSans-67"/>
      <path d="M 34.28125 27.484375 
Q 23.390625 27.484375 19.1875 25 
Q 14.984375 22.515625 14.984375 16.5 
Q 14.984375 11.71875 18.140625 8.90625 
Q 21.296875 6.109375 26.703125 6.109375 
Q 34.1875 6.109375 38.703125 11.40625 
Q 43.21875 16.703125 43.21875 25.484375 
L 43.21875 27.484375 
z
M 52.203125 31.203125 
L 52.203125 0 
L 43.21875 0 
L 43.21875 8.296875 
Q 40.140625 3.328125 35.546875 0.953125 
Q 30.953125 -1.421875 24.3125 -1.421875 
Q 15.921875 -1.421875 10.953125 3.296875 
Q 6 8.015625 6 15.921875 
Q 6 25.140625 12.171875 29.828125 
Q 18.359375 34.515625 30.609375 34.515625 
L 43.21875 34.515625 
L 43.21875 35.40625 
Q 43.21875 41.609375 39.140625 45 
Q 35.0625 48.390625 27.6875 48.390625 
Q 23 48.390625 18.546875 47.265625 
Q 14.109375 46.140625 10.015625 43.890625 
L 10.015625 52.203125 
Q 14.9375 54.109375 19.578125 55.046875 
Q 24.21875 56 28.609375 56 
Q 40.484375 56 46.34375 49.84375 
Q 52.203125 43.703125 52.203125 31.203125 
z
" id="DejaVuSans-97"/>
      <path d="M 44.28125 53.078125 
L 44.28125 44.578125 
Q 40.484375 46.53125 36.375 47.5 
Q 32.28125 48.484375 27.875 48.484375 
Q 21.1875 48.484375 17.84375 46.4375 
Q 14.5 44.390625 14.5 40.28125 
Q 14.5 37.15625 16.890625 35.375 
Q 19.28125 33.59375 26.515625 31.984375 
L 29.59375 31.296875 
Q 39.15625 29.25 43.1875 25.515625 
Q 47.21875 21.78125 47.21875 15.09375 
Q 47.21875 7.46875 41.1875 3.015625 
Q 35.15625 -1.421875 24.609375 -1.421875 
Q 20.21875 -1.421875 15.453125 -0.5625 
Q 10.6875 0.296875 5.421875 2 
L 5.421875 11.28125 
Q 10.40625 8.6875 15.234375 7.390625 
Q 20.0625 6.109375 24.8125 6.109375 
Q 31.15625 6.109375 34.5625 8.28125 
Q 37.984375 10.453125 37.984375 14.40625 
Q 37.984375 18.0625 35.515625 20.015625 
Q 33.0625 21.96875 24.703125 23.78125 
L 21.578125 24.515625 
Q 13.234375 26.265625 9.515625 29.90625 
Q 5.8125 33.546875 5.8125 39.890625 
Q 5.8125 47.609375 11.28125 51.796875 
Q 16.75 56 26.8125 56 
Q 31.78125 56 36.171875 55.265625 
Q 40.578125 54.546875 44.28125 53.078125 
z
" id="DejaVuSans-115"/>
      <path id="DejaVuSans-32"/>
      <path d="M 33.015625 40.375 
Q 26.375 40.375 22.484375 35.828125 
Q 18.609375 31.296875 18.609375 23.390625 
Q 18.609375 15.53125 22.484375 10.953125 
Q 26.375 6.390625 33.015625 6.390625 
Q 39.65625 6.390625 43.53125 10.953125 
Q 47.40625 15.53125 47.40625 23.390625 
Q 47.40625 31.296875 43.53125 35.828125 
Q 39.65625 40.375 33.015625 40.375 
z
M 52.59375 71.296875 
L 52.59375 62.3125 
Q 48.875 64.0625 45.09375 64.984375 
Q 41.3125 65.921875 37.59375 65.921875 
Q 27.828125 65.921875 22.671875 59.328125 
Q 17.53125 52.734375 16.796875 39.40625 
Q 19.671875 43.65625 24.015625 45.921875 
Q 28.375 48.1875 33.59375 48.1875 
Q 44.578125 48.1875 50.953125 41.515625 
Q 57.328125 34.859375 57.328125 23.390625 
Q 57.328125 12.15625 50.6875 5.359375 
Q 44.046875 -1.421875 33.015625 -1.421875 
Q 20.359375 -1.421875 13.671875 8.265625 
Q 6.984375 17.96875 6.984375 36.375 
Q 6.984375 53.65625 15.1875 63.9375 
Q 23.390625 74.21875 37.203125 74.21875 
Q 40.921875 74.21875 44.703125 73.484375 
Q 48.484375 72.75 52.59375 71.296875 
z
" id="DejaVuSans-54"/>
      <path d="M 4.890625 31.390625 
L 31.203125 31.390625 
L 31.203125 23.390625 
L 4.890625 23.390625 
z
" id="DejaVuSans-45"/>
      <path d="M -0.296875 72.90625 
L 61.375 72.90625 
L 61.375 64.59375 
L 35.5 64.59375 
L 35.5 0 
L 25.59375 0 
L 25.59375 64.59375 
L -0.296875 64.59375 
z
" id="DejaVuSans-84"/>
      <path d="M 41.109375 46.296875 
Q 39.59375 47.171875 37.8125 47.578125 
Q 36.03125 48 33.890625 48 
Q 26.265625 48 22.1875 43.046875 
Q 18.109375 38.09375 18.109375 28.8125 
L 18.109375 0 
L 9.078125 0 
L 9.078125 54.6875 
L 18.109375 54.6875 
L 18.109375 46.1875 
Q 20.953125 51.171875 25.484375 53.578125 
Q 30.03125 56 36.53125 56 
Q 37.453125 56 38.578125 55.875 
Q 39.703125 55.765625 41.0625 55.515625 
z
" id="DejaVuSans-114"/>
      <path d="M 18.3125 70.21875 
L 18.3125 54.6875 
L 36.8125 54.6875 
L 36.8125 47.703125 
L 18.3125 47.703125 
L 18.3125 18.015625 
Q 18.3125 11.328125 20.140625 9.421875 
Q 21.96875 7.515625 27.59375 7.515625 
L 36.8125 7.515625 
L 36.8125 0 
L 27.59375 0 
Q 17.1875 0 13.234375 3.875 
Q 9.28125 7.765625 9.28125 18.015625 
L 9.28125 47.703125 
L 2.6875 47.703125 
L 2.6875 54.6875 
L 9.28125 54.6875 
L 9.28125 70.21875 
z
" id="DejaVuSans-116"/>
      <path d="M 45.40625 46.390625 
L 45.40625 75.984375 
L 54.390625 75.984375 
L 54.390625 0 
L 45.40625 0 
L 45.40625 8.203125 
Q 42.578125 3.328125 38.25 0.953125 
Q 33.9375 -1.421875 27.875 -1.421875 
Q 17.96875 -1.421875 11.734375 6.484375 
Q 5.515625 14.40625 5.515625 27.296875 
Q 5.515625 40.1875 11.734375 48.09375 
Q 17.96875 56 27.875 56 
Q 33.9375 56 38.25 53.625 
Q 42.578125 51.265625 45.40625 46.390625 
z
M 14.796875 27.296875 
Q 14.796875 17.390625 18.875 11.75 
Q 22.953125 6.109375 30.078125 6.109375 
Q 37.203125 6.109375 41.296875 11.75 
Q 45.40625 17.390625 45.40625 27.296875 
Q 45.40625 37.203125 41.296875 42.84375 
Q 37.203125 48.484375 30.078125 48.484375 
Q 22.953125 48.484375 18.875 42.84375 
Q 14.796875 37.203125 14.796875 27.296875 
z
" id="DejaVuSans-100"/>
     </defs>
     <use xlink:href="#DejaVuSans-67"/>
     <use x="69.824219" xlink:href="#DejaVuSans-97"/>
     <use x="131.103516" xlink:href="#DejaVuSans-115"/>
     <use x="183.203125" xlink:href="#DejaVuSans-97"/>
     <use x="244.482422" xlink:href="#DejaVuSans-32"/>
     <use x="276.269531" xlink:href="#DejaVuSans-50"/>
     <use x="339.892578" xlink:href="#DejaVuSans-54"/>
     <use x="403.515625" xlink:href="#DejaVuSans-32"/>
     <use x="435.302734" xlink:href="#DejaVuSans-45"/>
     <use x="471.386719" xlink:href="#DejaVuSans-32"/>
     <use x="503.173828" xlink:href="#DejaVuSans-84"/>
     <use x="549.507812" xlink:href="#DejaVuSans-114"/>
     <use x="590.621094" xlink:href="#DejaVuSans-97"/>
     <use x="651.900391" xlink:href="#DejaVuSans-116"/>
     <use x="691.109375" xlink:href="#DejaVuSans-97"/>
     <use x="752.388672" xlink:href="#DejaVuSans-100"/>
     <use x="815.865234" xlink:href="#DejaVuSans-97"/>
    </g>
   </g>
  </g>
 </g>
 <defs>
  <clipPath id="pd96623386b">
   <rect height="543.6" width="837" x="135" y="86.4"/>
  </clipPath>
 </defs>
</svg>
