<?xml version="1.0" encoding="utf-8" standalone="no"?>
<!DOCTYPE svg PUBLIC "-//W3C//DTD SVG 1.1//EN"
  "http://www.w3.org/Graphics/SVG/1.1/DTD/svg11.dtd">
<!-- Created with matplotlib (https://matplotlib.org/) -->
<svg height="288pt" version="1.1" viewBox="0 0 432 288" width="432pt" xmlns="http://www.w3.org/2000/svg" xmlns:xlink="http://www.w3.org/1999/xlink">
 <metadata>
  <rdf:RDF xmlns:cc="http://creativecommons.org/ns#" xmlns:dc="http://purl.org/dc/elements/1.1/" xmlns:rdf="http://www.w3.org/1999/02/22-rdf-syntax-ns#">
   <cc:Work>
    <dc:type rdf:resource="http://purl.org/dc/dcmitype/StillImage"/>
    <dc:date>2021-07-21T14:57:46.426091</dc:date>
    <dc:format>image/svg+xml</dc:format>
    <dc:creator>
     <cc:Agent>
      <dc:title>Matplotlib v3.3.4, https://matplotlib.org/</dc:title>
     </cc:Agent>
    </dc:creator>
   </cc:Work>
  </rdf:RDF>
 </metadata>
 <defs>
  <style type="text/css">*{stroke-linecap:butt;stroke-linejoin:round;}</style>
 </defs>
 <g id="figure_1">
  <g id="patch_1">
   <path d="M 0 288 
L 432 288 
L 432 0 
L 0 0 
z
" style="fill:#ffffff;"/>
  </g>
  <g id="axes_1">
   <g id="patch_2">
    <path d="M 54 252 
L 388.8 252 
L 388.8 34.56 
L 54 34.56 
z
" style="fill:#ffffff;"/>
   </g>
   <g id="matplotlib.axis_1">
    <g id="xtick_1">
     <g id="line2d_1">
      <defs>
       <path d="M 0 0 
L 0 3.5 
" id="mfdce638547" style="stroke:#000000;stroke-width:0.8;"/>
      </defs>
      <g>
       <use style="stroke:#000000;stroke-width:0.8;" x="69.218182" xlink:href="#mfdce638547" y="252"/>
      </g>
     </g>
     <g id="text_1">
      <!-- 2015-05 -->
      <g transform="translate(56.3969 293.917817)rotate(-45)scale(0.1 -0.1)">
       <defs>
        <path d="M 19.1875 8.296875 
L 53.609375 8.296875 
L 53.609375 0 
L 7.328125 0 
L 7.328125 8.296875 
Q 12.9375 14.109375 22.625 23.890625 
Q 32.328125 33.6875 34.8125 36.53125 
Q 39.546875 41.84375 41.421875 45.53125 
Q 43.3125 49.21875 43.3125 52.78125 
Q 43.3125 58.59375 39.234375 62.25 
Q 35.15625 65.921875 28.609375 65.921875 
Q 23.96875 65.921875 18.8125 64.3125 
Q 13.671875 62.703125 7.8125 59.421875 
L 7.8125 69.390625 
Q 13.765625 71.78125 18.9375 73 
Q 24.125 74.21875 28.421875 74.21875 
Q 39.75 74.21875 46.484375 68.546875 
Q 53.21875 62.890625 53.21875 53.421875 
Q 53.21875 48.921875 51.53125 44.890625 
Q 49.859375 40.875 45.40625 35.40625 
Q 44.1875 33.984375 37.640625 27.21875 
Q 31.109375 20.453125 19.1875 8.296875 
z
" id="DejaVuSans-50"/>
        <path d="M 31.78125 66.40625 
Q 24.171875 66.40625 20.328125 58.90625 
Q 16.5 51.421875 16.5 36.375 
Q 16.5 21.390625 20.328125 13.890625 
Q 24.171875 6.390625 31.78125 6.390625 
Q 39.453125 6.390625 43.28125 13.890625 
Q 47.125 21.390625 47.125 36.375 
Q 47.125 51.421875 43.28125 58.90625 
Q 39.453125 66.40625 31.78125 66.40625 
z
M 31.78125 74.21875 
Q 44.046875 74.21875 50.515625 64.515625 
Q 56.984375 54.828125 56.984375 36.375 
Q 56.984375 17.96875 50.515625 8.265625 
Q 44.046875 -1.421875 31.78125 -1.421875 
Q 19.53125 -1.421875 13.0625 8.265625 
Q 6.59375 17.96875 6.59375 36.375 
Q 6.59375 54.828125 13.0625 64.515625 
Q 19.53125 74.21875 31.78125 74.21875 
z
" id="DejaVuSans-48"/>
        <path d="M 12.40625 8.296875 
L 28.515625 8.296875 
L 28.515625 63.921875 
L 10.984375 60.40625 
L 10.984375 69.390625 
L 28.421875 72.90625 
L 38.28125 72.90625 
L 38.28125 8.296875 
L 54.390625 8.296875 
L 54.390625 0 
L 12.40625 0 
z
" id="DejaVuSans-49"/>
        <path d="M 10.796875 72.90625 
L 49.515625 72.90625 
L 49.515625 64.59375 
L 19.828125 64.59375 
L 19.828125 46.734375 
Q 21.96875 47.46875 24.109375 47.828125 
Q 26.265625 48.1875 28.421875 48.1875 
Q 40.625 48.1875 47.75 41.5 
Q 54.890625 34.8125 54.890625 23.390625 
Q 54.890625 11.625 47.5625 5.09375 
Q 40.234375 -1.421875 26.90625 -1.421875 
Q 22.3125 -1.421875 17.546875 -0.640625 
Q 12.796875 0.140625 7.71875 1.703125 
L 7.71875 11.625 
Q 12.109375 9.234375 16.796875 8.0625 
Q 21.484375 6.890625 26.703125 6.890625 
Q 35.15625 6.890625 40.078125 11.328125 
Q 45.015625 15.765625 45.015625 23.390625 
Q 45.015625 31 40.078125 35.4375 
Q 35.15625 39.890625 26.703125 39.890625 
Q 22.75 39.890625 18.8125 39.015625 
Q 14.890625 38.140625 10.796875 36.28125 
z
" id="DejaVuSans-53"/>
        <path d="M 4.890625 31.390625 
L 31.203125 31.390625 
L 31.203125 23.390625 
L 4.890625 23.390625 
z
" id="DejaVuSans-45"/>
       </defs>
       <use xlink:href="#DejaVuSans-50"/>
       <use x="63.623047" xlink:href="#DejaVuSans-48"/>
       <use x="127.246094" xlink:href="#DejaVuSans-49"/>
       <use x="190.869141" xlink:href="#DejaVuSans-53"/>
       <use x="254.492188" xlink:href="#DejaVuSans-45"/>
       <use x="290.576172" xlink:href="#DejaVuSans-48"/>
       <use x="354.199219" xlink:href="#DejaVuSans-53"/>
      </g>
     </g>
    </g>
    <g id="xtick_2">
     <g id="line2d_2">
      <g>
       <use style="stroke:#000000;stroke-width:0.8;" x="105.670691" xlink:href="#mfdce638547" y="252"/>
      </g>
     </g>
     <g id="text_2">
      <!-- 2015-09 -->
      <g transform="translate(92.849409 293.917817)rotate(-45)scale(0.1 -0.1)">
       <defs>
        <path d="M 10.984375 1.515625 
L 10.984375 10.5 
Q 14.703125 8.734375 18.5 7.8125 
Q 22.3125 6.890625 25.984375 6.890625 
Q 35.75 6.890625 40.890625 13.453125 
Q 46.046875 20.015625 46.78125 33.40625 
Q 43.953125 29.203125 39.59375 26.953125 
Q 35.25 24.703125 29.984375 24.703125 
Q 19.046875 24.703125 12.671875 31.3125 
Q 6.296875 37.9375 6.296875 49.421875 
Q 6.296875 60.640625 12.9375 67.421875 
Q 19.578125 74.21875 30.609375 74.21875 
Q 43.265625 74.21875 49.921875 64.515625 
Q 56.59375 54.828125 56.59375 36.375 
Q 56.59375 19.140625 48.40625 8.859375 
Q 40.234375 -1.421875 26.421875 -1.421875 
Q 22.703125 -1.421875 18.890625 -0.6875 
Q 15.09375 0.046875 10.984375 1.515625 
z
M 30.609375 32.421875 
Q 37.25 32.421875 41.125 36.953125 
Q 45.015625 41.5 45.015625 49.421875 
Q 45.015625 57.28125 41.125 61.84375 
Q 37.25 66.40625 30.609375 66.40625 
Q 23.96875 66.40625 20.09375 61.84375 
Q 16.21875 57.28125 16.21875 49.421875 
Q 16.21875 41.5 20.09375 36.953125 
Q 23.96875 32.421875 30.609375 32.421875 
z
" id="DejaVuSans-57"/>
       </defs>
       <use xlink:href="#DejaVuSans-50"/>
       <use x="63.623047" xlink:href="#DejaVuSans-48"/>
       <use x="127.246094" xlink:href="#DejaVuSans-49"/>
       <use x="190.869141" xlink:href="#DejaVuSans-53"/>
       <use x="254.492188" xlink:href="#DejaVuSans-45"/>
       <use x="290.576172" xlink:href="#DejaVuSans-48"/>
       <use x="354.199219" xlink:href="#DejaVuSans-57"/>
      </g>
     </g>
    </g>
    <g id="xtick_3">
     <g id="line2d_3">
      <g>
       <use style="stroke:#000000;stroke-width:0.8;" x="141.826839" xlink:href="#mfdce638547" y="252"/>
      </g>
     </g>
     <g id="text_3">
      <!-- 2016-01 -->
      <g transform="translate(129.005557 293.917817)rotate(-45)scale(0.1 -0.1)">
       <defs>
        <path d="M 33.015625 40.375 
Q 26.375 40.375 22.484375 35.828125 
Q 18.609375 31.296875 18.609375 23.390625 
Q 18.609375 15.53125 22.484375 10.953125 
Q 26.375 6.390625 33.015625 6.390625 
Q 39.65625 6.390625 43.53125 10.953125 
Q 47.40625 15.53125 47.40625 23.390625 
Q 47.40625 31.296875 43.53125 35.828125 
Q 39.65625 40.375 33.015625 40.375 
z
M 52.59375 71.296875 
L 52.59375 62.3125 
Q 48.875 64.0625 45.09375 64.984375 
Q 41.3125 65.921875 37.59375 65.921875 
Q 27.828125 65.921875 22.671875 59.328125 
Q 17.53125 52.734375 16.796875 39.40625 
Q 19.671875 43.65625 24.015625 45.921875 
Q 28.375 48.1875 33.59375 48.1875 
Q 44.578125 48.1875 50.953125 41.515625 
Q 57.328125 34.859375 57.328125 23.390625 
Q 57.328125 12.15625 50.6875 5.359375 
Q 44.046875 -1.421875 33.015625 -1.421875 
Q 20.359375 -1.421875 13.671875 8.265625 
Q 6.984375 17.96875 6.984375 36.375 
Q 6.984375 53.65625 15.1875 63.9375 
Q 23.390625 74.21875 37.203125 74.21875 
Q 40.921875 74.21875 44.703125 73.484375 
Q 48.484375 72.75 52.59375 71.296875 
z
" id="DejaVuSans-54"/>
       </defs>
       <use xlink:href="#DejaVuSans-50"/>
       <use x="63.623047" xlink:href="#DejaVuSans-48"/>
       <use x="127.246094" xlink:href="#DejaVuSans-49"/>
       <use x="190.869141" xlink:href="#DejaVuSans-54"/>
       <use x="254.492188" xlink:href="#DejaVuSans-45"/>
       <use x="290.576172" xlink:href="#DejaVuSans-48"/>
       <use x="354.199219" xlink:href="#DejaVuSans-49"/>
      </g>
     </g>
    </g>
    <g id="xtick_4">
     <g id="line2d_4">
      <g>
       <use style="stroke:#000000;stroke-width:0.8;" x="177.686625" xlink:href="#mfdce638547" y="252"/>
      </g>
     </g>
     <g id="text_4">
      <!-- 2016-05 -->
      <g transform="translate(164.865343 293.917817)rotate(-45)scale(0.1 -0.1)">
       <use xlink:href="#DejaVuSans-50"/>
       <use x="63.623047" xlink:href="#DejaVuSans-48"/>
       <use x="127.246094" xlink:href="#DejaVuSans-49"/>
       <use x="190.869141" xlink:href="#DejaVuSans-54"/>
       <use x="254.492188" xlink:href="#DejaVuSans-45"/>
       <use x="290.576172" xlink:href="#DejaVuSans-48"/>
       <use x="354.199219" xlink:href="#DejaVuSans-53"/>
      </g>
     </g>
    </g>
    <g id="xtick_5">
     <g id="line2d_5">
      <g>
       <use style="stroke:#000000;stroke-width:0.8;" x="214.139134" xlink:href="#mfdce638547" y="252"/>
      </g>
     </g>
     <g id="text_5">
      <!-- 2016-09 -->
      <g transform="translate(201.317852 293.917817)rotate(-45)scale(0.1 -0.1)">
       <use xlink:href="#DejaVuSans-50"/>
       <use x="63.623047" xlink:href="#DejaVuSans-48"/>
       <use x="127.246094" xlink:href="#DejaVuSans-49"/>
       <use x="190.869141" xlink:href="#DejaVuSans-54"/>
       <use x="254.492188" xlink:href="#DejaVuSans-45"/>
       <use x="290.576172" xlink:href="#DejaVuSans-48"/>
       <use x="354.199219" xlink:href="#DejaVuSans-57"/>
      </g>
     </g>
    </g>
    <g id="xtick_6">
     <g id="line2d_6">
      <g>
       <use style="stroke:#000000;stroke-width:0.8;" x="250.295282" xlink:href="#mfdce638547" y="252"/>
      </g>
     </g>
     <g id="text_6">
      <!-- 2017-01 -->
      <g transform="translate(237.474 293.917817)rotate(-45)scale(0.1 -0.1)">
       <defs>
        <path d="M 8.203125 72.90625 
L 55.078125 72.90625 
L 55.078125 68.703125 
L 28.609375 0 
L 18.3125 0 
L 43.21875 64.59375 
L 8.203125 64.59375 
z
" id="DejaVuSans-55"/>
       </defs>
       <use xlink:href="#DejaVuSans-50"/>
       <use x="63.623047" xlink:href="#DejaVuSans-48"/>
       <use x="127.246094" xlink:href="#DejaVuSans-49"/>
       <use x="190.869141" xlink:href="#DejaVuSans-55"/>
       <use x="254.492188" xlink:href="#DejaVuSans-45"/>
       <use x="290.576172" xlink:href="#DejaVuSans-48"/>
       <use x="354.199219" xlink:href="#DejaVuSans-49"/>
      </g>
     </g>
    </g>
    <g id="xtick_7">
     <g id="line2d_7">
      <g>
       <use style="stroke:#000000;stroke-width:0.8;" x="285.858706" xlink:href="#mfdce638547" y="252"/>
      </g>
     </g>
     <g id="text_7">
      <!-- 2017-05 -->
      <g transform="translate(273.037424 293.917817)rotate(-45)scale(0.1 -0.1)">
       <use xlink:href="#DejaVuSans-50"/>
       <use x="63.623047" xlink:href="#DejaVuSans-48"/>
       <use x="127.246094" xlink:href="#DejaVuSans-49"/>
       <use x="190.869141" xlink:href="#DejaVuSans-55"/>
       <use x="254.492188" xlink:href="#DejaVuSans-45"/>
       <use x="290.576172" xlink:href="#DejaVuSans-48"/>
       <use x="354.199219" xlink:href="#DejaVuSans-53"/>
      </g>
     </g>
    </g>
    <g id="xtick_8">
     <g id="line2d_8">
      <g>
       <use style="stroke:#000000;stroke-width:0.8;" x="322.311215" xlink:href="#mfdce638547" y="252"/>
      </g>
     </g>
     <g id="text_8">
      <!-- 2017-09 -->
      <g transform="translate(309.489933 293.917817)rotate(-45)scale(0.1 -0.1)">
       <use xlink:href="#DejaVuSans-50"/>
       <use x="63.623047" xlink:href="#DejaVuSans-48"/>
       <use x="127.246094" xlink:href="#DejaVuSans-49"/>
       <use x="190.869141" xlink:href="#DejaVuSans-55"/>
       <use x="254.492188" xlink:href="#DejaVuSans-45"/>
       <use x="290.576172" xlink:href="#DejaVuSans-48"/>
       <use x="354.199219" xlink:href="#DejaVuSans-57"/>
      </g>
     </g>
    </g>
    <g id="xtick_9">
     <g id="line2d_9">
      <g>
       <use style="stroke:#000000;stroke-width:0.8;" x="358.467363" xlink:href="#mfdce638547" y="252"/>
      </g>
     </g>
     <g id="text_9">
      <!-- 2018-01 -->
      <g transform="translate(345.646081 293.917817)rotate(-45)scale(0.1 -0.1)">
       <defs>
        <path d="M 31.78125 34.625 
Q 24.75 34.625 20.71875 30.859375 
Q 16.703125 27.09375 16.703125 20.515625 
Q 16.703125 13.921875 20.71875 10.15625 
Q 24.75 6.390625 31.78125 6.390625 
Q 38.8125 6.390625 42.859375 10.171875 
Q 46.921875 13.96875 46.921875 20.515625 
Q 46.921875 27.09375 42.890625 30.859375 
Q 38.875 34.625 31.78125 34.625 
z
M 21.921875 38.8125 
Q 15.578125 40.375 12.03125 44.71875 
Q 8.5 49.078125 8.5 55.328125 
Q 8.5 64.0625 14.71875 69.140625 
Q 20.953125 74.21875 31.78125 74.21875 
Q 42.671875 74.21875 48.875 69.140625 
Q 55.078125 64.0625 55.078125 55.328125 
Q 55.078125 49.078125 51.53125 44.71875 
Q 48 40.375 41.703125 38.8125 
Q 48.828125 37.15625 52.796875 32.3125 
Q 56.78125 27.484375 56.78125 20.515625 
Q 56.78125 9.90625 50.3125 4.234375 
Q 43.84375 -1.421875 31.78125 -1.421875 
Q 19.734375 -1.421875 13.25 4.234375 
Q 6.78125 9.90625 6.78125 20.515625 
Q 6.78125 27.484375 10.78125 32.3125 
Q 14.796875 37.15625 21.921875 38.8125 
z
M 18.3125 54.390625 
Q 18.3125 48.734375 21.84375 45.5625 
Q 25.390625 42.390625 31.78125 42.390625 
Q 38.140625 42.390625 41.71875 45.5625 
Q 45.3125 48.734375 45.3125 54.390625 
Q 45.3125 60.0625 41.71875 63.234375 
Q 38.140625 66.40625 31.78125 66.40625 
Q 25.390625 66.40625 21.84375 63.234375 
Q 18.3125 60.0625 18.3125 54.390625 
z
" id="DejaVuSans-56"/>
       </defs>
       <use xlink:href="#DejaVuSans-50"/>
       <use x="63.623047" xlink:href="#DejaVuSans-48"/>
       <use x="127.246094" xlink:href="#DejaVuSans-49"/>
       <use x="190.869141" xlink:href="#DejaVuSans-56"/>
       <use x="254.492188" xlink:href="#DejaVuSans-45"/>
       <use x="290.576172" xlink:href="#DejaVuSans-48"/>
       <use x="354.199219" xlink:href="#DejaVuSans-49"/>
      </g>
     </g>
    </g>
   </g>
   <g id="matplotlib.axis_2">
    <g id="ytick_1">
     <g id="line2d_10">
      <defs>
       <path d="M 0 0 
L -3.5 0 
" id="md6ed8efd6c" style="stroke:#000000;stroke-width:0.8;"/>
      </defs>
      <g>
       <use style="stroke:#000000;stroke-width:0.8;" x="54" xlink:href="#md6ed8efd6c" y="242.116364"/>
      </g>
     </g>
     <g id="text_10">
      <!-- 0 -->
      <g transform="translate(40.6375 245.915582)scale(0.1 -0.1)">
       <use xlink:href="#DejaVuSans-48"/>
      </g>
     </g>
    </g>
    <g id="ytick_2">
     <g id="line2d_11">
      <g>
       <use style="stroke:#000000;stroke-width:0.8;" x="54" xlink:href="#md6ed8efd6c" y="206.011756"/>
      </g>
     </g>
     <g id="text_11">
      <!-- 10 -->
      <g transform="translate(34.275 209.810975)scale(0.1 -0.1)">
       <use xlink:href="#DejaVuSans-49"/>
       <use x="63.623047" xlink:href="#DejaVuSans-48"/>
      </g>
     </g>
    </g>
    <g id="ytick_3">
     <g id="line2d_12">
      <g>
       <use style="stroke:#000000;stroke-width:0.8;" x="54" xlink:href="#md6ed8efd6c" y="169.907148"/>
      </g>
     </g>
     <g id="text_12">
      <!-- 20 -->
      <g transform="translate(34.275 173.706367)scale(0.1 -0.1)">
       <use xlink:href="#DejaVuSans-50"/>
       <use x="63.623047" xlink:href="#DejaVuSans-48"/>
      </g>
     </g>
    </g>
    <g id="ytick_4">
     <g id="line2d_13">
      <g>
       <use style="stroke:#000000;stroke-width:0.8;" x="54" xlink:href="#md6ed8efd6c" y="133.80254"/>
      </g>
     </g>
     <g id="text_13">
      <!-- 30 -->
      <g transform="translate(34.275 137.601759)scale(0.1 -0.1)">
       <defs>
        <path d="M 40.578125 39.3125 
Q 47.65625 37.796875 51.625 33 
Q 55.609375 28.21875 55.609375 21.1875 
Q 55.609375 10.40625 48.1875 4.484375 
Q 40.765625 -1.421875 27.09375 -1.421875 
Q 22.515625 -1.421875 17.65625 -0.515625 
Q 12.796875 0.390625 7.625 2.203125 
L 7.625 11.71875 
Q 11.71875 9.328125 16.59375 8.109375 
Q 21.484375 6.890625 26.8125 6.890625 
Q 36.078125 6.890625 40.9375 10.546875 
Q 45.796875 14.203125 45.796875 21.1875 
Q 45.796875 27.640625 41.28125 31.265625 
Q 36.765625 34.90625 28.71875 34.90625 
L 20.21875 34.90625 
L 20.21875 43.015625 
L 29.109375 43.015625 
Q 36.375 43.015625 40.234375 45.921875 
Q 44.09375 48.828125 44.09375 54.296875 
Q 44.09375 59.90625 40.109375 62.90625 
Q 36.140625 65.921875 28.71875 65.921875 
Q 24.65625 65.921875 20.015625 65.03125 
Q 15.375 64.15625 9.8125 62.3125 
L 9.8125 71.09375 
Q 15.4375 72.65625 20.34375 73.4375 
Q 25.25 74.21875 29.59375 74.21875 
Q 40.828125 74.21875 47.359375 69.109375 
Q 53.90625 64.015625 53.90625 55.328125 
Q 53.90625 49.265625 50.4375 45.09375 
Q 46.96875 40.921875 40.578125 39.3125 
z
" id="DejaVuSans-51"/>
       </defs>
       <use xlink:href="#DejaVuSans-51"/>
       <use x="63.623047" xlink:href="#DejaVuSans-48"/>
      </g>
     </g>
    </g>
    <g id="ytick_5">
     <g id="line2d_14">
      <g>
       <use style="stroke:#000000;stroke-width:0.8;" x="54" xlink:href="#md6ed8efd6c" y="97.697933"/>
      </g>
     </g>
     <g id="text_14">
      <!-- 40 -->
      <g transform="translate(34.275 101.497152)scale(0.1 -0.1)">
       <defs>
        <path d="M 37.796875 64.3125 
L 12.890625 25.390625 
L 37.796875 25.390625 
z
M 35.203125 72.90625 
L 47.609375 72.90625 
L 47.609375 25.390625 
L 58.015625 25.390625 
L 58.015625 17.1875 
L 47.609375 17.1875 
L 47.609375 0 
L 37.796875 0 
L 37.796875 17.1875 
L 4.890625 17.1875 
L 4.890625 26.703125 
z
" id="DejaVuSans-52"/>
       </defs>
       <use xlink:href="#DejaVuSans-52"/>
       <use x="63.623047" xlink:href="#DejaVuSans-48"/>
      </g>
     </g>
    </g>
    <g id="ytick_6">
     <g id="line2d_15">
      <g>
       <use style="stroke:#000000;stroke-width:0.8;" x="54" xlink:href="#md6ed8efd6c" y="61.593325"/>
      </g>
     </g>
     <g id="text_15">
      <!-- 50 -->
      <g transform="translate(34.275 65.392544)scale(0.1 -0.1)">
       <use xlink:href="#DejaVuSans-53"/>
       <use x="63.623047" xlink:href="#DejaVuSans-48"/>
      </g>
     </g>
    </g>
   </g>
   <g id="line2d_16">
    <path clip-path="url(#pf4aacdf0db)" d="M 69.218182 208.86402 
L 69.514544 194.674909 
L 69.810906 194.313863 
L 70.107267 201.390366 
L 70.403629 202.581818 
L 70.699991 202.509609 
L 71.292715 199.729554 
L 71.589077 197.960428 
L 71.885439 217.16808 
L 72.1818 225.724872 
L 72.478162 225.580453 
L 72.774524 225.760976 
L 73.367248 205.397978 
L 73.66361 218.937205 
L 74.256334 224.53342 
L 74.849057 224.641733 
L 75.145419 226.916324 
L 75.441781 217.384707 
L 75.738143 215.398954 
L 76.034505 221.284005 
L 76.330867 190.992239 
L 76.627228 176.730919 
L 76.92359 181.352309 
L 77.516314 204.531467 
L 77.812676 233.920618 
L 78.109038 234.389978 
L 78.4054 214.496339 
L 78.701762 229.010391 
L 78.998123 228.468822 
L 79.590847 219.009415 
L 80.183571 227.710625 
L 80.479933 216.879243 
L 80.776295 218.215113 
L 81.072656 221.536737 
L 81.369018 221.2479 
L 81.66538 212.871631 
L 81.961742 222.475457 
L 82.258104 227.927253 
L 82.554466 228.865973 
L 82.850828 233.649833 
L 83.443551 239.66125 
L 83.739913 238.108752 
L 84.036275 240.36529 
L 84.332637 240.708284 
L 84.925361 235.220384 
L 85.221723 235.97858 
L 85.518084 234.787128 
L 85.814446 239.769564 
L 86.110808 240.924912 
L 86.40717 240.888807 
L 86.703532 239.065524 
L 86.999894 236.09592 
L 87.296256 237.571696 
L 87.592618 235.427985 
L 87.888979 235.545325 
L 88.185341 236.9173 
L 88.481703 236.845091 
L 88.778065 235.166227 
L 89.370789 228.68545 
L 89.667151 224.334844 
L 89.963512 228.541031 
L 90.259874 236.44794 
L 90.556236 238.036543 
L 90.852598 238.835357 
L 91.14896 237.786067 
L 91.445322 148.426035 
L 92.038045 239.941766 
L 92.334407 241.101274 
L 92.630769 241.229721 
L 92.927131 241.027672 
L 93.223493 240.652329 
L 93.519855 239.173838 
L 93.816217 239.89593 
L 94.112579 239.913983 
L 94.40894 236.955661 
L 94.705302 236.981611 
L 95.001664 231.1101 
L 95.298026 204.24263 
L 95.594388 210.416518 
L 95.89075 224.280687 
L 96.187112 211.030296 
L 96.483473 230.72536 
L 96.779835 233.731068 
L 97.076197 233.672399 
L 97.668921 208.755706 
L 97.965283 210.777564 
L 98.261645 210.849773 
L 98.558007 223.504438 
L 98.854368 224.569524 
L 99.15073 212.691108 
L 99.447092 224.677838 
L 99.743454 230.382366 
L 100.039816 230.887831 
L 100.336178 233.848408 
L 100.63254 214.830306 
L 100.928901 229.917519 
L 101.225263 238.174192 
L 101.521625 237.753347 
L 101.817987 236.703493 
L 102.114349 231.025479 
L 102.410711 216.626511 
L 102.707073 227.710625 
L 103.003435 229.533908 
L 103.299796 230.508732 
L 103.596158 230.057425 
L 103.89252 234.64271 
L 104.188882 231.970969 
L 104.485244 235.545325 
L 104.781606 236.429888 
L 105.077968 231.185694 
L 105.374329 219.659298 
L 105.670691 213.304887 
L 105.967053 204.170421 
L 106.559777 221.32011 
L 106.856139 224.06406 
L 107.152501 218.684473 
L 107.745224 231.068354 
L 108.041586 237.314451 
L 108.337948 237.170032 
L 108.63431 228.61324 
L 108.930672 231.609923 
L 109.227034 235.798057 
L 109.523396 233.054107 
L 109.819757 228.577136 
L 110.116119 218.50395 
L 110.412481 215.218431 
L 110.708843 223.233654 
L 111.005205 225.327721 
L 111.301567 226.194232 
L 111.597929 225.327721 
L 112.190652 221.32011 
L 112.487014 225.688767 
L 113.079738 222.764294 
L 113.3761 222.222725 
L 113.672462 209.622217 
L 113.968824 208.250242 
L 114.265185 192.977993 
L 114.561547 223.486386 
L 114.857909 223.775223 
L 115.450633 208.593235 
L 115.746995 216.084941 
L 116.043357 214.640757 
L 116.339719 210.597041 
L 116.63608 222.439352 
L 116.932442 219.984239 
L 117.228804 204.026002 
L 117.525166 200.415542 
L 117.821528 201.209843 
L 118.11789 184.782247 
L 118.414252 199.512927 
L 118.710613 202.4374 
L 119.006975 169.690521 
L 119.599699 193.808399 
L 119.896061 173.4454 
L 120.192423 185.901489 
L 120.488785 182.868702 
L 120.785146 176.369873 
L 121.081508 180.269171 
L 121.37787 149.435836 
L 121.674232 194.530491 
L 121.970594 186.479163 
L 122.266956 174.203597 
L 122.563318 173.264877 
L 122.85968 170.051567 
L 123.156041 193.519562 
L 123.452403 166.585524 
L 123.748765 125.967841 
L 124.045127 57.657923 
L 124.341489 44.443636 
L 125.230574 182.038296 
L 125.823298 62.09879 
L 126.11966 62.784777 
L 126.416022 72.67744 
L 126.712384 87.083178 
L 127.008746 178.590306 
L 127.305108 177.236384 
L 127.601469 190.595088 
L 128.194193 165.719014 
L 128.490555 178.500045 
L 129.083279 190.089624 
L 129.379641 190.414565 
L 129.676002 149.110894 
L 129.972364 177.091965 
L 130.268726 163.841574 
L 130.565088 178.824986 
L 130.86145 182.543761 
L 131.157812 128.820105 
L 131.750536 179.474869 
L 132.046897 159.039661 
L 132.343259 174.38412 
L 132.639621 177.200279 
L 132.935983 187.453988 
L 133.232345 176.405978 
L 133.528707 178.048737 
L 133.825069 146.439153 
L 134.12143 182.760389 
L 134.417792 182.904807 
L 134.714154 191.930959 
L 135.010516 174.420224 
L 135.306878 177.380802 
L 135.899602 157.703791 
L 136.195964 164.816399 
L 136.492325 178.716672 
L 136.788687 174.38412 
L 137.085049 172.326157 
L 137.677773 160.086695 
L 137.974135 122.718426 
L 138.270497 114.52268 
L 138.566858 135.752189 
L 138.86322 143.731308 
L 139.159582 127.303711 
L 139.752306 113.728379 
L 140.048668 129.397778 
L 140.34503 112.970182 
L 140.641392 112.17588 
L 140.937753 132.611088 
L 141.234115 107.987746 
L 141.530477 113.295123 
L 141.826839 91.126894 
L 142.123201 106.579666 
L 142.419563 137.593524 
L 143.012286 114.919831 
L 143.308648 142.756483 
L 143.60501 124.198715 
L 144.197734 118.385873 
L 144.494096 134.055273 
L 144.790458 122.285171 
L 145.08682 150.771706 
L 145.383181 149.977405 
L 145.679543 144.525609 
L 145.975905 131.852892 
L 146.272267 126.256677 
L 146.568629 161.855821 
L 147.161353 141.384508 
L 147.457714 167.199303 
L 147.754076 172.723308 
L 148.050438 174.492433 
L 148.3468 170.087671 
L 148.643162 142.034391 
L 149.235886 180.233066 
L 149.828609 165.719014 
L 150.124971 145.536538 
L 150.421333 151.782635 
L 150.717695 144.778341 
L 151.310419 139.398755 
L 151.606781 159.039661 
L 151.903142 148.388802 
L 152.199504 168.336598 
L 152.792228 160.592159 
L 153.08859 160.556055 
L 153.384952 168.968428 
L 153.681314 169.76273 
L 153.977675 141.70945 
L 154.274037 174.167492 
L 154.570399 160.1228 
L 154.866761 154.129435 
L 155.163123 169.29337 
L 156.052209 132.827716 
L 156.34857 154.707108 
L 156.644932 148.822057 
L 156.941294 106.326934 
L 157.237656 157.378849 
L 157.534018 179.149928 
L 157.83038 146.800199 
L 158.126742 131.961205 
L 158.423103 153.551761 
L 158.719465 147.702814 
L 159.015827 158.859138 
L 159.312189 242.116364 
L 159.608551 161.494775 
L 160.201275 135.896608 
L 160.497637 131.99731 
L 160.793998 135.318934 
L 161.09036 157.451059 
L 161.386722 133.87475 
L 161.683084 161.603088 
L 161.979446 167.65061 
L 162.275808 122.601086 
L 162.57217 95.062296 
L 162.868531 103.655193 
L 163.164893 141.059567 
L 163.461255 129.397778 
L 164.053979 124.523656 
L 164.350341 150.41066 
L 164.943065 97.4452 
L 165.239426 131.383532 
L 165.535788 131.1308 
L 165.83215 131.05859 
L 166.128512 148.713743 
L 166.721236 133.946959 
L 167.017598 152.324204 
L 167.313959 161.386461 
L 167.610321 185.757071 
L 167.906683 143.695203 
L 168.203045 174.095283 
L 168.499407 186.731895 
L 168.795769 172.470575 
L 169.092131 189.728578 
L 169.388493 182.218819 
L 169.684854 147.413978 
L 170.277578 170.23209 
L 170.57394 167.632558 
L 170.870302 178.427836 
L 171.166664 177.886267 
L 171.463026 141.24009 
L 171.759387 146.583572 
L 172.055749 146.078107 
L 172.352111 187.056837 
L 172.648473 179.619288 
L 172.944835 175.71999 
L 173.241197 135.968817 
L 173.537559 158.642511 
L 173.833921 169.437788 
L 174.130282 172.578889 
L 174.426644 170.520927 
L 174.723006 164.924712 
L 175.019368 161.92803 
L 175.31573 157.487163 
L 175.612092 169.979357 
L 175.908454 166.224478 
L 176.204815 132.538879 
L 176.501177 153.046296 
L 176.797539 160.772682 
L 177.093901 172.759412 
L 177.390263 157.234431 
L 177.686625 159.58123 
L 177.982987 192.653051 
L 178.279348 195.649733 
L 178.57571 189.1148 
L 178.872072 178.175103 
L 179.168434 173.337086 
L 179.464796 180.413589 
L 179.761158 178.102894 
L 180.05752 201.227895 
L 180.353882 192.292005 
L 180.650243 193.375143 
L 180.946605 188.284394 
L 181.242967 194.097235 
L 181.835691 172.109529 
L 182.132053 196.768976 
L 182.428415 194.674909 
L 182.724776 196.87729 
L 183.021138 187.70672 
L 183.3175 198.538102 
L 183.613862 170.448717 
L 184.206586 194.386072 
L 184.502948 191.678227 
L 184.79931 196.949499 
L 185.392033 183.338062 
L 185.688395 168.860115 
L 185.984757 192.797469 
L 186.281119 187.815034 
L 186.577481 195.288687 
L 186.873843 186.334745 
L 187.170204 192.653051 
L 187.466566 187.923347 
L 187.762928 189.945205 
L 188.05929 167.235407 
L 188.355652 196.660663 
L 188.652014 194.205549 
L 188.948376 203.195597 
L 189.244738 203.30391 
L 189.837461 187.165151 
L 190.133823 197.671592 
L 190.430185 198.393684 
L 190.726547 205.939547 
L 191.022909 196.299616 
L 191.319271 201.931935 
L 191.615632 204.314839 
L 191.911994 179.727601 
L 192.208356 166.802152 
L 192.80108 204.567572 
L 193.097442 185.82928 
L 193.393804 204.026002 
L 193.690166 196.263512 
L 193.986527 176.911442 
L 194.579251 206.914371 
L 194.875613 197.202232 
L 195.171975 197.34665 
L 195.468337 202.690132 
L 195.764699 181.929983 
L 196.06106 192.797469 
L 196.357422 192.977993 
L 196.653784 204.062107 
L 196.950146 193.339039 
L 197.246508 202.581818 
L 197.54287 201.787517 
L 197.839232 198.863044 
L 198.135594 176.478187 
L 198.431955 199.440717 
L 198.728317 206.625534 
L 199.024679 192.905783 
L 199.321041 191.208867 
L 199.617403 197.093918 
L 199.913765 185.323816 
L 200.210127 188.57323 
L 200.506488 180.630217 
L 200.80285 201.751412 
L 201.099212 188.428812 
L 201.395574 186.479163 
L 201.691936 197.563278 
L 202.28466 174.095283 
L 202.581022 177.52522 
L 202.877383 200.451646 
L 203.173745 197.671592 
L 203.470107 181.74946 
L 203.766469 195.216478 
L 204.062831 184.4212 
L 204.359193 189.04259 
L 204.655555 180.088648 
L 204.951916 189.764682 
L 205.248278 186.659686 
L 205.54464 197.960428 
L 205.841002 192.72526 
L 206.137364 198.718625 
L 206.433726 169.618311 
L 206.730088 167.993604 
L 207.026449 200.018391 
L 207.322811 189.331427 
L 207.619173 199.296299 
L 207.915535 189.439741 
L 208.211897 190.486775 
L 208.508259 147.738919 
L 209.100983 183.229748 
L 209.693706 160.51995 
L 209.990068 175.106212 
L 210.28643 173.770341 
L 210.582792 166.729943 
L 210.879154 169.004533 
L 211.175516 185.396025 
L 211.471877 174.709061 
L 211.768239 184.782247 
L 212.360963 165.466281 
L 212.657325 162.902854 
L 212.953687 163.227796 
L 213.250049 175.792199 
L 213.546411 170.62924 
L 213.842772 188.464917 
L 214.139134 180.269171 
L 214.435496 189.403636 
L 214.731858 193.844503 
L 215.02822 177.200279 
L 215.324582 174.456329 
L 215.620944 195.93857 
L 215.917305 186.262535 
L 216.213667 193.880608 
L 216.806391 187.815034 
L 217.102753 173.698132 
L 217.399115 193.19462 
L 217.695477 198.790834 
L 217.991839 192.544737 
L 218.2882 194.422177 
L 218.584562 199.007462 
L 218.880924 168.751801 
L 219.177286 161.422565 
L 219.473648 197.491068 
L 219.77001 191.606017 
L 220.066372 183.374167 
L 220.362733 190.956134 
L 220.955457 183.663004 
L 221.251819 180.594112 
L 221.844543 197.34665 
L 222.140905 187.887243 
L 222.437267 186.659686 
L 222.733628 197.779905 
L 223.02999 166.621629 
L 223.326352 175.575572 
L 223.622714 175.034002 
L 223.919076 189.945205 
L 224.215438 186.406954 
L 224.5118 188.862067 
L 224.808161 197.382755 
L 225.104523 176.983651 
L 225.400885 177.814057 
L 225.697247 162.902854 
L 225.993609 198.213161 
L 226.289971 184.601724 
L 226.586333 193.808399 
L 226.882695 181.568936 
L 227.179056 155.862456 
L 227.475418 164.563666 
L 227.77178 178.752777 
L 228.068142 170.123776 
L 228.364504 177.777953 
L 228.660866 160.664369 
L 228.957228 156.909489 
L 229.253589 169.618311 
L 229.549951 149.363626 
L 229.846313 162.86675 
L 230.142675 159.870067 
L 230.439037 160.98931 
L 230.735399 172.145634 
L 231.328123 169.004533 
L 231.624484 155.356991 
L 232.217208 172.001215 
L 232.809932 144.633923 
L 233.106294 166.116164 
L 233.402656 162.541808 
L 233.699017 156.115188 
L 233.995379 158.678615 
L 234.291741 181.532832 
L 234.588103 167.849186 
L 234.884465 174.203597 
L 235.477189 161.061519 
L 235.773551 129.542197 
L 236.069912 161.133729 
L 236.366274 172.903831 
L 236.662636 170.340403 
L 236.958998 147.233455 
L 237.25536 170.954182 
L 237.848084 152.396413 
L 238.144445 173.264877 
L 238.440807 155.393096 
L 238.737169 147.558396 
L 239.033531 161.494775 
L 239.329893 157.270535 
L 239.922617 135.138411 
L 240.218978 164.960817 
L 240.51534 150.121823 
L 240.811702 149.905196 
L 241.404426 155.988822 
L 241.700788 137.268583 
L 242.293512 143.839621 
L 242.589873 142.900902 
L 242.886235 128.531268 
L 243.182597 128.422954 
L 243.478959 131.816787 
L 243.775321 139.218232 
L 244.071683 126.328887 
L 244.664406 134.308005 
L 245.25713 111.489893 
L 245.849854 104.485599 
L 246.146216 114.414366 
L 246.442578 137.737943 
L 246.73894 135.968817 
L 247.035301 129.578301 
L 247.331663 151.999263 
L 247.628025 113.042391 
L 247.924387 124.018192 
L 248.220749 99.936418 
L 248.517111 99.828105 
L 248.813473 116.941689 
L 249.109834 110.587278 
L 249.406196 122.537903 
L 249.702558 109.251407 
L 250.295282 128.31464 
L 250.591644 175.358944 
L 250.888006 181.243995 
L 251.184368 179.330451 
L 251.480729 178.680568 
L 251.777091 187.959452 
L 252.073453 142.973111 
L 252.369815 183.482481 
L 252.666177 180.521903 
L 252.962539 181.063472 
L 253.258901 186.009803 
L 253.555262 176.767024 
L 253.851624 175.539467 
L 254.147986 183.771318 
L 254.444348 169.148951 
L 255.037072 188.10387 
L 255.333434 181.063472 
L 255.629796 178.391731 
L 255.926157 192.689156 
L 256.222519 166.838257 
L 256.518881 174.131387 
L 256.815243 189.475846 
L 257.111605 176.514291 
L 257.407967 187.562301 
L 257.704329 193.339039 
L 258.00069 184.348991 
L 258.297052 185.648757 
L 258.593414 174.925689 
L 258.889776 186.262535 
L 259.186138 180.269171 
L 259.4825 193.266829 
L 259.778862 177.850162 
L 260.075224 180.016438 
L 260.371585 181.2801 
L 260.667947 168.210232 
L 260.964309 187.129046 
L 261.260671 177.12807 
L 261.557033 175.900513 
L 261.853395 175.900513 
L 262.149757 193.483457 
L 262.446118 175.828304 
L 262.74248 168.715696 
L 263.038842 183.735213 
L 263.335204 183.987945 
L 263.631566 183.626899 
L 263.927928 180.521903 
L 264.22429 195.902466 
L 264.520652 174.925689 
L 264.817013 171.495751 
L 265.113375 183.08533 
L 265.409737 183.590795 
L 265.706099 182.652075 
L 266.002461 184.565619 
L 266.298823 183.374167 
L 266.595185 178.897196 
L 266.891546 164.383143 
L 267.187908 184.926665 
L 267.48427 183.879631 
L 267.780632 184.998874 
L 268.076994 170.557031 
L 268.373356 196.263512 
L 268.669718 174.348015 
L 268.966079 161.205938 
L 269.262441 182.471552 
L 269.558803 185.504339 
L 269.855165 182.218819 
L 270.151527 190.161833 
L 270.744251 164.924712 
L 271.040613 170.70145 
L 271.336974 193.050202 
L 271.633336 182.399342 
L 271.929698 191.894854 
L 272.22606 183.518585 
L 272.522422 190.775611 
L 272.818784 181.641146 
L 273.115146 177.52522 
L 273.411507 183.265853 
L 273.707869 196.660663 
L 274.004231 181.929983 
L 274.300593 195.93857 
L 274.596955 191.136658 
L 274.893317 168.065813 
L 275.189679 186.226431 
L 275.486041 174.456329 
L 275.782402 175.900513 
L 276.078764 192.400319 
L 276.375126 183.699108 
L 276.671488 194.783223 
L 277.264212 170.593136 
L 277.560574 193.014097 
L 278.153297 175.503362 
L 278.746021 177.633534 
L 279.042383 188.067766 
L 279.338745 160.086695 
L 279.635107 188.57323 
L 279.931469 194.855432 
L 280.22783 183.879631 
L 280.524192 199.982286 
L 280.820554 192.941888 
L 281.116916 182.038296 
L 281.413278 181.135681 
L 281.70964 183.55469 
L 282.006002 189.150904 
L 282.302363 182.760389 
L 282.598725 198.140951 
L 282.895087 190.811716 
L 283.191449 167.090989 
L 283.487811 166.296687 
L 284.080535 204.892513 
L 284.376897 186.370849 
L 284.673258 192.039273 
L 284.96962 206.156174 
L 285.265982 174.817375 
L 285.562344 177.59743 
L 285.858706 190.811716 
L 286.155068 187.851138 
L 286.45143 202.762341 
L 286.747791 193.158516 
L 287.044153 205.217455 
L 287.340515 188.139975 
L 287.636877 180.052543 
L 287.933239 203.628852 
L 288.229601 187.273465 
L 288.525963 198.682521 
L 288.822325 177.814057 
L 289.118686 193.952817 
L 289.415048 192.905783 
L 289.71141 197.599382 
L 290.007772 198.718625 
L 290.304134 198.790834 
L 290.600496 202.148563 
L 290.896858 190.089624 
L 291.193219 200.271123 
L 291.489581 206.156174 
L 291.785943 186.515268 
L 292.082305 195.721943 
L 292.675029 204.549519 
L 292.971391 196.588453 
L 293.564114 206.661639 
L 293.860476 189.656369 
L 294.4532 203.809375 
L 294.749562 196.660663 
L 295.045924 203.556643 
L 295.342286 200.415542 
L 295.638647 194.025026 
L 295.935009 184.782247 
L 296.231371 207.203208 
L 296.527733 205.65071 
L 296.824095 196.046884 
L 297.120457 202.654027 
L 297.416819 198.75473 
L 297.71318 206.083965 
L 298.009542 178.824986 
L 298.305904 200.632169 
L 298.602266 194.927641 
L 298.898628 205.361873 
L 299.19499 194.6027 
L 299.491352 208.033614 
L 299.787714 181.67725 
L 300.084075 178.175103 
L 300.380437 207.564254 
L 300.676799 197.924324 
L 300.973161 207.239313 
L 301.269523 204.964722 
L 301.862247 195.577524 
L 302.158608 191.353285 
L 302.45497 202.581818 
L 302.751332 206.769953 
L 303.047694 201.354262 
L 303.344056 192.616946 
L 303.640418 197.491068 
L 303.93678 183.55469 
L 304.233142 184.637828 
L 304.529503 191.38939 
L 304.825865 207.744777 
L 305.122227 189.728578 
L 305.418589 203.087283 
L 305.714951 210.705355 
L 306.011313 198.213161 
L 306.307675 167.849186 
L 306.604036 198.790834 
L 306.900398 201.101529 
L 307.19676 185.937594 
L 307.493122 199.982286 
L 307.789484 193.880608 
L 308.085846 192.653051 
L 308.382208 187.381778 
L 308.67857 193.19462 
L 308.974931 202.581818 
L 309.271293 191.642122 
L 309.567655 187.959452 
L 309.864017 197.852115 
L 310.160379 191.281076 
L 310.456741 179.87202 
L 310.753103 206.914371 
L 311.049464 198.574207 
L 311.345826 206.481116 
L 311.642188 204.603676 
L 311.93855 196.552349 
L 312.234912 198.935253 
L 312.531274 184.457305 
L 312.827636 199.115776 
L 313.123998 202.545714 
L 313.420359 193.772294 
L 313.716721 203.484433 
L 314.013083 194.747118 
L 314.309445 203.015073 
L 314.605807 196.119093 
L 314.902169 199.765659 
L 315.198531 194.819328 
L 315.791254 204.24263 
L 316.087616 193.844503 
L 316.383978 201.534785 
L 316.68034 178.752777 
L 316.976702 206.083965 
L 317.273064 188.501021 
L 317.569426 206.192279 
L 317.865787 203.77327 
L 318.162149 188.17608 
L 318.458511 179.113823 
L 318.754873 181.460623 
L 319.051235 199.007462 
L 319.643959 150.735601 
L 319.94032 176.117141 
L 320.236682 177.633534 
L 320.533044 192.833574 
L 320.829406 173.752289 
L 321.42213 196.985604 
L 321.718492 177.777953 
L 322.014854 197.635487 
L 322.607577 186.045908 
L 322.903939 178.030685 
L 323.200301 193.700085 
L 323.496663 194.747118 
L 323.793025 198.538102 
L 324.089387 192.292005 
L 324.385748 200.379437 
L 324.68211 198.249265 
L 324.978472 188.64544 
L 325.274834 197.093918 
L 325.571196 199.007462 
L 325.867558 194.097235 
L 326.16392 198.826939 
L 326.460281 196.263512 
L 327.053005 175.106212 
L 327.349367 194.494386 
L 327.645729 180.395537 
L 327.942091 194.855432 
L 328.238453 196.371826 
L 328.534815 201.679203 
L 328.831176 179.149928 
L 329.127538 193.736189 
L 329.4239 193.519562 
L 329.720262 198.899148 
L 330.016624 195.252583 
L 330.312986 206.192279 
L 330.609348 192.003168 
L 330.905709 188.139975 
L 331.202071 187.562301 
L 331.794795 203.881584 
L 332.091157 185.540443 
L 332.387519 200.235019 
L 332.683881 195.108164 
L 332.980243 187.129046 
L 333.276604 182.471552 
L 333.572966 181.171786 
L 333.869328 187.092941 
L 334.16569 199.440717 
L 334.462052 186.984628 
L 334.758414 195.360897 
L 335.054776 182.832598 
L 335.351137 190.956134 
L 335.647499 192.111482 
L 335.943861 193.736189 
L 336.240223 192.32811 
L 336.536585 189.150904 
L 336.832947 168.462964 
L 337.129309 171.0986 
L 337.425671 187.70672 
L 337.722032 189.367532 
L 338.018394 194.674909 
L 338.314756 183.518585 
L 338.611118 199.404613 
L 338.90748 186.262535 
L 339.203842 183.518585 
L 339.500204 139.326545 
L 339.796565 189.006486 
L 340.092927 199.873973 
L 340.389289 189.548055 
L 340.685651 194.13334 
L 340.982013 189.584159 
L 341.278375 178.355626 
L 341.871099 181.352309 
L 342.463822 201.534785 
L 342.760184 189.51195 
L 343.056546 192.72526 
L 343.352908 177.814057 
L 343.64927 176.983651 
L 343.945632 179.980334 
L 344.241993 193.772294 
L 344.834717 167.740872 
L 345.131079 163.73326 
L 345.427441 182.182715 
L 345.723803 169.112847 
L 346.020165 193.627875 
L 346.316527 183.879631 
L 346.612888 193.375143 
L 346.90925 176.875337 
L 347.205612 188.284394 
L 347.501974 163.877679 
L 347.798336 168.715696 
L 348.094698 189.241166 
L 348.39106 193.302934 
L 348.983783 139.976428 
L 349.280145 138.351721 
L 349.576507 170.665345 
L 349.872869 163.516633 
L 350.169231 183.265853 
L 350.465593 179.835915 
L 350.761955 150.952229 
L 351.058316 155.356991 
L 351.354678 183.013121 
L 351.65104 194.169445 
L 351.947402 210.127681 
L 352.243764 210.19989 
L 352.540126 209.838844 
L 352.836488 210.416518 
L 353.132849 209.911054 
L 353.429211 195.035955 
L 353.725573 185.82928 
L 354.021935 92.571078 
L 354.318297 83.25609 
L 354.614659 79.537315 
L 354.911021 68.742037 
L 355.207382 76.901679 
L 355.503744 73.219009 
L 355.800106 64.120648 
L 356.096468 78.923537 
L 356.39283 85.855621 
L 356.689192 72.244184 
L 357.281916 176.694814 
L 357.578277 177.272488 
L 357.874639 161.494775 
L 358.171001 174.889584 
L 358.467363 161.494775 
L 358.763725 181.966087 
L 359.060087 189.584159 
L 359.356449 180.846844 
L 359.65281 190.342356 
L 359.949172 179.944229 
L 360.245534 163.588842 
L 360.541896 191.064448 
L 360.838258 187.959452 
L 361.13462 163.552737 
L 361.430982 108.132164 
L 361.727344 128.098012 
L 362.023705 128.134117 
L 362.320067 85.53068 
L 362.616429 163.841574 
L 362.912791 191.299128 
L 363.209153 187.959452 
L 363.505515 181.713355 
L 363.801877 186.731895 
L 364.098238 167.524244 
L 364.3946 166.910466 
L 364.690962 192.111482 
L 365.283686 186.840209 
L 365.580048 189.98131 
L 365.87641 183.590795 
L 366.172772 187.23736 
L 366.469133 153.840598 
L 366.765495 185.323816 
L 367.061857 194.6027 
L 367.654581 184.998874 
L 367.950943 190.956134 
L 368.543666 163.372214 
L 368.840028 193.519562 
L 369.13639 184.96277 
L 369.432752 193.158516 
L 370.025476 163.300005 
L 370.321838 127.339816 
L 370.6182 153.62397 
L 370.914561 148.749848 
L 371.210923 174.059178 
L 371.507285 188.609335 
L 371.803647 184.710037 
L 372.100009 189.620264 
L 372.396371 168.336598 
L 372.692733 157.523268 
L 372.989094 187.273465 
L 373.285456 181.966087 
L 373.581818 185.396025 
L 373.581818 185.396025 
" style="fill:none;stroke:#000000;stroke-linecap:square;stroke-width:1.5;"/>
   </g>
   <g id="patch_3">
    <path d="M 54 252 
L 54 34.56 
" style="fill:none;stroke:#000000;stroke-linecap:square;stroke-linejoin:miter;stroke-width:0.8;"/>
   </g>
   <g id="patch_4">
    <path d="M 388.8 252 
L 388.8 34.56 
" style="fill:none;stroke:#000000;stroke-linecap:square;stroke-linejoin:miter;stroke-width:0.8;"/>
   </g>
   <g id="patch_5">
    <path d="M 54 252 
L 388.8 252 
" style="fill:none;stroke:#000000;stroke-linecap:square;stroke-linejoin:miter;stroke-width:0.8;"/>
   </g>
   <g id="patch_6">
    <path d="M 54 34.56 
L 388.8 34.56 
" style="fill:none;stroke:#000000;stroke-linecap:square;stroke-linejoin:miter;stroke-width:0.8;"/>
   </g>
   <g id="text_16">
    <!-- Soma Diária de Energia - Casa 9 -->
    <g transform="translate(124.230938 28.56)scale(0.12 -0.12)">
     <defs>
      <path d="M 53.515625 70.515625 
L 53.515625 60.890625 
Q 47.90625 63.578125 42.921875 64.890625 
Q 37.9375 66.21875 33.296875 66.21875 
Q 25.25 66.21875 20.875 63.09375 
Q 16.5 59.96875 16.5 54.203125 
Q 16.5 49.359375 19.40625 46.890625 
Q 22.3125 44.4375 30.421875 42.921875 
L 36.375 41.703125 
Q 47.40625 39.59375 52.65625 34.296875 
Q 57.90625 29 57.90625 20.125 
Q 57.90625 9.515625 50.796875 4.046875 
Q 43.703125 -1.421875 29.984375 -1.421875 
Q 24.8125 -1.421875 18.96875 -0.25 
Q 13.140625 0.921875 6.890625 3.21875 
L 6.890625 13.375 
Q 12.890625 10.015625 18.65625 8.296875 
Q 24.421875 6.59375 29.984375 6.59375 
Q 38.421875 6.59375 43.015625 9.90625 
Q 47.609375 13.234375 47.609375 19.390625 
Q 47.609375 24.75 44.3125 27.78125 
Q 41.015625 30.8125 33.5 32.328125 
L 27.484375 33.5 
Q 16.453125 35.6875 11.515625 40.375 
Q 6.59375 45.0625 6.59375 53.421875 
Q 6.59375 63.09375 13.40625 68.65625 
Q 20.21875 74.21875 32.171875 74.21875 
Q 37.3125 74.21875 42.625 73.28125 
Q 47.953125 72.359375 53.515625 70.515625 
z
" id="DejaVuSans-83"/>
      <path d="M 30.609375 48.390625 
Q 23.390625 48.390625 19.1875 42.75 
Q 14.984375 37.109375 14.984375 27.296875 
Q 14.984375 17.484375 19.15625 11.84375 
Q 23.34375 6.203125 30.609375 6.203125 
Q 37.796875 6.203125 41.984375 11.859375 
Q 46.1875 17.53125 46.1875 27.296875 
Q 46.1875 37.015625 41.984375 42.703125 
Q 37.796875 48.390625 30.609375 48.390625 
z
M 30.609375 56 
Q 42.328125 56 49.015625 48.375 
Q 55.71875 40.765625 55.71875 27.296875 
Q 55.71875 13.875 49.015625 6.21875 
Q 42.328125 -1.421875 30.609375 -1.421875 
Q 18.84375 -1.421875 12.171875 6.21875 
Q 5.515625 13.875 5.515625 27.296875 
Q 5.515625 40.765625 12.171875 48.375 
Q 18.84375 56 30.609375 56 
z
" id="DejaVuSans-111"/>
      <path d="M 52 44.1875 
Q 55.375 50.25 60.0625 53.125 
Q 64.75 56 71.09375 56 
Q 79.640625 56 84.28125 50.015625 
Q 88.921875 44.046875 88.921875 33.015625 
L 88.921875 0 
L 79.890625 0 
L 79.890625 32.71875 
Q 79.890625 40.578125 77.09375 44.375 
Q 74.3125 48.1875 68.609375 48.1875 
Q 61.625 48.1875 57.5625 43.546875 
Q 53.515625 38.921875 53.515625 30.90625 
L 53.515625 0 
L 44.484375 0 
L 44.484375 32.71875 
Q 44.484375 40.625 41.703125 44.40625 
Q 38.921875 48.1875 33.109375 48.1875 
Q 26.21875 48.1875 22.15625 43.53125 
Q 18.109375 38.875 18.109375 30.90625 
L 18.109375 0 
L 9.078125 0 
L 9.078125 54.6875 
L 18.109375 54.6875 
L 18.109375 46.1875 
Q 21.1875 51.21875 25.484375 53.609375 
Q 29.78125 56 35.6875 56 
Q 41.65625 56 45.828125 52.96875 
Q 50 49.953125 52 44.1875 
z
" id="DejaVuSans-109"/>
      <path d="M 34.28125 27.484375 
Q 23.390625 27.484375 19.1875 25 
Q 14.984375 22.515625 14.984375 16.5 
Q 14.984375 11.71875 18.140625 8.90625 
Q 21.296875 6.109375 26.703125 6.109375 
Q 34.1875 6.109375 38.703125 11.40625 
Q 43.21875 16.703125 43.21875 25.484375 
L 43.21875 27.484375 
z
M 52.203125 31.203125 
L 52.203125 0 
L 43.21875 0 
L 43.21875 8.296875 
Q 40.140625 3.328125 35.546875 0.953125 
Q 30.953125 -1.421875 24.3125 -1.421875 
Q 15.921875 -1.421875 10.953125 3.296875 
Q 6 8.015625 6 15.921875 
Q 6 25.140625 12.171875 29.828125 
Q 18.359375 34.515625 30.609375 34.515625 
L 43.21875 34.515625 
L 43.21875 35.40625 
Q 43.21875 41.609375 39.140625 45 
Q 35.0625 48.390625 27.6875 48.390625 
Q 23 48.390625 18.546875 47.265625 
Q 14.109375 46.140625 10.015625 43.890625 
L 10.015625 52.203125 
Q 14.9375 54.109375 19.578125 55.046875 
Q 24.21875 56 28.609375 56 
Q 40.484375 56 46.34375 49.84375 
Q 52.203125 43.703125 52.203125 31.203125 
z
" id="DejaVuSans-97"/>
      <path id="DejaVuSans-32"/>
      <path d="M 19.671875 64.796875 
L 19.671875 8.109375 
L 31.59375 8.109375 
Q 46.6875 8.109375 53.6875 14.9375 
Q 60.6875 21.78125 60.6875 36.53125 
Q 60.6875 51.171875 53.6875 57.984375 
Q 46.6875 64.796875 31.59375 64.796875 
z
M 9.8125 72.90625 
L 30.078125 72.90625 
Q 51.265625 72.90625 61.171875 64.09375 
Q 71.09375 55.28125 71.09375 36.53125 
Q 71.09375 17.671875 61.125 8.828125 
Q 51.171875 0 30.078125 0 
L 9.8125 0 
z
" id="DejaVuSans-68"/>
      <path d="M 9.421875 54.6875 
L 18.40625 54.6875 
L 18.40625 0 
L 9.421875 0 
z
M 9.421875 75.984375 
L 18.40625 75.984375 
L 18.40625 64.59375 
L 9.421875 64.59375 
z
" id="DejaVuSans-105"/>
      <path d="M 34.28125 27.484375 
Q 23.390625 27.484375 19.1875 25 
Q 14.984375 22.515625 14.984375 16.5 
Q 14.984375 11.71875 18.140625 8.90625 
Q 21.296875 6.109375 26.703125 6.109375 
Q 34.1875 6.109375 38.703125 11.40625 
Q 43.21875 16.703125 43.21875 25.484375 
L 43.21875 27.484375 
z
M 52.203125 31.203125 
L 52.203125 0 
L 43.21875 0 
L 43.21875 8.296875 
Q 40.140625 3.328125 35.546875 0.953125 
Q 30.953125 -1.421875 24.3125 -1.421875 
Q 15.921875 -1.421875 10.953125 3.296875 
Q 6 8.015625 6 15.921875 
Q 6 25.140625 12.171875 29.828125 
Q 18.359375 34.515625 30.609375 34.515625 
L 43.21875 34.515625 
L 43.21875 35.40625 
Q 43.21875 41.609375 39.140625 45 
Q 35.0625 48.390625 27.6875 48.390625 
Q 23 48.390625 18.546875 47.265625 
Q 14.109375 46.140625 10.015625 43.890625 
L 10.015625 52.203125 
Q 14.9375 54.109375 19.578125 55.046875 
Q 24.21875 56 28.609375 56 
Q 40.484375 56 46.34375 49.84375 
Q 52.203125 43.703125 52.203125 31.203125 
z
M 35.796875 79.984375 
L 45.515625 79.984375 
L 29.59375 61.625 
L 22.125 61.625 
z
" id="DejaVuSans-225"/>
      <path d="M 41.109375 46.296875 
Q 39.59375 47.171875 37.8125 47.578125 
Q 36.03125 48 33.890625 48 
Q 26.265625 48 22.1875 43.046875 
Q 18.109375 38.09375 18.109375 28.8125 
L 18.109375 0 
L 9.078125 0 
L 9.078125 54.6875 
L 18.109375 54.6875 
L 18.109375 46.1875 
Q 20.953125 51.171875 25.484375 53.578125 
Q 30.03125 56 36.53125 56 
Q 37.453125 56 38.578125 55.875 
Q 39.703125 55.765625 41.0625 55.515625 
z
" id="DejaVuSans-114"/>
      <path d="M 45.40625 46.390625 
L 45.40625 75.984375 
L 54.390625 75.984375 
L 54.390625 0 
L 45.40625 0 
L 45.40625 8.203125 
Q 42.578125 3.328125 38.25 0.953125 
Q 33.9375 -1.421875 27.875 -1.421875 
Q 17.96875 -1.421875 11.734375 6.484375 
Q 5.515625 14.40625 5.515625 27.296875 
Q 5.515625 40.1875 11.734375 48.09375 
Q 17.96875 56 27.875 56 
Q 33.9375 56 38.25 53.625 
Q 42.578125 51.265625 45.40625 46.390625 
z
M 14.796875 27.296875 
Q 14.796875 17.390625 18.875 11.75 
Q 22.953125 6.109375 30.078125 6.109375 
Q 37.203125 6.109375 41.296875 11.75 
Q 45.40625 17.390625 45.40625 27.296875 
Q 45.40625 37.203125 41.296875 42.84375 
Q 37.203125 48.484375 30.078125 48.484375 
Q 22.953125 48.484375 18.875 42.84375 
Q 14.796875 37.203125 14.796875 27.296875 
z
" id="DejaVuSans-100"/>
      <path d="M 56.203125 29.59375 
L 56.203125 25.203125 
L 14.890625 25.203125 
Q 15.484375 15.921875 20.484375 11.0625 
Q 25.484375 6.203125 34.421875 6.203125 
Q 39.59375 6.203125 44.453125 7.46875 
Q 49.3125 8.734375 54.109375 11.28125 
L 54.109375 2.78125 
Q 49.265625 0.734375 44.1875 -0.34375 
Q 39.109375 -1.421875 33.890625 -1.421875 
Q 20.796875 -1.421875 13.15625 6.1875 
Q 5.515625 13.8125 5.515625 26.8125 
Q 5.515625 40.234375 12.765625 48.109375 
Q 20.015625 56 32.328125 56 
Q 43.359375 56 49.78125 48.890625 
Q 56.203125 41.796875 56.203125 29.59375 
z
M 47.21875 32.234375 
Q 47.125 39.59375 43.09375 43.984375 
Q 39.0625 48.390625 32.421875 48.390625 
Q 24.90625 48.390625 20.390625 44.140625 
Q 15.875 39.890625 15.1875 32.171875 
z
" id="DejaVuSans-101"/>
      <path d="M 9.8125 72.90625 
L 55.90625 72.90625 
L 55.90625 64.59375 
L 19.671875 64.59375 
L 19.671875 43.015625 
L 54.390625 43.015625 
L 54.390625 34.71875 
L 19.671875 34.71875 
L 19.671875 8.296875 
L 56.78125 8.296875 
L 56.78125 0 
L 9.8125 0 
z
" id="DejaVuSans-69"/>
      <path d="M 54.890625 33.015625 
L 54.890625 0 
L 45.90625 0 
L 45.90625 32.71875 
Q 45.90625 40.484375 42.875 44.328125 
Q 39.84375 48.1875 33.796875 48.1875 
Q 26.515625 48.1875 22.3125 43.546875 
Q 18.109375 38.921875 18.109375 30.90625 
L 18.109375 0 
L 9.078125 0 
L 9.078125 54.6875 
L 18.109375 54.6875 
L 18.109375 46.1875 
Q 21.34375 51.125 25.703125 53.5625 
Q 30.078125 56 35.796875 56 
Q 45.21875 56 50.046875 50.171875 
Q 54.890625 44.34375 54.890625 33.015625 
z
" id="DejaVuSans-110"/>
      <path d="M 45.40625 27.984375 
Q 45.40625 37.75 41.375 43.109375 
Q 37.359375 48.484375 30.078125 48.484375 
Q 22.859375 48.484375 18.828125 43.109375 
Q 14.796875 37.75 14.796875 27.984375 
Q 14.796875 18.265625 18.828125 12.890625 
Q 22.859375 7.515625 30.078125 7.515625 
Q 37.359375 7.515625 41.375 12.890625 
Q 45.40625 18.265625 45.40625 27.984375 
z
M 54.390625 6.78125 
Q 54.390625 -7.171875 48.1875 -13.984375 
Q 42 -20.796875 29.203125 -20.796875 
Q 24.46875 -20.796875 20.265625 -20.09375 
Q 16.0625 -19.390625 12.109375 -17.921875 
L 12.109375 -9.1875 
Q 16.0625 -11.328125 19.921875 -12.34375 
Q 23.78125 -13.375 27.78125 -13.375 
Q 36.625 -13.375 41.015625 -8.765625 
Q 45.40625 -4.15625 45.40625 5.171875 
L 45.40625 9.625 
Q 42.625 4.78125 38.28125 2.390625 
Q 33.9375 0 27.875 0 
Q 17.828125 0 11.671875 7.65625 
Q 5.515625 15.328125 5.515625 27.984375 
Q 5.515625 40.671875 11.671875 48.328125 
Q 17.828125 56 27.875 56 
Q 33.9375 56 38.28125 53.609375 
Q 42.625 51.21875 45.40625 46.390625 
L 45.40625 54.6875 
L 54.390625 54.6875 
z
" id="DejaVuSans-103"/>
      <path d="M 64.40625 67.28125 
L 64.40625 56.890625 
Q 59.421875 61.53125 53.78125 63.8125 
Q 48.140625 66.109375 41.796875 66.109375 
Q 29.296875 66.109375 22.65625 58.46875 
Q 16.015625 50.828125 16.015625 36.375 
Q 16.015625 21.96875 22.65625 14.328125 
Q 29.296875 6.6875 41.796875 6.6875 
Q 48.140625 6.6875 53.78125 8.984375 
Q 59.421875 11.28125 64.40625 15.921875 
L 64.40625 5.609375 
Q 59.234375 2.09375 53.4375 0.328125 
Q 47.65625 -1.421875 41.21875 -1.421875 
Q 24.65625 -1.421875 15.125 8.703125 
Q 5.609375 18.84375 5.609375 36.375 
Q 5.609375 53.953125 15.125 64.078125 
Q 24.65625 74.21875 41.21875 74.21875 
Q 47.75 74.21875 53.53125 72.484375 
Q 59.328125 70.75 64.40625 67.28125 
z
" id="DejaVuSans-67"/>
      <path d="M 44.28125 53.078125 
L 44.28125 44.578125 
Q 40.484375 46.53125 36.375 47.5 
Q 32.28125 48.484375 27.875 48.484375 
Q 21.1875 48.484375 17.84375 46.4375 
Q 14.5 44.390625 14.5 40.28125 
Q 14.5 37.15625 16.890625 35.375 
Q 19.28125 33.59375 26.515625 31.984375 
L 29.59375 31.296875 
Q 39.15625 29.25 43.1875 25.515625 
Q 47.21875 21.78125 47.21875 15.09375 
Q 47.21875 7.46875 41.1875 3.015625 
Q 35.15625 -1.421875 24.609375 -1.421875 
Q 20.21875 -1.421875 15.453125 -0.5625 
Q 10.6875 0.296875 5.421875 2 
L 5.421875 11.28125 
Q 10.40625 8.6875 15.234375 7.390625 
Q 20.0625 6.109375 24.8125 6.109375 
Q 31.15625 6.109375 34.5625 8.28125 
Q 37.984375 10.453125 37.984375 14.40625 
Q 37.984375 18.0625 35.515625 20.015625 
Q 33.0625 21.96875 24.703125 23.78125 
L 21.578125 24.515625 
Q 13.234375 26.265625 9.515625 29.90625 
Q 5.8125 33.546875 5.8125 39.890625 
Q 5.8125 47.609375 11.28125 51.796875 
Q 16.75 56 26.8125 56 
Q 31.78125 56 36.171875 55.265625 
Q 40.578125 54.546875 44.28125 53.078125 
z
" id="DejaVuSans-115"/>
     </defs>
     <use xlink:href="#DejaVuSans-83"/>
     <use x="63.476562" xlink:href="#DejaVuSans-111"/>
     <use x="124.658203" xlink:href="#DejaVuSans-109"/>
     <use x="222.070312" xlink:href="#DejaVuSans-97"/>
     <use x="283.349609" xlink:href="#DejaVuSans-32"/>
     <use x="315.136719" xlink:href="#DejaVuSans-68"/>
     <use x="392.138672" xlink:href="#DejaVuSans-105"/>
     <use x="419.921875" xlink:href="#DejaVuSans-225"/>
     <use x="481.201172" xlink:href="#DejaVuSans-114"/>
     <use x="522.314453" xlink:href="#DejaVuSans-105"/>
     <use x="550.097656" xlink:href="#DejaVuSans-97"/>
     <use x="611.376953" xlink:href="#DejaVuSans-32"/>
     <use x="643.164062" xlink:href="#DejaVuSans-100"/>
     <use x="706.640625" xlink:href="#DejaVuSans-101"/>
     <use x="768.164062" xlink:href="#DejaVuSans-32"/>
     <use x="799.951172" xlink:href="#DejaVuSans-69"/>
     <use x="863.134766" xlink:href="#DejaVuSans-110"/>
     <use x="926.513672" xlink:href="#DejaVuSans-101"/>
     <use x="988.037109" xlink:href="#DejaVuSans-114"/>
     <use x="1027.400391" xlink:href="#DejaVuSans-103"/>
     <use x="1090.876953" xlink:href="#DejaVuSans-105"/>
     <use x="1118.660156" xlink:href="#DejaVuSans-97"/>
     <use x="1179.939453" xlink:href="#DejaVuSans-32"/>
     <use x="1211.726562" xlink:href="#DejaVuSans-45"/>
     <use x="1247.810547" xlink:href="#DejaVuSans-32"/>
     <use x="1279.597656" xlink:href="#DejaVuSans-67"/>
     <use x="1349.421875" xlink:href="#DejaVuSans-97"/>
     <use x="1410.701172" xlink:href="#DejaVuSans-115"/>
     <use x="1462.800781" xlink:href="#DejaVuSans-97"/>
     <use x="1524.080078" xlink:href="#DejaVuSans-32"/>
     <use x="1555.867188" xlink:href="#DejaVuSans-57"/>
    </g>
   </g>
  </g>
 </g>
 <defs>
  <clipPath id="pf4aacdf0db">
   <rect height="217.44" width="334.8" x="54" y="34.56"/>
  </clipPath>
 </defs>
</svg>
