<?xml version="1.0" encoding="utf-8" standalone="no"?>
<!DOCTYPE svg PUBLIC "-//W3C//DTD SVG 1.1//EN"
  "http://www.w3.org/Graphics/SVG/1.1/DTD/svg11.dtd">
<!-- Created with matplotlib (https://matplotlib.org/) -->
<svg height="288pt" version="1.1" viewBox="0 0 432 288" width="432pt" xmlns="http://www.w3.org/2000/svg" xmlns:xlink="http://www.w3.org/1999/xlink">
 <metadata>
  <rdf:RDF xmlns:cc="http://creativecommons.org/ns#" xmlns:dc="http://purl.org/dc/elements/1.1/" xmlns:rdf="http://www.w3.org/1999/02/22-rdf-syntax-ns#">
   <cc:Work>
    <dc:type rdf:resource="http://purl.org/dc/dcmitype/StillImage"/>
    <dc:date>2021-07-21T14:57:48.625092</dc:date>
    <dc:format>image/svg+xml</dc:format>
    <dc:creator>
     <cc:Agent>
      <dc:title>Matplotlib v3.3.4, https://matplotlib.org/</dc:title>
     </cc:Agent>
    </dc:creator>
   </cc:Work>
  </rdf:RDF>
 </metadata>
 <defs>
  <style type="text/css">*{stroke-linecap:butt;stroke-linejoin:round;}</style>
 </defs>
 <g id="figure_1">
  <g id="patch_1">
   <path d="M 0 288 
L 432 288 
L 432 0 
L 0 0 
z
" style="fill:#ffffff;"/>
  </g>
  <g id="axes_1">
   <g id="patch_2">
    <path d="M 54 252 
L 388.8 252 
L 388.8 34.56 
L 54 34.56 
z
" style="fill:#ffffff;"/>
   </g>
   <g id="matplotlib.axis_1">
    <g id="xtick_1">
     <g id="line2d_1">
      <defs>
       <path d="M 0 0 
L 0 3.5 
" id="m985107902e" style="stroke:#000000;stroke-width:0.8;"/>
      </defs>
      <g>
       <use style="stroke:#000000;stroke-width:0.8;" x="55.042341" xlink:href="#m985107902e" y="252"/>
      </g>
     </g>
     <g id="text_1">
      <!-- 2015-01 -->
      <g transform="translate(42.221059 293.917817)rotate(-45)scale(0.1 -0.1)">
       <defs>
        <path d="M 19.1875 8.296875 
L 53.609375 8.296875 
L 53.609375 0 
L 7.328125 0 
L 7.328125 8.296875 
Q 12.9375 14.109375 22.625 23.890625 
Q 32.328125 33.6875 34.8125 36.53125 
Q 39.546875 41.84375 41.421875 45.53125 
Q 43.3125 49.21875 43.3125 52.78125 
Q 43.3125 58.59375 39.234375 62.25 
Q 35.15625 65.921875 28.609375 65.921875 
Q 23.96875 65.921875 18.8125 64.3125 
Q 13.671875 62.703125 7.8125 59.421875 
L 7.8125 69.390625 
Q 13.765625 71.78125 18.9375 73 
Q 24.125 74.21875 28.421875 74.21875 
Q 39.75 74.21875 46.484375 68.546875 
Q 53.21875 62.890625 53.21875 53.421875 
Q 53.21875 48.921875 51.53125 44.890625 
Q 49.859375 40.875 45.40625 35.40625 
Q 44.1875 33.984375 37.640625 27.21875 
Q 31.109375 20.453125 19.1875 8.296875 
z
" id="DejaVuSans-50"/>
        <path d="M 31.78125 66.40625 
Q 24.171875 66.40625 20.328125 58.90625 
Q 16.5 51.421875 16.5 36.375 
Q 16.5 21.390625 20.328125 13.890625 
Q 24.171875 6.390625 31.78125 6.390625 
Q 39.453125 6.390625 43.28125 13.890625 
Q 47.125 21.390625 47.125 36.375 
Q 47.125 51.421875 43.28125 58.90625 
Q 39.453125 66.40625 31.78125 66.40625 
z
M 31.78125 74.21875 
Q 44.046875 74.21875 50.515625 64.515625 
Q 56.984375 54.828125 56.984375 36.375 
Q 56.984375 17.96875 50.515625 8.265625 
Q 44.046875 -1.421875 31.78125 -1.421875 
Q 19.53125 -1.421875 13.0625 8.265625 
Q 6.59375 17.96875 6.59375 36.375 
Q 6.59375 54.828125 13.0625 64.515625 
Q 19.53125 74.21875 31.78125 74.21875 
z
" id="DejaVuSans-48"/>
        <path d="M 12.40625 8.296875 
L 28.515625 8.296875 
L 28.515625 63.921875 
L 10.984375 60.40625 
L 10.984375 69.390625 
L 28.421875 72.90625 
L 38.28125 72.90625 
L 38.28125 8.296875 
L 54.390625 8.296875 
L 54.390625 0 
L 12.40625 0 
z
" id="DejaVuSans-49"/>
        <path d="M 10.796875 72.90625 
L 49.515625 72.90625 
L 49.515625 64.59375 
L 19.828125 64.59375 
L 19.828125 46.734375 
Q 21.96875 47.46875 24.109375 47.828125 
Q 26.265625 48.1875 28.421875 48.1875 
Q 40.625 48.1875 47.75 41.5 
Q 54.890625 34.8125 54.890625 23.390625 
Q 54.890625 11.625 47.5625 5.09375 
Q 40.234375 -1.421875 26.90625 -1.421875 
Q 22.3125 -1.421875 17.546875 -0.640625 
Q 12.796875 0.140625 7.71875 1.703125 
L 7.71875 11.625 
Q 12.109375 9.234375 16.796875 8.0625 
Q 21.484375 6.890625 26.703125 6.890625 
Q 35.15625 6.890625 40.078125 11.328125 
Q 45.015625 15.765625 45.015625 23.390625 
Q 45.015625 31 40.078125 35.4375 
Q 35.15625 39.890625 26.703125 39.890625 
Q 22.75 39.890625 18.8125 39.015625 
Q 14.890625 38.140625 10.796875 36.28125 
z
" id="DejaVuSans-53"/>
        <path d="M 4.890625 31.390625 
L 31.203125 31.390625 
L 31.203125 23.390625 
L 4.890625 23.390625 
z
" id="DejaVuSans-45"/>
       </defs>
       <use xlink:href="#DejaVuSans-50"/>
       <use x="63.623047" xlink:href="#DejaVuSans-48"/>
       <use x="127.246094" xlink:href="#DejaVuSans-49"/>
       <use x="190.869141" xlink:href="#DejaVuSans-53"/>
       <use x="254.492188" xlink:href="#DejaVuSans-45"/>
       <use x="290.576172" xlink:href="#DejaVuSans-48"/>
       <use x="354.199219" xlink:href="#DejaVuSans-49"/>
      </g>
     </g>
    </g>
    <g id="xtick_2">
     <g id="line2d_2">
      <g>
       <use style="stroke:#000000;stroke-width:0.8;" x="88.39726" xlink:href="#m985107902e" y="252"/>
      </g>
     </g>
     <g id="text_2">
      <!-- 2015-05 -->
      <g transform="translate(75.575978 293.917817)rotate(-45)scale(0.1 -0.1)">
       <use xlink:href="#DejaVuSans-50"/>
       <use x="63.623047" xlink:href="#DejaVuSans-48"/>
       <use x="127.246094" xlink:href="#DejaVuSans-49"/>
       <use x="190.869141" xlink:href="#DejaVuSans-53"/>
       <use x="254.492188" xlink:href="#DejaVuSans-45"/>
       <use x="290.576172" xlink:href="#DejaVuSans-48"/>
       <use x="354.199219" xlink:href="#DejaVuSans-53"/>
      </g>
     </g>
    </g>
    <g id="xtick_3">
     <g id="line2d_3">
      <g>
       <use style="stroke:#000000;stroke-width:0.8;" x="122.586052" xlink:href="#m985107902e" y="252"/>
      </g>
     </g>
     <g id="text_3">
      <!-- 2015-09 -->
      <g transform="translate(109.76477 293.917817)rotate(-45)scale(0.1 -0.1)">
       <defs>
        <path d="M 10.984375 1.515625 
L 10.984375 10.5 
Q 14.703125 8.734375 18.5 7.8125 
Q 22.3125 6.890625 25.984375 6.890625 
Q 35.75 6.890625 40.890625 13.453125 
Q 46.046875 20.015625 46.78125 33.40625 
Q 43.953125 29.203125 39.59375 26.953125 
Q 35.25 24.703125 29.984375 24.703125 
Q 19.046875 24.703125 12.671875 31.3125 
Q 6.296875 37.9375 6.296875 49.421875 
Q 6.296875 60.640625 12.9375 67.421875 
Q 19.578125 74.21875 30.609375 74.21875 
Q 43.265625 74.21875 49.921875 64.515625 
Q 56.59375 54.828125 56.59375 36.375 
Q 56.59375 19.140625 48.40625 8.859375 
Q 40.234375 -1.421875 26.421875 -1.421875 
Q 22.703125 -1.421875 18.890625 -0.6875 
Q 15.09375 0.046875 10.984375 1.515625 
z
M 30.609375 32.421875 
Q 37.25 32.421875 41.125 36.953125 
Q 45.015625 41.5 45.015625 49.421875 
Q 45.015625 57.28125 41.125 61.84375 
Q 37.25 66.40625 30.609375 66.40625 
Q 23.96875 66.40625 20.09375 61.84375 
Q 16.21875 57.28125 16.21875 49.421875 
Q 16.21875 41.5 20.09375 36.953125 
Q 23.96875 32.421875 30.609375 32.421875 
z
" id="DejaVuSans-57"/>
       </defs>
       <use xlink:href="#DejaVuSans-50"/>
       <use x="63.623047" xlink:href="#DejaVuSans-48"/>
       <use x="127.246094" xlink:href="#DejaVuSans-49"/>
       <use x="190.869141" xlink:href="#DejaVuSans-53"/>
       <use x="254.492188" xlink:href="#DejaVuSans-45"/>
       <use x="290.576172" xlink:href="#DejaVuSans-48"/>
       <use x="354.199219" xlink:href="#DejaVuSans-57"/>
      </g>
     </g>
    </g>
    <g id="xtick_4">
     <g id="line2d_4">
      <g>
       <use style="stroke:#000000;stroke-width:0.8;" x="156.496887" xlink:href="#m985107902e" y="252"/>
      </g>
     </g>
     <g id="text_4">
      <!-- 2016-01 -->
      <g transform="translate(143.675604 293.917817)rotate(-45)scale(0.1 -0.1)">
       <defs>
        <path d="M 33.015625 40.375 
Q 26.375 40.375 22.484375 35.828125 
Q 18.609375 31.296875 18.609375 23.390625 
Q 18.609375 15.53125 22.484375 10.953125 
Q 26.375 6.390625 33.015625 6.390625 
Q 39.65625 6.390625 43.53125 10.953125 
Q 47.40625 15.53125 47.40625 23.390625 
Q 47.40625 31.296875 43.53125 35.828125 
Q 39.65625 40.375 33.015625 40.375 
z
M 52.59375 71.296875 
L 52.59375 62.3125 
Q 48.875 64.0625 45.09375 64.984375 
Q 41.3125 65.921875 37.59375 65.921875 
Q 27.828125 65.921875 22.671875 59.328125 
Q 17.53125 52.734375 16.796875 39.40625 
Q 19.671875 43.65625 24.015625 45.921875 
Q 28.375 48.1875 33.59375 48.1875 
Q 44.578125 48.1875 50.953125 41.515625 
Q 57.328125 34.859375 57.328125 23.390625 
Q 57.328125 12.15625 50.6875 5.359375 
Q 44.046875 -1.421875 33.015625 -1.421875 
Q 20.359375 -1.421875 13.671875 8.265625 
Q 6.984375 17.96875 6.984375 36.375 
Q 6.984375 53.65625 15.1875 63.9375 
Q 23.390625 74.21875 37.203125 74.21875 
Q 40.921875 74.21875 44.703125 73.484375 
Q 48.484375 72.75 52.59375 71.296875 
z
" id="DejaVuSans-54"/>
       </defs>
       <use xlink:href="#DejaVuSans-50"/>
       <use x="63.623047" xlink:href="#DejaVuSans-48"/>
       <use x="127.246094" xlink:href="#DejaVuSans-49"/>
       <use x="190.869141" xlink:href="#DejaVuSans-54"/>
       <use x="254.492188" xlink:href="#DejaVuSans-45"/>
       <use x="290.576172" xlink:href="#DejaVuSans-48"/>
       <use x="354.199219" xlink:href="#DejaVuSans-49"/>
      </g>
     </g>
    </g>
    <g id="xtick_5">
     <g id="line2d_5">
      <g>
       <use style="stroke:#000000;stroke-width:0.8;" x="190.129763" xlink:href="#m985107902e" y="252"/>
      </g>
     </g>
     <g id="text_5">
      <!-- 2016-05 -->
      <g transform="translate(177.308481 293.917817)rotate(-45)scale(0.1 -0.1)">
       <use xlink:href="#DejaVuSans-50"/>
       <use x="63.623047" xlink:href="#DejaVuSans-48"/>
       <use x="127.246094" xlink:href="#DejaVuSans-49"/>
       <use x="190.869141" xlink:href="#DejaVuSans-54"/>
       <use x="254.492188" xlink:href="#DejaVuSans-45"/>
       <use x="290.576172" xlink:href="#DejaVuSans-48"/>
       <use x="354.199219" xlink:href="#DejaVuSans-53"/>
      </g>
     </g>
    </g>
    <g id="xtick_6">
     <g id="line2d_6">
      <g>
       <use style="stroke:#000000;stroke-width:0.8;" x="224.318555" xlink:href="#m985107902e" y="252"/>
      </g>
     </g>
     <g id="text_6">
      <!-- 2016-09 -->
      <g transform="translate(211.497273 293.917817)rotate(-45)scale(0.1 -0.1)">
       <use xlink:href="#DejaVuSans-50"/>
       <use x="63.623047" xlink:href="#DejaVuSans-48"/>
       <use x="127.246094" xlink:href="#DejaVuSans-49"/>
       <use x="190.869141" xlink:href="#DejaVuSans-54"/>
       <use x="254.492188" xlink:href="#DejaVuSans-45"/>
       <use x="290.576172" xlink:href="#DejaVuSans-48"/>
       <use x="354.199219" xlink:href="#DejaVuSans-57"/>
      </g>
     </g>
    </g>
    <g id="xtick_7">
     <g id="line2d_7">
      <g>
       <use style="stroke:#000000;stroke-width:0.8;" x="258.22939" xlink:href="#m985107902e" y="252"/>
      </g>
     </g>
     <g id="text_7">
      <!-- 2017-01 -->
      <g transform="translate(245.408108 293.917817)rotate(-45)scale(0.1 -0.1)">
       <defs>
        <path d="M 8.203125 72.90625 
L 55.078125 72.90625 
L 55.078125 68.703125 
L 28.609375 0 
L 18.3125 0 
L 43.21875 64.59375 
L 8.203125 64.59375 
z
" id="DejaVuSans-55"/>
       </defs>
       <use xlink:href="#DejaVuSans-50"/>
       <use x="63.623047" xlink:href="#DejaVuSans-48"/>
       <use x="127.246094" xlink:href="#DejaVuSans-49"/>
       <use x="190.869141" xlink:href="#DejaVuSans-55"/>
       <use x="254.492188" xlink:href="#DejaVuSans-45"/>
       <use x="290.576172" xlink:href="#DejaVuSans-48"/>
       <use x="354.199219" xlink:href="#DejaVuSans-49"/>
      </g>
     </g>
    </g>
    <g id="xtick_8">
     <g id="line2d_8">
      <g>
       <use style="stroke:#000000;stroke-width:0.8;" x="291.584309" xlink:href="#m985107902e" y="252"/>
      </g>
     </g>
     <g id="text_8">
      <!-- 2017-05 -->
      <g transform="translate(278.763027 293.917817)rotate(-45)scale(0.1 -0.1)">
       <use xlink:href="#DejaVuSans-50"/>
       <use x="63.623047" xlink:href="#DejaVuSans-48"/>
       <use x="127.246094" xlink:href="#DejaVuSans-49"/>
       <use x="190.869141" xlink:href="#DejaVuSans-55"/>
       <use x="254.492188" xlink:href="#DejaVuSans-45"/>
       <use x="290.576172" xlink:href="#DejaVuSans-48"/>
       <use x="354.199219" xlink:href="#DejaVuSans-53"/>
      </g>
     </g>
    </g>
    <g id="xtick_9">
     <g id="line2d_9">
      <g>
       <use style="stroke:#000000;stroke-width:0.8;" x="325.773101" xlink:href="#m985107902e" y="252"/>
      </g>
     </g>
     <g id="text_9">
      <!-- 2017-09 -->
      <g transform="translate(312.951819 293.917817)rotate(-45)scale(0.1 -0.1)">
       <use xlink:href="#DejaVuSans-50"/>
       <use x="63.623047" xlink:href="#DejaVuSans-48"/>
       <use x="127.246094" xlink:href="#DejaVuSans-49"/>
       <use x="190.869141" xlink:href="#DejaVuSans-55"/>
       <use x="254.492188" xlink:href="#DejaVuSans-45"/>
       <use x="290.576172" xlink:href="#DejaVuSans-48"/>
       <use x="354.199219" xlink:href="#DejaVuSans-57"/>
      </g>
     </g>
    </g>
    <g id="xtick_10">
     <g id="line2d_10">
      <g>
       <use style="stroke:#000000;stroke-width:0.8;" x="359.683935" xlink:href="#m985107902e" y="252"/>
      </g>
     </g>
     <g id="text_10">
      <!-- 2018-01 -->
      <g transform="translate(346.862653 293.917817)rotate(-45)scale(0.1 -0.1)">
       <defs>
        <path d="M 31.78125 34.625 
Q 24.75 34.625 20.71875 30.859375 
Q 16.703125 27.09375 16.703125 20.515625 
Q 16.703125 13.921875 20.71875 10.15625 
Q 24.75 6.390625 31.78125 6.390625 
Q 38.8125 6.390625 42.859375 10.171875 
Q 46.921875 13.96875 46.921875 20.515625 
Q 46.921875 27.09375 42.890625 30.859375 
Q 38.875 34.625 31.78125 34.625 
z
M 21.921875 38.8125 
Q 15.578125 40.375 12.03125 44.71875 
Q 8.5 49.078125 8.5 55.328125 
Q 8.5 64.0625 14.71875 69.140625 
Q 20.953125 74.21875 31.78125 74.21875 
Q 42.671875 74.21875 48.875 69.140625 
Q 55.078125 64.0625 55.078125 55.328125 
Q 55.078125 49.078125 51.53125 44.71875 
Q 48 40.375 41.703125 38.8125 
Q 48.828125 37.15625 52.796875 32.3125 
Q 56.78125 27.484375 56.78125 20.515625 
Q 56.78125 9.90625 50.3125 4.234375 
Q 43.84375 -1.421875 31.78125 -1.421875 
Q 19.734375 -1.421875 13.25 4.234375 
Q 6.78125 9.90625 6.78125 20.515625 
Q 6.78125 27.484375 10.78125 32.3125 
Q 14.796875 37.15625 21.921875 38.8125 
z
M 18.3125 54.390625 
Q 18.3125 48.734375 21.84375 45.5625 
Q 25.390625 42.390625 31.78125 42.390625 
Q 38.140625 42.390625 41.71875 45.5625 
Q 45.3125 48.734375 45.3125 54.390625 
Q 45.3125 60.0625 41.71875 63.234375 
Q 38.140625 66.40625 31.78125 66.40625 
Q 25.390625 66.40625 21.84375 63.234375 
Q 18.3125 60.0625 18.3125 54.390625 
z
" id="DejaVuSans-56"/>
       </defs>
       <use xlink:href="#DejaVuSans-50"/>
       <use x="63.623047" xlink:href="#DejaVuSans-48"/>
       <use x="127.246094" xlink:href="#DejaVuSans-49"/>
       <use x="190.869141" xlink:href="#DejaVuSans-56"/>
       <use x="254.492188" xlink:href="#DejaVuSans-45"/>
       <use x="290.576172" xlink:href="#DejaVuSans-48"/>
       <use x="354.199219" xlink:href="#DejaVuSans-49"/>
      </g>
     </g>
    </g>
   </g>
   <g id="matplotlib.axis_2">
    <g id="ytick_1">
     <g id="line2d_11">
      <defs>
       <path d="M 0 0 
L -3.5 0 
" id="med5c24d0c6" style="stroke:#000000;stroke-width:0.8;"/>
      </defs>
      <g>
       <use style="stroke:#000000;stroke-width:0.8;" x="54" xlink:href="#med5c24d0c6" y="242.116364"/>
      </g>
     </g>
     <g id="text_11">
      <!-- 0 -->
      <g transform="translate(40.6375 245.915582)scale(0.1 -0.1)">
       <use xlink:href="#DejaVuSans-48"/>
      </g>
     </g>
    </g>
    <g id="ytick_2">
     <g id="line2d_12">
      <g>
       <use style="stroke:#000000;stroke-width:0.8;" x="54" xlink:href="#med5c24d0c6" y="203.227375"/>
      </g>
     </g>
     <g id="text_12">
      <!-- 10 -->
      <g transform="translate(34.275 207.026594)scale(0.1 -0.1)">
       <use xlink:href="#DejaVuSans-49"/>
       <use x="63.623047" xlink:href="#DejaVuSans-48"/>
      </g>
     </g>
    </g>
    <g id="ytick_3">
     <g id="line2d_13">
      <g>
       <use style="stroke:#000000;stroke-width:0.8;" x="54" xlink:href="#med5c24d0c6" y="164.338387"/>
      </g>
     </g>
     <g id="text_13">
      <!-- 20 -->
      <g transform="translate(34.275 168.137606)scale(0.1 -0.1)">
       <use xlink:href="#DejaVuSans-50"/>
       <use x="63.623047" xlink:href="#DejaVuSans-48"/>
      </g>
     </g>
    </g>
    <g id="ytick_4">
     <g id="line2d_14">
      <g>
       <use style="stroke:#000000;stroke-width:0.8;" x="54" xlink:href="#med5c24d0c6" y="125.449399"/>
      </g>
     </g>
     <g id="text_14">
      <!-- 30 -->
      <g transform="translate(34.275 129.248618)scale(0.1 -0.1)">
       <defs>
        <path d="M 40.578125 39.3125 
Q 47.65625 37.796875 51.625 33 
Q 55.609375 28.21875 55.609375 21.1875 
Q 55.609375 10.40625 48.1875 4.484375 
Q 40.765625 -1.421875 27.09375 -1.421875 
Q 22.515625 -1.421875 17.65625 -0.515625 
Q 12.796875 0.390625 7.625 2.203125 
L 7.625 11.71875 
Q 11.71875 9.328125 16.59375 8.109375 
Q 21.484375 6.890625 26.8125 6.890625 
Q 36.078125 6.890625 40.9375 10.546875 
Q 45.796875 14.203125 45.796875 21.1875 
Q 45.796875 27.640625 41.28125 31.265625 
Q 36.765625 34.90625 28.71875 34.90625 
L 20.21875 34.90625 
L 20.21875 43.015625 
L 29.109375 43.015625 
Q 36.375 43.015625 40.234375 45.921875 
Q 44.09375 48.828125 44.09375 54.296875 
Q 44.09375 59.90625 40.109375 62.90625 
Q 36.140625 65.921875 28.71875 65.921875 
Q 24.65625 65.921875 20.015625 65.03125 
Q 15.375 64.15625 9.8125 62.3125 
L 9.8125 71.09375 
Q 15.4375 72.65625 20.34375 73.4375 
Q 25.25 74.21875 29.59375 74.21875 
Q 40.828125 74.21875 47.359375 69.109375 
Q 53.90625 64.015625 53.90625 55.328125 
Q 53.90625 49.265625 50.4375 45.09375 
Q 46.96875 40.921875 40.578125 39.3125 
z
" id="DejaVuSans-51"/>
       </defs>
       <use xlink:href="#DejaVuSans-51"/>
       <use x="63.623047" xlink:href="#DejaVuSans-48"/>
      </g>
     </g>
    </g>
    <g id="ytick_5">
     <g id="line2d_15">
      <g>
       <use style="stroke:#000000;stroke-width:0.8;" x="54" xlink:href="#med5c24d0c6" y="86.560411"/>
      </g>
     </g>
     <g id="text_15">
      <!-- 40 -->
      <g transform="translate(34.275 90.359629)scale(0.1 -0.1)">
       <defs>
        <path d="M 37.796875 64.3125 
L 12.890625 25.390625 
L 37.796875 25.390625 
z
M 35.203125 72.90625 
L 47.609375 72.90625 
L 47.609375 25.390625 
L 58.015625 25.390625 
L 58.015625 17.1875 
L 47.609375 17.1875 
L 47.609375 0 
L 37.796875 0 
L 37.796875 17.1875 
L 4.890625 17.1875 
L 4.890625 26.703125 
z
" id="DejaVuSans-52"/>
       </defs>
       <use xlink:href="#DejaVuSans-52"/>
       <use x="63.623047" xlink:href="#DejaVuSans-48"/>
      </g>
     </g>
    </g>
    <g id="ytick_6">
     <g id="line2d_16">
      <g>
       <use style="stroke:#000000;stroke-width:0.8;" x="54" xlink:href="#med5c24d0c6" y="47.671422"/>
      </g>
     </g>
     <g id="text_16">
      <!-- 50 -->
      <g transform="translate(34.275 51.470641)scale(0.1 -0.1)">
       <use xlink:href="#DejaVuSans-53"/>
       <use x="63.623047" xlink:href="#DejaVuSans-48"/>
      </g>
     </g>
    </g>
   </g>
   <g id="line2d_17">
    <path clip-path="url(#p83934eabf1)" d="M 69.218182 184.793995 
L 69.496139 165.77728 
L 70.052055 193.194016 
L 70.330012 174.857858 
L 70.60797 169.316178 
L 70.885928 189.344007 
L 71.163885 165.543946 
L 71.441843 160.332821 
L 71.719801 185.688442 
L 71.997758 178.766202 
L 72.275716 203.227375 
L 72.831631 177.832866 
L 73.109589 145.438339 
L 73.387547 181.682876 
L 73.665504 186.349554 
L 73.943462 159.788376 
L 74.22142 185.338441 
L 74.499377 193.738462 
L 74.777335 170.482847 
L 75.055293 128.09385 
L 75.33325 111.254918 
L 75.611208 201.282926 
L 75.889166 197.510694 
L 76.167123 189.616229 
L 76.723039 160.682822 
L 77.000996 153.83836 
L 77.278954 131.632748 
L 77.556912 177.132864 
L 77.834869 195.838468 
L 78.112827 190.588454 
L 78.390785 210.421838 
L 78.9467 148.121679 
L 79.224658 161.771714 
L 79.502615 194.360686 
L 79.780573 194.282908 
L 80.058531 198.05514 
L 80.336488 186.271777 
L 80.614446 165.582835 
L 80.892403 154.927252 
L 81.170361 183.977326 
L 82.282192 202.644041 
L 82.560149 198.094029 
L 82.838107 145.866118 
L 83.116065 155.977255 
L 83.949938 210.771839 
L 84.227895 206.066272 
L 84.505853 146.993898 
L 84.783811 199.027365 
L 85.061768 178.727313 
L 85.339726 198.132918 
L 85.617684 202.838486 
L 85.895641 198.716253 
L 86.173599 166.555059 
L 86.451557 180.205094 
L 86.729514 129.629965 
L 87.28543 204.58849 
L 87.563387 206.571828 
L 87.841345 199.182921 
L 88.119303 185.649553 
L 88.39726 186.349554 
L 88.675218 182.460656 
L 88.953176 163.327273 
L 89.231133 181.605098 
L 89.509091 190.199564 
L 89.787049 191.794013 
L 90.065006 177.191198 
L 90.342964 207.116274 
L 90.620922 216.021853 
L 91.176837 185.688442 
L 91.454795 202.371818 
L 92.01071 190.977344 
L 92.288667 154.849474 
L 92.566625 203.499598 
L 92.844583 190.782899 
L 93.12254 170.599514 
L 93.400498 199.727366 
L 93.678456 201.282926 
L 93.956413 206.960718 
L 94.234371 216.566298 
L 94.512329 132.410528 
L 94.790286 177.521754 
L 95.068244 191.716235 
L 95.346202 187.594002 
L 95.624159 195.76069 
L 95.902117 209.760725 
L 96.180075 203.344042 
L 96.458032 187.594002 
L 96.73599 195.527356 
L 97.013948 194.749576 
L 97.291905 209.877392 
L 97.569863 201.12737 
L 97.847821 206.299605 
L 98.125778 207.505164 
L 98.403736 165.077278 
L 98.681694 160.955045 
L 98.959651 198.716253 
L 99.237609 209.721836 
L 99.515567 193.42735 
L 99.793524 212.210732 
L 100.071482 199.144032 
L 100.34944 196.810692 
L 100.627397 182.927324 
L 100.905355 193.42735 
L 101.183313 208.944057 
L 101.46127 199.824589 
L 101.739228 176.199529 
L 102.017186 194.049574 
L 102.295143 193.232905 
L 102.573101 182.460656 
L 102.851059 204.860713 
L 103.129016 198.210696 
L 103.406974 180.905096 
L 103.684932 203.344042 
L 103.962889 176.452307 
L 104.240847 161.966159 
L 104.518804 186.738444 
L 104.796762 189.616229 
L 105.07472 203.81071 
L 105.352677 197.588472 
L 105.630635 200.116256 
L 105.908593 182.4801 
L 106.18655 174.916192 
L 106.464508 184.016215 
L 106.742466 178.688424 
L 107.020423 195.138466 
L 107.298381 204.238489 
L 107.576339 177.055086 
L 107.854296 195.682912 
L 108.132254 176.238418 
L 108.410212 189.655118 
L 108.688169 195.955135 
L 108.966127 193.932907 
L 109.244085 199.377366 
L 109.522042 208.555167 
L 109.8 197.627361 
L 110.077958 178.766202 
L 110.355915 131.904971 
L 110.633873 199.882922 
L 110.911831 197.977362 
L 111.467746 198.405141 
L 111.745704 197.627361 
L 112.301619 172.543964 
L 112.579577 146.371675 
L 112.857534 186.310665 
L 113.135492 191.482901 
L 113.41345 190.899566 
L 113.691407 173.243965 
L 113.969365 189.655118 
L 114.247323 164.863388 
L 114.52528 171.571739 
L 114.803238 167.916174 
L 115.081196 200.271812 
L 115.359153 193.932907 
L 115.637111 164.921722 
L 115.915068 174.60508 
L 116.193026 178.377312 
L 116.470984 178.532868 
L 116.748941 196.732914 
L 117.026899 170.638403 
L 117.304857 166.010614 
L 118.13873 185.493997 
L 118.416687 179.893982 
L 118.694645 195.3718 
L 118.972603 178.532868 
L 119.25056 205.444048 
L 119.528518 188.799561 
L 119.806476 159.010596 
L 120.084433 197.355138 
L 120.362391 186.621777 
L 120.640349 186.894 
L 120.918306 193.466239 
L 121.196264 195.488467 
L 121.474222 186.193999 
L 121.752179 169.588401 
L 122.030137 165.232834 
L 122.308095 170.482847 
L 122.86401 200.621813 
L 123.141968 205.016269 
L 123.419925 185.727331 
L 123.697883 186.271777 
L 123.975841 163.405051 
L 124.253798 156.755034 
L 124.531756 158.85504 
L 124.809714 198.405141 
L 125.087671 198.83292 
L 125.365629 195.177355 
L 125.643587 189.305118 
L 125.921544 141.199439 
L 126.199502 189.694007 
L 126.47746 192.338459 
L 126.755417 178.84398 
L 127.033375 200.971814 
L 127.311333 157.68837 
L 127.58929 158.738373 
L 127.867248 136.92165 
L 128.145205 166.321726 
L 128.701121 188.955117 
L 128.979078 195.838468 
L 129.257036 181.91621 
L 129.534994 144.893893 
L 129.812951 158.582817 
L 130.090909 195.216244 
L 130.368867 179.077314 
L 130.646824 186.855111 
L 130.924782 203.499598 
L 131.20274 126.071623 
L 131.480697 168.655065 
L 131.758655 162.238382 
L 132.036613 184.171771 
L 132.31457 190.860677 
L 132.592528 192.844016 
L 133.148443 191.327345 
L 133.704359 107.210463 
L 133.982316 100.560446 
L 134.260274 183.510658 
L 134.538232 187.244001 
L 134.816189 194.749576 
L 135.094147 159.010596 
L 135.372105 165.505057 
L 135.650062 153.605026 
L 135.92802 176.89953 
L 136.205978 175.071748 
L 136.483935 182.343989 
L 136.761893 185.493997 
L 137.039851 119.966052 
L 137.317808 153.760582 
L 137.595766 155.899477 
L 137.873724 178.299534 
L 138.151681 186.932889 
L 138.429639 154.110583 
L 138.707597 196.460691 
L 138.985554 164.143942 
L 139.263512 154.732807 
L 139.541469 125.527177 
L 139.819427 170.949515 
L 140.097385 182.382878 
L 140.375342 144.893893 
L 140.6533 177.638421 
L 140.931258 146.021674 
L 141.209215 144.582781 
L 141.487173 130.310522 
L 141.765131 169.549512 
L 142.043088 182.69399 
L 142.599004 118.527159 
L 142.876961 149.949461 
L 143.154919 104.877124 
L 143.432877 103.321565 
L 143.988792 175.460638 
L 144.26675 174.371746 
L 144.544707 165.38839 
L 144.822665 131.438303 
L 145.100623 173.555077 
L 145.37858 152.360579 
L 145.656538 164.649499 
L 145.934496 168.110619 
L 146.212453 167.332839 
L 146.490411 164.455054 
L 146.768369 180.671762 
L 147.046326 102.777119 
L 147.324284 116.038264 
L 147.880199 172.271741 
L 148.158157 154.732807 
L 148.714072 179.349537 
L 148.99203 120.39383 
L 149.269988 123.427171 
L 149.547945 169.62729 
L 149.825903 170.132846 
L 150.103861 177.132864 
L 150.381818 188.177337 
L 150.659776 137.893875 
L 150.937733 171.805073 
L 151.215691 156.930035 
L 151.493649 165.816169 
L 151.771606 170.949515 
L 152.049564 178.571757 
L 152.327522 164.22172 
L 152.605479 171.727295 
L 152.883437 124.477174 
L 153.161395 123.699394 
L 153.439352 126.654958 
L 153.71731 132.254972 
L 153.995268 124.24384 
L 154.551183 77.810388 
L 155.107098 122.143835 
L 155.385056 86.910412 
L 155.663014 131.632748 
L 155.940971 81.349286 
L 156.218929 126.57718 
L 156.496887 65.677024 
L 156.774844 146.371675 
L 157.052802 151.077242 
L 157.608717 182.888435 
L 157.886675 162.627272 
L 158.164633 167.332839 
L 158.44259 144.038335 
L 158.720548 180.010649 
L 158.998506 120.78272 
L 159.276463 158.543928 
L 159.554421 178.143978 
L 159.832379 166.749504 
L 160.110336 180.166205 
L 160.388294 172.077296 
L 160.666252 124.24384 
L 160.944209 127.821627 
L 161.222167 141.666107 
L 161.500125 177.949533 
L 161.778082 175.499527 
L 162.05604 177.016197 
L 162.333998 130.504967 
L 162.611955 160.293932 
L 162.889913 148.977237 
L 163.16787 171.805073 
L 163.723786 189.110673 
L 164.001743 160.838378 
L 164.279701 183.549547 
L 164.557659 112.538255 
L 164.835616 109.038246 
L 165.113574 147.732789 
L 165.391532 159.477264 
L 165.669489 150.493907 
L 165.947447 152.32169 
L 166.225405 164.22172 
L 166.503362 89.049306 
L 166.78132 44.443636 
L 167.059278 151.349465 
L 167.337235 155.238364 
L 167.615193 156.832812 
L 167.893151 164.960611 
L 168.171108 183.782881 
L 168.449066 155.588365 
L 168.727024 108.843801 
L 169.004981 177.521754 
L 169.560897 191.016233 
L 170.116812 158.816151 
L 170.39477 176.005084 
L 170.672727 129.766077 
L 170.950685 135.366091 
L 171.228643 186.077332 
L 171.5066 180.438428 
L 171.784558 196.694025 
L 172.340473 134.471644 
L 172.618431 158.893929 
L 172.896389 242.116364 
L 173.174346 162.782828 
L 173.452304 182.577323 
L 173.730262 187.516224 
L 174.286177 169.705068 
L 174.564134 143.688334 
L 175.12005 196.616247 
L 175.398007 162.743939 
L 175.675965 186.232888 
L 176.23188 144.543892 
L 176.509838 154.071694 
L 177.065753 178.45509 
L 177.343711 181.371764 
L 177.621669 180.243983 
L 177.899626 150.532796 
L 178.177584 150.182795 
L 178.733499 53.971438 
L 179.011457 116.349376 
L 179.289415 107.910465 
L 179.567372 126.149401 
L 179.84533 165.77728 
L 180.401245 124.204951 
L 180.679203 95.03821 
L 180.957161 185.649553 
L 181.513076 195.527356 
L 181.791034 174.138412 
L 182.068991 184.016215 
L 182.346949 127.354959 
L 182.624907 172.193963 
L 182.902864 172.543964 
L 183.45878 187.321779 
L 183.736737 174.799525 
L 184.014695 128.404962 
L 184.292653 152.243912 
L 184.848568 130.349411 
L 185.126526 158.699484 
L 185.404483 128.988297 
L 185.682441 132.604973 
L 185.960399 163.44394 
L 186.238356 139.216101 
L 186.516314 168.149508 
L 186.794271 173.555077 
L 187.628144 120.238274 
L 187.906102 118.760493 
L 188.18406 115.688263 
L 188.462017 171.260627 
L 188.739975 160.099487 
L 189.017933 141.471662 
L 189.29589 169.316178 
L 189.573848 156.91059 
L 189.851806 177.482865 
L 190.129763 82.865957 
L 190.407721 155.082808 
L 190.685679 186.077332 
L 190.963636 180.321761 
L 191.241594 192.494015 
L 191.519552 191.599568 
L 191.797509 177.28842 
L 192.075467 149.871684 
L 192.353425 166.535615 
L 192.631382 162.160604 
L 192.90934 161.071712 
L 193.187298 151.310576 
L 193.465255 153.255025 
L 193.743213 118.993827 
L 194.577086 181.721765 
L 194.855044 164.416165 
L 195.133001 173.866189 
L 195.410959 138.243876 
L 195.688917 159.321708 
L 195.966874 140.732771 
L 196.244832 136.454983 
L 196.52279 167.410617 
L 196.800747 176.51064 
L 197.078705 153.216136 
L 197.356663 168.266175 
L 197.63462 124.63273 
L 197.912578 169.62729 
L 198.190535 175.110637 
L 198.468493 166.943949 
L 198.746451 169.705068 
L 199.024408 179.155092 
L 199.302366 170.988404 
L 199.580324 175.227304 
L 199.858281 123.85495 
L 200.136239 169.355067 
L 200.414197 183.860659 
L 200.692154 175.38286 
L 200.970112 191.832902 
L 201.24807 185.610664 
L 201.526027 122.299391 
L 201.803985 134.860534 
L 202.081943 179.738426 
L 202.3599 162.432827 
L 202.637858 182.69399 
L 202.915816 164.9995 
L 203.193773 174.527302 
L 203.471731 128.832741 
L 203.749689 145.555006 
L 204.027646 169.938401 
L 204.305604 177.055086 
L 204.583562 178.532868 
L 204.861519 154.149472 
L 205.139477 164.921722 
L 205.417435 151.816133 
L 205.695392 162.938384 
L 205.97335 156.832812 
L 206.251308 169.121733 
L 206.529265 174.566191 
L 206.807223 159.749487 
L 207.085181 185.882887 
L 207.363138 169.549512 
L 207.641096 161.227268 
L 207.919054 160.332821 
L 208.197011 158.816151 
L 208.474969 193.077349 
L 208.752927 172.738409 
L 209.030884 168.266175 
L 209.864757 144.271669 
L 210.142715 154.732807 
L 210.420672 178.766202 
L 210.69863 166.749504 
L 210.976588 147.538344 
L 211.254545 156.5217 
L 211.532503 152.593913 
L 211.810461 183.082879 
L 212.088418 178.571757 
L 212.366376 144.816115 
L 212.644334 143.84389 
L 212.922291 190.277342 
L 213.200249 197.977362 
L 213.478207 195.449578 
L 213.756164 171.571739 
L 214.034122 192.144014 
L 214.31208 189.538452 
L 214.590037 190.238453 
L 214.867995 197.432916 
L 215.145953 197.588472 
L 215.42391 180.321761 
L 215.701868 178.416201 
L 215.979826 152.982803 
L 216.257783 178.143978 
L 216.535741 178.649535 
L 216.813699 150.921686 
L 217.091656 178.882869 
L 217.369614 142.677221 
L 217.647572 157.143924 
L 217.925529 155.78281 
L 218.203487 147.227232 
L 218.481445 122.843837 
L 218.759402 126.616069 
L 219.03736 170.793959 
L 219.315318 159.671709 
L 219.871233 176.471751 
L 220.149191 161.577269 
L 220.427148 185.76622 
L 220.705106 185.027329 
L 220.983064 111.604919 
L 221.261021 150.260573 
L 221.538979 156.482812 
L 221.816936 158.038371 
L 222.094894 179.038425 
L 222.372852 184.949551 
L 222.650809 181.332875 
L 222.928767 147.732789 
L 223.206725 135.210535 
L 223.484682 162.549494 
L 223.76264 167.410617 
L 224.040598 168.966177 
L 224.318555 141.043883 
L 224.596513 131.671637 
L 224.874471 98.11044 
L 225.152428 150.416129 
L 225.430386 78.238167 
L 225.708344 148.160568 
L 225.986301 159.010596 
L 226.264259 149.716128 
L 226.542217 169.160622 
L 226.820174 148.432791 
L 227.098132 170.132846 
L 227.37609 177.521754 
L 227.654047 170.638403 
L 227.932005 171.688406 
L 228.209963 176.471751 
L 228.48792 159.98282 
L 228.765878 135.01609 
L 229.043836 145.360561 
L 229.321793 141.821663 
L 229.877709 184.055104 
L 230.155666 177.910644 
L 230.433624 126.343846 
L 230.711582 153.021692 
L 230.989539 151.816133 
L 231.267497 168.227286 
L 231.545455 176.957864 
L 231.823412 160.605044 
L 232.379328 155.78281 
L 232.657285 126.032734 
L 232.935243 116.427154 
L 233.2132 166.321726 
L 233.491158 161.732825 
L 233.769116 171.066182 
L 234.047073 147.499455 
L 234.325031 173.243965 
L 234.602989 116.58271 
L 234.880946 190.821788 
L 235.158904 110.127138 
L 235.436862 134.666089 
L 235.992777 129.999411 
L 236.270735 139.449435 
L 236.548692 139.838325 
L 236.82665 57.782559 
L 237.104608 143.027222 
L 237.382565 146.488342 
L 237.660523 141.043883 
L 237.938481 139.021656 
L 238.216438 171.571739 
L 238.494396 67.465917 
L 238.772354 116.93271 
L 239.050311 138.943878 
L 239.328269 149.677239 
L 239.606227 133.810531 
L 239.884184 145.243894 
L 240.162142 149.016126 
L 240.4401 120.549386 
L 240.718057 133.188308 
L 240.996015 117.010488 
L 241.273973 108.843801 
L 241.55193 170.405069 
L 241.829888 152.982803 
L 242.385803 87.260412 
L 242.663761 127.432737 
L 242.941719 128.949408 
L 243.219676 138.47721 
L 243.497634 139.099434 
L 243.775592 153.021692 
L 244.053549 111.138251 
L 244.331507 89.477085 
L 244.609465 109.893804 
L 244.887422 155.549476 
L 245.16538 155.043919 
L 245.443337 177.093975 
L 245.721295 170.055068 
L 245.999253 152.555024 
L 246.27721 152.71058 
L 246.555168 117.3216 
L 246.833126 129.64941 
L 247.111083 126.110512 
L 247.389041 149.327238 
L 247.666999 152.905025 
L 248.222914 129.610521 
L 248.500872 125.604955 
L 248.778829 141.93833 
L 249.056787 139.799436 
L 249.334745 144.738337 
L 249.612702 134.6272 
L 249.89066 149.016126 
L 250.168618 104.332678 
L 250.446575 108.649356 
L 250.724533 154.732807 
L 251.002491 125.877178 
L 251.558406 155.238364 
L 251.836364 77.382609 
L 252.114321 106.354906 
L 252.392279 113.432702 
L 252.948194 150.571685 
L 253.226152 156.91059 
L 253.50411 126.032734 
L 253.782067 147.849456 
L 254.060025 154.188361 
L 254.337983 90.138198 
L 254.61594 127.432737 
L 254.893898 137.271651 
L 255.171856 168.771732 
L 255.449813 152.127245 
L 255.727771 106.160461 
L 256.005729 134.666089 
L 256.283686 83.13818 
L 256.561644 129.64941 
L 256.839601 126.92718 
L 257.117559 78.51039 
L 257.673474 133.888309 
L 257.951432 114.327148 
L 258.22939 112.771589 
L 258.507347 140.966105 
L 258.785305 138.282765 
L 259.063263 113.549368 
L 259.619178 124.788286 
L 259.897136 144.271669 
L 260.175093 106.93824 
L 260.453051 128.677185 
L 260.731009 141.043883 
L 261.008966 138.8661 
L 261.286924 128.949408 
L 261.564882 130.893857 
L 261.842839 89.399307 
L 262.120797 78.821502 
L 262.398755 126.110512 
L 262.676712 133.149419 
L 262.95467 136.299427 
L 263.232628 148.666125 
L 263.510585 120.899387 
L 263.788543 139.566102 
L 264.066501 126.382735 
L 264.622416 152.438357 
L 265.456289 131.321636 
L 265.734247 139.060545 
L 266.012204 65.249245 
L 266.56812 155.627254 
L 266.846077 169.821734 
L 267.124035 159.866153 
L 267.401993 138.47721 
L 267.67995 139.527213 
L 267.957908 160.605044 
L 268.235866 162.393938 
L 268.791781 124.593841 
L 269.347696 180.982874 
L 269.625654 143.610556 
L 269.903611 56.577001 
L 270.181569 136.066093 
L 270.459527 139.760547 
L 270.737484 155.938366 
L 271.015442 157.999482 
L 271.2934 126.57718 
L 271.571357 140.577215 
L 271.849315 128.288295 
L 272.40523 156.132811 
L 272.961146 147.888345 
L 273.239103 163.560607 
L 273.517061 103.749343 
L 273.795019 126.460513 
L 274.072976 104.332678 
L 274.628892 149.132793 
L 274.906849 150.649463 
L 275.184807 143.260556 
L 275.462765 85.860409 
L 275.740722 133.654975 
L 276.01868 139.604991 
L 276.296638 155.743921 
L 276.574595 163.83283 
L 276.852553 150.182795 
L 277.130511 120.121607 
L 277.408468 154.538362 
L 277.686426 123.777172 
L 277.964384 112.849367 
L 278.242341 156.755034 
L 278.520299 156.249478 
L 278.798257 133.266086 
L 279.076214 165.816169 
L 279.354172 158.07726 
L 279.63213 128.249406 
L 279.910087 160.955045 
L 280.188045 143.455 
L 280.466002 157.027257 
L 280.74396 149.871684 
L 281.021918 167.449506 
L 281.299875 92.938205 
L 281.855791 166.788393 
L 282.133748 142.560554 
L 282.411706 151.893911 
L 282.689664 183.549547 
L 282.967621 169.471734 
L 283.245579 119.65494 
L 283.523537 168.810621 
L 283.801494 171.53285 
L 284.079452 169.393956 
L 284.35741 165.971725 
L 284.635367 156.093922 
L 284.913325 154.538362 
L 285.191283 134.743867 
L 285.46924 137.543874 
L 286.025156 169.277289 
L 286.303113 170.327291 
L 286.581071 180.555095 
L 286.859029 117.438267 
L 287.136986 135.249424 
L 287.414944 164.455054 
L 287.692902 101.96045 
L 287.970859 153.255025 
L 288.248817 177.793977 
L 288.804732 149.327238 
L 289.08269 158.660595 
L 289.360648 113.199368 
L 289.638605 162.782828 
L 289.916563 171.493961 
L 290.194521 169.666179 
L 290.472478 184.949551 
L 291.028394 134.277199 
L 291.306351 116.816043 
L 291.862267 162.005048 
L 292.140224 127.627182 
L 292.418182 173.516188 
L 292.696139 153.566137 
L 292.974097 179.816204 
L 293.252055 149.327238 
L 293.530012 181.060652 
L 294.085928 185.610664 
L 294.363885 167.955063 
L 294.641843 135.132757 
L 294.919801 169.355067 
L 295.197758 177.716199 
L 295.475716 172.349519 
L 295.753674 173.282854 
L 296.031631 187.360668 
L 296.309589 134.354977 
L 296.587547 179.660649 
L 296.865504 199.416255 
L 297.143462 179.155092 
L 297.42142 178.571757 
L 297.699377 174.021745 
L 297.977335 176.043973 
L 298.255293 183.316213 
L 298.53325 143.455 
L 298.811208 173.982856 
L 299.089166 121.443833 
L 299.367123 170.871737 
L 299.645081 140.577215 
L 299.923039 181.255097 
L 300.200996 174.138412 
L 300.478954 193.777351 
L 300.756912 154.071694 
L 301.034869 152.166134 
L 301.312827 176.471751 
L 301.590785 185.610664 
L 302.1467 159.399486 
L 302.424658 182.460656 
L 302.702615 163.638385 
L 302.980573 134.004976 
L 303.258531 162.471716 
L 303.536488 165.38839 
L 303.814446 171.493961 
L 304.092403 167.993952 
L 304.370361 167.760618 
L 304.648319 155.705032 
L 304.926276 111.060473 
L 305.482192 186.193999 
L 305.760149 193.42735 
L 306.038107 184.443994 
L 306.316065 164.843944 
L 306.594022 159.321708 
L 306.87198 184.560661 
L 307.149938 165.699502 
L 307.427895 178.493979 
L 307.705853 153.09947 
L 307.983811 160.605044 
L 308.261768 173.088409 
L 308.539726 159.127263 
L 308.817684 155.666143 
L 309.095641 175.655083 
L 309.373599 184.98844 
L 309.929514 194.866243 
L 310.207472 171.280072 
L 310.48543 164.571721 
L 310.763387 170.521736 
L 311.041345 195.021799 
L 311.319303 195.799579 
L 311.59726 170.871737 
L 311.875218 204.238489 
L 312.153176 196.732914 
L 312.431133 181.91621 
L 312.709091 128.560518 
L 313.265006 207.932943 
L 313.542964 180.555095 
L 313.820922 193.03846 
L 314.098879 198.949587 
L 314.376837 169.899512 
L 314.654795 174.760636 
L 314.932752 195.605134 
L 315.21071 200.427368 
L 315.488667 201.282926 
L 315.766625 200.116256 
L 316.044583 199.882922 
L 316.32254 185.727331 
L 316.600498 191.405123 
L 316.878456 132.877196 
L 317.156413 186.193999 
L 317.434371 192.221792 
L 317.712329 184.832884 
L 317.990286 181.371764 
L 318.268244 186.582888 
L 318.546202 181.410653 
L 318.824159 179.271759 
L 319.102117 183.121768 
L 319.380075 189.888452 
L 319.658032 148.316124 
L 319.93599 170.055068 
L 320.213948 206.571828 
L 320.491905 162.471716 
L 320.769863 198.716253 
L 321.047821 179.816204 
L 321.325778 180.399539 
L 321.603736 172.388408 
L 321.881694 184.171771 
L 322.159651 153.216136 
L 322.437609 142.832777 
L 322.715567 142.132775 
L 322.993524 184.055104 
L 323.271482 193.077349 
L 323.827397 140.538326 
L 324.105355 178.377312 
L 324.383313 189.869008 
L 324.66127 121.677167 
L 325.217186 195.060688 
L 325.773101 180.282872 
L 326.051059 184.405105 
L 326.329016 170.288402 
L 326.606974 139.527213 
L 326.884932 149.055015 
L 327.162889 152.827247 
L 327.440847 172.543964 
L 327.718804 176.471751 
L 327.996762 118.293825 
L 328.27472 135.482758 
L 328.552677 124.749397 
L 329.108593 186.932889 
L 329.38655 168.343953 
L 329.942466 180.788429 
L 330.220423 104.371567 
L 330.498381 134.218866 
L 330.776339 135.093868 
L 331.332254 165.310612 
L 331.610212 157.29948 
L 331.888169 175.655083 
L 332.166127 136.18276 
L 332.444085 123.85495 
L 332.722042 167.799507 
L 333 179.62176 
L 333.555915 132.702195 
L 333.833873 130.738301 
L 334.111831 136.338316 
L 334.389788 134.23831 
L 334.667746 143.105 
L 334.945704 141.471662 
L 335.223661 179.388426 
L 335.501619 154.130028 
L 335.779577 101.221559 
L 336.057534 160.216154 
L 336.335492 138.593877 
L 337.169365 175.693972 
L 337.447323 149.327238 
L 337.72528 139.488324 
L 338.003238 115.338262 
L 338.281196 125.216065 
L 338.559153 173.049521 
L 339.115068 148.238346 
L 339.393026 158.505039 
L 339.670984 127.899405 
L 339.948941 130.854968 
L 340.226899 113.782702 
L 340.504857 155.627254 
L 340.782814 162.821717 
L 341.060772 178.377312 
L 341.33873 155.588365 
L 341.616687 123.154949 
L 341.894645 120.354941 
L 342.172603 136.027204 
L 342.45056 173.982856 
L 342.728518 162.627272 
L 343.006476 143.143889 
L 343.284433 155.78281 
L 343.562391 119.65494 
L 344.118306 132.216083 
L 344.396264 136.610539 
L 344.674222 144.388336 
L 344.952179 133.11053 
L 345.230137 179.777315 
L 345.508095 168.227286 
L 345.786052 168.84951 
L 346.06401 172.349519 
L 346.341968 178.143978 
L 346.619925 149.171682 
L 346.897883 145.593895 
L 347.175841 172.155074 
L 347.453798 132.877196 
L 347.731756 48.721425 
L 348.009714 101.066003 
L 348.565629 146.760564 
L 348.843587 141.510551 
L 349.121544 131.321636 
L 349.399502 115.493818 
L 349.67746 127.860516 
L 349.955417 121.754945 
L 350.233375 152.943914 
L 350.511333 156.055033 
L 350.78929 141.588329 
L 351.067248 90.877088 
L 351.345205 80.182617 
L 351.623163 124.749397 
L 351.901121 138.127209 
L 352.179078 138.554988 
L 352.457036 159.282819 
L 352.734994 121.832723 
L 353.012951 149.871684 
L 353.290909 116.388265 
L 353.568867 128.327184 
L 353.846824 153.09947 
L 354.124782 138.788322 
L 354.40274 156.443923 
L 354.680697 163.949497 
L 354.958655 144.543892 
L 355.51457 57.432558 
L 355.792528 51.949211 
L 356.070486 138.204987 
L 356.348443 146.410564 
L 356.626401 129.610521 
L 356.904359 128.793852 
L 357.182316 142.093886 
L 357.460274 116.232709 
L 357.738232 79.67706 
L 358.016189 141.977219 
L 358.294147 86.054854 
L 358.572105 146.449453 
L 358.850062 62.527016 
L 359.12802 93.638206 
L 359.405978 137.466096 
L 359.683935 108.921579 
L 360.239851 146.527231 
L 360.517808 119.616051 
L 360.795766 110.866028 
L 361.073724 149.599461 
L 361.351681 54.710329 
L 361.629639 96.710437 
L 361.907597 116.154931 
L 362.185554 155.743921 
L 362.463512 140.77166 
L 362.741469 146.410564 
L 363.019427 116.854932 
L 363.297385 136.882761 
L 363.575342 119.26605 
L 363.8533 152.827247 
L 364.131258 137.154984 
L 364.409215 145.01056 
L 364.687173 123.816061 
L 364.965131 80.299284 
L 365.521046 146.293897 
L 365.799004 119.032716 
L 366.076961 159.205041 
L 366.354919 150.76613 
L 366.632877 150.260573 
L 366.910834 106.821574 
L 367.188792 87.532635 
L 367.744707 160.643933 
L 368.022665 142.249442 
L 368.300623 142.638332 
L 368.57858 141.977219 
L 368.856538 132.371639 
L 369.134496 112.499366 
L 369.412453 121.404944 
L 369.690411 136.649428 
L 369.968369 162.199493 
L 370.246326 159.555042 
L 370.524284 152.088356 
L 370.802242 141.199439 
L 371.080199 85.121518 
L 371.358157 127.160514 
L 371.636115 119.149383 
L 371.914072 153.255025 
L 372.19203 133.810531 
L 372.469988 160.993934 
L 372.747945 121.054943 
L 373.025903 137.154984 
L 373.303861 135.443869 
L 373.581818 145.321672 
L 373.581818 145.321672 
" style="fill:none;stroke:#000000;stroke-linecap:square;stroke-width:1.5;"/>
   </g>
   <g id="patch_3">
    <path d="M 54 252 
L 54 34.56 
" style="fill:none;stroke:#000000;stroke-linecap:square;stroke-linejoin:miter;stroke-width:0.8;"/>
   </g>
   <g id="patch_4">
    <path d="M 388.8 252 
L 388.8 34.56 
" style="fill:none;stroke:#000000;stroke-linecap:square;stroke-linejoin:miter;stroke-width:0.8;"/>
   </g>
   <g id="patch_5">
    <path d="M 54 252 
L 388.8 252 
" style="fill:none;stroke:#000000;stroke-linecap:square;stroke-linejoin:miter;stroke-width:0.8;"/>
   </g>
   <g id="patch_6">
    <path d="M 54 34.56 
L 388.8 34.56 
" style="fill:none;stroke:#000000;stroke-linecap:square;stroke-linejoin:miter;stroke-width:0.8;"/>
   </g>
   <g id="text_17">
    <!-- Soma Diária de Energia - Casa 13 -->
    <g transform="translate(120.413438 28.56)scale(0.12 -0.12)">
     <defs>
      <path d="M 53.515625 70.515625 
L 53.515625 60.890625 
Q 47.90625 63.578125 42.921875 64.890625 
Q 37.9375 66.21875 33.296875 66.21875 
Q 25.25 66.21875 20.875 63.09375 
Q 16.5 59.96875 16.5 54.203125 
Q 16.5 49.359375 19.40625 46.890625 
Q 22.3125 44.4375 30.421875 42.921875 
L 36.375 41.703125 
Q 47.40625 39.59375 52.65625 34.296875 
Q 57.90625 29 57.90625 20.125 
Q 57.90625 9.515625 50.796875 4.046875 
Q 43.703125 -1.421875 29.984375 -1.421875 
Q 24.8125 -1.421875 18.96875 -0.25 
Q 13.140625 0.921875 6.890625 3.21875 
L 6.890625 13.375 
Q 12.890625 10.015625 18.65625 8.296875 
Q 24.421875 6.59375 29.984375 6.59375 
Q 38.421875 6.59375 43.015625 9.90625 
Q 47.609375 13.234375 47.609375 19.390625 
Q 47.609375 24.75 44.3125 27.78125 
Q 41.015625 30.8125 33.5 32.328125 
L 27.484375 33.5 
Q 16.453125 35.6875 11.515625 40.375 
Q 6.59375 45.0625 6.59375 53.421875 
Q 6.59375 63.09375 13.40625 68.65625 
Q 20.21875 74.21875 32.171875 74.21875 
Q 37.3125 74.21875 42.625 73.28125 
Q 47.953125 72.359375 53.515625 70.515625 
z
" id="DejaVuSans-83"/>
      <path d="M 30.609375 48.390625 
Q 23.390625 48.390625 19.1875 42.75 
Q 14.984375 37.109375 14.984375 27.296875 
Q 14.984375 17.484375 19.15625 11.84375 
Q 23.34375 6.203125 30.609375 6.203125 
Q 37.796875 6.203125 41.984375 11.859375 
Q 46.1875 17.53125 46.1875 27.296875 
Q 46.1875 37.015625 41.984375 42.703125 
Q 37.796875 48.390625 30.609375 48.390625 
z
M 30.609375 56 
Q 42.328125 56 49.015625 48.375 
Q 55.71875 40.765625 55.71875 27.296875 
Q 55.71875 13.875 49.015625 6.21875 
Q 42.328125 -1.421875 30.609375 -1.421875 
Q 18.84375 -1.421875 12.171875 6.21875 
Q 5.515625 13.875 5.515625 27.296875 
Q 5.515625 40.765625 12.171875 48.375 
Q 18.84375 56 30.609375 56 
z
" id="DejaVuSans-111"/>
      <path d="M 52 44.1875 
Q 55.375 50.25 60.0625 53.125 
Q 64.75 56 71.09375 56 
Q 79.640625 56 84.28125 50.015625 
Q 88.921875 44.046875 88.921875 33.015625 
L 88.921875 0 
L 79.890625 0 
L 79.890625 32.71875 
Q 79.890625 40.578125 77.09375 44.375 
Q 74.3125 48.1875 68.609375 48.1875 
Q 61.625 48.1875 57.5625 43.546875 
Q 53.515625 38.921875 53.515625 30.90625 
L 53.515625 0 
L 44.484375 0 
L 44.484375 32.71875 
Q 44.484375 40.625 41.703125 44.40625 
Q 38.921875 48.1875 33.109375 48.1875 
Q 26.21875 48.1875 22.15625 43.53125 
Q 18.109375 38.875 18.109375 30.90625 
L 18.109375 0 
L 9.078125 0 
L 9.078125 54.6875 
L 18.109375 54.6875 
L 18.109375 46.1875 
Q 21.1875 51.21875 25.484375 53.609375 
Q 29.78125 56 35.6875 56 
Q 41.65625 56 45.828125 52.96875 
Q 50 49.953125 52 44.1875 
z
" id="DejaVuSans-109"/>
      <path d="M 34.28125 27.484375 
Q 23.390625 27.484375 19.1875 25 
Q 14.984375 22.515625 14.984375 16.5 
Q 14.984375 11.71875 18.140625 8.90625 
Q 21.296875 6.109375 26.703125 6.109375 
Q 34.1875 6.109375 38.703125 11.40625 
Q 43.21875 16.703125 43.21875 25.484375 
L 43.21875 27.484375 
z
M 52.203125 31.203125 
L 52.203125 0 
L 43.21875 0 
L 43.21875 8.296875 
Q 40.140625 3.328125 35.546875 0.953125 
Q 30.953125 -1.421875 24.3125 -1.421875 
Q 15.921875 -1.421875 10.953125 3.296875 
Q 6 8.015625 6 15.921875 
Q 6 25.140625 12.171875 29.828125 
Q 18.359375 34.515625 30.609375 34.515625 
L 43.21875 34.515625 
L 43.21875 35.40625 
Q 43.21875 41.609375 39.140625 45 
Q 35.0625 48.390625 27.6875 48.390625 
Q 23 48.390625 18.546875 47.265625 
Q 14.109375 46.140625 10.015625 43.890625 
L 10.015625 52.203125 
Q 14.9375 54.109375 19.578125 55.046875 
Q 24.21875 56 28.609375 56 
Q 40.484375 56 46.34375 49.84375 
Q 52.203125 43.703125 52.203125 31.203125 
z
" id="DejaVuSans-97"/>
      <path id="DejaVuSans-32"/>
      <path d="M 19.671875 64.796875 
L 19.671875 8.109375 
L 31.59375 8.109375 
Q 46.6875 8.109375 53.6875 14.9375 
Q 60.6875 21.78125 60.6875 36.53125 
Q 60.6875 51.171875 53.6875 57.984375 
Q 46.6875 64.796875 31.59375 64.796875 
z
M 9.8125 72.90625 
L 30.078125 72.90625 
Q 51.265625 72.90625 61.171875 64.09375 
Q 71.09375 55.28125 71.09375 36.53125 
Q 71.09375 17.671875 61.125 8.828125 
Q 51.171875 0 30.078125 0 
L 9.8125 0 
z
" id="DejaVuSans-68"/>
      <path d="M 9.421875 54.6875 
L 18.40625 54.6875 
L 18.40625 0 
L 9.421875 0 
z
M 9.421875 75.984375 
L 18.40625 75.984375 
L 18.40625 64.59375 
L 9.421875 64.59375 
z
" id="DejaVuSans-105"/>
      <path d="M 34.28125 27.484375 
Q 23.390625 27.484375 19.1875 25 
Q 14.984375 22.515625 14.984375 16.5 
Q 14.984375 11.71875 18.140625 8.90625 
Q 21.296875 6.109375 26.703125 6.109375 
Q 34.1875 6.109375 38.703125 11.40625 
Q 43.21875 16.703125 43.21875 25.484375 
L 43.21875 27.484375 
z
M 52.203125 31.203125 
L 52.203125 0 
L 43.21875 0 
L 43.21875 8.296875 
Q 40.140625 3.328125 35.546875 0.953125 
Q 30.953125 -1.421875 24.3125 -1.421875 
Q 15.921875 -1.421875 10.953125 3.296875 
Q 6 8.015625 6 15.921875 
Q 6 25.140625 12.171875 29.828125 
Q 18.359375 34.515625 30.609375 34.515625 
L 43.21875 34.515625 
L 43.21875 35.40625 
Q 43.21875 41.609375 39.140625 45 
Q 35.0625 48.390625 27.6875 48.390625 
Q 23 48.390625 18.546875 47.265625 
Q 14.109375 46.140625 10.015625 43.890625 
L 10.015625 52.203125 
Q 14.9375 54.109375 19.578125 55.046875 
Q 24.21875 56 28.609375 56 
Q 40.484375 56 46.34375 49.84375 
Q 52.203125 43.703125 52.203125 31.203125 
z
M 35.796875 79.984375 
L 45.515625 79.984375 
L 29.59375 61.625 
L 22.125 61.625 
z
" id="DejaVuSans-225"/>
      <path d="M 41.109375 46.296875 
Q 39.59375 47.171875 37.8125 47.578125 
Q 36.03125 48 33.890625 48 
Q 26.265625 48 22.1875 43.046875 
Q 18.109375 38.09375 18.109375 28.8125 
L 18.109375 0 
L 9.078125 0 
L 9.078125 54.6875 
L 18.109375 54.6875 
L 18.109375 46.1875 
Q 20.953125 51.171875 25.484375 53.578125 
Q 30.03125 56 36.53125 56 
Q 37.453125 56 38.578125 55.875 
Q 39.703125 55.765625 41.0625 55.515625 
z
" id="DejaVuSans-114"/>
      <path d="M 45.40625 46.390625 
L 45.40625 75.984375 
L 54.390625 75.984375 
L 54.390625 0 
L 45.40625 0 
L 45.40625 8.203125 
Q 42.578125 3.328125 38.25 0.953125 
Q 33.9375 -1.421875 27.875 -1.421875 
Q 17.96875 -1.421875 11.734375 6.484375 
Q 5.515625 14.40625 5.515625 27.296875 
Q 5.515625 40.1875 11.734375 48.09375 
Q 17.96875 56 27.875 56 
Q 33.9375 56 38.25 53.625 
Q 42.578125 51.265625 45.40625 46.390625 
z
M 14.796875 27.296875 
Q 14.796875 17.390625 18.875 11.75 
Q 22.953125 6.109375 30.078125 6.109375 
Q 37.203125 6.109375 41.296875 11.75 
Q 45.40625 17.390625 45.40625 27.296875 
Q 45.40625 37.203125 41.296875 42.84375 
Q 37.203125 48.484375 30.078125 48.484375 
Q 22.953125 48.484375 18.875 42.84375 
Q 14.796875 37.203125 14.796875 27.296875 
z
" id="DejaVuSans-100"/>
      <path d="M 56.203125 29.59375 
L 56.203125 25.203125 
L 14.890625 25.203125 
Q 15.484375 15.921875 20.484375 11.0625 
Q 25.484375 6.203125 34.421875 6.203125 
Q 39.59375 6.203125 44.453125 7.46875 
Q 49.3125 8.734375 54.109375 11.28125 
L 54.109375 2.78125 
Q 49.265625 0.734375 44.1875 -0.34375 
Q 39.109375 -1.421875 33.890625 -1.421875 
Q 20.796875 -1.421875 13.15625 6.1875 
Q 5.515625 13.8125 5.515625 26.8125 
Q 5.515625 40.234375 12.765625 48.109375 
Q 20.015625 56 32.328125 56 
Q 43.359375 56 49.78125 48.890625 
Q 56.203125 41.796875 56.203125 29.59375 
z
M 47.21875 32.234375 
Q 47.125 39.59375 43.09375 43.984375 
Q 39.0625 48.390625 32.421875 48.390625 
Q 24.90625 48.390625 20.390625 44.140625 
Q 15.875 39.890625 15.1875 32.171875 
z
" id="DejaVuSans-101"/>
      <path d="M 9.8125 72.90625 
L 55.90625 72.90625 
L 55.90625 64.59375 
L 19.671875 64.59375 
L 19.671875 43.015625 
L 54.390625 43.015625 
L 54.390625 34.71875 
L 19.671875 34.71875 
L 19.671875 8.296875 
L 56.78125 8.296875 
L 56.78125 0 
L 9.8125 0 
z
" id="DejaVuSans-69"/>
      <path d="M 54.890625 33.015625 
L 54.890625 0 
L 45.90625 0 
L 45.90625 32.71875 
Q 45.90625 40.484375 42.875 44.328125 
Q 39.84375 48.1875 33.796875 48.1875 
Q 26.515625 48.1875 22.3125 43.546875 
Q 18.109375 38.921875 18.109375 30.90625 
L 18.109375 0 
L 9.078125 0 
L 9.078125 54.6875 
L 18.109375 54.6875 
L 18.109375 46.1875 
Q 21.34375 51.125 25.703125 53.5625 
Q 30.078125 56 35.796875 56 
Q 45.21875 56 50.046875 50.171875 
Q 54.890625 44.34375 54.890625 33.015625 
z
" id="DejaVuSans-110"/>
      <path d="M 45.40625 27.984375 
Q 45.40625 37.75 41.375 43.109375 
Q 37.359375 48.484375 30.078125 48.484375 
Q 22.859375 48.484375 18.828125 43.109375 
Q 14.796875 37.75 14.796875 27.984375 
Q 14.796875 18.265625 18.828125 12.890625 
Q 22.859375 7.515625 30.078125 7.515625 
Q 37.359375 7.515625 41.375 12.890625 
Q 45.40625 18.265625 45.40625 27.984375 
z
M 54.390625 6.78125 
Q 54.390625 -7.171875 48.1875 -13.984375 
Q 42 -20.796875 29.203125 -20.796875 
Q 24.46875 -20.796875 20.265625 -20.09375 
Q 16.0625 -19.390625 12.109375 -17.921875 
L 12.109375 -9.1875 
Q 16.0625 -11.328125 19.921875 -12.34375 
Q 23.78125 -13.375 27.78125 -13.375 
Q 36.625 -13.375 41.015625 -8.765625 
Q 45.40625 -4.15625 45.40625 5.171875 
L 45.40625 9.625 
Q 42.625 4.78125 38.28125 2.390625 
Q 33.9375 0 27.875 0 
Q 17.828125 0 11.671875 7.65625 
Q 5.515625 15.328125 5.515625 27.984375 
Q 5.515625 40.671875 11.671875 48.328125 
Q 17.828125 56 27.875 56 
Q 33.9375 56 38.28125 53.609375 
Q 42.625 51.21875 45.40625 46.390625 
L 45.40625 54.6875 
L 54.390625 54.6875 
z
" id="DejaVuSans-103"/>
      <path d="M 64.40625 67.28125 
L 64.40625 56.890625 
Q 59.421875 61.53125 53.78125 63.8125 
Q 48.140625 66.109375 41.796875 66.109375 
Q 29.296875 66.109375 22.65625 58.46875 
Q 16.015625 50.828125 16.015625 36.375 
Q 16.015625 21.96875 22.65625 14.328125 
Q 29.296875 6.6875 41.796875 6.6875 
Q 48.140625 6.6875 53.78125 8.984375 
Q 59.421875 11.28125 64.40625 15.921875 
L 64.40625 5.609375 
Q 59.234375 2.09375 53.4375 0.328125 
Q 47.65625 -1.421875 41.21875 -1.421875 
Q 24.65625 -1.421875 15.125 8.703125 
Q 5.609375 18.84375 5.609375 36.375 
Q 5.609375 53.953125 15.125 64.078125 
Q 24.65625 74.21875 41.21875 74.21875 
Q 47.75 74.21875 53.53125 72.484375 
Q 59.328125 70.75 64.40625 67.28125 
z
" id="DejaVuSans-67"/>
      <path d="M 44.28125 53.078125 
L 44.28125 44.578125 
Q 40.484375 46.53125 36.375 47.5 
Q 32.28125 48.484375 27.875 48.484375 
Q 21.1875 48.484375 17.84375 46.4375 
Q 14.5 44.390625 14.5 40.28125 
Q 14.5 37.15625 16.890625 35.375 
Q 19.28125 33.59375 26.515625 31.984375 
L 29.59375 31.296875 
Q 39.15625 29.25 43.1875 25.515625 
Q 47.21875 21.78125 47.21875 15.09375 
Q 47.21875 7.46875 41.1875 3.015625 
Q 35.15625 -1.421875 24.609375 -1.421875 
Q 20.21875 -1.421875 15.453125 -0.5625 
Q 10.6875 0.296875 5.421875 2 
L 5.421875 11.28125 
Q 10.40625 8.6875 15.234375 7.390625 
Q 20.0625 6.109375 24.8125 6.109375 
Q 31.15625 6.109375 34.5625 8.28125 
Q 37.984375 10.453125 37.984375 14.40625 
Q 37.984375 18.0625 35.515625 20.015625 
Q 33.0625 21.96875 24.703125 23.78125 
L 21.578125 24.515625 
Q 13.234375 26.265625 9.515625 29.90625 
Q 5.8125 33.546875 5.8125 39.890625 
Q 5.8125 47.609375 11.28125 51.796875 
Q 16.75 56 26.8125 56 
Q 31.78125 56 36.171875 55.265625 
Q 40.578125 54.546875 44.28125 53.078125 
z
" id="DejaVuSans-115"/>
     </defs>
     <use xlink:href="#DejaVuSans-83"/>
     <use x="63.476562" xlink:href="#DejaVuSans-111"/>
     <use x="124.658203" xlink:href="#DejaVuSans-109"/>
     <use x="222.070312" xlink:href="#DejaVuSans-97"/>
     <use x="283.349609" xlink:href="#DejaVuSans-32"/>
     <use x="315.136719" xlink:href="#DejaVuSans-68"/>
     <use x="392.138672" xlink:href="#DejaVuSans-105"/>
     <use x="419.921875" xlink:href="#DejaVuSans-225"/>
     <use x="481.201172" xlink:href="#DejaVuSans-114"/>
     <use x="522.314453" xlink:href="#DejaVuSans-105"/>
     <use x="550.097656" xlink:href="#DejaVuSans-97"/>
     <use x="611.376953" xlink:href="#DejaVuSans-32"/>
     <use x="643.164062" xlink:href="#DejaVuSans-100"/>
     <use x="706.640625" xlink:href="#DejaVuSans-101"/>
     <use x="768.164062" xlink:href="#DejaVuSans-32"/>
     <use x="799.951172" xlink:href="#DejaVuSans-69"/>
     <use x="863.134766" xlink:href="#DejaVuSans-110"/>
     <use x="926.513672" xlink:href="#DejaVuSans-101"/>
     <use x="988.037109" xlink:href="#DejaVuSans-114"/>
     <use x="1027.400391" xlink:href="#DejaVuSans-103"/>
     <use x="1090.876953" xlink:href="#DejaVuSans-105"/>
     <use x="1118.660156" xlink:href="#DejaVuSans-97"/>
     <use x="1179.939453" xlink:href="#DejaVuSans-32"/>
     <use x="1211.726562" xlink:href="#DejaVuSans-45"/>
     <use x="1247.810547" xlink:href="#DejaVuSans-32"/>
     <use x="1279.597656" xlink:href="#DejaVuSans-67"/>
     <use x="1349.421875" xlink:href="#DejaVuSans-97"/>
     <use x="1410.701172" xlink:href="#DejaVuSans-115"/>
     <use x="1462.800781" xlink:href="#DejaVuSans-97"/>
     <use x="1524.080078" xlink:href="#DejaVuSans-32"/>
     <use x="1555.867188" xlink:href="#DejaVuSans-49"/>
     <use x="1619.490234" xlink:href="#DejaVuSans-51"/>
    </g>
   </g>
  </g>
 </g>
 <defs>
  <clipPath id="p83934eabf1">
   <rect height="217.44" width="334.8" x="54" y="34.56"/>
  </clipPath>
 </defs>
</svg>
