<?xml version="1.0" encoding="utf-8" standalone="no"?>
<!DOCTYPE svg PUBLIC "-//W3C//DTD SVG 1.1//EN"
  "http://www.w3.org/Graphics/SVG/1.1/DTD/svg11.dtd">
<!-- Created with matplotlib (https://matplotlib.org/) -->
<svg height="288pt" version="1.1" viewBox="0 0 432 288" width="432pt" xmlns="http://www.w3.org/2000/svg" xmlns:xlink="http://www.w3.org/1999/xlink">
 <metadata>
  <rdf:RDF xmlns:cc="http://creativecommons.org/ns#" xmlns:dc="http://purl.org/dc/elements/1.1/" xmlns:rdf="http://www.w3.org/1999/02/22-rdf-syntax-ns#">
   <cc:Work>
    <dc:type rdf:resource="http://purl.org/dc/dcmitype/StillImage"/>
    <dc:date>2021-07-21T14:57:49.213092</dc:date>
    <dc:format>image/svg+xml</dc:format>
    <dc:creator>
     <cc:Agent>
      <dc:title>Matplotlib v3.3.4, https://matplotlib.org/</dc:title>
     </cc:Agent>
    </dc:creator>
   </cc:Work>
  </rdf:RDF>
 </metadata>
 <defs>
  <style type="text/css">*{stroke-linecap:butt;stroke-linejoin:round;}</style>
 </defs>
 <g id="figure_1">
  <g id="patch_1">
   <path d="M 0 288 
L 432 288 
L 432 0 
L 0 0 
z
" style="fill:#ffffff;"/>
  </g>
  <g id="axes_1">
   <g id="patch_2">
    <path d="M 54 252 
L 388.8 252 
L 388.8 34.56 
L 54 34.56 
z
" style="fill:#ffffff;"/>
   </g>
   <g id="matplotlib.axis_1">
    <g id="xtick_1">
     <g id="line2d_1">
      <defs>
       <path d="M 0 0 
L 0 3.5 
" id="m6bc88f3622" style="stroke:#000000;stroke-width:0.8;"/>
      </defs>
      <g>
       <use style="stroke:#000000;stroke-width:0.8;" x="55.042341" xlink:href="#m6bc88f3622" y="252"/>
      </g>
     </g>
     <g id="text_1">
      <!-- 2015-01 -->
      <g transform="translate(42.221059 293.917817)rotate(-45)scale(0.1 -0.1)">
       <defs>
        <path d="M 19.1875 8.296875 
L 53.609375 8.296875 
L 53.609375 0 
L 7.328125 0 
L 7.328125 8.296875 
Q 12.9375 14.109375 22.625 23.890625 
Q 32.328125 33.6875 34.8125 36.53125 
Q 39.546875 41.84375 41.421875 45.53125 
Q 43.3125 49.21875 43.3125 52.78125 
Q 43.3125 58.59375 39.234375 62.25 
Q 35.15625 65.921875 28.609375 65.921875 
Q 23.96875 65.921875 18.8125 64.3125 
Q 13.671875 62.703125 7.8125 59.421875 
L 7.8125 69.390625 
Q 13.765625 71.78125 18.9375 73 
Q 24.125 74.21875 28.421875 74.21875 
Q 39.75 74.21875 46.484375 68.546875 
Q 53.21875 62.890625 53.21875 53.421875 
Q 53.21875 48.921875 51.53125 44.890625 
Q 49.859375 40.875 45.40625 35.40625 
Q 44.1875 33.984375 37.640625 27.21875 
Q 31.109375 20.453125 19.1875 8.296875 
z
" id="DejaVuSans-50"/>
        <path d="M 31.78125 66.40625 
Q 24.171875 66.40625 20.328125 58.90625 
Q 16.5 51.421875 16.5 36.375 
Q 16.5 21.390625 20.328125 13.890625 
Q 24.171875 6.390625 31.78125 6.390625 
Q 39.453125 6.390625 43.28125 13.890625 
Q 47.125 21.390625 47.125 36.375 
Q 47.125 51.421875 43.28125 58.90625 
Q 39.453125 66.40625 31.78125 66.40625 
z
M 31.78125 74.21875 
Q 44.046875 74.21875 50.515625 64.515625 
Q 56.984375 54.828125 56.984375 36.375 
Q 56.984375 17.96875 50.515625 8.265625 
Q 44.046875 -1.421875 31.78125 -1.421875 
Q 19.53125 -1.421875 13.0625 8.265625 
Q 6.59375 17.96875 6.59375 36.375 
Q 6.59375 54.828125 13.0625 64.515625 
Q 19.53125 74.21875 31.78125 74.21875 
z
" id="DejaVuSans-48"/>
        <path d="M 12.40625 8.296875 
L 28.515625 8.296875 
L 28.515625 63.921875 
L 10.984375 60.40625 
L 10.984375 69.390625 
L 28.421875 72.90625 
L 38.28125 72.90625 
L 38.28125 8.296875 
L 54.390625 8.296875 
L 54.390625 0 
L 12.40625 0 
z
" id="DejaVuSans-49"/>
        <path d="M 10.796875 72.90625 
L 49.515625 72.90625 
L 49.515625 64.59375 
L 19.828125 64.59375 
L 19.828125 46.734375 
Q 21.96875 47.46875 24.109375 47.828125 
Q 26.265625 48.1875 28.421875 48.1875 
Q 40.625 48.1875 47.75 41.5 
Q 54.890625 34.8125 54.890625 23.390625 
Q 54.890625 11.625 47.5625 5.09375 
Q 40.234375 -1.421875 26.90625 -1.421875 
Q 22.3125 -1.421875 17.546875 -0.640625 
Q 12.796875 0.140625 7.71875 1.703125 
L 7.71875 11.625 
Q 12.109375 9.234375 16.796875 8.0625 
Q 21.484375 6.890625 26.703125 6.890625 
Q 35.15625 6.890625 40.078125 11.328125 
Q 45.015625 15.765625 45.015625 23.390625 
Q 45.015625 31 40.078125 35.4375 
Q 35.15625 39.890625 26.703125 39.890625 
Q 22.75 39.890625 18.8125 39.015625 
Q 14.890625 38.140625 10.796875 36.28125 
z
" id="DejaVuSans-53"/>
        <path d="M 4.890625 31.390625 
L 31.203125 31.390625 
L 31.203125 23.390625 
L 4.890625 23.390625 
z
" id="DejaVuSans-45"/>
       </defs>
       <use xlink:href="#DejaVuSans-50"/>
       <use x="63.623047" xlink:href="#DejaVuSans-48"/>
       <use x="127.246094" xlink:href="#DejaVuSans-49"/>
       <use x="190.869141" xlink:href="#DejaVuSans-53"/>
       <use x="254.492188" xlink:href="#DejaVuSans-45"/>
       <use x="290.576172" xlink:href="#DejaVuSans-48"/>
       <use x="354.199219" xlink:href="#DejaVuSans-49"/>
      </g>
     </g>
    </g>
    <g id="xtick_2">
     <g id="line2d_2">
      <g>
       <use style="stroke:#000000;stroke-width:0.8;" x="88.39726" xlink:href="#m6bc88f3622" y="252"/>
      </g>
     </g>
     <g id="text_2">
      <!-- 2015-05 -->
      <g transform="translate(75.575978 293.917817)rotate(-45)scale(0.1 -0.1)">
       <use xlink:href="#DejaVuSans-50"/>
       <use x="63.623047" xlink:href="#DejaVuSans-48"/>
       <use x="127.246094" xlink:href="#DejaVuSans-49"/>
       <use x="190.869141" xlink:href="#DejaVuSans-53"/>
       <use x="254.492188" xlink:href="#DejaVuSans-45"/>
       <use x="290.576172" xlink:href="#DejaVuSans-48"/>
       <use x="354.199219" xlink:href="#DejaVuSans-53"/>
      </g>
     </g>
    </g>
    <g id="xtick_3">
     <g id="line2d_3">
      <g>
       <use style="stroke:#000000;stroke-width:0.8;" x="122.586052" xlink:href="#m6bc88f3622" y="252"/>
      </g>
     </g>
     <g id="text_3">
      <!-- 2015-09 -->
      <g transform="translate(109.76477 293.917817)rotate(-45)scale(0.1 -0.1)">
       <defs>
        <path d="M 10.984375 1.515625 
L 10.984375 10.5 
Q 14.703125 8.734375 18.5 7.8125 
Q 22.3125 6.890625 25.984375 6.890625 
Q 35.75 6.890625 40.890625 13.453125 
Q 46.046875 20.015625 46.78125 33.40625 
Q 43.953125 29.203125 39.59375 26.953125 
Q 35.25 24.703125 29.984375 24.703125 
Q 19.046875 24.703125 12.671875 31.3125 
Q 6.296875 37.9375 6.296875 49.421875 
Q 6.296875 60.640625 12.9375 67.421875 
Q 19.578125 74.21875 30.609375 74.21875 
Q 43.265625 74.21875 49.921875 64.515625 
Q 56.59375 54.828125 56.59375 36.375 
Q 56.59375 19.140625 48.40625 8.859375 
Q 40.234375 -1.421875 26.421875 -1.421875 
Q 22.703125 -1.421875 18.890625 -0.6875 
Q 15.09375 0.046875 10.984375 1.515625 
z
M 30.609375 32.421875 
Q 37.25 32.421875 41.125 36.953125 
Q 45.015625 41.5 45.015625 49.421875 
Q 45.015625 57.28125 41.125 61.84375 
Q 37.25 66.40625 30.609375 66.40625 
Q 23.96875 66.40625 20.09375 61.84375 
Q 16.21875 57.28125 16.21875 49.421875 
Q 16.21875 41.5 20.09375 36.953125 
Q 23.96875 32.421875 30.609375 32.421875 
z
" id="DejaVuSans-57"/>
       </defs>
       <use xlink:href="#DejaVuSans-50"/>
       <use x="63.623047" xlink:href="#DejaVuSans-48"/>
       <use x="127.246094" xlink:href="#DejaVuSans-49"/>
       <use x="190.869141" xlink:href="#DejaVuSans-53"/>
       <use x="254.492188" xlink:href="#DejaVuSans-45"/>
       <use x="290.576172" xlink:href="#DejaVuSans-48"/>
       <use x="354.199219" xlink:href="#DejaVuSans-57"/>
      </g>
     </g>
    </g>
    <g id="xtick_4">
     <g id="line2d_4">
      <g>
       <use style="stroke:#000000;stroke-width:0.8;" x="156.496887" xlink:href="#m6bc88f3622" y="252"/>
      </g>
     </g>
     <g id="text_4">
      <!-- 2016-01 -->
      <g transform="translate(143.675604 293.917817)rotate(-45)scale(0.1 -0.1)">
       <defs>
        <path d="M 33.015625 40.375 
Q 26.375 40.375 22.484375 35.828125 
Q 18.609375 31.296875 18.609375 23.390625 
Q 18.609375 15.53125 22.484375 10.953125 
Q 26.375 6.390625 33.015625 6.390625 
Q 39.65625 6.390625 43.53125 10.953125 
Q 47.40625 15.53125 47.40625 23.390625 
Q 47.40625 31.296875 43.53125 35.828125 
Q 39.65625 40.375 33.015625 40.375 
z
M 52.59375 71.296875 
L 52.59375 62.3125 
Q 48.875 64.0625 45.09375 64.984375 
Q 41.3125 65.921875 37.59375 65.921875 
Q 27.828125 65.921875 22.671875 59.328125 
Q 17.53125 52.734375 16.796875 39.40625 
Q 19.671875 43.65625 24.015625 45.921875 
Q 28.375 48.1875 33.59375 48.1875 
Q 44.578125 48.1875 50.953125 41.515625 
Q 57.328125 34.859375 57.328125 23.390625 
Q 57.328125 12.15625 50.6875 5.359375 
Q 44.046875 -1.421875 33.015625 -1.421875 
Q 20.359375 -1.421875 13.671875 8.265625 
Q 6.984375 17.96875 6.984375 36.375 
Q 6.984375 53.65625 15.1875 63.9375 
Q 23.390625 74.21875 37.203125 74.21875 
Q 40.921875 74.21875 44.703125 73.484375 
Q 48.484375 72.75 52.59375 71.296875 
z
" id="DejaVuSans-54"/>
       </defs>
       <use xlink:href="#DejaVuSans-50"/>
       <use x="63.623047" xlink:href="#DejaVuSans-48"/>
       <use x="127.246094" xlink:href="#DejaVuSans-49"/>
       <use x="190.869141" xlink:href="#DejaVuSans-54"/>
       <use x="254.492188" xlink:href="#DejaVuSans-45"/>
       <use x="290.576172" xlink:href="#DejaVuSans-48"/>
       <use x="354.199219" xlink:href="#DejaVuSans-49"/>
      </g>
     </g>
    </g>
    <g id="xtick_5">
     <g id="line2d_5">
      <g>
       <use style="stroke:#000000;stroke-width:0.8;" x="190.129763" xlink:href="#m6bc88f3622" y="252"/>
      </g>
     </g>
     <g id="text_5">
      <!-- 2016-05 -->
      <g transform="translate(177.308481 293.917817)rotate(-45)scale(0.1 -0.1)">
       <use xlink:href="#DejaVuSans-50"/>
       <use x="63.623047" xlink:href="#DejaVuSans-48"/>
       <use x="127.246094" xlink:href="#DejaVuSans-49"/>
       <use x="190.869141" xlink:href="#DejaVuSans-54"/>
       <use x="254.492188" xlink:href="#DejaVuSans-45"/>
       <use x="290.576172" xlink:href="#DejaVuSans-48"/>
       <use x="354.199219" xlink:href="#DejaVuSans-53"/>
      </g>
     </g>
    </g>
    <g id="xtick_6">
     <g id="line2d_6">
      <g>
       <use style="stroke:#000000;stroke-width:0.8;" x="224.318555" xlink:href="#m6bc88f3622" y="252"/>
      </g>
     </g>
     <g id="text_6">
      <!-- 2016-09 -->
      <g transform="translate(211.497273 293.917817)rotate(-45)scale(0.1 -0.1)">
       <use xlink:href="#DejaVuSans-50"/>
       <use x="63.623047" xlink:href="#DejaVuSans-48"/>
       <use x="127.246094" xlink:href="#DejaVuSans-49"/>
       <use x="190.869141" xlink:href="#DejaVuSans-54"/>
       <use x="254.492188" xlink:href="#DejaVuSans-45"/>
       <use x="290.576172" xlink:href="#DejaVuSans-48"/>
       <use x="354.199219" xlink:href="#DejaVuSans-57"/>
      </g>
     </g>
    </g>
    <g id="xtick_7">
     <g id="line2d_7">
      <g>
       <use style="stroke:#000000;stroke-width:0.8;" x="258.22939" xlink:href="#m6bc88f3622" y="252"/>
      </g>
     </g>
     <g id="text_7">
      <!-- 2017-01 -->
      <g transform="translate(245.408108 293.917817)rotate(-45)scale(0.1 -0.1)">
       <defs>
        <path d="M 8.203125 72.90625 
L 55.078125 72.90625 
L 55.078125 68.703125 
L 28.609375 0 
L 18.3125 0 
L 43.21875 64.59375 
L 8.203125 64.59375 
z
" id="DejaVuSans-55"/>
       </defs>
       <use xlink:href="#DejaVuSans-50"/>
       <use x="63.623047" xlink:href="#DejaVuSans-48"/>
       <use x="127.246094" xlink:href="#DejaVuSans-49"/>
       <use x="190.869141" xlink:href="#DejaVuSans-55"/>
       <use x="254.492188" xlink:href="#DejaVuSans-45"/>
       <use x="290.576172" xlink:href="#DejaVuSans-48"/>
       <use x="354.199219" xlink:href="#DejaVuSans-49"/>
      </g>
     </g>
    </g>
    <g id="xtick_8">
     <g id="line2d_8">
      <g>
       <use style="stroke:#000000;stroke-width:0.8;" x="291.584309" xlink:href="#m6bc88f3622" y="252"/>
      </g>
     </g>
     <g id="text_8">
      <!-- 2017-05 -->
      <g transform="translate(278.763027 293.917817)rotate(-45)scale(0.1 -0.1)">
       <use xlink:href="#DejaVuSans-50"/>
       <use x="63.623047" xlink:href="#DejaVuSans-48"/>
       <use x="127.246094" xlink:href="#DejaVuSans-49"/>
       <use x="190.869141" xlink:href="#DejaVuSans-55"/>
       <use x="254.492188" xlink:href="#DejaVuSans-45"/>
       <use x="290.576172" xlink:href="#DejaVuSans-48"/>
       <use x="354.199219" xlink:href="#DejaVuSans-53"/>
      </g>
     </g>
    </g>
    <g id="xtick_9">
     <g id="line2d_9">
      <g>
       <use style="stroke:#000000;stroke-width:0.8;" x="325.773101" xlink:href="#m6bc88f3622" y="252"/>
      </g>
     </g>
     <g id="text_9">
      <!-- 2017-09 -->
      <g transform="translate(312.951819 293.917817)rotate(-45)scale(0.1 -0.1)">
       <use xlink:href="#DejaVuSans-50"/>
       <use x="63.623047" xlink:href="#DejaVuSans-48"/>
       <use x="127.246094" xlink:href="#DejaVuSans-49"/>
       <use x="190.869141" xlink:href="#DejaVuSans-55"/>
       <use x="254.492188" xlink:href="#DejaVuSans-45"/>
       <use x="290.576172" xlink:href="#DejaVuSans-48"/>
       <use x="354.199219" xlink:href="#DejaVuSans-57"/>
      </g>
     </g>
    </g>
    <g id="xtick_10">
     <g id="line2d_10">
      <g>
       <use style="stroke:#000000;stroke-width:0.8;" x="359.683935" xlink:href="#m6bc88f3622" y="252"/>
      </g>
     </g>
     <g id="text_10">
      <!-- 2018-01 -->
      <g transform="translate(346.862653 293.917817)rotate(-45)scale(0.1 -0.1)">
       <defs>
        <path d="M 31.78125 34.625 
Q 24.75 34.625 20.71875 30.859375 
Q 16.703125 27.09375 16.703125 20.515625 
Q 16.703125 13.921875 20.71875 10.15625 
Q 24.75 6.390625 31.78125 6.390625 
Q 38.8125 6.390625 42.859375 10.171875 
Q 46.921875 13.96875 46.921875 20.515625 
Q 46.921875 27.09375 42.890625 30.859375 
Q 38.875 34.625 31.78125 34.625 
z
M 21.921875 38.8125 
Q 15.578125 40.375 12.03125 44.71875 
Q 8.5 49.078125 8.5 55.328125 
Q 8.5 64.0625 14.71875 69.140625 
Q 20.953125 74.21875 31.78125 74.21875 
Q 42.671875 74.21875 48.875 69.140625 
Q 55.078125 64.0625 55.078125 55.328125 
Q 55.078125 49.078125 51.53125 44.71875 
Q 48 40.375 41.703125 38.8125 
Q 48.828125 37.15625 52.796875 32.3125 
Q 56.78125 27.484375 56.78125 20.515625 
Q 56.78125 9.90625 50.3125 4.234375 
Q 43.84375 -1.421875 31.78125 -1.421875 
Q 19.734375 -1.421875 13.25 4.234375 
Q 6.78125 9.90625 6.78125 20.515625 
Q 6.78125 27.484375 10.78125 32.3125 
Q 14.796875 37.15625 21.921875 38.8125 
z
M 18.3125 54.390625 
Q 18.3125 48.734375 21.84375 45.5625 
Q 25.390625 42.390625 31.78125 42.390625 
Q 38.140625 42.390625 41.71875 45.5625 
Q 45.3125 48.734375 45.3125 54.390625 
Q 45.3125 60.0625 41.71875 63.234375 
Q 38.140625 66.40625 31.78125 66.40625 
Q 25.390625 66.40625 21.84375 63.234375 
Q 18.3125 60.0625 18.3125 54.390625 
z
" id="DejaVuSans-56"/>
       </defs>
       <use xlink:href="#DejaVuSans-50"/>
       <use x="63.623047" xlink:href="#DejaVuSans-48"/>
       <use x="127.246094" xlink:href="#DejaVuSans-49"/>
       <use x="190.869141" xlink:href="#DejaVuSans-56"/>
       <use x="254.492188" xlink:href="#DejaVuSans-45"/>
       <use x="290.576172" xlink:href="#DejaVuSans-48"/>
       <use x="354.199219" xlink:href="#DejaVuSans-49"/>
      </g>
     </g>
    </g>
   </g>
   <g id="matplotlib.axis_2">
    <g id="ytick_1">
     <g id="line2d_11">
      <defs>
       <path d="M 0 0 
L -3.5 0 
" id="m6695dd8945" style="stroke:#000000;stroke-width:0.8;"/>
      </defs>
      <g>
       <use style="stroke:#000000;stroke-width:0.8;" x="54" xlink:href="#m6695dd8945" y="242.116364"/>
      </g>
     </g>
     <g id="text_11">
      <!-- 0 -->
      <g transform="translate(40.6375 245.915582)scale(0.1 -0.1)">
       <use xlink:href="#DejaVuSans-48"/>
      </g>
     </g>
    </g>
    <g id="ytick_2">
     <g id="line2d_12">
      <g>
       <use style="stroke:#000000;stroke-width:0.8;" x="54" xlink:href="#m6695dd8945" y="196.897851"/>
      </g>
     </g>
     <g id="text_12">
      <!-- 20 -->
      <g transform="translate(34.275 200.69707)scale(0.1 -0.1)">
       <use xlink:href="#DejaVuSans-50"/>
       <use x="63.623047" xlink:href="#DejaVuSans-48"/>
      </g>
     </g>
    </g>
    <g id="ytick_3">
     <g id="line2d_13">
      <g>
       <use style="stroke:#000000;stroke-width:0.8;" x="54" xlink:href="#m6695dd8945" y="151.679339"/>
      </g>
     </g>
     <g id="text_13">
      <!-- 40 -->
      <g transform="translate(34.275 155.478557)scale(0.1 -0.1)">
       <defs>
        <path d="M 37.796875 64.3125 
L 12.890625 25.390625 
L 37.796875 25.390625 
z
M 35.203125 72.90625 
L 47.609375 72.90625 
L 47.609375 25.390625 
L 58.015625 25.390625 
L 58.015625 17.1875 
L 47.609375 17.1875 
L 47.609375 0 
L 37.796875 0 
L 37.796875 17.1875 
L 4.890625 17.1875 
L 4.890625 26.703125 
z
" id="DejaVuSans-52"/>
       </defs>
       <use xlink:href="#DejaVuSans-52"/>
       <use x="63.623047" xlink:href="#DejaVuSans-48"/>
      </g>
     </g>
    </g>
    <g id="ytick_4">
     <g id="line2d_14">
      <g>
       <use style="stroke:#000000;stroke-width:0.8;" x="54" xlink:href="#m6695dd8945" y="106.460826"/>
      </g>
     </g>
     <g id="text_14">
      <!-- 60 -->
      <g transform="translate(34.275 110.260045)scale(0.1 -0.1)">
       <use xlink:href="#DejaVuSans-54"/>
       <use x="63.623047" xlink:href="#DejaVuSans-48"/>
      </g>
     </g>
    </g>
    <g id="ytick_5">
     <g id="line2d_15">
      <g>
       <use style="stroke:#000000;stroke-width:0.8;" x="54" xlink:href="#m6695dd8945" y="61.242314"/>
      </g>
     </g>
     <g id="text_15">
      <!-- 80 -->
      <g transform="translate(34.275 65.041532)scale(0.1 -0.1)">
       <use xlink:href="#DejaVuSans-56"/>
       <use x="63.623047" xlink:href="#DejaVuSans-48"/>
      </g>
     </g>
    </g>
   </g>
   <g id="line2d_16">
    <path clip-path="url(#p8ba8e2d2fe)" d="M 69.218182 154.482886 
L 69.496139 190.092465 
L 69.774097 184.575807 
L 70.052055 186.158454 
L 70.330012 176.504302 
L 70.60797 197.440473 
L 70.885928 184.824508 
L 71.163885 135.287628 
L 71.441843 186.859341 
L 71.719801 207.682466 
L 71.997758 207.750294 
L 72.275716 207.682466 
L 72.553674 199.36226 
L 72.831631 196.558712 
L 73.387547 184.711462 
L 73.665504 198.412671 
L 73.943462 170.558068 
L 74.499377 184.259277 
L 74.777335 185.457568 
L 75.055293 188.555036 
L 75.33325 203.31888 
L 75.611208 207.365937 
L 75.889166 201.691013 
L 76.167123 167.822348 
L 76.445081 167.076242 
L 76.723039 139.425122 
L 77.000996 138.520752 
L 77.278954 140.239055 
L 77.834869 160.903915 
L 78.112827 164.069211 
L 78.390785 173.700754 
L 78.668742 171.620703 
L 78.9467 162.531782 
L 79.224658 109.513076 
L 79.502615 171.191127 
L 79.780573 160.903915 
L 80.336488 189.097658 
L 80.892403 183.196642 
L 81.170361 188.577645 
L 81.726276 169.857181 
L 82.004234 200.492723 
L 82.282192 201.137087 
L 82.560149 186.881951 
L 82.838107 179.714816 
L 83.116065 180.347876 
L 83.394022 168.726718 
L 83.67198 185.796706 
L 83.949938 172.638119 
L 84.227895 172.197239 
L 84.505853 178.290433 
L 84.783811 143.13304 
L 85.061768 148.197513 
L 85.339726 170.19632 
L 85.617684 175.509495 
L 85.895641 172.276371 
L 86.173599 194.682144 
L 86.451557 190.002028 
L 86.729514 204.155422 
L 87.007472 179.013929 
L 87.28543 187.469791 
L 87.563387 188.690691 
L 87.841345 200.673597 
L 88.119303 174.672952 
L 88.39726 175.35123 
L 88.675218 152.583709 
L 88.953176 163.436152 
L 89.231133 164.770098 
L 89.509091 168.319751 
L 89.787049 159.072565 
L 90.065006 144.851343 
L 90.342964 158.190804 
L 90.620922 145.032217 
L 91.176837 157.761229 
L 91.454795 147.70011 
L 91.732752 154.957681 
L 92.01071 156.81164 
L 92.288667 143.404351 
L 92.566625 150.639313 
L 92.844583 176.775613 
L 93.12254 184.191449 
L 93.400498 195.315203 
L 93.678456 167.505818 
L 93.956413 175.396448 
L 94.234371 197.485692 
L 94.512329 179.217413 
L 94.790286 194.162131 
L 95.068244 184.191449 
L 95.346202 184.507979 
L 95.624159 165.448376 
L 95.902117 170.671114 
L 96.180075 168.184096 
L 96.458032 168.884983 
L 96.73599 148.265341 
L 97.013948 155.206383 
L 97.291905 165.504899 
L 97.569863 155.862051 
L 97.847821 163.345715 
L 98.125778 173.926847 
L 98.403736 125.045635 
L 98.681694 133.004093 
L 98.959651 128.165712 
L 99.237609 164.40835 
L 99.515567 168.884983 
L 99.793524 158.688208 
L 100.071482 171.778967 
L 100.627397 154.957681 
L 100.905355 167.709301 
L 101.46127 145.416575 
L 101.739228 122.513398 
L 102.017186 140.442538 
L 102.295143 123.485596 
L 102.573101 173.83641 
L 102.851059 154.889853 
L 103.129016 150.164519 
L 103.406974 157.42209 
L 103.684932 159.683015 
L 103.962889 174.763389 
L 104.518804 152.5611 
L 104.796762 159.615188 
L 105.07472 157.376871 
L 105.630635 173.587708 
L 105.908593 190.793352 
L 106.18655 173.610317 
L 106.464508 172.796384 
L 106.742466 151.317591 
L 107.020423 160.74565 
L 107.298381 164.227476 
L 107.576339 164.996191 
L 107.854296 174.152939 
L 108.132254 123.395159 
L 108.410212 128.007447 
L 108.688169 160.361293 
L 108.966127 169.721525 
L 109.244085 166.420574 
L 109.522042 165.742296 
L 109.8 182.020961 
L 110.077958 167.211898 
L 110.355915 190.10377 
L 110.633873 167.415381 
L 110.911831 154.415059 
L 111.467746 180.302657 
L 111.745704 151.430637 
L 112.023661 158.462116 
L 112.301619 151.294981 
L 112.579577 179.760035 
L 112.857534 179.963518 
L 113.135492 192.285563 
L 113.41345 186.158454 
L 113.691407 185.412349 
L 113.969365 191.44902 
L 114.247323 187.447182 
L 114.52528 185.276693 
L 114.803238 201.080564 
L 115.081196 180.50614 
L 115.359153 177.114752 
L 115.637111 190.725524 
L 115.915068 175.0347 
L 116.193026 174.085112 
L 116.470984 145.461793 
L 116.748941 166.171872 
L 117.026899 161.310882 
L 117.304857 168.274533 
L 117.582814 156.653375 
L 117.860772 170.083273 
L 118.13873 138.000739 
L 118.416687 160.632604 
L 118.694645 171.191127 
L 118.972603 170.671114 
L 119.25056 163.051795 
L 119.528518 163.48137 
L 119.806476 180.370485 
L 120.362391 156.382064 
L 120.640349 177.612156 
L 120.918306 185.909753 
L 121.474222 137.95552 
L 121.752179 92.533524 
L 122.030137 144.489595 
L 122.308095 146.467905 
L 122.586052 165.538813 
L 122.86401 167.279725 
L 123.141968 157.71601 
L 123.419925 165.222283 
L 123.697883 130.381419 
L 123.975841 138.27205 
L 124.809714 179.149585 
L 125.087671 158.32646 
L 125.365629 170.987644 
L 125.643587 170.309366 
L 125.921544 149.124493 
L 126.199502 145.57484 
L 126.47746 152.176742 
L 126.755417 138.543361 
L 127.311333 143.901755 
L 127.867248 118.059375 
L 128.145205 127.148296 
L 128.423163 158.914301 
L 128.701121 145.077436 
L 128.979078 125.113463 
L 129.257036 144.715688 
L 129.534994 142.703464 
L 129.812951 144.173066 
L 130.090909 162.237861 
L 130.368867 158.371679 
L 130.646824 145.032217 
L 130.924782 160.429121 
L 131.20274 144.568728 
L 131.480697 161.943941 
L 131.758655 146.467905 
L 132.036613 159.999545 
L 132.31457 155.115946 
L 132.592528 121.925557 
L 133.426401 156.20119 
L 133.704359 123.123848 
L 133.982316 138.814672 
L 134.260274 165.199674 
L 134.538232 162.011769 
L 135.372105 135.852859 
L 135.650062 144.466986 
L 135.92802 117.087177 
L 136.205978 121.043796 
L 136.483935 133.320623 
L 137.317808 152.289789 
L 137.595766 137.638991 
L 137.873724 135.649376 
L 138.151681 162.531782 
L 138.429639 150.820187 
L 138.707597 155.025509 
L 138.985554 139.49295 
L 139.541469 94.274437 
L 139.819427 143.13304 
L 140.097385 140.646022 
L 140.931258 195.383031 
L 141.209215 197.417864 
L 141.487173 198.209188 
L 142.043088 193.325589 
L 142.321046 181.11659 
L 142.599004 190.431604 
L 142.876961 185.525395 
L 143.154919 169.043247 
L 143.432877 184.688853 
L 143.710834 188.803737 
L 143.988792 174.582515 
L 144.26675 189.775935 
L 144.544707 188.464599 
L 144.822665 198.028314 
L 145.100623 174.085112 
L 145.37858 165.968389 
L 145.656538 141.188644 
L 145.934496 148.627089 
L 146.212453 180.777451 
L 146.490411 174.944263 
L 146.768369 141.324299 
L 147.046326 169.744134 
L 147.324284 138.85989 
L 147.602242 146.366163 
L 147.880199 137.096368 
L 148.158157 154.256794 
L 148.436115 144.96439 
L 148.99203 153.17155 
L 149.269988 140.510366 
L 149.547945 159.920413 
L 149.825903 170.558068 
L 150.103861 160.15781 
L 150.381818 144.444377 
L 150.659776 164.023993 
L 150.937733 133.614543 
L 151.215691 163.571807 
L 151.493649 160.316075 
L 152.049564 178.652181 
L 152.327522 178.652181 
L 152.605479 170.422412 
L 152.883437 157.331653 
L 153.161395 153.013285 
L 153.439352 152.221961 
L 153.71731 162.486563 
L 154.551183 95.156198 
L 154.829141 133.433669 
L 155.107098 124.909979 
L 155.385056 144.919171 
L 155.663014 185.118429 
L 156.218929 160.564776 
L 156.496887 119.664632 
L 156.774844 141.799094 
L 157.052802 144.873953 
L 157.33076 167.008414 
L 157.608717 145.55223 
L 157.886675 160.76826 
L 158.164633 140.419929 
L 158.44259 146.524428 
L 158.720548 149.124493 
L 158.998506 137.458117 
L 159.276463 142.047796 
L 159.554421 148.853182 
L 159.832379 136.372872 
L 160.110336 142.997384 
L 160.388294 114.55494 
L 160.666252 56.856118 
L 160.944209 118.669825 
L 161.222167 143.381742 
L 161.500125 146.840958 
L 161.778082 122.603835 
L 162.05604 139.854698 
L 162.333998 133.885854 
L 162.611955 44.443636 
L 162.889913 145.190482 
L 163.16787 137.978129 
L 163.445828 142.20606 
L 163.723786 137.096368 
L 164.001743 52.876889 
L 164.279701 111.954875 
L 164.557659 101.645055 
L 164.835616 61.660585 
L 165.113574 138.927718 
L 165.391532 141.821703 
L 165.669489 172.276371 
L 165.947447 173.813801 
L 166.225405 178.471307 
L 166.503362 134.92588 
L 166.78132 137.865083 
L 167.059278 169.043247 
L 167.337235 187.108043 
L 167.615193 188.803737 
L 167.893151 147.858374 
L 168.171108 160.519558 
L 168.449066 150.051472 
L 168.727024 95.857085 
L 169.004981 125.543038 
L 169.282939 136.938104 
L 169.560897 119.868115 
L 169.838854 146.886176 
L 170.39477 132.80061 
L 170.672727 142.861729 
L 170.950685 139.040764 
L 171.228643 150.548876 
L 171.5066 152.990676 
L 171.784558 156.698594 
L 172.340473 141.753875 
L 172.618431 67.278985 
L 172.896389 242.116364 
L 173.174346 142.83912 
L 173.452304 155.002899 
L 173.730262 173.542489 
L 174.008219 133.863245 
L 174.286177 174.311204 
L 174.564134 145.507012 
L 174.842092 131.783193 
L 175.12005 143.517397 
L 175.398007 114.645377 
L 175.675965 108.653924 
L 175.953923 121.315108 
L 176.23188 141.075598 
L 176.509838 138.294659 
L 176.787796 145.891369 
L 177.065753 177.431282 
L 177.343711 189.888982 
L 177.621669 180.053955 
L 177.899626 183.400125 
L 178.455542 142.635636 
L 178.733499 175.690369 
L 179.289415 172.344199 
L 179.567372 174.808608 
L 179.84533 194.252568 
L 180.123288 190.996835 
L 180.401245 126.560455 
L 180.679203 152.990676 
L 180.957161 165.493594 
L 181.235118 160.949134 
L 181.513076 174.288595 
L 181.791034 145.439184 
L 182.068991 138.701626 
L 182.346949 120.275082 
L 182.624907 156.675984 
L 182.902864 145.665277 
L 183.180822 155.500303 
L 183.45878 144.33133 
L 183.736737 126.583064 
L 184.014695 142.906947 
L 184.292653 89.277791 
L 184.57061 152.583709 
L 184.848568 145.687886 
L 185.404483 188.758519 
L 185.682441 161.446537 
L 185.960399 154.437668 
L 186.238356 118.127202 
L 186.794271 178.222606 
L 187.072229 162.667437 
L 187.350187 140.792982 
L 187.628144 149.169711 
L 187.906102 119.0994 
L 188.18406 118.262858 
L 188.462017 141.663438 
L 189.017933 158.258632 
L 189.29589 143.540006 
L 189.573848 181.613994 
L 189.851806 164.250085 
L 190.129763 164.227476 
L 190.407721 169.925008 
L 190.685679 171.982451 
L 190.963636 166.985805 
L 191.241594 173.700754 
L 191.519552 171.055471 
L 191.797509 155.27421 
L 192.075467 154.019397 
L 192.631382 173.859019 
L 192.90934 170.874597 
L 193.465255 180.980935 
L 193.743213 180.82267 
L 194.021171 168.817155 
L 194.299128 149.82538 
L 194.577086 177.544328 
L 194.855044 170.015445 
L 195.133001 180.099174 
L 195.410959 164.883144 
L 195.688917 134.383258 
L 195.966874 146.501819 
L 196.244832 131.715365 
L 196.52279 155.635959 
L 196.800747 156.924686 
L 197.078705 152.787192 
L 197.356663 155.319429 
L 197.63462 124.231702 
L 197.912578 130.04228 
L 198.190535 153.261987 
L 198.468493 149.011446 
L 198.746451 141.550392 
L 199.302366 159.818671 
L 199.580324 159.298658 
L 199.858281 159.615188 
L 200.136239 154.708979 
L 200.414197 165.154455 
L 200.692154 149.418413 
L 200.970112 152.09761 
L 201.24807 169.201512 
L 201.526027 158.959519 
L 201.803985 153.397642 
L 202.081943 183.513171 
L 202.637858 161.876113 
L 202.915816 172.00506 
L 203.193773 158.484725 
L 203.471731 168.95281 
L 203.749689 165.866647 
L 204.027646 180.370485 
L 204.305604 170.49024 
L 204.583562 169.020638 
L 205.139477 159.298658 
L 205.417435 161.67263 
L 205.695392 175.102528 
L 205.97335 158.416897 
L 206.251308 170.354584 
L 206.529265 147.70011 
L 206.807223 186.848037 
L 207.363138 157.399481 
L 207.641096 144.986999 
L 207.919054 170.467631 
L 208.197011 163.142232 
L 208.474969 179.579161 
L 208.752927 167.098851 
L 209.030884 181.43312 
L 209.308842 136.531137 
L 209.5868 162.870921 
L 209.864757 175.147747 
L 210.142715 170.445021 
L 210.69863 182.427927 
L 210.976588 182.834894 
L 211.254545 146.241813 
L 211.532503 149.373195 
L 211.810461 159.705625 
L 212.088418 142.680855 
L 212.366376 147.247924 
L 212.644334 156.178581 
L 213.200249 121.021187 
L 213.478207 130.223155 
L 213.756164 144.738297 
L 214.034122 145.936588 
L 214.31208 174.152939 
L 214.590037 149.531459 
L 214.867995 165.990998 
L 215.145953 160.971743 
L 215.42391 153.14894 
L 215.701868 158.801254 
L 215.979826 125.316946 
L 216.257783 156.472501 
L 216.535741 154.98029 
L 216.813699 169.427605 
L 217.369614 124.548231 
L 217.647572 136.237217 
L 217.925529 156.110753 
L 218.203487 163.277887 
L 218.481445 145.936588 
L 218.759402 180.167002 
L 219.03736 159.366486 
L 219.315318 173.271178 
L 219.593275 169.427605 
L 219.871233 153.962874 
L 220.149191 157.71601 
L 220.705106 120.704658 
L 220.983064 143.223477 
L 221.261021 141.143425 
L 221.538979 133.70498 
L 221.816936 115.368873 
L 222.094894 121.722074 
L 222.372852 97.801481 
L 222.650809 119.076791 
L 222.928767 112.678372 
L 223.206725 125.294337 
L 223.76264 178.539135 
L 224.040598 179.669598 
L 224.318555 140.510366 
L 224.874471 174.537297 
L 225.152428 168.771936 
L 225.430386 120.410737 
L 225.708344 165.855342 
L 225.986301 158.145586 
L 226.264259 173.768582 
L 226.542217 174.107721 
L 226.820174 161.039571 
L 227.098132 154.68637 
L 227.37609 160.089982 
L 227.654047 168.387579 
L 227.932005 150.1193 
L 228.209963 181.681822 
L 228.48792 167.573646 
L 228.765878 203.499754 
L 229.321793 169.992836 
L 229.599751 179.782644 
L 229.877709 168.500625 
L 230.433624 133.524106 
L 230.711582 163.164841 
L 230.989539 167.958003 
L 231.267497 159.931717 
L 231.545455 183.55839 
L 232.10137 126.854375 
L 232.379328 123.598642 
L 232.657285 127.103077 
L 232.935243 116.725429 
L 233.2132 121.405545 
L 233.491158 102.413769 
L 234.047073 167.528427 
L 234.325031 172.118106 
L 234.602989 127.532653 
L 234.880946 122.287306 
L 235.158904 162.305689 
L 235.436862 163.843119 
L 235.714819 157.399481 
L 235.992777 165.764905 
L 236.270735 151.837603 
L 236.548692 109.0835 
L 236.82665 123.553424 
L 237.104608 131.489273 
L 237.382565 149.734943 
L 237.660523 159.615188 
L 238.216438 118.986354 
L 238.494396 122.581226 
L 238.772354 116.906303 
L 239.050311 127.487435 
L 239.328269 158.371679 
L 239.606227 129.657923 
L 239.884184 154.143748 
L 240.162142 144.919171 
L 240.4401 141.753875 
L 240.718057 129.183129 
L 240.996015 146.569647 
L 241.273973 123.598642 
L 241.829888 163.594417 
L 242.107846 150.910624 
L 242.385803 146.16268 
L 242.663761 106.483435 
L 243.219676 171.439829 
L 243.497634 142.793901 
L 243.775592 149.034056 
L 244.053549 151.385418 
L 244.331507 140.442538 
L 244.609465 142.613027 
L 244.887422 143.404351 
L 245.16538 149.373195 
L 245.443337 139.673824 
L 245.721295 160.813478 
L 245.999253 146.456601 
L 246.555168 129.951843 
L 246.833126 133.004093 
L 247.111083 153.115026 
L 247.389041 143.13304 
L 247.666999 146.185289 
L 247.944956 150.481048 
L 248.222914 137.34507 
L 248.500872 148.220122 
L 248.778829 145.620058 
L 249.056787 140.736459 
L 249.334745 157.829056 
L 249.612702 166.126653 
L 249.89066 130.132717 
L 250.446575 138.339878 
L 250.724533 165.109237 
L 251.002491 154.392449 
L 251.280448 154.437668 
L 251.558406 140.148618 
L 251.836364 141.030379 
L 252.114321 172.276371 
L 252.392279 164.860535 
L 252.670237 148.514043 
L 252.948194 165.448376 
L 253.226152 164.046602 
L 253.50411 173.203351 
L 253.782067 186.61064 
L 254.060025 184.417542 
L 254.337983 148.061858 
L 254.61594 142.138233 
L 254.893898 145.484402 
L 255.171856 142.52259 
L 255.449813 131.127525 
L 255.727771 139.289466 
L 256.005729 84.778549 
L 256.561644 174.559906 
L 257.117559 127.103077 
L 257.673474 179.60177 
L 257.951432 179.533942 
L 258.22939 149.667115 
L 258.507347 141.61822 
L 258.785305 165.493594 
L 259.063263 151.04628 
L 259.34122 162.102206 
L 259.619178 152.515881 
L 259.897136 178.561744 
L 260.175093 158.439506 
L 260.453051 156.675984 
L 260.731009 160.15781 
L 261.008966 169.834571 
L 261.286924 171.620703 
L 261.564882 156.540329 
L 261.842839 149.915817 
L 262.398755 163.775291 
L 262.676712 154.279403 
L 262.95467 159.049956 
L 263.232628 155.862051 
L 263.510585 158.778645 
L 264.066501 177.860857 
L 264.344458 186.384547 
L 264.622416 189.866372 
L 264.900374 189.459406 
L 265.178331 161.876113 
L 265.456289 161.627411 
L 265.734247 174.537297 
L 266.012204 153.035894 
L 266.290162 157.964712 
L 266.56812 168.613672 
L 266.846077 156.766421 
L 267.124035 172.072888 
L 267.401993 159.208221 
L 267.67995 130.720558 
L 267.957908 145.009608 
L 268.235866 143.313914 
L 268.513823 170.399803 
L 269.069738 162.486563 
L 269.347696 168.003222 
L 269.625654 156.856858 
L 269.903611 132.461471 
L 270.181569 134.903271 
L 270.737484 151.430637 
L 271.015442 157.557745 
L 271.2934 168.003222 
L 271.571357 157.512527 
L 271.849315 135.287628 
L 272.127273 158.801254 
L 272.40523 169.87979 
L 272.683188 170.331975 
L 272.961146 183.761873 
L 273.239103 179.386982 
L 273.517061 144.96439 
L 273.795019 175.260793 
L 274.072976 170.19632 
L 274.350934 152.922848 
L 274.628892 167.031024 
L 274.906849 150.43583 
L 275.184807 175.871243 
L 275.462765 160.949134 
L 275.740722 158.122977 
L 276.296638 168.319751 
L 276.574595 182.066179 
L 276.852553 163.707463 
L 277.130511 186.339329 
L 277.408468 178.606963 
L 277.686426 153.126331 
L 277.964384 146.637475 
L 278.242341 179.963518 
L 278.520299 170.942425 
L 278.798257 175.848634 
L 279.076214 184.869727 
L 279.63213 178.222606 
L 279.910087 164.046602 
L 280.188045 167.392772 
L 280.466002 163.639635 
L 280.74396 168.003222 
L 281.021918 167.505818 
L 281.299875 115.414092 
L 281.577833 173.813801 
L 281.855791 152.809802 
L 282.133748 150.774968 
L 282.411706 173.83641 
L 282.689664 173.158132 
L 282.967621 171.236345 
L 283.245579 157.670792 
L 283.523537 154.279403 
L 283.801494 174.265986 
L 284.079452 173.632926 
L 284.35741 174.605125 
L 284.635367 179.60177 
L 284.913325 160.609995 
L 285.191283 173.587708 
L 285.46924 150.096691 
L 285.747198 153.533298 
L 286.025156 176.933878 
L 286.303113 162.983967 
L 286.581071 157.286434 
L 286.859029 184.191449 
L 287.136986 164.023993 
L 287.414944 172.547682 
L 287.692902 143.788708 
L 287.970859 174.107721 
L 288.248817 178.742618 
L 288.526775 150.684531 
L 288.804732 162.667437 
L 289.08269 151.769776 
L 289.360648 150.933233 
L 289.638605 173.248569 
L 289.916563 183.55839 
L 290.750436 138.701626 
L 291.028394 130.67534 
L 291.306351 157.241216 
L 291.584309 163.277887 
L 291.862267 148.016639 
L 292.418182 186.791514 
L 292.696139 182.563583 
L 292.974097 155.500303 
L 293.252055 155.613349 
L 293.530012 181.862696 
L 293.80797 168.003222 
L 294.085928 176.2556 
L 294.363885 171.055471 
L 294.641843 161.695239 
L 294.919801 173.112914 
L 295.475716 166.081435 
L 295.753674 154.754198 
L 296.031631 153.895046 
L 296.309589 160.700432 
L 296.587547 159.728234 
L 296.865504 159.321267 
L 297.143462 179.240022 
L 297.42142 147.6775 
L 297.699377 177.499109 
L 297.977335 158.654294 
L 298.255293 159.343877 
L 298.53325 159.049956 
L 298.811208 184.485369 
L 299.089166 155.138555 
L 299.367123 179.420896 
L 299.645081 174.808608 
L 299.923039 156.732507 
L 300.200996 166.804931 
L 300.478954 160.858697 
L 300.756912 170.309366 
L 301.034869 155.070727 
L 301.312827 154.460277 
L 301.868742 164.747489 
L 302.1467 138.159003 
L 302.424658 180.867888 
L 302.702615 176.232991 
L 302.980573 163.097013 
L 303.258531 155.342038 
L 303.536488 158.213414 
L 303.814446 163.277887 
L 304.092403 174.627734 
L 304.370361 166.262309 
L 304.648319 164.70227 
L 304.926276 141.686047 
L 305.204234 136.12417 
L 306.038107 168.138877 
L 306.316065 164.566615 
L 306.594022 143.562616 
L 306.87198 171.937232 
L 307.149938 152.086305 
L 307.427895 160.383902 
L 307.705853 173.723364 
L 307.983811 159.976936 
L 308.261768 168.930201 
L 308.539726 168.116268 
L 308.817684 128.889208 
L 309.095641 153.442861 
L 309.373599 155.794223 
L 309.651557 153.047199 
L 309.929514 160.406512 
L 310.207472 151.430637 
L 310.48543 153.849827 
L 310.763387 145.393965 
L 311.041345 149.644506 
L 311.319303 148.785354 
L 311.59726 141.753875 
L 311.875218 138.950327 
L 312.153176 163.368324 
L 312.431133 160.203028 
L 312.709091 175.373839 
L 312.987049 156.81164 
L 313.265006 177.838248 
L 313.542964 155.975097 
L 313.820922 177.092143 
L 314.098879 175.826024 
L 314.376837 179.873081 
L 314.654795 180.664405 
L 314.932752 170.987644 
L 315.21071 183.015768 
L 315.766625 167.844957 
L 316.044583 168.297142 
L 316.32254 157.173388 
L 316.600498 162.983967 
L 316.878456 146.501819 
L 317.156413 168.636281 
L 317.434371 147.360971 
L 317.712329 152.877629 
L 317.990286 180.167002 
L 318.268244 139.583387 
L 318.546202 173.112914 
L 318.824159 135.061535 
L 319.102117 161.650021 
L 319.380075 159.389095 
L 319.658032 139.085983 
L 319.93599 176.074726 
L 320.491905 145.337442 
L 320.769863 146.987918 
L 321.047821 168.455407 
L 321.325778 174.085112 
L 321.603736 166.940587 
L 321.881694 147.451408 
L 322.159651 177.340845 
L 322.437609 169.902399 
L 322.715567 157.037732 
L 322.993524 166.963196 
L 323.271482 169.857181 
L 323.54944 174.921654 
L 323.827397 166.578839 
L 324.105355 184.033184 
L 324.383313 148.807963 
L 324.66127 154.211575 
L 324.939228 152.425444 
L 325.217186 170.716332 
L 325.495143 150.865405 
L 325.773101 158.258632 
L 326.051059 144.014801 
L 326.329016 182.857503 
L 326.606974 153.14894 
L 326.884932 143.811318 
L 327.162889 155.387257 
L 327.440847 159.569969 
L 327.718804 99.293692 
L 327.996762 129.974453 
L 328.27472 127.713527 
L 328.552677 159.095175 
L 328.830635 163.978774 
L 329.108593 173.587708 
L 329.38655 171.417219 
L 329.664508 160.044763 
L 329.942466 164.837926 
L 330.220423 126.854375 
L 330.498381 148.491434 
L 330.776339 155.658568 
L 331.054296 158.236023 
L 331.332254 162.237861 
L 331.610212 169.133685 
L 331.888169 158.168195 
L 332.166127 158.077758 
L 332.444085 159.524751 
L 333 175.577323 
L 333.277958 169.811962 
L 333.555915 158.93691 
L 333.833873 138.045957 
L 334.389788 157.693401 
L 334.667746 159.773452 
L 334.945704 149.689724 
L 335.223661 146.705302 
L 335.501619 154.505496 
L 335.779577 140.239055 
L 336.057534 134.360648 
L 336.335492 147.406189 
L 336.61345 168.138877 
L 336.891407 156.178581 
L 337.169365 152.53849 
L 337.447323 166.872759 
L 337.72528 175.012091 
L 338.003238 136.485919 
L 338.281196 147.745328 
L 338.559153 149.327976 
L 338.837111 140.306883 
L 339.115068 154.302012 
L 339.393026 155.545522 
L 339.670984 160.564776 
L 339.948941 153.352424 
L 340.226899 159.117784 
L 340.504857 173.994675 
L 340.782814 154.776807 
L 341.060772 166.646666 
L 341.33873 168.432798 
L 341.616687 98.231057 
L 341.894645 133.026702 
L 342.45056 164.770098 
L 342.728518 156.49511 
L 343.006476 140.713849 
L 343.284433 154.347231 
L 343.562391 128.504851 
L 343.840349 136.418091 
L 344.118306 162.418735 
L 344.396264 153.013285 
L 344.674222 148.491434 
L 344.952179 148.333169 
L 345.230137 163.097013 
L 345.508095 157.625573 
L 345.786052 124.955198 
L 346.06401 141.211253 
L 346.341968 147.519236 
L 346.619925 166.804931 
L 346.897883 158.823864 
L 347.175841 167.415381 
L 347.453798 139.187725 
L 347.731756 161.763067 
L 348.009714 172.90943 
L 348.565629 154.889853 
L 348.843587 143.223477 
L 349.121544 151.114107 
L 349.399502 128.866599 
L 349.67746 124.638668 
L 349.955417 170.015445 
L 350.511333 151.679339 
L 350.78929 159.976936 
L 351.345205 137.865083 
L 351.623163 155.635959 
L 351.901121 145.009608 
L 352.179078 165.154455 
L 352.457036 156.449892 
L 353.012951 152.018478 
L 353.290909 166.669276 
L 353.568867 143.178258 
L 353.846824 146.004415 
L 354.124782 152.380226 
L 354.40274 143.901755 
L 354.958655 165.041409 
L 355.236613 131.715365 
L 355.51457 113.786225 
L 355.792528 114.984516 
L 356.070486 118.488951 
L 356.348443 150.028863 
L 356.626401 106.099078 
L 357.182316 140.736459 
L 357.460274 96.716237 
L 357.738232 95.382291 
L 358.016189 109.739168 
L 358.294147 133.433669 
L 358.572105 114.803642 
L 358.850062 103.792934 
L 359.12802 131.602319 
L 359.405978 124.88737 
L 359.683935 144.060019 
L 359.961893 125.429992 
L 360.239851 123.689079 
L 360.517808 121.066406 
L 360.795766 166.963196 
L 361.073724 158.416897 
L 361.351681 169.450214 
L 361.629639 170.885902 
L 361.907597 170.919816 
L 362.185554 171.530266 
L 362.463512 183.038377 
L 362.741469 170.241538 
L 363.019427 148.785354 
L 363.297385 145.145264 
L 363.8533 150.390611 
L 364.131258 159.976936 
L 364.409215 179.692207 
L 364.687173 158.055149 
L 364.965131 126.650892 
L 365.243088 139.719042 
L 365.521046 165.177065 
L 365.799004 170.331975 
L 366.076961 169.314559 
L 366.354919 152.063696 
L 366.632877 166.895368 
L 367.188792 121.111624 
L 367.46675 156.223799 
L 367.744707 153.284596 
L 368.022665 151.882822 
L 368.300623 159.909108 
L 368.57858 143.449569 
L 368.856538 164.521396 
L 369.134496 102.911173 
L 369.412453 142.251279 
L 369.690411 162.181338 
L 369.968369 151.837603 
L 370.246326 152.493272 
L 370.524284 161.559584 
L 370.802242 164.973581 
L 371.080199 161.130008 
L 371.358157 143.879145 
L 371.636115 136.056343 
L 371.914072 156.449892 
L 372.19203 149.079274 
L 372.469988 165.493594 
L 372.747945 140.419929 
L 373.025903 137.299852 
L 373.303861 150.074081 
L 373.581818 154.595933 
L 373.581818 154.595933 
" style="fill:none;stroke:#000000;stroke-linecap:square;stroke-width:1.5;"/>
   </g>
   <g id="patch_3">
    <path d="M 54 252 
L 54 34.56 
" style="fill:none;stroke:#000000;stroke-linecap:square;stroke-linejoin:miter;stroke-width:0.8;"/>
   </g>
   <g id="patch_4">
    <path d="M 388.8 252 
L 388.8 34.56 
" style="fill:none;stroke:#000000;stroke-linecap:square;stroke-linejoin:miter;stroke-width:0.8;"/>
   </g>
   <g id="patch_5">
    <path d="M 54 252 
L 388.8 252 
" style="fill:none;stroke:#000000;stroke-linecap:square;stroke-linejoin:miter;stroke-width:0.8;"/>
   </g>
   <g id="patch_6">
    <path d="M 54 34.56 
L 388.8 34.56 
" style="fill:none;stroke:#000000;stroke-linecap:square;stroke-linejoin:miter;stroke-width:0.8;"/>
   </g>
   <g id="text_16">
    <!-- Soma Diária de Energia - Casa 14 -->
    <g transform="translate(120.413438 28.56)scale(0.12 -0.12)">
     <defs>
      <path d="M 53.515625 70.515625 
L 53.515625 60.890625 
Q 47.90625 63.578125 42.921875 64.890625 
Q 37.9375 66.21875 33.296875 66.21875 
Q 25.25 66.21875 20.875 63.09375 
Q 16.5 59.96875 16.5 54.203125 
Q 16.5 49.359375 19.40625 46.890625 
Q 22.3125 44.4375 30.421875 42.921875 
L 36.375 41.703125 
Q 47.40625 39.59375 52.65625 34.296875 
Q 57.90625 29 57.90625 20.125 
Q 57.90625 9.515625 50.796875 4.046875 
Q 43.703125 -1.421875 29.984375 -1.421875 
Q 24.8125 -1.421875 18.96875 -0.25 
Q 13.140625 0.921875 6.890625 3.21875 
L 6.890625 13.375 
Q 12.890625 10.015625 18.65625 8.296875 
Q 24.421875 6.59375 29.984375 6.59375 
Q 38.421875 6.59375 43.015625 9.90625 
Q 47.609375 13.234375 47.609375 19.390625 
Q 47.609375 24.75 44.3125 27.78125 
Q 41.015625 30.8125 33.5 32.328125 
L 27.484375 33.5 
Q 16.453125 35.6875 11.515625 40.375 
Q 6.59375 45.0625 6.59375 53.421875 
Q 6.59375 63.09375 13.40625 68.65625 
Q 20.21875 74.21875 32.171875 74.21875 
Q 37.3125 74.21875 42.625 73.28125 
Q 47.953125 72.359375 53.515625 70.515625 
z
" id="DejaVuSans-83"/>
      <path d="M 30.609375 48.390625 
Q 23.390625 48.390625 19.1875 42.75 
Q 14.984375 37.109375 14.984375 27.296875 
Q 14.984375 17.484375 19.15625 11.84375 
Q 23.34375 6.203125 30.609375 6.203125 
Q 37.796875 6.203125 41.984375 11.859375 
Q 46.1875 17.53125 46.1875 27.296875 
Q 46.1875 37.015625 41.984375 42.703125 
Q 37.796875 48.390625 30.609375 48.390625 
z
M 30.609375 56 
Q 42.328125 56 49.015625 48.375 
Q 55.71875 40.765625 55.71875 27.296875 
Q 55.71875 13.875 49.015625 6.21875 
Q 42.328125 -1.421875 30.609375 -1.421875 
Q 18.84375 -1.421875 12.171875 6.21875 
Q 5.515625 13.875 5.515625 27.296875 
Q 5.515625 40.765625 12.171875 48.375 
Q 18.84375 56 30.609375 56 
z
" id="DejaVuSans-111"/>
      <path d="M 52 44.1875 
Q 55.375 50.25 60.0625 53.125 
Q 64.75 56 71.09375 56 
Q 79.640625 56 84.28125 50.015625 
Q 88.921875 44.046875 88.921875 33.015625 
L 88.921875 0 
L 79.890625 0 
L 79.890625 32.71875 
Q 79.890625 40.578125 77.09375 44.375 
Q 74.3125 48.1875 68.609375 48.1875 
Q 61.625 48.1875 57.5625 43.546875 
Q 53.515625 38.921875 53.515625 30.90625 
L 53.515625 0 
L 44.484375 0 
L 44.484375 32.71875 
Q 44.484375 40.625 41.703125 44.40625 
Q 38.921875 48.1875 33.109375 48.1875 
Q 26.21875 48.1875 22.15625 43.53125 
Q 18.109375 38.875 18.109375 30.90625 
L 18.109375 0 
L 9.078125 0 
L 9.078125 54.6875 
L 18.109375 54.6875 
L 18.109375 46.1875 
Q 21.1875 51.21875 25.484375 53.609375 
Q 29.78125 56 35.6875 56 
Q 41.65625 56 45.828125 52.96875 
Q 50 49.953125 52 44.1875 
z
" id="DejaVuSans-109"/>
      <path d="M 34.28125 27.484375 
Q 23.390625 27.484375 19.1875 25 
Q 14.984375 22.515625 14.984375 16.5 
Q 14.984375 11.71875 18.140625 8.90625 
Q 21.296875 6.109375 26.703125 6.109375 
Q 34.1875 6.109375 38.703125 11.40625 
Q 43.21875 16.703125 43.21875 25.484375 
L 43.21875 27.484375 
z
M 52.203125 31.203125 
L 52.203125 0 
L 43.21875 0 
L 43.21875 8.296875 
Q 40.140625 3.328125 35.546875 0.953125 
Q 30.953125 -1.421875 24.3125 -1.421875 
Q 15.921875 -1.421875 10.953125 3.296875 
Q 6 8.015625 6 15.921875 
Q 6 25.140625 12.171875 29.828125 
Q 18.359375 34.515625 30.609375 34.515625 
L 43.21875 34.515625 
L 43.21875 35.40625 
Q 43.21875 41.609375 39.140625 45 
Q 35.0625 48.390625 27.6875 48.390625 
Q 23 48.390625 18.546875 47.265625 
Q 14.109375 46.140625 10.015625 43.890625 
L 10.015625 52.203125 
Q 14.9375 54.109375 19.578125 55.046875 
Q 24.21875 56 28.609375 56 
Q 40.484375 56 46.34375 49.84375 
Q 52.203125 43.703125 52.203125 31.203125 
z
" id="DejaVuSans-97"/>
      <path id="DejaVuSans-32"/>
      <path d="M 19.671875 64.796875 
L 19.671875 8.109375 
L 31.59375 8.109375 
Q 46.6875 8.109375 53.6875 14.9375 
Q 60.6875 21.78125 60.6875 36.53125 
Q 60.6875 51.171875 53.6875 57.984375 
Q 46.6875 64.796875 31.59375 64.796875 
z
M 9.8125 72.90625 
L 30.078125 72.90625 
Q 51.265625 72.90625 61.171875 64.09375 
Q 71.09375 55.28125 71.09375 36.53125 
Q 71.09375 17.671875 61.125 8.828125 
Q 51.171875 0 30.078125 0 
L 9.8125 0 
z
" id="DejaVuSans-68"/>
      <path d="M 9.421875 54.6875 
L 18.40625 54.6875 
L 18.40625 0 
L 9.421875 0 
z
M 9.421875 75.984375 
L 18.40625 75.984375 
L 18.40625 64.59375 
L 9.421875 64.59375 
z
" id="DejaVuSans-105"/>
      <path d="M 34.28125 27.484375 
Q 23.390625 27.484375 19.1875 25 
Q 14.984375 22.515625 14.984375 16.5 
Q 14.984375 11.71875 18.140625 8.90625 
Q 21.296875 6.109375 26.703125 6.109375 
Q 34.1875 6.109375 38.703125 11.40625 
Q 43.21875 16.703125 43.21875 25.484375 
L 43.21875 27.484375 
z
M 52.203125 31.203125 
L 52.203125 0 
L 43.21875 0 
L 43.21875 8.296875 
Q 40.140625 3.328125 35.546875 0.953125 
Q 30.953125 -1.421875 24.3125 -1.421875 
Q 15.921875 -1.421875 10.953125 3.296875 
Q 6 8.015625 6 15.921875 
Q 6 25.140625 12.171875 29.828125 
Q 18.359375 34.515625 30.609375 34.515625 
L 43.21875 34.515625 
L 43.21875 35.40625 
Q 43.21875 41.609375 39.140625 45 
Q 35.0625 48.390625 27.6875 48.390625 
Q 23 48.390625 18.546875 47.265625 
Q 14.109375 46.140625 10.015625 43.890625 
L 10.015625 52.203125 
Q 14.9375 54.109375 19.578125 55.046875 
Q 24.21875 56 28.609375 56 
Q 40.484375 56 46.34375 49.84375 
Q 52.203125 43.703125 52.203125 31.203125 
z
M 35.796875 79.984375 
L 45.515625 79.984375 
L 29.59375 61.625 
L 22.125 61.625 
z
" id="DejaVuSans-225"/>
      <path d="M 41.109375 46.296875 
Q 39.59375 47.171875 37.8125 47.578125 
Q 36.03125 48 33.890625 48 
Q 26.265625 48 22.1875 43.046875 
Q 18.109375 38.09375 18.109375 28.8125 
L 18.109375 0 
L 9.078125 0 
L 9.078125 54.6875 
L 18.109375 54.6875 
L 18.109375 46.1875 
Q 20.953125 51.171875 25.484375 53.578125 
Q 30.03125 56 36.53125 56 
Q 37.453125 56 38.578125 55.875 
Q 39.703125 55.765625 41.0625 55.515625 
z
" id="DejaVuSans-114"/>
      <path d="M 45.40625 46.390625 
L 45.40625 75.984375 
L 54.390625 75.984375 
L 54.390625 0 
L 45.40625 0 
L 45.40625 8.203125 
Q 42.578125 3.328125 38.25 0.953125 
Q 33.9375 -1.421875 27.875 -1.421875 
Q 17.96875 -1.421875 11.734375 6.484375 
Q 5.515625 14.40625 5.515625 27.296875 
Q 5.515625 40.1875 11.734375 48.09375 
Q 17.96875 56 27.875 56 
Q 33.9375 56 38.25 53.625 
Q 42.578125 51.265625 45.40625 46.390625 
z
M 14.796875 27.296875 
Q 14.796875 17.390625 18.875 11.75 
Q 22.953125 6.109375 30.078125 6.109375 
Q 37.203125 6.109375 41.296875 11.75 
Q 45.40625 17.390625 45.40625 27.296875 
Q 45.40625 37.203125 41.296875 42.84375 
Q 37.203125 48.484375 30.078125 48.484375 
Q 22.953125 48.484375 18.875 42.84375 
Q 14.796875 37.203125 14.796875 27.296875 
z
" id="DejaVuSans-100"/>
      <path d="M 56.203125 29.59375 
L 56.203125 25.203125 
L 14.890625 25.203125 
Q 15.484375 15.921875 20.484375 11.0625 
Q 25.484375 6.203125 34.421875 6.203125 
Q 39.59375 6.203125 44.453125 7.46875 
Q 49.3125 8.734375 54.109375 11.28125 
L 54.109375 2.78125 
Q 49.265625 0.734375 44.1875 -0.34375 
Q 39.109375 -1.421875 33.890625 -1.421875 
Q 20.796875 -1.421875 13.15625 6.1875 
Q 5.515625 13.8125 5.515625 26.8125 
Q 5.515625 40.234375 12.765625 48.109375 
Q 20.015625 56 32.328125 56 
Q 43.359375 56 49.78125 48.890625 
Q 56.203125 41.796875 56.203125 29.59375 
z
M 47.21875 32.234375 
Q 47.125 39.59375 43.09375 43.984375 
Q 39.0625 48.390625 32.421875 48.390625 
Q 24.90625 48.390625 20.390625 44.140625 
Q 15.875 39.890625 15.1875 32.171875 
z
" id="DejaVuSans-101"/>
      <path d="M 9.8125 72.90625 
L 55.90625 72.90625 
L 55.90625 64.59375 
L 19.671875 64.59375 
L 19.671875 43.015625 
L 54.390625 43.015625 
L 54.390625 34.71875 
L 19.671875 34.71875 
L 19.671875 8.296875 
L 56.78125 8.296875 
L 56.78125 0 
L 9.8125 0 
z
" id="DejaVuSans-69"/>
      <path d="M 54.890625 33.015625 
L 54.890625 0 
L 45.90625 0 
L 45.90625 32.71875 
Q 45.90625 40.484375 42.875 44.328125 
Q 39.84375 48.1875 33.796875 48.1875 
Q 26.515625 48.1875 22.3125 43.546875 
Q 18.109375 38.921875 18.109375 30.90625 
L 18.109375 0 
L 9.078125 0 
L 9.078125 54.6875 
L 18.109375 54.6875 
L 18.109375 46.1875 
Q 21.34375 51.125 25.703125 53.5625 
Q 30.078125 56 35.796875 56 
Q 45.21875 56 50.046875 50.171875 
Q 54.890625 44.34375 54.890625 33.015625 
z
" id="DejaVuSans-110"/>
      <path d="M 45.40625 27.984375 
Q 45.40625 37.75 41.375 43.109375 
Q 37.359375 48.484375 30.078125 48.484375 
Q 22.859375 48.484375 18.828125 43.109375 
Q 14.796875 37.75 14.796875 27.984375 
Q 14.796875 18.265625 18.828125 12.890625 
Q 22.859375 7.515625 30.078125 7.515625 
Q 37.359375 7.515625 41.375 12.890625 
Q 45.40625 18.265625 45.40625 27.984375 
z
M 54.390625 6.78125 
Q 54.390625 -7.171875 48.1875 -13.984375 
Q 42 -20.796875 29.203125 -20.796875 
Q 24.46875 -20.796875 20.265625 -20.09375 
Q 16.0625 -19.390625 12.109375 -17.921875 
L 12.109375 -9.1875 
Q 16.0625 -11.328125 19.921875 -12.34375 
Q 23.78125 -13.375 27.78125 -13.375 
Q 36.625 -13.375 41.015625 -8.765625 
Q 45.40625 -4.15625 45.40625 5.171875 
L 45.40625 9.625 
Q 42.625 4.78125 38.28125 2.390625 
Q 33.9375 0 27.875 0 
Q 17.828125 0 11.671875 7.65625 
Q 5.515625 15.328125 5.515625 27.984375 
Q 5.515625 40.671875 11.671875 48.328125 
Q 17.828125 56 27.875 56 
Q 33.9375 56 38.28125 53.609375 
Q 42.625 51.21875 45.40625 46.390625 
L 45.40625 54.6875 
L 54.390625 54.6875 
z
" id="DejaVuSans-103"/>
      <path d="M 64.40625 67.28125 
L 64.40625 56.890625 
Q 59.421875 61.53125 53.78125 63.8125 
Q 48.140625 66.109375 41.796875 66.109375 
Q 29.296875 66.109375 22.65625 58.46875 
Q 16.015625 50.828125 16.015625 36.375 
Q 16.015625 21.96875 22.65625 14.328125 
Q 29.296875 6.6875 41.796875 6.6875 
Q 48.140625 6.6875 53.78125 8.984375 
Q 59.421875 11.28125 64.40625 15.921875 
L 64.40625 5.609375 
Q 59.234375 2.09375 53.4375 0.328125 
Q 47.65625 -1.421875 41.21875 -1.421875 
Q 24.65625 -1.421875 15.125 8.703125 
Q 5.609375 18.84375 5.609375 36.375 
Q 5.609375 53.953125 15.125 64.078125 
Q 24.65625 74.21875 41.21875 74.21875 
Q 47.75 74.21875 53.53125 72.484375 
Q 59.328125 70.75 64.40625 67.28125 
z
" id="DejaVuSans-67"/>
      <path d="M 44.28125 53.078125 
L 44.28125 44.578125 
Q 40.484375 46.53125 36.375 47.5 
Q 32.28125 48.484375 27.875 48.484375 
Q 21.1875 48.484375 17.84375 46.4375 
Q 14.5 44.390625 14.5 40.28125 
Q 14.5 37.15625 16.890625 35.375 
Q 19.28125 33.59375 26.515625 31.984375 
L 29.59375 31.296875 
Q 39.15625 29.25 43.1875 25.515625 
Q 47.21875 21.78125 47.21875 15.09375 
Q 47.21875 7.46875 41.1875 3.015625 
Q 35.15625 -1.421875 24.609375 -1.421875 
Q 20.21875 -1.421875 15.453125 -0.5625 
Q 10.6875 0.296875 5.421875 2 
L 5.421875 11.28125 
Q 10.40625 8.6875 15.234375 7.390625 
Q 20.0625 6.109375 24.8125 6.109375 
Q 31.15625 6.109375 34.5625 8.28125 
Q 37.984375 10.453125 37.984375 14.40625 
Q 37.984375 18.0625 35.515625 20.015625 
Q 33.0625 21.96875 24.703125 23.78125 
L 21.578125 24.515625 
Q 13.234375 26.265625 9.515625 29.90625 
Q 5.8125 33.546875 5.8125 39.890625 
Q 5.8125 47.609375 11.28125 51.796875 
Q 16.75 56 26.8125 56 
Q 31.78125 56 36.171875 55.265625 
Q 40.578125 54.546875 44.28125 53.078125 
z
" id="DejaVuSans-115"/>
     </defs>
     <use xlink:href="#DejaVuSans-83"/>
     <use x="63.476562" xlink:href="#DejaVuSans-111"/>
     <use x="124.658203" xlink:href="#DejaVuSans-109"/>
     <use x="222.070312" xlink:href="#DejaVuSans-97"/>
     <use x="283.349609" xlink:href="#DejaVuSans-32"/>
     <use x="315.136719" xlink:href="#DejaVuSans-68"/>
     <use x="392.138672" xlink:href="#DejaVuSans-105"/>
     <use x="419.921875" xlink:href="#DejaVuSans-225"/>
     <use x="481.201172" xlink:href="#DejaVuSans-114"/>
     <use x="522.314453" xlink:href="#DejaVuSans-105"/>
     <use x="550.097656" xlink:href="#DejaVuSans-97"/>
     <use x="611.376953" xlink:href="#DejaVuSans-32"/>
     <use x="643.164062" xlink:href="#DejaVuSans-100"/>
     <use x="706.640625" xlink:href="#DejaVuSans-101"/>
     <use x="768.164062" xlink:href="#DejaVuSans-32"/>
     <use x="799.951172" xlink:href="#DejaVuSans-69"/>
     <use x="863.134766" xlink:href="#DejaVuSans-110"/>
     <use x="926.513672" xlink:href="#DejaVuSans-101"/>
     <use x="988.037109" xlink:href="#DejaVuSans-114"/>
     <use x="1027.400391" xlink:href="#DejaVuSans-103"/>
     <use x="1090.876953" xlink:href="#DejaVuSans-105"/>
     <use x="1118.660156" xlink:href="#DejaVuSans-97"/>
     <use x="1179.939453" xlink:href="#DejaVuSans-32"/>
     <use x="1211.726562" xlink:href="#DejaVuSans-45"/>
     <use x="1247.810547" xlink:href="#DejaVuSans-32"/>
     <use x="1279.597656" xlink:href="#DejaVuSans-67"/>
     <use x="1349.421875" xlink:href="#DejaVuSans-97"/>
     <use x="1410.701172" xlink:href="#DejaVuSans-115"/>
     <use x="1462.800781" xlink:href="#DejaVuSans-97"/>
     <use x="1524.080078" xlink:href="#DejaVuSans-32"/>
     <use x="1555.867188" xlink:href="#DejaVuSans-49"/>
     <use x="1619.490234" xlink:href="#DejaVuSans-52"/>
    </g>
   </g>
  </g>
 </g>
 <defs>
  <clipPath id="p8ba8e2d2fe">
   <rect height="217.44" width="334.8" x="54" y="34.56"/>
  </clipPath>
 </defs>
</svg>
