<?xml version="1.0" encoding="utf-8" standalone="no"?>
<!DOCTYPE svg PUBLIC "-//W3C//DTD SVG 1.1//EN"
  "http://www.w3.org/Graphics/SVG/1.1/DTD/svg11.dtd">
<!-- Created with matplotlib (https://matplotlib.org/) -->
<svg height="288pt" version="1.1" viewBox="0 0 432 288" width="432pt" xmlns="http://www.w3.org/2000/svg" xmlns:xlink="http://www.w3.org/1999/xlink">
 <metadata>
  <rdf:RDF xmlns:cc="http://creativecommons.org/ns#" xmlns:dc="http://purl.org/dc/elements/1.1/" xmlns:rdf="http://www.w3.org/1999/02/22-rdf-syntax-ns#">
   <cc:Work>
    <dc:type rdf:resource="http://purl.org/dc/dcmitype/StillImage"/>
    <dc:date>2021-07-21T14:57:44.247092</dc:date>
    <dc:format>image/svg+xml</dc:format>
    <dc:creator>
     <cc:Agent>
      <dc:title>Matplotlib v3.3.4, https://matplotlib.org/</dc:title>
     </cc:Agent>
    </dc:creator>
   </cc:Work>
  </rdf:RDF>
 </metadata>
 <defs>
  <style type="text/css">*{stroke-linecap:butt;stroke-linejoin:round;}</style>
 </defs>
 <g id="figure_1">
  <g id="patch_1">
   <path d="M 0 288 
L 432 288 
L 432 0 
L 0 0 
z
" style="fill:#ffffff;"/>
  </g>
  <g id="axes_1">
   <g id="patch_2">
    <path d="M 54 252 
L 388.8 252 
L 388.8 34.56 
L 54 34.56 
z
" style="fill:#ffffff;"/>
   </g>
   <g id="matplotlib.axis_1">
    <g id="xtick_1">
     <g id="line2d_1">
      <defs>
       <path d="M 0 0 
L 0 3.5 
" id="m198c189616" style="stroke:#000000;stroke-width:0.8;"/>
      </defs>
      <g>
       <use style="stroke:#000000;stroke-width:0.8;" x="61.15741" xlink:href="#m198c189616" y="252"/>
      </g>
     </g>
     <g id="text_1">
      <!-- 2015-01 -->
      <g transform="translate(48.336127 293.917817)rotate(-45)scale(0.1 -0.1)">
       <defs>
        <path d="M 19.1875 8.296875 
L 53.609375 8.296875 
L 53.609375 0 
L 7.328125 0 
L 7.328125 8.296875 
Q 12.9375 14.109375 22.625 23.890625 
Q 32.328125 33.6875 34.8125 36.53125 
Q 39.546875 41.84375 41.421875 45.53125 
Q 43.3125 49.21875 43.3125 52.78125 
Q 43.3125 58.59375 39.234375 62.25 
Q 35.15625 65.921875 28.609375 65.921875 
Q 23.96875 65.921875 18.8125 64.3125 
Q 13.671875 62.703125 7.8125 59.421875 
L 7.8125 69.390625 
Q 13.765625 71.78125 18.9375 73 
Q 24.125 74.21875 28.421875 74.21875 
Q 39.75 74.21875 46.484375 68.546875 
Q 53.21875 62.890625 53.21875 53.421875 
Q 53.21875 48.921875 51.53125 44.890625 
Q 49.859375 40.875 45.40625 35.40625 
Q 44.1875 33.984375 37.640625 27.21875 
Q 31.109375 20.453125 19.1875 8.296875 
z
" id="DejaVuSans-50"/>
        <path d="M 31.78125 66.40625 
Q 24.171875 66.40625 20.328125 58.90625 
Q 16.5 51.421875 16.5 36.375 
Q 16.5 21.390625 20.328125 13.890625 
Q 24.171875 6.390625 31.78125 6.390625 
Q 39.453125 6.390625 43.28125 13.890625 
Q 47.125 21.390625 47.125 36.375 
Q 47.125 51.421875 43.28125 58.90625 
Q 39.453125 66.40625 31.78125 66.40625 
z
M 31.78125 74.21875 
Q 44.046875 74.21875 50.515625 64.515625 
Q 56.984375 54.828125 56.984375 36.375 
Q 56.984375 17.96875 50.515625 8.265625 
Q 44.046875 -1.421875 31.78125 -1.421875 
Q 19.53125 -1.421875 13.0625 8.265625 
Q 6.59375 17.96875 6.59375 36.375 
Q 6.59375 54.828125 13.0625 64.515625 
Q 19.53125 74.21875 31.78125 74.21875 
z
" id="DejaVuSans-48"/>
        <path d="M 12.40625 8.296875 
L 28.515625 8.296875 
L 28.515625 63.921875 
L 10.984375 60.40625 
L 10.984375 69.390625 
L 28.421875 72.90625 
L 38.28125 72.90625 
L 38.28125 8.296875 
L 54.390625 8.296875 
L 54.390625 0 
L 12.40625 0 
z
" id="DejaVuSans-49"/>
        <path d="M 10.796875 72.90625 
L 49.515625 72.90625 
L 49.515625 64.59375 
L 19.828125 64.59375 
L 19.828125 46.734375 
Q 21.96875 47.46875 24.109375 47.828125 
Q 26.265625 48.1875 28.421875 48.1875 
Q 40.625 48.1875 47.75 41.5 
Q 54.890625 34.8125 54.890625 23.390625 
Q 54.890625 11.625 47.5625 5.09375 
Q 40.234375 -1.421875 26.90625 -1.421875 
Q 22.3125 -1.421875 17.546875 -0.640625 
Q 12.796875 0.140625 7.71875 1.703125 
L 7.71875 11.625 
Q 12.109375 9.234375 16.796875 8.0625 
Q 21.484375 6.890625 26.703125 6.890625 
Q 35.15625 6.890625 40.078125 11.328125 
Q 45.015625 15.765625 45.015625 23.390625 
Q 45.015625 31 40.078125 35.4375 
Q 35.15625 39.890625 26.703125 39.890625 
Q 22.75 39.890625 18.8125 39.015625 
Q 14.890625 38.140625 10.796875 36.28125 
z
" id="DejaVuSans-53"/>
        <path d="M 4.890625 31.390625 
L 31.203125 31.390625 
L 31.203125 23.390625 
L 4.890625 23.390625 
z
" id="DejaVuSans-45"/>
       </defs>
       <use xlink:href="#DejaVuSans-50"/>
       <use x="63.623047" xlink:href="#DejaVuSans-48"/>
       <use x="127.246094" xlink:href="#DejaVuSans-49"/>
       <use x="190.869141" xlink:href="#DejaVuSans-53"/>
       <use x="254.492188" xlink:href="#DejaVuSans-45"/>
       <use x="290.576172" xlink:href="#DejaVuSans-48"/>
       <use x="354.199219" xlink:href="#DejaVuSans-49"/>
      </g>
     </g>
    </g>
    <g id="xtick_2">
     <g id="line2d_2">
      <g>
       <use style="stroke:#000000;stroke-width:0.8;" x="94.512329" xlink:href="#m198c189616" y="252"/>
      </g>
     </g>
     <g id="text_2">
      <!-- 2015-05 -->
      <g transform="translate(81.691047 293.917817)rotate(-45)scale(0.1 -0.1)">
       <use xlink:href="#DejaVuSans-50"/>
       <use x="63.623047" xlink:href="#DejaVuSans-48"/>
       <use x="127.246094" xlink:href="#DejaVuSans-49"/>
       <use x="190.869141" xlink:href="#DejaVuSans-53"/>
       <use x="254.492188" xlink:href="#DejaVuSans-45"/>
       <use x="290.576172" xlink:href="#DejaVuSans-48"/>
       <use x="354.199219" xlink:href="#DejaVuSans-53"/>
      </g>
     </g>
    </g>
    <g id="xtick_3">
     <g id="line2d_3">
      <g>
       <use style="stroke:#000000;stroke-width:0.8;" x="128.701121" xlink:href="#m198c189616" y="252"/>
      </g>
     </g>
     <g id="text_3">
      <!-- 2015-09 -->
      <g transform="translate(115.879839 293.917817)rotate(-45)scale(0.1 -0.1)">
       <defs>
        <path d="M 10.984375 1.515625 
L 10.984375 10.5 
Q 14.703125 8.734375 18.5 7.8125 
Q 22.3125 6.890625 25.984375 6.890625 
Q 35.75 6.890625 40.890625 13.453125 
Q 46.046875 20.015625 46.78125 33.40625 
Q 43.953125 29.203125 39.59375 26.953125 
Q 35.25 24.703125 29.984375 24.703125 
Q 19.046875 24.703125 12.671875 31.3125 
Q 6.296875 37.9375 6.296875 49.421875 
Q 6.296875 60.640625 12.9375 67.421875 
Q 19.578125 74.21875 30.609375 74.21875 
Q 43.265625 74.21875 49.921875 64.515625 
Q 56.59375 54.828125 56.59375 36.375 
Q 56.59375 19.140625 48.40625 8.859375 
Q 40.234375 -1.421875 26.421875 -1.421875 
Q 22.703125 -1.421875 18.890625 -0.6875 
Q 15.09375 0.046875 10.984375 1.515625 
z
M 30.609375 32.421875 
Q 37.25 32.421875 41.125 36.953125 
Q 45.015625 41.5 45.015625 49.421875 
Q 45.015625 57.28125 41.125 61.84375 
Q 37.25 66.40625 30.609375 66.40625 
Q 23.96875 66.40625 20.09375 61.84375 
Q 16.21875 57.28125 16.21875 49.421875 
Q 16.21875 41.5 20.09375 36.953125 
Q 23.96875 32.421875 30.609375 32.421875 
z
" id="DejaVuSans-57"/>
       </defs>
       <use xlink:href="#DejaVuSans-50"/>
       <use x="63.623047" xlink:href="#DejaVuSans-48"/>
       <use x="127.246094" xlink:href="#DejaVuSans-49"/>
       <use x="190.869141" xlink:href="#DejaVuSans-53"/>
       <use x="254.492188" xlink:href="#DejaVuSans-45"/>
       <use x="290.576172" xlink:href="#DejaVuSans-48"/>
       <use x="354.199219" xlink:href="#DejaVuSans-57"/>
      </g>
     </g>
    </g>
    <g id="xtick_4">
     <g id="line2d_4">
      <g>
       <use style="stroke:#000000;stroke-width:0.8;" x="162.611955" xlink:href="#m198c189616" y="252"/>
      </g>
     </g>
     <g id="text_4">
      <!-- 2016-01 -->
      <g transform="translate(149.790673 293.917817)rotate(-45)scale(0.1 -0.1)">
       <defs>
        <path d="M 33.015625 40.375 
Q 26.375 40.375 22.484375 35.828125 
Q 18.609375 31.296875 18.609375 23.390625 
Q 18.609375 15.53125 22.484375 10.953125 
Q 26.375 6.390625 33.015625 6.390625 
Q 39.65625 6.390625 43.53125 10.953125 
Q 47.40625 15.53125 47.40625 23.390625 
Q 47.40625 31.296875 43.53125 35.828125 
Q 39.65625 40.375 33.015625 40.375 
z
M 52.59375 71.296875 
L 52.59375 62.3125 
Q 48.875 64.0625 45.09375 64.984375 
Q 41.3125 65.921875 37.59375 65.921875 
Q 27.828125 65.921875 22.671875 59.328125 
Q 17.53125 52.734375 16.796875 39.40625 
Q 19.671875 43.65625 24.015625 45.921875 
Q 28.375 48.1875 33.59375 48.1875 
Q 44.578125 48.1875 50.953125 41.515625 
Q 57.328125 34.859375 57.328125 23.390625 
Q 57.328125 12.15625 50.6875 5.359375 
Q 44.046875 -1.421875 33.015625 -1.421875 
Q 20.359375 -1.421875 13.671875 8.265625 
Q 6.984375 17.96875 6.984375 36.375 
Q 6.984375 53.65625 15.1875 63.9375 
Q 23.390625 74.21875 37.203125 74.21875 
Q 40.921875 74.21875 44.703125 73.484375 
Q 48.484375 72.75 52.59375 71.296875 
z
" id="DejaVuSans-54"/>
       </defs>
       <use xlink:href="#DejaVuSans-50"/>
       <use x="63.623047" xlink:href="#DejaVuSans-48"/>
       <use x="127.246094" xlink:href="#DejaVuSans-49"/>
       <use x="190.869141" xlink:href="#DejaVuSans-54"/>
       <use x="254.492188" xlink:href="#DejaVuSans-45"/>
       <use x="290.576172" xlink:href="#DejaVuSans-48"/>
       <use x="354.199219" xlink:href="#DejaVuSans-49"/>
      </g>
     </g>
    </g>
    <g id="xtick_5">
     <g id="line2d_5">
      <g>
       <use style="stroke:#000000;stroke-width:0.8;" x="196.244832" xlink:href="#m198c189616" y="252"/>
      </g>
     </g>
     <g id="text_5">
      <!-- 2016-05 -->
      <g transform="translate(183.42355 293.917817)rotate(-45)scale(0.1 -0.1)">
       <use xlink:href="#DejaVuSans-50"/>
       <use x="63.623047" xlink:href="#DejaVuSans-48"/>
       <use x="127.246094" xlink:href="#DejaVuSans-49"/>
       <use x="190.869141" xlink:href="#DejaVuSans-54"/>
       <use x="254.492188" xlink:href="#DejaVuSans-45"/>
       <use x="290.576172" xlink:href="#DejaVuSans-48"/>
       <use x="354.199219" xlink:href="#DejaVuSans-53"/>
      </g>
     </g>
    </g>
    <g id="xtick_6">
     <g id="line2d_6">
      <g>
       <use style="stroke:#000000;stroke-width:0.8;" x="230.433624" xlink:href="#m198c189616" y="252"/>
      </g>
     </g>
     <g id="text_6">
      <!-- 2016-09 -->
      <g transform="translate(217.612342 293.917817)rotate(-45)scale(0.1 -0.1)">
       <use xlink:href="#DejaVuSans-50"/>
       <use x="63.623047" xlink:href="#DejaVuSans-48"/>
       <use x="127.246094" xlink:href="#DejaVuSans-49"/>
       <use x="190.869141" xlink:href="#DejaVuSans-54"/>
       <use x="254.492188" xlink:href="#DejaVuSans-45"/>
       <use x="290.576172" xlink:href="#DejaVuSans-48"/>
       <use x="354.199219" xlink:href="#DejaVuSans-57"/>
      </g>
     </g>
    </g>
    <g id="xtick_7">
     <g id="line2d_7">
      <g>
       <use style="stroke:#000000;stroke-width:0.8;" x="264.344458" xlink:href="#m198c189616" y="252"/>
      </g>
     </g>
     <g id="text_7">
      <!-- 2017-01 -->
      <g transform="translate(251.523176 293.917817)rotate(-45)scale(0.1 -0.1)">
       <defs>
        <path d="M 8.203125 72.90625 
L 55.078125 72.90625 
L 55.078125 68.703125 
L 28.609375 0 
L 18.3125 0 
L 43.21875 64.59375 
L 8.203125 64.59375 
z
" id="DejaVuSans-55"/>
       </defs>
       <use xlink:href="#DejaVuSans-50"/>
       <use x="63.623047" xlink:href="#DejaVuSans-48"/>
       <use x="127.246094" xlink:href="#DejaVuSans-49"/>
       <use x="190.869141" xlink:href="#DejaVuSans-55"/>
       <use x="254.492188" xlink:href="#DejaVuSans-45"/>
       <use x="290.576172" xlink:href="#DejaVuSans-48"/>
       <use x="354.199219" xlink:href="#DejaVuSans-49"/>
      </g>
     </g>
    </g>
    <g id="xtick_8">
     <g id="line2d_8">
      <g>
       <use style="stroke:#000000;stroke-width:0.8;" x="297.699377" xlink:href="#m198c189616" y="252"/>
      </g>
     </g>
     <g id="text_8">
      <!-- 2017-05 -->
      <g transform="translate(284.878095 293.917817)rotate(-45)scale(0.1 -0.1)">
       <use xlink:href="#DejaVuSans-50"/>
       <use x="63.623047" xlink:href="#DejaVuSans-48"/>
       <use x="127.246094" xlink:href="#DejaVuSans-49"/>
       <use x="190.869141" xlink:href="#DejaVuSans-55"/>
       <use x="254.492188" xlink:href="#DejaVuSans-45"/>
       <use x="290.576172" xlink:href="#DejaVuSans-48"/>
       <use x="354.199219" xlink:href="#DejaVuSans-53"/>
      </g>
     </g>
    </g>
    <g id="xtick_9">
     <g id="line2d_9">
      <g>
       <use style="stroke:#000000;stroke-width:0.8;" x="331.888169" xlink:href="#m198c189616" y="252"/>
      </g>
     </g>
     <g id="text_9">
      <!-- 2017-09 -->
      <g transform="translate(319.066887 293.917817)rotate(-45)scale(0.1 -0.1)">
       <use xlink:href="#DejaVuSans-50"/>
       <use x="63.623047" xlink:href="#DejaVuSans-48"/>
       <use x="127.246094" xlink:href="#DejaVuSans-49"/>
       <use x="190.869141" xlink:href="#DejaVuSans-55"/>
       <use x="254.492188" xlink:href="#DejaVuSans-45"/>
       <use x="290.576172" xlink:href="#DejaVuSans-48"/>
       <use x="354.199219" xlink:href="#DejaVuSans-57"/>
      </g>
     </g>
    </g>
    <g id="xtick_10">
     <g id="line2d_10">
      <g>
       <use style="stroke:#000000;stroke-width:0.8;" x="365.799004" xlink:href="#m198c189616" y="252"/>
      </g>
     </g>
     <g id="text_10">
      <!-- 2018-01 -->
      <g transform="translate(352.977721 293.917817)rotate(-45)scale(0.1 -0.1)">
       <defs>
        <path d="M 31.78125 34.625 
Q 24.75 34.625 20.71875 30.859375 
Q 16.703125 27.09375 16.703125 20.515625 
Q 16.703125 13.921875 20.71875 10.15625 
Q 24.75 6.390625 31.78125 6.390625 
Q 38.8125 6.390625 42.859375 10.171875 
Q 46.921875 13.96875 46.921875 20.515625 
Q 46.921875 27.09375 42.890625 30.859375 
Q 38.875 34.625 31.78125 34.625 
z
M 21.921875 38.8125 
Q 15.578125 40.375 12.03125 44.71875 
Q 8.5 49.078125 8.5 55.328125 
Q 8.5 64.0625 14.71875 69.140625 
Q 20.953125 74.21875 31.78125 74.21875 
Q 42.671875 74.21875 48.875 69.140625 
Q 55.078125 64.0625 55.078125 55.328125 
Q 55.078125 49.078125 51.53125 44.71875 
Q 48 40.375 41.703125 38.8125 
Q 48.828125 37.15625 52.796875 32.3125 
Q 56.78125 27.484375 56.78125 20.515625 
Q 56.78125 9.90625 50.3125 4.234375 
Q 43.84375 -1.421875 31.78125 -1.421875 
Q 19.734375 -1.421875 13.25 4.234375 
Q 6.78125 9.90625 6.78125 20.515625 
Q 6.78125 27.484375 10.78125 32.3125 
Q 14.796875 37.15625 21.921875 38.8125 
z
M 18.3125 54.390625 
Q 18.3125 48.734375 21.84375 45.5625 
Q 25.390625 42.390625 31.78125 42.390625 
Q 38.140625 42.390625 41.71875 45.5625 
Q 45.3125 48.734375 45.3125 54.390625 
Q 45.3125 60.0625 41.71875 63.234375 
Q 38.140625 66.40625 31.78125 66.40625 
Q 25.390625 66.40625 21.84375 63.234375 
Q 18.3125 60.0625 18.3125 54.390625 
z
" id="DejaVuSans-56"/>
       </defs>
       <use xlink:href="#DejaVuSans-50"/>
       <use x="63.623047" xlink:href="#DejaVuSans-48"/>
       <use x="127.246094" xlink:href="#DejaVuSans-49"/>
       <use x="190.869141" xlink:href="#DejaVuSans-56"/>
       <use x="254.492188" xlink:href="#DejaVuSans-45"/>
       <use x="290.576172" xlink:href="#DejaVuSans-48"/>
       <use x="354.199219" xlink:href="#DejaVuSans-49"/>
      </g>
     </g>
    </g>
   </g>
   <g id="matplotlib.axis_2">
    <g id="ytick_1">
     <g id="line2d_11">
      <defs>
       <path d="M 0 0 
L -3.5 0 
" id="m27b80bf6ab" style="stroke:#000000;stroke-width:0.8;"/>
      </defs>
      <g>
       <use style="stroke:#000000;stroke-width:0.8;" x="54" xlink:href="#m27b80bf6ab" y="242.116364"/>
      </g>
     </g>
     <g id="text_11">
      <!-- 0 -->
      <g transform="translate(40.6375 245.915582)scale(0.1 -0.1)">
       <use xlink:href="#DejaVuSans-48"/>
      </g>
     </g>
    </g>
    <g id="ytick_2">
     <g id="line2d_12">
      <g>
       <use style="stroke:#000000;stroke-width:0.8;" x="54" xlink:href="#m27b80bf6ab" y="211.23"/>
      </g>
     </g>
     <g id="text_12">
      <!-- 10 -->
      <g transform="translate(34.275 215.029219)scale(0.1 -0.1)">
       <use xlink:href="#DejaVuSans-49"/>
       <use x="63.623047" xlink:href="#DejaVuSans-48"/>
      </g>
     </g>
    </g>
    <g id="ytick_3">
     <g id="line2d_13">
      <g>
       <use style="stroke:#000000;stroke-width:0.8;" x="54" xlink:href="#m27b80bf6ab" y="180.343636"/>
      </g>
     </g>
     <g id="text_13">
      <!-- 20 -->
      <g transform="translate(34.275 184.142855)scale(0.1 -0.1)">
       <use xlink:href="#DejaVuSans-50"/>
       <use x="63.623047" xlink:href="#DejaVuSans-48"/>
      </g>
     </g>
    </g>
    <g id="ytick_4">
     <g id="line2d_14">
      <g>
       <use style="stroke:#000000;stroke-width:0.8;" x="54" xlink:href="#m27b80bf6ab" y="149.457273"/>
      </g>
     </g>
     <g id="text_14">
      <!-- 30 -->
      <g transform="translate(34.275 153.256491)scale(0.1 -0.1)">
       <defs>
        <path d="M 40.578125 39.3125 
Q 47.65625 37.796875 51.625 33 
Q 55.609375 28.21875 55.609375 21.1875 
Q 55.609375 10.40625 48.1875 4.484375 
Q 40.765625 -1.421875 27.09375 -1.421875 
Q 22.515625 -1.421875 17.65625 -0.515625 
Q 12.796875 0.390625 7.625 2.203125 
L 7.625 11.71875 
Q 11.71875 9.328125 16.59375 8.109375 
Q 21.484375 6.890625 26.8125 6.890625 
Q 36.078125 6.890625 40.9375 10.546875 
Q 45.796875 14.203125 45.796875 21.1875 
Q 45.796875 27.640625 41.28125 31.265625 
Q 36.765625 34.90625 28.71875 34.90625 
L 20.21875 34.90625 
L 20.21875 43.015625 
L 29.109375 43.015625 
Q 36.375 43.015625 40.234375 45.921875 
Q 44.09375 48.828125 44.09375 54.296875 
Q 44.09375 59.90625 40.109375 62.90625 
Q 36.140625 65.921875 28.71875 65.921875 
Q 24.65625 65.921875 20.015625 65.03125 
Q 15.375 64.15625 9.8125 62.3125 
L 9.8125 71.09375 
Q 15.4375 72.65625 20.34375 73.4375 
Q 25.25 74.21875 29.59375 74.21875 
Q 40.828125 74.21875 47.359375 69.109375 
Q 53.90625 64.015625 53.90625 55.328125 
Q 53.90625 49.265625 50.4375 45.09375 
Q 46.96875 40.921875 40.578125 39.3125 
z
" id="DejaVuSans-51"/>
       </defs>
       <use xlink:href="#DejaVuSans-51"/>
       <use x="63.623047" xlink:href="#DejaVuSans-48"/>
      </g>
     </g>
    </g>
    <g id="ytick_5">
     <g id="line2d_15">
      <g>
       <use style="stroke:#000000;stroke-width:0.8;" x="54" xlink:href="#m27b80bf6ab" y="118.570909"/>
      </g>
     </g>
     <g id="text_15">
      <!-- 40 -->
      <g transform="translate(34.275 122.370128)scale(0.1 -0.1)">
       <defs>
        <path d="M 37.796875 64.3125 
L 12.890625 25.390625 
L 37.796875 25.390625 
z
M 35.203125 72.90625 
L 47.609375 72.90625 
L 47.609375 25.390625 
L 58.015625 25.390625 
L 58.015625 17.1875 
L 47.609375 17.1875 
L 47.609375 0 
L 37.796875 0 
L 37.796875 17.1875 
L 4.890625 17.1875 
L 4.890625 26.703125 
z
" id="DejaVuSans-52"/>
       </defs>
       <use xlink:href="#DejaVuSans-52"/>
       <use x="63.623047" xlink:href="#DejaVuSans-48"/>
      </g>
     </g>
    </g>
    <g id="ytick_6">
     <g id="line2d_16">
      <g>
       <use style="stroke:#000000;stroke-width:0.8;" x="54" xlink:href="#m27b80bf6ab" y="87.684545"/>
      </g>
     </g>
     <g id="text_16">
      <!-- 50 -->
      <g transform="translate(34.275 91.483764)scale(0.1 -0.1)">
       <use xlink:href="#DejaVuSans-53"/>
       <use x="63.623047" xlink:href="#DejaVuSans-48"/>
      </g>
     </g>
    </g>
    <g id="ytick_7">
     <g id="line2d_17">
      <g>
       <use style="stroke:#000000;stroke-width:0.8;" x="54" xlink:href="#m27b80bf6ab" y="56.798182"/>
      </g>
     </g>
     <g id="text_17">
      <!-- 60 -->
      <g transform="translate(34.275 60.597401)scale(0.1 -0.1)">
       <use xlink:href="#DejaVuSans-54"/>
       <use x="63.623047" xlink:href="#DejaVuSans-48"/>
      </g>
     </g>
    </g>
   </g>
   <g id="line2d_18">
    <path clip-path="url(#p00e92f8d6d)" d="M 69.218182 176.081318 
L 69.496139 175.247386 
L 69.774097 156.82367 
L 70.052055 162.491318 
L 70.330012 173.22433 
L 70.60797 151.866409 
L 70.885928 170.552659 
L 71.163885 147.048136 
L 71.441843 170.398227 
L 71.719801 163.232591 
L 71.997758 184.822159 
L 72.553674 165.085773 
L 72.831631 187.10775 
L 73.109589 174.722318 
L 73.387547 202.242068 
L 73.665504 174.598773 
L 73.943462 186.026727 
L 74.22142 180.930477 
L 74.499377 165.827045 
L 74.777335 174.506114 
L 75.055293 199.215205 
L 75.33325 164.622477 
L 75.611208 151.588432 
L 75.889166 159.402682 
L 76.167123 188.188773 
L 76.445081 190.968545 
L 77.278954 172.344068 
L 77.556912 186.026727 
L 77.834869 192.173114 
L 78.112827 186.212045 
L 78.390785 165.147545 
L 78.668742 169.749614 
L 78.9467 168.359727 
L 79.224658 182.505682 
L 79.502615 166.938955 
L 79.780573 183.463159 
L 80.058531 182.876318 
L 80.336488 169.564295 
L 80.614446 181.115795 
L 80.892403 173.764841 
L 81.170361 185.934068 
L 81.448319 156.900886 
L 81.726276 193.810091 
L 82.282192 138.554386 
L 82.560149 172.83825 
L 82.838107 171.47925 
L 83.116065 166.120466 
L 83.394022 172.313182 
L 83.67198 190.721455 
L 83.949938 193.717432 
L 84.227895 177.780068 
L 84.505853 184.667727 
L 84.783811 186.242932 
L 85.061768 184.698614 
L 85.339726 159.711545 
L 85.617684 183.3705 
L 85.895641 169.409864 
L 86.173599 182.567455 
L 86.451557 188.374091 
L 86.729514 183.494045 
L 87.007472 175.494477 
L 87.28543 161.750045 
L 87.563387 168.545045 
L 87.841345 190.319932 
L 88.119303 188.096114 
L 88.39726 189.053591 
L 88.675218 193.346795 
L 88.953176 184.266205 
L 89.231133 136.917409 
L 89.509091 182.845432 
L 89.787049 165.672614 
L 90.065006 191.956909 
L 90.620922 179.602364 
L 91.176837 188.528523 
L 91.454795 189.980182 
L 91.732752 174.166364 
L 92.01071 181.980614 
L 92.288667 182.968977 
L 92.566625 153.565159 
L 92.844583 180.127432 
L 93.12254 174.567886 
L 93.400498 192.667295 
L 93.678456 199.462295 
L 93.956413 191.246523 
L 94.234371 199.925591 
L 94.512329 214.689273 
L 94.790286 172.405841 
L 95.068244 177.718295 
L 95.624159 200.790409 
L 95.902117 193.007045 
L 96.180075 195.725045 
L 96.458032 192.358432 
L 96.73599 174.784091 
L 97.013948 182.135045 
L 97.291905 178.490455 
L 97.569863 182.598341 
L 97.847821 184.127216 
L 98.125778 181.887955 
L 98.403736 188.682955 
L 98.681694 179.077295 
L 98.959651 184.034557 
L 99.237609 166.506545 
L 99.515567 179.911227 
L 99.793524 173.239773 
L 100.071482 193.315909 
L 100.34944 182.691 
L 100.627397 150.198545 
L 100.905355 135.898159 
L 101.183313 184.482409 
L 101.46127 181.239341 
L 101.739228 197.114932 
L 102.017186 182.073273 
L 102.295143 178.675773 
L 102.573101 187.478386 
L 102.851059 216.635114 
L 103.406974 201.099273 
L 103.684932 214.195091 
L 103.962889 216.820432 
L 104.240847 208.604659 
L 104.518804 189.578659 
L 104.796762 216.943977 
L 105.07472 210.982909 
L 105.352677 211.137341 
L 105.630635 215.801182 
L 105.908593 208.110477 
L 106.18655 216.079159 
L 106.464508 201.0375 
L 106.742466 171.788114 
L 107.020423 189.516886 
L 107.298381 193.285023 
L 107.576339 206.504386 
L 107.854296 202.05675 
L 108.132254 207.153 
L 108.410212 200.666864 
L 108.688169 202.643591 
L 108.966127 215.399659 
L 109.244085 192.821727 
L 109.522042 199.153432 
L 109.8 195.817705 
L 110.077958 197.516455 
L 110.355915 205.732227 
L 110.633873 207.770727 
L 110.911831 192.636409 
L 111.189788 194.2425 
L 111.467746 203.045114 
L 111.745704 200.203568 
L 112.023661 204.589432 
L 112.301619 199.276977 
L 112.579577 203.539295 
L 112.857534 201.964091 
L 113.135492 210.952023 
L 113.41345 211.291773 
L 113.691407 212.897864 
L 113.969365 213.330273 
L 114.247323 201.809659 
L 114.52528 210.148977 
L 114.803238 210.087205 
L 115.081196 215.832068 
L 115.359153 189.609545 
L 115.637111 220.681227 
L 115.915068 225.561273 
L 116.193026 225.684818 
L 116.470984 221.407057 
L 116.748941 197.64 
L 117.304857 189.208023 
L 117.582814 193.439455 
L 117.860772 187.323955 
L 118.13873 214.411295 
L 118.416687 179.973 
L 118.694645 198.226841 
L 118.972603 208.820864 
L 119.25056 193.192364 
L 119.528518 202.643591 
L 119.806476 196.744295 
L 120.084433 186.644455 
L 120.362391 212.033045 
L 120.640349 189.671318 
L 120.918306 200.574205 
L 121.196264 191.092091 
L 121.474222 209.994545 
L 121.752179 194.273386 
L 122.030137 202.303841 
L 122.586052 195.879477 
L 122.86401 205.670455 
L 123.141968 199.431409 
L 123.419925 198.504818 
L 123.697883 175.741568 
L 124.253798 203.570182 
L 124.531756 189.238909 
L 124.809714 207.925159 
L 125.087671 207.49275 
L 125.365629 208.203136 
L 125.643587 211.291773 
L 125.921544 210.797591 
L 126.199502 183.988227 
L 126.47746 188.219659 
L 126.755417 200.883068 
L 127.033375 174.135477 
L 127.311333 180.683386 
L 127.58929 198.999 
L 127.867248 184.853045 
L 128.145205 187.293068 
L 128.701121 183.71025 
L 128.979078 187.076864 
L 129.257036 203.724614 
L 129.534994 196.558977 
L 129.812951 194.922 
L 130.090909 204.187909 
L 130.368867 193.22325 
L 130.646824 198.072409 
L 130.924782 193.563 
L 131.20274 199.493182 
L 131.480697 200.481545 
L 131.758655 202.242068 
L 132.036613 169.687841 
L 132.31457 186.551795 
L 132.592528 191.771591 
L 132.870486 199.802045 
L 133.148443 201.531682 
L 133.426401 206.4735 
L 133.704359 200.512432 
L 133.982316 182.876318 
L 134.260274 175.648909 
L 134.538232 186.0885 
L 134.816189 170.614432 
L 135.094147 195.107318 
L 135.372105 201.500795 
L 135.650062 215.523205 
L 135.92802 169.317205 
L 136.205978 180.281864 
L 136.483935 183.555818 
L 136.761893 191.462727 
L 137.039851 164.776909 
L 137.317808 197.97975 
L 137.595766 201.855989 
L 137.873724 184.544182 
L 138.151681 194.149841 
L 138.429639 154.677068 
L 138.707597 164.220955 
L 138.985554 183.432273 
L 139.263512 191.941466 
L 139.541469 169.44075 
L 139.819427 133.0875 
L 140.375342 205.330705 
L 140.6533 166.475659 
L 140.931258 180.096545 
L 141.209215 173.301545 
L 141.487173 191.956909 
L 141.765131 153.565159 
L 142.043088 192.852614 
L 142.321046 169.749614 
L 142.599004 196.713409 
L 142.876961 207.369205 
L 143.154919 197.053159 
L 143.432877 157.920136 
L 143.710834 154.429977 
L 143.988792 161.935364 
L 144.26675 187.879909 
L 144.544707 160.174841 
L 144.822665 165.36375 
L 145.100623 189.887523 
L 145.656538 132.408 
L 145.934496 167.958205 
L 146.212453 159.279136 
L 146.490411 128.67075 
L 146.768369 154.862386 
L 147.046326 152.607682 
L 147.324284 145.009636 
L 147.880199 193.686545 
L 148.158157 181.733523 
L 148.714072 125.118818 
L 148.99203 158.476091 
L 149.269988 158.506977 
L 149.547945 114.864545 
L 149.825903 137.50425 
L 150.103861 136.793864 
L 150.381818 171.417477 
L 150.659776 114.463023 
L 150.937733 137.226273 
L 151.215691 114.40125 
L 151.493649 148.654227 
L 152.049564 165.827045 
L 152.327522 142.044545 
L 152.605479 144.824318 
L 152.883437 136.021705 
L 153.161395 137.1645 
L 153.439352 125.026159 
L 153.71731 138.770591 
L 153.995268 108.903477 
L 154.273225 137.813114 
L 154.551183 122.524364 
L 154.829141 163.556898 
L 155.107098 85.090091 
L 155.385056 156.592023 
L 155.663014 86.479977 
L 155.940971 146.461295 
L 156.218929 141.643023 
L 156.496887 115.4205 
L 156.774844 140.129591 
L 157.052802 105.876614 
L 157.33076 129.473795 
L 157.608717 132.871295 
L 157.886675 116.625068 
L 158.164633 144.824318 
L 158.44259 135.403977 
L 158.720548 150.229432 
L 158.998506 134.817136 
L 159.276463 107.884227 
L 159.554421 127.219091 
L 159.832379 129.937091 
L 160.110336 136.948295 
L 160.388294 60.998727 
L 160.666252 114.339477 
L 160.944209 76.658114 
L 161.222167 147.634977 
L 161.500125 162.676636 
L 161.778082 143.310886 
L 162.05604 142.94025 
L 162.333998 186.520909 
L 162.611955 81.352841 
L 162.889913 92.441045 
L 163.16787 44.443636 
L 163.445828 129.319364 
L 163.723786 114.277705 
L 164.279701 217.994114 
L 164.557659 217.376386 
L 165.669489 188.621182 
L 165.947447 189.547773 
L 166.225405 185.532545 
L 166.503362 200.821295 
L 166.78132 175.865114 
L 167.059278 172.745591 
L 167.337235 148.438023 
L 167.893151 191.308295 
L 168.171108 147.264341 
L 168.449066 168.977455 
L 168.727024 172.405841 
L 169.004981 189.980182 
L 169.282939 186.150273 
L 169.560897 155.016818 
L 169.838854 175.834227 
L 170.116812 186.397364 
L 170.39477 156.097841 
L 170.672727 156.066955 
L 170.950685 142.507841 
L 171.228643 185.347227 
L 171.784558 164.962227 
L 172.062516 185.532545 
L 172.340473 169.378977 
L 172.618431 189.208023 
L 172.896389 168.76125 
L 173.174346 188.250545 
L 173.452304 145.503818 
L 173.730262 180.868705 
L 174.008219 170.79975 
L 174.286177 205.732227 
L 174.564134 164.220955 
L 174.842092 191.617159 
L 175.12005 153.935795 
L 175.398007 184.575068 
L 175.675965 190.412591 
L 175.953923 182.845432 
L 176.23188 202.73625 
L 176.509838 190.628795 
L 176.787796 157.920136 
L 177.065753 141.148841 
L 177.343711 169.811386 
L 177.621669 165.271091 
L 177.899626 176.853477 
L 178.177584 168.730364 
L 178.733499 172.622045 
L 179.011457 242.116364 
L 179.289415 169.656955 
L 179.567372 193.624773 
L 179.84533 195.230864 
L 180.123288 211.044682 
L 180.401245 214.040659 
L 180.679203 180.899591 
L 180.957161 130.02975 
L 181.235118 152.978318 
L 181.513076 153.781364 
L 181.791034 172.930909 
L 182.068991 182.814545 
L 182.346949 149.210182 
L 182.902864 205.855773 
L 183.180822 186.119386 
L 183.45878 200.759523 
L 183.736737 204.033477 
L 184.014695 182.938091 
L 184.292653 211.199114 
L 184.57061 148.129159 
L 184.848568 187.138636 
L 185.126526 183.185182 
L 185.404483 191.493614 
L 185.682441 159.433568 
L 185.960399 189.856636 
L 186.238356 180.343636 
L 186.516314 181.424659 
L 186.794271 192.265773 
L 187.072229 176.328409 
L 187.350187 202.118523 
L 187.628144 205.979318 
L 187.906102 207.060341 
L 188.18406 194.489591 
L 188.462017 205.392477 
L 188.739975 202.890682 
L 189.017933 174.135477 
L 189.573848 205.608682 
L 189.851806 177.841841 
L 190.129763 170.398227 
L 190.407721 176.019545 
L 190.685679 189.733091 
L 191.241594 164.838682 
L 191.797509 212.774318 
L 192.075467 183.339614 
L 192.353425 193.068818 
L 192.631382 209.685682 
L 192.90934 198.782795 
L 193.187298 194.922 
L 193.465255 206.010205 
L 193.743213 204.558545 
L 194.021171 188.744727 
L 194.299128 201.964091 
L 194.577086 207.801614 
L 194.855044 194.180727 
L 195.133001 191.740705 
L 195.410959 208.759091 
L 195.688917 190.845 
L 195.966874 205.021841 
L 196.244832 200.605091 
L 196.52279 212.187477 
L 196.800747 197.238477 
L 197.078705 198.628364 
L 197.356663 213.144955 
L 197.63462 183.154295 
L 197.912578 200.388886 
L 198.190535 205.794 
L 198.468493 202.334727 
L 198.746451 212.372795 
L 199.024408 204.805636 
L 199.302366 222.966818 
L 199.580324 221.978455 
L 199.858281 200.388886 
L 200.136239 208.759091 
L 200.414197 203.384864 
L 200.692154 214.596614 
L 200.970112 213.114068 
L 201.24807 201.0375 
L 201.526027 215.368773 
L 201.803985 208.975295 
L 202.081943 165.827045 
L 202.3599 176.992466 
L 202.637858 171.077727 
L 202.915816 210.952023 
L 203.193773 202.211182 
L 203.471731 197.856205 
L 203.749689 123.512727 
L 204.027646 189.516886 
L 204.305604 187.200409 
L 204.583562 187.601932 
L 204.861519 191.802477 
L 205.139477 201.346364 
L 205.695392 209.160614 
L 205.97335 205.299818 
L 206.251308 212.341909 
L 206.529265 200.635977 
L 206.807223 198.226841 
L 207.085181 204.496773 
L 207.363138 182.35125 
L 207.641096 201.161045 
L 207.919054 193.717432 
L 208.197011 218.36475 
L 208.474969 219.136909 
L 208.752927 218.488295 
L 209.030884 215.183455 
L 209.308842 218.519182 
L 209.5868 211.477091 
L 209.864757 207.400091 
L 210.142715 178.737545 
L 210.420672 195.323523 
L 210.69863 197.30025 
L 211.254545 211.847727 
L 211.532503 201.840545 
L 211.810461 210.396068 
L 212.088418 199.524068 
L 212.366376 221.144523 
L 212.644334 190.103727 
L 212.922291 197.856205 
L 213.200249 194.2425 
L 213.478207 198.721023 
L 213.756164 195.199977 
L 214.034122 197.825318 
L 214.31208 213.886227 
L 214.590037 212.805205 
L 214.867995 194.613136 
L 215.145953 209.871 
L 215.42391 176.699045 
L 215.701868 206.566159 
L 215.979826 204.033477 
L 216.257783 189.269795 
L 216.535741 183.586705 
L 216.813699 187.972568 
L 217.091656 203.153216 
L 217.369614 197.516455 
L 217.647572 209.685682 
L 217.925529 191.493614 
L 218.203487 208.048705 
L 218.481445 214.503955 
L 218.759402 207.569966 
L 219.03736 189.14625 
L 219.315318 199.184318 
L 219.593275 177.347659 
L 219.871233 210.581386 
L 220.149191 219.631091 
L 220.427148 206.535273 
L 220.705106 209.222386 
L 220.983064 223.491886 
L 221.261021 226.333432 
L 221.538979 225.468614 
L 221.816936 224.009233 
L 222.094894 208.85175 
L 222.372852 212.094818 
L 222.650809 198.195955 
L 222.928767 201.933205 
L 223.206725 164.560705 
L 223.484682 201.0375 
L 223.76264 175.957773 
L 224.040598 199.369636 
L 224.318555 206.597045 
L 224.596513 207.183886 
L 224.874471 195.354409 
L 225.152428 207.708955 
L 225.430386 200.080023 
L 225.708344 184.822159 
L 225.986301 211.477091 
L 226.264259 187.262182 
L 226.542217 207.400091 
L 226.820174 193.037932 
L 227.098132 205.021841 
L 227.37609 206.875023 
L 227.654047 207.122114 
L 227.932005 194.2425 
L 228.209963 196.281 
L 228.48792 137.50425 
L 228.765878 143.032909 
L 229.043836 162.336886 
L 229.321793 172.776477 
L 229.599751 195.94125 
L 229.877709 182.042386 
L 230.155666 146.430409 
L 230.433624 181.115795 
L 230.711582 171.849886 
L 230.989539 151.495773 
L 231.267497 197.269364 
L 231.545455 204.990955 
L 231.823412 201.624341 
L 232.10137 179.447932 
L 232.379328 198.381273 
L 232.657285 168.4215 
L 232.935243 194.952886 
L 233.2132 187.10775 
L 233.491158 193.810091 
L 233.769116 165.610841 
L 234.047073 170.058477 
L 234.602989 192.049568 
L 235.158904 200.759523 
L 235.436862 153.966682 
L 235.714819 196.033909 
L 235.992777 182.629227 
L 236.270735 199.709386 
L 236.548692 123.883364 
L 236.82665 190.659682 
L 237.104608 188.528523 
L 237.382565 175.494477 
L 237.660523 187.849023 
L 237.938481 179.973 
L 238.216438 193.254136 
L 238.494396 186.706227 
L 238.772354 161.96625 
L 239.050311 209.222386 
L 239.328269 204.898295 
L 239.606227 191.987795 
L 239.884184 214.751045 
L 240.162142 171.293932 
L 240.4401 181.362886 
L 240.718057 186.798886 
L 240.996015 180.714273 
L 241.273973 144.021273 
L 241.55193 184.605955 
L 242.107846 208.666432 
L 242.385803 196.250114 
L 242.663761 167.155159 
L 242.941719 196.435432 
L 243.219676 187.663705 
L 243.497634 211.075568 
L 243.775592 184.853045 
L 244.331507 191.987795 
L 244.609465 186.119386 
L 244.887422 172.652932 
L 245.16538 187.10775 
L 245.443337 192.914386 
L 245.721295 178.830205 
L 246.27721 204.990955 
L 246.555168 181.67175 
L 246.833126 173.610409 
L 247.389041 188.219659 
L 247.666999 187.10775 
L 247.944956 164.437159 
L 248.222914 209.098841 
L 248.500872 209.840114 
L 248.778829 197.114932 
L 249.056787 171.664568 
L 249.334745 196.404545 
L 249.612702 198.134182 
L 249.89066 206.504386 
L 250.168618 194.644023 
L 250.446575 210.519614 
L 251.002491 185.656091 
L 251.280448 194.891114 
L 251.558406 189.640432 
L 251.836364 194.983773 
L 252.114321 203.014227 
L 252.392279 192.976159 
L 252.670237 202.798023 
L 252.948194 187.076864 
L 253.50411 172.714705 
L 253.782067 190.428034 
L 254.060025 199.246091 
L 254.337983 174.722318 
L 254.893898 200.975727 
L 255.171856 170.027591 
L 255.449813 189.022705 
L 255.727771 189.702205 
L 256.283686 186.304705 
L 256.561644 200.080023 
L 256.839601 187.478386 
L 257.117559 188.682955 
L 257.395517 185.779636 
L 257.673474 197.30025 
L 257.951432 196.435432 
L 258.22939 177.810955 
L 258.507347 177.378545 
L 258.785305 178.984636 
L 259.063263 192.080455 
L 259.34122 181.362886 
L 259.619178 197.578227 
L 259.897136 181.177568 
L 260.175093 198.937227 
L 260.453051 193.408568 
L 260.731009 193.068818 
L 261.008966 183.71025 
L 261.286924 184.883932 
L 261.564882 194.2425 
L 261.842839 157.951023 
L 262.120797 175.000295 
L 262.398755 119.373955 
L 262.676712 142.878477 
L 262.95467 150.785386 
L 263.232628 178.459568 
L 263.510585 164.498932 
L 263.788543 160.020409 
L 264.066501 165.981477 
L 264.344458 166.012364 
L 264.622416 174.753205 
L 264.900374 189.486 
L 265.178331 159.649773 
L 265.456289 162.707523 
L 266.012204 187.849023 
L 266.290162 142.075432 
L 266.56812 178.490455 
L 266.846077 175.896 
L 267.124035 178.521341 
L 267.401993 164.066523 
L 267.67995 189.516886 
L 267.957908 168.483273 
L 268.235866 157.981909 
L 268.513823 172.869136 
L 268.791781 195.138205 
L 269.625654 130.3695 
L 269.903611 138.832364 
L 270.181569 193.22325 
L 270.459527 185.100136 
L 270.737484 185.378114 
L 271.015442 187.509273 
L 271.2934 194.767568 
L 271.571357 194.798455 
L 271.849315 190.937659 
L 272.40523 168.08175 
L 272.683188 187.601932 
L 272.961146 181.548205 
L 273.239103 189.702205 
L 273.517061 188.343205 
L 273.795019 182.443909 
L 274.072976 197.485568 
L 274.350934 201.964091 
L 274.628892 193.501227 
L 274.906849 201.099273 
L 275.184807 164.159182 
L 275.462765 210.5505 
L 275.740722 214.998136 
L 276.296638 211.847727 
L 276.574595 208.635545 
L 276.852553 184.513295 
L 277.130511 189.671318 
L 277.408468 192.759955 
L 277.686426 211.044682 
L 277.964384 198.65925 
L 278.242341 177.347659 
L 278.520299 202.118523 
L 278.798257 196.033909 
L 279.076214 213.855341 
L 279.354172 206.442614 
L 279.63213 174.228136 
L 279.910087 203.940818 
L 280.188045 188.281432 
L 280.466002 187.323955 
L 280.74396 201.562568 
L 281.021918 209.593023 
L 281.299875 198.3195 
L 281.577833 205.639568 
L 281.855791 189.609545 
L 282.133748 206.380841 
L 282.411706 191.400955 
L 282.689664 198.3195 
L 282.967621 195.354409 
L 283.245579 189.733091 
L 283.801494 200.388886 
L 284.079452 158.784955 
L 284.35741 211.847727 
L 284.635367 211.507977 
L 284.913325 203.446636 
L 285.191283 204.157023 
L 285.46924 207.338318 
L 285.747198 172.266852 
L 286.025156 205.485136 
L 286.303113 207.708955 
L 286.581071 213.639136 
L 286.859029 214.905477 
L 287.692902 201.068386 
L 287.970859 211.878614 
L 288.526775 169.409864 
L 288.804732 206.535273 
L 289.08269 213.793568 
L 289.638605 188.621182 
L 289.916563 191.586273 
L 290.194521 199.153432 
L 290.472478 195.138205 
L 290.750436 208.789977 
L 291.028394 207.863386 
L 291.306351 202.303841 
L 291.584309 180.961364 
L 291.862267 213.206727 
L 292.140224 217.530818 
L 292.418182 195.694159 
L 292.696139 204.558545 
L 292.974097 202.520045 
L 293.252055 199.307864 
L 293.530012 173.394205 
L 294.085928 204.712977 
L 294.363885 196.836955 
L 294.641843 175.123841 
L 294.919801 200.01825 
L 295.197758 175.834227 
L 295.475716 191.030318 
L 295.753674 196.62075 
L 296.031631 193.130591 
L 296.309589 197.609114 
L 296.865504 211.785955 
L 297.143462 198.535705 
L 297.42142 206.998568 
L 297.699377 192.420205 
L 297.977335 197.145818 
L 298.255293 184.513295 
L 298.53325 204.404114 
L 298.811208 200.141795 
L 299.089166 180.096545 
L 299.367123 217.407273 
L 299.645081 215.739409 
L 299.923039 184.760386 
L 300.200996 168.823023 
L 300.478954 214.164205 
L 300.756912 218.550068 
L 301.034869 208.388455 
L 301.312827 177.59475 
L 301.590785 202.859795 
L 301.868742 206.998568 
L 302.1467 206.535273 
L 302.702615 187.015091 
L 302.980573 211.878614 
L 303.258531 211.446205 
L 303.536488 203.724614 
L 303.814446 213.392045 
L 304.092403 216.218148 
L 304.648319 209.500364 
L 304.926276 206.998568 
L 305.204234 192.481977 
L 305.482192 166.321227 
L 305.760149 201.840545 
L 306.038107 195.292636 
L 306.316065 182.536568 
L 306.594022 196.744295 
L 306.87198 216.696886 
L 307.149938 208.141364 
L 307.427895 205.979318 
L 307.705853 197.64 
L 307.983811 207.214773 
L 308.261768 168.514159 
L 308.539726 205.670455 
L 308.817684 194.644023 
L 309.095641 216.017386 
L 309.373599 205.268932 
L 309.651557 205.268932 
L 309.929514 187.601932 
L 310.207472 208.079591 
L 310.48543 214.751045 
L 310.763387 172.714705 
L 311.041345 203.817273 
L 311.319303 213.484705 
L 311.875218 190.752341 
L 312.153176 215.554091 
L 312.431133 185.409 
L 312.709091 202.612705 
L 312.987049 195.570614 
L 313.265006 179.571477 
L 313.542964 194.211614 
L 313.820922 181.918841 
L 314.098879 188.652068 
L 314.376837 199.647614 
L 314.932752 185.995841 
L 315.21071 210.488727 
L 315.766625 198.65925 
L 316.044583 184.992034 
L 316.32254 205.176273 
L 316.600498 186.582682 
L 316.878456 199.832932 
L 317.156413 190.628795 
L 317.434371 205.361591 
L 317.712329 195.694159 
L 317.990286 210.025432 
L 318.268244 214.936364 
L 318.546202 208.388455 
L 318.824159 210.21075 
L 319.102117 215.955614 
L 319.658032 190.1655 
L 319.93599 206.689705 
L 320.213948 198.751909 
L 320.491905 204.805636 
L 320.769863 181.949727 
L 321.047821 187.200409 
L 321.325778 214.411295 
L 321.603736 215.399659 
L 321.881694 197.176705 
L 322.159651 205.546909 
L 322.437609 178.614 
L 322.993524 222.163773 
L 323.271482 219.384 
L 323.54944 193.810091 
L 323.827397 203.353977 
L 324.105355 198.350386 
L 324.383313 183.988227 
L 324.66127 190.752341 
L 324.939228 206.4735 
L 325.217186 203.353977 
L 325.495143 206.627932 
L 325.773101 191.339182 
L 326.051059 217.407273 
L 326.329016 214.998136 
L 326.606974 193.732875 
L 326.884932 207.894273 
L 327.162889 216.017386 
L 327.440847 216.511568 
L 327.718804 208.944409 
L 327.996762 208.55833 
L 328.27472 206.071977 
L 328.552677 212.712545 
L 328.830635 204.373227 
L 329.108593 207.338318 
L 329.38655 188.744727 
L 329.664508 216.048273 
L 329.942466 207.49275 
L 330.220423 179.571477 
L 330.498381 201.964091 
L 330.776339 202.550932 
L 331.332254 212.496341 
L 331.610212 208.481114 
L 331.888169 207.029455 
L 332.166127 200.203568 
L 332.444085 214.812818 
L 333 175.494477 
L 333.277958 205.577795 
L 333.555915 210.241636 
L 333.833873 209.253273 
L 334.111831 197.701773 
L 334.389788 213.824455 
L 334.667746 212.280136 
L 334.945704 218.395636 
L 335.223661 197.578227 
L 335.501619 197.825318 
L 335.779577 179.231727 
L 336.057534 179.077295 
L 336.335492 204.033477 
L 336.61345 202.025864 
L 337.169365 183.308727 
L 337.447323 198.690136 
L 337.72528 222.318205 
L 338.003238 201.253705 
L 338.281196 163.263477 
L 338.559153 182.382136 
L 338.837111 209.963659 
L 339.115068 207.894273 
L 339.393026 208.295795 
L 339.670984 177.378545 
L 339.948941 186.706227 
L 340.226899 201.006614 
L 340.504857 205.021841 
L 340.782814 191.431841 
L 341.060772 197.825318 
L 341.616687 205.1145 
L 342.172603 144.113932 
L 342.45056 177.471205 
L 342.728518 193.624773 
L 343.006476 160.514591 
L 343.284433 192.821727 
L 343.562391 202.211182 
L 343.840349 178.675773 
L 344.118306 190.350818 
L 344.396264 166.383 
L 344.674222 182.258591 
L 344.952179 164.190068 
L 345.230137 165.425523 
L 345.508095 148.530682 
L 345.786052 165.549068 
L 346.06401 149.673477 
L 346.619925 184.080886 
L 346.897883 140.809091 
L 347.175841 193.90275 
L 347.453798 167.803773 
L 347.731756 179.880341 
L 348.287671 170.707091 
L 348.565629 166.290341 
L 348.843587 198.535705 
L 349.121544 190.443477 
L 349.67746 159.433568 
L 349.955417 179.571477 
L 350.233375 186.860659 
L 350.511333 163.788545 
L 350.78929 167.40225 
L 351.067248 180.250977 
L 351.345205 157.920136 
L 351.623163 170.830636 
L 351.901121 178.27425 
L 352.179078 181.548205 
L 352.457036 167.556682 
L 352.734994 191.586273 
L 353.012951 172.869136 
L 353.290909 183.061636 
L 353.568867 164.437159 
L 353.846824 155.047705 
L 354.40274 185.378114 
L 354.680697 179.509705 
L 354.958655 204.187909 
L 355.236613 177.749182 
L 355.792528 160.638136 
L 356.070486 149.704364 
L 356.348443 154.321875 
L 356.626401 146.090659 
L 356.904359 176.668159 
L 357.182316 180.034773 
L 357.460274 190.011068 
L 357.738232 157.271523 
L 358.294147 182.413023 
L 358.572105 183.957341 
L 358.850062 186.613568 
L 359.12802 207.678068 
L 359.405978 202.828909 
L 359.683935 204.743864 
L 359.961893 165.240205 
L 360.239851 189.393341 
L 360.517808 184.853045 
L 360.795766 200.388886 
L 361.073724 165.796159 
L 361.351681 181.826182 
L 361.629639 163.942977 
L 361.907597 195.725045 
L 362.185554 177.20867 
L 362.463512 194.273386 
L 362.741469 184.080886 
L 363.019427 199.184318 
L 363.297385 200.635977 
L 363.575342 96.487159 
L 363.8533 180.714273 
L 364.131258 194.613136 
L 364.409215 161.657386 
L 364.687173 197.825318 
L 364.965131 195.385295 
L 365.243088 201.871432 
L 365.521046 203.446636 
L 365.799004 173.950159 
L 366.076961 200.080023 
L 366.354919 186.551795 
L 366.632877 203.230432 
L 366.910834 190.041955 
L 367.188792 147.665864 
L 367.46675 136.268795 
L 367.744707 169.039227 
L 368.022665 166.908068 
L 368.300623 173.425091 
L 368.57858 168.08175 
L 368.856538 174.907636 
L 369.134496 159.402682 
L 369.412453 162.9855 
L 369.690411 191.030318 
L 369.968369 186.459136 
L 370.246326 177.687409 
L 370.524284 157.333295 
L 370.802242 179.602364 
L 371.080199 188.590295 
L 371.358157 146.461295 
L 371.636115 158.723182 
L 371.914072 185.594318 
L 372.19203 140.623773 
L 372.469988 159.557114 
L 372.747945 191.802477 
L 373.025903 180.528955 
L 373.303861 184.976591 
L 373.581818 167.000727 
L 373.581818 167.000727 
" style="fill:none;stroke:#000000;stroke-linecap:square;stroke-width:1.5;"/>
   </g>
   <g id="patch_3">
    <path d="M 54 252 
L 54 34.56 
" style="fill:none;stroke:#000000;stroke-linecap:square;stroke-linejoin:miter;stroke-width:0.8;"/>
   </g>
   <g id="patch_4">
    <path d="M 388.8 252 
L 388.8 34.56 
" style="fill:none;stroke:#000000;stroke-linecap:square;stroke-linejoin:miter;stroke-width:0.8;"/>
   </g>
   <g id="patch_5">
    <path d="M 54 252 
L 388.8 252 
" style="fill:none;stroke:#000000;stroke-linecap:square;stroke-linejoin:miter;stroke-width:0.8;"/>
   </g>
   <g id="patch_6">
    <path d="M 54 34.56 
L 388.8 34.56 
" style="fill:none;stroke:#000000;stroke-linecap:square;stroke-linejoin:miter;stroke-width:0.8;"/>
   </g>
   <g id="text_18">
    <!-- Soma Diária de Energia - Casa 5 -->
    <g transform="translate(124.230938 28.56)scale(0.12 -0.12)">
     <defs>
      <path d="M 53.515625 70.515625 
L 53.515625 60.890625 
Q 47.90625 63.578125 42.921875 64.890625 
Q 37.9375 66.21875 33.296875 66.21875 
Q 25.25 66.21875 20.875 63.09375 
Q 16.5 59.96875 16.5 54.203125 
Q 16.5 49.359375 19.40625 46.890625 
Q 22.3125 44.4375 30.421875 42.921875 
L 36.375 41.703125 
Q 47.40625 39.59375 52.65625 34.296875 
Q 57.90625 29 57.90625 20.125 
Q 57.90625 9.515625 50.796875 4.046875 
Q 43.703125 -1.421875 29.984375 -1.421875 
Q 24.8125 -1.421875 18.96875 -0.25 
Q 13.140625 0.921875 6.890625 3.21875 
L 6.890625 13.375 
Q 12.890625 10.015625 18.65625 8.296875 
Q 24.421875 6.59375 29.984375 6.59375 
Q 38.421875 6.59375 43.015625 9.90625 
Q 47.609375 13.234375 47.609375 19.390625 
Q 47.609375 24.75 44.3125 27.78125 
Q 41.015625 30.8125 33.5 32.328125 
L 27.484375 33.5 
Q 16.453125 35.6875 11.515625 40.375 
Q 6.59375 45.0625 6.59375 53.421875 
Q 6.59375 63.09375 13.40625 68.65625 
Q 20.21875 74.21875 32.171875 74.21875 
Q 37.3125 74.21875 42.625 73.28125 
Q 47.953125 72.359375 53.515625 70.515625 
z
" id="DejaVuSans-83"/>
      <path d="M 30.609375 48.390625 
Q 23.390625 48.390625 19.1875 42.75 
Q 14.984375 37.109375 14.984375 27.296875 
Q 14.984375 17.484375 19.15625 11.84375 
Q 23.34375 6.203125 30.609375 6.203125 
Q 37.796875 6.203125 41.984375 11.859375 
Q 46.1875 17.53125 46.1875 27.296875 
Q 46.1875 37.015625 41.984375 42.703125 
Q 37.796875 48.390625 30.609375 48.390625 
z
M 30.609375 56 
Q 42.328125 56 49.015625 48.375 
Q 55.71875 40.765625 55.71875 27.296875 
Q 55.71875 13.875 49.015625 6.21875 
Q 42.328125 -1.421875 30.609375 -1.421875 
Q 18.84375 -1.421875 12.171875 6.21875 
Q 5.515625 13.875 5.515625 27.296875 
Q 5.515625 40.765625 12.171875 48.375 
Q 18.84375 56 30.609375 56 
z
" id="DejaVuSans-111"/>
      <path d="M 52 44.1875 
Q 55.375 50.25 60.0625 53.125 
Q 64.75 56 71.09375 56 
Q 79.640625 56 84.28125 50.015625 
Q 88.921875 44.046875 88.921875 33.015625 
L 88.921875 0 
L 79.890625 0 
L 79.890625 32.71875 
Q 79.890625 40.578125 77.09375 44.375 
Q 74.3125 48.1875 68.609375 48.1875 
Q 61.625 48.1875 57.5625 43.546875 
Q 53.515625 38.921875 53.515625 30.90625 
L 53.515625 0 
L 44.484375 0 
L 44.484375 32.71875 
Q 44.484375 40.625 41.703125 44.40625 
Q 38.921875 48.1875 33.109375 48.1875 
Q 26.21875 48.1875 22.15625 43.53125 
Q 18.109375 38.875 18.109375 30.90625 
L 18.109375 0 
L 9.078125 0 
L 9.078125 54.6875 
L 18.109375 54.6875 
L 18.109375 46.1875 
Q 21.1875 51.21875 25.484375 53.609375 
Q 29.78125 56 35.6875 56 
Q 41.65625 56 45.828125 52.96875 
Q 50 49.953125 52 44.1875 
z
" id="DejaVuSans-109"/>
      <path d="M 34.28125 27.484375 
Q 23.390625 27.484375 19.1875 25 
Q 14.984375 22.515625 14.984375 16.5 
Q 14.984375 11.71875 18.140625 8.90625 
Q 21.296875 6.109375 26.703125 6.109375 
Q 34.1875 6.109375 38.703125 11.40625 
Q 43.21875 16.703125 43.21875 25.484375 
L 43.21875 27.484375 
z
M 52.203125 31.203125 
L 52.203125 0 
L 43.21875 0 
L 43.21875 8.296875 
Q 40.140625 3.328125 35.546875 0.953125 
Q 30.953125 -1.421875 24.3125 -1.421875 
Q 15.921875 -1.421875 10.953125 3.296875 
Q 6 8.015625 6 15.921875 
Q 6 25.140625 12.171875 29.828125 
Q 18.359375 34.515625 30.609375 34.515625 
L 43.21875 34.515625 
L 43.21875 35.40625 
Q 43.21875 41.609375 39.140625 45 
Q 35.0625 48.390625 27.6875 48.390625 
Q 23 48.390625 18.546875 47.265625 
Q 14.109375 46.140625 10.015625 43.890625 
L 10.015625 52.203125 
Q 14.9375 54.109375 19.578125 55.046875 
Q 24.21875 56 28.609375 56 
Q 40.484375 56 46.34375 49.84375 
Q 52.203125 43.703125 52.203125 31.203125 
z
" id="DejaVuSans-97"/>
      <path id="DejaVuSans-32"/>
      <path d="M 19.671875 64.796875 
L 19.671875 8.109375 
L 31.59375 8.109375 
Q 46.6875 8.109375 53.6875 14.9375 
Q 60.6875 21.78125 60.6875 36.53125 
Q 60.6875 51.171875 53.6875 57.984375 
Q 46.6875 64.796875 31.59375 64.796875 
z
M 9.8125 72.90625 
L 30.078125 72.90625 
Q 51.265625 72.90625 61.171875 64.09375 
Q 71.09375 55.28125 71.09375 36.53125 
Q 71.09375 17.671875 61.125 8.828125 
Q 51.171875 0 30.078125 0 
L 9.8125 0 
z
" id="DejaVuSans-68"/>
      <path d="M 9.421875 54.6875 
L 18.40625 54.6875 
L 18.40625 0 
L 9.421875 0 
z
M 9.421875 75.984375 
L 18.40625 75.984375 
L 18.40625 64.59375 
L 9.421875 64.59375 
z
" id="DejaVuSans-105"/>
      <path d="M 34.28125 27.484375 
Q 23.390625 27.484375 19.1875 25 
Q 14.984375 22.515625 14.984375 16.5 
Q 14.984375 11.71875 18.140625 8.90625 
Q 21.296875 6.109375 26.703125 6.109375 
Q 34.1875 6.109375 38.703125 11.40625 
Q 43.21875 16.703125 43.21875 25.484375 
L 43.21875 27.484375 
z
M 52.203125 31.203125 
L 52.203125 0 
L 43.21875 0 
L 43.21875 8.296875 
Q 40.140625 3.328125 35.546875 0.953125 
Q 30.953125 -1.421875 24.3125 -1.421875 
Q 15.921875 -1.421875 10.953125 3.296875 
Q 6 8.015625 6 15.921875 
Q 6 25.140625 12.171875 29.828125 
Q 18.359375 34.515625 30.609375 34.515625 
L 43.21875 34.515625 
L 43.21875 35.40625 
Q 43.21875 41.609375 39.140625 45 
Q 35.0625 48.390625 27.6875 48.390625 
Q 23 48.390625 18.546875 47.265625 
Q 14.109375 46.140625 10.015625 43.890625 
L 10.015625 52.203125 
Q 14.9375 54.109375 19.578125 55.046875 
Q 24.21875 56 28.609375 56 
Q 40.484375 56 46.34375 49.84375 
Q 52.203125 43.703125 52.203125 31.203125 
z
M 35.796875 79.984375 
L 45.515625 79.984375 
L 29.59375 61.625 
L 22.125 61.625 
z
" id="DejaVuSans-225"/>
      <path d="M 41.109375 46.296875 
Q 39.59375 47.171875 37.8125 47.578125 
Q 36.03125 48 33.890625 48 
Q 26.265625 48 22.1875 43.046875 
Q 18.109375 38.09375 18.109375 28.8125 
L 18.109375 0 
L 9.078125 0 
L 9.078125 54.6875 
L 18.109375 54.6875 
L 18.109375 46.1875 
Q 20.953125 51.171875 25.484375 53.578125 
Q 30.03125 56 36.53125 56 
Q 37.453125 56 38.578125 55.875 
Q 39.703125 55.765625 41.0625 55.515625 
z
" id="DejaVuSans-114"/>
      <path d="M 45.40625 46.390625 
L 45.40625 75.984375 
L 54.390625 75.984375 
L 54.390625 0 
L 45.40625 0 
L 45.40625 8.203125 
Q 42.578125 3.328125 38.25 0.953125 
Q 33.9375 -1.421875 27.875 -1.421875 
Q 17.96875 -1.421875 11.734375 6.484375 
Q 5.515625 14.40625 5.515625 27.296875 
Q 5.515625 40.1875 11.734375 48.09375 
Q 17.96875 56 27.875 56 
Q 33.9375 56 38.25 53.625 
Q 42.578125 51.265625 45.40625 46.390625 
z
M 14.796875 27.296875 
Q 14.796875 17.390625 18.875 11.75 
Q 22.953125 6.109375 30.078125 6.109375 
Q 37.203125 6.109375 41.296875 11.75 
Q 45.40625 17.390625 45.40625 27.296875 
Q 45.40625 37.203125 41.296875 42.84375 
Q 37.203125 48.484375 30.078125 48.484375 
Q 22.953125 48.484375 18.875 42.84375 
Q 14.796875 37.203125 14.796875 27.296875 
z
" id="DejaVuSans-100"/>
      <path d="M 56.203125 29.59375 
L 56.203125 25.203125 
L 14.890625 25.203125 
Q 15.484375 15.921875 20.484375 11.0625 
Q 25.484375 6.203125 34.421875 6.203125 
Q 39.59375 6.203125 44.453125 7.46875 
Q 49.3125 8.734375 54.109375 11.28125 
L 54.109375 2.78125 
Q 49.265625 0.734375 44.1875 -0.34375 
Q 39.109375 -1.421875 33.890625 -1.421875 
Q 20.796875 -1.421875 13.15625 6.1875 
Q 5.515625 13.8125 5.515625 26.8125 
Q 5.515625 40.234375 12.765625 48.109375 
Q 20.015625 56 32.328125 56 
Q 43.359375 56 49.78125 48.890625 
Q 56.203125 41.796875 56.203125 29.59375 
z
M 47.21875 32.234375 
Q 47.125 39.59375 43.09375 43.984375 
Q 39.0625 48.390625 32.421875 48.390625 
Q 24.90625 48.390625 20.390625 44.140625 
Q 15.875 39.890625 15.1875 32.171875 
z
" id="DejaVuSans-101"/>
      <path d="M 9.8125 72.90625 
L 55.90625 72.90625 
L 55.90625 64.59375 
L 19.671875 64.59375 
L 19.671875 43.015625 
L 54.390625 43.015625 
L 54.390625 34.71875 
L 19.671875 34.71875 
L 19.671875 8.296875 
L 56.78125 8.296875 
L 56.78125 0 
L 9.8125 0 
z
" id="DejaVuSans-69"/>
      <path d="M 54.890625 33.015625 
L 54.890625 0 
L 45.90625 0 
L 45.90625 32.71875 
Q 45.90625 40.484375 42.875 44.328125 
Q 39.84375 48.1875 33.796875 48.1875 
Q 26.515625 48.1875 22.3125 43.546875 
Q 18.109375 38.921875 18.109375 30.90625 
L 18.109375 0 
L 9.078125 0 
L 9.078125 54.6875 
L 18.109375 54.6875 
L 18.109375 46.1875 
Q 21.34375 51.125 25.703125 53.5625 
Q 30.078125 56 35.796875 56 
Q 45.21875 56 50.046875 50.171875 
Q 54.890625 44.34375 54.890625 33.015625 
z
" id="DejaVuSans-110"/>
      <path d="M 45.40625 27.984375 
Q 45.40625 37.75 41.375 43.109375 
Q 37.359375 48.484375 30.078125 48.484375 
Q 22.859375 48.484375 18.828125 43.109375 
Q 14.796875 37.75 14.796875 27.984375 
Q 14.796875 18.265625 18.828125 12.890625 
Q 22.859375 7.515625 30.078125 7.515625 
Q 37.359375 7.515625 41.375 12.890625 
Q 45.40625 18.265625 45.40625 27.984375 
z
M 54.390625 6.78125 
Q 54.390625 -7.171875 48.1875 -13.984375 
Q 42 -20.796875 29.203125 -20.796875 
Q 24.46875 -20.796875 20.265625 -20.09375 
Q 16.0625 -19.390625 12.109375 -17.921875 
L 12.109375 -9.1875 
Q 16.0625 -11.328125 19.921875 -12.34375 
Q 23.78125 -13.375 27.78125 -13.375 
Q 36.625 -13.375 41.015625 -8.765625 
Q 45.40625 -4.15625 45.40625 5.171875 
L 45.40625 9.625 
Q 42.625 4.78125 38.28125 2.390625 
Q 33.9375 0 27.875 0 
Q 17.828125 0 11.671875 7.65625 
Q 5.515625 15.328125 5.515625 27.984375 
Q 5.515625 40.671875 11.671875 48.328125 
Q 17.828125 56 27.875 56 
Q 33.9375 56 38.28125 53.609375 
Q 42.625 51.21875 45.40625 46.390625 
L 45.40625 54.6875 
L 54.390625 54.6875 
z
" id="DejaVuSans-103"/>
      <path d="M 64.40625 67.28125 
L 64.40625 56.890625 
Q 59.421875 61.53125 53.78125 63.8125 
Q 48.140625 66.109375 41.796875 66.109375 
Q 29.296875 66.109375 22.65625 58.46875 
Q 16.015625 50.828125 16.015625 36.375 
Q 16.015625 21.96875 22.65625 14.328125 
Q 29.296875 6.6875 41.796875 6.6875 
Q 48.140625 6.6875 53.78125 8.984375 
Q 59.421875 11.28125 64.40625 15.921875 
L 64.40625 5.609375 
Q 59.234375 2.09375 53.4375 0.328125 
Q 47.65625 -1.421875 41.21875 -1.421875 
Q 24.65625 -1.421875 15.125 8.703125 
Q 5.609375 18.84375 5.609375 36.375 
Q 5.609375 53.953125 15.125 64.078125 
Q 24.65625 74.21875 41.21875 74.21875 
Q 47.75 74.21875 53.53125 72.484375 
Q 59.328125 70.75 64.40625 67.28125 
z
" id="DejaVuSans-67"/>
      <path d="M 44.28125 53.078125 
L 44.28125 44.578125 
Q 40.484375 46.53125 36.375 47.5 
Q 32.28125 48.484375 27.875 48.484375 
Q 21.1875 48.484375 17.84375 46.4375 
Q 14.5 44.390625 14.5 40.28125 
Q 14.5 37.15625 16.890625 35.375 
Q 19.28125 33.59375 26.515625 31.984375 
L 29.59375 31.296875 
Q 39.15625 29.25 43.1875 25.515625 
Q 47.21875 21.78125 47.21875 15.09375 
Q 47.21875 7.46875 41.1875 3.015625 
Q 35.15625 -1.421875 24.609375 -1.421875 
Q 20.21875 -1.421875 15.453125 -0.5625 
Q 10.6875 0.296875 5.421875 2 
L 5.421875 11.28125 
Q 10.40625 8.6875 15.234375 7.390625 
Q 20.0625 6.109375 24.8125 6.109375 
Q 31.15625 6.109375 34.5625 8.28125 
Q 37.984375 10.453125 37.984375 14.40625 
Q 37.984375 18.0625 35.515625 20.015625 
Q 33.0625 21.96875 24.703125 23.78125 
L 21.578125 24.515625 
Q 13.234375 26.265625 9.515625 29.90625 
Q 5.8125 33.546875 5.8125 39.890625 
Q 5.8125 47.609375 11.28125 51.796875 
Q 16.75 56 26.8125 56 
Q 31.78125 56 36.171875 55.265625 
Q 40.578125 54.546875 44.28125 53.078125 
z
" id="DejaVuSans-115"/>
     </defs>
     <use xlink:href="#DejaVuSans-83"/>
     <use x="63.476562" xlink:href="#DejaVuSans-111"/>
     <use x="124.658203" xlink:href="#DejaVuSans-109"/>
     <use x="222.070312" xlink:href="#DejaVuSans-97"/>
     <use x="283.349609" xlink:href="#DejaVuSans-32"/>
     <use x="315.136719" xlink:href="#DejaVuSans-68"/>
     <use x="392.138672" xlink:href="#DejaVuSans-105"/>
     <use x="419.921875" xlink:href="#DejaVuSans-225"/>
     <use x="481.201172" xlink:href="#DejaVuSans-114"/>
     <use x="522.314453" xlink:href="#DejaVuSans-105"/>
     <use x="550.097656" xlink:href="#DejaVuSans-97"/>
     <use x="611.376953" xlink:href="#DejaVuSans-32"/>
     <use x="643.164062" xlink:href="#DejaVuSans-100"/>
     <use x="706.640625" xlink:href="#DejaVuSans-101"/>
     <use x="768.164062" xlink:href="#DejaVuSans-32"/>
     <use x="799.951172" xlink:href="#DejaVuSans-69"/>
     <use x="863.134766" xlink:href="#DejaVuSans-110"/>
     <use x="926.513672" xlink:href="#DejaVuSans-101"/>
     <use x="988.037109" xlink:href="#DejaVuSans-114"/>
     <use x="1027.400391" xlink:href="#DejaVuSans-103"/>
     <use x="1090.876953" xlink:href="#DejaVuSans-105"/>
     <use x="1118.660156" xlink:href="#DejaVuSans-97"/>
     <use x="1179.939453" xlink:href="#DejaVuSans-32"/>
     <use x="1211.726562" xlink:href="#DejaVuSans-45"/>
     <use x="1247.810547" xlink:href="#DejaVuSans-32"/>
     <use x="1279.597656" xlink:href="#DejaVuSans-67"/>
     <use x="1349.421875" xlink:href="#DejaVuSans-97"/>
     <use x="1410.701172" xlink:href="#DejaVuSans-115"/>
     <use x="1462.800781" xlink:href="#DejaVuSans-97"/>
     <use x="1524.080078" xlink:href="#DejaVuSans-32"/>
     <use x="1555.867188" xlink:href="#DejaVuSans-53"/>
    </g>
   </g>
  </g>
 </g>
 <defs>
  <clipPath id="p00e92f8d6d">
   <rect height="217.44" width="334.8" x="54" y="34.56"/>
  </clipPath>
 </defs>
</svg>
