<?xml version="1.0" encoding="utf-8" standalone="no"?>
<!DOCTYPE svg PUBLIC "-//W3C//DTD SVG 1.1//EN"
  "http://www.w3.org/Graphics/SVG/1.1/DTD/svg11.dtd">
<!-- Created with matplotlib (https://matplotlib.org/) -->
<svg height="288pt" version="1.1" viewBox="0 0 432 288" width="432pt" xmlns="http://www.w3.org/2000/svg" xmlns:xlink="http://www.w3.org/1999/xlink">
 <metadata>
  <rdf:RDF xmlns:cc="http://creativecommons.org/ns#" xmlns:dc="http://purl.org/dc/elements/1.1/" xmlns:rdf="http://www.w3.org/1999/02/22-rdf-syntax-ns#">
   <cc:Work>
    <dc:type rdf:resource="http://purl.org/dc/dcmitype/StillImage"/>
    <dc:date>2021-07-21T14:57:45.329093</dc:date>
    <dc:format>image/svg+xml</dc:format>
    <dc:creator>
     <cc:Agent>
      <dc:title>Matplotlib v3.3.4, https://matplotlib.org/</dc:title>
     </cc:Agent>
    </dc:creator>
   </cc:Work>
  </rdf:RDF>
 </metadata>
 <defs>
  <style type="text/css">*{stroke-linecap:butt;stroke-linejoin:round;}</style>
 </defs>
 <g id="figure_1">
  <g id="patch_1">
   <path d="M 0 288 
L 432 288 
L 432 0 
L 0 0 
z
" style="fill:#ffffff;"/>
  </g>
  <g id="axes_1">
   <g id="patch_2">
    <path d="M 54 252 
L 388.8 252 
L 388.8 34.56 
L 54 34.56 
z
" style="fill:#ffffff;"/>
   </g>
   <g id="matplotlib.axis_1">
    <g id="xtick_1">
     <g id="line2d_1">
      <defs>
       <path d="M 0 0 
L 0 3.5 
" id="mcd59bb6212" style="stroke:#000000;stroke-width:0.8;"/>
      </defs>
      <g>
       <use style="stroke:#000000;stroke-width:0.8;" x="60.165315" xlink:href="#mcd59bb6212" y="252"/>
      </g>
     </g>
     <g id="text_1">
      <!-- 2015-05 -->
      <g transform="translate(47.344032 293.917817)rotate(-45)scale(0.1 -0.1)">
       <defs>
        <path d="M 19.1875 8.296875 
L 53.609375 8.296875 
L 53.609375 0 
L 7.328125 0 
L 7.328125 8.296875 
Q 12.9375 14.109375 22.625 23.890625 
Q 32.328125 33.6875 34.8125 36.53125 
Q 39.546875 41.84375 41.421875 45.53125 
Q 43.3125 49.21875 43.3125 52.78125 
Q 43.3125 58.59375 39.234375 62.25 
Q 35.15625 65.921875 28.609375 65.921875 
Q 23.96875 65.921875 18.8125 64.3125 
Q 13.671875 62.703125 7.8125 59.421875 
L 7.8125 69.390625 
Q 13.765625 71.78125 18.9375 73 
Q 24.125 74.21875 28.421875 74.21875 
Q 39.75 74.21875 46.484375 68.546875 
Q 53.21875 62.890625 53.21875 53.421875 
Q 53.21875 48.921875 51.53125 44.890625 
Q 49.859375 40.875 45.40625 35.40625 
Q 44.1875 33.984375 37.640625 27.21875 
Q 31.109375 20.453125 19.1875 8.296875 
z
" id="DejaVuSans-50"/>
        <path d="M 31.78125 66.40625 
Q 24.171875 66.40625 20.328125 58.90625 
Q 16.5 51.421875 16.5 36.375 
Q 16.5 21.390625 20.328125 13.890625 
Q 24.171875 6.390625 31.78125 6.390625 
Q 39.453125 6.390625 43.28125 13.890625 
Q 47.125 21.390625 47.125 36.375 
Q 47.125 51.421875 43.28125 58.90625 
Q 39.453125 66.40625 31.78125 66.40625 
z
M 31.78125 74.21875 
Q 44.046875 74.21875 50.515625 64.515625 
Q 56.984375 54.828125 56.984375 36.375 
Q 56.984375 17.96875 50.515625 8.265625 
Q 44.046875 -1.421875 31.78125 -1.421875 
Q 19.53125 -1.421875 13.0625 8.265625 
Q 6.59375 17.96875 6.59375 36.375 
Q 6.59375 54.828125 13.0625 64.515625 
Q 19.53125 74.21875 31.78125 74.21875 
z
" id="DejaVuSans-48"/>
        <path d="M 12.40625 8.296875 
L 28.515625 8.296875 
L 28.515625 63.921875 
L 10.984375 60.40625 
L 10.984375 69.390625 
L 28.421875 72.90625 
L 38.28125 72.90625 
L 38.28125 8.296875 
L 54.390625 8.296875 
L 54.390625 0 
L 12.40625 0 
z
" id="DejaVuSans-49"/>
        <path d="M 10.796875 72.90625 
L 49.515625 72.90625 
L 49.515625 64.59375 
L 19.828125 64.59375 
L 19.828125 46.734375 
Q 21.96875 47.46875 24.109375 47.828125 
Q 26.265625 48.1875 28.421875 48.1875 
Q 40.625 48.1875 47.75 41.5 
Q 54.890625 34.8125 54.890625 23.390625 
Q 54.890625 11.625 47.5625 5.09375 
Q 40.234375 -1.421875 26.90625 -1.421875 
Q 22.3125 -1.421875 17.546875 -0.640625 
Q 12.796875 0.140625 7.71875 1.703125 
L 7.71875 11.625 
Q 12.109375 9.234375 16.796875 8.0625 
Q 21.484375 6.890625 26.703125 6.890625 
Q 35.15625 6.890625 40.078125 11.328125 
Q 45.015625 15.765625 45.015625 23.390625 
Q 45.015625 31 40.078125 35.4375 
Q 35.15625 39.890625 26.703125 39.890625 
Q 22.75 39.890625 18.8125 39.015625 
Q 14.890625 38.140625 10.796875 36.28125 
z
" id="DejaVuSans-53"/>
        <path d="M 4.890625 31.390625 
L 31.203125 31.390625 
L 31.203125 23.390625 
L 4.890625 23.390625 
z
" id="DejaVuSans-45"/>
       </defs>
       <use xlink:href="#DejaVuSans-50"/>
       <use x="63.623047" xlink:href="#DejaVuSans-48"/>
       <use x="127.246094" xlink:href="#DejaVuSans-49"/>
       <use x="190.869141" xlink:href="#DejaVuSans-53"/>
       <use x="254.492188" xlink:href="#DejaVuSans-45"/>
       <use x="290.576172" xlink:href="#DejaVuSans-48"/>
       <use x="354.199219" xlink:href="#DejaVuSans-53"/>
      </g>
     </g>
    </g>
    <g id="xtick_2">
     <g id="line2d_2">
      <g>
       <use style="stroke:#000000;stroke-width:0.8;" x="98.561958" xlink:href="#mcd59bb6212" y="252"/>
      </g>
     </g>
     <g id="text_2">
      <!-- 2015-09 -->
      <g transform="translate(85.740676 293.917817)rotate(-45)scale(0.1 -0.1)">
       <defs>
        <path d="M 10.984375 1.515625 
L 10.984375 10.5 
Q 14.703125 8.734375 18.5 7.8125 
Q 22.3125 6.890625 25.984375 6.890625 
Q 35.75 6.890625 40.890625 13.453125 
Q 46.046875 20.015625 46.78125 33.40625 
Q 43.953125 29.203125 39.59375 26.953125 
Q 35.25 24.703125 29.984375 24.703125 
Q 19.046875 24.703125 12.671875 31.3125 
Q 6.296875 37.9375 6.296875 49.421875 
Q 6.296875 60.640625 12.9375 67.421875 
Q 19.578125 74.21875 30.609375 74.21875 
Q 43.265625 74.21875 49.921875 64.515625 
Q 56.59375 54.828125 56.59375 36.375 
Q 56.59375 19.140625 48.40625 8.859375 
Q 40.234375 -1.421875 26.421875 -1.421875 
Q 22.703125 -1.421875 18.890625 -0.6875 
Q 15.09375 0.046875 10.984375 1.515625 
z
M 30.609375 32.421875 
Q 37.25 32.421875 41.125 36.953125 
Q 45.015625 41.5 45.015625 49.421875 
Q 45.015625 57.28125 41.125 61.84375 
Q 37.25 66.40625 30.609375 66.40625 
Q 23.96875 66.40625 20.09375 61.84375 
Q 16.21875 57.28125 16.21875 49.421875 
Q 16.21875 41.5 20.09375 36.953125 
Q 23.96875 32.421875 30.609375 32.421875 
z
" id="DejaVuSans-57"/>
       </defs>
       <use xlink:href="#DejaVuSans-50"/>
       <use x="63.623047" xlink:href="#DejaVuSans-48"/>
       <use x="127.246094" xlink:href="#DejaVuSans-49"/>
       <use x="190.869141" xlink:href="#DejaVuSans-53"/>
       <use x="254.492188" xlink:href="#DejaVuSans-45"/>
       <use x="290.576172" xlink:href="#DejaVuSans-48"/>
       <use x="354.199219" xlink:href="#DejaVuSans-57"/>
      </g>
     </g>
    </g>
    <g id="xtick_3">
     <g id="line2d_3">
      <g>
       <use style="stroke:#000000;stroke-width:0.8;" x="136.646434" xlink:href="#mcd59bb6212" y="252"/>
      </g>
     </g>
     <g id="text_3">
      <!-- 2016-01 -->
      <g transform="translate(123.825151 293.917817)rotate(-45)scale(0.1 -0.1)">
       <defs>
        <path d="M 33.015625 40.375 
Q 26.375 40.375 22.484375 35.828125 
Q 18.609375 31.296875 18.609375 23.390625 
Q 18.609375 15.53125 22.484375 10.953125 
Q 26.375 6.390625 33.015625 6.390625 
Q 39.65625 6.390625 43.53125 10.953125 
Q 47.40625 15.53125 47.40625 23.390625 
Q 47.40625 31.296875 43.53125 35.828125 
Q 39.65625 40.375 33.015625 40.375 
z
M 52.59375 71.296875 
L 52.59375 62.3125 
Q 48.875 64.0625 45.09375 64.984375 
Q 41.3125 65.921875 37.59375 65.921875 
Q 27.828125 65.921875 22.671875 59.328125 
Q 17.53125 52.734375 16.796875 39.40625 
Q 19.671875 43.65625 24.015625 45.921875 
Q 28.375 48.1875 33.59375 48.1875 
Q 44.578125 48.1875 50.953125 41.515625 
Q 57.328125 34.859375 57.328125 23.390625 
Q 57.328125 12.15625 50.6875 5.359375 
Q 44.046875 -1.421875 33.015625 -1.421875 
Q 20.359375 -1.421875 13.671875 8.265625 
Q 6.984375 17.96875 6.984375 36.375 
Q 6.984375 53.65625 15.1875 63.9375 
Q 23.390625 74.21875 37.203125 74.21875 
Q 40.921875 74.21875 44.703125 73.484375 
Q 48.484375 72.75 52.59375 71.296875 
z
" id="DejaVuSans-54"/>
       </defs>
       <use xlink:href="#DejaVuSans-50"/>
       <use x="63.623047" xlink:href="#DejaVuSans-48"/>
       <use x="127.246094" xlink:href="#DejaVuSans-49"/>
       <use x="190.869141" xlink:href="#DejaVuSans-54"/>
       <use x="254.492188" xlink:href="#DejaVuSans-45"/>
       <use x="290.576172" xlink:href="#DejaVuSans-48"/>
       <use x="354.199219" xlink:href="#DejaVuSans-49"/>
      </g>
     </g>
    </g>
    <g id="xtick_4">
     <g id="line2d_4">
      <g>
       <use style="stroke:#000000;stroke-width:0.8;" x="174.418741" xlink:href="#mcd59bb6212" y="252"/>
      </g>
     </g>
     <g id="text_4">
      <!-- 2016-05 -->
      <g transform="translate(161.597459 293.917817)rotate(-45)scale(0.1 -0.1)">
       <use xlink:href="#DejaVuSans-50"/>
       <use x="63.623047" xlink:href="#DejaVuSans-48"/>
       <use x="127.246094" xlink:href="#DejaVuSans-49"/>
       <use x="190.869141" xlink:href="#DejaVuSans-54"/>
       <use x="254.492188" xlink:href="#DejaVuSans-45"/>
       <use x="290.576172" xlink:href="#DejaVuSans-48"/>
       <use x="354.199219" xlink:href="#DejaVuSans-53"/>
      </g>
     </g>
    </g>
    <g id="xtick_5">
     <g id="line2d_5">
      <g>
       <use style="stroke:#000000;stroke-width:0.8;" x="212.815385" xlink:href="#mcd59bb6212" y="252"/>
      </g>
     </g>
     <g id="text_5">
      <!-- 2016-09 -->
      <g transform="translate(199.994102 293.917817)rotate(-45)scale(0.1 -0.1)">
       <use xlink:href="#DejaVuSans-50"/>
       <use x="63.623047" xlink:href="#DejaVuSans-48"/>
       <use x="127.246094" xlink:href="#DejaVuSans-49"/>
       <use x="190.869141" xlink:href="#DejaVuSans-54"/>
       <use x="254.492188" xlink:href="#DejaVuSans-45"/>
       <use x="290.576172" xlink:href="#DejaVuSans-48"/>
       <use x="354.199219" xlink:href="#DejaVuSans-57"/>
      </g>
     </g>
    </g>
    <g id="xtick_6">
     <g id="line2d_6">
      <g>
       <use style="stroke:#000000;stroke-width:0.8;" x="250.89986" xlink:href="#mcd59bb6212" y="252"/>
      </g>
     </g>
     <g id="text_6">
      <!-- 2017-01 -->
      <g transform="translate(238.078578 293.917817)rotate(-45)scale(0.1 -0.1)">
       <defs>
        <path d="M 8.203125 72.90625 
L 55.078125 72.90625 
L 55.078125 68.703125 
L 28.609375 0 
L 18.3125 0 
L 43.21875 64.59375 
L 8.203125 64.59375 
z
" id="DejaVuSans-55"/>
       </defs>
       <use xlink:href="#DejaVuSans-50"/>
       <use x="63.623047" xlink:href="#DejaVuSans-48"/>
       <use x="127.246094" xlink:href="#DejaVuSans-49"/>
       <use x="190.869141" xlink:href="#DejaVuSans-55"/>
       <use x="254.492188" xlink:href="#DejaVuSans-45"/>
       <use x="290.576172" xlink:href="#DejaVuSans-48"/>
       <use x="354.199219" xlink:href="#DejaVuSans-49"/>
      </g>
     </g>
    </g>
    <g id="xtick_7">
     <g id="line2d_7">
      <g>
       <use style="stroke:#000000;stroke-width:0.8;" x="288.36" xlink:href="#mcd59bb6212" y="252"/>
      </g>
     </g>
     <g id="text_7">
      <!-- 2017-05 -->
      <g transform="translate(275.538718 293.917817)rotate(-45)scale(0.1 -0.1)">
       <use xlink:href="#DejaVuSans-50"/>
       <use x="63.623047" xlink:href="#DejaVuSans-48"/>
       <use x="127.246094" xlink:href="#DejaVuSans-49"/>
       <use x="190.869141" xlink:href="#DejaVuSans-55"/>
       <use x="254.492188" xlink:href="#DejaVuSans-45"/>
       <use x="290.576172" xlink:href="#DejaVuSans-48"/>
       <use x="354.199219" xlink:href="#DejaVuSans-53"/>
      </g>
     </g>
    </g>
    <g id="xtick_8">
     <g id="line2d_8">
      <g>
       <use style="stroke:#000000;stroke-width:0.8;" x="326.756643" xlink:href="#mcd59bb6212" y="252"/>
      </g>
     </g>
     <g id="text_8">
      <!-- 2017-09 -->
      <g transform="translate(313.935361 293.917817)rotate(-45)scale(0.1 -0.1)">
       <use xlink:href="#DejaVuSans-50"/>
       <use x="63.623047" xlink:href="#DejaVuSans-48"/>
       <use x="127.246094" xlink:href="#DejaVuSans-49"/>
       <use x="190.869141" xlink:href="#DejaVuSans-55"/>
       <use x="254.492188" xlink:href="#DejaVuSans-45"/>
       <use x="290.576172" xlink:href="#DejaVuSans-48"/>
       <use x="354.199219" xlink:href="#DejaVuSans-57"/>
      </g>
     </g>
    </g>
    <g id="xtick_9">
     <g id="line2d_9">
      <g>
       <use style="stroke:#000000;stroke-width:0.8;" x="364.841119" xlink:href="#mcd59bb6212" y="252"/>
      </g>
     </g>
     <g id="text_9">
      <!-- 2018-01 -->
      <g transform="translate(352.019837 293.917817)rotate(-45)scale(0.1 -0.1)">
       <defs>
        <path d="M 31.78125 34.625 
Q 24.75 34.625 20.71875 30.859375 
Q 16.703125 27.09375 16.703125 20.515625 
Q 16.703125 13.921875 20.71875 10.15625 
Q 24.75 6.390625 31.78125 6.390625 
Q 38.8125 6.390625 42.859375 10.171875 
Q 46.921875 13.96875 46.921875 20.515625 
Q 46.921875 27.09375 42.890625 30.859375 
Q 38.875 34.625 31.78125 34.625 
z
M 21.921875 38.8125 
Q 15.578125 40.375 12.03125 44.71875 
Q 8.5 49.078125 8.5 55.328125 
Q 8.5 64.0625 14.71875 69.140625 
Q 20.953125 74.21875 31.78125 74.21875 
Q 42.671875 74.21875 48.875 69.140625 
Q 55.078125 64.0625 55.078125 55.328125 
Q 55.078125 49.078125 51.53125 44.71875 
Q 48 40.375 41.703125 38.8125 
Q 48.828125 37.15625 52.796875 32.3125 
Q 56.78125 27.484375 56.78125 20.515625 
Q 56.78125 9.90625 50.3125 4.234375 
Q 43.84375 -1.421875 31.78125 -1.421875 
Q 19.734375 -1.421875 13.25 4.234375 
Q 6.78125 9.90625 6.78125 20.515625 
Q 6.78125 27.484375 10.78125 32.3125 
Q 14.796875 37.15625 21.921875 38.8125 
z
M 18.3125 54.390625 
Q 18.3125 48.734375 21.84375 45.5625 
Q 25.390625 42.390625 31.78125 42.390625 
Q 38.140625 42.390625 41.71875 45.5625 
Q 45.3125 48.734375 45.3125 54.390625 
Q 45.3125 60.0625 41.71875 63.234375 
Q 38.140625 66.40625 31.78125 66.40625 
Q 25.390625 66.40625 21.84375 63.234375 
Q 18.3125 60.0625 18.3125 54.390625 
z
" id="DejaVuSans-56"/>
       </defs>
       <use xlink:href="#DejaVuSans-50"/>
       <use x="63.623047" xlink:href="#DejaVuSans-48"/>
       <use x="127.246094" xlink:href="#DejaVuSans-49"/>
       <use x="190.869141" xlink:href="#DejaVuSans-56"/>
       <use x="254.492188" xlink:href="#DejaVuSans-45"/>
       <use x="290.576172" xlink:href="#DejaVuSans-48"/>
       <use x="354.199219" xlink:href="#DejaVuSans-49"/>
      </g>
     </g>
    </g>
   </g>
   <g id="matplotlib.axis_2">
    <g id="ytick_1">
     <g id="line2d_10">
      <defs>
       <path d="M 0 0 
L -3.5 0 
" id="m13de07ed61" style="stroke:#000000;stroke-width:0.8;"/>
      </defs>
      <g>
       <use style="stroke:#000000;stroke-width:0.8;" x="54" xlink:href="#m13de07ed61" y="242.116364"/>
      </g>
     </g>
     <g id="text_10">
      <!-- 0 -->
      <g transform="translate(40.6375 245.915582)scale(0.1 -0.1)">
       <use xlink:href="#DejaVuSans-48"/>
      </g>
     </g>
    </g>
    <g id="ytick_2">
     <g id="line2d_11">
      <g>
       <use style="stroke:#000000;stroke-width:0.8;" x="54" xlink:href="#m13de07ed61" y="214.722693"/>
      </g>
     </g>
     <g id="text_11">
      <!-- 5 -->
      <g transform="translate(40.6375 218.521912)scale(0.1 -0.1)">
       <use xlink:href="#DejaVuSans-53"/>
      </g>
     </g>
    </g>
    <g id="ytick_3">
     <g id="line2d_12">
      <g>
       <use style="stroke:#000000;stroke-width:0.8;" x="54" xlink:href="#m13de07ed61" y="187.329022"/>
      </g>
     </g>
     <g id="text_12">
      <!-- 10 -->
      <g transform="translate(34.275 191.128241)scale(0.1 -0.1)">
       <use xlink:href="#DejaVuSans-49"/>
       <use x="63.623047" xlink:href="#DejaVuSans-48"/>
      </g>
     </g>
    </g>
    <g id="ytick_4">
     <g id="line2d_13">
      <g>
       <use style="stroke:#000000;stroke-width:0.8;" x="54" xlink:href="#m13de07ed61" y="159.935352"/>
      </g>
     </g>
     <g id="text_13">
      <!-- 15 -->
      <g transform="translate(34.275 163.73457)scale(0.1 -0.1)">
       <use xlink:href="#DejaVuSans-49"/>
       <use x="63.623047" xlink:href="#DejaVuSans-53"/>
      </g>
     </g>
    </g>
    <g id="ytick_5">
     <g id="line2d_14">
      <g>
       <use style="stroke:#000000;stroke-width:0.8;" x="54" xlink:href="#m13de07ed61" y="132.541681"/>
      </g>
     </g>
     <g id="text_14">
      <!-- 20 -->
      <g transform="translate(34.275 136.3409)scale(0.1 -0.1)">
       <use xlink:href="#DejaVuSans-50"/>
       <use x="63.623047" xlink:href="#DejaVuSans-48"/>
      </g>
     </g>
    </g>
    <g id="ytick_6">
     <g id="line2d_15">
      <g>
       <use style="stroke:#000000;stroke-width:0.8;" x="54" xlink:href="#m13de07ed61" y="105.14801"/>
      </g>
     </g>
     <g id="text_15">
      <!-- 25 -->
      <g transform="translate(34.275 108.947229)scale(0.1 -0.1)">
       <use xlink:href="#DejaVuSans-50"/>
       <use x="63.623047" xlink:href="#DejaVuSans-53"/>
      </g>
     </g>
    </g>
    <g id="ytick_7">
     <g id="line2d_16">
      <g>
       <use style="stroke:#000000;stroke-width:0.8;" x="54" xlink:href="#m13de07ed61" y="77.75434"/>
      </g>
     </g>
     <g id="text_16">
      <!-- 30 -->
      <g transform="translate(34.275 81.553559)scale(0.1 -0.1)">
       <defs>
        <path d="M 40.578125 39.3125 
Q 47.65625 37.796875 51.625 33 
Q 55.609375 28.21875 55.609375 21.1875 
Q 55.609375 10.40625 48.1875 4.484375 
Q 40.765625 -1.421875 27.09375 -1.421875 
Q 22.515625 -1.421875 17.65625 -0.515625 
Q 12.796875 0.390625 7.625 2.203125 
L 7.625 11.71875 
Q 11.71875 9.328125 16.59375 8.109375 
Q 21.484375 6.890625 26.8125 6.890625 
Q 36.078125 6.890625 40.9375 10.546875 
Q 45.796875 14.203125 45.796875 21.1875 
Q 45.796875 27.640625 41.28125 31.265625 
Q 36.765625 34.90625 28.71875 34.90625 
L 20.21875 34.90625 
L 20.21875 43.015625 
L 29.109375 43.015625 
Q 36.375 43.015625 40.234375 45.921875 
Q 44.09375 48.828125 44.09375 54.296875 
Q 44.09375 59.90625 40.109375 62.90625 
Q 36.140625 65.921875 28.71875 65.921875 
Q 24.65625 65.921875 20.015625 65.03125 
Q 15.375 64.15625 9.8125 62.3125 
L 9.8125 71.09375 
Q 15.4375 72.65625 20.34375 73.4375 
Q 25.25 74.21875 29.59375 74.21875 
Q 40.828125 74.21875 47.359375 69.109375 
Q 53.90625 64.015625 53.90625 55.328125 
Q 53.90625 49.265625 50.4375 45.09375 
Q 46.96875 40.921875 40.578125 39.3125 
z
" id="DejaVuSans-51"/>
       </defs>
       <use xlink:href="#DejaVuSans-51"/>
       <use x="63.623047" xlink:href="#DejaVuSans-48"/>
      </g>
     </g>
    </g>
    <g id="ytick_8">
     <g id="line2d_17">
      <g>
       <use style="stroke:#000000;stroke-width:0.8;" x="54" xlink:href="#m13de07ed61" y="50.360669"/>
      </g>
     </g>
     <g id="text_17">
      <!-- 35 -->
      <g transform="translate(34.275 54.159888)scale(0.1 -0.1)">
       <use xlink:href="#DejaVuSans-51"/>
       <use x="63.623047" xlink:href="#DejaVuSans-53"/>
      </g>
     </g>
    </g>
   </g>
   <g id="line2d_18">
    <path clip-path="url(#p0f28f7adb3)" d="M 69.218182 183.219972 
L 69.53035 130.788486 
L 69.842517 167.989091 
L 70.154685 165.633235 
L 70.466853 136.048071 
L 70.779021 166.071534 
L 71.091189 158.182157 
L 71.403357 153.634807 
L 71.715524 138.568289 
L 72.027692 154.894916 
L 72.33986 154.894916 
L 72.652028 164.09919 
L 72.964196 142.293828 
L 73.276364 171.988567 
L 73.588531 77.206466 
L 73.900699 149.964056 
L 74.525035 161.633759 
L 74.837203 170.07101 
L 75.149371 158.73003 
L 75.461538 127.939544 
L 75.773706 171.111969 
L 76.398042 132.651256 
L 76.71021 167.769942 
L 77.022378 166.400258 
L 77.334545 146.402878 
L 77.646713 170.016223 
L 78.271049 113.20175 
L 78.583217 177.576876 
L 78.895385 166.126321 
L 79.207552 163.606104 
L 79.51972 134.733175 
L 79.831888 137.910841 
L 80.144056 151.005015 
L 80.456224 123.940069 
L 80.768392 158.017795 
L 81.080559 150.785866 
L 81.392727 167.222068 
L 81.704895 174.508785 
L 82.017063 79.343173 
L 82.329231 149.909268 
L 82.641399 135.390623 
L 82.953566 95.121927 
L 83.265734 155.716726 
L 83.89007 138.403927 
L 84.202238 120.269317 
L 84.514406 181.959863 
L 84.826573 160.044926 
L 85.138741 149.197033 
L 85.450909 162.017271 
L 85.763077 84.000097 
L 86.075245 167.331643 
L 86.387413 153.251296 
L 87.011748 112.708664 
L 87.323916 117.52995 
L 87.636084 133.363491 
L 87.948252 154.894916 
L 88.26042 148.703947 
L 88.572587 183.384334 
L 88.884755 173.029526 
L 89.196923 76.603806 
L 89.509091 154.840129 
L 89.821259 171.440693 
L 90.133427 140.540633 
L 90.445594 135.390623 
L 90.757762 158.182157 
L 91.06993 124.871453 
L 91.382098 153.963532 
L 91.694266 127.665608 
L 92.006434 149.47097 
L 92.318601 144.978408 
L 92.630769 165.304511 
L 92.942937 136.869881 
L 93.255105 130.733699 
L 93.879441 155.661939 
L 94.191608 129.857101 
L 94.503776 142.403403 
L 94.815944 140.047547 
L 95.128112 170.509309 
L 95.44028 158.456094 
L 95.752448 162.455569 
L 96.064615 163.770466 
L 96.376783 172.53644 
L 96.688951 161.140673 
L 97.001119 160.921524 
L 97.313287 159.990139 
L 97.625455 155.333215 
L 97.937622 183.548696 
L 98.24979 161.359823 
L 98.561958 123.446982 
L 98.874126 114.242709 
L 99.186294 164.427914 
L 99.498462 166.56462 
L 99.810629 155.661939 
L 100.122797 137.417754 
L 100.434965 152.703423 
L 100.747133 126.460286 
L 101.059301 164.153977 
L 101.371469 168.098666 
L 101.683636 165.633235 
L 101.995804 135.774134 
L 102.307972 142.45819 
L 102.62014 129.47359 
L 102.932308 129.637952 
L 103.244476 122.953896 
L 103.556643 132.432106 
L 104.180979 106.901205 
L 104.805315 142.239041 
L 105.117483 131.884233 
L 105.42965 109.69536 
L 105.741818 102.846942 
L 106.053986 146.183729 
L 106.366154 136.869881 
L 106.678322 160.154501 
L 106.99049 114.133134 
L 107.302657 151.169377 
L 107.614825 139.116162 
L 107.926993 139.554461 
L 108.239161 160.510619 
L 108.551329 140.704995 
L 108.863497 162.400782 
L 109.175664 148.484797 
L 109.8 157.716464 
L 110.112168 158.346519 
L 110.424336 164.09919 
L 110.736503 155.716726 
L 111.048671 78.466575 
L 111.360839 163.167805 
L 111.673007 153.032147 
L 112.297343 171.550268 
L 112.60951 161.085886 
L 112.921678 171.605055 
L 113.233846 174.837509 
L 113.546014 165.468873 
L 113.858182 144.649684 
L 114.17035 155.278428 
L 114.482517 161.633759 
L 114.794685 162.565144 
L 115.106853 204.641822 
L 115.419021 170.07101 
L 116.043357 156.702899 
L 116.355524 174.453997 
L 116.667692 155.881088 
L 116.97986 177.631663 
L 117.292028 143.553937 
L 117.604196 155.497577 
L 117.916364 156.155025 
L 118.228531 149.964056 
L 118.540699 129.857101 
L 118.852867 149.306608 
L 119.165035 191.985946 
L 119.477203 176.535916 
L 119.789371 142.403403 
L 120.101538 179.439645 
L 120.413706 171.221544 
L 120.725874 137.034243 
L 121.038042 182.617311 
L 121.35021 125.474114 
L 121.662378 145.855005 
L 121.974545 175.714106 
L 122.286713 190.944987 
L 122.598881 163.989615 
L 122.911049 164.921 
L 123.223217 171.769417 
L 123.535385 152.922572 
L 123.847552 182.398162 
L 124.15972 144.156597 
L 124.471888 157.141197 
L 124.784056 142.622552 
L 125.096224 146.074154 
L 125.720559 170.947607 
L 126.344895 84.821907 
L 126.657063 139.280524 
L 126.969231 155.004491 
L 127.281399 154.127894 
L 127.593566 172.207716 
L 127.905734 142.129466 
L 128.217902 129.857101 
L 128.53007 134.075727 
L 128.842238 118.570909 
L 129.154406 119.666656 
L 130.090909 155.004491 
L 130.403077 105.36716 
L 130.715245 116.023298 
L 131.027413 140.924144 
L 131.33958 149.580544 
L 131.651748 121.310276 
L 131.963916 160.044926 
L 132.276084 148.156073 
L 132.588252 183.713058 
L 132.90042 180.973691 
L 133.212587 182.617311 
L 133.524755 196.04021 
L 134.149091 202.83384 
L 134.461259 198.724789 
L 134.773427 180.644967 
L 135.085594 182.726886 
L 135.397762 165.688023 
L 135.70993 113.749623 
L 136.022098 127.61082 
L 136.334266 158.236944 
L 136.646434 131.33636 
L 136.958601 161.962483 
L 137.270769 164.427914 
L 137.582937 136.595944 
L 138.207273 162.072058 
L 138.519441 154.127894 
L 138.831608 159.77099 
L 139.143776 181.685926 
L 139.455944 122.296448 
L 139.768112 121.967724 
L 140.392448 175.714106 
L 140.704615 145.800218 
L 141.016783 148.210861 
L 141.328951 128.158694 
L 141.641119 141.472018 
L 141.953287 127.282096 
L 142.265455 143.006063 
L 142.577622 134.733175 
L 142.88979 148.320435 
L 143.201958 114.790583 
L 143.514126 163.496529 
L 143.826294 166.674195 
L 144.138462 154.840129 
L 144.450629 137.801266 
L 144.762797 153.470445 
L 145.074965 156.812473 
L 145.387133 129.254441 
L 145.699301 147.224689 
L 146.011469 104.02487 
L 146.323636 167.550792 
L 146.635804 155.607152 
L 146.947972 132.15817 
L 147.26014 179.110921 
L 147.884476 202.724265 
L 148.196643 193.218662 
L 148.508811 167.167281 
L 148.820979 163.715678 
L 149.133147 165.030574 
L 149.445315 145.087982 
L 149.757483 162.729506 
L 150.06965 147.498625 
L 150.381818 169.03005 
L 150.693986 144.594896 
L 151.006154 137.636904 
L 151.318322 138.732651 
L 151.63049 161.524185 
L 151.942657 161.305035 
L 152.254825 186.397638 
L 152.566993 159.77099 
L 152.879161 152.484273 
L 153.191329 138.842225 
L 153.503497 152.75821 
L 153.815664 187.876896 
L 154.127832 105.531522 
L 154.44 137.910841 
L 154.752168 150.566716 
L 155.064336 242.116364 
L 155.376503 166.783769 
L 155.688671 138.102596 
L 156.000839 163.660891 
L 156.313007 135.171473 
L 156.625175 181.247627 
L 156.937343 93.971393 
L 157.24951 127.336884 
L 157.561678 178.72741 
L 158.186014 110.955469 
L 158.498182 157.469921 
L 158.81035 159.990139 
L 159.122517 166.345471 
L 159.434685 112.818238 
L 159.746853 97.203846 
L 160.059021 184.69923 
L 160.371189 174.070486 
L 160.683357 180.261455 
L 160.995524 112.708664 
L 161.307692 123.118258 
L 161.61986 137.527329 
L 161.932028 172.262504 
L 162.244196 147.169901 
L 162.868531 205.354058 
L 163.180699 210.339706 
L 163.492867 207.107253 
L 163.805035 90.684152 
L 164.117203 178.672622 
L 164.429371 105.586309 
L 164.741538 174.563572 
L 165.053706 163.825253 
L 165.365874 136.815094 
L 165.678042 142.622552 
L 165.99021 156.2646 
L 166.302378 156.428962 
L 166.614545 177.193364 
L 166.926713 182.507736 
L 167.238881 147.334263 
L 167.863217 170.89282 
L 168.175385 147.772562 
L 168.487552 168.043878 
L 168.79972 155.552364 
L 169.111888 176.86464 
L 169.424056 183.274759 
L 169.736224 182.452949 
L 170.048392 144.266172 
L 170.360559 188.698706 
L 170.672727 201.354582 
L 170.984895 147.032933 
L 171.297063 160.538012 
L 171.609231 162.839081 
L 171.921399 124.32358 
L 172.233566 200.642346 
L 172.545734 196.533296 
L 172.857902 198.450853 
L 173.17007 185.575827 
L 173.482238 190.232751 
L 173.794406 201.409369 
L 174.106573 208.422149 
L 174.418741 209.901407 
L 174.730909 197.409893 
L 175.043077 196.807232 
L 175.667413 209.682258 
L 175.97958 176.508522 
L 176.291748 155.935876 
L 176.603916 205.627994 
L 176.916084 185.904552 
L 177.228252 191.766797 
L 177.54042 189.684878 
L 177.852587 199.217875 
L 178.164755 196.588083 
L 178.476923 203.600863 
L 178.789091 195.82106 
L 179.101259 153.251296 
L 179.413427 201.464156 
L 179.725594 197.081169 
L 180.037762 178.453473 
L 180.34993 186.507212 
L 180.662098 162.181633 
L 180.974266 209.079597 
L 181.286434 204.860972 
L 181.910769 208.038637 
L 182.222937 212.31205 
L 182.535105 213.024285 
L 182.847273 209.243959 
L 183.159441 188.534344 
L 183.471608 198.286491 
L 183.783776 189.246579 
L 184.095944 167.441217 
L 184.408112 173.686974 
L 184.72028 173.906124 
L 185.032448 143.882661 
L 185.344615 159.990139 
L 185.656783 135.281048 
L 185.968951 146.622028 
L 186.281119 150.511929 
L 186.593287 171.824205 
L 186.905455 171.550268 
L 187.217622 175.330595 
L 187.52979 183.822633 
L 187.841958 172.700802 
L 188.466294 138.294352 
L 189.090629 189.739665 
L 189.402797 191.054562 
L 189.714965 136.376795 
L 190.027133 168.482177 
L 190.339301 175.275807 
L 190.651469 175.330595 
L 190.963636 146.78639 
L 191.275804 146.238516 
L 191.587972 157.634283 
L 191.90014 181.850288 
L 192.212308 109.969297 
L 192.524476 156.209813 
L 192.836643 177.357726 
L 193.148811 160.921524 
L 193.460979 181.850288 
L 193.773147 161.250248 
L 194.085315 177.467301 
L 194.397483 160.647587 
L 194.70965 164.044402 
L 195.021818 123.227833 
L 195.333986 101.805983 
L 195.646154 133.253917 
L 195.958322 148.43001 
L 196.27049 184.480081 
L 196.582657 176.261979 
L 196.894825 173.248676 
L 197.206993 186.068914 
L 197.519161 162.784293 
L 197.831329 178.069962 
L 198.143497 156.976835 
L 198.455664 150.950228 
L 198.767832 171.495481 
L 199.08 172.043354 
L 199.392168 182.288587 
L 199.704336 154.456618 
L 200.016503 194.560951 
L 200.328671 174.618359 
L 200.640839 164.756638 
L 200.953007 115.941117 
L 201.265175 169.084838 
L 201.577343 183.658271 
L 201.88951 182.069438 
L 202.201678 183.000822 
L 202.826014 142.184253 
L 203.45035 185.603221 
L 203.762517 167.550792 
L 204.074685 168.482177 
L 204.386853 162.784293 
L 204.699021 174.673147 
L 205.011189 140.047547 
L 205.323357 129.966676 
L 205.635524 183.658271 
L 205.947692 155.716726 
L 206.25986 189.958815 
L 206.572028 172.372078 
L 206.884196 120.871977 
L 207.196364 162.400782 
L 207.508531 161.907696 
L 207.820699 179.330071 
L 208.132867 176.700278 
L 208.445035 170.344947 
L 208.757203 188.589131 
L 209.069371 184.151357 
L 209.381538 125.748051 
L 209.693706 176.535916 
L 210.005874 145.909792 
L 210.318042 176.152405 
L 210.63021 166.455045 
L 210.942378 184.480081 
L 211.254545 176.316767 
L 211.566713 137.746479 
L 211.878881 185.411465 
L 212.191049 173.906124 
L 212.503217 167.331643 
L 212.815385 180.042306 
L 213.127552 173.796549 
L 213.43972 171.550268 
L 213.751888 163.05823 
L 214.064056 169.084838 
L 214.376224 102.901729 
L 214.688392 160.757162 
L 215.000559 166.455045 
L 215.312727 169.03005 
L 215.624895 178.836984 
L 215.937063 100.765023 
L 216.249231 185.685402 
L 216.561399 178.782197 
L 216.873566 164.153977 
L 217.185734 170.509309 
L 217.497902 184.260931 
L 217.81007 148.539585 
L 218.122238 162.948656 
L 218.434406 163.825253 
L 218.746573 178.343898 
L 219.058741 169.523136 
L 219.370909 170.838033 
L 219.683077 187.109873 
L 219.995245 73.535715 
L 220.61958 175.604531 
L 220.931748 144.540109 
L 221.243916 178.617835 
L 221.556084 171.385906 
L 221.868252 158.510881 
L 222.18042 171.495481 
L 222.492587 137.143818 
L 222.804755 154.018319 
L 223.116923 148.046499 
L 223.429091 166.893344 
L 223.741259 163.715678 
L 224.053427 144.92362 
L 224.677762 182.343374 
L 224.98993 176.974215 
L 225.302098 58.140472 
L 225.614266 137.965628 
L 225.926434 160.538012 
L 226.238601 134.185301 
L 226.550769 165.085362 
L 226.862937 79.452747 
L 227.175105 129.144866 
L 227.487273 133.911365 
L 227.799441 171.221544 
L 228.111608 161.688547 
L 228.423776 145.14277 
L 228.735944 144.759258 
L 229.048112 160.428438 
L 229.36028 159.003967 
L 229.672448 162.619931 
L 229.984615 160.538012 
L 230.296783 155.607152 
L 230.608951 163.003443 
L 230.921119 152.484273 
L 231.233287 115.66718 
L 231.545455 113.092175 
L 232.16979 161.140673 
L 232.481958 154.675767 
L 232.794126 170.564096 
L 233.106294 136.815094 
L 233.418462 133.034767 
L 233.730629 142.019891 
L 234.042797 134.842749 
L 234.354965 149.854481 
L 234.667133 83.507011 
L 234.979301 85.424568 
L 235.291469 167.550792 
L 235.603636 167.60558 
L 235.915804 160.811949 
L 236.227972 161.140673 
L 236.852308 93.697456 
L 237.164476 153.744382 
L 237.476643 174.618359 
L 237.788811 169.139625 
L 238.100979 153.196509 
L 238.413147 168.756114 
L 238.725315 170.07101 
L 239.037483 153.689595 
L 239.34965 166.290683 
L 239.661818 97.53257 
L 239.973986 105.257585 
L 240.286154 146.512453 
L 240.598322 146.622028 
L 240.91049 145.581068 
L 241.222657 135.007111 
L 241.534825 166.838557 
L 241.846993 172.646015 
L 242.159161 87.561274 
L 242.471329 143.58133 
L 242.783497 144.047023 
L 243.095664 155.333215 
L 243.407832 151.278952 
L 243.72 154.073106 
L 244.032168 149.47097 
L 244.344336 92.711284 
L 244.656503 153.196509 
L 245.280839 127.665608 
L 245.593007 163.606104 
L 246.217343 152.977359 
L 246.52951 153.306083 
L 246.841678 157.305559 
L 247.153846 93.313945 
L 247.466014 101.312897 
L 247.778182 125.912413 
L 248.09035 91.889474 
L 248.402517 72.166031 
L 248.714685 157.634283 
L 249.026853 127.227309 
L 249.339021 137.910841 
L 249.651189 152.539061 
L 249.963357 118.790058 
L 250.275524 149.964056 
L 250.587692 159.168329 
L 250.89986 129.364015 
L 251.212028 62.90697 
L 251.524196 158.291732 
L 251.836364 136.979456 
L 252.148531 143.170425 
L 252.460699 164.482701 
L 252.772867 146.731602 
L 253.085035 98.025656 
L 253.397203 155.168853 
L 253.709371 153.306083 
L 254.021538 177.029002 
L 254.333706 162.072058 
L 254.645874 171.057182 
L 254.958042 163.551316 
L 255.27021 102.299069 
L 255.582378 177.138577 
L 255.894545 128.049119 
L 256.206713 163.113018 
L 256.518881 165.249724 
L 256.831049 173.248676 
L 257.143217 171.166757 
L 257.455385 137.910841 
L 257.767552 178.015174 
L 258.07972 152.867785 
L 258.391888 167.496005 
L 258.704056 170.838033 
L 259.016224 172.481653 
L 259.328392 127.884757 
L 259.640559 164.866212 
L 259.952727 146.78639 
L 260.264895 81.151155 
L 260.577063 172.262504 
L 260.889231 169.851861 
L 261.201399 172.646015 
L 261.513566 143.170425 
L 261.825734 159.387478 
L 262.137902 159.716202 
L 262.45007 140.81457 
L 262.762238 177.029002 
L 263.074406 150.128418 
L 263.386573 183.87742 
L 263.698741 162.729506 
L 264.010909 131.33636 
L 264.635245 179.823157 
L 264.947413 175.111445 
L 265.25958 153.086934 
L 265.571748 164.866212 
L 265.883916 44.443636 
L 266.508252 180.590179 
L 266.82042 162.23642 
L 267.132587 165.961959 
L 267.444755 183.87742 
L 267.756923 176.097617 
L 268.381259 76.494231 
L 268.693427 174.837509 
L 269.005594 158.784818 
L 269.317762 175.111445 
L 269.62993 172.919952 
L 269.942098 183.986995 
L 270.254266 168.536964 
L 270.566434 116.762927 
L 270.878601 176.152405 
L 271.190769 171.769417 
L 271.502937 174.837509 
L 271.815105 170.564096 
L 272.127273 177.68645 
L 272.439441 98.409168 
L 272.751608 124.871453 
L 273.063776 162.400782 
L 273.375944 150.950228 
L 274.00028 173.193888 
L 274.312448 168.591752 
L 274.624615 104.052264 
L 274.936783 142.732127 
L 275.248951 145.909792 
L 275.873287 175.659319 
L 276.185455 176.590703 
L 276.497622 160.209288 
L 276.80979 169.139625 
L 277.121958 128.542205 
L 277.434126 152.045975 
L 277.746294 160.866737 
L 278.058462 81.534666 
L 278.370629 166.728982 
L 278.682797 177.741238 
L 278.994965 180.042306 
L 279.307133 175.494957 
L 279.619301 162.893868 
L 279.931469 171.71463 
L 280.243636 173.467825 
L 280.555804 181.768107 
L 281.18014 146.293304 
L 281.492308 139.335311 
L 281.804476 140.157122 
L 282.428811 181.19284 
L 282.740979 165.249724 
L 283.053147 175.878468 
L 283.365315 180.480605 
L 283.98965 129.309228 
L 284.301818 174.673147 
L 284.613986 144.540109 
L 284.926154 179.54922 
L 285.238322 181.41199 
L 285.55049 146.950752 
L 285.862657 156.538537 
L 286.174825 156.100238 
L 286.486993 164.70185 
L 286.799161 161.578972 
L 287.111329 160.044926 
L 287.735664 133.363491 
L 288.047832 159.058754 
L 288.36 163.222592 
L 288.672168 131.500722 
L 288.984336 181.41199 
L 289.296503 180.097093 
L 289.608671 137.965628 
L 289.920839 179.165709 
L 290.233007 138.9518 
L 290.545175 154.566192 
L 290.857343 179.439645 
L 291.16951 151.333739 
L 291.481678 172.262504 
L 291.793846 135.938496 
L 292.106014 188.589131 
L 292.418182 198.779577 
L 292.73035 185.959339 
L 293.042517 189.630091 
L 293.354685 184.370506 
L 293.666853 194.725313 
L 293.979021 189.958815 
L 294.291189 153.306083 
L 294.603357 192.862544 
L 294.915524 198.916545 
L 295.227692 193.903503 
L 295.53986 186.945511 
L 295.852028 202.066817 
L 296.164196 200.806708 
L 296.476364 176.535916 
L 296.788531 190.561476 
L 297.100699 193.793929 
L 297.412867 190.177964 
L 297.725035 202.395541 
L 298.037203 188.041258 
L 298.349371 193.519992 
L 298.661538 195.273187 
L 298.973706 184.425293 
L 299.285874 193.246055 
L 299.598042 187.16466 
L 299.91021 183.329546 
L 300.222378 197.135956 
L 300.534545 199.053513 
L 300.846713 184.151357 
L 301.158881 190.451901 
L 301.471049 199.053513 
L 301.783217 198.368672 
L 302.095385 196.368934 
L 302.407552 170.290159 
L 302.71972 198.560427 
L 303.031888 202.779053 
L 303.344056 199.437025 
L 303.656224 188.150832 
L 303.968392 188.972643 
L 304.280559 203.65565 
L 304.592727 196.204572 
L 304.904895 203.436501 
L 305.217063 202.505116 
L 305.529231 193.300843 
L 305.841399 192.205096 
L 306.153566 193.191268 
L 306.465734 202.01203 
L 306.777902 197.738617 
L 307.09007 190.232751 
L 307.402238 190.013602 
L 307.714406 200.697134 
L 308.026573 181.41199 
L 308.338741 184.041782 
L 308.650909 162.729506 
L 308.963077 162.017271 
L 309.587413 181.19284 
L 309.89958 192.451639 
L 310.211748 150.402354 
L 310.523916 163.222592 
L 310.836084 181.685926 
L 311.148252 176.426341 
L 311.46042 194.615739 
L 311.772587 173.467825 
L 312.084755 186.452425 
L 312.396923 164.647063 
L 312.709091 167.769942 
L 313.021259 194.451377 
L 313.333427 156.702899 
L 313.645594 192.424245 
L 313.957762 199.272663 
L 314.582098 184.534868 
L 314.894266 139.335311 
L 315.206434 165.468873 
L 315.518601 159.935352 
L 315.830769 145.526281 
L 316.142937 183.384334 
L 316.455105 182.452949 
L 316.767273 174.947083 
L 317.079441 173.193888 
L 317.391608 172.207716 
L 317.703776 190.999774 
L 318.015944 182.398162 
L 318.328112 196.533296 
L 318.64028 183.713058 
L 318.952448 200.642346 
L 319.264615 115.174094 
L 319.576783 133.089555 
L 319.888951 168.263028 
L 320.201119 165.551054 
L 320.513287 179.54922 
L 320.825455 149.580544 
L 321.137622 172.53644 
L 321.44979 181.740714 
L 321.761958 172.509047 
L 322.074126 151.607676 
L 322.386294 196.64287 
L 322.698462 178.015174 
L 323.010629 180.535392 
L 323.322797 128.487418 
L 323.634965 186.288063 
L 323.947133 188.972643 
L 324.259301 184.644443 
L 324.571469 168.482177 
L 324.883636 193.191268 
L 325.195804 125.14539 
L 325.507972 176.481129 
L 325.82014 174.782721 
L 326.132308 167.550792 
L 326.444476 178.453473 
L 326.756643 157.579496 
L 327.068811 187.329022 
L 327.380979 196.094997 
L 327.693147 164.866212 
L 328.005315 177.576876 
L 328.317483 143.937448 
L 328.62965 158.017795 
L 328.941818 146.676815 
L 329.253986 150.018843 
L 329.566154 167.167281 
L 329.878322 167.167281 
L 330.19049 188.369982 
L 330.502657 171.276331 
L 330.814825 188.096045 
L 331.126993 194.99925 
L 331.439161 170.89282 
L 331.751329 179.384858 
L 332.375664 156.593324 
L 332.687832 180.973691 
L 333 138.403927 
L 333.312168 139.99276 
L 333.624336 161.41461 
L 333.936503 149.854481 
L 334.248671 181.357202 
L 334.560839 150.621504 
L 334.873007 179.494433 
L 335.185175 185.575827 
L 335.497343 169.577924 
L 335.80951 125.419327 
L 336.121678 129.692739 
L 336.433846 178.124749 
L 336.746014 153.58002 
L 337.058182 178.891772 
L 337.37035 181.028478 
L 337.682517 123.940069 
L 337.994685 155.059278 
L 338.306853 162.181633 
L 338.619021 160.099714 
L 338.931189 172.865164 
L 339.243357 169.194412 
L 339.555524 136.595944 
L 339.867692 162.291207 
L 340.17986 138.9518 
L 340.492028 157.141197 
L 340.804196 159.880564 
L 341.116364 139.280524 
L 341.428531 141.198081 
L 341.740699 170.618883 
L 342.052867 141.472018 
L 342.365035 150.621504 
L 342.677203 163.113018 
L 342.989371 143.170425 
L 343.301538 171.221544 
L 343.613706 123.008684 
L 343.925874 167.167281 
L 344.238042 140.869357 
L 344.55021 168.263028 
L 345.174545 130.131038 
L 345.486713 150.676291 
L 345.798881 135.390623 
L 346.111049 162.893868 
L 346.423217 148.320435 
L 346.735385 97.53257 
L 347.047552 156.976835 
L 347.35972 145.416706 
L 347.671888 148.046499 
L 347.984056 168.975263 
L 348.608392 111.996428 
L 348.920559 141.691167 
L 349.232727 154.127894 
L 349.857063 149.25182 
L 350.169231 135.609772 
L 350.481399 133.747003 
L 350.793566 163.606104 
L 351.105734 120.378891 
L 351.417902 168.810901 
L 351.73007 152.374699 
L 352.042238 120.81719 
L 352.354406 149.964056 
L 352.666573 134.459238 
L 353.290909 159.661415 
L 353.603077 166.071534 
L 353.915245 143.060851 
L 354.227413 151.607676 
L 354.53958 163.496529 
L 354.851748 150.402354 
L 355.163916 150.89544 
L 355.788252 134.130514 
L 356.10042 141.252868 
L 356.412587 171.71463 
L 356.724755 162.565144 
L 357.036923 160.89413 
L 357.349091 151.717251 
L 357.661259 161.195461 
L 357.973427 112.708664 
L 358.285594 163.113018 
L 358.597762 172.317291 
L 358.90993 150.731078 
L 359.222098 147.662987 
L 359.534266 132.15817 
L 360.158601 156.483749 
L 360.470769 120.050167 
L 360.782937 115.721967 
L 361.095105 134.897537 
L 361.407273 123.720919 
L 361.719441 58.469196 
L 362.031608 139.937972 
L 362.343776 162.839081 
L 362.655944 168.043878 
L 362.968112 132.870405 
L 363.28028 176.618097 
L 363.904615 113.530474 
L 364.216783 156.922048 
L 364.528951 113.366112 
L 364.841119 146.019367 
L 365.153287 116.543777 
L 365.465455 133.253917 
L 365.777622 135.226261 
L 366.08979 138.239565 
L 366.401958 118.516122 
L 366.714126 125.474114 
L 367.026294 150.511929 
L 367.338462 160.757162 
L 367.650629 180.864116 
L 367.962797 173.467825 
L 368.274965 168.920476 
L 368.587133 137.527329 
L 368.899301 166.016747 
L 369.211469 153.086934 
L 369.523636 158.784818 
L 369.835804 141.143294 
L 370.147972 176.207192 
L 370.46014 169.084838 
L 370.772308 167.002919 
L 371.084476 134.733175 
L 371.396643 173.906124 
L 371.708811 164.647063 
L 372.020979 132.596468 
L 372.333147 163.332167 
L 372.645315 175.823681 
L 372.957483 156.100238 
L 373.26965 168.153453 
L 373.581818 167.222068 
L 373.581818 167.222068 
" style="fill:none;stroke:#000000;stroke-linecap:square;stroke-width:1.5;"/>
   </g>
   <g id="patch_3">
    <path d="M 54 252 
L 54 34.56 
" style="fill:none;stroke:#000000;stroke-linecap:square;stroke-linejoin:miter;stroke-width:0.8;"/>
   </g>
   <g id="patch_4">
    <path d="M 388.8 252 
L 388.8 34.56 
" style="fill:none;stroke:#000000;stroke-linecap:square;stroke-linejoin:miter;stroke-width:0.8;"/>
   </g>
   <g id="patch_5">
    <path d="M 54 252 
L 388.8 252 
" style="fill:none;stroke:#000000;stroke-linecap:square;stroke-linejoin:miter;stroke-width:0.8;"/>
   </g>
   <g id="patch_6">
    <path d="M 54 34.56 
L 388.8 34.56 
" style="fill:none;stroke:#000000;stroke-linecap:square;stroke-linejoin:miter;stroke-width:0.8;"/>
   </g>
   <g id="text_18">
    <!-- Soma Diária de Energia - Casa 7 -->
    <g transform="translate(124.230938 28.56)scale(0.12 -0.12)">
     <defs>
      <path d="M 53.515625 70.515625 
L 53.515625 60.890625 
Q 47.90625 63.578125 42.921875 64.890625 
Q 37.9375 66.21875 33.296875 66.21875 
Q 25.25 66.21875 20.875 63.09375 
Q 16.5 59.96875 16.5 54.203125 
Q 16.5 49.359375 19.40625 46.890625 
Q 22.3125 44.4375 30.421875 42.921875 
L 36.375 41.703125 
Q 47.40625 39.59375 52.65625 34.296875 
Q 57.90625 29 57.90625 20.125 
Q 57.90625 9.515625 50.796875 4.046875 
Q 43.703125 -1.421875 29.984375 -1.421875 
Q 24.8125 -1.421875 18.96875 -0.25 
Q 13.140625 0.921875 6.890625 3.21875 
L 6.890625 13.375 
Q 12.890625 10.015625 18.65625 8.296875 
Q 24.421875 6.59375 29.984375 6.59375 
Q 38.421875 6.59375 43.015625 9.90625 
Q 47.609375 13.234375 47.609375 19.390625 
Q 47.609375 24.75 44.3125 27.78125 
Q 41.015625 30.8125 33.5 32.328125 
L 27.484375 33.5 
Q 16.453125 35.6875 11.515625 40.375 
Q 6.59375 45.0625 6.59375 53.421875 
Q 6.59375 63.09375 13.40625 68.65625 
Q 20.21875 74.21875 32.171875 74.21875 
Q 37.3125 74.21875 42.625 73.28125 
Q 47.953125 72.359375 53.515625 70.515625 
z
" id="DejaVuSans-83"/>
      <path d="M 30.609375 48.390625 
Q 23.390625 48.390625 19.1875 42.75 
Q 14.984375 37.109375 14.984375 27.296875 
Q 14.984375 17.484375 19.15625 11.84375 
Q 23.34375 6.203125 30.609375 6.203125 
Q 37.796875 6.203125 41.984375 11.859375 
Q 46.1875 17.53125 46.1875 27.296875 
Q 46.1875 37.015625 41.984375 42.703125 
Q 37.796875 48.390625 30.609375 48.390625 
z
M 30.609375 56 
Q 42.328125 56 49.015625 48.375 
Q 55.71875 40.765625 55.71875 27.296875 
Q 55.71875 13.875 49.015625 6.21875 
Q 42.328125 -1.421875 30.609375 -1.421875 
Q 18.84375 -1.421875 12.171875 6.21875 
Q 5.515625 13.875 5.515625 27.296875 
Q 5.515625 40.765625 12.171875 48.375 
Q 18.84375 56 30.609375 56 
z
" id="DejaVuSans-111"/>
      <path d="M 52 44.1875 
Q 55.375 50.25 60.0625 53.125 
Q 64.75 56 71.09375 56 
Q 79.640625 56 84.28125 50.015625 
Q 88.921875 44.046875 88.921875 33.015625 
L 88.921875 0 
L 79.890625 0 
L 79.890625 32.71875 
Q 79.890625 40.578125 77.09375 44.375 
Q 74.3125 48.1875 68.609375 48.1875 
Q 61.625 48.1875 57.5625 43.546875 
Q 53.515625 38.921875 53.515625 30.90625 
L 53.515625 0 
L 44.484375 0 
L 44.484375 32.71875 
Q 44.484375 40.625 41.703125 44.40625 
Q 38.921875 48.1875 33.109375 48.1875 
Q 26.21875 48.1875 22.15625 43.53125 
Q 18.109375 38.875 18.109375 30.90625 
L 18.109375 0 
L 9.078125 0 
L 9.078125 54.6875 
L 18.109375 54.6875 
L 18.109375 46.1875 
Q 21.1875 51.21875 25.484375 53.609375 
Q 29.78125 56 35.6875 56 
Q 41.65625 56 45.828125 52.96875 
Q 50 49.953125 52 44.1875 
z
" id="DejaVuSans-109"/>
      <path d="M 34.28125 27.484375 
Q 23.390625 27.484375 19.1875 25 
Q 14.984375 22.515625 14.984375 16.5 
Q 14.984375 11.71875 18.140625 8.90625 
Q 21.296875 6.109375 26.703125 6.109375 
Q 34.1875 6.109375 38.703125 11.40625 
Q 43.21875 16.703125 43.21875 25.484375 
L 43.21875 27.484375 
z
M 52.203125 31.203125 
L 52.203125 0 
L 43.21875 0 
L 43.21875 8.296875 
Q 40.140625 3.328125 35.546875 0.953125 
Q 30.953125 -1.421875 24.3125 -1.421875 
Q 15.921875 -1.421875 10.953125 3.296875 
Q 6 8.015625 6 15.921875 
Q 6 25.140625 12.171875 29.828125 
Q 18.359375 34.515625 30.609375 34.515625 
L 43.21875 34.515625 
L 43.21875 35.40625 
Q 43.21875 41.609375 39.140625 45 
Q 35.0625 48.390625 27.6875 48.390625 
Q 23 48.390625 18.546875 47.265625 
Q 14.109375 46.140625 10.015625 43.890625 
L 10.015625 52.203125 
Q 14.9375 54.109375 19.578125 55.046875 
Q 24.21875 56 28.609375 56 
Q 40.484375 56 46.34375 49.84375 
Q 52.203125 43.703125 52.203125 31.203125 
z
" id="DejaVuSans-97"/>
      <path id="DejaVuSans-32"/>
      <path d="M 19.671875 64.796875 
L 19.671875 8.109375 
L 31.59375 8.109375 
Q 46.6875 8.109375 53.6875 14.9375 
Q 60.6875 21.78125 60.6875 36.53125 
Q 60.6875 51.171875 53.6875 57.984375 
Q 46.6875 64.796875 31.59375 64.796875 
z
M 9.8125 72.90625 
L 30.078125 72.90625 
Q 51.265625 72.90625 61.171875 64.09375 
Q 71.09375 55.28125 71.09375 36.53125 
Q 71.09375 17.671875 61.125 8.828125 
Q 51.171875 0 30.078125 0 
L 9.8125 0 
z
" id="DejaVuSans-68"/>
      <path d="M 9.421875 54.6875 
L 18.40625 54.6875 
L 18.40625 0 
L 9.421875 0 
z
M 9.421875 75.984375 
L 18.40625 75.984375 
L 18.40625 64.59375 
L 9.421875 64.59375 
z
" id="DejaVuSans-105"/>
      <path d="M 34.28125 27.484375 
Q 23.390625 27.484375 19.1875 25 
Q 14.984375 22.515625 14.984375 16.5 
Q 14.984375 11.71875 18.140625 8.90625 
Q 21.296875 6.109375 26.703125 6.109375 
Q 34.1875 6.109375 38.703125 11.40625 
Q 43.21875 16.703125 43.21875 25.484375 
L 43.21875 27.484375 
z
M 52.203125 31.203125 
L 52.203125 0 
L 43.21875 0 
L 43.21875 8.296875 
Q 40.140625 3.328125 35.546875 0.953125 
Q 30.953125 -1.421875 24.3125 -1.421875 
Q 15.921875 -1.421875 10.953125 3.296875 
Q 6 8.015625 6 15.921875 
Q 6 25.140625 12.171875 29.828125 
Q 18.359375 34.515625 30.609375 34.515625 
L 43.21875 34.515625 
L 43.21875 35.40625 
Q 43.21875 41.609375 39.140625 45 
Q 35.0625 48.390625 27.6875 48.390625 
Q 23 48.390625 18.546875 47.265625 
Q 14.109375 46.140625 10.015625 43.890625 
L 10.015625 52.203125 
Q 14.9375 54.109375 19.578125 55.046875 
Q 24.21875 56 28.609375 56 
Q 40.484375 56 46.34375 49.84375 
Q 52.203125 43.703125 52.203125 31.203125 
z
M 35.796875 79.984375 
L 45.515625 79.984375 
L 29.59375 61.625 
L 22.125 61.625 
z
" id="DejaVuSans-225"/>
      <path d="M 41.109375 46.296875 
Q 39.59375 47.171875 37.8125 47.578125 
Q 36.03125 48 33.890625 48 
Q 26.265625 48 22.1875 43.046875 
Q 18.109375 38.09375 18.109375 28.8125 
L 18.109375 0 
L 9.078125 0 
L 9.078125 54.6875 
L 18.109375 54.6875 
L 18.109375 46.1875 
Q 20.953125 51.171875 25.484375 53.578125 
Q 30.03125 56 36.53125 56 
Q 37.453125 56 38.578125 55.875 
Q 39.703125 55.765625 41.0625 55.515625 
z
" id="DejaVuSans-114"/>
      <path d="M 45.40625 46.390625 
L 45.40625 75.984375 
L 54.390625 75.984375 
L 54.390625 0 
L 45.40625 0 
L 45.40625 8.203125 
Q 42.578125 3.328125 38.25 0.953125 
Q 33.9375 -1.421875 27.875 -1.421875 
Q 17.96875 -1.421875 11.734375 6.484375 
Q 5.515625 14.40625 5.515625 27.296875 
Q 5.515625 40.1875 11.734375 48.09375 
Q 17.96875 56 27.875 56 
Q 33.9375 56 38.25 53.625 
Q 42.578125 51.265625 45.40625 46.390625 
z
M 14.796875 27.296875 
Q 14.796875 17.390625 18.875 11.75 
Q 22.953125 6.109375 30.078125 6.109375 
Q 37.203125 6.109375 41.296875 11.75 
Q 45.40625 17.390625 45.40625 27.296875 
Q 45.40625 37.203125 41.296875 42.84375 
Q 37.203125 48.484375 30.078125 48.484375 
Q 22.953125 48.484375 18.875 42.84375 
Q 14.796875 37.203125 14.796875 27.296875 
z
" id="DejaVuSans-100"/>
      <path d="M 56.203125 29.59375 
L 56.203125 25.203125 
L 14.890625 25.203125 
Q 15.484375 15.921875 20.484375 11.0625 
Q 25.484375 6.203125 34.421875 6.203125 
Q 39.59375 6.203125 44.453125 7.46875 
Q 49.3125 8.734375 54.109375 11.28125 
L 54.109375 2.78125 
Q 49.265625 0.734375 44.1875 -0.34375 
Q 39.109375 -1.421875 33.890625 -1.421875 
Q 20.796875 -1.421875 13.15625 6.1875 
Q 5.515625 13.8125 5.515625 26.8125 
Q 5.515625 40.234375 12.765625 48.109375 
Q 20.015625 56 32.328125 56 
Q 43.359375 56 49.78125 48.890625 
Q 56.203125 41.796875 56.203125 29.59375 
z
M 47.21875 32.234375 
Q 47.125 39.59375 43.09375 43.984375 
Q 39.0625 48.390625 32.421875 48.390625 
Q 24.90625 48.390625 20.390625 44.140625 
Q 15.875 39.890625 15.1875 32.171875 
z
" id="DejaVuSans-101"/>
      <path d="M 9.8125 72.90625 
L 55.90625 72.90625 
L 55.90625 64.59375 
L 19.671875 64.59375 
L 19.671875 43.015625 
L 54.390625 43.015625 
L 54.390625 34.71875 
L 19.671875 34.71875 
L 19.671875 8.296875 
L 56.78125 8.296875 
L 56.78125 0 
L 9.8125 0 
z
" id="DejaVuSans-69"/>
      <path d="M 54.890625 33.015625 
L 54.890625 0 
L 45.90625 0 
L 45.90625 32.71875 
Q 45.90625 40.484375 42.875 44.328125 
Q 39.84375 48.1875 33.796875 48.1875 
Q 26.515625 48.1875 22.3125 43.546875 
Q 18.109375 38.921875 18.109375 30.90625 
L 18.109375 0 
L 9.078125 0 
L 9.078125 54.6875 
L 18.109375 54.6875 
L 18.109375 46.1875 
Q 21.34375 51.125 25.703125 53.5625 
Q 30.078125 56 35.796875 56 
Q 45.21875 56 50.046875 50.171875 
Q 54.890625 44.34375 54.890625 33.015625 
z
" id="DejaVuSans-110"/>
      <path d="M 45.40625 27.984375 
Q 45.40625 37.75 41.375 43.109375 
Q 37.359375 48.484375 30.078125 48.484375 
Q 22.859375 48.484375 18.828125 43.109375 
Q 14.796875 37.75 14.796875 27.984375 
Q 14.796875 18.265625 18.828125 12.890625 
Q 22.859375 7.515625 30.078125 7.515625 
Q 37.359375 7.515625 41.375 12.890625 
Q 45.40625 18.265625 45.40625 27.984375 
z
M 54.390625 6.78125 
Q 54.390625 -7.171875 48.1875 -13.984375 
Q 42 -20.796875 29.203125 -20.796875 
Q 24.46875 -20.796875 20.265625 -20.09375 
Q 16.0625 -19.390625 12.109375 -17.921875 
L 12.109375 -9.1875 
Q 16.0625 -11.328125 19.921875 -12.34375 
Q 23.78125 -13.375 27.78125 -13.375 
Q 36.625 -13.375 41.015625 -8.765625 
Q 45.40625 -4.15625 45.40625 5.171875 
L 45.40625 9.625 
Q 42.625 4.78125 38.28125 2.390625 
Q 33.9375 0 27.875 0 
Q 17.828125 0 11.671875 7.65625 
Q 5.515625 15.328125 5.515625 27.984375 
Q 5.515625 40.671875 11.671875 48.328125 
Q 17.828125 56 27.875 56 
Q 33.9375 56 38.28125 53.609375 
Q 42.625 51.21875 45.40625 46.390625 
L 45.40625 54.6875 
L 54.390625 54.6875 
z
" id="DejaVuSans-103"/>
      <path d="M 64.40625 67.28125 
L 64.40625 56.890625 
Q 59.421875 61.53125 53.78125 63.8125 
Q 48.140625 66.109375 41.796875 66.109375 
Q 29.296875 66.109375 22.65625 58.46875 
Q 16.015625 50.828125 16.015625 36.375 
Q 16.015625 21.96875 22.65625 14.328125 
Q 29.296875 6.6875 41.796875 6.6875 
Q 48.140625 6.6875 53.78125 8.984375 
Q 59.421875 11.28125 64.40625 15.921875 
L 64.40625 5.609375 
Q 59.234375 2.09375 53.4375 0.328125 
Q 47.65625 -1.421875 41.21875 -1.421875 
Q 24.65625 -1.421875 15.125 8.703125 
Q 5.609375 18.84375 5.609375 36.375 
Q 5.609375 53.953125 15.125 64.078125 
Q 24.65625 74.21875 41.21875 74.21875 
Q 47.75 74.21875 53.53125 72.484375 
Q 59.328125 70.75 64.40625 67.28125 
z
" id="DejaVuSans-67"/>
      <path d="M 44.28125 53.078125 
L 44.28125 44.578125 
Q 40.484375 46.53125 36.375 47.5 
Q 32.28125 48.484375 27.875 48.484375 
Q 21.1875 48.484375 17.84375 46.4375 
Q 14.5 44.390625 14.5 40.28125 
Q 14.5 37.15625 16.890625 35.375 
Q 19.28125 33.59375 26.515625 31.984375 
L 29.59375 31.296875 
Q 39.15625 29.25 43.1875 25.515625 
Q 47.21875 21.78125 47.21875 15.09375 
Q 47.21875 7.46875 41.1875 3.015625 
Q 35.15625 -1.421875 24.609375 -1.421875 
Q 20.21875 -1.421875 15.453125 -0.5625 
Q 10.6875 0.296875 5.421875 2 
L 5.421875 11.28125 
Q 10.40625 8.6875 15.234375 7.390625 
Q 20.0625 6.109375 24.8125 6.109375 
Q 31.15625 6.109375 34.5625 8.28125 
Q 37.984375 10.453125 37.984375 14.40625 
Q 37.984375 18.0625 35.515625 20.015625 
Q 33.0625 21.96875 24.703125 23.78125 
L 21.578125 24.515625 
Q 13.234375 26.265625 9.515625 29.90625 
Q 5.8125 33.546875 5.8125 39.890625 
Q 5.8125 47.609375 11.28125 51.796875 
Q 16.75 56 26.8125 56 
Q 31.78125 56 36.171875 55.265625 
Q 40.578125 54.546875 44.28125 53.078125 
z
" id="DejaVuSans-115"/>
     </defs>
     <use xlink:href="#DejaVuSans-83"/>
     <use x="63.476562" xlink:href="#DejaVuSans-111"/>
     <use x="124.658203" xlink:href="#DejaVuSans-109"/>
     <use x="222.070312" xlink:href="#DejaVuSans-97"/>
     <use x="283.349609" xlink:href="#DejaVuSans-32"/>
     <use x="315.136719" xlink:href="#DejaVuSans-68"/>
     <use x="392.138672" xlink:href="#DejaVuSans-105"/>
     <use x="419.921875" xlink:href="#DejaVuSans-225"/>
     <use x="481.201172" xlink:href="#DejaVuSans-114"/>
     <use x="522.314453" xlink:href="#DejaVuSans-105"/>
     <use x="550.097656" xlink:href="#DejaVuSans-97"/>
     <use x="611.376953" xlink:href="#DejaVuSans-32"/>
     <use x="643.164062" xlink:href="#DejaVuSans-100"/>
     <use x="706.640625" xlink:href="#DejaVuSans-101"/>
     <use x="768.164062" xlink:href="#DejaVuSans-32"/>
     <use x="799.951172" xlink:href="#DejaVuSans-69"/>
     <use x="863.134766" xlink:href="#DejaVuSans-110"/>
     <use x="926.513672" xlink:href="#DejaVuSans-101"/>
     <use x="988.037109" xlink:href="#DejaVuSans-114"/>
     <use x="1027.400391" xlink:href="#DejaVuSans-103"/>
     <use x="1090.876953" xlink:href="#DejaVuSans-105"/>
     <use x="1118.660156" xlink:href="#DejaVuSans-97"/>
     <use x="1179.939453" xlink:href="#DejaVuSans-32"/>
     <use x="1211.726562" xlink:href="#DejaVuSans-45"/>
     <use x="1247.810547" xlink:href="#DejaVuSans-32"/>
     <use x="1279.597656" xlink:href="#DejaVuSans-67"/>
     <use x="1349.421875" xlink:href="#DejaVuSans-97"/>
     <use x="1410.701172" xlink:href="#DejaVuSans-115"/>
     <use x="1462.800781" xlink:href="#DejaVuSans-97"/>
     <use x="1524.080078" xlink:href="#DejaVuSans-32"/>
     <use x="1555.867188" xlink:href="#DejaVuSans-55"/>
    </g>
   </g>
  </g>
 </g>
 <defs>
  <clipPath id="p0f28f7adb3">
   <rect height="217.44" width="334.8" x="54" y="34.56"/>
  </clipPath>
 </defs>
</svg>
