<?xml version="1.0" encoding="utf-8" standalone="no"?>
<!DOCTYPE svg PUBLIC "-//W3C//DTD SVG 1.1//EN"
  "http://www.w3.org/Graphics/SVG/1.1/DTD/svg11.dtd">
<!-- Created with matplotlib (https://matplotlib.org/) -->
<svg height="288pt" version="1.1" viewBox="0 0 432 288" width="432pt" xmlns="http://www.w3.org/2000/svg" xmlns:xlink="http://www.w3.org/1999/xlink">
 <metadata>
  <rdf:RDF xmlns:cc="http://creativecommons.org/ns#" xmlns:dc="http://purl.org/dc/elements/1.1/" xmlns:rdf="http://www.w3.org/1999/02/22-rdf-syntax-ns#">
   <cc:Work>
    <dc:type rdf:resource="http://purl.org/dc/dcmitype/StillImage"/>
    <dc:date>2021-07-21T14:57:53.659094</dc:date>
    <dc:format>image/svg+xml</dc:format>
    <dc:creator>
     <cc:Agent>
      <dc:title>Matplotlib v3.3.4, https://matplotlib.org/</dc:title>
     </cc:Agent>
    </dc:creator>
   </cc:Work>
  </rdf:RDF>
 </metadata>
 <defs>
  <style type="text/css">*{stroke-linecap:butt;stroke-linejoin:round;}</style>
 </defs>
 <g id="figure_1">
  <g id="patch_1">
   <path d="M 0 288 
L 432 288 
L 432 0 
L 0 0 
z
" style="fill:#ffffff;"/>
  </g>
  <g id="axes_1">
   <g id="patch_2">
    <path d="M 54 252 
L 388.8 252 
L 388.8 34.56 
L 54 34.56 
z
" style="fill:#ffffff;"/>
   </g>
   <g id="matplotlib.axis_1">
    <g id="xtick_1">
     <g id="line2d_1">
      <defs>
       <path d="M 0 0 
L 0 3.5 
" id="ma8437d34fa" style="stroke:#000000;stroke-width:0.8;"/>
      </defs>
      <g>
       <use style="stroke:#000000;stroke-width:0.8;" x="80.364765" xlink:href="#ma8437d34fa" y="252"/>
      </g>
     </g>
     <g id="text_1">
      <!-- 2017-09 -->
      <g transform="translate(67.543482 293.917817)rotate(-45)scale(0.1 -0.1)">
       <defs>
        <path d="M 19.1875 8.296875 
L 53.609375 8.296875 
L 53.609375 0 
L 7.328125 0 
L 7.328125 8.296875 
Q 12.9375 14.109375 22.625 23.890625 
Q 32.328125 33.6875 34.8125 36.53125 
Q 39.546875 41.84375 41.421875 45.53125 
Q 43.3125 49.21875 43.3125 52.78125 
Q 43.3125 58.59375 39.234375 62.25 
Q 35.15625 65.921875 28.609375 65.921875 
Q 23.96875 65.921875 18.8125 64.3125 
Q 13.671875 62.703125 7.8125 59.421875 
L 7.8125 69.390625 
Q 13.765625 71.78125 18.9375 73 
Q 24.125 74.21875 28.421875 74.21875 
Q 39.75 74.21875 46.484375 68.546875 
Q 53.21875 62.890625 53.21875 53.421875 
Q 53.21875 48.921875 51.53125 44.890625 
Q 49.859375 40.875 45.40625 35.40625 
Q 44.1875 33.984375 37.640625 27.21875 
Q 31.109375 20.453125 19.1875 8.296875 
z
" id="DejaVuSans-50"/>
        <path d="M 31.78125 66.40625 
Q 24.171875 66.40625 20.328125 58.90625 
Q 16.5 51.421875 16.5 36.375 
Q 16.5 21.390625 20.328125 13.890625 
Q 24.171875 6.390625 31.78125 6.390625 
Q 39.453125 6.390625 43.28125 13.890625 
Q 47.125 21.390625 47.125 36.375 
Q 47.125 51.421875 43.28125 58.90625 
Q 39.453125 66.40625 31.78125 66.40625 
z
M 31.78125 74.21875 
Q 44.046875 74.21875 50.515625 64.515625 
Q 56.984375 54.828125 56.984375 36.375 
Q 56.984375 17.96875 50.515625 8.265625 
Q 44.046875 -1.421875 31.78125 -1.421875 
Q 19.53125 -1.421875 13.0625 8.265625 
Q 6.59375 17.96875 6.59375 36.375 
Q 6.59375 54.828125 13.0625 64.515625 
Q 19.53125 74.21875 31.78125 74.21875 
z
" id="DejaVuSans-48"/>
        <path d="M 12.40625 8.296875 
L 28.515625 8.296875 
L 28.515625 63.921875 
L 10.984375 60.40625 
L 10.984375 69.390625 
L 28.421875 72.90625 
L 38.28125 72.90625 
L 38.28125 8.296875 
L 54.390625 8.296875 
L 54.390625 0 
L 12.40625 0 
z
" id="DejaVuSans-49"/>
        <path d="M 8.203125 72.90625 
L 55.078125 72.90625 
L 55.078125 68.703125 
L 28.609375 0 
L 18.3125 0 
L 43.21875 64.59375 
L 8.203125 64.59375 
z
" id="DejaVuSans-55"/>
        <path d="M 4.890625 31.390625 
L 31.203125 31.390625 
L 31.203125 23.390625 
L 4.890625 23.390625 
z
" id="DejaVuSans-45"/>
        <path d="M 10.984375 1.515625 
L 10.984375 10.5 
Q 14.703125 8.734375 18.5 7.8125 
Q 22.3125 6.890625 25.984375 6.890625 
Q 35.75 6.890625 40.890625 13.453125 
Q 46.046875 20.015625 46.78125 33.40625 
Q 43.953125 29.203125 39.59375 26.953125 
Q 35.25 24.703125 29.984375 24.703125 
Q 19.046875 24.703125 12.671875 31.3125 
Q 6.296875 37.9375 6.296875 49.421875 
Q 6.296875 60.640625 12.9375 67.421875 
Q 19.578125 74.21875 30.609375 74.21875 
Q 43.265625 74.21875 49.921875 64.515625 
Q 56.59375 54.828125 56.59375 36.375 
Q 56.59375 19.140625 48.40625 8.859375 
Q 40.234375 -1.421875 26.421875 -1.421875 
Q 22.703125 -1.421875 18.890625 -0.6875 
Q 15.09375 0.046875 10.984375 1.515625 
z
M 30.609375 32.421875 
Q 37.25 32.421875 41.125 36.953125 
Q 45.015625 41.5 45.015625 49.421875 
Q 45.015625 57.28125 41.125 61.84375 
Q 37.25 66.40625 30.609375 66.40625 
Q 23.96875 66.40625 20.09375 61.84375 
Q 16.21875 57.28125 16.21875 49.421875 
Q 16.21875 41.5 20.09375 36.953125 
Q 23.96875 32.421875 30.609375 32.421875 
z
" id="DejaVuSans-57"/>
       </defs>
       <use xlink:href="#DejaVuSans-50"/>
       <use x="63.623047" xlink:href="#DejaVuSans-48"/>
       <use x="127.246094" xlink:href="#DejaVuSans-49"/>
       <use x="190.869141" xlink:href="#DejaVuSans-55"/>
       <use x="254.492188" xlink:href="#DejaVuSans-45"/>
       <use x="290.576172" xlink:href="#DejaVuSans-48"/>
       <use x="354.199219" xlink:href="#DejaVuSans-57"/>
      </g>
     </g>
    </g>
    <g id="xtick_2">
     <g id="line2d_2">
      <g>
       <use style="stroke:#000000;stroke-width:0.8;" x="118.139295" xlink:href="#ma8437d34fa" y="252"/>
      </g>
     </g>
     <g id="text_2">
      <!-- 2018-01 -->
      <g transform="translate(105.318013 293.917817)rotate(-45)scale(0.1 -0.1)">
       <defs>
        <path d="M 31.78125 34.625 
Q 24.75 34.625 20.71875 30.859375 
Q 16.703125 27.09375 16.703125 20.515625 
Q 16.703125 13.921875 20.71875 10.15625 
Q 24.75 6.390625 31.78125 6.390625 
Q 38.8125 6.390625 42.859375 10.171875 
Q 46.921875 13.96875 46.921875 20.515625 
Q 46.921875 27.09375 42.890625 30.859375 
Q 38.875 34.625 31.78125 34.625 
z
M 21.921875 38.8125 
Q 15.578125 40.375 12.03125 44.71875 
Q 8.5 49.078125 8.5 55.328125 
Q 8.5 64.0625 14.71875 69.140625 
Q 20.953125 74.21875 31.78125 74.21875 
Q 42.671875 74.21875 48.875 69.140625 
Q 55.078125 64.0625 55.078125 55.328125 
Q 55.078125 49.078125 51.53125 44.71875 
Q 48 40.375 41.703125 38.8125 
Q 48.828125 37.15625 52.796875 32.3125 
Q 56.78125 27.484375 56.78125 20.515625 
Q 56.78125 9.90625 50.3125 4.234375 
Q 43.84375 -1.421875 31.78125 -1.421875 
Q 19.734375 -1.421875 13.25 4.234375 
Q 6.78125 9.90625 6.78125 20.515625 
Q 6.78125 27.484375 10.78125 32.3125 
Q 14.796875 37.15625 21.921875 38.8125 
z
M 18.3125 54.390625 
Q 18.3125 48.734375 21.84375 45.5625 
Q 25.390625 42.390625 31.78125 42.390625 
Q 38.140625 42.390625 41.71875 45.5625 
Q 45.3125 48.734375 45.3125 54.390625 
Q 45.3125 60.0625 41.71875 63.234375 
Q 38.140625 66.40625 31.78125 66.40625 
Q 25.390625 66.40625 21.84375 63.234375 
Q 18.3125 60.0625 18.3125 54.390625 
z
" id="DejaVuSans-56"/>
       </defs>
       <use xlink:href="#DejaVuSans-50"/>
       <use x="63.623047" xlink:href="#DejaVuSans-48"/>
       <use x="127.246094" xlink:href="#DejaVuSans-49"/>
       <use x="190.869141" xlink:href="#DejaVuSans-56"/>
       <use x="254.492188" xlink:href="#DejaVuSans-45"/>
       <use x="290.576172" xlink:href="#DejaVuSans-48"/>
       <use x="354.199219" xlink:href="#DejaVuSans-49"/>
      </g>
     </g>
    </g>
    <g id="xtick_3">
     <g id="line2d_3">
      <g>
       <use style="stroke:#000000;stroke-width:0.8;" x="155.294571" xlink:href="#ma8437d34fa" y="252"/>
      </g>
     </g>
     <g id="text_3">
      <!-- 2018-05 -->
      <g transform="translate(142.473289 293.917817)rotate(-45)scale(0.1 -0.1)">
       <defs>
        <path d="M 10.796875 72.90625 
L 49.515625 72.90625 
L 49.515625 64.59375 
L 19.828125 64.59375 
L 19.828125 46.734375 
Q 21.96875 47.46875 24.109375 47.828125 
Q 26.265625 48.1875 28.421875 48.1875 
Q 40.625 48.1875 47.75 41.5 
Q 54.890625 34.8125 54.890625 23.390625 
Q 54.890625 11.625 47.5625 5.09375 
Q 40.234375 -1.421875 26.90625 -1.421875 
Q 22.3125 -1.421875 17.546875 -0.640625 
Q 12.796875 0.140625 7.71875 1.703125 
L 7.71875 11.625 
Q 12.109375 9.234375 16.796875 8.0625 
Q 21.484375 6.890625 26.703125 6.890625 
Q 35.15625 6.890625 40.078125 11.328125 
Q 45.015625 15.765625 45.015625 23.390625 
Q 45.015625 31 40.078125 35.4375 
Q 35.15625 39.890625 26.703125 39.890625 
Q 22.75 39.890625 18.8125 39.015625 
Q 14.890625 38.140625 10.796875 36.28125 
z
" id="DejaVuSans-53"/>
       </defs>
       <use xlink:href="#DejaVuSans-50"/>
       <use x="63.623047" xlink:href="#DejaVuSans-48"/>
       <use x="127.246094" xlink:href="#DejaVuSans-49"/>
       <use x="190.869141" xlink:href="#DejaVuSans-56"/>
       <use x="254.492188" xlink:href="#DejaVuSans-45"/>
       <use x="290.576172" xlink:href="#DejaVuSans-48"/>
       <use x="354.199219" xlink:href="#DejaVuSans-53"/>
      </g>
     </g>
    </g>
    <g id="xtick_4">
     <g id="line2d_4">
      <g>
       <use style="stroke:#000000;stroke-width:0.8;" x="193.378729" xlink:href="#ma8437d34fa" y="252"/>
      </g>
     </g>
     <g id="text_4">
      <!-- 2018-09 -->
      <g transform="translate(180.557447 293.917817)rotate(-45)scale(0.1 -0.1)">
       <use xlink:href="#DejaVuSans-50"/>
       <use x="63.623047" xlink:href="#DejaVuSans-48"/>
       <use x="127.246094" xlink:href="#DejaVuSans-49"/>
       <use x="190.869141" xlink:href="#DejaVuSans-56"/>
       <use x="254.492188" xlink:href="#DejaVuSans-45"/>
       <use x="290.576172" xlink:href="#DejaVuSans-48"/>
       <use x="354.199219" xlink:href="#DejaVuSans-57"/>
      </g>
     </g>
    </g>
    <g id="xtick_5">
     <g id="line2d_5">
      <g>
       <use style="stroke:#000000;stroke-width:0.8;" x="231.15326" xlink:href="#ma8437d34fa" y="252"/>
      </g>
     </g>
     <g id="text_5">
      <!-- 2019-01 -->
      <g transform="translate(218.331978 293.917817)rotate(-45)scale(0.1 -0.1)">
       <use xlink:href="#DejaVuSans-50"/>
       <use x="63.623047" xlink:href="#DejaVuSans-48"/>
       <use x="127.246094" xlink:href="#DejaVuSans-49"/>
       <use x="190.869141" xlink:href="#DejaVuSans-57"/>
       <use x="254.492188" xlink:href="#DejaVuSans-45"/>
       <use x="290.576172" xlink:href="#DejaVuSans-48"/>
       <use x="354.199219" xlink:href="#DejaVuSans-49"/>
      </g>
     </g>
    </g>
    <g id="xtick_6">
     <g id="line2d_6">
      <g>
       <use style="stroke:#000000;stroke-width:0.8;" x="268.308536" xlink:href="#ma8437d34fa" y="252"/>
      </g>
     </g>
     <g id="text_6">
      <!-- 2019-05 -->
      <g transform="translate(255.487254 293.917817)rotate(-45)scale(0.1 -0.1)">
       <use xlink:href="#DejaVuSans-50"/>
       <use x="63.623047" xlink:href="#DejaVuSans-48"/>
       <use x="127.246094" xlink:href="#DejaVuSans-49"/>
       <use x="190.869141" xlink:href="#DejaVuSans-57"/>
       <use x="254.492188" xlink:href="#DejaVuSans-45"/>
       <use x="290.576172" xlink:href="#DejaVuSans-48"/>
       <use x="354.199219" xlink:href="#DejaVuSans-53"/>
      </g>
     </g>
    </g>
    <g id="xtick_7">
     <g id="line2d_7">
      <g>
       <use style="stroke:#000000;stroke-width:0.8;" x="306.392694" xlink:href="#ma8437d34fa" y="252"/>
      </g>
     </g>
     <g id="text_7">
      <!-- 2019-09 -->
      <g transform="translate(293.571412 293.917817)rotate(-45)scale(0.1 -0.1)">
       <use xlink:href="#DejaVuSans-50"/>
       <use x="63.623047" xlink:href="#DejaVuSans-48"/>
       <use x="127.246094" xlink:href="#DejaVuSans-49"/>
       <use x="190.869141" xlink:href="#DejaVuSans-57"/>
       <use x="254.492188" xlink:href="#DejaVuSans-45"/>
       <use x="290.576172" xlink:href="#DejaVuSans-48"/>
       <use x="354.199219" xlink:href="#DejaVuSans-57"/>
      </g>
     </g>
    </g>
    <g id="xtick_8">
     <g id="line2d_8">
      <g>
       <use style="stroke:#000000;stroke-width:0.8;" x="344.167225" xlink:href="#ma8437d34fa" y="252"/>
      </g>
     </g>
     <g id="text_8">
      <!-- 2020-01 -->
      <g transform="translate(331.345942 293.917817)rotate(-45)scale(0.1 -0.1)">
       <use xlink:href="#DejaVuSans-50"/>
       <use x="63.623047" xlink:href="#DejaVuSans-48"/>
       <use x="127.246094" xlink:href="#DejaVuSans-50"/>
       <use x="190.869141" xlink:href="#DejaVuSans-48"/>
       <use x="254.492188" xlink:href="#DejaVuSans-45"/>
       <use x="290.576172" xlink:href="#DejaVuSans-48"/>
       <use x="354.199219" xlink:href="#DejaVuSans-49"/>
      </g>
     </g>
    </g>
    <g id="xtick_9">
     <g id="line2d_9">
      <g>
       <use style="stroke:#000000;stroke-width:0.8;" x="381.632128" xlink:href="#ma8437d34fa" y="252"/>
      </g>
     </g>
     <g id="text_9">
      <!-- 2020-05 -->
      <g transform="translate(368.810846 293.917817)rotate(-45)scale(0.1 -0.1)">
       <use xlink:href="#DejaVuSans-50"/>
       <use x="63.623047" xlink:href="#DejaVuSans-48"/>
       <use x="127.246094" xlink:href="#DejaVuSans-50"/>
       <use x="190.869141" xlink:href="#DejaVuSans-48"/>
       <use x="254.492188" xlink:href="#DejaVuSans-45"/>
       <use x="290.576172" xlink:href="#DejaVuSans-48"/>
       <use x="354.199219" xlink:href="#DejaVuSans-53"/>
      </g>
     </g>
    </g>
   </g>
   <g id="matplotlib.axis_2">
    <g id="ytick_1">
     <g id="line2d_10">
      <defs>
       <path d="M 0 0 
L -3.5 0 
" id="m2c5675c8e4" style="stroke:#000000;stroke-width:0.8;"/>
      </defs>
      <g>
       <use style="stroke:#000000;stroke-width:0.8;" x="54" xlink:href="#m2c5675c8e4" y="242.116364"/>
      </g>
     </g>
     <g id="text_10">
      <!-- 0 -->
      <g transform="translate(40.6375 245.915582)scale(0.1 -0.1)">
       <use xlink:href="#DejaVuSans-48"/>
      </g>
     </g>
    </g>
    <g id="ytick_2">
     <g id="line2d_11">
      <g>
       <use style="stroke:#000000;stroke-width:0.8;" x="54" xlink:href="#m2c5675c8e4" y="212.537922"/>
      </g>
     </g>
     <g id="text_11">
      <!-- 10 -->
      <g transform="translate(34.275 216.33714)scale(0.1 -0.1)">
       <use xlink:href="#DejaVuSans-49"/>
       <use x="63.623047" xlink:href="#DejaVuSans-48"/>
      </g>
     </g>
    </g>
    <g id="ytick_3">
     <g id="line2d_12">
      <g>
       <use style="stroke:#000000;stroke-width:0.8;" x="54" xlink:href="#m2c5675c8e4" y="182.95948"/>
      </g>
     </g>
     <g id="text_12">
      <!-- 20 -->
      <g transform="translate(34.275 186.758699)scale(0.1 -0.1)">
       <use xlink:href="#DejaVuSans-50"/>
       <use x="63.623047" xlink:href="#DejaVuSans-48"/>
      </g>
     </g>
    </g>
    <g id="ytick_4">
     <g id="line2d_13">
      <g>
       <use style="stroke:#000000;stroke-width:0.8;" x="54" xlink:href="#m2c5675c8e4" y="153.381038"/>
      </g>
     </g>
     <g id="text_13">
      <!-- 30 -->
      <g transform="translate(34.275 157.180257)scale(0.1 -0.1)">
       <defs>
        <path d="M 40.578125 39.3125 
Q 47.65625 37.796875 51.625 33 
Q 55.609375 28.21875 55.609375 21.1875 
Q 55.609375 10.40625 48.1875 4.484375 
Q 40.765625 -1.421875 27.09375 -1.421875 
Q 22.515625 -1.421875 17.65625 -0.515625 
Q 12.796875 0.390625 7.625 2.203125 
L 7.625 11.71875 
Q 11.71875 9.328125 16.59375 8.109375 
Q 21.484375 6.890625 26.8125 6.890625 
Q 36.078125 6.890625 40.9375 10.546875 
Q 45.796875 14.203125 45.796875 21.1875 
Q 45.796875 27.640625 41.28125 31.265625 
Q 36.765625 34.90625 28.71875 34.90625 
L 20.21875 34.90625 
L 20.21875 43.015625 
L 29.109375 43.015625 
Q 36.375 43.015625 40.234375 45.921875 
Q 44.09375 48.828125 44.09375 54.296875 
Q 44.09375 59.90625 40.109375 62.90625 
Q 36.140625 65.921875 28.71875 65.921875 
Q 24.65625 65.921875 20.015625 65.03125 
Q 15.375 64.15625 9.8125 62.3125 
L 9.8125 71.09375 
Q 15.4375 72.65625 20.34375 73.4375 
Q 25.25 74.21875 29.59375 74.21875 
Q 40.828125 74.21875 47.359375 69.109375 
Q 53.90625 64.015625 53.90625 55.328125 
Q 53.90625 49.265625 50.4375 45.09375 
Q 46.96875 40.921875 40.578125 39.3125 
z
" id="DejaVuSans-51"/>
       </defs>
       <use xlink:href="#DejaVuSans-51"/>
       <use x="63.623047" xlink:href="#DejaVuSans-48"/>
      </g>
     </g>
    </g>
    <g id="ytick_5">
     <g id="line2d_14">
      <g>
       <use style="stroke:#000000;stroke-width:0.8;" x="54" xlink:href="#m2c5675c8e4" y="123.802596"/>
      </g>
     </g>
     <g id="text_14">
      <!-- 40 -->
      <g transform="translate(34.275 127.601815)scale(0.1 -0.1)">
       <defs>
        <path d="M 37.796875 64.3125 
L 12.890625 25.390625 
L 37.796875 25.390625 
z
M 35.203125 72.90625 
L 47.609375 72.90625 
L 47.609375 25.390625 
L 58.015625 25.390625 
L 58.015625 17.1875 
L 47.609375 17.1875 
L 47.609375 0 
L 37.796875 0 
L 37.796875 17.1875 
L 4.890625 17.1875 
L 4.890625 26.703125 
z
" id="DejaVuSans-52"/>
       </defs>
       <use xlink:href="#DejaVuSans-52"/>
       <use x="63.623047" xlink:href="#DejaVuSans-48"/>
      </g>
     </g>
    </g>
    <g id="ytick_6">
     <g id="line2d_15">
      <g>
       <use style="stroke:#000000;stroke-width:0.8;" x="54" xlink:href="#m2c5675c8e4" y="94.224154"/>
      </g>
     </g>
     <g id="text_15">
      <!-- 50 -->
      <g transform="translate(34.275 98.023373)scale(0.1 -0.1)">
       <use xlink:href="#DejaVuSans-53"/>
       <use x="63.623047" xlink:href="#DejaVuSans-48"/>
      </g>
     </g>
    </g>
    <g id="ytick_7">
     <g id="line2d_16">
      <g>
       <use style="stroke:#000000;stroke-width:0.8;" x="54" xlink:href="#m2c5675c8e4" y="64.645712"/>
      </g>
     </g>
     <g id="text_16">
      <!-- 60 -->
      <g transform="translate(34.275 68.444931)scale(0.1 -0.1)">
       <defs>
        <path d="M 33.015625 40.375 
Q 26.375 40.375 22.484375 35.828125 
Q 18.609375 31.296875 18.609375 23.390625 
Q 18.609375 15.53125 22.484375 10.953125 
Q 26.375 6.390625 33.015625 6.390625 
Q 39.65625 6.390625 43.53125 10.953125 
Q 47.40625 15.53125 47.40625 23.390625 
Q 47.40625 31.296875 43.53125 35.828125 
Q 39.65625 40.375 33.015625 40.375 
z
M 52.59375 71.296875 
L 52.59375 62.3125 
Q 48.875 64.0625 45.09375 64.984375 
Q 41.3125 65.921875 37.59375 65.921875 
Q 27.828125 65.921875 22.671875 59.328125 
Q 17.53125 52.734375 16.796875 39.40625 
Q 19.671875 43.65625 24.015625 45.921875 
Q 28.375 48.1875 33.59375 48.1875 
Q 44.578125 48.1875 50.953125 41.515625 
Q 57.328125 34.859375 57.328125 23.390625 
Q 57.328125 12.15625 50.6875 5.359375 
Q 44.046875 -1.421875 33.015625 -1.421875 
Q 20.359375 -1.421875 13.671875 8.265625 
Q 6.984375 17.96875 6.984375 36.375 
Q 6.984375 53.65625 15.1875 63.9375 
Q 23.390625 74.21875 37.203125 74.21875 
Q 40.921875 74.21875 44.703125 73.484375 
Q 48.484375 72.75 52.59375 71.296875 
z
" id="DejaVuSans-54"/>
       </defs>
       <use xlink:href="#DejaVuSans-54"/>
       <use x="63.623047" xlink:href="#DejaVuSans-48"/>
      </g>
     </g>
    </g>
    <g id="ytick_8">
     <g id="line2d_17">
      <g>
       <use style="stroke:#000000;stroke-width:0.8;" x="54" xlink:href="#m2c5675c8e4" y="35.06727"/>
      </g>
     </g>
     <g id="text_17">
      <!-- 70 -->
      <g transform="translate(34.275 38.866489)scale(0.1 -0.1)">
       <use xlink:href="#DejaVuSans-55"/>
       <use x="63.623047" xlink:href="#DejaVuSans-48"/>
      </g>
     </g>
    </g>
   </g>
   <g id="line2d_18">
    <path clip-path="url(#pe8d887107d)" d="M 69.218182 238.300745 
L 69.527809 238.330323 
L 69.837436 235.72742 
L 70.147064 235.875312 
L 70.456691 222.269229 
L 70.766318 235.195008 
L 71.075946 235.72742 
L 71.385573 234.189341 
L 71.6952 235.3429 
L 72.004828 230.699085 
L 72.314455 229.782153 
L 72.624082 213.573167 
L 72.933709 235.72742 
L 73.243337 235.402057 
L 73.552964 234.514704 
L 73.862591 236.940136 
L 74.172219 235.904891 
L 74.481846 232.370267 
L 74.791473 232.828733 
L 75.101101 236.318989 
L 75.410728 236.969715 
L 75.720355 236.289411 
L 76.029982 232.917468 
L 76.33961 227.711662 
L 76.958864 231.616017 
L 77.268492 236.141518 
L 77.578119 235.461214 
L 77.887746 236.792244 
L 78.197374 237.44297 
L 78.507001 235.934469 
L 78.816628 231.127972 
L 79.126255 236.49646 
L 79.435883 236.200675 
L 79.74551 230.669507 
L 80.055137 232.178007 
L 80.674392 237.709176 
L 80.984019 237.650019 
L 81.293647 233.154096 
L 81.603274 231.645595 
L 81.912901 237.206342 
L 82.222528 237.62044 
L 82.532156 237.650019 
L 82.841783 238.123274 
L 83.15141 238.38948 
L 83.461038 238.271166 
L 83.770665 237.768333 
L 84.38992 238.419058 
L 84.699547 238.152852 
L 85.628429 238.611318 
L 85.938056 238.507794 
L 86.247683 238.803578 
L 86.557311 238.744421 
L 87.176565 238.330323 
L 87.486193 237.324656 
L 87.79582 225.256652 
L 88.105447 235.668263 
L 88.415074 234.633018 
L 88.724702 235.372479 
L 89.034329 235.431636 
L 89.343956 226.23274 
L 89.963211 235.254165 
L 90.272838 231.349811 
L 90.582466 235.461214 
L 90.892093 232.059693 
L 91.20172 232.266742 
L 91.511347 228.953957 
L 91.820975 213.366118 
L 92.130602 228.184917 
L 92.440229 232.976625 
L 92.749857 235.934469 
L 93.059484 235.54995 
L 93.369111 235.875312 
L 93.678739 232.237164 
L 93.988366 211.384362 
L 94.297993 219.577591 
L 94.60762 236.880979 
L 94.917248 236.200675 
L 95.226875 235.106273 
L 95.84613 226.646839 
L 96.155757 226.587682 
L 96.465384 229.427212 
L 96.775012 236.200675 
L 97.084639 234.810488 
L 97.394266 230.462458 
L 97.703893 234.78091 
L 98.323148 221.795974 
L 98.942403 235.076694 
L 99.25203 231.408968 
L 99.561657 234.662596 
L 99.871285 230.758242 
L 100.180912 213.011177 
L 100.490539 161.071433 
L 101.109794 183.373578 
L 101.419421 205.468674 
L 101.729048 194.850013 
L 102.038676 217.300051 
L 102.348303 220.34663 
L 102.65793 199.552986 
L 102.967558 194.820435 
L 103.277185 211.650568 
L 103.586812 208.456097 
L 103.896439 217.773306 
L 104.515694 206.947596 
L 104.825321 191.803434 
L 105.134949 214.401364 
L 105.444576 206.858861 
L 105.754203 224.665083 
L 106.063831 225.877799 
L 106.373458 231.17234 
L 106.683085 215.081668 
L 106.992712 209.34345 
L 107.30234 215.377452 
L 107.611967 195.826102 
L 107.921594 194.406337 
L 108.231222 202.215046 
L 108.540849 203.575654 
L 109.160104 178.345243 
L 109.469731 198.281113 
L 109.779358 182.663695 
L 110.088985 175.505712 
L 110.398613 181.658028 
L 110.70824 173.139437 
L 111.017867 171.009789 
L 111.327495 203.960174 
L 111.637122 223.038269 
L 111.946749 232.577316 
L 112.256377 237.34684 
L 112.566004 239.731602 
L 112.875631 240.923983 
L 113.185258 241.520173 
L 113.804513 241.967316 
L 114.733395 242.097733 
L 115.043022 225.291704 
L 115.662277 122.2939 
L 115.971904 138.828444 
L 116.281531 139.272121 
L 116.591159 141.875024 
L 116.900786 143.028583 
L 117.520041 162.875718 
L 117.829668 165.212415 
L 118.139295 158.675579 
L 118.448923 147.021673 
L 118.75855 174.204261 
L 119.068177 175.564869 
L 119.377804 200.558653 
L 119.687432 214.046422 
L 119.997059 184.586294 
L 120.306686 205.586988 
L 120.616314 198.843103 
L 120.925941 205.675723 
L 121.545196 114.899485 
L 121.854823 161.988365 
L 122.474077 177.428311 
L 122.783705 198.636054 
L 123.093332 189.969571 
L 123.402959 167.075857 
L 123.712587 169.619603 
L 124.022214 158.557265 
L 124.331841 166.957543 
L 124.641469 182.752431 
L 124.951096 157.965696 
L 125.570351 145.631486 
L 125.879978 140.8102 
L 126.189605 158.379795 
L 126.499232 167.489955 
L 126.80886 200.055819 
L 127.118487 184.941235 
L 127.428114 149.092164 
L 127.737742 159.503775 
L 128.047369 165.30115 
L 128.356996 183.935568 
L 128.666624 213.484432 
L 128.976251 207.539165 
L 129.285878 204.551742 
L 129.595505 195.559896 
L 129.905133 216.94511 
L 130.524387 173.228172 
L 130.834015 180.888989 
L 131.143642 184.172196 
L 131.453269 142.555328 
L 131.762897 154.771225 
L 132.072524 150.009096 
L 132.382151 173.050702 
L 132.691778 167.549112 
L 133.001406 135.545237 
L 133.311033 144.122986 
L 133.62066 130.694373 
L 133.930288 108.835904 
L 134.239915 132.232452 
L 134.549542 107.238669 
L 134.85917 147.701977 
L 135.168797 135.900179 
L 135.478424 156.102255 
L 135.788051 161.455953 
L 136.097679 148.116075 
L 136.407306 179.084704 
L 136.716933 162.63909 
L 137.026561 167.844896 
L 137.336188 144.211721 
L 137.645815 178.818498 
L 137.955443 187.958237 
L 138.26507 189.111796 
L 138.574697 176.245174 
L 138.884324 193.637297 
L 139.503579 197.719122 
L 139.813206 211.768882 
L 140.122834 209.846284 
L 140.432461 199.878349 
L 140.742088 213.543589 
L 141.051716 213.721059 
L 141.361343 220.34663 
L 141.67097 197.807858 
L 141.980597 199.079731 
L 142.290225 195.648631 
L 142.599852 204.01933 
L 142.909479 192.809101 
L 143.219107 198.014907 
L 143.528734 175.594448 
L 143.838361 180.741097 
L 144.147989 181.658028 
L 144.457616 193.371091 
L 144.767243 218.335296 
L 145.07687 196.06273 
L 145.386498 212.271716 
L 145.696125 216.619747 
L 146.005752 216.17607 
L 146.31538 209.609656 
L 146.625007 200.055819 
L 146.934634 213.33654 
L 147.244262 181.362244 
L 147.553889 218.571924 
L 147.863516 206.29687 
L 148.173143 214.28305 
L 148.482771 216.94511 
L 148.792398 212.656235 
L 149.102025 211.828039 
L 149.411653 214.785883 
L 149.72128 206.770126 
L 150.030907 206.799704 
L 150.340535 210.792794 
L 150.650162 198.606476 
L 151.579044 226.927834 
L 151.888671 218.986022 
L 152.198298 226.351054 
L 152.507926 221.086091 
L 152.817553 225.966534 
L 153.12718 233.804821 
L 153.436808 224.043936 
L 153.746435 233.44988 
L 154.365689 221.026935 
L 154.675317 206.977175 
L 154.984944 230.196252 
L 155.294571 225.227073 
L 155.604199 224.812975 
L 155.913826 223.896043 
L 156.223453 230.492036 
L 156.533081 231.113183 
L 156.842708 212.922441 
L 157.152335 231.970958 
L 157.77159 233.952714 
L 158.081217 232.799154 
L 158.390844 219.518434 
L 158.700472 227.918712 
L 159.010099 222.742484 
L 159.629354 232.680841 
L 159.938981 233.538615 
L 160.248608 230.018781 
L 160.558235 228.214496 
L 160.867863 231.911801 
L 161.487117 215.140825 
L 161.796745 215.554923 
L 162.106372 228.746908 
L 162.415999 234.278077 
L 162.725627 234.455547 
L 163.035254 231.113183 
L 163.344881 219.459277 
L 163.654508 226.794731 
L 163.964136 231.320232 
L 164.273763 230.166673 
L 164.58339 226.321476 
L 164.893018 224.753818 
L 165.202645 234.485126 
L 165.512272 210.940686 
L 165.8219 231.675174 
L 166.131527 231.142762 
L 166.441154 238.596529 
L 167.370036 238.596529 
L 167.989291 238.744421 
L 168.608545 238.478215 
L 168.918173 238.833157 
L 169.2278 238.714843 
L 169.537427 238.330323 
L 169.847054 237.590862 
L 170.466309 237.413391 
L 170.775936 236.999293 
L 171.085564 237.650019 
L 171.704818 238.271166 
L 172.014446 238.182431 
L 172.6337 237.797911 
L 172.943327 238.064117 
L 173.562582 238.212009 
L 173.872209 238.596529 
L 174.181837 238.596529 
L 174.491464 238.300745 
L 174.801091 237.44297 
L 175.110719 214.371785 
L 175.420346 227.3863 
L 175.729973 232.917468 
L 176.349228 218.187404 
L 176.658855 226.380633 
L 176.968482 226.853888 
L 177.27811 230.758242 
L 177.587737 228.746908 
L 177.897364 229.634261 
L 178.206992 228.776486 
L 178.516619 225.818642 
L 178.826246 231.55686 
L 179.135873 233.124517 
L 179.445501 222.239651 
L 179.755128 230.699085 
L 180.064755 227.475035 
L 180.374383 228.746908 
L 180.68401 219.962111 
L 180.993637 229.131428 
L 181.303265 232.355478 
L 181.612892 233.006204 
L 181.922519 231.054026 
L 182.232146 223.245318 
L 182.541774 229.722996 
L 182.851401 223.718573 
L 183.161028 224.990446 
L 183.470656 232.207586 
L 183.780283 226.084848 
L 184.08991 230.462458 
L 184.399538 230.551193 
L 184.709165 219.78464 
L 185.018792 234.366812 
L 185.328419 228.953957 
L 185.638047 231.201919 
L 186.257301 231.320232 
L 186.566929 229.634261 
L 186.876556 215.111246 
L 187.495811 233.006204 
L 187.805438 231.882223 
L 188.115065 218.571924 
L 188.424692 232.562527 
L 188.73432 234.662596 
L 189.043947 224.103093 
L 189.353574 222.949533 
L 189.663202 223.334053 
L 190.282456 230.758242 
L 190.592084 232.917468 
L 190.901711 233.8344 
L 191.211338 222.594592 
L 191.520966 224.043936 
L 192.14022 232.710419 
L 192.449847 232.976625 
L 192.759475 226.676417 
L 193.069102 225.582015 
L 193.378729 230.048359 
L 193.688357 232.429424 
L 193.997984 232.237164 
L 194.307611 231.024448 
L 194.617239 228.007447 
L 194.926866 227.031358 
L 195.236493 226.469368 
L 195.54612 234.278077 
L 195.855748 211.473098 
L 196.165375 227.475035 
L 196.475002 207.036332 
L 196.78463 226.321476 
L 197.094257 217.300051 
L 197.403884 214.046422 
L 197.713512 193.341513 
L 198.023139 200.972751 
L 198.642393 230.048359 
L 198.952021 209.077244 
L 199.261648 208.101155 
L 199.571275 210.112489 
L 199.880903 213.099912 
L 200.19053 195.027484 
L 200.500157 222.801641 
L 200.809785 212.626657 
L 201.119412 228.983535 
L 201.429039 223.363631 
L 201.738666 226.025691 
L 202.048294 217.240894 
L 202.357921 237.472548 
L 202.667548 237.738754 
L 202.977176 237.738754 
L 203.286803 237.561284 
L 203.59643 235.697842 
L 203.906058 237.797911 
L 204.215685 236.141518 
L 204.525312 237.886646 
L 205.144567 237.650019 
L 205.454194 237.768333 
L 206.073449 237.738754 
L 206.383076 237.472548 
L 207.311958 237.738754 
L 207.621585 237.62044 
L 208.24084 237.797911 
L 209.479349 237.590862 
L 210.098604 237.857068 
L 210.408231 237.738754 
L 211.027485 237.886646 
L 211.337113 232.680841 
L 211.64674 233.538615 
L 211.956367 225.759485 
L 212.265995 236.466881 
L 212.575622 237.797911 
L 213.194877 237.679597 
L 213.504504 237.886646 
L 213.814131 237.088029 
L 214.123758 226.05527 
L 214.433386 205.468674 
L 214.743013 199.967084 
L 215.05264 215.111246 
L 215.362268 201.94884 
L 215.671895 198.133221 
L 215.981522 203.960174 
L 216.29115 215.584501 
L 216.600777 192.335846 
L 216.910404 159.97703 
L 217.220031 175.416977 
L 217.529659 147.701977 
L 217.839286 158.734736 
L 218.148913 158.793893 
L 218.458541 155.658578 
L 219.077795 185.739853 
L 219.387423 171.335152 
L 219.69705 179.055125 
L 220.006677 196.388092 
L 220.316304 194.90917 
L 220.625932 198.044485 
L 220.935559 187.189197 
L 221.245186 180.918567 
L 221.554814 166.158925 
L 221.864441 168.111102 
L 222.174068 157.610755 
L 222.483696 133.859266 
L 222.793323 120.075712 
L 223.10295 126.228028 
L 223.412577 137.793199 
L 223.722205 159.060099 
L 224.031832 168.584357 
L 224.651087 181.598871 
L 224.960714 175.269085 
L 225.270341 164.887052 
L 225.579969 180.593204 
L 225.889596 172.370398 
L 226.199223 173.701428 
L 226.50885 195.323269 
L 226.818478 184.053882 
L 227.128105 197.038818 
L 227.74736 175.831075 
L 228.056987 159.341094 
L 228.676242 180.68194 
L 228.985869 176.570536 
L 229.295496 150.955606 
L 229.605123 145.542751 
L 229.914751 144.655398 
L 230.224378 165.537778 
L 230.534005 164.502532 
L 230.843633 142.821534 
L 231.15326 171.512623 
L 231.462887 175.505712 
L 231.772515 168.968877 
L 232.082142 185.887746 
L 232.391769 166.277239 
L 232.701396 189.496315 
L 233.011024 154.756435 
L 233.320651 144.359613 
L 233.939906 191.359757 
L 234.249533 201.919261 
L 234.55916 164.073645 
L 234.868788 195.29369 
L 235.488042 172.843653 
L 235.797669 176.097281 
L 236.416924 196.802191 
L 236.726551 194.790857 
L 237.036179 181.983391 
L 237.345806 173.938055 
L 237.655433 173.997212 
L 237.965061 179.9129 
L 238.274688 192.749944 
L 238.584315 183.314421 
L 238.893942 179.794587 
L 239.20357 170.62527 
L 239.513197 172.281662 
L 239.822824 174.914144 
L 240.132452 179.203018 
L 240.442079 189.999149 
L 240.751706 175.416977 
L 241.061334 194.34718 
L 241.680588 85.971769 
L 241.990215 124.423743 
L 242.299843 135.071982 
L 242.919097 110.43314 
L 243.228725 131.463412 
L 243.847979 88.663407 
L 244.467234 158.912207 
L 244.776861 106.410472 
L 245.086488 151.369704 
L 245.396116 141.638396 
L 245.705743 192.956993 
L 246.324998 134.894512 
L 246.634625 169.028034 
L 246.944252 167.844896 
L 247.25388 135.515659 
L 247.563507 147.169565 
L 247.873134 178.522714 
L 248.182761 177.812831 
L 248.492389 168.791406 
L 248.802016 138.029827 
L 249.111643 163.319394 
L 249.421271 158.823471 
L 249.730898 184.497559 
L 250.040525 178.197351 
L 250.65978 154.919117 
L 250.969407 157.758647 
L 251.279034 129.03798 
L 251.588662 199.937505 
L 251.898289 196.831769 
L 252.207916 180.888989 
L 252.517544 126.257607 
L 252.827171 176.68885 
L 253.136798 187.100462 
L 253.446426 183.13695 
L 253.756053 202.806614 
L 254.06568 183.048215 
L 254.375308 214.46052 
L 254.684935 215.643658 
L 254.994562 220.376209 
L 255.304189 211.709725 
L 255.613817 219.755062 
L 256.233071 209.195558 
L 256.542699 218.45361 
L 256.852326 217.980355 
L 257.161953 225.28623 
L 257.471581 218.986022 
L 257.781208 218.986022 
L 258.090835 199.84877 
L 258.400462 217.300051 
L 258.71009 223.067847 
L 259.019717 219.015601 
L 259.329344 218.512767 
L 259.638972 222.62417 
L 259.948599 211.532255 
L 260.258226 205.409517 
L 260.567854 233.124517 
L 260.877481 237.531705 
L 261.187108 237.472548 
L 261.806363 200.262868 
L 262.11599 197.260656 
L 262.425617 209.935019 
L 262.735245 202.215046 
L 263.044872 203.398183 
L 263.354499 206.030665 
L 263.664127 215.185192 
L 263.973754 217.714149 
L 264.283381 216.974688 
L 264.593008 200.203711 
L 264.902636 217.477522 
L 265.212263 213.839373 
L 265.52189 225.966534 
L 265.831518 223.541102 
L 266.141145 229.900467 
L 266.450772 205.261625 
L 266.7604 222.387543 
L 267.379654 207.539165 
L 267.689281 213.987265 
L 267.998909 225.020024 
L 268.308536 221.30793 
L 268.618163 219.163493 
L 268.927791 223.245318 
L 269.237418 201.386849 
L 269.547045 214.223893 
L 270.1663 226.913044 
L 270.475927 214.697148 
L 270.785554 222.25444 
L 271.095182 222.387543 
L 271.404809 214.46052 
L 271.714436 225.522858 
L 272.024064 221.559347 
L 272.333691 228.717329 
L 272.643318 227.859555 
L 272.952946 202.185467 
L 273.262573 210.970264 
L 273.5722 234.189341 
L 273.881827 234.721753 
L 274.191455 202.392516 
L 274.501082 220.435366 
L 274.810709 202.89535 
L 275.120337 230.78782 
L 275.429964 229.782153 
L 275.739591 232.237164 
L 276.049219 219.193071 
L 276.358846 221.263562 
L 276.668473 215.407031 
L 276.9781 230.048359 
L 277.287728 225.611593 
L 277.597355 211.591412 
L 277.906982 229.575104 
L 278.21661 229.338477 
L 278.526237 215.436609 
L 278.835864 228.746908 
L 279.145492 223.659416 
L 279.455119 222.417121 
L 279.764746 225.789064 
L 280.074373 214.519677 
L 280.384001 221.855131 
L 280.693628 217.980355 
L 281.003255 221.67766 
L 281.312883 220.790307 
L 281.62251 208.692724 
L 281.932137 229.308898 
L 282.241765 218.039512 
L 282.551392 215.052089 
L 282.861019 223.274896 
L 283.170646 226.203162 
L 283.480274 218.571924 
L 283.789901 218.778973 
L 284.409156 206.710969 
L 284.718783 225.345387 
L 285.02841 224.33972 
L 285.338038 213.366118 
L 285.647665 209.077244 
L 285.957292 221.263562 
L 286.266919 222.4467 
L 286.576547 198.488162 
L 286.886174 213.247804 
L 287.195801 217.152159 
L 287.505429 218.808551 
L 287.815056 219.666326 
L 288.124683 231.290654 
L 288.434311 227.711662 
L 288.743938 226.351054 
L 289.053565 203.339026 
L 289.363192 214.84504 
L 289.982447 222.4467 
L 290.292074 222.772063 
L 290.601702 215.673237 
L 290.911329 211.325206 
L 291.220956 212.95202 
L 292.149838 221.766396 
L 292.459465 221.648082 
L 292.769093 217.862041 
L 293.07872 212.242137 
L 293.388347 222.801641 
L 293.697975 218.823341 
L 294.007602 221.736817 
L 294.626857 213.011177 
L 294.936484 210.378695 
L 295.246111 223.866465 
L 295.555738 206.799704 
L 295.865366 222.150915 
L 296.174993 219.873375 
L 296.48462 215.347874 
L 296.794248 218.542345 
L 297.103875 212.18298 
L 297.413502 210.171646 
L 297.72313 202.422095 
L 298.032757 217.654992 
L 298.342384 209.875862 
L 298.652011 209.165979 
L 299.271266 189.614629 
L 299.580893 225.256652 
L 299.890521 223.9552 
L 300.200148 218.246561 
L 300.509775 224.665083 
L 300.819403 223.659416 
L 301.12903 210.999843 
L 301.438657 228.184917 
L 301.748284 215.081668 
L 302.057912 220.198738 
L 302.367539 221.795974 
L 302.677166 221.884709 
L 302.986794 206.1194 
L 303.296421 236.67393 
L 303.915676 236.792244 
L 304.53493 236.644352 
L 304.844557 236.318989 
L 305.154185 235.786577 
L 305.463812 235.993626 
L 305.773439 236.023205 
L 306.083067 236.348567 
L 306.392694 236.378146 
L 306.702321 235.993626 
L 307.011949 236.082361 
L 307.321576 236.289411 
L 307.631203 235.786577 
L 307.94083 236.082361 
L 308.250458 236.023205 
L 308.560085 236.703509 
L 308.869712 236.851401 
L 309.17934 236.644352 
L 309.488967 234.278077 
L 309.798594 213.306961 
L 310.108222 213.661903 
L 310.417849 204.906684 
L 310.727476 217.033845 
L 311.037103 219.193071 
L 311.346731 207.361694 
L 311.656358 224.753818 
L 311.965985 204.670056 
L 312.275613 218.631081 
L 312.58524 210.142068 
L 313.204495 200.292447 
L 313.514122 222.505857 
L 313.823749 211.029421 
L 314.133376 213.366118 
L 314.443004 236.318989 
L 314.752631 236.407724 
L 315.062258 234.987959 
L 315.371886 205.764459 
L 315.681513 205.202468 
L 315.99114 206.829282 
L 316.300768 195.116219 
L 316.610395 217.921198 
L 316.920022 195.500739 
L 317.229649 210.467431 
L 317.539277 207.894106 
L 317.848904 204.315115 
L 318.158531 198.576897 
L 318.468159 200.588231 
L 318.777786 195.944416 
L 319.087413 209.313872 
L 319.397041 183.018637 
L 319.706668 210.408274 
L 320.016295 199.168466 
L 320.325923 216.116913 
L 320.63555 209.935019 
L 320.945177 197.231078 
L 321.254804 193.844346 
L 321.874059 202.274202 
L 322.183686 213.484432 
L 322.493314 212.878074 
L 322.802941 201.150222 
L 323.112568 194.080974 
L 323.422196 220.553679 
L 323.731823 194.820435 
L 324.04145 190.35409 
L 324.351077 187.810344 
L 324.660705 174.440889 
L 324.970332 187.011726 
L 325.279959 187.307511 
L 325.589587 201.298114 
L 325.899214 206.31166 
L 326.208841 189.644208 
L 326.518469 197.867015 
L 327.137723 207.775793 
L 327.44735 213.780216 
L 327.756978 185.503226 
L 328.066605 235.135851 
L 328.376232 237.383813 
L 329.305114 237.62044 
L 329.614742 237.383813 
L 329.924369 237.44297 
L 330.233996 237.383813 
L 330.543623 144.714554 
L 331.162878 194.524651 
L 331.782133 180.770675 
L 332.09176 180.504469 
L 332.401387 212.227348 
L 332.711015 181.273509 
L 333.020642 166.573023 
L 333.330269 182.427068 
L 333.639896 169.146347 
L 333.949524 119.454565 
L 334.259151 141.697553 
L 334.568778 153.055675 
L 334.878406 136.225542 
L 335.188033 171.305574 
L 335.49766 188.608962 
L 336.116915 176.422644 
L 336.426542 180.48968 
L 336.736169 189.673786 
L 337.355424 170.24075 
L 337.665051 179.410067 
L 337.974679 174.647938 
L 338.284306 186.213108 
L 338.593933 159.41504 
L 338.903561 170.743583 
L 339.213188 142.584907 
L 339.522815 152.937361 
L 339.832442 151.63591 
L 340.14207 140.987671 
L 340.451697 182.929901 
L 340.761324 171.068946 
L 341.070952 173.405643 
L 341.380579 156.75298 
L 341.690206 156.664245 
L 341.999834 174.79583 
L 342.309461 141.815867 
L 342.619088 146.104741 
L 343.238343 184.586294 
L 343.54797 181.155195 
L 343.857597 181.155195 
L 344.167225 195.796524 
L 344.476852 180.060793 
L 344.786479 180.474891 
L 345.405734 166.513866 
L 345.715361 160.420707 
L 346.024988 176.245174 
L 346.334616 183.403156 
L 346.644243 167.401219 
L 346.95387 136.757954 
L 347.263498 171.985878 
L 348.19238 58.877916 
L 348.502007 44.443636 
L 348.811634 96.797479 
L 349.121261 122.382831 
L 349.740516 147.021673 
L 350.050143 185.473647 
L 350.359771 180.977724 
L 350.669398 170.743583 
L 350.979025 181.450979 
L 351.288653 197.275446 
L 351.59828 189.259688 
L 351.907907 185.296177 
L 352.217534 193.223199 
L 352.527162 182.160862 
L 352.836789 189.703365 
L 353.146416 169.590024 
L 353.456044 188.727276 
L 353.765671 184.704608 
L 354.384926 155.007852 
L 354.694553 96.472116 
L 355.00418 104.872393 
L 355.313807 154.090921 
L 355.623435 146.69631 
L 356.242689 176.748007 
L 356.861944 186.863834 
L 357.171571 169.382975 
L 357.481199 200.381182 
L 357.790826 190.827345 
L 358.100453 162.402463 
L 358.41008 171.601358 
L 358.719708 186.597628 
L 359.029335 159.41504 
L 359.338962 190.428036 
L 359.64859 182.929901 
L 359.958217 178.611449 
L 360.577472 187.366668 
L 360.887099 196.033151 
L 361.196726 183.610206 
L 361.506353 186.006059 
L 361.815981 177.724096 
L 362.125608 188.07655 
L 362.435235 242.116364 
L 362.744863 155.185323 
L 363.05449 183.13695 
L 363.364117 176.748007 
L 363.673745 181.717185 
L 363.983372 202.806614 
L 364.292999 203.07282 
L 364.602626 153.440195 
L 364.912254 168.258994 
L 365.221881 196.743034 
L 365.531508 170.033701 
L 365.841136 184.113039 
L 366.150763 189.910414 
L 366.46039 185.976481 
L 366.770018 169.767495 
L 367.389272 183.580627 
L 367.698899 191.31539 
L 368.008527 194.228866 
L 368.318154 211.768882 
L 368.627781 204.877105 
L 368.937409 215.761972 
L 369.247036 206.710969 
L 369.556663 209.609656 
L 369.866291 214.342207 
L 370.175918 214.66757 
L 370.485545 211.088578 
L 370.795172 193.607719 
L 371.1048 190.087884 
L 371.414427 208.78146 
L 371.724054 216.383119 
L 372.343309 199.612143 
L 372.652936 213.51401 
L 372.962564 212.123824 
L 373.272191 200.203711 
L 373.581818 215.052089 
L 373.581818 215.052089 
" style="fill:none;stroke:#000000;stroke-linecap:square;stroke-width:1.5;"/>
   </g>
   <g id="patch_3">
    <path d="M 54 252 
L 54 34.56 
" style="fill:none;stroke:#000000;stroke-linecap:square;stroke-linejoin:miter;stroke-width:0.8;"/>
   </g>
   <g id="patch_4">
    <path d="M 388.8 252 
L 388.8 34.56 
" style="fill:none;stroke:#000000;stroke-linecap:square;stroke-linejoin:miter;stroke-width:0.8;"/>
   </g>
   <g id="patch_5">
    <path d="M 54 252 
L 388.8 252 
" style="fill:none;stroke:#000000;stroke-linecap:square;stroke-linejoin:miter;stroke-width:0.8;"/>
   </g>
   <g id="patch_6">
    <path d="M 54 34.56 
L 388.8 34.56 
" style="fill:none;stroke:#000000;stroke-linecap:square;stroke-linejoin:miter;stroke-width:0.8;"/>
   </g>
   <g id="text_18">
    <!-- Soma Diária de Energia - Casa 23 -->
    <g transform="translate(120.413438 28.56)scale(0.12 -0.12)">
     <defs>
      <path d="M 53.515625 70.515625 
L 53.515625 60.890625 
Q 47.90625 63.578125 42.921875 64.890625 
Q 37.9375 66.21875 33.296875 66.21875 
Q 25.25 66.21875 20.875 63.09375 
Q 16.5 59.96875 16.5 54.203125 
Q 16.5 49.359375 19.40625 46.890625 
Q 22.3125 44.4375 30.421875 42.921875 
L 36.375 41.703125 
Q 47.40625 39.59375 52.65625 34.296875 
Q 57.90625 29 57.90625 20.125 
Q 57.90625 9.515625 50.796875 4.046875 
Q 43.703125 -1.421875 29.984375 -1.421875 
Q 24.8125 -1.421875 18.96875 -0.25 
Q 13.140625 0.921875 6.890625 3.21875 
L 6.890625 13.375 
Q 12.890625 10.015625 18.65625 8.296875 
Q 24.421875 6.59375 29.984375 6.59375 
Q 38.421875 6.59375 43.015625 9.90625 
Q 47.609375 13.234375 47.609375 19.390625 
Q 47.609375 24.75 44.3125 27.78125 
Q 41.015625 30.8125 33.5 32.328125 
L 27.484375 33.5 
Q 16.453125 35.6875 11.515625 40.375 
Q 6.59375 45.0625 6.59375 53.421875 
Q 6.59375 63.09375 13.40625 68.65625 
Q 20.21875 74.21875 32.171875 74.21875 
Q 37.3125 74.21875 42.625 73.28125 
Q 47.953125 72.359375 53.515625 70.515625 
z
" id="DejaVuSans-83"/>
      <path d="M 30.609375 48.390625 
Q 23.390625 48.390625 19.1875 42.75 
Q 14.984375 37.109375 14.984375 27.296875 
Q 14.984375 17.484375 19.15625 11.84375 
Q 23.34375 6.203125 30.609375 6.203125 
Q 37.796875 6.203125 41.984375 11.859375 
Q 46.1875 17.53125 46.1875 27.296875 
Q 46.1875 37.015625 41.984375 42.703125 
Q 37.796875 48.390625 30.609375 48.390625 
z
M 30.609375 56 
Q 42.328125 56 49.015625 48.375 
Q 55.71875 40.765625 55.71875 27.296875 
Q 55.71875 13.875 49.015625 6.21875 
Q 42.328125 -1.421875 30.609375 -1.421875 
Q 18.84375 -1.421875 12.171875 6.21875 
Q 5.515625 13.875 5.515625 27.296875 
Q 5.515625 40.765625 12.171875 48.375 
Q 18.84375 56 30.609375 56 
z
" id="DejaVuSans-111"/>
      <path d="M 52 44.1875 
Q 55.375 50.25 60.0625 53.125 
Q 64.75 56 71.09375 56 
Q 79.640625 56 84.28125 50.015625 
Q 88.921875 44.046875 88.921875 33.015625 
L 88.921875 0 
L 79.890625 0 
L 79.890625 32.71875 
Q 79.890625 40.578125 77.09375 44.375 
Q 74.3125 48.1875 68.609375 48.1875 
Q 61.625 48.1875 57.5625 43.546875 
Q 53.515625 38.921875 53.515625 30.90625 
L 53.515625 0 
L 44.484375 0 
L 44.484375 32.71875 
Q 44.484375 40.625 41.703125 44.40625 
Q 38.921875 48.1875 33.109375 48.1875 
Q 26.21875 48.1875 22.15625 43.53125 
Q 18.109375 38.875 18.109375 30.90625 
L 18.109375 0 
L 9.078125 0 
L 9.078125 54.6875 
L 18.109375 54.6875 
L 18.109375 46.1875 
Q 21.1875 51.21875 25.484375 53.609375 
Q 29.78125 56 35.6875 56 
Q 41.65625 56 45.828125 52.96875 
Q 50 49.953125 52 44.1875 
z
" id="DejaVuSans-109"/>
      <path d="M 34.28125 27.484375 
Q 23.390625 27.484375 19.1875 25 
Q 14.984375 22.515625 14.984375 16.5 
Q 14.984375 11.71875 18.140625 8.90625 
Q 21.296875 6.109375 26.703125 6.109375 
Q 34.1875 6.109375 38.703125 11.40625 
Q 43.21875 16.703125 43.21875 25.484375 
L 43.21875 27.484375 
z
M 52.203125 31.203125 
L 52.203125 0 
L 43.21875 0 
L 43.21875 8.296875 
Q 40.140625 3.328125 35.546875 0.953125 
Q 30.953125 -1.421875 24.3125 -1.421875 
Q 15.921875 -1.421875 10.953125 3.296875 
Q 6 8.015625 6 15.921875 
Q 6 25.140625 12.171875 29.828125 
Q 18.359375 34.515625 30.609375 34.515625 
L 43.21875 34.515625 
L 43.21875 35.40625 
Q 43.21875 41.609375 39.140625 45 
Q 35.0625 48.390625 27.6875 48.390625 
Q 23 48.390625 18.546875 47.265625 
Q 14.109375 46.140625 10.015625 43.890625 
L 10.015625 52.203125 
Q 14.9375 54.109375 19.578125 55.046875 
Q 24.21875 56 28.609375 56 
Q 40.484375 56 46.34375 49.84375 
Q 52.203125 43.703125 52.203125 31.203125 
z
" id="DejaVuSans-97"/>
      <path id="DejaVuSans-32"/>
      <path d="M 19.671875 64.796875 
L 19.671875 8.109375 
L 31.59375 8.109375 
Q 46.6875 8.109375 53.6875 14.9375 
Q 60.6875 21.78125 60.6875 36.53125 
Q 60.6875 51.171875 53.6875 57.984375 
Q 46.6875 64.796875 31.59375 64.796875 
z
M 9.8125 72.90625 
L 30.078125 72.90625 
Q 51.265625 72.90625 61.171875 64.09375 
Q 71.09375 55.28125 71.09375 36.53125 
Q 71.09375 17.671875 61.125 8.828125 
Q 51.171875 0 30.078125 0 
L 9.8125 0 
z
" id="DejaVuSans-68"/>
      <path d="M 9.421875 54.6875 
L 18.40625 54.6875 
L 18.40625 0 
L 9.421875 0 
z
M 9.421875 75.984375 
L 18.40625 75.984375 
L 18.40625 64.59375 
L 9.421875 64.59375 
z
" id="DejaVuSans-105"/>
      <path d="M 34.28125 27.484375 
Q 23.390625 27.484375 19.1875 25 
Q 14.984375 22.515625 14.984375 16.5 
Q 14.984375 11.71875 18.140625 8.90625 
Q 21.296875 6.109375 26.703125 6.109375 
Q 34.1875 6.109375 38.703125 11.40625 
Q 43.21875 16.703125 43.21875 25.484375 
L 43.21875 27.484375 
z
M 52.203125 31.203125 
L 52.203125 0 
L 43.21875 0 
L 43.21875 8.296875 
Q 40.140625 3.328125 35.546875 0.953125 
Q 30.953125 -1.421875 24.3125 -1.421875 
Q 15.921875 -1.421875 10.953125 3.296875 
Q 6 8.015625 6 15.921875 
Q 6 25.140625 12.171875 29.828125 
Q 18.359375 34.515625 30.609375 34.515625 
L 43.21875 34.515625 
L 43.21875 35.40625 
Q 43.21875 41.609375 39.140625 45 
Q 35.0625 48.390625 27.6875 48.390625 
Q 23 48.390625 18.546875 47.265625 
Q 14.109375 46.140625 10.015625 43.890625 
L 10.015625 52.203125 
Q 14.9375 54.109375 19.578125 55.046875 
Q 24.21875 56 28.609375 56 
Q 40.484375 56 46.34375 49.84375 
Q 52.203125 43.703125 52.203125 31.203125 
z
M 35.796875 79.984375 
L 45.515625 79.984375 
L 29.59375 61.625 
L 22.125 61.625 
z
" id="DejaVuSans-225"/>
      <path d="M 41.109375 46.296875 
Q 39.59375 47.171875 37.8125 47.578125 
Q 36.03125 48 33.890625 48 
Q 26.265625 48 22.1875 43.046875 
Q 18.109375 38.09375 18.109375 28.8125 
L 18.109375 0 
L 9.078125 0 
L 9.078125 54.6875 
L 18.109375 54.6875 
L 18.109375 46.1875 
Q 20.953125 51.171875 25.484375 53.578125 
Q 30.03125 56 36.53125 56 
Q 37.453125 56 38.578125 55.875 
Q 39.703125 55.765625 41.0625 55.515625 
z
" id="DejaVuSans-114"/>
      <path d="M 45.40625 46.390625 
L 45.40625 75.984375 
L 54.390625 75.984375 
L 54.390625 0 
L 45.40625 0 
L 45.40625 8.203125 
Q 42.578125 3.328125 38.25 0.953125 
Q 33.9375 -1.421875 27.875 -1.421875 
Q 17.96875 -1.421875 11.734375 6.484375 
Q 5.515625 14.40625 5.515625 27.296875 
Q 5.515625 40.1875 11.734375 48.09375 
Q 17.96875 56 27.875 56 
Q 33.9375 56 38.25 53.625 
Q 42.578125 51.265625 45.40625 46.390625 
z
M 14.796875 27.296875 
Q 14.796875 17.390625 18.875 11.75 
Q 22.953125 6.109375 30.078125 6.109375 
Q 37.203125 6.109375 41.296875 11.75 
Q 45.40625 17.390625 45.40625 27.296875 
Q 45.40625 37.203125 41.296875 42.84375 
Q 37.203125 48.484375 30.078125 48.484375 
Q 22.953125 48.484375 18.875 42.84375 
Q 14.796875 37.203125 14.796875 27.296875 
z
" id="DejaVuSans-100"/>
      <path d="M 56.203125 29.59375 
L 56.203125 25.203125 
L 14.890625 25.203125 
Q 15.484375 15.921875 20.484375 11.0625 
Q 25.484375 6.203125 34.421875 6.203125 
Q 39.59375 6.203125 44.453125 7.46875 
Q 49.3125 8.734375 54.109375 11.28125 
L 54.109375 2.78125 
Q 49.265625 0.734375 44.1875 -0.34375 
Q 39.109375 -1.421875 33.890625 -1.421875 
Q 20.796875 -1.421875 13.15625 6.1875 
Q 5.515625 13.8125 5.515625 26.8125 
Q 5.515625 40.234375 12.765625 48.109375 
Q 20.015625 56 32.328125 56 
Q 43.359375 56 49.78125 48.890625 
Q 56.203125 41.796875 56.203125 29.59375 
z
M 47.21875 32.234375 
Q 47.125 39.59375 43.09375 43.984375 
Q 39.0625 48.390625 32.421875 48.390625 
Q 24.90625 48.390625 20.390625 44.140625 
Q 15.875 39.890625 15.1875 32.171875 
z
" id="DejaVuSans-101"/>
      <path d="M 9.8125 72.90625 
L 55.90625 72.90625 
L 55.90625 64.59375 
L 19.671875 64.59375 
L 19.671875 43.015625 
L 54.390625 43.015625 
L 54.390625 34.71875 
L 19.671875 34.71875 
L 19.671875 8.296875 
L 56.78125 8.296875 
L 56.78125 0 
L 9.8125 0 
z
" id="DejaVuSans-69"/>
      <path d="M 54.890625 33.015625 
L 54.890625 0 
L 45.90625 0 
L 45.90625 32.71875 
Q 45.90625 40.484375 42.875 44.328125 
Q 39.84375 48.1875 33.796875 48.1875 
Q 26.515625 48.1875 22.3125 43.546875 
Q 18.109375 38.921875 18.109375 30.90625 
L 18.109375 0 
L 9.078125 0 
L 9.078125 54.6875 
L 18.109375 54.6875 
L 18.109375 46.1875 
Q 21.34375 51.125 25.703125 53.5625 
Q 30.078125 56 35.796875 56 
Q 45.21875 56 50.046875 50.171875 
Q 54.890625 44.34375 54.890625 33.015625 
z
" id="DejaVuSans-110"/>
      <path d="M 45.40625 27.984375 
Q 45.40625 37.75 41.375 43.109375 
Q 37.359375 48.484375 30.078125 48.484375 
Q 22.859375 48.484375 18.828125 43.109375 
Q 14.796875 37.75 14.796875 27.984375 
Q 14.796875 18.265625 18.828125 12.890625 
Q 22.859375 7.515625 30.078125 7.515625 
Q 37.359375 7.515625 41.375 12.890625 
Q 45.40625 18.265625 45.40625 27.984375 
z
M 54.390625 6.78125 
Q 54.390625 -7.171875 48.1875 -13.984375 
Q 42 -20.796875 29.203125 -20.796875 
Q 24.46875 -20.796875 20.265625 -20.09375 
Q 16.0625 -19.390625 12.109375 -17.921875 
L 12.109375 -9.1875 
Q 16.0625 -11.328125 19.921875 -12.34375 
Q 23.78125 -13.375 27.78125 -13.375 
Q 36.625 -13.375 41.015625 -8.765625 
Q 45.40625 -4.15625 45.40625 5.171875 
L 45.40625 9.625 
Q 42.625 4.78125 38.28125 2.390625 
Q 33.9375 0 27.875 0 
Q 17.828125 0 11.671875 7.65625 
Q 5.515625 15.328125 5.515625 27.984375 
Q 5.515625 40.671875 11.671875 48.328125 
Q 17.828125 56 27.875 56 
Q 33.9375 56 38.28125 53.609375 
Q 42.625 51.21875 45.40625 46.390625 
L 45.40625 54.6875 
L 54.390625 54.6875 
z
" id="DejaVuSans-103"/>
      <path d="M 64.40625 67.28125 
L 64.40625 56.890625 
Q 59.421875 61.53125 53.78125 63.8125 
Q 48.140625 66.109375 41.796875 66.109375 
Q 29.296875 66.109375 22.65625 58.46875 
Q 16.015625 50.828125 16.015625 36.375 
Q 16.015625 21.96875 22.65625 14.328125 
Q 29.296875 6.6875 41.796875 6.6875 
Q 48.140625 6.6875 53.78125 8.984375 
Q 59.421875 11.28125 64.40625 15.921875 
L 64.40625 5.609375 
Q 59.234375 2.09375 53.4375 0.328125 
Q 47.65625 -1.421875 41.21875 -1.421875 
Q 24.65625 -1.421875 15.125 8.703125 
Q 5.609375 18.84375 5.609375 36.375 
Q 5.609375 53.953125 15.125 64.078125 
Q 24.65625 74.21875 41.21875 74.21875 
Q 47.75 74.21875 53.53125 72.484375 
Q 59.328125 70.75 64.40625 67.28125 
z
" id="DejaVuSans-67"/>
      <path d="M 44.28125 53.078125 
L 44.28125 44.578125 
Q 40.484375 46.53125 36.375 47.5 
Q 32.28125 48.484375 27.875 48.484375 
Q 21.1875 48.484375 17.84375 46.4375 
Q 14.5 44.390625 14.5 40.28125 
Q 14.5 37.15625 16.890625 35.375 
Q 19.28125 33.59375 26.515625 31.984375 
L 29.59375 31.296875 
Q 39.15625 29.25 43.1875 25.515625 
Q 47.21875 21.78125 47.21875 15.09375 
Q 47.21875 7.46875 41.1875 3.015625 
Q 35.15625 -1.421875 24.609375 -1.421875 
Q 20.21875 -1.421875 15.453125 -0.5625 
Q 10.6875 0.296875 5.421875 2 
L 5.421875 11.28125 
Q 10.40625 8.6875 15.234375 7.390625 
Q 20.0625 6.109375 24.8125 6.109375 
Q 31.15625 6.109375 34.5625 8.28125 
Q 37.984375 10.453125 37.984375 14.40625 
Q 37.984375 18.0625 35.515625 20.015625 
Q 33.0625 21.96875 24.703125 23.78125 
L 21.578125 24.515625 
Q 13.234375 26.265625 9.515625 29.90625 
Q 5.8125 33.546875 5.8125 39.890625 
Q 5.8125 47.609375 11.28125 51.796875 
Q 16.75 56 26.8125 56 
Q 31.78125 56 36.171875 55.265625 
Q 40.578125 54.546875 44.28125 53.078125 
z
" id="DejaVuSans-115"/>
     </defs>
     <use xlink:href="#DejaVuSans-83"/>
     <use x="63.476562" xlink:href="#DejaVuSans-111"/>
     <use x="124.658203" xlink:href="#DejaVuSans-109"/>
     <use x="222.070312" xlink:href="#DejaVuSans-97"/>
     <use x="283.349609" xlink:href="#DejaVuSans-32"/>
     <use x="315.136719" xlink:href="#DejaVuSans-68"/>
     <use x="392.138672" xlink:href="#DejaVuSans-105"/>
     <use x="419.921875" xlink:href="#DejaVuSans-225"/>
     <use x="481.201172" xlink:href="#DejaVuSans-114"/>
     <use x="522.314453" xlink:href="#DejaVuSans-105"/>
     <use x="550.097656" xlink:href="#DejaVuSans-97"/>
     <use x="611.376953" xlink:href="#DejaVuSans-32"/>
     <use x="643.164062" xlink:href="#DejaVuSans-100"/>
     <use x="706.640625" xlink:href="#DejaVuSans-101"/>
     <use x="768.164062" xlink:href="#DejaVuSans-32"/>
     <use x="799.951172" xlink:href="#DejaVuSans-69"/>
     <use x="863.134766" xlink:href="#DejaVuSans-110"/>
     <use x="926.513672" xlink:href="#DejaVuSans-101"/>
     <use x="988.037109" xlink:href="#DejaVuSans-114"/>
     <use x="1027.400391" xlink:href="#DejaVuSans-103"/>
     <use x="1090.876953" xlink:href="#DejaVuSans-105"/>
     <use x="1118.660156" xlink:href="#DejaVuSans-97"/>
     <use x="1179.939453" xlink:href="#DejaVuSans-32"/>
     <use x="1211.726562" xlink:href="#DejaVuSans-45"/>
     <use x="1247.810547" xlink:href="#DejaVuSans-32"/>
     <use x="1279.597656" xlink:href="#DejaVuSans-67"/>
     <use x="1349.421875" xlink:href="#DejaVuSans-97"/>
     <use x="1410.701172" xlink:href="#DejaVuSans-115"/>
     <use x="1462.800781" xlink:href="#DejaVuSans-97"/>
     <use x="1524.080078" xlink:href="#DejaVuSans-32"/>
     <use x="1555.867188" xlink:href="#DejaVuSans-50"/>
     <use x="1619.490234" xlink:href="#DejaVuSans-51"/>
    </g>
   </g>
  </g>
 </g>
 <defs>
  <clipPath id="pe8d887107d">
   <rect height="217.44" width="334.8" x="54" y="34.56"/>
  </clipPath>
 </defs>
</svg>
