<?xml version="1.0" encoding="utf-8" standalone="no"?>
<!DOCTYPE svg PUBLIC "-//W3C//DTD SVG 1.1//EN"
  "http://www.w3.org/Graphics/SVG/1.1/DTD/svg11.dtd">
<!-- Created with matplotlib (https://matplotlib.org/) -->
<svg height="288pt" version="1.1" viewBox="0 0 432 288" width="432pt" xmlns="http://www.w3.org/2000/svg" xmlns:xlink="http://www.w3.org/1999/xlink">
 <metadata>
  <rdf:RDF xmlns:cc="http://creativecommons.org/ns#" xmlns:dc="http://purl.org/dc/elements/1.1/" xmlns:rdf="http://www.w3.org/1999/02/22-rdf-syntax-ns#">
   <cc:Work>
    <dc:type rdf:resource="http://purl.org/dc/dcmitype/StillImage"/>
    <dc:date>2021-07-21T14:57:49.691099</dc:date>
    <dc:format>image/svg+xml</dc:format>
    <dc:creator>
     <cc:Agent>
      <dc:title>Matplotlib v3.3.4, https://matplotlib.org/</dc:title>
     </cc:Agent>
    </dc:creator>
   </cc:Work>
  </rdf:RDF>
 </metadata>
 <defs>
  <style type="text/css">*{stroke-linecap:butt;stroke-linejoin:round;}</style>
 </defs>
 <g id="figure_1">
  <g id="patch_1">
   <path d="M 0 288 
L 432 288 
L 432 0 
L 0 0 
z
" style="fill:#ffffff;"/>
  </g>
  <g id="axes_1">
   <g id="patch_2">
    <path d="M 54 252 
L 388.8 252 
L 388.8 34.56 
L 54 34.56 
z
" style="fill:#ffffff;"/>
   </g>
   <g id="matplotlib.axis_1">
    <g id="xtick_1">
     <g id="line2d_1">
      <defs>
       <path d="M 0 0 
L 0 3.5 
" id="mc97e55b934" style="stroke:#000000;stroke-width:0.8;"/>
      </defs>
      <g>
       <use style="stroke:#000000;stroke-width:0.8;" x="69.91387" xlink:href="#mc97e55b934" y="252"/>
      </g>
     </g>
     <g id="text_1">
      <!-- 2015-10 -->
      <g transform="translate(57.092588 293.917817)rotate(-45)scale(0.1 -0.1)">
       <defs>
        <path d="M 19.1875 8.296875 
L 53.609375 8.296875 
L 53.609375 0 
L 7.328125 0 
L 7.328125 8.296875 
Q 12.9375 14.109375 22.625 23.890625 
Q 32.328125 33.6875 34.8125 36.53125 
Q 39.546875 41.84375 41.421875 45.53125 
Q 43.3125 49.21875 43.3125 52.78125 
Q 43.3125 58.59375 39.234375 62.25 
Q 35.15625 65.921875 28.609375 65.921875 
Q 23.96875 65.921875 18.8125 64.3125 
Q 13.671875 62.703125 7.8125 59.421875 
L 7.8125 69.390625 
Q 13.765625 71.78125 18.9375 73 
Q 24.125 74.21875 28.421875 74.21875 
Q 39.75 74.21875 46.484375 68.546875 
Q 53.21875 62.890625 53.21875 53.421875 
Q 53.21875 48.921875 51.53125 44.890625 
Q 49.859375 40.875 45.40625 35.40625 
Q 44.1875 33.984375 37.640625 27.21875 
Q 31.109375 20.453125 19.1875 8.296875 
z
" id="DejaVuSans-50"/>
        <path d="M 31.78125 66.40625 
Q 24.171875 66.40625 20.328125 58.90625 
Q 16.5 51.421875 16.5 36.375 
Q 16.5 21.390625 20.328125 13.890625 
Q 24.171875 6.390625 31.78125 6.390625 
Q 39.453125 6.390625 43.28125 13.890625 
Q 47.125 21.390625 47.125 36.375 
Q 47.125 51.421875 43.28125 58.90625 
Q 39.453125 66.40625 31.78125 66.40625 
z
M 31.78125 74.21875 
Q 44.046875 74.21875 50.515625 64.515625 
Q 56.984375 54.828125 56.984375 36.375 
Q 56.984375 17.96875 50.515625 8.265625 
Q 44.046875 -1.421875 31.78125 -1.421875 
Q 19.53125 -1.421875 13.0625 8.265625 
Q 6.59375 17.96875 6.59375 36.375 
Q 6.59375 54.828125 13.0625 64.515625 
Q 19.53125 74.21875 31.78125 74.21875 
z
" id="DejaVuSans-48"/>
        <path d="M 12.40625 8.296875 
L 28.515625 8.296875 
L 28.515625 63.921875 
L 10.984375 60.40625 
L 10.984375 69.390625 
L 28.421875 72.90625 
L 38.28125 72.90625 
L 38.28125 8.296875 
L 54.390625 8.296875 
L 54.390625 0 
L 12.40625 0 
z
" id="DejaVuSans-49"/>
        <path d="M 10.796875 72.90625 
L 49.515625 72.90625 
L 49.515625 64.59375 
L 19.828125 64.59375 
L 19.828125 46.734375 
Q 21.96875 47.46875 24.109375 47.828125 
Q 26.265625 48.1875 28.421875 48.1875 
Q 40.625 48.1875 47.75 41.5 
Q 54.890625 34.8125 54.890625 23.390625 
Q 54.890625 11.625 47.5625 5.09375 
Q 40.234375 -1.421875 26.90625 -1.421875 
Q 22.3125 -1.421875 17.546875 -0.640625 
Q 12.796875 0.140625 7.71875 1.703125 
L 7.71875 11.625 
Q 12.109375 9.234375 16.796875 8.0625 
Q 21.484375 6.890625 26.703125 6.890625 
Q 35.15625 6.890625 40.078125 11.328125 
Q 45.015625 15.765625 45.015625 23.390625 
Q 45.015625 31 40.078125 35.4375 
Q 35.15625 39.890625 26.703125 39.890625 
Q 22.75 39.890625 18.8125 39.015625 
Q 14.890625 38.140625 10.796875 36.28125 
z
" id="DejaVuSans-53"/>
        <path d="M 4.890625 31.390625 
L 31.203125 31.390625 
L 31.203125 23.390625 
L 4.890625 23.390625 
z
" id="DejaVuSans-45"/>
       </defs>
       <use xlink:href="#DejaVuSans-50"/>
       <use x="63.623047" xlink:href="#DejaVuSans-48"/>
       <use x="127.246094" xlink:href="#DejaVuSans-49"/>
       <use x="190.869141" xlink:href="#DejaVuSans-53"/>
       <use x="254.492188" xlink:href="#DejaVuSans-45"/>
       <use x="290.576172" xlink:href="#DejaVuSans-49"/>
       <use x="354.199219" xlink:href="#DejaVuSans-48"/>
      </g>
     </g>
    </g>
    <g id="xtick_2">
     <g id="line2d_2">
      <g>
       <use style="stroke:#000000;stroke-width:0.8;" x="101.915532" xlink:href="#mc97e55b934" y="252"/>
      </g>
     </g>
     <g id="text_2">
      <!-- 2016-01 -->
      <g transform="translate(89.09425 293.917817)rotate(-45)scale(0.1 -0.1)">
       <defs>
        <path d="M 33.015625 40.375 
Q 26.375 40.375 22.484375 35.828125 
Q 18.609375 31.296875 18.609375 23.390625 
Q 18.609375 15.53125 22.484375 10.953125 
Q 26.375 6.390625 33.015625 6.390625 
Q 39.65625 6.390625 43.53125 10.953125 
Q 47.40625 15.53125 47.40625 23.390625 
Q 47.40625 31.296875 43.53125 35.828125 
Q 39.65625 40.375 33.015625 40.375 
z
M 52.59375 71.296875 
L 52.59375 62.3125 
Q 48.875 64.0625 45.09375 64.984375 
Q 41.3125 65.921875 37.59375 65.921875 
Q 27.828125 65.921875 22.671875 59.328125 
Q 17.53125 52.734375 16.796875 39.40625 
Q 19.671875 43.65625 24.015625 45.921875 
Q 28.375 48.1875 33.59375 48.1875 
Q 44.578125 48.1875 50.953125 41.515625 
Q 57.328125 34.859375 57.328125 23.390625 
Q 57.328125 12.15625 50.6875 5.359375 
Q 44.046875 -1.421875 33.015625 -1.421875 
Q 20.359375 -1.421875 13.671875 8.265625 
Q 6.984375 17.96875 6.984375 36.375 
Q 6.984375 53.65625 15.1875 63.9375 
Q 23.390625 74.21875 37.203125 74.21875 
Q 40.921875 74.21875 44.703125 73.484375 
Q 48.484375 72.75 52.59375 71.296875 
z
" id="DejaVuSans-54"/>
       </defs>
       <use xlink:href="#DejaVuSans-50"/>
       <use x="63.623047" xlink:href="#DejaVuSans-48"/>
       <use x="127.246094" xlink:href="#DejaVuSans-49"/>
       <use x="190.869141" xlink:href="#DejaVuSans-54"/>
       <use x="254.492188" xlink:href="#DejaVuSans-45"/>
       <use x="290.576172" xlink:href="#DejaVuSans-48"/>
       <use x="354.199219" xlink:href="#DejaVuSans-49"/>
      </g>
     </g>
    </g>
    <g id="xtick_3">
     <g id="line2d_3">
      <g>
       <use style="stroke:#000000;stroke-width:0.8;" x="133.569351" xlink:href="#mc97e55b934" y="252"/>
      </g>
     </g>
     <g id="text_3">
      <!-- 2016-04 -->
      <g transform="translate(120.748068 293.917817)rotate(-45)scale(0.1 -0.1)">
       <defs>
        <path d="M 37.796875 64.3125 
L 12.890625 25.390625 
L 37.796875 25.390625 
z
M 35.203125 72.90625 
L 47.609375 72.90625 
L 47.609375 25.390625 
L 58.015625 25.390625 
L 58.015625 17.1875 
L 47.609375 17.1875 
L 47.609375 0 
L 37.796875 0 
L 37.796875 17.1875 
L 4.890625 17.1875 
L 4.890625 26.703125 
z
" id="DejaVuSans-52"/>
       </defs>
       <use xlink:href="#DejaVuSans-50"/>
       <use x="63.623047" xlink:href="#DejaVuSans-48"/>
       <use x="127.246094" xlink:href="#DejaVuSans-49"/>
       <use x="190.869141" xlink:href="#DejaVuSans-54"/>
       <use x="254.492188" xlink:href="#DejaVuSans-45"/>
       <use x="290.576172" xlink:href="#DejaVuSans-48"/>
       <use x="354.199219" xlink:href="#DejaVuSans-52"/>
      </g>
     </g>
    </g>
    <g id="xtick_4">
     <g id="line2d_4">
      <g>
       <use style="stroke:#000000;stroke-width:0.8;" x="165.223169" xlink:href="#mc97e55b934" y="252"/>
      </g>
     </g>
     <g id="text_4">
      <!-- 2016-07 -->
      <g transform="translate(152.401887 293.917817)rotate(-45)scale(0.1 -0.1)">
       <defs>
        <path d="M 8.203125 72.90625 
L 55.078125 72.90625 
L 55.078125 68.703125 
L 28.609375 0 
L 18.3125 0 
L 43.21875 64.59375 
L 8.203125 64.59375 
z
" id="DejaVuSans-55"/>
       </defs>
       <use xlink:href="#DejaVuSans-50"/>
       <use x="63.623047" xlink:href="#DejaVuSans-48"/>
       <use x="127.246094" xlink:href="#DejaVuSans-49"/>
       <use x="190.869141" xlink:href="#DejaVuSans-54"/>
       <use x="254.492188" xlink:href="#DejaVuSans-45"/>
       <use x="290.576172" xlink:href="#DejaVuSans-48"/>
       <use x="354.199219" xlink:href="#DejaVuSans-55"/>
      </g>
     </g>
    </g>
    <g id="xtick_5">
     <g id="line2d_5">
      <g>
       <use style="stroke:#000000;stroke-width:0.8;" x="197.224831" xlink:href="#mc97e55b934" y="252"/>
      </g>
     </g>
     <g id="text_5">
      <!-- 2016-10 -->
      <g transform="translate(184.403549 293.917817)rotate(-45)scale(0.1 -0.1)">
       <use xlink:href="#DejaVuSans-50"/>
       <use x="63.623047" xlink:href="#DejaVuSans-48"/>
       <use x="127.246094" xlink:href="#DejaVuSans-49"/>
       <use x="190.869141" xlink:href="#DejaVuSans-54"/>
       <use x="254.492188" xlink:href="#DejaVuSans-45"/>
       <use x="290.576172" xlink:href="#DejaVuSans-49"/>
       <use x="354.199219" xlink:href="#DejaVuSans-48"/>
      </g>
     </g>
    </g>
    <g id="xtick_6">
     <g id="line2d_6">
      <g>
       <use style="stroke:#000000;stroke-width:0.8;" x="229.226494" xlink:href="#mc97e55b934" y="252"/>
      </g>
     </g>
     <g id="text_6">
      <!-- 2017-01 -->
      <g transform="translate(216.405211 293.917817)rotate(-45)scale(0.1 -0.1)">
       <use xlink:href="#DejaVuSans-50"/>
       <use x="63.623047" xlink:href="#DejaVuSans-48"/>
       <use x="127.246094" xlink:href="#DejaVuSans-49"/>
       <use x="190.869141" xlink:href="#DejaVuSans-55"/>
       <use x="254.492188" xlink:href="#DejaVuSans-45"/>
       <use x="290.576172" xlink:href="#DejaVuSans-48"/>
       <use x="354.199219" xlink:href="#DejaVuSans-49"/>
      </g>
     </g>
    </g>
    <g id="xtick_7">
     <g id="line2d_7">
      <g>
       <use style="stroke:#000000;stroke-width:0.8;" x="260.532468" xlink:href="#mc97e55b934" y="252"/>
      </g>
     </g>
     <g id="text_7">
      <!-- 2017-04 -->
      <g transform="translate(247.711185 293.917817)rotate(-45)scale(0.1 -0.1)">
       <use xlink:href="#DejaVuSans-50"/>
       <use x="63.623047" xlink:href="#DejaVuSans-48"/>
       <use x="127.246094" xlink:href="#DejaVuSans-49"/>
       <use x="190.869141" xlink:href="#DejaVuSans-55"/>
       <use x="254.492188" xlink:href="#DejaVuSans-45"/>
       <use x="290.576172" xlink:href="#DejaVuSans-48"/>
       <use x="354.199219" xlink:href="#DejaVuSans-52"/>
      </g>
     </g>
    </g>
    <g id="xtick_8">
     <g id="line2d_8">
      <g>
       <use style="stroke:#000000;stroke-width:0.8;" x="292.186286" xlink:href="#mc97e55b934" y="252"/>
      </g>
     </g>
     <g id="text_8">
      <!-- 2017-07 -->
      <g transform="translate(279.365003 293.917817)rotate(-45)scale(0.1 -0.1)">
       <use xlink:href="#DejaVuSans-50"/>
       <use x="63.623047" xlink:href="#DejaVuSans-48"/>
       <use x="127.246094" xlink:href="#DejaVuSans-49"/>
       <use x="190.869141" xlink:href="#DejaVuSans-55"/>
       <use x="254.492188" xlink:href="#DejaVuSans-45"/>
       <use x="290.576172" xlink:href="#DejaVuSans-48"/>
       <use x="354.199219" xlink:href="#DejaVuSans-55"/>
      </g>
     </g>
    </g>
    <g id="xtick_9">
     <g id="line2d_9">
      <g>
       <use style="stroke:#000000;stroke-width:0.8;" x="324.187948" xlink:href="#mc97e55b934" y="252"/>
      </g>
     </g>
     <g id="text_9">
      <!-- 2017-10 -->
      <g transform="translate(311.366666 293.917817)rotate(-45)scale(0.1 -0.1)">
       <use xlink:href="#DejaVuSans-50"/>
       <use x="63.623047" xlink:href="#DejaVuSans-48"/>
       <use x="127.246094" xlink:href="#DejaVuSans-49"/>
       <use x="190.869141" xlink:href="#DejaVuSans-55"/>
       <use x="254.492188" xlink:href="#DejaVuSans-45"/>
       <use x="290.576172" xlink:href="#DejaVuSans-49"/>
       <use x="354.199219" xlink:href="#DejaVuSans-48"/>
      </g>
     </g>
    </g>
    <g id="xtick_10">
     <g id="line2d_10">
      <g>
       <use style="stroke:#000000;stroke-width:0.8;" x="356.18961" xlink:href="#mc97e55b934" y="252"/>
      </g>
     </g>
     <g id="text_10">
      <!-- 2018-01 -->
      <g transform="translate(343.368328 293.917817)rotate(-45)scale(0.1 -0.1)">
       <defs>
        <path d="M 31.78125 34.625 
Q 24.75 34.625 20.71875 30.859375 
Q 16.703125 27.09375 16.703125 20.515625 
Q 16.703125 13.921875 20.71875 10.15625 
Q 24.75 6.390625 31.78125 6.390625 
Q 38.8125 6.390625 42.859375 10.171875 
Q 46.921875 13.96875 46.921875 20.515625 
Q 46.921875 27.09375 42.890625 30.859375 
Q 38.875 34.625 31.78125 34.625 
z
M 21.921875 38.8125 
Q 15.578125 40.375 12.03125 44.71875 
Q 8.5 49.078125 8.5 55.328125 
Q 8.5 64.0625 14.71875 69.140625 
Q 20.953125 74.21875 31.78125 74.21875 
Q 42.671875 74.21875 48.875 69.140625 
Q 55.078125 64.0625 55.078125 55.328125 
Q 55.078125 49.078125 51.53125 44.71875 
Q 48 40.375 41.703125 38.8125 
Q 48.828125 37.15625 52.796875 32.3125 
Q 56.78125 27.484375 56.78125 20.515625 
Q 56.78125 9.90625 50.3125 4.234375 
Q 43.84375 -1.421875 31.78125 -1.421875 
Q 19.734375 -1.421875 13.25 4.234375 
Q 6.78125 9.90625 6.78125 20.515625 
Q 6.78125 27.484375 10.78125 32.3125 
Q 14.796875 37.15625 21.921875 38.8125 
z
M 18.3125 54.390625 
Q 18.3125 48.734375 21.84375 45.5625 
Q 25.390625 42.390625 31.78125 42.390625 
Q 38.140625 42.390625 41.71875 45.5625 
Q 45.3125 48.734375 45.3125 54.390625 
Q 45.3125 60.0625 41.71875 63.234375 
Q 38.140625 66.40625 31.78125 66.40625 
Q 25.390625 66.40625 21.84375 63.234375 
Q 18.3125 60.0625 18.3125 54.390625 
z
" id="DejaVuSans-56"/>
       </defs>
       <use xlink:href="#DejaVuSans-50"/>
       <use x="63.623047" xlink:href="#DejaVuSans-48"/>
       <use x="127.246094" xlink:href="#DejaVuSans-49"/>
       <use x="190.869141" xlink:href="#DejaVuSans-56"/>
       <use x="254.492188" xlink:href="#DejaVuSans-45"/>
       <use x="290.576172" xlink:href="#DejaVuSans-48"/>
       <use x="354.199219" xlink:href="#DejaVuSans-49"/>
      </g>
     </g>
    </g>
    <g id="xtick_11">
     <g id="line2d_11">
      <g>
       <use style="stroke:#000000;stroke-width:0.8;" x="387.495584" xlink:href="#mc97e55b934" y="252"/>
      </g>
     </g>
     <g id="text_11">
      <!-- 2018-04 -->
      <g transform="translate(374.674302 293.917817)rotate(-45)scale(0.1 -0.1)">
       <use xlink:href="#DejaVuSans-50"/>
       <use x="63.623047" xlink:href="#DejaVuSans-48"/>
       <use x="127.246094" xlink:href="#DejaVuSans-49"/>
       <use x="190.869141" xlink:href="#DejaVuSans-56"/>
       <use x="254.492188" xlink:href="#DejaVuSans-45"/>
       <use x="290.576172" xlink:href="#DejaVuSans-48"/>
       <use x="354.199219" xlink:href="#DejaVuSans-52"/>
      </g>
     </g>
    </g>
   </g>
   <g id="matplotlib.axis_2">
    <g id="ytick_1">
     <g id="line2d_12">
      <defs>
       <path d="M 0 0 
L -3.5 0 
" id="ma14994b5c3" style="stroke:#000000;stroke-width:0.8;"/>
      </defs>
      <g>
       <use style="stroke:#000000;stroke-width:0.8;" x="54" xlink:href="#ma14994b5c3" y="242.116364"/>
      </g>
     </g>
     <g id="text_12">
      <!-- 0 -->
      <g transform="translate(40.6375 245.915582)scale(0.1 -0.1)">
       <use xlink:href="#DejaVuSans-48"/>
      </g>
     </g>
    </g>
    <g id="ytick_2">
     <g id="line2d_13">
      <g>
       <use style="stroke:#000000;stroke-width:0.8;" x="54" xlink:href="#ma14994b5c3" y="209.832724"/>
      </g>
     </g>
     <g id="text_13">
      <!-- 20 -->
      <g transform="translate(34.275 213.631942)scale(0.1 -0.1)">
       <use xlink:href="#DejaVuSans-50"/>
       <use x="63.623047" xlink:href="#DejaVuSans-48"/>
      </g>
     </g>
    </g>
    <g id="ytick_3">
     <g id="line2d_14">
      <g>
       <use style="stroke:#000000;stroke-width:0.8;" x="54" xlink:href="#ma14994b5c3" y="177.549084"/>
      </g>
     </g>
     <g id="text_14">
      <!-- 40 -->
      <g transform="translate(34.275 181.348303)scale(0.1 -0.1)">
       <use xlink:href="#DejaVuSans-52"/>
       <use x="63.623047" xlink:href="#DejaVuSans-48"/>
      </g>
     </g>
    </g>
    <g id="ytick_4">
     <g id="line2d_15">
      <g>
       <use style="stroke:#000000;stroke-width:0.8;" x="54" xlink:href="#ma14994b5c3" y="145.265444"/>
      </g>
     </g>
     <g id="text_15">
      <!-- 60 -->
      <g transform="translate(34.275 149.064663)scale(0.1 -0.1)">
       <use xlink:href="#DejaVuSans-54"/>
       <use x="63.623047" xlink:href="#DejaVuSans-48"/>
      </g>
     </g>
    </g>
    <g id="ytick_5">
     <g id="line2d_16">
      <g>
       <use style="stroke:#000000;stroke-width:0.8;" x="54" xlink:href="#ma14994b5c3" y="112.981804"/>
      </g>
     </g>
     <g id="text_16">
      <!-- 80 -->
      <g transform="translate(34.275 116.781023)scale(0.1 -0.1)">
       <use xlink:href="#DejaVuSans-56"/>
       <use x="63.623047" xlink:href="#DejaVuSans-48"/>
      </g>
     </g>
    </g>
    <g id="ytick_6">
     <g id="line2d_17">
      <g>
       <use style="stroke:#000000;stroke-width:0.8;" x="54" xlink:href="#ma14994b5c3" y="80.698164"/>
      </g>
     </g>
     <g id="text_17">
      <!-- 100 -->
      <g transform="translate(27.9125 84.497383)scale(0.1 -0.1)">
       <use xlink:href="#DejaVuSans-49"/>
       <use x="63.623047" xlink:href="#DejaVuSans-48"/>
       <use x="127.246094" xlink:href="#DejaVuSans-48"/>
      </g>
     </g>
    </g>
    <g id="ytick_7">
     <g id="line2d_18">
      <g>
       <use style="stroke:#000000;stroke-width:0.8;" x="54" xlink:href="#ma14994b5c3" y="48.414524"/>
      </g>
     </g>
     <g id="text_18">
      <!-- 120 -->
      <g transform="translate(27.9125 52.213743)scale(0.1 -0.1)">
       <use xlink:href="#DejaVuSans-49"/>
       <use x="63.623047" xlink:href="#DejaVuSans-50"/>
       <use x="127.246094" xlink:href="#DejaVuSans-48"/>
      </g>
     </g>
    </g>
   </g>
   <g id="line2d_19">
    <path clip-path="url(#p16a683754a)" d="M 69.218182 198.049195 
L 69.91387 202.181501 
L 70.261714 191.70546 
L 70.957403 184.16723 
L 71.305247 195.821624 
L 71.653091 201.164566 
L 72.000935 194.36886 
L 72.348779 206.588218 
L 72.696623 197.694075 
L 73.044468 206.51558 
L 73.392312 174.223869 
L 73.740156 172.819531 
L 74.088 168.38053 
L 74.435844 191.511758 
L 74.783688 176.919553 
L 75.131532 186.749921 
L 75.479377 214.529993 
L 75.827221 212.46384 
L 76.175065 208.153974 
L 76.870753 166.78249 
L 77.218597 170.68881 
L 77.566442 175.999469 
L 77.914286 160.906867 
L 78.26213 188.154259 
L 78.609974 195.369653 
L 78.957818 194.481853 
L 79.305662 180.486895 
L 79.653506 190.381831 
L 80.001351 195.78934 
L 80.349195 205.539 
L 80.697039 195.482646 
L 81.392727 161.810809 
L 81.740571 124.281078 
L 82.088416 149.317041 
L 82.43626 146.637499 
L 82.784104 159.680089 
L 83.131948 131.157493 
L 83.479792 136.710279 
L 83.827636 117.323953 
L 84.175481 138.889425 
L 84.523325 127.985626 
L 84.871169 177.710502 
L 85.219013 157.339525 
L 85.914701 88.38167 
L 86.262545 125.168878 
L 86.61039 105.976254 
L 86.958234 114.612128 
L 87.306078 97.259671 
L 87.653922 108.784931 
L 88.001766 107.848705 
L 88.34961 110.495964 
L 88.697455 110.027851 
L 89.045299 113.805037 
L 89.393143 89.124194 
L 89.740987 84.604484 
L 90.088831 77.954055 
L 90.436675 51.804306 
L 90.784519 64.588628 
L 91.132364 108.284534 
L 91.480208 130.124417 
L 91.828052 127.025187 
L 92.175896 135.055743 
L 92.52374 98.857711 
L 92.871584 147.36388 
L 93.219429 134.176014 
L 93.567273 143.134724 
L 93.915117 147.234746 
L 94.262961 93.030514 
L 94.958649 71.497327 
L 95.306494 88.510805 
L 95.654338 81.150135 
L 96.002182 60.714591 
L 96.350026 62.958304 
L 96.69787 63.297282 
L 97.045714 87.413161 
L 97.393558 61.005144 
L 97.741403 70.125272 
L 98.089247 68.301246 
L 98.437091 117.485372 
L 98.784935 107.945556 
L 99.132779 118.679866 
L 99.480623 111.125495 
L 99.828468 107.09004 
L 100.176312 113.901888 
L 100.872 110.043993 
L 101.219844 63.490984 
L 101.567688 44.443636 
L 101.915532 81.166277 
L 102.611221 89.834434 
L 103.306909 99.002988 
L 103.654753 122.957449 
L 104.002597 121.068856 
L 104.350442 127.977555 
L 104.698286 123.167292 
L 105.04613 123.215718 
L 105.393974 105.976254 
L 105.741818 130.624813 
L 106.089662 218.436314 
L 106.437506 148.945779 
L 106.785351 107.880989 
L 107.133195 176.564433 
L 107.481039 186.911339 
L 107.828883 129.995282 
L 108.176727 128.816929 
L 108.524571 118.018052 
L 108.872416 158.937565 
L 109.22026 176.854986 
L 109.568104 129.2689 
L 110.263792 121.391692 
L 110.611636 165.733272 
L 110.959481 168.057694 
L 111.307325 167.13761 
L 112.003013 107.122323 
L 112.350857 112.384557 
L 112.698701 98.954562 
L 113.046545 127.13818 
L 113.39439 121.149565 
L 113.742234 144.280793 
L 114.090078 146.766633 
L 114.437922 130.802373 
L 114.785766 136.355159 
L 115.13361 156.839129 
L 115.481455 166.766348 
L 115.829299 153.255645 
L 116.177143 127.170464 
L 116.524987 168.687225 
L 116.872831 125.733842 
L 117.220675 142.553618 
L 117.916364 155.354081 
L 118.264208 137.791781 
L 118.612052 155.095812 
L 118.959896 132.513406 
L 119.30774 132.174428 
L 119.655584 104.87861 
L 120.003429 131.318911 
L 120.351273 127.186605 
L 120.699117 159.77694 
L 121.046961 137.404378 
L 121.394805 139.809509 
L 121.742649 171.318341 
L 122.090494 174.159302 
L 122.438338 242.116364 
L 122.786182 145.959542 
L 123.134026 160.002925 
L 123.48187 179.147124 
L 123.829714 168.041552 
L 124.525403 204.618916 
L 125.221091 151.722172 
L 125.568935 139.712658 
L 125.916779 180.454611 
L 126.264623 159.793082 
L 126.612468 163.618693 
L 126.960312 139.825651 
L 127.656 161.084427 
L 128.003844 161.423406 
L 128.351688 132.787817 
L 128.699532 165.200592 
L 129.047377 182.988877 
L 129.395221 187.169608 
L 129.743065 169.171479 
L 130.090909 182.39163 
L 130.438753 174.191585 
L 130.786597 138.663439 
L 131.134442 155.999754 
L 131.482286 181.713673 
L 131.83013 222.891456 
L 132.177974 216.709139 
L 132.525818 217.87135 
L 132.873662 209.0902 
L 133.569351 218.161903 
L 133.917195 219.566241 
L 134.265039 208.928782 
L 134.612883 216.434728 
L 134.960727 214.433142 
L 135.308571 216.047324 
L 135.656416 218.549306 
L 136.00426 214.885113 
L 136.352104 215.756772 
L 136.699948 213.141797 
L 137.047792 216.757564 
L 137.395636 209.639022 
L 137.743481 219.049703 
L 138.091325 181.697532 
L 138.439169 180.906582 
L 138.787013 200.083064 
L 139.830545 221.809954 
L 140.17839 218.032768 
L 140.526234 215.676063 
L 140.874078 221.228849 
L 141.221922 222.907598 
L 141.569766 223.650122 
L 141.91761 223.1013 
L 142.265455 223.214292 
L 142.613299 206.830345 
L 142.961143 198.372032 
L 143.308987 203.618123 
L 143.656831 197.048402 
L 144.004675 212.253997 
L 144.352519 214.594561 
L 144.700364 212.609117 
L 145.048208 211.57604 
L 145.396052 217.855208 
L 145.743896 216.515437 
L 146.09174 212.141004 
L 146.439584 215.337084 
L 146.787429 210.696311 
L 147.135273 211.559898 
L 147.483117 208.170116 
L 147.830961 214.223299 
L 148.178805 210.203986 
L 148.526649 212.318564 
L 148.874494 204.731909 
L 149.222338 215.998899 
L 149.570182 211.382338 
L 149.918026 217.128826 
L 150.26587 217.69379 
L 150.613714 220.098921 
L 150.961558 218.58159 
L 151.309403 211.027218 
L 151.657247 214.158731 
L 152.005091 204.602774 
L 152.352935 212.964237 
L 152.700779 214.949681 
L 153.048623 212.738251 
L 153.396468 213.706761 
L 153.744312 219.582383 
L 154.092156 219.081987 
L 154.44 209.865007 
L 155.135688 214.045739 
L 155.483532 213.367782 
L 155.831377 220.986721 
L 156.179221 208.654371 
L 156.527065 216.27331 
L 156.874909 219.679234 
L 157.222753 214.078022 
L 157.570597 221.3257 
L 157.918442 213.43235 
L 158.266286 217.935917 
L 158.961974 206.60436 
L 159.309818 204.199229 
L 159.657662 220.163488 
L 160.005506 214.723695 
L 160.353351 216.644572 
L 160.701195 212.915811 
L 161.049039 219.566241 
L 161.396883 219.372539 
L 161.744727 219.856794 
L 162.092571 213.367782 
L 162.440416 210.316978 
L 162.78826 219.630808 
L 163.136104 218.097336 
L 163.483948 206.507509 
L 163.831792 216.289452 
L 164.179636 209.687447 
L 164.875325 218.258754 
L 165.223169 232.269853 
L 165.571013 232.568477 
L 165.918857 231.688748 
L 166.614545 214.998106 
L 166.96239 213.093371 
L 167.310234 219.921361 
L 167.658078 215.175666 
L 168.005922 213.141797 
L 168.353766 218.129619 
L 168.70161 208.573662 
L 169.049455 215.046532 
L 169.397299 217.887492 
L 169.745143 212.835102 
L 170.092987 222.294209 
L 170.440831 222.665471 
L 170.788675 224.295794 
L 171.136519 221.438692 
L 171.484364 214.642986 
L 171.832208 212.754393 
L 172.180052 208.331534 
L 172.527896 214.998106 
L 172.87574 203.553556 
L 173.223584 211.834309 
L 173.571429 211.301629 
L 173.919273 213.07723 
L 174.267117 207.798854 
L 174.614961 213.916604 
L 174.962805 216.128033 
L 175.310649 221.196565 
L 175.658494 211.689033 
L 176.354182 216.370161 
L 176.702026 224.457213 
L 177.04987 215.078815 
L 177.397714 215.498503 
L 177.745558 214.820546 
L 178.093403 209.727802 
L 178.441247 222.423343 
L 178.789091 220.986721 
L 179.136935 222.972165 
L 179.484779 219.695376 
L 179.832623 222.74618 
L 180.180468 211.479189 
L 180.528312 213.270931 
L 180.876156 216.918983 
L 181.224 224.893042 
L 181.571844 211.818168 
L 181.919688 212.592975 
L 182.267532 229.541886 
L 182.615377 224.586347 
L 182.963221 224.747765 
L 183.658909 229.48539 
L 184.006753 221.77767 
L 184.702442 227.330457 
L 185.050286 225.522573 
L 185.39813 219.501674 
L 185.745974 217.774499 
L 186.093818 208.315393 
L 186.441662 203.68269 
L 186.789506 214.513851 
L 187.137351 210.623673 
L 187.833039 214.094164 
L 188.180883 204.150803 
L 188.528727 209.978 
L 188.876571 206.95948 
L 189.224416 219.711518 
L 189.57226 224.941467 
L 189.920104 222.665471 
L 190.267948 221.212707 
L 190.615792 225.94226 
L 191.311481 220.066638 
L 191.659325 223.63398 
L 192.007169 225.070602 
L 192.355013 209.526029 
L 192.702857 218.274896 
L 193.050701 223.876107 
L 193.398545 220.211914 
L 193.74639 226.894627 
L 194.094234 219.566241 
L 194.442078 219.953645 
L 194.789922 203.763399 
L 195.137766 214.755979 
L 195.48561 220.437899 
L 195.833455 220.115063 
L 196.181299 221.196565 
L 196.529143 218.22647 
L 196.876987 228.056838 
L 197.920519 215.272517 
L 198.268364 218.904427 
L 198.616208 221.14814 
L 198.964052 214.659128 
L 199.311896 227.588726 
L 199.65974 233.48049 
L 200.007584 233.916319 
L 200.703273 221.035147 
L 201.051117 221.535543 
L 201.398961 223.246576 
L 201.746805 215.950473 
L 202.094649 216.418586 
L 202.442494 218.856001 
L 202.790338 224.376503 
L 203.138182 218.452456 
L 203.486026 219.243405 
L 203.83387 218.93671 
L 204.181714 217.51623 
L 204.529558 220.809161 
L 204.877403 220.405616 
L 205.225247 211.511473 
L 205.920935 220.583176 
L 206.268779 217.69379 
L 206.616623 222.471769 
L 206.964468 223.81154 
L 207.312312 214.820546 
L 207.660156 224.844616 
L 208.008 218.823717 
L 208.355844 216.935124 
L 208.703688 221.809954 
L 209.051532 210.785091 
L 209.399377 221.14814 
L 209.747221 216.241026 
L 210.095065 225.667849 
L 210.442909 225.151311 
L 210.790753 220.324907 
L 211.138597 226.055253 
L 211.486442 233.803326 
L 211.834286 234.287581 
L 212.18213 223.407994 
L 212.529974 222.907598 
L 212.877818 219.049703 
L 213.225662 217.064259 
L 213.573506 166.734064 
L 213.921351 146.572931 
L 214.617039 175.176236 
L 214.964883 181.665248 
L 215.312727 145.362295 
L 215.660571 197.242104 
L 216.008416 186.378659 
L 216.35626 150.398543 
L 216.704104 146.944193 
L 217.051948 128.20354 
L 217.399792 142.246924 
L 217.747636 151.302485 
L 218.095481 148.477666 
L 218.443325 121.391692 
L 218.791169 153.998168 
L 219.139013 139.680374 
L 219.834701 121.472401 
L 220.53039 85.879688 
L 220.878234 85.605277 
L 221.573922 116.565288 
L 221.921766 141.811094 
L 222.26961 121.585394 
L 222.617455 94.757689 
L 222.965299 93.627762 
L 223.313143 103.877817 
L 224.008831 76.533574 
L 224.356675 98.155542 
L 224.704519 130.027566 
L 225.052364 124.022809 
L 225.400208 122.989732 
L 225.748052 117.840492 
L 226.095896 115.919615 
L 226.44374 107.832563 
L 226.791584 94.563987 
L 227.139429 119.406248 
L 227.487273 124.636198 
L 227.835117 125.104311 
L 228.182961 129.737013 
L 228.878649 80.359186 
L 229.226494 73.30521 
L 229.574338 84.426924 
L 229.922182 61.618533 
L 230.270026 93.07894 
L 230.61787 81.505255 
L 230.965714 98.276606 
L 231.313558 89.301754 
L 231.661403 117.461159 
L 232.009247 130.963791 
L 232.357091 111.335338 
L 232.704935 69.205188 
L 233.052779 86.137957 
L 233.400623 84.959604 
L 234.096312 123.457845 
L 234.792 160.051351 
L 235.139844 162.892311 
L 235.487688 156.241881 
L 235.835532 156.145031 
L 236.183377 142.811887 
L 236.531221 138.986276 
L 236.879065 146.201669 
L 237.226909 122.166499 
L 237.574753 147.928844 
L 237.922597 146.492222 
L 238.270442 152.59383 
L 238.618286 133.562624 
L 238.96613 126.912195 
L 239.313974 125.330296 
L 239.661818 143.070156 
L 240.009662 119.503099 
L 240.357506 123.58698 
L 240.705351 111.270771 
L 241.053195 121.585394 
L 241.401039 111.577466 
L 241.748883 109.688873 
L 242.096727 106.20224 
L 242.444571 108.365243 
L 242.792416 126.137387 
L 243.14026 137.33981 
L 243.835948 150.317834 
L 244.183792 153.094227 
L 244.531636 137.291385 
L 244.879481 164.29665 
L 245.227325 173.755756 
L 245.923013 141.052429 
L 246.270857 158.872998 
L 246.618701 152.884383 
L 246.966545 174.433713 
L 247.31439 135.38665 
L 247.662234 147.815851 
L 248.357922 122.473194 
L 248.705766 146.282379 
L 249.05361 110.447538 
L 249.401455 139.228403 
L 249.749299 143.748113 
L 250.097143 153.869034 
L 250.444987 147.347739 
L 250.792831 144.34536 
L 251.140675 134.918537 
L 251.488519 135.870905 
L 251.836364 123.603121 
L 252.184208 146.702066 
L 252.532052 129.785439 
L 252.879896 178.356175 
L 253.22774 153.772183 
L 253.575584 173.626622 
L 253.923429 169.082699 
L 254.271273 195.369653 
L 254.966961 167.444304 
L 255.314805 131.351195 
L 256.010494 166.677568 
L 256.358338 150.204841 
L 256.706182 171.060072 
L 257.054026 173.045516 
L 257.40187 165.18445 
L 257.749714 221.955231 
L 258.097558 223.537129 
L 258.445403 138.22761 
L 258.793247 179.938073 
L 259.141091 169.655734 
L 259.488935 184.425499 
L 259.836779 184.909754 
L 260.184623 171.57661 
L 260.532468 173.981742 
L 260.880312 185.297157 
L 261.576 168.590374 
L 262.271688 186.201099 
L 262.619532 160.099776 
L 262.967377 186.184957 
L 263.315221 221.438692 
L 263.663065 191.092071 
L 264.010909 181.019575 
L 264.358753 188.25111 
L 264.706597 184.893612 
L 265.054442 157.613936 
L 265.402286 185.200306 
L 265.75013 186.628858 
L 266.097974 212.867386 
L 266.445818 192.690111 
L 266.793662 187.169608 
L 267.141506 195.062958 
L 267.489351 178.775862 
L 267.837195 222.697754 
L 268.185039 226.313522 
L 268.532883 227.18518 
L 268.880727 224.634773 
L 269.228571 234.239155 
L 269.576416 234.707268 
L 269.92426 234.949396 
L 270.272104 234.836403 
L 270.967792 235.013963 
L 271.663481 234.771836 
L 272.359169 233.916319 
L 272.707013 223.763114 
L 273.054857 223.698547 
L 273.402701 225.377296 
L 273.750545 228.411958 
L 274.09839 227.524158 
L 274.446234 227.346598 
L 274.794078 220.276481 
L 275.141922 225.829267 
L 275.489766 225.909976 
L 275.83761 223.165867 
L 276.533299 231.139926 
L 276.881143 219.630808 
L 277.228987 225.215878 
L 277.576831 228.347391 
L 277.924675 222.019798 
L 278.272519 229.332042 
L 278.620364 224.441071 
L 278.968208 230.623388 
L 279.316052 228.315108 
L 279.663896 229.558028 
L 280.01174 224.295794 
L 280.359584 225.086744 
L 280.707429 223.859965 
L 281.055273 227.621009 
L 281.403117 227.072187 
L 281.750961 223.601696 
L 282.098805 227.201322 
L 282.794494 218.291037 
L 283.142338 226.523366 
L 283.838026 225.361155 
L 284.18587 216.580004 
L 284.533714 224.812333 
L 284.881558 229.638737 
L 285.229403 224.860758 
L 285.925091 229.501531 
L 286.620779 223.956816 
L 286.968623 226.135962 
L 287.316468 226.813918 
L 287.664312 222.052081 
L 288.012156 226.83006 
L 288.36 226.491082 
L 288.707844 227.846995 
L 289.055688 218.807576 
L 289.403532 225.070602 
L 289.751377 226.200529 
L 290.099221 220.389474 
L 290.447065 223.650122 
L 290.794909 224.376503 
L 291.142753 228.96078 
L 291.490597 222.584761 
L 291.838442 230.784806 
L 292.186286 233.496632 
L 292.53413 233.787185 
L 293.229818 233.997028 
L 293.577662 234.01317 
L 293.925506 233.754901 
L 294.273351 233.722617 
L 294.969039 233.819468 
L 295.316883 233.754901 
L 295.664727 234.158446 
L 296.360416 234.093879 
L 296.70826 234.19073 
L 297.056104 234.093879 
L 297.403948 234.142305 
L 297.751792 234.319865 
L 298.447481 233.964745 
L 298.795325 233.044661 
L 299.143169 229.606453 
L 299.491013 232.205286 
L 299.838857 231.156068 
L 300.186701 232.043868 
L 300.534545 233.65805 
L 300.88239 233.722617 
L 301.578078 234.19073 
L 302.273766 233.916319 
L 302.62161 234.01317 
L 302.969455 233.690334 
L 303.317299 233.706475 
L 304.012987 233.189937 
L 304.360831 233.609625 
L 304.708675 232.963952 
L 305.056519 233.706475 
L 305.404364 233.803326 
L 305.752208 233.771043 
L 306.100052 233.625766 
L 306.447896 233.690334 
L 306.79574 233.948603 
L 307.143584 233.997028 
L 307.839273 234.384432 
L 308.187117 234.352148 
L 308.534961 234.174588 
L 309.230649 234.093879 
L 309.926338 234.19073 
L 310.274182 233.867894 
L 310.622026 233.83561 
L 311.317714 234.384432 
L 311.665558 231.478904 
L 312.013403 231.446621 
L 312.361247 224.650914 
L 312.709091 230.897799 
L 313.056935 231.269061 
L 313.404779 229.13834 
L 313.752623 230.074566 
L 314.100468 229.202908 
L 314.448312 225.877693 
L 314.796156 224.34422 
L 315.144 228.670228 
L 315.491844 222.56862 
L 315.839688 224.408787 
L 316.535377 218.952852 
L 316.883221 225.780842 
L 317.231065 217.919776 
L 317.578909 219.566241 
L 317.926753 225.780842 
L 318.274597 223.375711 
L 318.970286 229.509602 
L 319.31813 228.024555 
L 319.665974 221.939089 
L 320.013818 227.846995 
L 320.361662 217.274103 
L 320.709506 223.45642 
L 321.057351 222.681612 
L 321.405195 223.617838 
L 321.753039 215.240233 
L 322.100883 213.739044 
L 322.796571 228.944639 
L 323.144416 217.798712 
L 323.49226 225.119027 
L 323.840104 222.471769 
L 324.187948 223.892249 
L 324.535792 195.902333 
L 324.883636 197.371239 
L 325.231481 200.551177 
L 325.579325 186.959765 
L 326.275013 174.659698 
L 326.622857 193.271216 
L 327.318545 174.595131 
L 327.66639 171.382909 
L 328.014234 180.341619 
L 328.362078 169.542741 
L 328.709922 150.866655 
L 329.057766 191.463333 
L 329.40561 190.010569 
L 329.753455 192.94838 
L 330.101299 164.21594 
L 330.449143 178.420742 
L 331.144831 149.994997 
L 331.492675 180.43847 
L 331.840519 181.245561 
L 332.188364 189.413321 
L 332.536208 182.375488 
L 332.884052 178.775862 
L 333.231896 191.866878 
L 333.57974 179.679804 
L 333.927584 182.472339 
L 334.275429 188.68694 
L 334.623273 169.930145 
L 334.971117 166.685639 
L 335.318961 150.317834 
L 336.014649 99.293541 
L 336.362494 122.327918 
L 336.710338 118.405455 
L 337.058182 119.115696 
L 337.406026 143.134724 
L 337.75387 148.800502 
L 338.101714 165.926973 
L 338.449558 151.399335 
L 338.797403 218.678441 
L 339.145247 234.836403 
L 339.493091 235.772628 
L 339.840935 150.156415 
L 340.536623 128.800787 
L 340.884468 151.415477 
L 341.232312 145.007175 
L 341.580156 156.451725 
L 341.928 132.497264 
L 342.275844 190.494823 
L 342.623688 205.087029 
L 342.971532 156.451725 
L 343.667221 127.703144 
L 344.015065 148.518021 
L 344.362909 140.229196 
L 344.710753 146.815059 
L 345.058597 144.587487 
L 346.10213 119.729085 
L 346.449974 101.230559 
L 346.797818 109.479029 
L 347.145662 124.038951 
L 347.493506 122.892881 
L 347.841351 107.767996 
L 348.189195 121.084998 
L 348.537039 124.959034 
L 348.884883 116.662139 
L 349.232727 137.678788 
L 349.928416 121.666103 
L 350.27626 132.19057 
L 350.624104 123.425561 
L 350.971948 140.721522 
L 351.319792 150.802088 
L 351.667636 109.995567 
L 352.015481 96.371871 
L 352.363325 78.260749 
L 352.711169 102.74789 
L 353.059013 69.156763 
L 353.754701 116.064892 
L 354.102545 124.216511 
L 354.45039 118.71215 
L 354.798234 131.883875 
L 355.146078 122.61847 
L 355.493922 120.084205 
L 355.841766 100.891581 
L 356.537455 126.201954 
L 356.885299 107.348309 
L 357.233143 121.133423 
L 357.580987 151.270201 
L 357.928831 144.248509 
L 358.276675 126.702351 
L 358.624519 213.367782 
L 358.972364 199.453533 
L 359.668052 125.378722 
L 360.015896 131.706315 
L 360.36374 131.254344 
L 360.711584 147.121753 
L 361.059429 149.494601 
L 361.407273 152.981234 
L 361.755117 138.340603 
L 362.102961 146.750491 
L 362.450805 135.063814 
L 362.798649 106.315232 
L 363.146494 108.300676 
L 363.494338 131.948442 
L 363.842182 99.148264 
L 364.190026 174.659698 
L 364.53787 144.022524 
L 364.885714 136.645712 
L 365.233558 145.491429 
L 365.581403 175.224662 
L 365.929247 166.07225 
L 366.277091 161.052144 
L 366.624935 144.087091 
L 366.972779 140.874869 
L 367.320623 169.994712 
L 367.668468 169.494316 
L 368.016312 197.056473 
L 368.364156 183.231004 
L 368.712 154.885969 
L 369.059844 179.744371 
L 369.407688 173.223076 
L 369.755532 131.609464 
L 370.103377 153.271787 
L 370.451221 157.630078 
L 371.146909 138.534305 
L 371.494753 149.462317 
L 371.842597 134.85397 
L 372.190442 148.219397 
L 372.538286 146.8312 
L 372.88613 99.051413 
L 373.233974 77.970196 
L 373.581818 82.070219 
L 373.581818 82.070219 
" style="fill:none;stroke:#000000;stroke-linecap:square;stroke-width:1.5;"/>
   </g>
   <g id="patch_3">
    <path d="M 54 252 
L 54 34.56 
" style="fill:none;stroke:#000000;stroke-linecap:square;stroke-linejoin:miter;stroke-width:0.8;"/>
   </g>
   <g id="patch_4">
    <path d="M 388.8 252 
L 388.8 34.56 
" style="fill:none;stroke:#000000;stroke-linecap:square;stroke-linejoin:miter;stroke-width:0.8;"/>
   </g>
   <g id="patch_5">
    <path d="M 54 252 
L 388.8 252 
" style="fill:none;stroke:#000000;stroke-linecap:square;stroke-linejoin:miter;stroke-width:0.8;"/>
   </g>
   <g id="patch_6">
    <path d="M 54 34.56 
L 388.8 34.56 
" style="fill:none;stroke:#000000;stroke-linecap:square;stroke-linejoin:miter;stroke-width:0.8;"/>
   </g>
   <g id="text_19">
    <!-- Soma Diária de Energia - Casa 15 -->
    <g transform="translate(120.413438 28.56)scale(0.12 -0.12)">
     <defs>
      <path d="M 53.515625 70.515625 
L 53.515625 60.890625 
Q 47.90625 63.578125 42.921875 64.890625 
Q 37.9375 66.21875 33.296875 66.21875 
Q 25.25 66.21875 20.875 63.09375 
Q 16.5 59.96875 16.5 54.203125 
Q 16.5 49.359375 19.40625 46.890625 
Q 22.3125 44.4375 30.421875 42.921875 
L 36.375 41.703125 
Q 47.40625 39.59375 52.65625 34.296875 
Q 57.90625 29 57.90625 20.125 
Q 57.90625 9.515625 50.796875 4.046875 
Q 43.703125 -1.421875 29.984375 -1.421875 
Q 24.8125 -1.421875 18.96875 -0.25 
Q 13.140625 0.921875 6.890625 3.21875 
L 6.890625 13.375 
Q 12.890625 10.015625 18.65625 8.296875 
Q 24.421875 6.59375 29.984375 6.59375 
Q 38.421875 6.59375 43.015625 9.90625 
Q 47.609375 13.234375 47.609375 19.390625 
Q 47.609375 24.75 44.3125 27.78125 
Q 41.015625 30.8125 33.5 32.328125 
L 27.484375 33.5 
Q 16.453125 35.6875 11.515625 40.375 
Q 6.59375 45.0625 6.59375 53.421875 
Q 6.59375 63.09375 13.40625 68.65625 
Q 20.21875 74.21875 32.171875 74.21875 
Q 37.3125 74.21875 42.625 73.28125 
Q 47.953125 72.359375 53.515625 70.515625 
z
" id="DejaVuSans-83"/>
      <path d="M 30.609375 48.390625 
Q 23.390625 48.390625 19.1875 42.75 
Q 14.984375 37.109375 14.984375 27.296875 
Q 14.984375 17.484375 19.15625 11.84375 
Q 23.34375 6.203125 30.609375 6.203125 
Q 37.796875 6.203125 41.984375 11.859375 
Q 46.1875 17.53125 46.1875 27.296875 
Q 46.1875 37.015625 41.984375 42.703125 
Q 37.796875 48.390625 30.609375 48.390625 
z
M 30.609375 56 
Q 42.328125 56 49.015625 48.375 
Q 55.71875 40.765625 55.71875 27.296875 
Q 55.71875 13.875 49.015625 6.21875 
Q 42.328125 -1.421875 30.609375 -1.421875 
Q 18.84375 -1.421875 12.171875 6.21875 
Q 5.515625 13.875 5.515625 27.296875 
Q 5.515625 40.765625 12.171875 48.375 
Q 18.84375 56 30.609375 56 
z
" id="DejaVuSans-111"/>
      <path d="M 52 44.1875 
Q 55.375 50.25 60.0625 53.125 
Q 64.75 56 71.09375 56 
Q 79.640625 56 84.28125 50.015625 
Q 88.921875 44.046875 88.921875 33.015625 
L 88.921875 0 
L 79.890625 0 
L 79.890625 32.71875 
Q 79.890625 40.578125 77.09375 44.375 
Q 74.3125 48.1875 68.609375 48.1875 
Q 61.625 48.1875 57.5625 43.546875 
Q 53.515625 38.921875 53.515625 30.90625 
L 53.515625 0 
L 44.484375 0 
L 44.484375 32.71875 
Q 44.484375 40.625 41.703125 44.40625 
Q 38.921875 48.1875 33.109375 48.1875 
Q 26.21875 48.1875 22.15625 43.53125 
Q 18.109375 38.875 18.109375 30.90625 
L 18.109375 0 
L 9.078125 0 
L 9.078125 54.6875 
L 18.109375 54.6875 
L 18.109375 46.1875 
Q 21.1875 51.21875 25.484375 53.609375 
Q 29.78125 56 35.6875 56 
Q 41.65625 56 45.828125 52.96875 
Q 50 49.953125 52 44.1875 
z
" id="DejaVuSans-109"/>
      <path d="M 34.28125 27.484375 
Q 23.390625 27.484375 19.1875 25 
Q 14.984375 22.515625 14.984375 16.5 
Q 14.984375 11.71875 18.140625 8.90625 
Q 21.296875 6.109375 26.703125 6.109375 
Q 34.1875 6.109375 38.703125 11.40625 
Q 43.21875 16.703125 43.21875 25.484375 
L 43.21875 27.484375 
z
M 52.203125 31.203125 
L 52.203125 0 
L 43.21875 0 
L 43.21875 8.296875 
Q 40.140625 3.328125 35.546875 0.953125 
Q 30.953125 -1.421875 24.3125 -1.421875 
Q 15.921875 -1.421875 10.953125 3.296875 
Q 6 8.015625 6 15.921875 
Q 6 25.140625 12.171875 29.828125 
Q 18.359375 34.515625 30.609375 34.515625 
L 43.21875 34.515625 
L 43.21875 35.40625 
Q 43.21875 41.609375 39.140625 45 
Q 35.0625 48.390625 27.6875 48.390625 
Q 23 48.390625 18.546875 47.265625 
Q 14.109375 46.140625 10.015625 43.890625 
L 10.015625 52.203125 
Q 14.9375 54.109375 19.578125 55.046875 
Q 24.21875 56 28.609375 56 
Q 40.484375 56 46.34375 49.84375 
Q 52.203125 43.703125 52.203125 31.203125 
z
" id="DejaVuSans-97"/>
      <path id="DejaVuSans-32"/>
      <path d="M 19.671875 64.796875 
L 19.671875 8.109375 
L 31.59375 8.109375 
Q 46.6875 8.109375 53.6875 14.9375 
Q 60.6875 21.78125 60.6875 36.53125 
Q 60.6875 51.171875 53.6875 57.984375 
Q 46.6875 64.796875 31.59375 64.796875 
z
M 9.8125 72.90625 
L 30.078125 72.90625 
Q 51.265625 72.90625 61.171875 64.09375 
Q 71.09375 55.28125 71.09375 36.53125 
Q 71.09375 17.671875 61.125 8.828125 
Q 51.171875 0 30.078125 0 
L 9.8125 0 
z
" id="DejaVuSans-68"/>
      <path d="M 9.421875 54.6875 
L 18.40625 54.6875 
L 18.40625 0 
L 9.421875 0 
z
M 9.421875 75.984375 
L 18.40625 75.984375 
L 18.40625 64.59375 
L 9.421875 64.59375 
z
" id="DejaVuSans-105"/>
      <path d="M 34.28125 27.484375 
Q 23.390625 27.484375 19.1875 25 
Q 14.984375 22.515625 14.984375 16.5 
Q 14.984375 11.71875 18.140625 8.90625 
Q 21.296875 6.109375 26.703125 6.109375 
Q 34.1875 6.109375 38.703125 11.40625 
Q 43.21875 16.703125 43.21875 25.484375 
L 43.21875 27.484375 
z
M 52.203125 31.203125 
L 52.203125 0 
L 43.21875 0 
L 43.21875 8.296875 
Q 40.140625 3.328125 35.546875 0.953125 
Q 30.953125 -1.421875 24.3125 -1.421875 
Q 15.921875 -1.421875 10.953125 3.296875 
Q 6 8.015625 6 15.921875 
Q 6 25.140625 12.171875 29.828125 
Q 18.359375 34.515625 30.609375 34.515625 
L 43.21875 34.515625 
L 43.21875 35.40625 
Q 43.21875 41.609375 39.140625 45 
Q 35.0625 48.390625 27.6875 48.390625 
Q 23 48.390625 18.546875 47.265625 
Q 14.109375 46.140625 10.015625 43.890625 
L 10.015625 52.203125 
Q 14.9375 54.109375 19.578125 55.046875 
Q 24.21875 56 28.609375 56 
Q 40.484375 56 46.34375 49.84375 
Q 52.203125 43.703125 52.203125 31.203125 
z
M 35.796875 79.984375 
L 45.515625 79.984375 
L 29.59375 61.625 
L 22.125 61.625 
z
" id="DejaVuSans-225"/>
      <path d="M 41.109375 46.296875 
Q 39.59375 47.171875 37.8125 47.578125 
Q 36.03125 48 33.890625 48 
Q 26.265625 48 22.1875 43.046875 
Q 18.109375 38.09375 18.109375 28.8125 
L 18.109375 0 
L 9.078125 0 
L 9.078125 54.6875 
L 18.109375 54.6875 
L 18.109375 46.1875 
Q 20.953125 51.171875 25.484375 53.578125 
Q 30.03125 56 36.53125 56 
Q 37.453125 56 38.578125 55.875 
Q 39.703125 55.765625 41.0625 55.515625 
z
" id="DejaVuSans-114"/>
      <path d="M 45.40625 46.390625 
L 45.40625 75.984375 
L 54.390625 75.984375 
L 54.390625 0 
L 45.40625 0 
L 45.40625 8.203125 
Q 42.578125 3.328125 38.25 0.953125 
Q 33.9375 -1.421875 27.875 -1.421875 
Q 17.96875 -1.421875 11.734375 6.484375 
Q 5.515625 14.40625 5.515625 27.296875 
Q 5.515625 40.1875 11.734375 48.09375 
Q 17.96875 56 27.875 56 
Q 33.9375 56 38.25 53.625 
Q 42.578125 51.265625 45.40625 46.390625 
z
M 14.796875 27.296875 
Q 14.796875 17.390625 18.875 11.75 
Q 22.953125 6.109375 30.078125 6.109375 
Q 37.203125 6.109375 41.296875 11.75 
Q 45.40625 17.390625 45.40625 27.296875 
Q 45.40625 37.203125 41.296875 42.84375 
Q 37.203125 48.484375 30.078125 48.484375 
Q 22.953125 48.484375 18.875 42.84375 
Q 14.796875 37.203125 14.796875 27.296875 
z
" id="DejaVuSans-100"/>
      <path d="M 56.203125 29.59375 
L 56.203125 25.203125 
L 14.890625 25.203125 
Q 15.484375 15.921875 20.484375 11.0625 
Q 25.484375 6.203125 34.421875 6.203125 
Q 39.59375 6.203125 44.453125 7.46875 
Q 49.3125 8.734375 54.109375 11.28125 
L 54.109375 2.78125 
Q 49.265625 0.734375 44.1875 -0.34375 
Q 39.109375 -1.421875 33.890625 -1.421875 
Q 20.796875 -1.421875 13.15625 6.1875 
Q 5.515625 13.8125 5.515625 26.8125 
Q 5.515625 40.234375 12.765625 48.109375 
Q 20.015625 56 32.328125 56 
Q 43.359375 56 49.78125 48.890625 
Q 56.203125 41.796875 56.203125 29.59375 
z
M 47.21875 32.234375 
Q 47.125 39.59375 43.09375 43.984375 
Q 39.0625 48.390625 32.421875 48.390625 
Q 24.90625 48.390625 20.390625 44.140625 
Q 15.875 39.890625 15.1875 32.171875 
z
" id="DejaVuSans-101"/>
      <path d="M 9.8125 72.90625 
L 55.90625 72.90625 
L 55.90625 64.59375 
L 19.671875 64.59375 
L 19.671875 43.015625 
L 54.390625 43.015625 
L 54.390625 34.71875 
L 19.671875 34.71875 
L 19.671875 8.296875 
L 56.78125 8.296875 
L 56.78125 0 
L 9.8125 0 
z
" id="DejaVuSans-69"/>
      <path d="M 54.890625 33.015625 
L 54.890625 0 
L 45.90625 0 
L 45.90625 32.71875 
Q 45.90625 40.484375 42.875 44.328125 
Q 39.84375 48.1875 33.796875 48.1875 
Q 26.515625 48.1875 22.3125 43.546875 
Q 18.109375 38.921875 18.109375 30.90625 
L 18.109375 0 
L 9.078125 0 
L 9.078125 54.6875 
L 18.109375 54.6875 
L 18.109375 46.1875 
Q 21.34375 51.125 25.703125 53.5625 
Q 30.078125 56 35.796875 56 
Q 45.21875 56 50.046875 50.171875 
Q 54.890625 44.34375 54.890625 33.015625 
z
" id="DejaVuSans-110"/>
      <path d="M 45.40625 27.984375 
Q 45.40625 37.75 41.375 43.109375 
Q 37.359375 48.484375 30.078125 48.484375 
Q 22.859375 48.484375 18.828125 43.109375 
Q 14.796875 37.75 14.796875 27.984375 
Q 14.796875 18.265625 18.828125 12.890625 
Q 22.859375 7.515625 30.078125 7.515625 
Q 37.359375 7.515625 41.375 12.890625 
Q 45.40625 18.265625 45.40625 27.984375 
z
M 54.390625 6.78125 
Q 54.390625 -7.171875 48.1875 -13.984375 
Q 42 -20.796875 29.203125 -20.796875 
Q 24.46875 -20.796875 20.265625 -20.09375 
Q 16.0625 -19.390625 12.109375 -17.921875 
L 12.109375 -9.1875 
Q 16.0625 -11.328125 19.921875 -12.34375 
Q 23.78125 -13.375 27.78125 -13.375 
Q 36.625 -13.375 41.015625 -8.765625 
Q 45.40625 -4.15625 45.40625 5.171875 
L 45.40625 9.625 
Q 42.625 4.78125 38.28125 2.390625 
Q 33.9375 0 27.875 0 
Q 17.828125 0 11.671875 7.65625 
Q 5.515625 15.328125 5.515625 27.984375 
Q 5.515625 40.671875 11.671875 48.328125 
Q 17.828125 56 27.875 56 
Q 33.9375 56 38.28125 53.609375 
Q 42.625 51.21875 45.40625 46.390625 
L 45.40625 54.6875 
L 54.390625 54.6875 
z
" id="DejaVuSans-103"/>
      <path d="M 64.40625 67.28125 
L 64.40625 56.890625 
Q 59.421875 61.53125 53.78125 63.8125 
Q 48.140625 66.109375 41.796875 66.109375 
Q 29.296875 66.109375 22.65625 58.46875 
Q 16.015625 50.828125 16.015625 36.375 
Q 16.015625 21.96875 22.65625 14.328125 
Q 29.296875 6.6875 41.796875 6.6875 
Q 48.140625 6.6875 53.78125 8.984375 
Q 59.421875 11.28125 64.40625 15.921875 
L 64.40625 5.609375 
Q 59.234375 2.09375 53.4375 0.328125 
Q 47.65625 -1.421875 41.21875 -1.421875 
Q 24.65625 -1.421875 15.125 8.703125 
Q 5.609375 18.84375 5.609375 36.375 
Q 5.609375 53.953125 15.125 64.078125 
Q 24.65625 74.21875 41.21875 74.21875 
Q 47.75 74.21875 53.53125 72.484375 
Q 59.328125 70.75 64.40625 67.28125 
z
" id="DejaVuSans-67"/>
      <path d="M 44.28125 53.078125 
L 44.28125 44.578125 
Q 40.484375 46.53125 36.375 47.5 
Q 32.28125 48.484375 27.875 48.484375 
Q 21.1875 48.484375 17.84375 46.4375 
Q 14.5 44.390625 14.5 40.28125 
Q 14.5 37.15625 16.890625 35.375 
Q 19.28125 33.59375 26.515625 31.984375 
L 29.59375 31.296875 
Q 39.15625 29.25 43.1875 25.515625 
Q 47.21875 21.78125 47.21875 15.09375 
Q 47.21875 7.46875 41.1875 3.015625 
Q 35.15625 -1.421875 24.609375 -1.421875 
Q 20.21875 -1.421875 15.453125 -0.5625 
Q 10.6875 0.296875 5.421875 2 
L 5.421875 11.28125 
Q 10.40625 8.6875 15.234375 7.390625 
Q 20.0625 6.109375 24.8125 6.109375 
Q 31.15625 6.109375 34.5625 8.28125 
Q 37.984375 10.453125 37.984375 14.40625 
Q 37.984375 18.0625 35.515625 20.015625 
Q 33.0625 21.96875 24.703125 23.78125 
L 21.578125 24.515625 
Q 13.234375 26.265625 9.515625 29.90625 
Q 5.8125 33.546875 5.8125 39.890625 
Q 5.8125 47.609375 11.28125 51.796875 
Q 16.75 56 26.8125 56 
Q 31.78125 56 36.171875 55.265625 
Q 40.578125 54.546875 44.28125 53.078125 
z
" id="DejaVuSans-115"/>
     </defs>
     <use xlink:href="#DejaVuSans-83"/>
     <use x="63.476562" xlink:href="#DejaVuSans-111"/>
     <use x="124.658203" xlink:href="#DejaVuSans-109"/>
     <use x="222.070312" xlink:href="#DejaVuSans-97"/>
     <use x="283.349609" xlink:href="#DejaVuSans-32"/>
     <use x="315.136719" xlink:href="#DejaVuSans-68"/>
     <use x="392.138672" xlink:href="#DejaVuSans-105"/>
     <use x="419.921875" xlink:href="#DejaVuSans-225"/>
     <use x="481.201172" xlink:href="#DejaVuSans-114"/>
     <use x="522.314453" xlink:href="#DejaVuSans-105"/>
     <use x="550.097656" xlink:href="#DejaVuSans-97"/>
     <use x="611.376953" xlink:href="#DejaVuSans-32"/>
     <use x="643.164062" xlink:href="#DejaVuSans-100"/>
     <use x="706.640625" xlink:href="#DejaVuSans-101"/>
     <use x="768.164062" xlink:href="#DejaVuSans-32"/>
     <use x="799.951172" xlink:href="#DejaVuSans-69"/>
     <use x="863.134766" xlink:href="#DejaVuSans-110"/>
     <use x="926.513672" xlink:href="#DejaVuSans-101"/>
     <use x="988.037109" xlink:href="#DejaVuSans-114"/>
     <use x="1027.400391" xlink:href="#DejaVuSans-103"/>
     <use x="1090.876953" xlink:href="#DejaVuSans-105"/>
     <use x="1118.660156" xlink:href="#DejaVuSans-97"/>
     <use x="1179.939453" xlink:href="#DejaVuSans-32"/>
     <use x="1211.726562" xlink:href="#DejaVuSans-45"/>
     <use x="1247.810547" xlink:href="#DejaVuSans-32"/>
     <use x="1279.597656" xlink:href="#DejaVuSans-67"/>
     <use x="1349.421875" xlink:href="#DejaVuSans-97"/>
     <use x="1410.701172" xlink:href="#DejaVuSans-115"/>
     <use x="1462.800781" xlink:href="#DejaVuSans-97"/>
     <use x="1524.080078" xlink:href="#DejaVuSans-32"/>
     <use x="1555.867188" xlink:href="#DejaVuSans-49"/>
     <use x="1619.490234" xlink:href="#DejaVuSans-53"/>
    </g>
   </g>
  </g>
 </g>
 <defs>
  <clipPath id="p16a683754a">
   <rect height="217.44" width="334.8" x="54" y="34.56"/>
  </clipPath>
 </defs>
</svg>
