<?xml version="1.0" encoding="utf-8" standalone="no"?>
<!DOCTYPE svg PUBLIC "-//W3C//DTD SVG 1.1//EN"
  "http://www.w3.org/Graphics/SVG/1.1/DTD/svg11.dtd">
<!-- Created with matplotlib (https://matplotlib.org/) -->
<svg height="288pt" version="1.1" viewBox="0 0 432 288" width="432pt" xmlns="http://www.w3.org/2000/svg" xmlns:xlink="http://www.w3.org/1999/xlink">
 <metadata>
  <rdf:RDF xmlns:cc="http://creativecommons.org/ns#" xmlns:dc="http://purl.org/dc/elements/1.1/" xmlns:rdf="http://www.w3.org/1999/02/22-rdf-syntax-ns#">
   <cc:Work>
    <dc:type rdf:resource="http://purl.org/dc/dcmitype/StillImage"/>
    <dc:date>2021-07-21T14:57:54.195092</dc:date>
    <dc:format>image/svg+xml</dc:format>
    <dc:creator>
     <cc:Agent>
      <dc:title>Matplotlib v3.3.4, https://matplotlib.org/</dc:title>
     </cc:Agent>
    </dc:creator>
   </cc:Work>
  </rdf:RDF>
 </metadata>
 <defs>
  <style type="text/css">*{stroke-linecap:butt;stroke-linejoin:round;}</style>
 </defs>
 <g id="figure_1">
  <g id="patch_1">
   <path d="M 0 288 
L 432 288 
L 432 0 
L 0 0 
z
" style="fill:#ffffff;"/>
  </g>
  <g id="axes_1">
   <g id="patch_2">
    <path d="M 54 252 
L 388.8 252 
L 388.8 34.56 
L 54 34.56 
z
" style="fill:#ffffff;"/>
   </g>
   <g id="matplotlib.axis_1">
    <g id="xtick_1">
     <g id="line2d_1">
      <defs>
       <path d="M 0 0 
L 0 3.5 
" id="m918991964e" style="stroke:#000000;stroke-width:0.8;"/>
      </defs>
      <g>
       <use style="stroke:#000000;stroke-width:0.8;" x="65.88269" xlink:href="#m918991964e" y="252"/>
      </g>
     </g>
     <g id="text_1">
      <!-- 2017-05 -->
      <g transform="translate(53.061408 293.917817)rotate(-45)scale(0.1 -0.1)">
       <defs>
        <path d="M 19.1875 8.296875 
L 53.609375 8.296875 
L 53.609375 0 
L 7.328125 0 
L 7.328125 8.296875 
Q 12.9375 14.109375 22.625 23.890625 
Q 32.328125 33.6875 34.8125 36.53125 
Q 39.546875 41.84375 41.421875 45.53125 
Q 43.3125 49.21875 43.3125 52.78125 
Q 43.3125 58.59375 39.234375 62.25 
Q 35.15625 65.921875 28.609375 65.921875 
Q 23.96875 65.921875 18.8125 64.3125 
Q 13.671875 62.703125 7.8125 59.421875 
L 7.8125 69.390625 
Q 13.765625 71.78125 18.9375 73 
Q 24.125 74.21875 28.421875 74.21875 
Q 39.75 74.21875 46.484375 68.546875 
Q 53.21875 62.890625 53.21875 53.421875 
Q 53.21875 48.921875 51.53125 44.890625 
Q 49.859375 40.875 45.40625 35.40625 
Q 44.1875 33.984375 37.640625 27.21875 
Q 31.109375 20.453125 19.1875 8.296875 
z
" id="DejaVuSans-50"/>
        <path d="M 31.78125 66.40625 
Q 24.171875 66.40625 20.328125 58.90625 
Q 16.5 51.421875 16.5 36.375 
Q 16.5 21.390625 20.328125 13.890625 
Q 24.171875 6.390625 31.78125 6.390625 
Q 39.453125 6.390625 43.28125 13.890625 
Q 47.125 21.390625 47.125 36.375 
Q 47.125 51.421875 43.28125 58.90625 
Q 39.453125 66.40625 31.78125 66.40625 
z
M 31.78125 74.21875 
Q 44.046875 74.21875 50.515625 64.515625 
Q 56.984375 54.828125 56.984375 36.375 
Q 56.984375 17.96875 50.515625 8.265625 
Q 44.046875 -1.421875 31.78125 -1.421875 
Q 19.53125 -1.421875 13.0625 8.265625 
Q 6.59375 17.96875 6.59375 36.375 
Q 6.59375 54.828125 13.0625 64.515625 
Q 19.53125 74.21875 31.78125 74.21875 
z
" id="DejaVuSans-48"/>
        <path d="M 12.40625 8.296875 
L 28.515625 8.296875 
L 28.515625 63.921875 
L 10.984375 60.40625 
L 10.984375 69.390625 
L 28.421875 72.90625 
L 38.28125 72.90625 
L 38.28125 8.296875 
L 54.390625 8.296875 
L 54.390625 0 
L 12.40625 0 
z
" id="DejaVuSans-49"/>
        <path d="M 8.203125 72.90625 
L 55.078125 72.90625 
L 55.078125 68.703125 
L 28.609375 0 
L 18.3125 0 
L 43.21875 64.59375 
L 8.203125 64.59375 
z
" id="DejaVuSans-55"/>
        <path d="M 4.890625 31.390625 
L 31.203125 31.390625 
L 31.203125 23.390625 
L 4.890625 23.390625 
z
" id="DejaVuSans-45"/>
        <path d="M 10.796875 72.90625 
L 49.515625 72.90625 
L 49.515625 64.59375 
L 19.828125 64.59375 
L 19.828125 46.734375 
Q 21.96875 47.46875 24.109375 47.828125 
Q 26.265625 48.1875 28.421875 48.1875 
Q 40.625 48.1875 47.75 41.5 
Q 54.890625 34.8125 54.890625 23.390625 
Q 54.890625 11.625 47.5625 5.09375 
Q 40.234375 -1.421875 26.90625 -1.421875 
Q 22.3125 -1.421875 17.546875 -0.640625 
Q 12.796875 0.140625 7.71875 1.703125 
L 7.71875 11.625 
Q 12.109375 9.234375 16.796875 8.0625 
Q 21.484375 6.890625 26.703125 6.890625 
Q 35.15625 6.890625 40.078125 11.328125 
Q 45.015625 15.765625 45.015625 23.390625 
Q 45.015625 31 40.078125 35.4375 
Q 35.15625 39.890625 26.703125 39.890625 
Q 22.75 39.890625 18.8125 39.015625 
Q 14.890625 38.140625 10.796875 36.28125 
z
" id="DejaVuSans-53"/>
       </defs>
       <use xlink:href="#DejaVuSans-50"/>
       <use x="63.623047" xlink:href="#DejaVuSans-48"/>
       <use x="127.246094" xlink:href="#DejaVuSans-49"/>
       <use x="190.869141" xlink:href="#DejaVuSans-55"/>
       <use x="254.492188" xlink:href="#DejaVuSans-45"/>
       <use x="290.576172" xlink:href="#DejaVuSans-48"/>
       <use x="354.199219" xlink:href="#DejaVuSans-53"/>
      </g>
     </g>
    </g>
    <g id="xtick_2">
     <g id="line2d_2">
      <g>
       <use style="stroke:#000000;stroke-width:0.8;" x="100.071482" xlink:href="#m918991964e" y="252"/>
      </g>
     </g>
     <g id="text_2">
      <!-- 2017-09 -->
      <g transform="translate(87.2502 293.917817)rotate(-45)scale(0.1 -0.1)">
       <defs>
        <path d="M 10.984375 1.515625 
L 10.984375 10.5 
Q 14.703125 8.734375 18.5 7.8125 
Q 22.3125 6.890625 25.984375 6.890625 
Q 35.75 6.890625 40.890625 13.453125 
Q 46.046875 20.015625 46.78125 33.40625 
Q 43.953125 29.203125 39.59375 26.953125 
Q 35.25 24.703125 29.984375 24.703125 
Q 19.046875 24.703125 12.671875 31.3125 
Q 6.296875 37.9375 6.296875 49.421875 
Q 6.296875 60.640625 12.9375 67.421875 
Q 19.578125 74.21875 30.609375 74.21875 
Q 43.265625 74.21875 49.921875 64.515625 
Q 56.59375 54.828125 56.59375 36.375 
Q 56.59375 19.140625 48.40625 8.859375 
Q 40.234375 -1.421875 26.421875 -1.421875 
Q 22.703125 -1.421875 18.890625 -0.6875 
Q 15.09375 0.046875 10.984375 1.515625 
z
M 30.609375 32.421875 
Q 37.25 32.421875 41.125 36.953125 
Q 45.015625 41.5 45.015625 49.421875 
Q 45.015625 57.28125 41.125 61.84375 
Q 37.25 66.40625 30.609375 66.40625 
Q 23.96875 66.40625 20.09375 61.84375 
Q 16.21875 57.28125 16.21875 49.421875 
Q 16.21875 41.5 20.09375 36.953125 
Q 23.96875 32.421875 30.609375 32.421875 
z
" id="DejaVuSans-57"/>
       </defs>
       <use xlink:href="#DejaVuSans-50"/>
       <use x="63.623047" xlink:href="#DejaVuSans-48"/>
       <use x="127.246094" xlink:href="#DejaVuSans-49"/>
       <use x="190.869141" xlink:href="#DejaVuSans-55"/>
       <use x="254.492188" xlink:href="#DejaVuSans-45"/>
       <use x="290.576172" xlink:href="#DejaVuSans-48"/>
       <use x="354.199219" xlink:href="#DejaVuSans-57"/>
      </g>
     </g>
    </g>
    <g id="xtick_3">
     <g id="line2d_3">
      <g>
       <use style="stroke:#000000;stroke-width:0.8;" x="133.982316" xlink:href="#m918991964e" y="252"/>
      </g>
     </g>
     <g id="text_3">
      <!-- 2018-01 -->
      <g transform="translate(121.161034 293.917817)rotate(-45)scale(0.1 -0.1)">
       <defs>
        <path d="M 31.78125 34.625 
Q 24.75 34.625 20.71875 30.859375 
Q 16.703125 27.09375 16.703125 20.515625 
Q 16.703125 13.921875 20.71875 10.15625 
Q 24.75 6.390625 31.78125 6.390625 
Q 38.8125 6.390625 42.859375 10.171875 
Q 46.921875 13.96875 46.921875 20.515625 
Q 46.921875 27.09375 42.890625 30.859375 
Q 38.875 34.625 31.78125 34.625 
z
M 21.921875 38.8125 
Q 15.578125 40.375 12.03125 44.71875 
Q 8.5 49.078125 8.5 55.328125 
Q 8.5 64.0625 14.71875 69.140625 
Q 20.953125 74.21875 31.78125 74.21875 
Q 42.671875 74.21875 48.875 69.140625 
Q 55.078125 64.0625 55.078125 55.328125 
Q 55.078125 49.078125 51.53125 44.71875 
Q 48 40.375 41.703125 38.8125 
Q 48.828125 37.15625 52.796875 32.3125 
Q 56.78125 27.484375 56.78125 20.515625 
Q 56.78125 9.90625 50.3125 4.234375 
Q 43.84375 -1.421875 31.78125 -1.421875 
Q 19.734375 -1.421875 13.25 4.234375 
Q 6.78125 9.90625 6.78125 20.515625 
Q 6.78125 27.484375 10.78125 32.3125 
Q 14.796875 37.15625 21.921875 38.8125 
z
M 18.3125 54.390625 
Q 18.3125 48.734375 21.84375 45.5625 
Q 25.390625 42.390625 31.78125 42.390625 
Q 38.140625 42.390625 41.71875 45.5625 
Q 45.3125 48.734375 45.3125 54.390625 
Q 45.3125 60.0625 41.71875 63.234375 
Q 38.140625 66.40625 31.78125 66.40625 
Q 25.390625 66.40625 21.84375 63.234375 
Q 18.3125 60.0625 18.3125 54.390625 
z
" id="DejaVuSans-56"/>
       </defs>
       <use xlink:href="#DejaVuSans-50"/>
       <use x="63.623047" xlink:href="#DejaVuSans-48"/>
       <use x="127.246094" xlink:href="#DejaVuSans-49"/>
       <use x="190.869141" xlink:href="#DejaVuSans-56"/>
       <use x="254.492188" xlink:href="#DejaVuSans-45"/>
       <use x="290.576172" xlink:href="#DejaVuSans-48"/>
       <use x="354.199219" xlink:href="#DejaVuSans-49"/>
      </g>
     </g>
    </g>
    <g id="xtick_4">
     <g id="line2d_4">
      <g>
       <use style="stroke:#000000;stroke-width:0.8;" x="167.337235" xlink:href="#m918991964e" y="252"/>
      </g>
     </g>
     <g id="text_4">
      <!-- 2018-05 -->
      <g transform="translate(154.515953 293.917817)rotate(-45)scale(0.1 -0.1)">
       <use xlink:href="#DejaVuSans-50"/>
       <use x="63.623047" xlink:href="#DejaVuSans-48"/>
       <use x="127.246094" xlink:href="#DejaVuSans-49"/>
       <use x="190.869141" xlink:href="#DejaVuSans-56"/>
       <use x="254.492188" xlink:href="#DejaVuSans-45"/>
       <use x="290.576172" xlink:href="#DejaVuSans-48"/>
       <use x="354.199219" xlink:href="#DejaVuSans-53"/>
      </g>
     </g>
    </g>
    <g id="xtick_5">
     <g id="line2d_5">
      <g>
       <use style="stroke:#000000;stroke-width:0.8;" x="201.526027" xlink:href="#m918991964e" y="252"/>
      </g>
     </g>
     <g id="text_5">
      <!-- 2018-09 -->
      <g transform="translate(188.704745 293.917817)rotate(-45)scale(0.1 -0.1)">
       <use xlink:href="#DejaVuSans-50"/>
       <use x="63.623047" xlink:href="#DejaVuSans-48"/>
       <use x="127.246094" xlink:href="#DejaVuSans-49"/>
       <use x="190.869141" xlink:href="#DejaVuSans-56"/>
       <use x="254.492188" xlink:href="#DejaVuSans-45"/>
       <use x="290.576172" xlink:href="#DejaVuSans-48"/>
       <use x="354.199219" xlink:href="#DejaVuSans-57"/>
      </g>
     </g>
    </g>
    <g id="xtick_6">
     <g id="line2d_6">
      <g>
       <use style="stroke:#000000;stroke-width:0.8;" x="235.436862" xlink:href="#m918991964e" y="252"/>
      </g>
     </g>
     <g id="text_6">
      <!-- 2019-01 -->
      <g transform="translate(222.61558 293.917817)rotate(-45)scale(0.1 -0.1)">
       <use xlink:href="#DejaVuSans-50"/>
       <use x="63.623047" xlink:href="#DejaVuSans-48"/>
       <use x="127.246094" xlink:href="#DejaVuSans-49"/>
       <use x="190.869141" xlink:href="#DejaVuSans-57"/>
       <use x="254.492188" xlink:href="#DejaVuSans-45"/>
       <use x="290.576172" xlink:href="#DejaVuSans-48"/>
       <use x="354.199219" xlink:href="#DejaVuSans-49"/>
      </g>
     </g>
    </g>
    <g id="xtick_7">
     <g id="line2d_7">
      <g>
       <use style="stroke:#000000;stroke-width:0.8;" x="268.791781" xlink:href="#m918991964e" y="252"/>
      </g>
     </g>
     <g id="text_7">
      <!-- 2019-05 -->
      <g transform="translate(255.970499 293.917817)rotate(-45)scale(0.1 -0.1)">
       <use xlink:href="#DejaVuSans-50"/>
       <use x="63.623047" xlink:href="#DejaVuSans-48"/>
       <use x="127.246094" xlink:href="#DejaVuSans-49"/>
       <use x="190.869141" xlink:href="#DejaVuSans-57"/>
       <use x="254.492188" xlink:href="#DejaVuSans-45"/>
       <use x="290.576172" xlink:href="#DejaVuSans-48"/>
       <use x="354.199219" xlink:href="#DejaVuSans-53"/>
      </g>
     </g>
    </g>
    <g id="xtick_8">
     <g id="line2d_8">
      <g>
       <use style="stroke:#000000;stroke-width:0.8;" x="302.980573" xlink:href="#m918991964e" y="252"/>
      </g>
     </g>
     <g id="text_8">
      <!-- 2019-09 -->
      <g transform="translate(290.159291 293.917817)rotate(-45)scale(0.1 -0.1)">
       <use xlink:href="#DejaVuSans-50"/>
       <use x="63.623047" xlink:href="#DejaVuSans-48"/>
       <use x="127.246094" xlink:href="#DejaVuSans-49"/>
       <use x="190.869141" xlink:href="#DejaVuSans-57"/>
       <use x="254.492188" xlink:href="#DejaVuSans-45"/>
       <use x="290.576172" xlink:href="#DejaVuSans-48"/>
       <use x="354.199219" xlink:href="#DejaVuSans-57"/>
      </g>
     </g>
    </g>
    <g id="xtick_9">
     <g id="line2d_9">
      <g>
       <use style="stroke:#000000;stroke-width:0.8;" x="336.891407" xlink:href="#m918991964e" y="252"/>
      </g>
     </g>
     <g id="text_9">
      <!-- 2020-01 -->
      <g transform="translate(324.070125 293.917817)rotate(-45)scale(0.1 -0.1)">
       <use xlink:href="#DejaVuSans-50"/>
       <use x="63.623047" xlink:href="#DejaVuSans-48"/>
       <use x="127.246094" xlink:href="#DejaVuSans-50"/>
       <use x="190.869141" xlink:href="#DejaVuSans-48"/>
       <use x="254.492188" xlink:href="#DejaVuSans-45"/>
       <use x="290.576172" xlink:href="#DejaVuSans-48"/>
       <use x="354.199219" xlink:href="#DejaVuSans-49"/>
      </g>
     </g>
    </g>
    <g id="xtick_10">
     <g id="line2d_10">
      <g>
       <use style="stroke:#000000;stroke-width:0.8;" x="370.524284" xlink:href="#m918991964e" y="252"/>
      </g>
     </g>
     <g id="text_10">
      <!-- 2020-05 -->
      <g transform="translate(357.703002 293.917817)rotate(-45)scale(0.1 -0.1)">
       <use xlink:href="#DejaVuSans-50"/>
       <use x="63.623047" xlink:href="#DejaVuSans-48"/>
       <use x="127.246094" xlink:href="#DejaVuSans-50"/>
       <use x="190.869141" xlink:href="#DejaVuSans-48"/>
       <use x="254.492188" xlink:href="#DejaVuSans-45"/>
       <use x="290.576172" xlink:href="#DejaVuSans-48"/>
       <use x="354.199219" xlink:href="#DejaVuSans-53"/>
      </g>
     </g>
    </g>
   </g>
   <g id="matplotlib.axis_2">
    <g id="ytick_1">
     <g id="line2d_11">
      <defs>
       <path d="M 0 0 
L -3.5 0 
" id="m8f86895007" style="stroke:#000000;stroke-width:0.8;"/>
      </defs>
      <g>
       <use style="stroke:#000000;stroke-width:0.8;" x="54" xlink:href="#m8f86895007" y="242.116364"/>
      </g>
     </g>
     <g id="text_11">
      <!-- 0 -->
      <g transform="translate(40.6375 245.915582)scale(0.1 -0.1)">
       <use xlink:href="#DejaVuSans-48"/>
      </g>
     </g>
    </g>
    <g id="ytick_2">
     <g id="line2d_12">
      <g>
       <use style="stroke:#000000;stroke-width:0.8;" x="54" xlink:href="#m8f86895007" y="215.229431"/>
      </g>
     </g>
     <g id="text_12">
      <!-- 5 -->
      <g transform="translate(40.6375 219.02865)scale(0.1 -0.1)">
       <use xlink:href="#DejaVuSans-53"/>
      </g>
     </g>
    </g>
    <g id="ytick_3">
     <g id="line2d_13">
      <g>
       <use style="stroke:#000000;stroke-width:0.8;" x="54" xlink:href="#m8f86895007" y="188.342499"/>
      </g>
     </g>
     <g id="text_13">
      <!-- 10 -->
      <g transform="translate(34.275 192.141718)scale(0.1 -0.1)">
       <use xlink:href="#DejaVuSans-49"/>
       <use x="63.623047" xlink:href="#DejaVuSans-48"/>
      </g>
     </g>
    </g>
    <g id="ytick_4">
     <g id="line2d_14">
      <g>
       <use style="stroke:#000000;stroke-width:0.8;" x="54" xlink:href="#m8f86895007" y="161.455566"/>
      </g>
     </g>
     <g id="text_14">
      <!-- 15 -->
      <g transform="translate(34.275 165.254785)scale(0.1 -0.1)">
       <use xlink:href="#DejaVuSans-49"/>
       <use x="63.623047" xlink:href="#DejaVuSans-53"/>
      </g>
     </g>
    </g>
    <g id="ytick_5">
     <g id="line2d_15">
      <g>
       <use style="stroke:#000000;stroke-width:0.8;" x="54" xlink:href="#m8f86895007" y="134.568634"/>
      </g>
     </g>
     <g id="text_15">
      <!-- 20 -->
      <g transform="translate(34.275 138.367853)scale(0.1 -0.1)">
       <use xlink:href="#DejaVuSans-50"/>
       <use x="63.623047" xlink:href="#DejaVuSans-48"/>
      </g>
     </g>
    </g>
    <g id="ytick_6">
     <g id="line2d_16">
      <g>
       <use style="stroke:#000000;stroke-width:0.8;" x="54" xlink:href="#m8f86895007" y="107.681701"/>
      </g>
     </g>
     <g id="text_16">
      <!-- 25 -->
      <g transform="translate(34.275 111.48092)scale(0.1 -0.1)">
       <use xlink:href="#DejaVuSans-50"/>
       <use x="63.623047" xlink:href="#DejaVuSans-53"/>
      </g>
     </g>
    </g>
    <g id="ytick_7">
     <g id="line2d_17">
      <g>
       <use style="stroke:#000000;stroke-width:0.8;" x="54" xlink:href="#m8f86895007" y="80.794769"/>
      </g>
     </g>
     <g id="text_17">
      <!-- 30 -->
      <g transform="translate(34.275 84.593988)scale(0.1 -0.1)">
       <defs>
        <path d="M 40.578125 39.3125 
Q 47.65625 37.796875 51.625 33 
Q 55.609375 28.21875 55.609375 21.1875 
Q 55.609375 10.40625 48.1875 4.484375 
Q 40.765625 -1.421875 27.09375 -1.421875 
Q 22.515625 -1.421875 17.65625 -0.515625 
Q 12.796875 0.390625 7.625 2.203125 
L 7.625 11.71875 
Q 11.71875 9.328125 16.59375 8.109375 
Q 21.484375 6.890625 26.8125 6.890625 
Q 36.078125 6.890625 40.9375 10.546875 
Q 45.796875 14.203125 45.796875 21.1875 
Q 45.796875 27.640625 41.28125 31.265625 
Q 36.765625 34.90625 28.71875 34.90625 
L 20.21875 34.90625 
L 20.21875 43.015625 
L 29.109375 43.015625 
Q 36.375 43.015625 40.234375 45.921875 
Q 44.09375 48.828125 44.09375 54.296875 
Q 44.09375 59.90625 40.109375 62.90625 
Q 36.140625 65.921875 28.71875 65.921875 
Q 24.65625 65.921875 20.015625 65.03125 
Q 15.375 64.15625 9.8125 62.3125 
L 9.8125 71.09375 
Q 15.4375 72.65625 20.34375 73.4375 
Q 25.25 74.21875 29.59375 74.21875 
Q 40.828125 74.21875 47.359375 69.109375 
Q 53.90625 64.015625 53.90625 55.328125 
Q 53.90625 49.265625 50.4375 45.09375 
Q 46.96875 40.921875 40.578125 39.3125 
z
" id="DejaVuSans-51"/>
       </defs>
       <use xlink:href="#DejaVuSans-51"/>
       <use x="63.623047" xlink:href="#DejaVuSans-48"/>
      </g>
     </g>
    </g>
    <g id="ytick_8">
     <g id="line2d_18">
      <g>
       <use style="stroke:#000000;stroke-width:0.8;" x="54" xlink:href="#m8f86895007" y="53.907837"/>
      </g>
     </g>
     <g id="text_18">
      <!-- 35 -->
      <g transform="translate(34.275 57.707055)scale(0.1 -0.1)">
       <use xlink:href="#DejaVuSans-51"/>
       <use x="63.623047" xlink:href="#DejaVuSans-53"/>
      </g>
     </g>
    </g>
   </g>
   <g id="line2d_19">
    <path clip-path="url(#p71c9179134)" d="M 69.218182 197.806699 
L 69.496139 165.112189 
L 69.774097 173.769781 
L 70.052055 189.47175 
L 70.330012 188.342499 
L 70.60797 179.254716 
L 70.885928 184.148137 
L 71.163885 211.519035 
L 71.441843 216.735099 
L 71.719801 214.79924 
L 71.997758 190.009489 
L 72.275716 192.214217 
L 72.553674 201.57087 
L 72.831631 205.012397 
L 73.387547 166.617857 
L 73.665504 161.186697 
L 73.943462 203.130312 
L 74.22142 208.534585 
L 74.499377 200.495392 
L 74.777335 204.098241 
L 75.055293 163.552747 
L 75.33325 169.629194 
L 75.611208 195.978388 
L 76.167123 158.014039 
L 76.445081 170.489576 
L 76.723039 209.260532 
L 77.556912 191.084966 
L 77.834869 195.413762 
L 78.112827 192.160443 
L 78.390785 196.301031 
L 78.668742 188.019856 
L 78.9467 167.585787 
L 79.224658 192.913277 
L 79.502615 205.711457 
L 79.780573 210.497331 
L 80.058531 201.57087 
L 80.336488 181.351896 
L 80.614446 202.646347 
L 81.170361 125.857268 
L 81.448319 112.467575 
L 82.004234 205.657683 
L 82.282192 175.759414 
L 82.560149 208.077507 
L 82.838107 216.089813 
L 83.116065 217.111516 
L 83.394022 167.424465 
L 83.67198 196.139709 
L 83.949938 195.118006 
L 84.227895 135.590337 
L 84.505853 195.279327 
L 84.783811 199.366141 
L 85.061768 185.331162 
L 85.339726 201.893513 
L 85.617684 201.463322 
L 85.895641 147.689457 
L 86.173599 201.517096 
L 86.451557 189.525524 
L 86.729514 204.205789 
L 87.007472 197.430282 
L 87.28543 196.516126 
L 87.563387 193.666111 
L 87.841345 203.560503 
L 88.119303 164.466903 
L 88.39726 205.819005 
L 88.675218 191.810913 
L 88.953176 196.838769 
L 89.231133 204.259563 
L 89.509091 131.557297 
L 89.787049 162.746139 
L 90.065006 154.196095 
L 90.342964 204.797301 
L 90.620922 188.611368 
L 91.176837 130.105403 
L 91.454795 149.195125 
L 92.01071 108.058119 
L 92.566625 207.270899 
L 92.844583 153.01307 
L 93.12254 160.003672 
L 93.400498 141.021498 
L 93.678456 138.978091 
L 93.956413 44.443636 
L 94.512329 194.418945 
L 94.790286 190.816097 
L 95.068244 199.796332 
L 95.624159 183.879268 
L 95.902117 212.271869 
L 96.180075 219.101149 
L 96.458032 219.423793 
L 97.013948 219.638888 
L 97.291905 218.993602 
L 97.569863 213.616215 
L 97.847821 193.719885 
L 98.125778 200.495392 
L 98.403736 212.486964 
L 98.681694 143.387548 
L 98.959651 144.463025 
L 99.237609 127.631805 
L 99.515567 182.750017 
L 99.793524 101.927898 
L 100.071482 163.606521 
L 100.34944 156.669692 
L 100.627397 105.692068 
L 101.183313 155.540441 
L 101.46127 190.278358 
L 101.739228 149.356447 
L 102.017186 178.125464 
L 102.573101 206.733161 
L 102.851059 191.568931 
L 103.129016 202.00106 
L 103.406974 205.711457 
L 103.684932 136.450719 
L 103.962889 200.495392 
L 104.240847 170.220706 
L 104.518804 190.385906 
L 104.796762 193.397242 
L 105.07472 202.108608 
L 105.352677 202.26993 
L 105.630635 149.033804 
L 105.908593 204.474658 
L 106.18655 137.84884 
L 106.464508 152.260235 
L 106.742466 195.17178 
L 107.020423 191.407609 
L 107.298381 190.224584 
L 107.576339 162.423496 
L 107.854296 204.098241 
L 108.132254 163.122556 
L 108.410212 197.591604 
L 108.688169 197.699151 
L 108.966127 199.90388 
L 109.244085 190.923644 
L 109.522042 148.98003 
L 109.8 200.226523 
L 110.077958 188.987785 
L 110.355915 170.166932 
L 110.633873 187.428343 
L 110.911831 195.118006 
L 111.189788 189.525524 
L 111.467746 97.142024 
L 111.745704 195.386875 
L 112.023661 163.015008 
L 112.301619 187.1057 
L 112.579577 169.037681 
L 112.857534 186.890604 
L 113.135492 174.737711 
L 113.41345 145.000764 
L 113.691407 191.999122 
L 113.969365 154.464964 
L 114.247323 166.671631 
L 114.52528 191.13874 
L 114.803238 201.463322 
L 115.081196 195.17178 
L 115.359153 125.588398 
L 115.637111 193.827433 
L 115.915068 167.424465 
L 116.193026 153.44326 
L 116.748941 193.612338 
L 117.026899 179.093394 
L 117.304857 178.932072 
L 117.582814 168.446169 
L 117.860772 125.642172 
L 118.13873 171.027314 
L 118.416687 175.651867 
L 118.694645 173.016947 
L 118.972603 212.325642 
L 119.528518 218.240768 
L 119.806476 215.659622 
L 120.084433 216.573778 
L 120.362391 215.336979 
L 120.640349 213.13225 
L 120.918306 212.648286 
L 121.196264 215.121883 
L 121.474222 151.937592 
L 122.030137 169.414098 
L 122.308095 170.435802 
L 122.586052 190.923644 
L 122.86401 185.277388 
L 123.141968 160.702732 
L 123.419925 161.186697 
L 123.697883 171.134862 
L 123.975841 172.748078 
L 124.253798 184.04059 
L 124.531756 184.847198 
L 124.809714 177.749047 
L 125.087671 154.948929 
L 125.365629 180.599062 
L 125.643587 158.229134 
L 125.921544 188.342499 
L 126.199502 182.642469 
L 126.47746 171.887696 
L 127.033375 141.801219 
L 127.311333 172.694304 
L 127.58929 114.457208 
L 128.145205 162.262174 
L 128.423163 167.800882 
L 128.701121 170.166932 
L 128.979078 141.344141 
L 129.257036 156.669692 
L 129.534994 196.731222 
L 129.812951 162.692365 
L 130.090909 153.980999 
L 130.368867 140.645081 
L 130.646824 165.381058 
L 130.924782 139.085639 
L 131.20274 146.990397 
L 131.480697 132.202584 
L 131.758655 161.885757 
L 132.036613 137.472423 
L 132.31457 154.787607 
L 132.592528 163.122556 
L 132.870486 89.237266 
L 133.148443 161.831983 
L 133.426401 159.089516 
L 133.704359 149.67909 
L 133.982316 156.131954 
L 134.260274 154.142321 
L 134.538232 154.41119 
L 134.816189 144.839442 
L 135.094147 139.784699 
L 135.372105 179.900002 
L 135.650062 139.623377 
L 136.205978 175.167902 
L 136.483935 173.60846 
L 136.761893 125.964816 
L 137.039851 138.816769 
L 137.317808 171.94147 
L 137.595766 167.155596 
L 137.873724 159.197064 
L 138.151681 140.591307 
L 138.429639 186.191544 
L 138.707597 135.751659 
L 138.985554 171.296184 
L 139.263512 167.316918 
L 139.541469 178.663203 
L 139.819427 185.116067 
L 140.097385 195.494423 
L 140.6533 154.142321 
L 140.931258 185.384936 
L 141.209215 181.997183 
L 141.765131 155.863084 
L 142.043088 148.872482 
L 142.321046 150.163055 
L 142.599004 81.063638 
L 142.876961 159.035742 
L 143.432877 173.60846 
L 143.710834 185.761353 
L 143.988792 188.557594 
L 144.26675 184.255685 
L 144.544707 167.532013 
L 144.822665 115.747781 
L 145.100623 168.338621 
L 145.37858 146.775301 
L 145.656538 144.409251 
L 145.934496 173.716008 
L 146.212453 165.811249 
L 146.768369 124.728017 
L 147.046326 185.600032 
L 147.324284 159.250838 
L 147.602242 170.731558 
L 147.880199 168.983907 
L 148.158157 162.799913 
L 148.714072 136.934684 
L 148.99203 163.230104 
L 149.269988 165.273511 
L 149.547945 163.230104 
L 149.825903 163.498973 
L 150.103861 175.920736 
L 150.381818 120.426107 
L 150.659776 197.484056 
L 150.937733 218.670959 
L 151.215691 171.887696 
L 151.493649 161.50934 
L 151.771606 177.802821 
L 152.049564 166.994274 
L 152.327522 142.822922 
L 152.605479 183.233982 
L 152.883437 171.833922 
L 153.161395 130.912011 
L 153.439352 175.544319 
L 153.71731 173.931103 
L 153.995268 191.246287 
L 154.273225 200.387844 
L 154.829141 191.784026 
L 155.107098 126.610102 
L 155.385056 193.289694 
L 155.663014 194.257624 
L 155.940971 198.021794 
L 156.218929 182.534921 
L 156.496887 179.416037 
L 156.774844 183.126434 
L 157.052802 175.114128 
L 157.33076 172.102792 
L 157.608717 194.257624 
L 157.886675 198.344438 
L 158.164633 118.382701 
L 158.44259 194.472719 
L 158.720548 158.766873 
L 158.998506 200.387844 
L 159.276463 169.629194 
L 159.554421 201.409548 
L 159.832379 195.440649 
L 160.110336 133.278061 
L 160.388294 200.387844 
L 160.666252 170.650897 
L 160.944209 175.382997 
L 161.222167 191.891574 
L 161.500125 197.457169 
L 161.778082 192.052895 
L 162.05604 190.117036 
L 162.333998 195.494423 
L 162.611955 212.648286 
L 162.889913 184.255685 
L 163.16787 185.600032 
L 163.723786 204.313337 
L 164.001743 196.462352 
L 164.279701 195.010458 
L 164.557659 142.957357 
L 164.835616 186.890604 
L 165.113574 186.944378 
L 165.391532 203.883146 
L 165.669489 199.90388 
L 165.947447 202.646347 
L 166.225405 153.765904 
L 166.503362 178.233012 
L 166.78132 178.34056 
L 167.059278 199.204819 
L 167.615193 208.346376 
L 167.893151 196.892543 
L 168.171108 205.926553 
L 168.449066 154.787607 
L 168.727024 201.839739 
L 169.004981 200.065201 
L 169.282939 200.172749 
L 169.560897 185.815127 
L 170.116812 205.281266 
L 170.39477 201.248226 
L 170.672727 200.387844 
L 170.950685 200.118975 
L 171.228643 200.441618 
L 171.5066 204.958623 
L 171.784558 174.092425 
L 172.062516 184.954745 
L 172.340473 156.454597 
L 172.618431 197.914247 
L 172.896389 196.301031 
L 173.174346 199.177933 
L 173.452304 198.720855 
L 173.730262 155.916858 
L 174.008219 197.107639 
L 174.286177 194.956684 
L 174.564134 189.579298 
L 174.842092 193.827433 
L 175.12005 188.880237 
L 175.398007 200.172749 
L 175.675965 188.826464 
L 175.953923 199.796332 
L 176.23188 203.022764 
L 176.509838 158.390456 
L 176.787796 197.430282 
L 177.343711 202.646347 
L 177.621669 198.075568 
L 178.177584 157.583848 
L 178.455542 196.032161 
L 178.733499 204.851075 
L 179.289415 197.806699 
L 179.567372 205.33504 
L 179.84533 201.785965 
L 180.123288 151.184758 
L 180.401245 174.038651 
L 180.679203 153.497034 
L 180.957161 144.355477 
L 181.513076 199.419915 
L 181.791034 199.204819 
L 182.068991 204.044467 
L 182.624907 220.983235 
L 183.45878 221.252104 
L 183.736737 222.220034 
L 184.014695 169.414098 
L 184.292653 194.257624 
L 184.57061 206.141648 
L 184.848568 205.281266 
L 185.126526 201.839739 
L 185.404483 160.541411 
L 185.682441 146.237563 
L 186.238356 197.645377 
L 186.516314 156.669692 
L 186.794271 207.969959 
L 187.072229 209.152984 
L 187.350187 176.485362 
L 187.628144 185.062293 
L 187.906102 167.854656 
L 188.18406 142.849809 
L 188.462017 144.463025 
L 188.739975 140.537533 
L 189.017933 202.216156 
L 189.29589 195.763292 
L 189.573848 182.481147 
L 189.851806 186.944378 
L 190.129763 182.158504 
L 190.407721 126.072363 
L 190.685679 143.495095 
L 190.963636 135.590337 
L 191.241594 98.862788 
L 191.519552 110.961907 
L 191.797509 136.020528 
L 192.075467 124.78179 
L 192.353425 86.602346 
L 192.631382 158.820647 
L 192.90934 194.418945 
L 193.187298 153.201278 
L 193.465255 196.623674 
L 193.743213 190.385906 
L 194.021171 167.800882 
L 194.299128 123.007253 
L 194.577086 132.955418 
L 194.855044 114.672304 
L 195.133001 80.5259 
L 195.410959 192.429312 
L 195.688917 214.745466 
L 195.966874 216.062926 
L 196.244832 174.092425 
L 196.52279 192.052895 
L 196.800747 176.512248 
L 197.63462 211.088844 
L 198.190535 180.652836 
L 198.468493 157.530074 
L 198.746451 191.999122 
L 199.024408 198.882176 
L 199.580324 203.775598 
L 199.858281 156.024406 
L 200.136239 201.463322 
L 200.414197 199.366141 
L 200.692154 201.355774 
L 200.970112 186.567961 
L 201.24807 188.77269 
L 201.526027 200.334071 
L 201.803985 170.220706 
L 202.081943 195.413762 
L 202.3599 205.550136 
L 202.637858 195.87084 
L 202.915816 202.861442 
L 203.193773 196.247257 
L 203.471731 134.51486 
L 203.749689 202.26993 
L 204.305604 194.687815 
L 204.583562 196.5699 
L 204.861519 199.742558 
L 205.139477 199.742558 
L 205.417435 151.883818 
L 205.695392 196.892543 
L 205.97335 191.945348 
L 206.251308 204.044467 
L 206.529265 207.055804 
L 206.807223 154.384303 
L 207.085181 202.485025 
L 207.641096 163.230104 
L 207.919054 192.859503 
L 208.197011 197.161413 
L 208.474969 204.098241 
L 208.752927 205.872779 
L 209.030884 214.261502 
L 209.5868 120.372334 
L 209.864757 198.720855 
L 210.142715 201.409548 
L 210.420672 198.667081 
L 210.69863 197.484056 
L 210.976588 192.53686 
L 211.254545 146.882849 
L 212.088418 205.765231 
L 212.366376 193.988755 
L 212.644334 198.828402 
L 212.922291 192.913277 
L 213.478207 142.473392 
L 213.756164 194.849136 
L 214.034122 201.57087 
L 214.31208 197.860473 
L 214.590037 164.897094 
L 214.867995 194.284511 
L 215.42391 190.923644 
L 215.701868 201.839739 
L 215.979826 199.796332 
L 216.257783 196.301031 
L 216.535741 168.553716 
L 216.813699 209.798271 
L 217.369614 162.799913 
L 217.647572 197.322734 
L 217.925529 204.474658 
L 218.759402 178.394334 
L 219.03736 201.893513 
L 219.315318 144.67812 
L 219.593275 193.343468 
L 219.871233 179.953776 
L 220.149191 197.806699 
L 220.427148 180.652836 
L 220.983064 223.187963 
L 221.261021 225.769109 
L 221.538979 191.8378 
L 221.816936 193.289694 
L 222.372852 184.524554 
L 222.650809 145.000764 
L 222.928767 190.654775 
L 223.206725 191.622705 
L 223.484682 172.694304 
L 223.76264 196.516126 
L 224.040598 199.796332 
L 224.318555 180.222645 
L 224.596513 190.601001 
L 224.874471 122.845931 
L 225.152428 171.94147 
L 225.708344 193.289694 
L 225.986301 185.653806 
L 226.264259 190.762323 
L 226.542217 176.619796 
L 226.820174 129.675212 
L 227.098132 172.371661 
L 227.654047 185.815127 
L 227.932005 188.073629 
L 228.209963 180.867932 
L 228.48792 159.250838 
L 228.765878 172.210339 
L 229.043836 132.686549 
L 229.321793 218.402089 
L 229.599751 219.370019 
L 229.877709 222.757772 
L 230.155666 207.109578 
L 230.433624 219.477567 
L 230.989539 223.83325 
L 231.267497 207.539769 
L 231.545455 144.893216 
L 231.823412 192.321765 
L 232.10137 184.417007 
L 232.379328 183.287755 
L 232.657285 167.048048 
L 232.935243 186.460413 
L 233.2132 195.440649 
L 233.491158 157.798944 
L 233.769116 188.127403 
L 234.047073 185.922675 
L 234.325031 181.728313 
L 234.602989 169.145229 
L 234.880946 184.900971 
L 235.158904 165.811249 
L 235.436862 161.616888 
L 235.714819 167.962204 
L 235.992777 185.546258 
L 236.270735 189.579298 
L 236.548692 184.793424 
L 236.82665 150.593246 
L 237.104608 186.675509 
L 237.660523 196.139709 
L 237.938481 190.708549 
L 238.216438 162.47727 
L 238.494396 194.634041 
L 238.772354 189.47175 
L 239.050311 193.101486 
L 239.328269 184.255685 
L 239.606227 166.348988 
L 239.884184 194.365172 
L 240.162142 185.062293 
L 240.4401 168.930134 
L 240.718057 199.312367 
L 240.996015 192.913277 
L 241.273973 197.053865 
L 241.829888 165.165963 
L 242.107846 190.681662 
L 242.385803 188.611368 
L 242.663761 173.60846 
L 242.941719 192.214217 
L 243.219676 196.892543 
L 243.497634 194.096302 
L 243.775592 152.04514 
L 244.053549 184.201911 
L 244.331507 191.219401 
L 244.609465 188.665142 
L 244.887422 189.417976 
L 245.443337 179.093394 
L 245.721295 186.191544 
L 246.27721 178.017917 
L 246.555168 138.762995 
L 246.833126 157.368753 
L 247.111083 164.359355 
L 247.389041 175.598093 
L 247.666999 177.265083 
L 247.944956 109.133596 
L 248.222914 146.96351 
L 249.056787 169.199003 
L 249.334745 184.632102 
L 249.612702 180.545288 
L 249.89066 174.092425 
L 250.168618 155.863084 
L 250.446575 163.767843 
L 250.724533 148.388517 
L 251.002491 180.545288 
L 251.280448 176.458475 
L 251.558406 178.663203 
L 251.836364 166.940501 
L 252.114321 173.60846 
L 252.392279 86.387251 
L 252.670237 176.834892 
L 252.948194 191.353835 
L 253.50411 178.286786 
L 253.782067 155.002703 
L 254.060025 195.655744 
L 254.337983 137.687518 
L 254.61594 188.019856 
L 254.893898 180.437741 
L 255.171856 179.73868 
L 255.449813 166.832953 
L 256.005729 192.913277 
L 256.283686 215.874718 
L 256.561644 224.693631 
L 256.839601 225.715335 
L 257.117559 213.13225 
L 257.395517 181.298122 
L 257.673474 192.160443 
L 257.951432 191.945348 
L 258.507347 205.711457 
L 258.785305 204.689754 
L 259.063263 208.615246 
L 259.34122 194.20385 
L 259.619178 195.440649 
L 259.897136 163.660295 
L 260.175093 205.765231 
L 260.453051 198.774629 
L 260.731009 210.228462 
L 261.008966 194.311398 
L 261.286924 209.045437 
L 261.564882 211.357713 
L 261.842839 217.595481 
L 262.398755 189.417976 
L 262.676712 193.182147 
L 262.95467 170.059385 
L 263.232628 189.794393 
L 263.510585 144.624347 
L 263.788543 194.956684 
L 264.066501 192.052895 
L 264.344458 203.452955 
L 264.900374 198.290664 
L 265.178331 204.36711 
L 265.456289 192.429312 
L 265.734247 190.601001 
L 266.012204 146.183789 
L 266.56812 196.784996 
L 266.846077 187.643439 
L 267.401993 204.63598 
L 267.67995 181.029253 
L 267.957908 178.233012 
L 268.235866 202.538799 
L 268.513823 207.647316 
L 268.791781 203.291633 
L 269.069738 203.291633 
L 269.347696 198.882176 
L 269.625654 209.690723 
L 269.903611 203.452955 
L 270.181569 208.453924 
L 270.459527 210.658653 
L 271.015442 174.845259 
L 271.2934 213.885085 
L 272.127273 196.085935 
L 272.40523 213.078477 
L 272.683188 212.056773 
L 272.961146 217.380386 
L 273.239103 151.991366 
L 273.517061 216.46623 
L 273.795019 210.443557 
L 274.072976 198.828402 
L 274.350934 212.164321 
L 274.628892 200.118975 
L 275.184807 213.777537 
L 275.462765 187.697212 
L 275.740722 205.872779 
L 276.01868 206.840708 
L 276.296638 207.217125 
L 276.574595 213.078477 
L 277.130511 197.215186 
L 277.408468 206.679387 
L 277.686426 199.151046 
L 277.964384 210.282236 
L 278.242341 212.379416 
L 278.520299 206.571839 
L 278.798257 173.662234 
L 279.076214 213.831311 
L 279.354172 198.183116 
L 279.63213 209.314306 
L 279.910087 204.205789 
L 280.188045 202.054834 
L 280.74396 215.874718 
L 281.021918 208.077507 
L 281.299875 205.872779 
L 281.577833 157.906491 
L 281.855791 202.323704 
L 282.133748 214.853014 
L 282.411706 211.411487 
L 282.689664 214.207728 
L 283.245579 206.0341 
L 283.523537 164.950868 
L 283.801494 211.088844 
L 284.079452 209.36808 
L 284.35741 212.271869 
L 284.635367 203.506729 
L 284.913325 217.326612 
L 285.191283 223.725702 
L 285.46924 222.596451 
L 285.747198 180.330193 
L 286.025156 198.720855 
L 286.303113 209.152984 
L 286.581071 207.163351 
L 286.859029 187.589665 
L 287.136986 188.396273 
L 287.414944 215.444527 
L 287.692902 215.229431 
L 287.970859 211.196391 
L 288.248817 212.325642 
L 288.526775 210.336009 
L 288.804732 213.186024 
L 289.08269 212.917155 
L 289.360648 161.025375 
L 289.638605 209.529402 
L 289.916563 215.06811 
L 290.194521 214.207728 
L 290.472478 209.852045 
L 290.750436 210.120914 
L 291.028394 210.228462 
L 291.306351 153.819678 
L 291.862267 207.270899 
L 292.140224 210.7662 
L 292.418182 210.819974 
L 292.696139 212.917155 
L 292.974097 200.656714 
L 293.252055 216.681326 
L 293.530012 186.944378 
L 293.80797 206.249196 
L 294.085928 213.992632 
L 294.363885 203.345407 
L 294.641843 187.858534 
L 294.919801 213.669989 
L 295.197758 220.122853 
L 295.475716 220.714365 
L 295.753674 220.49927 
L 296.309589 221.413426 
L 296.587547 220.660592 
L 296.865504 221.89739 
L 297.143462 189.202881 
L 297.42142 193.827433 
L 297.699377 206.733161 
L 297.977335 196.5699 
L 298.255293 179.254716 
L 298.53325 202.054834 
L 298.811208 206.518065 
L 299.089166 193.182147 
L 299.367123 211.142617 
L 299.645081 197.53783 
L 300.200996 218.294541 
L 300.478954 222.220034 
L 300.756912 220.284174 
L 301.034869 220.122853 
L 301.312827 221.89739 
L 301.590785 222.542677 
L 301.868742 221.736069 
L 302.1467 221.789843 
L 302.424658 172.748078 
L 302.702615 214.530371 
L 302.980573 215.552074 
L 303.258531 199.742558 
L 303.536488 206.0341 
L 303.814446 201.033131 
L 304.092403 185.600032 
L 304.370361 154.733833 
L 304.648319 199.581237 
L 304.926276 173.500912 
L 305.204234 203.184085 
L 305.482192 205.819005 
L 305.760149 193.666111 
L 306.038107 206.894482 
L 306.316065 184.12125 
L 306.594022 127.739353 
L 307.149938 209.421854 
L 307.427895 194.311398 
L 307.705853 209.36808 
L 307.983811 209.636949 
L 308.261768 206.087874 
L 308.539726 187.1057 
L 309.095641 210.336009 
L 309.373599 213.885085 
L 309.651557 209.421854 
L 309.929514 194.795363 
L 310.207472 172.586756 
L 310.48543 196.408578 
L 310.763387 164.681998 
L 311.041345 207.593542 
L 311.875218 198.613307 
L 312.153176 181.782087 
L 312.431133 211.572808 
L 312.709091 178.555655 
L 312.987049 200.764262 
L 313.265006 180.814158 
L 313.542964 201.785965 
L 313.820922 190.063262 
L 314.098879 188.288725 
L 314.376837 181.943409 
L 314.654795 148.0121 
L 315.21071 205.765231 
L 315.488667 187.858534 
L 315.766625 193.50479 
L 316.044583 194.634041 
L 316.32254 138.709221 
L 316.600498 153.927225 
L 316.878456 180.034437 
L 317.434371 199.581237 
L 317.712329 197.672264 
L 317.990286 151.023437 
L 318.268244 175.490545 
L 318.546202 174.253746 
L 318.824159 188.127403 
L 319.102117 193.343468 
L 319.380075 189.364202 
L 319.658032 195.279327 
L 319.93599 173.070721 
L 320.213948 191.542044 
L 320.491905 144.94699 
L 320.769863 192.967051 
L 321.047821 189.848167 
L 321.325778 194.580267 
L 321.603736 189.149107 
L 322.159651 225.876656 
L 322.437609 194.096302 
L 322.715567 139.569603 
L 322.993524 203.775598 
L 323.54944 191.730252 
L 323.827397 200.60294 
L 324.105355 146.560206 
L 324.383313 177.426404 
L 324.66127 195.924614 
L 324.939228 182.3736 
L 325.217186 195.440649 
L 325.495143 187.374569 
L 325.773101 162.961235 
L 326.051059 170.220706 
L 326.329016 157.960265 
L 326.606974 199.90388 
L 326.884932 190.117036 
L 327.162889 190.439679 
L 327.440847 192.644408 
L 327.718804 190.923644 
L 327.996762 177.103761 
L 328.27472 178.179238 
L 328.552677 163.87539 
L 328.830635 198.505759 
L 329.108593 180.00755 
L 329.38655 187.80476 
L 329.942466 160.057446 
L 330.220423 175.813188 
L 330.498381 197.914247 
L 330.776339 192.859503 
L 331.054296 198.828402 
L 331.332254 188.611368 
L 331.610212 195.817066 
L 331.888169 186.352866 
L 332.166127 138.709221 
L 332.444085 161.401792 
L 333 178.609429 
L 333.277958 165.918797 
L 333.555915 161.85887 
L 333.833873 178.878299 
L 334.111831 174.361294 
L 334.389788 166.295214 
L 334.667746 114.349661 
L 334.945704 182.212278 
L 335.223661 159.089516 
L 335.501619 153.846564 
L 335.779577 150.969663 
L 336.057534 125.346416 
L 336.335492 173.984877 
L 336.61345 149.625316 
L 336.891407 169.951837 
L 337.169365 166.994274 
L 337.447323 161.401792 
L 337.72528 132.632775 
L 338.003238 131.342202 
L 338.281196 171.349957 
L 338.559153 179.362263 
L 338.837111 177.802821 
L 339.115068 170.704671 
L 339.393026 126.986519 
L 339.670984 208.292603 
L 339.948941 223.725702 
L 340.226899 214.530371 
L 340.504857 209.421854 
L 340.782814 212.486964 
L 341.060772 218.13322 
L 341.33873 217.43416 
L 341.616687 212.863381 
L 341.894645 109.133596 
L 342.172603 171.833922 
L 342.45056 189.041559 
L 343.006476 171.296184 
L 343.284433 197.860473 
L 343.562391 205.872779 
L 343.840349 175.060354 
L 344.118306 184.094363 
L 344.396264 202.861442 
L 344.674222 185.116067 
L 344.952179 146.829075 
L 345.230137 144.516799 
L 345.508095 181.136801 
L 345.786052 172.210339 
L 346.06401 171.134862 
L 346.341968 169.037681 
L 346.619925 164.466903 
L 346.897883 173.984877 
L 347.175841 163.445199 
L 347.453798 123.38367 
L 348.009714 190.385906 
L 348.287671 183.395303 
L 348.565629 187.213248 
L 348.843587 181.190575 
L 349.121544 193.23592 
L 349.399502 119.780821 
L 349.955417 192.429312 
L 350.233375 176.189605 
L 350.511333 173.60846 
L 350.78929 178.663203 
L 351.067248 172.102792 
L 351.345205 144.731894 
L 351.623163 194.150076 
L 351.901121 178.179238 
L 352.179078 180.814158 
L 352.457036 185.600032 
L 352.734994 178.448108 
L 353.012951 158.390456 
L 353.290909 242.116364 
L 353.568867 110.961907 
L 353.846824 179.577359 
L 354.124782 183.556625 
L 354.40274 178.609429 
L 354.680697 186.890604 
L 354.958655 183.556625 
L 355.236613 182.803791 
L 355.51457 120.910072 
L 355.792528 180.70661 
L 356.070486 184.39012 
L 356.348443 180.383967 
L 356.626401 187.858534 
L 356.904359 150.539472 
L 357.182316 188.934011 
L 357.460274 172.532982 
L 357.738232 171.24241 
L 358.016189 187.858534 
L 358.294147 176.619796 
L 358.572105 155.432893 
L 358.850062 189.47175 
L 359.12802 195.87084 
L 359.405978 180.652836 
L 359.683935 179.846228 
L 359.961893 158.175361 
L 360.239851 177.265083 
L 360.517808 119.404404 
L 360.795766 181.566992 
L 361.073724 182.750017 
L 361.351681 195.333101 
L 361.629639 182.534921 
L 361.907597 192.913277 
L 362.185554 186.352866 
L 362.463512 185.331162 
L 362.741469 125.964816 
L 363.019427 179.200942 
L 363.297385 203.237859 
L 363.575342 186.944378 
L 364.131258 198.828402 
L 364.409215 196.193483 
L 364.687173 147.097944 
L 364.965131 161.50934 
L 365.243088 183.287755 
L 365.521046 177.103761 
L 365.799004 193.827433 
L 366.076961 191.622705 
L 366.354919 194.472719 
L 366.632877 157.099883 
L 366.910834 201.517096 
L 367.188792 205.119945 
L 367.46675 198.667081 
L 367.744707 196.731222 
L 368.300623 183.77172 
L 368.57858 143.226226 
L 368.856538 199.796332 
L 369.134496 195.225553 
L 369.412453 185.277388 
L 369.968369 198.290664 
L 370.246326 192.590634 
L 370.524284 137.687518 
L 370.802242 198.828402 
L 371.080199 193.289694 
L 371.358157 197.510943 
L 371.636115 195.494423 
L 371.914072 195.978388 
L 372.19203 195.494423 
L 372.469988 140.322437 
L 372.747945 205.066171 
L 373.025903 207.00203 
L 373.303861 197.107639 
L 373.581818 199.043498 
L 373.581818 199.043498 
" style="fill:none;stroke:#000000;stroke-linecap:square;stroke-width:1.5;"/>
   </g>
   <g id="patch_3">
    <path d="M 54 252 
L 54 34.56 
" style="fill:none;stroke:#000000;stroke-linecap:square;stroke-linejoin:miter;stroke-width:0.8;"/>
   </g>
   <g id="patch_4">
    <path d="M 388.8 252 
L 388.8 34.56 
" style="fill:none;stroke:#000000;stroke-linecap:square;stroke-linejoin:miter;stroke-width:0.8;"/>
   </g>
   <g id="patch_5">
    <path d="M 54 252 
L 388.8 252 
" style="fill:none;stroke:#000000;stroke-linecap:square;stroke-linejoin:miter;stroke-width:0.8;"/>
   </g>
   <g id="patch_6">
    <path d="M 54 34.56 
L 388.8 34.56 
" style="fill:none;stroke:#000000;stroke-linecap:square;stroke-linejoin:miter;stroke-width:0.8;"/>
   </g>
   <g id="text_19">
    <!-- Soma Diária de Energia - Casa 24 -->
    <g transform="translate(120.413438 28.56)scale(0.12 -0.12)">
     <defs>
      <path d="M 53.515625 70.515625 
L 53.515625 60.890625 
Q 47.90625 63.578125 42.921875 64.890625 
Q 37.9375 66.21875 33.296875 66.21875 
Q 25.25 66.21875 20.875 63.09375 
Q 16.5 59.96875 16.5 54.203125 
Q 16.5 49.359375 19.40625 46.890625 
Q 22.3125 44.4375 30.421875 42.921875 
L 36.375 41.703125 
Q 47.40625 39.59375 52.65625 34.296875 
Q 57.90625 29 57.90625 20.125 
Q 57.90625 9.515625 50.796875 4.046875 
Q 43.703125 -1.421875 29.984375 -1.421875 
Q 24.8125 -1.421875 18.96875 -0.25 
Q 13.140625 0.921875 6.890625 3.21875 
L 6.890625 13.375 
Q 12.890625 10.015625 18.65625 8.296875 
Q 24.421875 6.59375 29.984375 6.59375 
Q 38.421875 6.59375 43.015625 9.90625 
Q 47.609375 13.234375 47.609375 19.390625 
Q 47.609375 24.75 44.3125 27.78125 
Q 41.015625 30.8125 33.5 32.328125 
L 27.484375 33.5 
Q 16.453125 35.6875 11.515625 40.375 
Q 6.59375 45.0625 6.59375 53.421875 
Q 6.59375 63.09375 13.40625 68.65625 
Q 20.21875 74.21875 32.171875 74.21875 
Q 37.3125 74.21875 42.625 73.28125 
Q 47.953125 72.359375 53.515625 70.515625 
z
" id="DejaVuSans-83"/>
      <path d="M 30.609375 48.390625 
Q 23.390625 48.390625 19.1875 42.75 
Q 14.984375 37.109375 14.984375 27.296875 
Q 14.984375 17.484375 19.15625 11.84375 
Q 23.34375 6.203125 30.609375 6.203125 
Q 37.796875 6.203125 41.984375 11.859375 
Q 46.1875 17.53125 46.1875 27.296875 
Q 46.1875 37.015625 41.984375 42.703125 
Q 37.796875 48.390625 30.609375 48.390625 
z
M 30.609375 56 
Q 42.328125 56 49.015625 48.375 
Q 55.71875 40.765625 55.71875 27.296875 
Q 55.71875 13.875 49.015625 6.21875 
Q 42.328125 -1.421875 30.609375 -1.421875 
Q 18.84375 -1.421875 12.171875 6.21875 
Q 5.515625 13.875 5.515625 27.296875 
Q 5.515625 40.765625 12.171875 48.375 
Q 18.84375 56 30.609375 56 
z
" id="DejaVuSans-111"/>
      <path d="M 52 44.1875 
Q 55.375 50.25 60.0625 53.125 
Q 64.75 56 71.09375 56 
Q 79.640625 56 84.28125 50.015625 
Q 88.921875 44.046875 88.921875 33.015625 
L 88.921875 0 
L 79.890625 0 
L 79.890625 32.71875 
Q 79.890625 40.578125 77.09375 44.375 
Q 74.3125 48.1875 68.609375 48.1875 
Q 61.625 48.1875 57.5625 43.546875 
Q 53.515625 38.921875 53.515625 30.90625 
L 53.515625 0 
L 44.484375 0 
L 44.484375 32.71875 
Q 44.484375 40.625 41.703125 44.40625 
Q 38.921875 48.1875 33.109375 48.1875 
Q 26.21875 48.1875 22.15625 43.53125 
Q 18.109375 38.875 18.109375 30.90625 
L 18.109375 0 
L 9.078125 0 
L 9.078125 54.6875 
L 18.109375 54.6875 
L 18.109375 46.1875 
Q 21.1875 51.21875 25.484375 53.609375 
Q 29.78125 56 35.6875 56 
Q 41.65625 56 45.828125 52.96875 
Q 50 49.953125 52 44.1875 
z
" id="DejaVuSans-109"/>
      <path d="M 34.28125 27.484375 
Q 23.390625 27.484375 19.1875 25 
Q 14.984375 22.515625 14.984375 16.5 
Q 14.984375 11.71875 18.140625 8.90625 
Q 21.296875 6.109375 26.703125 6.109375 
Q 34.1875 6.109375 38.703125 11.40625 
Q 43.21875 16.703125 43.21875 25.484375 
L 43.21875 27.484375 
z
M 52.203125 31.203125 
L 52.203125 0 
L 43.21875 0 
L 43.21875 8.296875 
Q 40.140625 3.328125 35.546875 0.953125 
Q 30.953125 -1.421875 24.3125 -1.421875 
Q 15.921875 -1.421875 10.953125 3.296875 
Q 6 8.015625 6 15.921875 
Q 6 25.140625 12.171875 29.828125 
Q 18.359375 34.515625 30.609375 34.515625 
L 43.21875 34.515625 
L 43.21875 35.40625 
Q 43.21875 41.609375 39.140625 45 
Q 35.0625 48.390625 27.6875 48.390625 
Q 23 48.390625 18.546875 47.265625 
Q 14.109375 46.140625 10.015625 43.890625 
L 10.015625 52.203125 
Q 14.9375 54.109375 19.578125 55.046875 
Q 24.21875 56 28.609375 56 
Q 40.484375 56 46.34375 49.84375 
Q 52.203125 43.703125 52.203125 31.203125 
z
" id="DejaVuSans-97"/>
      <path id="DejaVuSans-32"/>
      <path d="M 19.671875 64.796875 
L 19.671875 8.109375 
L 31.59375 8.109375 
Q 46.6875 8.109375 53.6875 14.9375 
Q 60.6875 21.78125 60.6875 36.53125 
Q 60.6875 51.171875 53.6875 57.984375 
Q 46.6875 64.796875 31.59375 64.796875 
z
M 9.8125 72.90625 
L 30.078125 72.90625 
Q 51.265625 72.90625 61.171875 64.09375 
Q 71.09375 55.28125 71.09375 36.53125 
Q 71.09375 17.671875 61.125 8.828125 
Q 51.171875 0 30.078125 0 
L 9.8125 0 
z
" id="DejaVuSans-68"/>
      <path d="M 9.421875 54.6875 
L 18.40625 54.6875 
L 18.40625 0 
L 9.421875 0 
z
M 9.421875 75.984375 
L 18.40625 75.984375 
L 18.40625 64.59375 
L 9.421875 64.59375 
z
" id="DejaVuSans-105"/>
      <path d="M 34.28125 27.484375 
Q 23.390625 27.484375 19.1875 25 
Q 14.984375 22.515625 14.984375 16.5 
Q 14.984375 11.71875 18.140625 8.90625 
Q 21.296875 6.109375 26.703125 6.109375 
Q 34.1875 6.109375 38.703125 11.40625 
Q 43.21875 16.703125 43.21875 25.484375 
L 43.21875 27.484375 
z
M 52.203125 31.203125 
L 52.203125 0 
L 43.21875 0 
L 43.21875 8.296875 
Q 40.140625 3.328125 35.546875 0.953125 
Q 30.953125 -1.421875 24.3125 -1.421875 
Q 15.921875 -1.421875 10.953125 3.296875 
Q 6 8.015625 6 15.921875 
Q 6 25.140625 12.171875 29.828125 
Q 18.359375 34.515625 30.609375 34.515625 
L 43.21875 34.515625 
L 43.21875 35.40625 
Q 43.21875 41.609375 39.140625 45 
Q 35.0625 48.390625 27.6875 48.390625 
Q 23 48.390625 18.546875 47.265625 
Q 14.109375 46.140625 10.015625 43.890625 
L 10.015625 52.203125 
Q 14.9375 54.109375 19.578125 55.046875 
Q 24.21875 56 28.609375 56 
Q 40.484375 56 46.34375 49.84375 
Q 52.203125 43.703125 52.203125 31.203125 
z
M 35.796875 79.984375 
L 45.515625 79.984375 
L 29.59375 61.625 
L 22.125 61.625 
z
" id="DejaVuSans-225"/>
      <path d="M 41.109375 46.296875 
Q 39.59375 47.171875 37.8125 47.578125 
Q 36.03125 48 33.890625 48 
Q 26.265625 48 22.1875 43.046875 
Q 18.109375 38.09375 18.109375 28.8125 
L 18.109375 0 
L 9.078125 0 
L 9.078125 54.6875 
L 18.109375 54.6875 
L 18.109375 46.1875 
Q 20.953125 51.171875 25.484375 53.578125 
Q 30.03125 56 36.53125 56 
Q 37.453125 56 38.578125 55.875 
Q 39.703125 55.765625 41.0625 55.515625 
z
" id="DejaVuSans-114"/>
      <path d="M 45.40625 46.390625 
L 45.40625 75.984375 
L 54.390625 75.984375 
L 54.390625 0 
L 45.40625 0 
L 45.40625 8.203125 
Q 42.578125 3.328125 38.25 0.953125 
Q 33.9375 -1.421875 27.875 -1.421875 
Q 17.96875 -1.421875 11.734375 6.484375 
Q 5.515625 14.40625 5.515625 27.296875 
Q 5.515625 40.1875 11.734375 48.09375 
Q 17.96875 56 27.875 56 
Q 33.9375 56 38.25 53.625 
Q 42.578125 51.265625 45.40625 46.390625 
z
M 14.796875 27.296875 
Q 14.796875 17.390625 18.875 11.75 
Q 22.953125 6.109375 30.078125 6.109375 
Q 37.203125 6.109375 41.296875 11.75 
Q 45.40625 17.390625 45.40625 27.296875 
Q 45.40625 37.203125 41.296875 42.84375 
Q 37.203125 48.484375 30.078125 48.484375 
Q 22.953125 48.484375 18.875 42.84375 
Q 14.796875 37.203125 14.796875 27.296875 
z
" id="DejaVuSans-100"/>
      <path d="M 56.203125 29.59375 
L 56.203125 25.203125 
L 14.890625 25.203125 
Q 15.484375 15.921875 20.484375 11.0625 
Q 25.484375 6.203125 34.421875 6.203125 
Q 39.59375 6.203125 44.453125 7.46875 
Q 49.3125 8.734375 54.109375 11.28125 
L 54.109375 2.78125 
Q 49.265625 0.734375 44.1875 -0.34375 
Q 39.109375 -1.421875 33.890625 -1.421875 
Q 20.796875 -1.421875 13.15625 6.1875 
Q 5.515625 13.8125 5.515625 26.8125 
Q 5.515625 40.234375 12.765625 48.109375 
Q 20.015625 56 32.328125 56 
Q 43.359375 56 49.78125 48.890625 
Q 56.203125 41.796875 56.203125 29.59375 
z
M 47.21875 32.234375 
Q 47.125 39.59375 43.09375 43.984375 
Q 39.0625 48.390625 32.421875 48.390625 
Q 24.90625 48.390625 20.390625 44.140625 
Q 15.875 39.890625 15.1875 32.171875 
z
" id="DejaVuSans-101"/>
      <path d="M 9.8125 72.90625 
L 55.90625 72.90625 
L 55.90625 64.59375 
L 19.671875 64.59375 
L 19.671875 43.015625 
L 54.390625 43.015625 
L 54.390625 34.71875 
L 19.671875 34.71875 
L 19.671875 8.296875 
L 56.78125 8.296875 
L 56.78125 0 
L 9.8125 0 
z
" id="DejaVuSans-69"/>
      <path d="M 54.890625 33.015625 
L 54.890625 0 
L 45.90625 0 
L 45.90625 32.71875 
Q 45.90625 40.484375 42.875 44.328125 
Q 39.84375 48.1875 33.796875 48.1875 
Q 26.515625 48.1875 22.3125 43.546875 
Q 18.109375 38.921875 18.109375 30.90625 
L 18.109375 0 
L 9.078125 0 
L 9.078125 54.6875 
L 18.109375 54.6875 
L 18.109375 46.1875 
Q 21.34375 51.125 25.703125 53.5625 
Q 30.078125 56 35.796875 56 
Q 45.21875 56 50.046875 50.171875 
Q 54.890625 44.34375 54.890625 33.015625 
z
" id="DejaVuSans-110"/>
      <path d="M 45.40625 27.984375 
Q 45.40625 37.75 41.375 43.109375 
Q 37.359375 48.484375 30.078125 48.484375 
Q 22.859375 48.484375 18.828125 43.109375 
Q 14.796875 37.75 14.796875 27.984375 
Q 14.796875 18.265625 18.828125 12.890625 
Q 22.859375 7.515625 30.078125 7.515625 
Q 37.359375 7.515625 41.375 12.890625 
Q 45.40625 18.265625 45.40625 27.984375 
z
M 54.390625 6.78125 
Q 54.390625 -7.171875 48.1875 -13.984375 
Q 42 -20.796875 29.203125 -20.796875 
Q 24.46875 -20.796875 20.265625 -20.09375 
Q 16.0625 -19.390625 12.109375 -17.921875 
L 12.109375 -9.1875 
Q 16.0625 -11.328125 19.921875 -12.34375 
Q 23.78125 -13.375 27.78125 -13.375 
Q 36.625 -13.375 41.015625 -8.765625 
Q 45.40625 -4.15625 45.40625 5.171875 
L 45.40625 9.625 
Q 42.625 4.78125 38.28125 2.390625 
Q 33.9375 0 27.875 0 
Q 17.828125 0 11.671875 7.65625 
Q 5.515625 15.328125 5.515625 27.984375 
Q 5.515625 40.671875 11.671875 48.328125 
Q 17.828125 56 27.875 56 
Q 33.9375 56 38.28125 53.609375 
Q 42.625 51.21875 45.40625 46.390625 
L 45.40625 54.6875 
L 54.390625 54.6875 
z
" id="DejaVuSans-103"/>
      <path d="M 64.40625 67.28125 
L 64.40625 56.890625 
Q 59.421875 61.53125 53.78125 63.8125 
Q 48.140625 66.109375 41.796875 66.109375 
Q 29.296875 66.109375 22.65625 58.46875 
Q 16.015625 50.828125 16.015625 36.375 
Q 16.015625 21.96875 22.65625 14.328125 
Q 29.296875 6.6875 41.796875 6.6875 
Q 48.140625 6.6875 53.78125 8.984375 
Q 59.421875 11.28125 64.40625 15.921875 
L 64.40625 5.609375 
Q 59.234375 2.09375 53.4375 0.328125 
Q 47.65625 -1.421875 41.21875 -1.421875 
Q 24.65625 -1.421875 15.125 8.703125 
Q 5.609375 18.84375 5.609375 36.375 
Q 5.609375 53.953125 15.125 64.078125 
Q 24.65625 74.21875 41.21875 74.21875 
Q 47.75 74.21875 53.53125 72.484375 
Q 59.328125 70.75 64.40625 67.28125 
z
" id="DejaVuSans-67"/>
      <path d="M 44.28125 53.078125 
L 44.28125 44.578125 
Q 40.484375 46.53125 36.375 47.5 
Q 32.28125 48.484375 27.875 48.484375 
Q 21.1875 48.484375 17.84375 46.4375 
Q 14.5 44.390625 14.5 40.28125 
Q 14.5 37.15625 16.890625 35.375 
Q 19.28125 33.59375 26.515625 31.984375 
L 29.59375 31.296875 
Q 39.15625 29.25 43.1875 25.515625 
Q 47.21875 21.78125 47.21875 15.09375 
Q 47.21875 7.46875 41.1875 3.015625 
Q 35.15625 -1.421875 24.609375 -1.421875 
Q 20.21875 -1.421875 15.453125 -0.5625 
Q 10.6875 0.296875 5.421875 2 
L 5.421875 11.28125 
Q 10.40625 8.6875 15.234375 7.390625 
Q 20.0625 6.109375 24.8125 6.109375 
Q 31.15625 6.109375 34.5625 8.28125 
Q 37.984375 10.453125 37.984375 14.40625 
Q 37.984375 18.0625 35.515625 20.015625 
Q 33.0625 21.96875 24.703125 23.78125 
L 21.578125 24.515625 
Q 13.234375 26.265625 9.515625 29.90625 
Q 5.8125 33.546875 5.8125 39.890625 
Q 5.8125 47.609375 11.28125 51.796875 
Q 16.75 56 26.8125 56 
Q 31.78125 56 36.171875 55.265625 
Q 40.578125 54.546875 44.28125 53.078125 
z
" id="DejaVuSans-115"/>
      <path d="M 37.796875 64.3125 
L 12.890625 25.390625 
L 37.796875 25.390625 
z
M 35.203125 72.90625 
L 47.609375 72.90625 
L 47.609375 25.390625 
L 58.015625 25.390625 
L 58.015625 17.1875 
L 47.609375 17.1875 
L 47.609375 0 
L 37.796875 0 
L 37.796875 17.1875 
L 4.890625 17.1875 
L 4.890625 26.703125 
z
" id="DejaVuSans-52"/>
     </defs>
     <use xlink:href="#DejaVuSans-83"/>
     <use x="63.476562" xlink:href="#DejaVuSans-111"/>
     <use x="124.658203" xlink:href="#DejaVuSans-109"/>
     <use x="222.070312" xlink:href="#DejaVuSans-97"/>
     <use x="283.349609" xlink:href="#DejaVuSans-32"/>
     <use x="315.136719" xlink:href="#DejaVuSans-68"/>
     <use x="392.138672" xlink:href="#DejaVuSans-105"/>
     <use x="419.921875" xlink:href="#DejaVuSans-225"/>
     <use x="481.201172" xlink:href="#DejaVuSans-114"/>
     <use x="522.314453" xlink:href="#DejaVuSans-105"/>
     <use x="550.097656" xlink:href="#DejaVuSans-97"/>
     <use x="611.376953" xlink:href="#DejaVuSans-32"/>
     <use x="643.164062" xlink:href="#DejaVuSans-100"/>
     <use x="706.640625" xlink:href="#DejaVuSans-101"/>
     <use x="768.164062" xlink:href="#DejaVuSans-32"/>
     <use x="799.951172" xlink:href="#DejaVuSans-69"/>
     <use x="863.134766" xlink:href="#DejaVuSans-110"/>
     <use x="926.513672" xlink:href="#DejaVuSans-101"/>
     <use x="988.037109" xlink:href="#DejaVuSans-114"/>
     <use x="1027.400391" xlink:href="#DejaVuSans-103"/>
     <use x="1090.876953" xlink:href="#DejaVuSans-105"/>
     <use x="1118.660156" xlink:href="#DejaVuSans-97"/>
     <use x="1179.939453" xlink:href="#DejaVuSans-32"/>
     <use x="1211.726562" xlink:href="#DejaVuSans-45"/>
     <use x="1247.810547" xlink:href="#DejaVuSans-32"/>
     <use x="1279.597656" xlink:href="#DejaVuSans-67"/>
     <use x="1349.421875" xlink:href="#DejaVuSans-97"/>
     <use x="1410.701172" xlink:href="#DejaVuSans-115"/>
     <use x="1462.800781" xlink:href="#DejaVuSans-97"/>
     <use x="1524.080078" xlink:href="#DejaVuSans-32"/>
     <use x="1555.867188" xlink:href="#DejaVuSans-50"/>
     <use x="1619.490234" xlink:href="#DejaVuSans-52"/>
    </g>
   </g>
  </g>
 </g>
 <defs>
  <clipPath id="p71c9179134">
   <rect height="217.44" width="334.8" x="54" y="34.56"/>
  </clipPath>
 </defs>
</svg>
