<?xml version="1.0" encoding="utf-8" standalone="no"?>
<!DOCTYPE svg PUBLIC "-//W3C//DTD SVG 1.1//EN"
  "http://www.w3.org/Graphics/SVG/1.1/DTD/svg11.dtd">
<!-- Created with matplotlib (https://matplotlib.org/) -->
<svg height="356.480877pt" version="1.1" viewBox="0 0 608.98125 356.480877" width="608.98125pt" xmlns="http://www.w3.org/2000/svg" xmlns:xlink="http://www.w3.org/1999/xlink">
 <metadata>
  <rdf:RDF xmlns:cc="http://creativecommons.org/ns#" xmlns:dc="http://purl.org/dc/elements/1.1/" xmlns:rdf="http://www.w3.org/1999/02/22-rdf-syntax-ns#">
   <cc:Work>
    <dc:type rdf:resource="http://purl.org/dc/dcmitype/StillImage"/>
    <dc:date>2021-08-12T17:21:15.752412</dc:date>
    <dc:format>image/svg+xml</dc:format>
    <dc:creator>
     <cc:Agent>
      <dc:title>Matplotlib v3.3.4, https://matplotlib.org/</dc:title>
     </cc:Agent>
    </dc:creator>
   </cc:Work>
  </rdf:RDF>
 </metadata>
 <defs>
  <style type="text/css">*{stroke-linecap:butt;stroke-linejoin:round;}</style>
 </defs>
 <g id="figure_1">
  <g id="patch_1">
   <path d="M 0 356.480877 
L 608.98125 356.480877 
L 608.98125 0 
L 0 0 
z
" style="fill:#ffffff;"/>
  </g>
  <g id="axes_1">
   <g id="patch_2">
    <path d="M 43.78125 267.118125 
L 601.78125 267.118125 
L 601.78125 22.318125 
L 43.78125 22.318125 
z
" style="fill:#ffffff;"/>
   </g>
   <g id="matplotlib.axis_1">
    <g id="xtick_1">
     <g id="line2d_1">
      <defs>
       <path d="M 0 0 
L 0 3.5 
" id="mf91eb8c9e8" style="stroke:#000000;stroke-width:0.8;"/>
      </defs>
      <g>
       <use style="stroke:#000000;stroke-width:0.8;" x="55.64709" xlink:href="#mf91eb8c9e8" y="267.118125"/>
      </g>
     </g>
    </g>
    <g id="xtick_2">
     <g id="line2d_2">
      <g>
       <use style="stroke:#000000;stroke-width:0.8;" x="119.1101" xlink:href="#mf91eb8c9e8" y="267.118125"/>
      </g>
     </g>
     <g id="text_1">
      <!-- 2020-03-30 15:00:00 -->
      <g transform="translate(26.092945 333.80169)rotate(-30)scale(0.1 -0.1)">
       <defs>
        <path d="M 19.1875 8.296875 
L 53.609375 8.296875 
L 53.609375 0 
L 7.328125 0 
L 7.328125 8.296875 
Q 12.9375 14.109375 22.625 23.890625 
Q 32.328125 33.6875 34.8125 36.53125 
Q 39.546875 41.84375 41.421875 45.53125 
Q 43.3125 49.21875 43.3125 52.78125 
Q 43.3125 58.59375 39.234375 62.25 
Q 35.15625 65.921875 28.609375 65.921875 
Q 23.96875 65.921875 18.8125 64.3125 
Q 13.671875 62.703125 7.8125 59.421875 
L 7.8125 69.390625 
Q 13.765625 71.78125 18.9375 73 
Q 24.125 74.21875 28.421875 74.21875 
Q 39.75 74.21875 46.484375 68.546875 
Q 53.21875 62.890625 53.21875 53.421875 
Q 53.21875 48.921875 51.53125 44.890625 
Q 49.859375 40.875 45.40625 35.40625 
Q 44.1875 33.984375 37.640625 27.21875 
Q 31.109375 20.453125 19.1875 8.296875 
z
" id="DejaVuSans-50"/>
        <path d="M 31.78125 66.40625 
Q 24.171875 66.40625 20.328125 58.90625 
Q 16.5 51.421875 16.5 36.375 
Q 16.5 21.390625 20.328125 13.890625 
Q 24.171875 6.390625 31.78125 6.390625 
Q 39.453125 6.390625 43.28125 13.890625 
Q 47.125 21.390625 47.125 36.375 
Q 47.125 51.421875 43.28125 58.90625 
Q 39.453125 66.40625 31.78125 66.40625 
z
M 31.78125 74.21875 
Q 44.046875 74.21875 50.515625 64.515625 
Q 56.984375 54.828125 56.984375 36.375 
Q 56.984375 17.96875 50.515625 8.265625 
Q 44.046875 -1.421875 31.78125 -1.421875 
Q 19.53125 -1.421875 13.0625 8.265625 
Q 6.59375 17.96875 6.59375 36.375 
Q 6.59375 54.828125 13.0625 64.515625 
Q 19.53125 74.21875 31.78125 74.21875 
z
" id="DejaVuSans-48"/>
        <path d="M 4.890625 31.390625 
L 31.203125 31.390625 
L 31.203125 23.390625 
L 4.890625 23.390625 
z
" id="DejaVuSans-45"/>
        <path d="M 40.578125 39.3125 
Q 47.65625 37.796875 51.625 33 
Q 55.609375 28.21875 55.609375 21.1875 
Q 55.609375 10.40625 48.1875 4.484375 
Q 40.765625 -1.421875 27.09375 -1.421875 
Q 22.515625 -1.421875 17.65625 -0.515625 
Q 12.796875 0.390625 7.625 2.203125 
L 7.625 11.71875 
Q 11.71875 9.328125 16.59375 8.109375 
Q 21.484375 6.890625 26.8125 6.890625 
Q 36.078125 6.890625 40.9375 10.546875 
Q 45.796875 14.203125 45.796875 21.1875 
Q 45.796875 27.640625 41.28125 31.265625 
Q 36.765625 34.90625 28.71875 34.90625 
L 20.21875 34.90625 
L 20.21875 43.015625 
L 29.109375 43.015625 
Q 36.375 43.015625 40.234375 45.921875 
Q 44.09375 48.828125 44.09375 54.296875 
Q 44.09375 59.90625 40.109375 62.90625 
Q 36.140625 65.921875 28.71875 65.921875 
Q 24.65625 65.921875 20.015625 65.03125 
Q 15.375 64.15625 9.8125 62.3125 
L 9.8125 71.09375 
Q 15.4375 72.65625 20.34375 73.4375 
Q 25.25 74.21875 29.59375 74.21875 
Q 40.828125 74.21875 47.359375 69.109375 
Q 53.90625 64.015625 53.90625 55.328125 
Q 53.90625 49.265625 50.4375 45.09375 
Q 46.96875 40.921875 40.578125 39.3125 
z
" id="DejaVuSans-51"/>
        <path id="DejaVuSans-32"/>
        <path d="M 12.40625 8.296875 
L 28.515625 8.296875 
L 28.515625 63.921875 
L 10.984375 60.40625 
L 10.984375 69.390625 
L 28.421875 72.90625 
L 38.28125 72.90625 
L 38.28125 8.296875 
L 54.390625 8.296875 
L 54.390625 0 
L 12.40625 0 
z
" id="DejaVuSans-49"/>
        <path d="M 10.796875 72.90625 
L 49.515625 72.90625 
L 49.515625 64.59375 
L 19.828125 64.59375 
L 19.828125 46.734375 
Q 21.96875 47.46875 24.109375 47.828125 
Q 26.265625 48.1875 28.421875 48.1875 
Q 40.625 48.1875 47.75 41.5 
Q 54.890625 34.8125 54.890625 23.390625 
Q 54.890625 11.625 47.5625 5.09375 
Q 40.234375 -1.421875 26.90625 -1.421875 
Q 22.3125 -1.421875 17.546875 -0.640625 
Q 12.796875 0.140625 7.71875 1.703125 
L 7.71875 11.625 
Q 12.109375 9.234375 16.796875 8.0625 
Q 21.484375 6.890625 26.703125 6.890625 
Q 35.15625 6.890625 40.078125 11.328125 
Q 45.015625 15.765625 45.015625 23.390625 
Q 45.015625 31 40.078125 35.4375 
Q 35.15625 39.890625 26.703125 39.890625 
Q 22.75 39.890625 18.8125 39.015625 
Q 14.890625 38.140625 10.796875 36.28125 
z
" id="DejaVuSans-53"/>
        <path d="M 11.71875 12.40625 
L 22.015625 12.40625 
L 22.015625 0 
L 11.71875 0 
z
M 11.71875 51.703125 
L 22.015625 51.703125 
L 22.015625 39.3125 
L 11.71875 39.3125 
z
" id="DejaVuSans-58"/>
       </defs>
       <use xlink:href="#DejaVuSans-50"/>
       <use x="63.623047" xlink:href="#DejaVuSans-48"/>
       <use x="127.246094" xlink:href="#DejaVuSans-50"/>
       <use x="190.869141" xlink:href="#DejaVuSans-48"/>
       <use x="254.492188" xlink:href="#DejaVuSans-45"/>
       <use x="290.576172" xlink:href="#DejaVuSans-48"/>
       <use x="354.199219" xlink:href="#DejaVuSans-51"/>
       <use x="417.822266" xlink:href="#DejaVuSans-45"/>
       <use x="453.90625" xlink:href="#DejaVuSans-51"/>
       <use x="517.529297" xlink:href="#DejaVuSans-48"/>
       <use x="581.152344" xlink:href="#DejaVuSans-32"/>
       <use x="612.939453" xlink:href="#DejaVuSans-49"/>
       <use x="676.5625" xlink:href="#DejaVuSans-53"/>
       <use x="740.185547" xlink:href="#DejaVuSans-58"/>
       <use x="773.876953" xlink:href="#DejaVuSans-48"/>
       <use x="837.5" xlink:href="#DejaVuSans-48"/>
       <use x="901.123047" xlink:href="#DejaVuSans-58"/>
       <use x="934.814453" xlink:href="#DejaVuSans-48"/>
       <use x="998.4375" xlink:href="#DejaVuSans-48"/>
      </g>
     </g>
    </g>
    <g id="xtick_3">
     <g id="line2d_3">
      <g>
       <use style="stroke:#000000;stroke-width:0.8;" x="182.57311" xlink:href="#mf91eb8c9e8" y="267.118125"/>
      </g>
     </g>
     <g id="text_2">
      <!-- 2020-04-05 18:00:00 -->
      <g transform="translate(89.555956 333.80169)rotate(-30)scale(0.1 -0.1)">
       <defs>
        <path d="M 37.796875 64.3125 
L 12.890625 25.390625 
L 37.796875 25.390625 
z
M 35.203125 72.90625 
L 47.609375 72.90625 
L 47.609375 25.390625 
L 58.015625 25.390625 
L 58.015625 17.1875 
L 47.609375 17.1875 
L 47.609375 0 
L 37.796875 0 
L 37.796875 17.1875 
L 4.890625 17.1875 
L 4.890625 26.703125 
z
" id="DejaVuSans-52"/>
        <path d="M 31.78125 34.625 
Q 24.75 34.625 20.71875 30.859375 
Q 16.703125 27.09375 16.703125 20.515625 
Q 16.703125 13.921875 20.71875 10.15625 
Q 24.75 6.390625 31.78125 6.390625 
Q 38.8125 6.390625 42.859375 10.171875 
Q 46.921875 13.96875 46.921875 20.515625 
Q 46.921875 27.09375 42.890625 30.859375 
Q 38.875 34.625 31.78125 34.625 
z
M 21.921875 38.8125 
Q 15.578125 40.375 12.03125 44.71875 
Q 8.5 49.078125 8.5 55.328125 
Q 8.5 64.0625 14.71875 69.140625 
Q 20.953125 74.21875 31.78125 74.21875 
Q 42.671875 74.21875 48.875 69.140625 
Q 55.078125 64.0625 55.078125 55.328125 
Q 55.078125 49.078125 51.53125 44.71875 
Q 48 40.375 41.703125 38.8125 
Q 48.828125 37.15625 52.796875 32.3125 
Q 56.78125 27.484375 56.78125 20.515625 
Q 56.78125 9.90625 50.3125 4.234375 
Q 43.84375 -1.421875 31.78125 -1.421875 
Q 19.734375 -1.421875 13.25 4.234375 
Q 6.78125 9.90625 6.78125 20.515625 
Q 6.78125 27.484375 10.78125 32.3125 
Q 14.796875 37.15625 21.921875 38.8125 
z
M 18.3125 54.390625 
Q 18.3125 48.734375 21.84375 45.5625 
Q 25.390625 42.390625 31.78125 42.390625 
Q 38.140625 42.390625 41.71875 45.5625 
Q 45.3125 48.734375 45.3125 54.390625 
Q 45.3125 60.0625 41.71875 63.234375 
Q 38.140625 66.40625 31.78125 66.40625 
Q 25.390625 66.40625 21.84375 63.234375 
Q 18.3125 60.0625 18.3125 54.390625 
z
" id="DejaVuSans-56"/>
       </defs>
       <use xlink:href="#DejaVuSans-50"/>
       <use x="63.623047" xlink:href="#DejaVuSans-48"/>
       <use x="127.246094" xlink:href="#DejaVuSans-50"/>
       <use x="190.869141" xlink:href="#DejaVuSans-48"/>
       <use x="254.492188" xlink:href="#DejaVuSans-45"/>
       <use x="290.576172" xlink:href="#DejaVuSans-48"/>
       <use x="354.199219" xlink:href="#DejaVuSans-52"/>
       <use x="417.822266" xlink:href="#DejaVuSans-45"/>
       <use x="453.90625" xlink:href="#DejaVuSans-48"/>
       <use x="517.529297" xlink:href="#DejaVuSans-53"/>
       <use x="581.152344" xlink:href="#DejaVuSans-32"/>
       <use x="612.939453" xlink:href="#DejaVuSans-49"/>
       <use x="676.5625" xlink:href="#DejaVuSans-56"/>
       <use x="740.185547" xlink:href="#DejaVuSans-58"/>
       <use x="773.876953" xlink:href="#DejaVuSans-48"/>
       <use x="837.5" xlink:href="#DejaVuSans-48"/>
       <use x="901.123047" xlink:href="#DejaVuSans-58"/>
       <use x="934.814453" xlink:href="#DejaVuSans-48"/>
       <use x="998.4375" xlink:href="#DejaVuSans-48"/>
      </g>
     </g>
    </g>
    <g id="xtick_4">
     <g id="line2d_4">
      <g>
       <use style="stroke:#000000;stroke-width:0.8;" x="246.03612" xlink:href="#mf91eb8c9e8" y="267.118125"/>
      </g>
     </g>
     <g id="text_3">
      <!-- 2020-04-11 21:00:00 -->
      <g transform="translate(153.018966 333.80169)rotate(-30)scale(0.1 -0.1)">
       <use xlink:href="#DejaVuSans-50"/>
       <use x="63.623047" xlink:href="#DejaVuSans-48"/>
       <use x="127.246094" xlink:href="#DejaVuSans-50"/>
       <use x="190.869141" xlink:href="#DejaVuSans-48"/>
       <use x="254.492188" xlink:href="#DejaVuSans-45"/>
       <use x="290.576172" xlink:href="#DejaVuSans-48"/>
       <use x="354.199219" xlink:href="#DejaVuSans-52"/>
       <use x="417.822266" xlink:href="#DejaVuSans-45"/>
       <use x="453.90625" xlink:href="#DejaVuSans-49"/>
       <use x="517.529297" xlink:href="#DejaVuSans-49"/>
       <use x="581.152344" xlink:href="#DejaVuSans-32"/>
       <use x="612.939453" xlink:href="#DejaVuSans-50"/>
       <use x="676.5625" xlink:href="#DejaVuSans-49"/>
       <use x="740.185547" xlink:href="#DejaVuSans-58"/>
       <use x="773.876953" xlink:href="#DejaVuSans-48"/>
       <use x="837.5" xlink:href="#DejaVuSans-48"/>
       <use x="901.123047" xlink:href="#DejaVuSans-58"/>
       <use x="934.814453" xlink:href="#DejaVuSans-48"/>
       <use x="998.4375" xlink:href="#DejaVuSans-48"/>
      </g>
     </g>
    </g>
    <g id="xtick_5">
     <g id="line2d_5">
      <g>
       <use style="stroke:#000000;stroke-width:0.8;" x="309.49913" xlink:href="#mf91eb8c9e8" y="267.118125"/>
      </g>
     </g>
     <g id="text_4">
      <!-- 2020-04-18 00:00:00 -->
      <g transform="translate(216.481976 333.80169)rotate(-30)scale(0.1 -0.1)">
       <use xlink:href="#DejaVuSans-50"/>
       <use x="63.623047" xlink:href="#DejaVuSans-48"/>
       <use x="127.246094" xlink:href="#DejaVuSans-50"/>
       <use x="190.869141" xlink:href="#DejaVuSans-48"/>
       <use x="254.492188" xlink:href="#DejaVuSans-45"/>
       <use x="290.576172" xlink:href="#DejaVuSans-48"/>
       <use x="354.199219" xlink:href="#DejaVuSans-52"/>
       <use x="417.822266" xlink:href="#DejaVuSans-45"/>
       <use x="453.90625" xlink:href="#DejaVuSans-49"/>
       <use x="517.529297" xlink:href="#DejaVuSans-56"/>
       <use x="581.152344" xlink:href="#DejaVuSans-32"/>
       <use x="612.939453" xlink:href="#DejaVuSans-48"/>
       <use x="676.5625" xlink:href="#DejaVuSans-48"/>
       <use x="740.185547" xlink:href="#DejaVuSans-58"/>
       <use x="773.876953" xlink:href="#DejaVuSans-48"/>
       <use x="837.5" xlink:href="#DejaVuSans-48"/>
       <use x="901.123047" xlink:href="#DejaVuSans-58"/>
       <use x="934.814453" xlink:href="#DejaVuSans-48"/>
       <use x="998.4375" xlink:href="#DejaVuSans-48"/>
      </g>
     </g>
    </g>
    <g id="xtick_6">
     <g id="line2d_6">
      <g>
       <use style="stroke:#000000;stroke-width:0.8;" x="372.962141" xlink:href="#mf91eb8c9e8" y="267.118125"/>
      </g>
     </g>
     <g id="text_5">
      <!-- 2020-04-24 03:00:00 -->
      <g transform="translate(279.944986 333.80169)rotate(-30)scale(0.1 -0.1)">
       <use xlink:href="#DejaVuSans-50"/>
       <use x="63.623047" xlink:href="#DejaVuSans-48"/>
       <use x="127.246094" xlink:href="#DejaVuSans-50"/>
       <use x="190.869141" xlink:href="#DejaVuSans-48"/>
       <use x="254.492188" xlink:href="#DejaVuSans-45"/>
       <use x="290.576172" xlink:href="#DejaVuSans-48"/>
       <use x="354.199219" xlink:href="#DejaVuSans-52"/>
       <use x="417.822266" xlink:href="#DejaVuSans-45"/>
       <use x="453.90625" xlink:href="#DejaVuSans-50"/>
       <use x="517.529297" xlink:href="#DejaVuSans-52"/>
       <use x="581.152344" xlink:href="#DejaVuSans-32"/>
       <use x="612.939453" xlink:href="#DejaVuSans-48"/>
       <use x="676.5625" xlink:href="#DejaVuSans-51"/>
       <use x="740.185547" xlink:href="#DejaVuSans-58"/>
       <use x="773.876953" xlink:href="#DejaVuSans-48"/>
       <use x="837.5" xlink:href="#DejaVuSans-48"/>
       <use x="901.123047" xlink:href="#DejaVuSans-58"/>
       <use x="934.814453" xlink:href="#DejaVuSans-48"/>
       <use x="998.4375" xlink:href="#DejaVuSans-48"/>
      </g>
     </g>
    </g>
    <g id="xtick_7">
     <g id="line2d_7">
      <g>
       <use style="stroke:#000000;stroke-width:0.8;" x="436.425151" xlink:href="#mf91eb8c9e8" y="267.118125"/>
      </g>
     </g>
     <g id="text_6">
      <!-- 2020-04-30 06:00:00 -->
      <g transform="translate(343.407996 333.80169)rotate(-30)scale(0.1 -0.1)">
       <defs>
        <path d="M 33.015625 40.375 
Q 26.375 40.375 22.484375 35.828125 
Q 18.609375 31.296875 18.609375 23.390625 
Q 18.609375 15.53125 22.484375 10.953125 
Q 26.375 6.390625 33.015625 6.390625 
Q 39.65625 6.390625 43.53125 10.953125 
Q 47.40625 15.53125 47.40625 23.390625 
Q 47.40625 31.296875 43.53125 35.828125 
Q 39.65625 40.375 33.015625 40.375 
z
M 52.59375 71.296875 
L 52.59375 62.3125 
Q 48.875 64.0625 45.09375 64.984375 
Q 41.3125 65.921875 37.59375 65.921875 
Q 27.828125 65.921875 22.671875 59.328125 
Q 17.53125 52.734375 16.796875 39.40625 
Q 19.671875 43.65625 24.015625 45.921875 
Q 28.375 48.1875 33.59375 48.1875 
Q 44.578125 48.1875 50.953125 41.515625 
Q 57.328125 34.859375 57.328125 23.390625 
Q 57.328125 12.15625 50.6875 5.359375 
Q 44.046875 -1.421875 33.015625 -1.421875 
Q 20.359375 -1.421875 13.671875 8.265625 
Q 6.984375 17.96875 6.984375 36.375 
Q 6.984375 53.65625 15.1875 63.9375 
Q 23.390625 74.21875 37.203125 74.21875 
Q 40.921875 74.21875 44.703125 73.484375 
Q 48.484375 72.75 52.59375 71.296875 
z
" id="DejaVuSans-54"/>
       </defs>
       <use xlink:href="#DejaVuSans-50"/>
       <use x="63.623047" xlink:href="#DejaVuSans-48"/>
       <use x="127.246094" xlink:href="#DejaVuSans-50"/>
       <use x="190.869141" xlink:href="#DejaVuSans-48"/>
       <use x="254.492188" xlink:href="#DejaVuSans-45"/>
       <use x="290.576172" xlink:href="#DejaVuSans-48"/>
       <use x="354.199219" xlink:href="#DejaVuSans-52"/>
       <use x="417.822266" xlink:href="#DejaVuSans-45"/>
       <use x="453.90625" xlink:href="#DejaVuSans-51"/>
       <use x="517.529297" xlink:href="#DejaVuSans-48"/>
       <use x="581.152344" xlink:href="#DejaVuSans-32"/>
       <use x="612.939453" xlink:href="#DejaVuSans-48"/>
       <use x="676.5625" xlink:href="#DejaVuSans-54"/>
       <use x="740.185547" xlink:href="#DejaVuSans-58"/>
       <use x="773.876953" xlink:href="#DejaVuSans-48"/>
       <use x="837.5" xlink:href="#DejaVuSans-48"/>
       <use x="901.123047" xlink:href="#DejaVuSans-58"/>
       <use x="934.814453" xlink:href="#DejaVuSans-48"/>
       <use x="998.4375" xlink:href="#DejaVuSans-48"/>
      </g>
     </g>
    </g>
    <g id="xtick_8">
     <g id="line2d_8">
      <g>
       <use style="stroke:#000000;stroke-width:0.8;" x="499.888161" xlink:href="#mf91eb8c9e8" y="267.118125"/>
      </g>
     </g>
     <g id="text_7">
      <!-- 2020-05-06 15:00:00 -->
      <g transform="translate(406.871007 333.80169)rotate(-30)scale(0.1 -0.1)">
       <use xlink:href="#DejaVuSans-50"/>
       <use x="63.623047" xlink:href="#DejaVuSans-48"/>
       <use x="127.246094" xlink:href="#DejaVuSans-50"/>
       <use x="190.869141" xlink:href="#DejaVuSans-48"/>
       <use x="254.492188" xlink:href="#DejaVuSans-45"/>
       <use x="290.576172" xlink:href="#DejaVuSans-48"/>
       <use x="354.199219" xlink:href="#DejaVuSans-53"/>
       <use x="417.822266" xlink:href="#DejaVuSans-45"/>
       <use x="453.90625" xlink:href="#DejaVuSans-48"/>
       <use x="517.529297" xlink:href="#DejaVuSans-54"/>
       <use x="581.152344" xlink:href="#DejaVuSans-32"/>
       <use x="612.939453" xlink:href="#DejaVuSans-49"/>
       <use x="676.5625" xlink:href="#DejaVuSans-53"/>
       <use x="740.185547" xlink:href="#DejaVuSans-58"/>
       <use x="773.876953" xlink:href="#DejaVuSans-48"/>
       <use x="837.5" xlink:href="#DejaVuSans-48"/>
       <use x="901.123047" xlink:href="#DejaVuSans-58"/>
       <use x="934.814453" xlink:href="#DejaVuSans-48"/>
       <use x="998.4375" xlink:href="#DejaVuSans-48"/>
      </g>
     </g>
    </g>
    <g id="xtick_9">
     <g id="line2d_9">
      <g>
       <use style="stroke:#000000;stroke-width:0.8;" x="563.351171" xlink:href="#mf91eb8c9e8" y="267.118125"/>
      </g>
     </g>
     <g id="text_8">
      <!-- 2020-05-12 18:00:00 -->
      <g transform="translate(470.334017 333.80169)rotate(-30)scale(0.1 -0.1)">
       <use xlink:href="#DejaVuSans-50"/>
       <use x="63.623047" xlink:href="#DejaVuSans-48"/>
       <use x="127.246094" xlink:href="#DejaVuSans-50"/>
       <use x="190.869141" xlink:href="#DejaVuSans-48"/>
       <use x="254.492188" xlink:href="#DejaVuSans-45"/>
       <use x="290.576172" xlink:href="#DejaVuSans-48"/>
       <use x="354.199219" xlink:href="#DejaVuSans-53"/>
       <use x="417.822266" xlink:href="#DejaVuSans-45"/>
       <use x="453.90625" xlink:href="#DejaVuSans-49"/>
       <use x="517.529297" xlink:href="#DejaVuSans-50"/>
       <use x="581.152344" xlink:href="#DejaVuSans-32"/>
       <use x="612.939453" xlink:href="#DejaVuSans-49"/>
       <use x="676.5625" xlink:href="#DejaVuSans-56"/>
       <use x="740.185547" xlink:href="#DejaVuSans-58"/>
       <use x="773.876953" xlink:href="#DejaVuSans-48"/>
       <use x="837.5" xlink:href="#DejaVuSans-48"/>
       <use x="901.123047" xlink:href="#DejaVuSans-58"/>
       <use x="934.814453" xlink:href="#DejaVuSans-48"/>
       <use x="998.4375" xlink:href="#DejaVuSans-48"/>
      </g>
     </g>
    </g>
    <g id="text_9">
     <!-- Período -->
     <g transform="translate(304.133594 347.20119)scale(0.1 -0.1)">
      <defs>
       <path d="M 19.671875 64.796875 
L 19.671875 37.40625 
L 32.078125 37.40625 
Q 38.96875 37.40625 42.71875 40.96875 
Q 46.484375 44.53125 46.484375 51.125 
Q 46.484375 57.671875 42.71875 61.234375 
Q 38.96875 64.796875 32.078125 64.796875 
z
M 9.8125 72.90625 
L 32.078125 72.90625 
Q 44.34375 72.90625 50.609375 67.359375 
Q 56.890625 61.8125 56.890625 51.125 
Q 56.890625 40.328125 50.609375 34.8125 
Q 44.34375 29.296875 32.078125 29.296875 
L 19.671875 29.296875 
L 19.671875 0 
L 9.8125 0 
z
" id="DejaVuSans-80"/>
       <path d="M 56.203125 29.59375 
L 56.203125 25.203125 
L 14.890625 25.203125 
Q 15.484375 15.921875 20.484375 11.0625 
Q 25.484375 6.203125 34.421875 6.203125 
Q 39.59375 6.203125 44.453125 7.46875 
Q 49.3125 8.734375 54.109375 11.28125 
L 54.109375 2.78125 
Q 49.265625 0.734375 44.1875 -0.34375 
Q 39.109375 -1.421875 33.890625 -1.421875 
Q 20.796875 -1.421875 13.15625 6.1875 
Q 5.515625 13.8125 5.515625 26.8125 
Q 5.515625 40.234375 12.765625 48.109375 
Q 20.015625 56 32.328125 56 
Q 43.359375 56 49.78125 48.890625 
Q 56.203125 41.796875 56.203125 29.59375 
z
M 47.21875 32.234375 
Q 47.125 39.59375 43.09375 43.984375 
Q 39.0625 48.390625 32.421875 48.390625 
Q 24.90625 48.390625 20.390625 44.140625 
Q 15.875 39.890625 15.1875 32.171875 
z
" id="DejaVuSans-101"/>
       <path d="M 41.109375 46.296875 
Q 39.59375 47.171875 37.8125 47.578125 
Q 36.03125 48 33.890625 48 
Q 26.265625 48 22.1875 43.046875 
Q 18.109375 38.09375 18.109375 28.8125 
L 18.109375 0 
L 9.078125 0 
L 9.078125 54.6875 
L 18.109375 54.6875 
L 18.109375 46.1875 
Q 20.953125 51.171875 25.484375 53.578125 
Q 30.03125 56 36.53125 56 
Q 37.453125 56 38.578125 55.875 
Q 39.703125 55.765625 41.0625 55.515625 
z
" id="DejaVuSans-114"/>
       <path d="M 20.703125 79.984375 
L 30.421875 79.984375 
L 14.5 61.625 
L 7.03125 61.625 
z
M 9.421875 54.6875 
L 18.40625 54.6875 
L 18.40625 0 
L 9.421875 0 
z
M 13.921875 56 
z
" id="DejaVuSans-237"/>
       <path d="M 30.609375 48.390625 
Q 23.390625 48.390625 19.1875 42.75 
Q 14.984375 37.109375 14.984375 27.296875 
Q 14.984375 17.484375 19.15625 11.84375 
Q 23.34375 6.203125 30.609375 6.203125 
Q 37.796875 6.203125 41.984375 11.859375 
Q 46.1875 17.53125 46.1875 27.296875 
Q 46.1875 37.015625 41.984375 42.703125 
Q 37.796875 48.390625 30.609375 48.390625 
z
M 30.609375 56 
Q 42.328125 56 49.015625 48.375 
Q 55.71875 40.765625 55.71875 27.296875 
Q 55.71875 13.875 49.015625 6.21875 
Q 42.328125 -1.421875 30.609375 -1.421875 
Q 18.84375 -1.421875 12.171875 6.21875 
Q 5.515625 13.875 5.515625 27.296875 
Q 5.515625 40.765625 12.171875 48.375 
Q 18.84375 56 30.609375 56 
z
" id="DejaVuSans-111"/>
       <path d="M 45.40625 46.390625 
L 45.40625 75.984375 
L 54.390625 75.984375 
L 54.390625 0 
L 45.40625 0 
L 45.40625 8.203125 
Q 42.578125 3.328125 38.25 0.953125 
Q 33.9375 -1.421875 27.875 -1.421875 
Q 17.96875 -1.421875 11.734375 6.484375 
Q 5.515625 14.40625 5.515625 27.296875 
Q 5.515625 40.1875 11.734375 48.09375 
Q 17.96875 56 27.875 56 
Q 33.9375 56 38.25 53.625 
Q 42.578125 51.265625 45.40625 46.390625 
z
M 14.796875 27.296875 
Q 14.796875 17.390625 18.875 11.75 
Q 22.953125 6.109375 30.078125 6.109375 
Q 37.203125 6.109375 41.296875 11.75 
Q 45.40625 17.390625 45.40625 27.296875 
Q 45.40625 37.203125 41.296875 42.84375 
Q 37.203125 48.484375 30.078125 48.484375 
Q 22.953125 48.484375 18.875 42.84375 
Q 14.796875 37.203125 14.796875 27.296875 
z
" id="DejaVuSans-100"/>
      </defs>
      <use xlink:href="#DejaVuSans-80"/>
      <use x="56.677734" xlink:href="#DejaVuSans-101"/>
      <use x="118.201172" xlink:href="#DejaVuSans-114"/>
      <use x="159.314453" xlink:href="#DejaVuSans-237"/>
      <use x="187.097656" xlink:href="#DejaVuSans-111"/>
      <use x="248.279297" xlink:href="#DejaVuSans-100"/>
      <use x="311.755859" xlink:href="#DejaVuSans-111"/>
     </g>
    </g>
   </g>
   <g id="matplotlib.axis_2">
    <g id="ytick_1">
     <g id="line2d_10">
      <defs>
       <path d="M 0 0 
L -3.5 0 
" id="m9f2b289329" style="stroke:#000000;stroke-width:0.8;"/>
      </defs>
      <g>
       <use style="stroke:#000000;stroke-width:0.8;" x="43.78125" xlink:href="#m9f2b289329" y="240.576375"/>
      </g>
     </g>
     <g id="text_10">
      <!-- 0.2 -->
      <g transform="translate(20.878125 244.375593)scale(0.1 -0.1)">
       <defs>
        <path d="M 10.6875 12.40625 
L 21 12.40625 
L 21 0 
L 10.6875 0 
z
" id="DejaVuSans-46"/>
       </defs>
       <use xlink:href="#DejaVuSans-48"/>
       <use x="63.623047" xlink:href="#DejaVuSans-46"/>
       <use x="95.410156" xlink:href="#DejaVuSans-50"/>
      </g>
     </g>
    </g>
    <g id="ytick_2">
     <g id="line2d_11">
      <g>
       <use style="stroke:#000000;stroke-width:0.8;" x="43.78125" xlink:href="#m9f2b289329" y="193.865836"/>
      </g>
     </g>
     <g id="text_11">
      <!-- 0.4 -->
      <g transform="translate(20.878125 197.665055)scale(0.1 -0.1)">
       <use xlink:href="#DejaVuSans-48"/>
       <use x="63.623047" xlink:href="#DejaVuSans-46"/>
       <use x="95.410156" xlink:href="#DejaVuSans-52"/>
      </g>
     </g>
    </g>
    <g id="ytick_3">
     <g id="line2d_12">
      <g>
       <use style="stroke:#000000;stroke-width:0.8;" x="43.78125" xlink:href="#m9f2b289329" y="147.155298"/>
      </g>
     </g>
     <g id="text_12">
      <!-- 0.6 -->
      <g transform="translate(20.878125 150.954517)scale(0.1 -0.1)">
       <use xlink:href="#DejaVuSans-48"/>
       <use x="63.623047" xlink:href="#DejaVuSans-46"/>
       <use x="95.410156" xlink:href="#DejaVuSans-54"/>
      </g>
     </g>
    </g>
    <g id="ytick_4">
     <g id="line2d_13">
      <g>
       <use style="stroke:#000000;stroke-width:0.8;" x="43.78125" xlink:href="#m9f2b289329" y="100.444759"/>
      </g>
     </g>
     <g id="text_13">
      <!-- 0.8 -->
      <g transform="translate(20.878125 104.243978)scale(0.1 -0.1)">
       <use xlink:href="#DejaVuSans-48"/>
       <use x="63.623047" xlink:href="#DejaVuSans-46"/>
       <use x="95.410156" xlink:href="#DejaVuSans-56"/>
      </g>
     </g>
    </g>
    <g id="ytick_5">
     <g id="line2d_14">
      <g>
       <use style="stroke:#000000;stroke-width:0.8;" x="43.78125" xlink:href="#m9f2b289329" y="53.734221"/>
      </g>
     </g>
     <g id="text_14">
      <!-- 1.0 -->
      <g transform="translate(20.878125 57.53344)scale(0.1 -0.1)">
       <use xlink:href="#DejaVuSans-49"/>
       <use x="63.623047" xlink:href="#DejaVuSans-46"/>
       <use x="95.410156" xlink:href="#DejaVuSans-48"/>
      </g>
     </g>
    </g>
    <g id="text_15">
     <!-- energia (kWh) -->
     <g transform="translate(14.798438 180.13375)rotate(-90)scale(0.1 -0.1)">
      <defs>
       <path d="M 54.890625 33.015625 
L 54.890625 0 
L 45.90625 0 
L 45.90625 32.71875 
Q 45.90625 40.484375 42.875 44.328125 
Q 39.84375 48.1875 33.796875 48.1875 
Q 26.515625 48.1875 22.3125 43.546875 
Q 18.109375 38.921875 18.109375 30.90625 
L 18.109375 0 
L 9.078125 0 
L 9.078125 54.6875 
L 18.109375 54.6875 
L 18.109375 46.1875 
Q 21.34375 51.125 25.703125 53.5625 
Q 30.078125 56 35.796875 56 
Q 45.21875 56 50.046875 50.171875 
Q 54.890625 44.34375 54.890625 33.015625 
z
" id="DejaVuSans-110"/>
       <path d="M 45.40625 27.984375 
Q 45.40625 37.75 41.375 43.109375 
Q 37.359375 48.484375 30.078125 48.484375 
Q 22.859375 48.484375 18.828125 43.109375 
Q 14.796875 37.75 14.796875 27.984375 
Q 14.796875 18.265625 18.828125 12.890625 
Q 22.859375 7.515625 30.078125 7.515625 
Q 37.359375 7.515625 41.375 12.890625 
Q 45.40625 18.265625 45.40625 27.984375 
z
M 54.390625 6.78125 
Q 54.390625 -7.171875 48.1875 -13.984375 
Q 42 -20.796875 29.203125 -20.796875 
Q 24.46875 -20.796875 20.265625 -20.09375 
Q 16.0625 -19.390625 12.109375 -17.921875 
L 12.109375 -9.1875 
Q 16.0625 -11.328125 19.921875 -12.34375 
Q 23.78125 -13.375 27.78125 -13.375 
Q 36.625 -13.375 41.015625 -8.765625 
Q 45.40625 -4.15625 45.40625 5.171875 
L 45.40625 9.625 
Q 42.625 4.78125 38.28125 2.390625 
Q 33.9375 0 27.875 0 
Q 17.828125 0 11.671875 7.65625 
Q 5.515625 15.328125 5.515625 27.984375 
Q 5.515625 40.671875 11.671875 48.328125 
Q 17.828125 56 27.875 56 
Q 33.9375 56 38.28125 53.609375 
Q 42.625 51.21875 45.40625 46.390625 
L 45.40625 54.6875 
L 54.390625 54.6875 
z
" id="DejaVuSans-103"/>
       <path d="M 9.421875 54.6875 
L 18.40625 54.6875 
L 18.40625 0 
L 9.421875 0 
z
M 9.421875 75.984375 
L 18.40625 75.984375 
L 18.40625 64.59375 
L 9.421875 64.59375 
z
" id="DejaVuSans-105"/>
       <path d="M 34.28125 27.484375 
Q 23.390625 27.484375 19.1875 25 
Q 14.984375 22.515625 14.984375 16.5 
Q 14.984375 11.71875 18.140625 8.90625 
Q 21.296875 6.109375 26.703125 6.109375 
Q 34.1875 6.109375 38.703125 11.40625 
Q 43.21875 16.703125 43.21875 25.484375 
L 43.21875 27.484375 
z
M 52.203125 31.203125 
L 52.203125 0 
L 43.21875 0 
L 43.21875 8.296875 
Q 40.140625 3.328125 35.546875 0.953125 
Q 30.953125 -1.421875 24.3125 -1.421875 
Q 15.921875 -1.421875 10.953125 3.296875 
Q 6 8.015625 6 15.921875 
Q 6 25.140625 12.171875 29.828125 
Q 18.359375 34.515625 30.609375 34.515625 
L 43.21875 34.515625 
L 43.21875 35.40625 
Q 43.21875 41.609375 39.140625 45 
Q 35.0625 48.390625 27.6875 48.390625 
Q 23 48.390625 18.546875 47.265625 
Q 14.109375 46.140625 10.015625 43.890625 
L 10.015625 52.203125 
Q 14.9375 54.109375 19.578125 55.046875 
Q 24.21875 56 28.609375 56 
Q 40.484375 56 46.34375 49.84375 
Q 52.203125 43.703125 52.203125 31.203125 
z
" id="DejaVuSans-97"/>
       <path d="M 31 75.875 
Q 24.46875 64.65625 21.28125 53.65625 
Q 18.109375 42.671875 18.109375 31.390625 
Q 18.109375 20.125 21.3125 9.0625 
Q 24.515625 -2 31 -13.1875 
L 23.1875 -13.1875 
Q 15.875 -1.703125 12.234375 9.375 
Q 8.59375 20.453125 8.59375 31.390625 
Q 8.59375 42.28125 12.203125 53.3125 
Q 15.828125 64.359375 23.1875 75.875 
z
" id="DejaVuSans-40"/>
       <path d="M 9.078125 75.984375 
L 18.109375 75.984375 
L 18.109375 31.109375 
L 44.921875 54.6875 
L 56.390625 54.6875 
L 27.390625 29.109375 
L 57.625 0 
L 45.90625 0 
L 18.109375 26.703125 
L 18.109375 0 
L 9.078125 0 
z
" id="DejaVuSans-107"/>
       <path d="M 3.328125 72.90625 
L 13.28125 72.90625 
L 28.609375 11.28125 
L 43.890625 72.90625 
L 54.984375 72.90625 
L 70.3125 11.28125 
L 85.59375 72.90625 
L 95.609375 72.90625 
L 77.296875 0 
L 64.890625 0 
L 49.515625 63.28125 
L 33.984375 0 
L 21.578125 0 
z
" id="DejaVuSans-87"/>
       <path d="M 54.890625 33.015625 
L 54.890625 0 
L 45.90625 0 
L 45.90625 32.71875 
Q 45.90625 40.484375 42.875 44.328125 
Q 39.84375 48.1875 33.796875 48.1875 
Q 26.515625 48.1875 22.3125 43.546875 
Q 18.109375 38.921875 18.109375 30.90625 
L 18.109375 0 
L 9.078125 0 
L 9.078125 75.984375 
L 18.109375 75.984375 
L 18.109375 46.1875 
Q 21.34375 51.125 25.703125 53.5625 
Q 30.078125 56 35.796875 56 
Q 45.21875 56 50.046875 50.171875 
Q 54.890625 44.34375 54.890625 33.015625 
z
" id="DejaVuSans-104"/>
       <path d="M 8.015625 75.875 
L 15.828125 75.875 
Q 23.140625 64.359375 26.78125 53.3125 
Q 30.421875 42.28125 30.421875 31.390625 
Q 30.421875 20.453125 26.78125 9.375 
Q 23.140625 -1.703125 15.828125 -13.1875 
L 8.015625 -13.1875 
Q 14.5 -2 17.703125 9.0625 
Q 20.90625 20.125 20.90625 31.390625 
Q 20.90625 42.671875 17.703125 53.65625 
Q 14.5 64.65625 8.015625 75.875 
z
" id="DejaVuSans-41"/>
      </defs>
      <use xlink:href="#DejaVuSans-101"/>
      <use x="61.523438" xlink:href="#DejaVuSans-110"/>
      <use x="124.902344" xlink:href="#DejaVuSans-101"/>
      <use x="186.425781" xlink:href="#DejaVuSans-114"/>
      <use x="225.789062" xlink:href="#DejaVuSans-103"/>
      <use x="289.265625" xlink:href="#DejaVuSans-105"/>
      <use x="317.048828" xlink:href="#DejaVuSans-97"/>
      <use x="378.328125" xlink:href="#DejaVuSans-32"/>
      <use x="410.115234" xlink:href="#DejaVuSans-40"/>
      <use x="449.128906" xlink:href="#DejaVuSans-107"/>
      <use x="507.039062" xlink:href="#DejaVuSans-87"/>
      <use x="605.916016" xlink:href="#DejaVuSans-104"/>
      <use x="669.294922" xlink:href="#DejaVuSans-41"/>
     </g>
    </g>
   </g>
   <g id="line2d_15">
    <path clip-path="url(#pbbb06d0076)" d="M 69.144886 213.951368 
L 69.576241 212.550052 
L 70.007595 215.352684 
L 70.438949 216.754 
L 70.870304 220.490843 
L 72.164367 242.444796 
L 72.595721 250.385588 
L 73.027076 252.721115 
L 73.889784 251.786904 
L 74.321139 247.582955 
L 74.752493 236.839532 
L 75.183847 228.89874 
L 75.615202 228.431635 
L 76.046556 212.550052 
L 76.47791 212.082946 
L 76.909265 222.359265 
L 77.340619 228.431635 
L 77.771974 217.221105 
L 78.203328 223.293475 
L 78.634682 219.556632 
L 79.497391 207.878998 
L 80.3601 216.754 
L 80.791454 214.885578 
L 81.222808 212.082946 
L 82.516872 229.832951 
L 83.37958 248.517166 
L 83.810935 249.451377 
L 84.242289 249.451377 
L 84.673643 248.984272 
L 85.536352 242.911902 
L 85.967706 242.444796 
L 86.399061 238.707953 
L 86.830415 237.306637 
L 87.261769 239.175058 
L 88.124478 228.89874 
L 88.555833 222.359265 
L 89.849896 207.411892 
L 90.28125 194.800047 
L 90.712604 191.997415 
L 91.143959 191.997415 
L 91.575313 198.069785 
L 92.006667 212.550052 
L 92.438022 231.701372 
L 92.869376 245.714534 
L 93.300731 253.655325 
L 93.732085 254.589536 
L 94.163439 254.122431 
L 94.594794 255.056642 
L 95.026148 253.18822 
L 96.320211 220.957948 
L 97.18292 211.615841 
L 97.614274 217.221105 
L 98.045628 226.096108 
L 98.476983 231.234267 
L 99.339692 239.642164 
L 99.771046 243.846112 
L 100.2024 245.247428 
L 100.633755 243.846112 
L 101.065109 236.839532 
L 101.496463 233.569794 
L 101.927818 232.635583 
L 102.790526 238.707953 
L 103.221881 246.181639 
L 103.653235 251.319798 
L 104.08459 254.122431 
L 104.515944 254.122431 
L 104.947298 255.056642 
L 105.378653 250.852693 
L 105.810007 237.306637 
L 106.241361 220.023738 
L 107.10407 74.286858 
L 107.535424 73.819752 
L 107.966779 80.359228 
L 108.398133 94.372389 
L 109.260842 233.569794 
L 109.692196 235.905321 
L 110.123551 236.372426 
L 110.554905 232.635583 
L 110.986259 234.504005 
L 111.417614 231.234267 
L 111.848968 229.365845 
L 112.280322 232.635583 
L 112.711677 238.240848 
L 113.574385 245.247428 
L 114.00574 249.451377 
L 114.437094 252.254009 
L 114.868449 253.655325 
L 115.299803 253.655325 
L 115.731157 248.050061 
L 116.162512 248.050061 
L 116.593866 248.984272 
L 117.02522 248.984272 
L 117.456575 243.379007 
L 117.887929 244.313218 
L 118.319283 240.576375 
L 118.750638 240.109269 
L 119.181992 240.109269 
L 120.044701 236.839532 
L 120.476055 239.175058 
L 120.90741 230.300056 
L 121.770118 199.471101 
L 122.201473 199.471101 
L 122.632827 200.405312 
L 123.064181 208.813208 
L 123.495536 222.82637 
L 123.92689 247.11585 
L 124.358244 250.852693 
L 124.789599 249.918482 
L 125.220953 250.385588 
L 125.652308 250.385588 
L 126.515016 239.642164 
L 126.946371 238.240848 
L 127.377725 235.905321 
L 127.809079 235.905321 
L 128.240434 238.240848 
L 128.671788 246.181639 
L 129.103142 248.517166 
L 129.534497 248.050061 
L 129.965851 239.175058 
L 130.82856 227.964529 
L 131.259914 226.096108 
L 131.691269 220.023738 
L 132.553977 228.431635 
L 132.985332 233.102688 
L 133.416686 235.438215 
L 133.84804 245.247428 
L 134.710749 253.655325 
L 135.142103 255.056642 
L 135.573458 255.056642 
L 136.004812 254.122431 
L 136.436167 248.984272 
L 136.867521 239.175058 
L 137.298875 239.175058 
L 137.73023 239.642164 
L 138.161584 239.175058 
L 138.592938 235.905321 
L 139.024293 236.372426 
L 139.455647 228.431635 
L 139.887001 227.497424 
L 140.318356 227.497424 
L 140.74971 235.905321 
L 141.181064 240.109269 
L 141.612419 241.04348 
L 142.475128 218.622422 
L 142.906482 211.615841 
L 143.337836 213.484262 
L 143.769191 220.023738 
L 144.631899 244.313218 
L 145.063254 251.786904 
L 145.494608 255.056642 
L 146.357317 255.990852 
L 146.788671 255.056642 
L 147.220026 248.050061 
L 147.65138 236.839532 
L 148.082734 231.234267 
L 148.514089 203.207944 
L 148.945443 110.253972 
L 149.376797 94.372389 
L 149.808152 104.648708 
L 150.239506 102.780286 
L 150.67086 127.069766 
L 151.102215 214.418473 
L 151.533569 230.767162 
L 151.964923 224.694792 
L 152.396278 225.629002 
L 153.258987 214.885578 
L 153.690341 218.155316 
L 154.55305 229.832951 
L 154.984404 237.773742 
L 155.415758 248.984272 
L 155.847113 251.786904 
L 156.278467 253.655325 
L 156.709821 254.122431 
L 157.141176 248.517166 
L 157.57253 233.102688 
L 158.003885 222.82637 
L 158.435239 220.490843 
L 158.866593 210.68163 
L 159.297948 206.477682 
L 160.160656 222.82637 
L 160.592011 223.293475 
L 161.023365 229.365845 
L 161.454719 231.701372 
L 161.886074 231.701372 
L 162.317428 229.365845 
L 163.180137 218.155316 
L 163.611491 213.017157 
L 164.042846 213.484262 
L 164.4742 218.155316 
L 165.336909 235.438215 
L 165.768263 248.050061 
L 166.199617 253.655325 
L 166.630972 254.589536 
L 167.062326 253.655325 
L 167.49368 249.451377 
L 167.925035 233.102688 
L 168.356389 226.563213 
L 169.219098 194.332942 
L 169.650452 186.39215 
L 170.081807 198.069785 
L 170.513161 201.806628 
L 170.944515 216.754 
L 171.807224 235.905321 
L 172.238578 234.504005 
L 172.669933 231.701372 
L 173.101287 227.964529 
L 173.532641 227.030318 
L 173.963996 222.82637 
L 176.120768 254.589536 
L 176.552122 255.056642 
L 177.414831 255.056642 
L 177.846185 249.451377 
L 179.140248 218.622422 
L 180.002957 217.688211 
L 181.29702 234.036899 
L 181.728374 227.964529 
L 183.022437 222.82637 
L 183.453792 221.892159 
L 183.885146 212.082946 
L 184.3165 199.471101 
L 185.610564 217.221105 
L 186.041918 233.102688 
L 186.473272 253.655325 
L 186.904627 255.056642 
L 187.335981 254.589536 
L 187.767335 254.589536 
L 188.19869 245.247428 
L 188.630044 229.365845 
L 189.492753 215.819789 
L 189.924107 213.017157 
L 190.355462 215.819789 
L 190.786816 227.497424 
L 191.21817 227.964529 
L 191.649525 227.497424 
L 192.080879 222.359265 
L 192.512233 224.227686 
L 192.943588 220.023738 
L 193.374942 218.155316 
L 193.806296 218.155316 
L 194.237651 219.089527 
L 194.669005 222.359265 
L 195.963068 246.181639 
L 196.394423 250.852693 
L 196.825777 250.385588 
L 197.257131 249.451377 
L 197.688486 248.984272 
L 198.11984 248.050061 
L 198.982549 226.096108 
L 199.413903 196.201363 
L 199.845257 144.819771 
L 200.276612 50.464483 
L 200.707966 55.135537 
L 201.139321 63.076329 
L 201.570675 90.635546 
L 202.002029 134.543452 
L 202.433384 223.293475 
L 202.864738 224.227686 
L 203.296092 224.227686 
L 203.727447 220.957948 
L 204.158801 221.892159 
L 204.590155 216.286895 
L 205.02151 219.089527 
L 205.884218 232.635583 
L 206.315573 239.642164 
L 206.746927 251.786904 
L 207.178282 255.523747 
L 208.04099 255.523747 
L 208.472345 251.319798 
L 208.903699 243.379007 
L 209.335053 229.365845 
L 210.197762 214.885578 
L 211.060471 210.214525 
L 211.491825 214.885578 
L 211.923179 214.418473 
L 212.354534 211.148735 
L 212.785888 210.214525 
L 213.217243 212.550052 
L 213.648597 215.819789 
L 214.94266 220.957948 
L 215.374014 224.227686 
L 216.236723 236.839532 
L 217.099432 249.918482 
L 217.530786 254.589536 
L 217.962141 254.589536 
L 218.393495 253.655325 
L 220.118912 220.957948 
L 220.550267 214.418473 
L 220.981621 217.221105 
L 221.412975 217.221105 
L 222.275684 222.82637 
L 222.707038 224.227686 
L 223.138393 224.227686 
L 223.569747 224.694792 
L 224.001102 224.227686 
L 224.86381 221.425054 
L 225.295165 219.089527 
L 225.726519 217.688211 
L 226.157873 218.155316 
L 227.020582 228.431635 
L 228.314645 251.786904 
L 228.746 252.721115 
L 229.177354 248.050061 
L 230.040063 234.036899 
L 230.471417 230.300056 
L 230.902771 225.161897 
L 231.334126 229.365845 
L 232.196834 230.300056 
L 232.628189 227.030318 
L 233.059543 226.096108 
L 233.490897 220.023738 
L 233.922252 221.892159 
L 234.353606 220.957948 
L 234.784961 223.760581 
L 235.216315 223.293475 
L 235.647669 224.694792 
L 236.079024 224.227686 
L 236.510378 230.767162 
L 236.941732 234.97111 
L 238.235795 254.589536 
L 238.66715 255.056642 
L 239.098504 255.056642 
L 239.529859 255.523747 
L 239.961213 251.786904 
L 241.255276 231.701372 
L 241.68663 226.563213 
L 242.117985 225.629002 
L 242.549339 225.629002 
L 242.980693 226.563213 
L 243.412048 217.688211 
L 243.843402 203.207944 
L 244.274756 195.267152 
L 244.706111 196.201363 
L 245.137465 195.734258 
L 245.56882 201.806628 
L 246.000174 214.885578 
L 246.431528 220.957948 
L 246.862883 220.023738 
L 247.294237 223.760581 
L 247.725591 232.635583 
L 248.5883 244.313218 
L 249.019654 251.319798 
L 249.451009 254.122431 
L 249.882363 254.122431 
L 250.313718 249.451377 
L 250.745072 242.444796 
L 251.607781 234.036899 
L 252.039135 225.161897 
L 252.470489 222.359265 
L 252.901844 218.622422 
L 253.333198 208.346103 
L 253.764552 205.076365 
L 254.627261 129.872399 
L 255.058615 132.207925 
L 255.48997 137.81319 
L 255.921324 136.411874 
L 256.784033 217.688211 
L 258.50945 250.852693 
L 258.940805 252.721115 
L 259.372159 253.655325 
L 260.234868 253.655325 
L 260.666222 244.780323 
L 261.097577 238.240848 
L 261.528931 234.504005 
L 262.822994 196.201363 
L 263.254348 197.135574 
L 263.685703 193.865836 
L 264.117057 199.938206 
L 264.548411 208.346103 
L 264.979766 219.556632 
L 265.842474 219.556632 
L 266.273829 220.957948 
L 266.705183 219.556632 
L 267.999246 235.905321 
L 268.861955 249.451377 
L 269.293309 247.582955 
L 270.156018 246.648745 
L 270.587372 244.313218 
L 271.450081 230.300056 
L 271.881436 221.892159 
L 272.31279 217.688211 
L 273.175499 214.418473 
L 273.606853 217.221105 
L 274.038207 220.957948 
L 274.469562 220.023738 
L 274.900916 212.550052 
L 275.33227 212.082946 
L 275.763625 205.543471 
L 276.194979 185.457939 
L 276.626333 183.122412 
L 277.489042 192.46452 
L 277.920397 206.477682 
L 278.351751 233.102688 
L 279.21446 248.517166 
L 279.645814 255.056642 
L 280.077168 255.056642 
L 280.508523 254.589536 
L 280.939877 250.385588 
L 281.802586 234.97111 
L 282.23394 233.569794 
L 282.665295 234.036899 
L 283.096649 231.701372 
L 283.959358 230.767162 
L 284.822066 216.286895 
L 285.253421 217.688211 
L 285.684775 217.688211 
L 286.116129 219.089527 
L 286.547484 220.957948 
L 286.978838 219.556632 
L 287.410192 217.221105 
L 287.841547 220.957948 
L 288.272901 226.096108 
L 289.566964 247.582955 
L 289.998319 251.319798 
L 290.429673 252.254009 
L 290.861027 251.319798 
L 291.292382 250.852693 
L 292.586445 234.97111 
L 293.017799 224.694792 
L 293.449154 220.490843 
L 293.880508 219.089527 
L 294.311862 211.615841 
L 294.743217 139.214506 
L 295.174571 133.609242 
L 295.605925 132.675031 
L 296.03728 138.747401 
L 296.468634 138.747401 
L 296.899988 196.668468 
L 297.331343 197.602679 
L 297.762697 193.398731 
L 298.194051 185.457939 
L 298.625406 197.135574 
L 299.488115 230.300056 
L 300.350823 246.181639 
L 300.782178 246.648745 
L 301.213532 246.648745 
L 301.644886 246.181639 
L 302.938949 220.023738 
L 303.801658 213.484262 
L 304.233013 214.418473 
L 305.095721 228.431635 
L 305.95843 222.82637 
L 306.389784 224.694792 
L 306.821139 220.023738 
L 307.252493 219.089527 
L 307.683847 219.556632 
L 308.546556 222.359265 
L 310.271974 246.181639 
L 310.703328 252.254009 
L 311.134682 253.18822 
L 311.997391 253.18822 
L 312.8601 233.569794 
L 313.291454 222.82637 
L 313.722808 215.819789 
L 314.154163 214.885578 
L 315.448226 226.563213 
L 315.87958 227.497424 
L 317.173643 192.931625 
L 317.604998 187.793466 
L 318.036352 187.326361 
L 318.467706 192.46452 
L 318.899061 195.267152 
L 319.330415 210.68163 
L 319.761769 220.957948 
L 320.193124 226.096108 
L 320.624478 232.635583 
L 321.055833 242.444796 
L 321.487187 247.11585 
L 321.918541 248.517166 
L 322.349896 248.517166 
L 322.78125 246.181639 
L 323.643959 213.484262 
L 324.075313 129.405293 
L 324.506667 100.444759 
L 324.938022 96.707916 
L 325.800731 118.661869 
L 326.232085 196.201363 
L 326.663439 217.688211 
L 327.094794 210.214525 
L 327.526148 207.878998 
L 328.388857 206.944787 
L 328.820211 207.878998 
L 331.408337 247.582955 
L 331.839692 248.050061 
L 332.7024 249.918482 
L 333.133755 241.510585 
L 333.565109 225.161897 
L 333.996463 220.490843 
L 334.859172 215.352684 
L 335.290526 221.425054 
L 335.721881 232.635583 
L 336.153235 231.234267 
L 337.447298 220.957948 
L 337.878653 220.957948 
L 338.310007 222.359265 
L 339.172716 223.293475 
L 339.60407 224.694792 
L 341.329487 248.517166 
L 341.760842 250.852693 
L 342.623551 249.918482 
L 343.054905 248.517166 
L 343.486259 243.846112 
L 343.917614 228.431635 
L 344.348968 223.760581 
L 344.780322 223.293475 
L 345.211677 212.550052 
L 345.643031 205.543471 
L 346.074385 202.273733 
L 346.937094 191.997415 
L 347.368449 197.135574 
L 347.799803 206.944787 
L 348.231157 222.359265 
L 348.662512 227.030318 
L 349.093866 228.431635 
L 349.52522 229.365845 
L 349.956575 231.234267 
L 351.250638 246.181639 
L 351.681992 251.786904 
L 352.113346 254.589536 
L 352.544701 255.056642 
L 353.40741 255.056642 
L 353.838764 248.517166 
L 354.270118 238.240848 
L 354.701473 233.102688 
L 355.132827 221.892159 
L 355.564181 216.754 
L 355.995536 149.023719 
L 356.42689 133.142136 
L 356.858244 131.74082 
L 357.289599 135.010558 
L 357.720953 133.609242 
L 358.152308 201.339522 
L 358.583662 220.957948 
L 359.015016 220.957948 
L 359.446371 222.82637 
L 359.877725 222.82637 
L 360.309079 220.023738 
L 362.034497 244.780323 
L 362.465851 253.655325 
L 362.897205 253.655325 
L 363.32856 254.122431 
L 363.759914 253.18822 
L 364.622623 236.372426 
L 365.053977 234.036899 
L 365.485332 232.635583 
L 365.916686 229.365845 
L 366.779395 234.036899 
L 367.642103 212.082946 
L 368.936167 181.253991 
L 369.798875 194.800047 
L 370.23023 200.405312 
L 371.092938 228.89874 
L 371.955647 240.109269 
L 372.387001 248.517166 
L 373.24971 251.319798 
L 373.681064 251.319798 
L 374.112419 250.385588 
L 374.543773 242.444796 
L 374.975128 231.234267 
L 375.406482 215.352684 
L 375.837836 130.806609 
L 376.269191 98.109232 
L 376.700545 104.181602 
L 377.131899 112.589499 
L 377.563254 127.536872 
L 377.994608 212.550052 
L 378.425962 244.780323 
L 378.857317 245.714534 
L 379.288671 249.451377 
L 379.720026 250.385588 
L 380.15138 247.582955 
L 380.582734 242.911902 
L 381.445443 225.629002 
L 381.876797 221.892159 
L 382.308152 224.694792 
L 382.739506 231.234267 
L 383.602215 249.918482 
L 384.033569 254.122431 
L 385.327632 248.050061 
L 385.758987 248.050061 
L 386.190341 247.11585 
L 386.621695 248.517166 
L 387.05305 250.852693 
L 387.484404 249.451377 
L 389.209821 221.892159 
L 389.641176 219.089527 
L 390.07253 218.622422 
L 390.503885 217.688211 
L 390.935239 218.155316 
L 391.366593 217.221105 
L 391.797948 215.819789 
L 393.954719 254.589536 
L 394.386074 254.589536 
L 394.817428 255.056642 
L 395.248782 250.852693 
L 395.680137 244.313218 
L 396.111491 224.694792 
L 396.542846 190.128993 
L 396.9742 169.109251 
L 397.405554 170.043462 
L 397.836909 170.043462 
L 398.268263 181.253991 
L 398.699617 207.878998 
L 399.130972 219.089527 
L 399.562326 214.418473 
L 399.99368 212.550052 
L 400.425035 213.951368 
L 400.856389 214.418473 
L 401.287744 217.688211 
L 401.719098 217.688211 
L 402.150452 220.023738 
L 403.87587 248.050061 
L 404.307224 254.122431 
L 404.738578 253.655325 
L 405.169933 254.122431 
L 405.601287 248.984272 
L 406.032641 241.04348 
L 407.326705 232.168478 
L 407.758059 233.102688 
L 408.189413 232.168478 
L 409.483476 214.885578 
L 409.914831 216.286895 
L 410.777539 221.425054 
L 411.208894 222.82637 
L 411.640248 222.359265 
L 412.071603 224.227686 
L 413.79702 250.385588 
L 414.228374 249.918482 
L 414.659729 249.918482 
L 415.091083 249.451377 
L 415.522437 249.918482 
L 415.953792 245.714534 
L 417.247855 220.490843 
L 417.679209 218.155316 
L 418.110564 207.878998 
L 418.541918 207.411892 
L 418.973272 214.418473 
L 419.404627 218.155316 
L 419.835981 212.550052 
L 420.69869 226.096108 
L 421.561398 219.089527 
L 421.992753 219.089527 
L 422.424107 222.359265 
L 422.855462 223.760581 
L 423.286816 227.964529 
L 424.580879 249.918482 
L 425.012233 252.254009 
L 425.443588 252.721115 
L 425.874942 248.984272 
L 426.737651 231.701372 
L 427.169005 228.431635 
L 427.600359 228.431635 
L 428.463068 201.806628 
L 428.894423 193.865836 
L 429.325777 191.063204 
L 429.757131 184.990834 
L 430.188486 202.273733 
L 431.051194 225.629002 
L 431.482549 222.82637 
L 431.913903 221.892159 
L 432.345257 216.286895 
L 432.776612 221.425054 
L 433.207966 227.964529 
L 434.070675 243.846112 
L 434.502029 250.385588 
L 434.933384 253.18822 
L 435.364738 252.254009 
L 435.796092 252.254009 
L 436.227447 249.918482 
L 437.090155 235.438215 
L 437.52151 233.569794 
L 437.952864 227.030318 
L 438.815573 224.227686 
L 439.246927 223.760581 
L 439.678282 220.023738 
L 440.109636 227.030318 
L 440.54099 229.832951 
L 440.972345 237.306637 
L 441.403699 237.306637 
L 441.835053 231.701372 
L 442.697762 209.747419 
L 443.129116 204.142155 
L 443.560471 209.747419 
L 444.854534 243.379007 
L 445.285888 251.319798 
L 446.148597 253.18822 
L 446.579951 249.451377 
L 447.011306 240.576375 
L 447.44266 234.97111 
L 447.874014 231.701372 
L 448.305369 221.425054 
L 448.736723 215.352684 
L 449.168077 214.418473 
L 449.599432 218.155316 
L 450.030786 220.023738 
L 451.324849 250.385588 
L 451.756204 251.786904 
L 452.187558 251.319798 
L 452.618912 245.247428 
L 453.481621 230.767162 
L 453.912975 229.365845 
L 454.34433 231.701372 
L 455.207038 244.780323 
L 455.638393 251.786904 
L 456.069747 254.122431 
L 456.501102 254.122431 
L 456.932456 249.451377 
L 457.795165 227.497424 
L 458.226519 222.82637 
L 458.657873 215.819789 
L 459.089228 215.819789 
L 459.520582 218.622422 
L 459.951936 228.431635 
L 460.383291 232.635583 
L 460.814645 239.642164 
L 461.246 243.846112 
L 461.677354 252.721115 
L 462.108708 254.122431 
L 462.540063 254.589536 
L 462.971417 254.122431 
L 463.834126 254.122431 
L 464.26548 253.18822 
L 464.696834 253.18822 
L 466.422252 255.056642 
L 466.853606 254.589536 
L 467.716315 254.589536 
L 468.147669 254.122431 
L 468.579024 254.122431 
L 469.441732 255.056642 
L 470.735795 255.056642 
L 471.598504 221.892159 
L 472.029859 126.602661 
L 472.461213 99.510549 
L 472.892567 92.971073 
L 473.323922 99.510549 
L 473.755276 99.510549 
L 474.18663 168.642145 
L 474.617985 191.063204 
L 475.480693 206.477682 
L 475.912048 224.227686 
L 476.343402 250.385588 
L 476.774756 255.056642 
L 477.206111 254.589536 
L 477.637465 247.582955 
L 478.500174 226.563213 
L 479.362883 218.155316 
L 479.794237 222.359265 
L 480.656946 237.773742 
L 481.0883 240.576375 
L 481.519654 240.576375 
L 481.951009 236.372426 
L 482.382363 237.773742 
L 482.813718 229.365845 
L 484.107781 250.852693 
L 484.539135 254.122431 
L 484.970489 254.122431 
L 485.401844 253.655325 
L 485.833198 248.517166 
L 486.264552 239.642164 
L 486.695907 233.569794 
L 487.558615 228.431635 
L 487.98997 229.365845 
L 488.421324 228.89874 
L 488.852679 231.234267 
L 489.284033 231.234267 
L 489.715387 226.096108 
L 490.146742 225.629002 
L 490.578096 227.497424 
L 491.00945 223.760581 
L 491.440805 224.694792 
L 491.872159 228.431635 
L 492.303513 226.563213 
L 492.734868 227.497424 
L 493.166222 229.832951 
L 493.597577 231.234267 
L 494.028931 234.504005 
L 494.89164 248.050061 
L 495.322994 252.721115 
L 495.754348 253.18822 
L 496.185703 249.451377 
L 497.048411 227.964529 
L 497.479766 225.161897 
L 497.91112 225.161897 
L 498.342474 220.490843 
L 498.773829 222.82637 
L 499.205183 226.563213 
L 499.636538 224.227686 
L 500.067892 220.490843 
L 501.361955 240.576375 
L 501.793309 244.780323 
L 502.224664 241.510585 
L 502.656018 229.365845 
L 503.087372 224.694792 
L 503.518727 221.892159 
L 503.950081 222.82637 
L 504.381436 227.497424 
L 504.81279 240.109269 
L 505.244144 244.780323 
L 505.675499 247.11585 
L 506.106853 247.11585 
L 506.538207 244.780323 
L 506.969562 238.707953 
L 507.83227 206.010576 
L 508.263625 198.53689 
L 508.694979 202.740838 
L 509.126333 209.747419 
L 509.557688 227.030318 
L 509.989042 239.642164 
L 510.420397 239.642164 
L 511.283105 236.839532 
L 511.71446 234.036899 
L 512.145814 232.635583 
L 512.577168 236.839532 
L 513.439877 229.832951 
L 513.871231 232.635583 
L 514.302586 237.306637 
L 514.73394 240.576375 
L 515.165295 245.247428 
L 515.596649 251.319798 
L 516.028003 252.721115 
L 516.459358 253.18822 
L 516.890712 248.984272 
L 517.322066 232.168478 
L 518.184775 89.701336 
L 518.616129 76.622385 
L 519.047484 75.221069 
L 519.478838 82.694755 
L 520.341547 217.688211 
L 520.772901 226.563213 
L 521.204256 225.629002 
L 521.63561 223.760581 
L 522.066964 224.227686 
L 522.498319 220.957948 
L 522.929673 218.622422 
L 523.361027 220.490843 
L 523.792382 225.629002 
L 524.223736 224.227686 
L 526.380508 253.18822 
L 526.811862 253.18822 
L 527.243217 248.050061 
L 528.105925 234.036899 
L 528.53728 223.760581 
L 528.968634 217.221105 
L 529.399988 221.892159 
L 529.831343 222.359265 
L 530.694051 229.365845 
L 531.125406 229.832951 
L 531.55676 226.563213 
L 531.988115 224.227686 
L 532.419469 210.68163 
L 532.850823 200.872417 
L 533.282178 199.003995 
L 533.713532 192.46452 
L 534.144886 194.800047 
L 535.007595 225.629002 
L 536.301658 249.451377 
L 536.733013 250.852693 
L 537.164367 251.786904 
L 537.595721 250.852693 
L 538.027076 236.839532 
L 538.889784 225.629002 
L 539.321139 224.694792 
L 539.752493 220.490843 
L 540.183847 234.504005 
L 541.046556 247.11585 
L 541.47791 248.517166 
L 541.909265 251.786904 
L 542.771974 246.648745 
L 543.634682 234.504005 
L 544.066037 229.832951 
L 544.928745 232.635583 
L 545.791454 245.714534 
L 546.222808 251.786904 
L 546.654163 253.18822 
L 547.085517 253.655325 
L 547.516872 253.18822 
L 548.37958 234.036899 
L 548.810935 218.155316 
L 549.673643 211.148735 
L 550.536352 217.221105 
L 550.967706 229.365845 
L 551.830415 224.227686 
L 552.261769 223.293475 
L 552.693124 219.089527 
L 553.555833 187.793466 
L 553.987187 181.253991 
L 554.418541 182.188202 
L 554.849896 189.194782 
L 556.143959 241.977691 
L 557.006667 251.786904 
L 557.869376 252.721115 
L 558.300731 250.385588 
L 558.732085 241.04348 
L 559.163439 226.563213 
L 560.457502 206.477682 
L 560.888857 212.082946 
L 561.320211 221.425054 
L 562.18292 224.227686 
L 562.614274 221.892159 
L 563.045628 216.754 
L 563.476983 213.484262 
L 563.908337 213.017157 
L 564.339692 213.017157 
L 564.771046 214.885578 
L 565.2024 219.556632 
L 566.927818 247.582955 
L 567.359172 251.319798 
L 567.790526 252.721115 
L 568.221881 251.786904 
L 568.653235 245.714534 
L 570.378653 202.740838 
L 570.810007 124.734239 
L 571.241361 98.109232 
L 571.672716 104.181602 
L 572.10407 106.517129 
L 572.535424 112.589499 
L 572.966779 190.596098 
L 573.398133 221.892159 
L 573.829487 221.892159 
L 574.260842 220.957948 
L 575.123551 220.023738 
L 575.554905 220.023738 
L 575.986259 225.161897 
L 576.417614 232.168478 
L 576.417614 232.168478 
" style="fill:none;stroke:#000000;stroke-linecap:square;stroke-width:1.5;"/>
   </g>
   <g id="line2d_16">
    <path clip-path="url(#pbbb06d0076)" d="M 69.144886 209.546329 
L 69.576241 202.710313 
L 70.007595 205.192194 
L 70.438949 213.683055 
L 70.870304 215.397892 
L 71.301658 220.716051 
L 71.733013 229.127393 
L 72.595721 241.313255 
L 73.027076 250.340075 
L 73.45843 249.343508 
L 73.889784 246.837248 
L 74.321139 245.242067 
L 74.752493 236.554132 
L 75.183847 216.86876 
L 75.615202 209.597947 
L 76.046556 216.179832 
L 76.47791 188.923761 
L 76.909265 197.067652 
L 77.340619 219.044543 
L 77.771974 220.832478 
L 78.203328 194.878554 
L 78.634682 212.10483 
L 79.066037 205.875999 
L 79.497391 196.755826 
L 79.928745 194.915493 
L 80.3601 209.821906 
L 80.791454 216.886975 
L 81.222808 209.988009 
L 81.654163 205.179505 
L 82.085517 218.383631 
L 82.516872 227.909477 
L 82.948226 229.768548 
L 83.810935 248.362114 
L 84.673643 241.003862 
L 85.104998 239.52428 
L 85.967706 228.506395 
L 86.399061 229.910356 
L 86.830415 222.618332 
L 87.261769 221.360251 
L 87.693124 225.745054 
L 88.555833 203.942222 
L 88.987187 196.905503 
L 89.849896 195.072875 
L 90.28125 192.180844 
L 90.712604 177.689947 
L 91.575313 190.533454 
L 92.006667 202.377939 
L 92.438022 223.832882 
L 92.869376 238.470264 
L 93.732085 252.42877 
L 94.163439 249.97985 
L 94.594794 245.667474 
L 95.026148 247.495417 
L 95.457502 242.993823 
L 95.888857 219.061679 
L 96.320211 202.003817 
L 96.751565 199.746632 
L 97.18292 198.089678 
L 97.614274 193.755053 
L 98.476983 219.657157 
L 99.339692 225.401557 
L 100.2024 237.575416 
L 100.633755 236.535729 
L 101.065109 231.626912 
L 101.496463 219.684518 
L 101.927818 219.2214 
L 102.359172 221.989695 
L 102.790526 228.717832 
L 103.221881 233.118069 
L 103.653235 244.595793 
L 104.08459 249.113908 
L 104.515944 250.28276 
L 104.947298 246.88193 
L 105.378653 247.971186 
L 105.810007 238.368131 
L 106.672716 191.717608 
L 107.10407 97.661705 
L 107.535424 49.019627 
L 108.398133 97.741416 
L 108.829487 117.046092 
L 109.260842 201.541785 
L 109.692196 231.407161 
L 110.123551 229.474359 
L 110.554905 226.833342 
L 110.986259 219.099927 
L 111.417614 225.451129 
L 111.848968 220.253135 
L 112.280322 219.019743 
L 113.143031 235.60949 
L 113.574385 236.613355 
L 114.00574 239.676918 
L 114.437094 244.729757 
L 114.868449 246.31418 
L 115.299803 245.604715 
L 115.731157 243.481253 
L 116.162512 231.180196 
L 117.02522 239.058767 
L 117.456575 238.624542 
L 117.887929 226.202568 
L 118.319283 231.866688 
L 118.750638 224.9402 
L 119.181992 226.05079 
L 119.613346 227.943771 
L 120.044701 224.577667 
L 120.476055 223.411415 
L 120.90741 230.069784 
L 122.201473 180.420037 
L 122.632827 193.867178 
L 123.064181 200.546098 
L 123.92689 231.275742 
L 124.358244 247.715627 
L 124.789599 249.021537 
L 125.220953 242.261072 
L 125.652308 242.397086 
L 126.083662 242.2604 
L 126.515016 230.101127 
L 126.946371 223.316071 
L 127.377725 224.673227 
L 127.809079 221.953891 
L 128.240434 223.382843 
L 128.671788 228.56464 
L 129.103142 240.511155 
L 129.534497 239.081897 
L 129.965851 235.025664 
L 130.397205 216.924123 
L 131.259914 207.324621 
L 131.691269 212.219545 
L 132.122623 206.802075 
L 132.553977 219.726148 
L 132.985332 227.548051 
L 133.416686 231.607708 
L 133.84804 232.246472 
L 134.279395 245.588021 
L 134.710749 247.783829 
L 135.142103 251.118044 
L 135.573458 251.160203 
L 136.004812 249.222174 
L 136.436167 246.581174 
L 136.867521 236.089768 
L 137.298875 219.45401 
L 137.73023 226.808396 
L 138.161584 230.413938 
L 138.592938 229.260118 
L 139.024293 223.383184 
L 139.455647 226.621453 
L 139.887001 213.502008 
L 140.74971 219.862329 
L 141.181064 233.185731 
L 141.612419 235.272477 
L 142.043773 234.110446 
L 142.475128 210.285622 
L 142.906482 201.524704 
L 143.337836 199.784879 
L 145.063254 245.668448 
L 145.494608 251.802277 
L 145.925962 252.62339 
L 146.357317 251.244362 
L 146.788671 251.6484 
L 147.220026 249.782525 
L 147.65138 237.357392 
L 148.082734 218.154487 
L 148.514089 215.122023 
L 148.945443 173.984077 
L 149.376797 71.084302 
L 149.808152 81.671104 
L 150.239506 121.350899 
L 150.67086 118.84199 
L 151.102215 157.643019 
L 151.533569 227.298994 
L 151.964923 231.067086 
L 152.396278 216.379895 
L 152.827632 219.738099 
L 153.690341 205.216305 
L 154.55305 225.31538 
L 154.984404 230.272029 
L 155.415758 237.309219 
L 155.847113 249.649505 
L 156.278467 248.555579 
L 156.709821 249.742663 
L 157.141176 249.374739 
L 157.57253 237.802576 
L 158.003885 210.183666 
L 158.435239 202.537785 
L 158.866593 207.933086 
L 159.297948 194.271439 
L 159.729302 192.990765 
L 160.160656 215.305333 
L 160.592011 220.979071 
L 161.023365 217.796402 
L 161.454719 226.4112 
L 161.886074 226.317269 
L 162.317428 224.997972 
L 162.748782 220.885997 
L 163.180137 212.050936 
L 164.042846 203.92622 
L 164.4742 209.518613 
L 166.199617 248.459967 
L 166.630972 252.8105 
L 167.062326 250.710627 
L 167.49368 246.004038 
L 167.925035 237.016875 
L 168.356389 208.704105 
L 168.787744 208.281671 
L 169.219098 187.837533 
L 169.650452 174.231854 
L 170.081807 173.583464 
L 170.513161 202.424449 
L 170.944515 203.702206 
L 171.37587 221.847675 
L 171.807224 226.125169 
L 172.238578 233.333355 
L 173.101287 220.217637 
L 173.532641 216.505224 
L 173.963996 218.1063 
L 174.39535 212.584834 
L 174.826705 226.302325 
L 175.689413 239.769968 
L 176.552122 253.507422 
L 177.414831 248.247159 
L 177.846185 248.037693 
L 178.277539 236.118452 
L 178.708894 218.936225 
L 179.140248 207.317159 
L 179.571603 198.870566 
L 180.002957 206.650428 
L 180.434311 208.019514 
L 181.29702 222.081566 
L 181.728374 226.747388 
L 182.159729 207.825123 
L 182.591083 207.633608 
L 183.022437 208.375462 
L 183.453792 211.104703 
L 183.885146 212.648599 
L 184.747855 184.871186 
L 185.179209 204.454021 
L 185.610564 215.408611 
L 186.041918 220.378861 
L 186.904627 253.136863 
L 187.335981 252.093327 
L 187.767335 247.618791 
L 188.19869 247.332947 
L 189.061398 203.949816 
L 189.492753 204.827127 
L 189.924107 198.667803 
L 190.355462 198.222858 
L 190.786816 205.039295 
L 191.21817 222.354915 
L 192.512233 202.356738 
L 192.943588 210.889466 
L 193.374942 206.150538 
L 193.806296 206.829046 
L 194.237651 211.288527 
L 194.669005 214.458021 
L 195.100359 220.575841 
L 195.531714 231.513833 
L 196.825777 248.61723 
L 197.257131 244.823948 
L 197.688486 242.123451 
L 198.11984 241.778552 
L 198.551194 240.338161 
L 199.413903 205.724304 
L 199.845257 167.19535 
L 200.276612 113.794689 
L 200.707966 33.445398 
L 202.002029 129.537305 
L 202.864738 227.815338 
L 203.296092 216.360963 
L 203.727447 214.33707 
L 204.158801 210.435229 
L 204.590155 215.761518 
L 205.02151 208.361159 
L 205.884218 224.60381 
L 206.746927 237.323627 
L 207.178282 252.804211 
L 207.609636 253.12392 
L 208.04099 250.569358 
L 208.472345 250.536749 
L 208.903699 243.471551 
L 209.335053 229.770939 
L 209.766408 208.361047 
L 210.197762 204.935494 
L 210.629116 199.274848 
L 211.060471 199.512706 
L 211.491825 196.498701 
L 211.923179 205.462056 
L 212.354534 201.656875 
L 212.785888 195.04772 
L 213.217243 197.030818 
L 213.648597 205.138536 
L 214.079951 210.90063 
L 214.511306 213.131825 
L 214.94266 216.783912 
L 215.374014 217.843245 
L 215.805369 222.582333 
L 217.530786 247.944625 
L 217.962141 252.177861 
L 218.393495 249.318422 
L 218.824849 247.410838 
L 219.256204 230.015329 
L 220.118912 209.85638 
L 220.981621 199.722173 
L 221.412975 209.652454 
L 221.84433 208.540104 
L 222.275684 211.637174 
L 222.707038 213.781601 
L 223.138393 213.793628 
L 223.569747 212.501915 
L 224.001102 214.545423 
L 224.432456 215.166737 
L 224.86381 214.883796 
L 225.295165 214.453935 
L 225.726519 212.701442 
L 226.157873 212.482447 
L 226.589228 215.061245 
L 227.020582 223.587486 
L 227.451936 227.82786 
L 228.746 250.78226 
L 229.177354 248.014542 
L 230.471417 217.835735 
L 230.902771 216.88788 
L 231.334126 211.191805 
L 231.76548 222.705922 
L 232.628189 221.617647 
L 233.059543 214.811477 
L 233.490897 215.725651 
L 233.922252 205.981164 
L 234.353606 213.765056 
L 234.784961 212.955581 
L 235.216315 219.077486 
L 235.647669 217.103117 
L 236.079024 219.987024 
L 236.510378 218.801318 
L 236.941732 230.075293 
L 237.373087 232.369894 
L 238.66715 252.974685 
L 239.098504 249.964655 
L 239.529859 248.488675 
L 239.961213 249.358316 
L 240.392567 241.228822 
L 240.823922 228.679682 
L 241.255276 219.448386 
L 241.68663 213.127252 
L 242.117985 208.941337 
L 242.549339 210.164295 
L 243.412048 213.732272 
L 244.274756 176.135959 
L 244.706111 176.220813 
L 245.137465 189.28493 
L 245.56882 193.07628 
L 246.000174 203.927292 
L 246.431528 219.709951 
L 246.862883 221.009265 
L 247.294237 215.764782 
L 247.725591 221.539948 
L 248.156946 231.531252 
L 248.5883 235.021773 
L 249.451009 250.619995 
L 249.882363 251.216854 
L 250.313718 249.42769 
L 250.745072 241.448493 
L 251.176426 231.158887 
L 251.607781 228.375247 
L 252.039135 223.889289 
L 252.470489 210.2088 
L 252.901844 210.56605 
L 253.333198 206.008024 
L 253.764552 189.973962 
L 254.195907 191.10933 
L 254.627261 133.133123 
L 255.058615 105.491626 
L 255.48997 134.659751 
L 255.921324 154.042189 
L 256.352679 150.823583 
L 256.784033 209.378555 
L 257.215387 229.438336 
L 257.646742 227.172279 
L 258.078096 232.945677 
L 258.940805 250.760032 
L 259.372159 248.763048 
L 259.803513 249.063174 
L 260.234868 248.570491 
L 260.666222 248.629101 
L 261.097577 233.448083 
L 261.528931 225.7937 
L 261.960285 224.739726 
L 262.822994 182.337067 
L 263.254348 179.795904 
L 263.685703 190.020283 
L 264.117057 185.194713 
L 265.41112 216.333671 
L 265.842474 210.972469 
L 266.273829 211.979216 
L 266.705183 215.451091 
L 267.136538 213.523411 
L 267.567892 222.203192 
L 268.430601 232.012185 
L 269.293309 247.958501 
L 269.724664 240.413827 
L 270.156018 240.548598 
L 270.587372 240.156226 
L 271.018727 236.46988 
L 272.31279 207.716889 
L 272.744144 205.965893 
L 273.175499 205.783321 
L 273.606853 203.031111 
L 274.469562 209.085007 
L 274.900916 204.114339 
L 275.33227 191.398355 
L 275.763625 197.561668 
L 276.194979 190.906768 
L 276.626333 165.265618 
L 277.057688 176.182023 
L 277.489042 192.992324 
L 277.920397 198.576663 
L 278.351751 215.314806 
L 278.783105 238.436983 
L 279.21446 240.463257 
L 280.077168 253.704732 
L 280.508523 249.687864 
L 280.939877 248.761763 
L 281.371231 241.97146 
L 282.23394 217.79636 
L 283.096649 225.701969 
L 283.528003 219.878122 
L 283.959358 219.055408 
L 284.390712 217.588724 
L 284.822066 199.086186 
L 285.253421 191.075684 
L 285.684775 201.651202 
L 286.116129 204.876268 
L 286.978838 214.614783 
L 287.410192 213.12183 
L 287.841547 210.56951 
L 288.272901 219.922933 
L 288.704256 225.144697 
L 289.998319 245.729247 
L 290.429673 247.862805 
L 290.861027 247.105345 
L 291.292382 244.89808 
L 291.723736 244.696653 
L 292.586445 228.019334 
L 293.017799 223.197048 
L 293.449154 207.712385 
L 293.880508 207.427391 
L 294.311862 209.20522 
L 294.743217 196.974139 
L 295.174571 98.429258 
L 296.03728 137.070671 
L 296.468634 150.183726 
L 296.899988 149.582597 
L 297.331343 217.041997 
L 297.762697 199.300017 
L 298.194051 191.623183 
L 298.625406 181.572361 
L 299.488115 225.737321 
L 299.919469 234.149689 
L 300.350823 236.935497 
L 300.782178 244.572228 
L 301.213532 240.741405 
L 301.644886 240.330062 
L 302.076241 239.604043 
L 302.507595 223.193262 
L 303.370304 201.896752 
L 303.801658 201.520904 
L 304.233013 199.421727 
L 304.664367 201.593821 
L 305.095721 213.251858 
L 305.527076 218.25977 
L 305.95843 208.163107 
L 306.389784 202.16715 
L 306.821139 209.90021 
L 307.252493 203.438887 
L 307.683847 206.607935 
L 308.546556 215.769613 
L 308.97791 218.300837 
L 309.409265 227.494052 
L 309.840619 232.27753 
L 311.134682 250.269291 
L 311.997391 245.600616 
L 312.428745 245.062492 
L 313.291454 211.803097 
L 313.722808 201.655929 
L 314.154163 198.517479 
L 314.585517 202.88971 
L 315.016872 212.158286 
L 315.448226 214.560374 
L 315.87958 219.109316 
L 316.310935 217.623985 
L 316.742289 196.460266 
L 317.173643 189.257812 
L 317.604998 176.709058 
L 318.036352 179.04759 
L 318.467706 185.869407 
L 318.899061 197.301237 
L 319.330415 199.483145 
L 319.761769 220.997363 
L 320.193124 226.061975 
L 320.624478 226.649016 
L 321.055833 232.277328 
L 321.487187 241.864252 
L 321.918541 243.880618 
L 322.349896 243.172799 
L 322.78125 241.846848 
L 323.212604 236.351247 
L 323.643959 207.560732 
L 324.075313 186.446418 
L 324.506667 87.076477 
L 324.938022 77.543078 
L 325.369376 94.570809 
L 325.800731 116.401753 
L 326.232085 130.463081 
L 326.663439 207.737325 
L 327.094794 212.751014 
L 327.526148 196.345927 
L 327.957502 193.99857 
L 328.388857 199.469197 
L 328.820211 201.68952 
L 329.251565 205.25955 
L 329.68292 217.108657 
L 330.114274 224.147103 
L 330.545628 227.505279 
L 330.976983 231.797839 
L 331.408337 237.951352 
L 331.839692 246.093834 
L 332.271046 242.285075 
L 332.7024 242.834158 
L 333.133755 244.093804 
L 333.565109 225.162592 
L 333.996463 200.150642 
L 334.427818 203.001801 
L 334.859172 204.434623 
L 335.290526 199.901466 
L 335.721881 210.905851 
L 336.153235 225.477711 
L 336.58459 217.435059 
L 337.015944 206.258251 
L 337.447298 199.793942 
L 337.878653 202.441968 
L 338.741361 213.254732 
L 339.60407 217.477482 
L 340.035424 220.831413 
L 340.466779 228.799046 
L 340.898133 233.100484 
L 341.329487 240.591099 
L 341.760842 245.234251 
L 342.192196 246.069775 
L 342.623551 243.810241 
L 343.054905 242.569617 
L 343.486259 240.04463 
L 343.917614 231.244991 
L 344.348968 205.426301 
L 344.780322 207.125449 
L 345.211677 212.113642 
L 345.643031 192.450261 
L 346.074385 184.994754 
L 346.50574 185.269071 
L 347.368449 174.6642 
L 348.662512 220.239938 
L 349.093866 220.937622 
L 349.52522 221.364128 
L 349.956575 223.174678 
L 350.387929 226.120129 
L 352.113346 249.143539 
L 352.544701 250.457229 
L 352.976055 249.394051 
L 353.40741 249.006168 
L 353.838764 248.991655 
L 354.270118 235.245098 
L 354.701473 217.281533 
L 355.132827 215.179857 
L 355.564181 200.1931 
L 355.995536 197.437417 
L 356.42689 103.425122 
L 356.858244 105.832269 
L 357.289599 125.264683 
L 357.720953 136.008595 
L 358.152308 133.04964 
L 358.583662 216.791743 
L 359.015016 222.948221 
L 359.446371 216.719911 
L 359.877725 216.128548 
L 360.309079 216.164164 
L 360.740434 211.524833 
L 361.171788 224.524914 
L 361.603142 231.688045 
L 362.034497 236.409439 
L 362.465851 242.844 
L 362.897205 252.933626 
L 363.32856 248.232139 
L 363.759914 247.615645 
L 364.191269 245.329476 
L 364.622623 226.873281 
L 365.053977 217.829874 
L 365.485332 221.310255 
L 365.916686 222.642812 
L 366.34804 218.454181 
L 366.779395 225.109798 
L 367.210749 228.262057 
L 368.073458 193.618733 
L 369.367521 172.930633 
L 369.798875 193.4595 
L 370.23023 201.620806 
L 370.661584 205.509004 
L 371.092938 221.82158 
L 371.524293 233.594899 
L 371.955647 231.750759 
L 372.387001 236.625115 
L 372.818356 247.437876 
L 373.24971 244.734838 
L 373.681064 246.107389 
L 374.112419 245.302174 
L 374.543773 243.582879 
L 375.837836 191.299391 
L 376.269191 88.63941 
L 376.700545 75.841633 
L 377.131899 108.382035 
L 377.994608 144.526859 
L 378.425962 219.927826 
L 378.857317 237.437868 
L 379.288671 236.506499 
L 379.720026 242.142509 
L 380.15138 242.859619 
L 380.582734 237.849162 
L 381.014089 229.852417 
L 381.876797 209.202638 
L 382.308152 210.981531 
L 384.033569 249.432382 
L 384.464923 250.790174 
L 385.327632 239.508956 
L 385.758987 237.088146 
L 386.190341 238.191837 
L 386.621695 235.586858 
L 387.484404 240.366514 
L 387.915758 234.92905 
L 388.347113 221.514035 
L 389.209821 203.071127 
L 389.641176 198.245187 
L 390.503885 208.423113 
L 390.935239 209.994928 
L 391.366593 213.018057 
L 391.797948 212.343273 
L 392.229302 210.610924 
L 392.660656 225.360366 
L 393.954719 246.330004 
L 394.386074 253.838097 
L 394.817428 249.425898 
L 395.248782 249.820975 
L 396.111491 229.027087 
L 396.542846 195.956986 
L 396.9742 152.782326 
L 397.405554 139.634664 
L 397.836909 159.124613 
L 398.268263 162.305814 
L 398.699617 181.253261 
L 399.130972 209.596994 
L 399.562326 211.514246 
L 399.99368 200.090407 
L 400.425035 198.803266 
L 400.856389 206.452126 
L 401.287744 209.099422 
L 401.719098 215.622087 
L 402.150452 214.201857 
L 402.581807 217.658676 
L 403.013161 228.862984 
L 404.307224 246.566154 
L 404.738578 252.380781 
L 405.169933 246.19619 
L 405.601287 245.444379 
L 406.463996 220.879621 
L 406.89535 221.376629 
L 407.326705 219.240082 
L 407.758059 214.288221 
L 408.189413 218.459569 
L 408.620768 216.055735 
L 409.052122 202.458408 
L 409.483476 194.311322 
L 409.914831 192.26146 
L 410.777539 210.586437 
L 411.208894 214.091158 
L 411.640248 216.520238 
L 412.071603 216.602914 
L 412.502957 220.694766 
L 412.934311 229.398515 
L 413.79702 241.462187 
L 414.228374 248.781253 
L 414.659729 243.951669 
L 415.091083 244.056869 
L 415.522437 243.297565 
L 415.953792 244.391192 
L 416.385146 235.996315 
L 416.8165 219.374807 
L 417.247855 208.591054 
L 417.679209 201.643052 
L 418.110564 202.717586 
L 418.541918 186.174447 
L 418.973272 191.163197 
L 419.404627 205.169482 
L 419.835981 205.876236 
L 420.267335 194.928446 
L 420.69869 211.321937 
L 421.130044 218.498596 
L 421.561398 212.021493 
L 421.992753 208.679542 
L 422.424107 213.565389 
L 422.855462 220.322363 
L 423.286816 220.851097 
L 423.71817 226.147526 
L 425.012233 248.526331 
L 425.443588 248.165176 
L 425.874942 247.342615 
L 426.306296 238.254878 
L 427.169005 211.563714 
L 427.600359 212.257688 
L 428.031714 214.831788 
L 428.463068 187.213393 
L 428.894423 174.142482 
L 429.325777 169.970063 
L 429.757131 172.365426 
L 430.188486 165.72623 
L 430.61984 200.588995 
L 431.051194 212.846212 
L 431.482549 221.445328 
L 431.913903 211.978388 
L 432.345257 210.928931 
L 432.776612 204.107066 
L 433.639321 228.292947 
L 434.070675 237.404733 
L 434.502029 241.665379 
L 434.933384 248.506616 
L 435.364738 249.220037 
L 435.796092 245.621692 
L 436.227447 245.545882 
L 436.658801 240.980763 
L 437.090155 225.537278 
L 437.52151 217.791133 
L 437.952864 219.728675 
L 438.384218 209.119795 
L 438.815573 209.152947 
L 439.246927 208.092097 
L 439.678282 207.463363 
L 440.109636 199.374925 
L 440.54099 215.832173 
L 440.972345 217.338121 
L 441.403699 227.87359 
L 441.835053 225.595739 
L 442.266408 215.721106 
L 442.697762 199.782227 
L 443.129116 193.918873 
L 443.560471 194.845172 
L 444.423179 225.750288 
L 445.285888 243.509074 
L 445.717243 250.459746 
L 446.148597 246.979216 
L 446.579951 247.754689 
L 447.011306 239.441573 
L 447.44266 222.277634 
L 447.874014 218.398248 
L 448.305369 217.429588 
L 448.736723 201.212905 
L 449.168077 195.497098 
L 449.599432 198.41381 
L 450.030786 205.558813 
L 450.462141 205.627269 
L 451.324849 231.753919 
L 451.756204 242.184535 
L 452.187558 241.742212 
L 452.618912 241.922852 
L 453.481621 219.399009 
L 453.912975 215.693856 
L 454.34433 220.31628 
L 455.638393 242.208479 
L 456.069747 249.936688 
L 456.501102 249.558348 
L 456.932456 247.97262 
L 457.36381 239.290055 
L 457.795165 218.280039 
L 458.226519 207.306955 
L 458.657873 208.287037 
L 459.089228 201.014784 
L 459.951936 209.373759 
L 460.383291 221.790822 
L 460.814645 221.950995 
L 461.246 228.306743 
L 461.677354 230.940761 
L 462.108708 243.272096 
L 462.971417 242.637276 
L 463.402771 243.365749 
L 464.26548 246.125559 
L 464.696834 244.947391 
L 465.128189 246.015755 
L 465.559543 247.501803 
L 466.422252 249.17871 
L 466.853606 249.988387 
L 467.284961 248.73735 
L 468.147669 249.199431 
L 468.579024 248.195746 
L 469.010378 248.361839 
L 469.441732 248.946726 
L 469.873087 249.20266 
L 470.304441 248.598476 
L 470.735795 248.253723 
L 471.16715 248.084178 
L 472.029859 192.306723 
L 472.461213 82.445352 
L 472.892567 82.83959 
L 473.755276 123.10374 
L 474.18663 123.306817 
L 474.617985 208.904078 
L 475.049339 212.3913 
L 475.480693 206.270452 
L 475.912048 213.248384 
L 476.774756 250.96597 
L 477.206111 253.345394 
L 477.637465 248.903624 
L 478.931528 207.331727 
L 479.362883 209.319948 
L 479.794237 207.017256 
L 480.225591 218.158447 
L 481.0883 234.054554 
L 481.519654 233.768335 
L 481.951009 231.788488 
L 482.382363 223.183733 
L 482.813718 229.131524 
L 483.245072 214.788626 
L 483.676426 232.536419 
L 484.539135 249.851145 
L 484.970489 250.504696 
L 485.401844 248.274521 
L 485.833198 247.353926 
L 486.264552 236.622216 
L 486.695907 221.054912 
L 487.127261 216.409915 
L 487.558615 217.208511 
L 487.98997 213.959516 
L 488.421324 217.184393 
L 488.852679 215.853688 
L 489.284033 220.085472 
L 489.715387 217.831406 
L 490.146742 205.003101 
L 490.578096 207.051397 
L 491.00945 213.613987 
L 491.440805 207.625457 
L 491.872159 213.388553 
L 492.303513 222.930137 
L 492.734868 218.439196 
L 493.166222 221.203148 
L 493.597577 226.086692 
L 494.028931 226.903183 
L 494.460285 230.797346 
L 494.89164 239.369111 
L 495.322994 245.396919 
L 495.754348 249.624691 
L 496.185703 247.518334 
L 496.617057 239.982438 
L 497.048411 217.633813 
L 497.479766 208.229405 
L 498.342474 214.283579 
L 498.773829 204.474763 
L 499.636538 216.197115 
L 500.499246 200.417796 
L 500.930601 215.706503 
L 501.793309 232.175198 
L 502.224664 237.123525 
L 502.656018 229.661897 
L 503.087372 211.551721 
L 503.518727 212.990961 
L 503.950081 215.241262 
L 504.381436 219.155631 
L 504.81279 225.394583 
L 505.244144 240.577561 
L 505.675499 241.093435 
L 506.106853 242.055301 
L 506.538207 240.650454 
L 506.969562 236.672484 
L 507.400916 226.873726 
L 507.83227 200.073444 
L 508.263625 183.209603 
L 508.694979 182.844794 
L 509.126333 197.662691 
L 509.557688 203.958113 
L 509.989042 222.558451 
L 510.420397 233.068006 
L 510.851751 227.502426 
L 511.283105 225.125424 
L 511.71446 224.054933 
L 512.145814 220.670565 
L 512.577168 221.707715 
L 513.008523 229.599466 
L 513.439877 223.586845 
L 513.871231 219.70762 
L 514.302586 227.831382 
L 514.73394 232.953744 
L 515.165295 235.076051 
L 515.596649 241.177406 
L 516.028003 248.878625 
L 516.459358 247.655935 
L 516.890712 247.537361 
L 517.322066 239.960892 
L 517.753421 209.039486 
L 518.184775 119.77392 
L 518.616129 65.527902 
L 519.910192 105.260972 
L 520.341547 191.736519 
L 520.772901 222.959775 
L 521.204256 221.530531 
L 521.63561 212.202478 
L 522.066964 209.989498 
L 522.498319 212.610929 
L 522.929673 208.986399 
L 523.361027 209.539981 
L 523.792382 215.355204 
L 524.223736 222.95335 
L 524.65509 218.963558 
L 525.086445 228.684199 
L 525.517799 234.430465 
L 525.949154 237.829391 
L 526.380508 245.188844 
L 526.811862 250.33419 
L 527.243217 247.163795 
L 528.968634 203.319927 
L 529.399988 198.245967 
L 529.831343 211.413654 
L 530.262697 209.100278 
L 531.125406 217.340954 
L 531.55676 215.36989 
L 531.988115 207.541953 
L 532.419469 207.67805 
L 532.850823 188.744085 
L 533.282178 183.842284 
L 533.713532 191.813418 
L 534.144886 186.375206 
L 534.576241 194.694361 
L 535.007595 221.031622 
L 535.438949 232.388938 
L 535.870304 234.692358 
L 536.301658 242.95063 
L 536.733013 246.612019 
L 537.164367 245.427642 
L 537.595721 245.933233 
L 538.027076 243.075956 
L 538.45843 214.745061 
L 538.889784 213.430163 
L 539.321139 210.075251 
L 539.752493 212.540176 
L 540.183847 205.687142 
L 540.615202 231.91073 
L 541.046556 234.666221 
L 541.47791 239.991532 
L 541.909265 238.747522 
L 542.340619 242.849965 
L 542.771974 236.683307 
L 543.203328 233.153386 
L 543.634682 221.748266 
L 544.066037 216.714976 
L 544.497391 215.063904 
L 544.928745 222.902922 
L 545.3601 226.117798 
L 545.791454 237.046063 
L 546.654163 249.243901 
L 547.516872 245.9255 
L 547.948226 244.621432 
L 548.37958 226.211763 
L 548.810935 212.952442 
L 549.242289 194.530763 
L 549.673643 201.276308 
L 550.104998 200.949753 
L 550.536352 208.106387 
L 550.967706 211.524353 
L 551.399061 225.955307 
L 551.830415 212.61301 
L 552.261769 205.074104 
L 552.693124 205.433964 
L 553.124478 200.303966 
L 553.555833 178.333249 
L 553.987187 166.026794 
L 554.418541 170.661128 
L 554.849896 181.730724 
L 555.28125 196.078028 
L 555.712604 222.067882 
L 556.143959 236.499288 
L 556.575313 242.568287 
L 557.438022 247.519556 
L 557.869376 243.628581 
L 558.300731 242.689145 
L 558.732085 237.08208 
L 559.594794 200.439116 
L 560.026148 199.246881 
L 560.457502 192.156072 
L 560.888857 189.4553 
L 561.751565 214.703758 
L 562.18292 208.417545 
L 562.614274 206.646419 
L 563.045628 201.98984 
L 563.476983 195.560111 
L 563.908337 196.223264 
L 564.339692 201.426472 
L 564.771046 204.82316 
L 565.2024 209.706836 
L 565.633755 217.534815 
L 566.065109 227.433093 
L 567.359172 245.297183 
L 567.790526 246.767219 
L 568.221881 245.096984 
L 568.653235 241.032556 
L 569.947298 200.520978 
L 570.378653 194.178295 
L 570.810007 180.984735 
L 571.241361 82.616801 
L 571.672716 73.935928 
L 572.10407 104.366712 
L 572.966779 117.451592 
L 573.398133 208.540494 
L 573.829487 219.413702 
L 574.692196 209.737427 
L 575.123551 211.534084 
L 575.554905 212.442445 
L 575.986259 213.983376 
L 576.417614 223.755468 
L 576.417614 223.755468 
" style="fill:none;stroke:#008000;stroke-dasharray:5.55,2.4;stroke-dashoffset:0;stroke-width:1.5;"/>
   </g>
   <g id="patch_3">
    <path d="M 43.78125 267.118125 
L 43.78125 22.318125 
" style="fill:none;stroke:#000000;stroke-linecap:square;stroke-linejoin:miter;stroke-width:0.8;"/>
   </g>
   <g id="patch_4">
    <path d="M 601.78125 267.118125 
L 601.78125 22.318125 
" style="fill:none;stroke:#000000;stroke-linecap:square;stroke-linejoin:miter;stroke-width:0.8;"/>
   </g>
   <g id="patch_5">
    <path d="M 43.78125 267.118125 
L 601.78125 267.118125 
" style="fill:none;stroke:#000000;stroke-linecap:square;stroke-linejoin:miter;stroke-width:0.8;"/>
   </g>
   <g id="patch_6">
    <path d="M 43.78125 22.318125 
L 601.78125 22.318125 
" style="fill:none;stroke:#000000;stroke-linecap:square;stroke-linejoin:miter;stroke-width:0.8;"/>
   </g>
   <g id="text_16">
    <!-- Previsão de Consumo Casa 26 -->
    <g transform="translate(232.013438 16.318125)scale(0.12 -0.12)">
     <defs>
      <path d="M 2.984375 54.6875 
L 12.5 54.6875 
L 29.59375 8.796875 
L 46.6875 54.6875 
L 56.203125 54.6875 
L 35.6875 0 
L 23.484375 0 
z
" id="DejaVuSans-118"/>
      <path d="M 44.28125 53.078125 
L 44.28125 44.578125 
Q 40.484375 46.53125 36.375 47.5 
Q 32.28125 48.484375 27.875 48.484375 
Q 21.1875 48.484375 17.84375 46.4375 
Q 14.5 44.390625 14.5 40.28125 
Q 14.5 37.15625 16.890625 35.375 
Q 19.28125 33.59375 26.515625 31.984375 
L 29.59375 31.296875 
Q 39.15625 29.25 43.1875 25.515625 
Q 47.21875 21.78125 47.21875 15.09375 
Q 47.21875 7.46875 41.1875 3.015625 
Q 35.15625 -1.421875 24.609375 -1.421875 
Q 20.21875 -1.421875 15.453125 -0.5625 
Q 10.6875 0.296875 5.421875 2 
L 5.421875 11.28125 
Q 10.40625 8.6875 15.234375 7.390625 
Q 20.0625 6.109375 24.8125 6.109375 
Q 31.15625 6.109375 34.5625 8.28125 
Q 37.984375 10.453125 37.984375 14.40625 
Q 37.984375 18.0625 35.515625 20.015625 
Q 33.0625 21.96875 24.703125 23.78125 
L 21.578125 24.515625 
Q 13.234375 26.265625 9.515625 29.90625 
Q 5.8125 33.546875 5.8125 39.890625 
Q 5.8125 47.609375 11.28125 51.796875 
Q 16.75 56 26.8125 56 
Q 31.78125 56 36.171875 55.265625 
Q 40.578125 54.546875 44.28125 53.078125 
z
" id="DejaVuSans-115"/>
      <path d="M 34.28125 27.484375 
Q 23.390625 27.484375 19.1875 25 
Q 14.984375 22.515625 14.984375 16.5 
Q 14.984375 11.71875 18.140625 8.90625 
Q 21.296875 6.109375 26.703125 6.109375 
Q 34.1875 6.109375 38.703125 11.40625 
Q 43.21875 16.703125 43.21875 25.484375 
L 43.21875 27.484375 
z
M 52.203125 31.203125 
L 52.203125 0 
L 43.21875 0 
L 43.21875 8.296875 
Q 40.140625 3.328125 35.546875 0.953125 
Q 30.953125 -1.421875 24.3125 -1.421875 
Q 15.921875 -1.421875 10.953125 3.296875 
Q 6 8.015625 6 15.921875 
Q 6 25.140625 12.171875 29.828125 
Q 18.359375 34.515625 30.609375 34.515625 
L 43.21875 34.515625 
L 43.21875 35.40625 
Q 43.21875 41.609375 39.140625 45 
Q 35.0625 48.390625 27.6875 48.390625 
Q 23 48.390625 18.546875 47.265625 
Q 14.109375 46.140625 10.015625 43.890625 
L 10.015625 52.203125 
Q 14.9375 54.109375 19.578125 55.046875 
Q 24.21875 56 28.609375 56 
Q 40.484375 56 46.34375 49.84375 
Q 52.203125 43.703125 52.203125 31.203125 
z
M 28.8125 66.890625 
L 26.03125 69.578125 
Q 24.953125 70.5625 24.140625 71.015625 
Q 23.34375 71.484375 22.703125 71.484375 
Q 20.84375 71.484375 19.96875 69.703125 
Q 19.09375 67.921875 19 63.921875 
L 12.890625 63.921875 
Q 12.984375 70.515625 15.46875 74.09375 
Q 17.96875 77.6875 22.40625 77.6875 
Q 24.265625 77.6875 25.828125 77 
Q 27.390625 76.3125 29.203125 74.703125 
L 31.984375 72.015625 
Q 33.0625 71.046875 33.859375 70.578125 
Q 34.671875 70.125 35.296875 70.125 
Q 37.15625 70.125 38.03125 71.90625 
Q 38.921875 73.6875 39.015625 77.6875 
L 45.125 77.6875 
Q 45.015625 71.09375 42.53125 67.5 
Q 40.046875 63.921875 35.59375 63.921875 
Q 33.734375 63.921875 32.171875 64.59375 
Q 30.609375 65.28125 28.8125 66.890625 
z
" id="DejaVuSans-227"/>
      <path d="M 64.40625 67.28125 
L 64.40625 56.890625 
Q 59.421875 61.53125 53.78125 63.8125 
Q 48.140625 66.109375 41.796875 66.109375 
Q 29.296875 66.109375 22.65625 58.46875 
Q 16.015625 50.828125 16.015625 36.375 
Q 16.015625 21.96875 22.65625 14.328125 
Q 29.296875 6.6875 41.796875 6.6875 
Q 48.140625 6.6875 53.78125 8.984375 
Q 59.421875 11.28125 64.40625 15.921875 
L 64.40625 5.609375 
Q 59.234375 2.09375 53.4375 0.328125 
Q 47.65625 -1.421875 41.21875 -1.421875 
Q 24.65625 -1.421875 15.125 8.703125 
Q 5.609375 18.84375 5.609375 36.375 
Q 5.609375 53.953125 15.125 64.078125 
Q 24.65625 74.21875 41.21875 74.21875 
Q 47.75 74.21875 53.53125 72.484375 
Q 59.328125 70.75 64.40625 67.28125 
z
" id="DejaVuSans-67"/>
      <path d="M 8.5 21.578125 
L 8.5 54.6875 
L 17.484375 54.6875 
L 17.484375 21.921875 
Q 17.484375 14.15625 20.5 10.265625 
Q 23.53125 6.390625 29.59375 6.390625 
Q 36.859375 6.390625 41.078125 11.03125 
Q 45.3125 15.671875 45.3125 23.6875 
L 45.3125 54.6875 
L 54.296875 54.6875 
L 54.296875 0 
L 45.3125 0 
L 45.3125 8.40625 
Q 42.046875 3.421875 37.71875 1 
Q 33.40625 -1.421875 27.6875 -1.421875 
Q 18.265625 -1.421875 13.375 4.4375 
Q 8.5 10.296875 8.5 21.578125 
z
M 31.109375 56 
z
" id="DejaVuSans-117"/>
      <path d="M 52 44.1875 
Q 55.375 50.25 60.0625 53.125 
Q 64.75 56 71.09375 56 
Q 79.640625 56 84.28125 50.015625 
Q 88.921875 44.046875 88.921875 33.015625 
L 88.921875 0 
L 79.890625 0 
L 79.890625 32.71875 
Q 79.890625 40.578125 77.09375 44.375 
Q 74.3125 48.1875 68.609375 48.1875 
Q 61.625 48.1875 57.5625 43.546875 
Q 53.515625 38.921875 53.515625 30.90625 
L 53.515625 0 
L 44.484375 0 
L 44.484375 32.71875 
Q 44.484375 40.625 41.703125 44.40625 
Q 38.921875 48.1875 33.109375 48.1875 
Q 26.21875 48.1875 22.15625 43.53125 
Q 18.109375 38.875 18.109375 30.90625 
L 18.109375 0 
L 9.078125 0 
L 9.078125 54.6875 
L 18.109375 54.6875 
L 18.109375 46.1875 
Q 21.1875 51.21875 25.484375 53.609375 
Q 29.78125 56 35.6875 56 
Q 41.65625 56 45.828125 52.96875 
Q 50 49.953125 52 44.1875 
z
" id="DejaVuSans-109"/>
     </defs>
     <use xlink:href="#DejaVuSans-80"/>
     <use x="58.552734" xlink:href="#DejaVuSans-114"/>
     <use x="97.416016" xlink:href="#DejaVuSans-101"/>
     <use x="158.939453" xlink:href="#DejaVuSans-118"/>
     <use x="218.119141" xlink:href="#DejaVuSans-105"/>
     <use x="245.902344" xlink:href="#DejaVuSans-115"/>
     <use x="298.001953" xlink:href="#DejaVuSans-227"/>
     <use x="359.28125" xlink:href="#DejaVuSans-111"/>
     <use x="420.462891" xlink:href="#DejaVuSans-32"/>
     <use x="452.25" xlink:href="#DejaVuSans-100"/>
     <use x="515.726562" xlink:href="#DejaVuSans-101"/>
     <use x="577.25" xlink:href="#DejaVuSans-32"/>
     <use x="609.037109" xlink:href="#DejaVuSans-67"/>
     <use x="678.861328" xlink:href="#DejaVuSans-111"/>
     <use x="740.042969" xlink:href="#DejaVuSans-110"/>
     <use x="803.421875" xlink:href="#DejaVuSans-115"/>
     <use x="855.521484" xlink:href="#DejaVuSans-117"/>
     <use x="918.900391" xlink:href="#DejaVuSans-109"/>
     <use x="1016.3125" xlink:href="#DejaVuSans-111"/>
     <use x="1077.494141" xlink:href="#DejaVuSans-32"/>
     <use x="1109.28125" xlink:href="#DejaVuSans-67"/>
     <use x="1179.105469" xlink:href="#DejaVuSans-97"/>
     <use x="1240.384766" xlink:href="#DejaVuSans-115"/>
     <use x="1292.484375" xlink:href="#DejaVuSans-97"/>
     <use x="1353.763672" xlink:href="#DejaVuSans-32"/>
     <use x="1385.550781" xlink:href="#DejaVuSans-50"/>
     <use x="1449.173828" xlink:href="#DejaVuSans-54"/>
    </g>
   </g>
   <g id="legend_1">
    <g id="patch_7">
     <path d="M 522.942188 59.674375 
L 594.78125 59.674375 
Q 596.78125 59.674375 596.78125 57.674375 
L 596.78125 29.318125 
Q 596.78125 27.318125 594.78125 27.318125 
L 522.942188 27.318125 
Q 520.942188 27.318125 520.942188 29.318125 
L 520.942188 57.674375 
Q 520.942188 59.674375 522.942188 59.674375 
z
" style="fill:#ffffff;opacity:0.8;stroke:#cccccc;stroke-linejoin:miter;"/>
    </g>
    <g id="line2d_17">
     <path d="M 524.942188 35.416562 
L 544.942188 35.416562 
" style="fill:none;stroke:#000000;stroke-linecap:square;stroke-width:1.5;"/>
    </g>
    <g id="line2d_18"/>
    <g id="text_17">
     <!-- Real -->
     <g transform="translate(552.942188 38.916562)scale(0.1 -0.1)">
      <defs>
       <path d="M 44.390625 34.1875 
Q 47.5625 33.109375 50.5625 29.59375 
Q 53.5625 26.078125 56.59375 19.921875 
L 66.609375 0 
L 56 0 
L 46.6875 18.703125 
Q 43.0625 26.03125 39.671875 28.421875 
Q 36.28125 30.8125 30.421875 30.8125 
L 19.671875 30.8125 
L 19.671875 0 
L 9.8125 0 
L 9.8125 72.90625 
L 32.078125 72.90625 
Q 44.578125 72.90625 50.734375 67.671875 
Q 56.890625 62.453125 56.890625 51.90625 
Q 56.890625 45.015625 53.6875 40.46875 
Q 50.484375 35.9375 44.390625 34.1875 
z
M 19.671875 64.796875 
L 19.671875 38.921875 
L 32.078125 38.921875 
Q 39.203125 38.921875 42.84375 42.21875 
Q 46.484375 45.515625 46.484375 51.90625 
Q 46.484375 58.296875 42.84375 61.546875 
Q 39.203125 64.796875 32.078125 64.796875 
z
" id="DejaVuSans-82"/>
       <path d="M 9.421875 75.984375 
L 18.40625 75.984375 
L 18.40625 0 
L 9.421875 0 
z
" id="DejaVuSans-108"/>
      </defs>
      <use xlink:href="#DejaVuSans-82"/>
      <use x="64.982422" xlink:href="#DejaVuSans-101"/>
      <use x="126.505859" xlink:href="#DejaVuSans-97"/>
      <use x="187.785156" xlink:href="#DejaVuSans-108"/>
     </g>
    </g>
    <g id="line2d_19">
     <path d="M 524.942188 50.094688 
L 544.942188 50.094688 
" style="fill:none;stroke:#008000;stroke-dasharray:5.55,2.4;stroke-dashoffset:0;stroke-width:1.5;"/>
    </g>
    <g id="line2d_20"/>
    <g id="text_18">
     <!-- Previsto -->
     <g transform="translate(552.942188 53.594688)scale(0.1 -0.1)">
      <defs>
       <path d="M 18.3125 70.21875 
L 18.3125 54.6875 
L 36.8125 54.6875 
L 36.8125 47.703125 
L 18.3125 47.703125 
L 18.3125 18.015625 
Q 18.3125 11.328125 20.140625 9.421875 
Q 21.96875 7.515625 27.59375 7.515625 
L 36.8125 7.515625 
L 36.8125 0 
L 27.59375 0 
Q 17.1875 0 13.234375 3.875 
Q 9.28125 7.765625 9.28125 18.015625 
L 9.28125 47.703125 
L 2.6875 47.703125 
L 2.6875 54.6875 
L 9.28125 54.6875 
L 9.28125 70.21875 
z
" id="DejaVuSans-116"/>
      </defs>
      <use xlink:href="#DejaVuSans-80"/>
      <use x="58.552734" xlink:href="#DejaVuSans-114"/>
      <use x="97.416016" xlink:href="#DejaVuSans-101"/>
      <use x="158.939453" xlink:href="#DejaVuSans-118"/>
      <use x="218.119141" xlink:href="#DejaVuSans-105"/>
      <use x="245.902344" xlink:href="#DejaVuSans-115"/>
      <use x="298.001953" xlink:href="#DejaVuSans-116"/>
      <use x="337.210938" xlink:href="#DejaVuSans-111"/>
     </g>
    </g>
   </g>
  </g>
 </g>
 <defs>
  <clipPath id="pbbb06d0076">
   <rect height="244.8" width="558" x="43.78125" y="22.318125"/>
  </clipPath>
 </defs>
</svg>
