<?xml version="1.0" encoding="utf-8" standalone="no"?>
<!DOCTYPE svg PUBLIC "-//W3C//DTD SVG 1.1//EN"
  "http://www.w3.org/Graphics/SVG/1.1/DTD/svg11.dtd">
<!-- Created with matplotlib (https://matplotlib.org/) -->
<svg height="288pt" version="1.1" viewBox="0 0 432 288" width="432pt" xmlns="http://www.w3.org/2000/svg" xmlns:xlink="http://www.w3.org/1999/xlink">
 <metadata>
  <rdf:RDF xmlns:cc="http://creativecommons.org/ns#" xmlns:dc="http://purl.org/dc/elements/1.1/" xmlns:rdf="http://www.w3.org/1999/02/22-rdf-syntax-ns#">
   <cc:Work>
    <dc:type rdf:resource="http://purl.org/dc/dcmitype/StillImage"/>
    <dc:date>2021-07-21T14:57:54.763098</dc:date>
    <dc:format>image/svg+xml</dc:format>
    <dc:creator>
     <cc:Agent>
      <dc:title>Matplotlib v3.3.4, https://matplotlib.org/</dc:title>
     </cc:Agent>
    </dc:creator>
   </cc:Work>
  </rdf:RDF>
 </metadata>
 <defs>
  <style type="text/css">*{stroke-linecap:butt;stroke-linejoin:round;}</style>
 </defs>
 <g id="figure_1">
  <g id="patch_1">
   <path d="M 0 288 
L 432 288 
L 432 0 
L 0 0 
z
" style="fill:#ffffff;"/>
  </g>
  <g id="axes_1">
   <g id="patch_2">
    <path d="M 54 252 
L 388.8 252 
L 388.8 34.56 
L 54 34.56 
z
" style="fill:#ffffff;"/>
   </g>
   <g id="matplotlib.axis_1">
    <g id="xtick_1">
     <g id="line2d_1">
      <defs>
       <path d="M 0 0 
L 0 3.5 
" id="mb039120e08" style="stroke:#000000;stroke-width:0.8;"/>
      </defs>
      <g>
       <use style="stroke:#000000;stroke-width:0.8;" x="65.326775" xlink:href="#mb039120e08" y="252"/>
      </g>
     </g>
     <g id="text_1">
      <!-- 2017-05 -->
      <g transform="translate(52.505492 293.917817)rotate(-45)scale(0.1 -0.1)">
       <defs>
        <path d="M 19.1875 8.296875 
L 53.609375 8.296875 
L 53.609375 0 
L 7.328125 0 
L 7.328125 8.296875 
Q 12.9375 14.109375 22.625 23.890625 
Q 32.328125 33.6875 34.8125 36.53125 
Q 39.546875 41.84375 41.421875 45.53125 
Q 43.3125 49.21875 43.3125 52.78125 
Q 43.3125 58.59375 39.234375 62.25 
Q 35.15625 65.921875 28.609375 65.921875 
Q 23.96875 65.921875 18.8125 64.3125 
Q 13.671875 62.703125 7.8125 59.421875 
L 7.8125 69.390625 
Q 13.765625 71.78125 18.9375 73 
Q 24.125 74.21875 28.421875 74.21875 
Q 39.75 74.21875 46.484375 68.546875 
Q 53.21875 62.890625 53.21875 53.421875 
Q 53.21875 48.921875 51.53125 44.890625 
Q 49.859375 40.875 45.40625 35.40625 
Q 44.1875 33.984375 37.640625 27.21875 
Q 31.109375 20.453125 19.1875 8.296875 
z
" id="DejaVuSans-50"/>
        <path d="M 31.78125 66.40625 
Q 24.171875 66.40625 20.328125 58.90625 
Q 16.5 51.421875 16.5 36.375 
Q 16.5 21.390625 20.328125 13.890625 
Q 24.171875 6.390625 31.78125 6.390625 
Q 39.453125 6.390625 43.28125 13.890625 
Q 47.125 21.390625 47.125 36.375 
Q 47.125 51.421875 43.28125 58.90625 
Q 39.453125 66.40625 31.78125 66.40625 
z
M 31.78125 74.21875 
Q 44.046875 74.21875 50.515625 64.515625 
Q 56.984375 54.828125 56.984375 36.375 
Q 56.984375 17.96875 50.515625 8.265625 
Q 44.046875 -1.421875 31.78125 -1.421875 
Q 19.53125 -1.421875 13.0625 8.265625 
Q 6.59375 17.96875 6.59375 36.375 
Q 6.59375 54.828125 13.0625 64.515625 
Q 19.53125 74.21875 31.78125 74.21875 
z
" id="DejaVuSans-48"/>
        <path d="M 12.40625 8.296875 
L 28.515625 8.296875 
L 28.515625 63.921875 
L 10.984375 60.40625 
L 10.984375 69.390625 
L 28.421875 72.90625 
L 38.28125 72.90625 
L 38.28125 8.296875 
L 54.390625 8.296875 
L 54.390625 0 
L 12.40625 0 
z
" id="DejaVuSans-49"/>
        <path d="M 8.203125 72.90625 
L 55.078125 72.90625 
L 55.078125 68.703125 
L 28.609375 0 
L 18.3125 0 
L 43.21875 64.59375 
L 8.203125 64.59375 
z
" id="DejaVuSans-55"/>
        <path d="M 4.890625 31.390625 
L 31.203125 31.390625 
L 31.203125 23.390625 
L 4.890625 23.390625 
z
" id="DejaVuSans-45"/>
        <path d="M 10.796875 72.90625 
L 49.515625 72.90625 
L 49.515625 64.59375 
L 19.828125 64.59375 
L 19.828125 46.734375 
Q 21.96875 47.46875 24.109375 47.828125 
Q 26.265625 48.1875 28.421875 48.1875 
Q 40.625 48.1875 47.75 41.5 
Q 54.890625 34.8125 54.890625 23.390625 
Q 54.890625 11.625 47.5625 5.09375 
Q 40.234375 -1.421875 26.90625 -1.421875 
Q 22.3125 -1.421875 17.546875 -0.640625 
Q 12.796875 0.140625 7.71875 1.703125 
L 7.71875 11.625 
Q 12.109375 9.234375 16.796875 8.0625 
Q 21.484375 6.890625 26.703125 6.890625 
Q 35.15625 6.890625 40.078125 11.328125 
Q 45.015625 15.765625 45.015625 23.390625 
Q 45.015625 31 40.078125 35.4375 
Q 35.15625 39.890625 26.703125 39.890625 
Q 22.75 39.890625 18.8125 39.015625 
Q 14.890625 38.140625 10.796875 36.28125 
z
" id="DejaVuSans-53"/>
       </defs>
       <use xlink:href="#DejaVuSans-50"/>
       <use x="63.623047" xlink:href="#DejaVuSans-48"/>
       <use x="127.246094" xlink:href="#DejaVuSans-49"/>
       <use x="190.869141" xlink:href="#DejaVuSans-55"/>
       <use x="254.492188" xlink:href="#DejaVuSans-45"/>
       <use x="290.576172" xlink:href="#DejaVuSans-48"/>
       <use x="354.199219" xlink:href="#DejaVuSans-53"/>
      </g>
     </g>
    </g>
    <g id="xtick_2">
     <g id="line2d_2">
      <g>
       <use style="stroke:#000000;stroke-width:0.8;" x="99.515567" xlink:href="#mb039120e08" y="252"/>
      </g>
     </g>
     <g id="text_2">
      <!-- 2017-09 -->
      <g transform="translate(86.694284 293.917817)rotate(-45)scale(0.1 -0.1)">
       <defs>
        <path d="M 10.984375 1.515625 
L 10.984375 10.5 
Q 14.703125 8.734375 18.5 7.8125 
Q 22.3125 6.890625 25.984375 6.890625 
Q 35.75 6.890625 40.890625 13.453125 
Q 46.046875 20.015625 46.78125 33.40625 
Q 43.953125 29.203125 39.59375 26.953125 
Q 35.25 24.703125 29.984375 24.703125 
Q 19.046875 24.703125 12.671875 31.3125 
Q 6.296875 37.9375 6.296875 49.421875 
Q 6.296875 60.640625 12.9375 67.421875 
Q 19.578125 74.21875 30.609375 74.21875 
Q 43.265625 74.21875 49.921875 64.515625 
Q 56.59375 54.828125 56.59375 36.375 
Q 56.59375 19.140625 48.40625 8.859375 
Q 40.234375 -1.421875 26.421875 -1.421875 
Q 22.703125 -1.421875 18.890625 -0.6875 
Q 15.09375 0.046875 10.984375 1.515625 
z
M 30.609375 32.421875 
Q 37.25 32.421875 41.125 36.953125 
Q 45.015625 41.5 45.015625 49.421875 
Q 45.015625 57.28125 41.125 61.84375 
Q 37.25 66.40625 30.609375 66.40625 
Q 23.96875 66.40625 20.09375 61.84375 
Q 16.21875 57.28125 16.21875 49.421875 
Q 16.21875 41.5 20.09375 36.953125 
Q 23.96875 32.421875 30.609375 32.421875 
z
" id="DejaVuSans-57"/>
       </defs>
       <use xlink:href="#DejaVuSans-50"/>
       <use x="63.623047" xlink:href="#DejaVuSans-48"/>
       <use x="127.246094" xlink:href="#DejaVuSans-49"/>
       <use x="190.869141" xlink:href="#DejaVuSans-55"/>
       <use x="254.492188" xlink:href="#DejaVuSans-45"/>
       <use x="290.576172" xlink:href="#DejaVuSans-48"/>
       <use x="354.199219" xlink:href="#DejaVuSans-57"/>
      </g>
     </g>
    </g>
    <g id="xtick_3">
     <g id="line2d_3">
      <g>
       <use style="stroke:#000000;stroke-width:0.8;" x="133.426401" xlink:href="#mb039120e08" y="252"/>
      </g>
     </g>
     <g id="text_3">
      <!-- 2018-01 -->
      <g transform="translate(120.605119 293.917817)rotate(-45)scale(0.1 -0.1)">
       <defs>
        <path d="M 31.78125 34.625 
Q 24.75 34.625 20.71875 30.859375 
Q 16.703125 27.09375 16.703125 20.515625 
Q 16.703125 13.921875 20.71875 10.15625 
Q 24.75 6.390625 31.78125 6.390625 
Q 38.8125 6.390625 42.859375 10.171875 
Q 46.921875 13.96875 46.921875 20.515625 
Q 46.921875 27.09375 42.890625 30.859375 
Q 38.875 34.625 31.78125 34.625 
z
M 21.921875 38.8125 
Q 15.578125 40.375 12.03125 44.71875 
Q 8.5 49.078125 8.5 55.328125 
Q 8.5 64.0625 14.71875 69.140625 
Q 20.953125 74.21875 31.78125 74.21875 
Q 42.671875 74.21875 48.875 69.140625 
Q 55.078125 64.0625 55.078125 55.328125 
Q 55.078125 49.078125 51.53125 44.71875 
Q 48 40.375 41.703125 38.8125 
Q 48.828125 37.15625 52.796875 32.3125 
Q 56.78125 27.484375 56.78125 20.515625 
Q 56.78125 9.90625 50.3125 4.234375 
Q 43.84375 -1.421875 31.78125 -1.421875 
Q 19.734375 -1.421875 13.25 4.234375 
Q 6.78125 9.90625 6.78125 20.515625 
Q 6.78125 27.484375 10.78125 32.3125 
Q 14.796875 37.15625 21.921875 38.8125 
z
M 18.3125 54.390625 
Q 18.3125 48.734375 21.84375 45.5625 
Q 25.390625 42.390625 31.78125 42.390625 
Q 38.140625 42.390625 41.71875 45.5625 
Q 45.3125 48.734375 45.3125 54.390625 
Q 45.3125 60.0625 41.71875 63.234375 
Q 38.140625 66.40625 31.78125 66.40625 
Q 25.390625 66.40625 21.84375 63.234375 
Q 18.3125 60.0625 18.3125 54.390625 
z
" id="DejaVuSans-56"/>
       </defs>
       <use xlink:href="#DejaVuSans-50"/>
       <use x="63.623047" xlink:href="#DejaVuSans-48"/>
       <use x="127.246094" xlink:href="#DejaVuSans-49"/>
       <use x="190.869141" xlink:href="#DejaVuSans-56"/>
       <use x="254.492188" xlink:href="#DejaVuSans-45"/>
       <use x="290.576172" xlink:href="#DejaVuSans-48"/>
       <use x="354.199219" xlink:href="#DejaVuSans-49"/>
      </g>
     </g>
    </g>
    <g id="xtick_4">
     <g id="line2d_4">
      <g>
       <use style="stroke:#000000;stroke-width:0.8;" x="166.78132" xlink:href="#mb039120e08" y="252"/>
      </g>
     </g>
     <g id="text_4">
      <!-- 2018-05 -->
      <g transform="translate(153.960038 293.917817)rotate(-45)scale(0.1 -0.1)">
       <use xlink:href="#DejaVuSans-50"/>
       <use x="63.623047" xlink:href="#DejaVuSans-48"/>
       <use x="127.246094" xlink:href="#DejaVuSans-49"/>
       <use x="190.869141" xlink:href="#DejaVuSans-56"/>
       <use x="254.492188" xlink:href="#DejaVuSans-45"/>
       <use x="290.576172" xlink:href="#DejaVuSans-48"/>
       <use x="354.199219" xlink:href="#DejaVuSans-53"/>
      </g>
     </g>
    </g>
    <g id="xtick_5">
     <g id="line2d_5">
      <g>
       <use style="stroke:#000000;stroke-width:0.8;" x="200.970112" xlink:href="#mb039120e08" y="252"/>
      </g>
     </g>
     <g id="text_5">
      <!-- 2018-09 -->
      <g transform="translate(188.14883 293.917817)rotate(-45)scale(0.1 -0.1)">
       <use xlink:href="#DejaVuSans-50"/>
       <use x="63.623047" xlink:href="#DejaVuSans-48"/>
       <use x="127.246094" xlink:href="#DejaVuSans-49"/>
       <use x="190.869141" xlink:href="#DejaVuSans-56"/>
       <use x="254.492188" xlink:href="#DejaVuSans-45"/>
       <use x="290.576172" xlink:href="#DejaVuSans-48"/>
       <use x="354.199219" xlink:href="#DejaVuSans-57"/>
      </g>
     </g>
    </g>
    <g id="xtick_6">
     <g id="line2d_6">
      <g>
       <use style="stroke:#000000;stroke-width:0.8;" x="234.880946" xlink:href="#mb039120e08" y="252"/>
      </g>
     </g>
     <g id="text_6">
      <!-- 2019-01 -->
      <g transform="translate(222.059664 293.917817)rotate(-45)scale(0.1 -0.1)">
       <use xlink:href="#DejaVuSans-50"/>
       <use x="63.623047" xlink:href="#DejaVuSans-48"/>
       <use x="127.246094" xlink:href="#DejaVuSans-49"/>
       <use x="190.869141" xlink:href="#DejaVuSans-57"/>
       <use x="254.492188" xlink:href="#DejaVuSans-45"/>
       <use x="290.576172" xlink:href="#DejaVuSans-48"/>
       <use x="354.199219" xlink:href="#DejaVuSans-49"/>
      </g>
     </g>
    </g>
    <g id="xtick_7">
     <g id="line2d_7">
      <g>
       <use style="stroke:#000000;stroke-width:0.8;" x="268.235866" xlink:href="#mb039120e08" y="252"/>
      </g>
     </g>
     <g id="text_7">
      <!-- 2019-05 -->
      <g transform="translate(255.414583 293.917817)rotate(-45)scale(0.1 -0.1)">
       <use xlink:href="#DejaVuSans-50"/>
       <use x="63.623047" xlink:href="#DejaVuSans-48"/>
       <use x="127.246094" xlink:href="#DejaVuSans-49"/>
       <use x="190.869141" xlink:href="#DejaVuSans-57"/>
       <use x="254.492188" xlink:href="#DejaVuSans-45"/>
       <use x="290.576172" xlink:href="#DejaVuSans-48"/>
       <use x="354.199219" xlink:href="#DejaVuSans-53"/>
      </g>
     </g>
    </g>
    <g id="xtick_8">
     <g id="line2d_8">
      <g>
       <use style="stroke:#000000;stroke-width:0.8;" x="302.424658" xlink:href="#mb039120e08" y="252"/>
      </g>
     </g>
     <g id="text_8">
      <!-- 2019-09 -->
      <g transform="translate(289.603375 293.917817)rotate(-45)scale(0.1 -0.1)">
       <use xlink:href="#DejaVuSans-50"/>
       <use x="63.623047" xlink:href="#DejaVuSans-48"/>
       <use x="127.246094" xlink:href="#DejaVuSans-49"/>
       <use x="190.869141" xlink:href="#DejaVuSans-57"/>
       <use x="254.492188" xlink:href="#DejaVuSans-45"/>
       <use x="290.576172" xlink:href="#DejaVuSans-48"/>
       <use x="354.199219" xlink:href="#DejaVuSans-57"/>
      </g>
     </g>
    </g>
    <g id="xtick_9">
     <g id="line2d_9">
      <g>
       <use style="stroke:#000000;stroke-width:0.8;" x="336.335492" xlink:href="#mb039120e08" y="252"/>
      </g>
     </g>
     <g id="text_9">
      <!-- 2020-01 -->
      <g transform="translate(323.51421 293.917817)rotate(-45)scale(0.1 -0.1)">
       <use xlink:href="#DejaVuSans-50"/>
       <use x="63.623047" xlink:href="#DejaVuSans-48"/>
       <use x="127.246094" xlink:href="#DejaVuSans-50"/>
       <use x="190.869141" xlink:href="#DejaVuSans-48"/>
       <use x="254.492188" xlink:href="#DejaVuSans-45"/>
       <use x="290.576172" xlink:href="#DejaVuSans-48"/>
       <use x="354.199219" xlink:href="#DejaVuSans-49"/>
      </g>
     </g>
    </g>
    <g id="xtick_10">
     <g id="line2d_10">
      <g>
       <use style="stroke:#000000;stroke-width:0.8;" x="369.968369" xlink:href="#mb039120e08" y="252"/>
      </g>
     </g>
     <g id="text_10">
      <!-- 2020-05 -->
      <g transform="translate(357.147086 293.917817)rotate(-45)scale(0.1 -0.1)">
       <use xlink:href="#DejaVuSans-50"/>
       <use x="63.623047" xlink:href="#DejaVuSans-48"/>
       <use x="127.246094" xlink:href="#DejaVuSans-50"/>
       <use x="190.869141" xlink:href="#DejaVuSans-48"/>
       <use x="254.492188" xlink:href="#DejaVuSans-45"/>
       <use x="290.576172" xlink:href="#DejaVuSans-48"/>
       <use x="354.199219" xlink:href="#DejaVuSans-53"/>
      </g>
     </g>
    </g>
   </g>
   <g id="matplotlib.axis_2">
    <g id="ytick_1">
     <g id="line2d_11">
      <defs>
       <path d="M 0 0 
L -3.5 0 
" id="mae75d4c96f" style="stroke:#000000;stroke-width:0.8;"/>
      </defs>
      <g>
       <use style="stroke:#000000;stroke-width:0.8;" x="54" xlink:href="#mae75d4c96f" y="242.116364"/>
      </g>
     </g>
     <g id="text_11">
      <!-- 0 -->
      <g transform="translate(40.6375 245.915582)scale(0.1 -0.1)">
       <use xlink:href="#DejaVuSans-48"/>
      </g>
     </g>
    </g>
    <g id="ytick_2">
     <g id="line2d_12">
      <g>
       <use style="stroke:#000000;stroke-width:0.8;" x="54" xlink:href="#mae75d4c96f" y="203.74821"/>
      </g>
     </g>
     <g id="text_12">
      <!-- 10 -->
      <g transform="translate(34.275 207.547429)scale(0.1 -0.1)">
       <use xlink:href="#DejaVuSans-49"/>
       <use x="63.623047" xlink:href="#DejaVuSans-48"/>
      </g>
     </g>
    </g>
    <g id="ytick_3">
     <g id="line2d_13">
      <g>
       <use style="stroke:#000000;stroke-width:0.8;" x="54" xlink:href="#mae75d4c96f" y="165.380056"/>
      </g>
     </g>
     <g id="text_13">
      <!-- 20 -->
      <g transform="translate(34.275 169.179275)scale(0.1 -0.1)">
       <use xlink:href="#DejaVuSans-50"/>
       <use x="63.623047" xlink:href="#DejaVuSans-48"/>
      </g>
     </g>
    </g>
    <g id="ytick_4">
     <g id="line2d_14">
      <g>
       <use style="stroke:#000000;stroke-width:0.8;" x="54" xlink:href="#mae75d4c96f" y="127.011903"/>
      </g>
     </g>
     <g id="text_14">
      <!-- 30 -->
      <g transform="translate(34.275 130.811122)scale(0.1 -0.1)">
       <defs>
        <path d="M 40.578125 39.3125 
Q 47.65625 37.796875 51.625 33 
Q 55.609375 28.21875 55.609375 21.1875 
Q 55.609375 10.40625 48.1875 4.484375 
Q 40.765625 -1.421875 27.09375 -1.421875 
Q 22.515625 -1.421875 17.65625 -0.515625 
Q 12.796875 0.390625 7.625 2.203125 
L 7.625 11.71875 
Q 11.71875 9.328125 16.59375 8.109375 
Q 21.484375 6.890625 26.8125 6.890625 
Q 36.078125 6.890625 40.9375 10.546875 
Q 45.796875 14.203125 45.796875 21.1875 
Q 45.796875 27.640625 41.28125 31.265625 
Q 36.765625 34.90625 28.71875 34.90625 
L 20.21875 34.90625 
L 20.21875 43.015625 
L 29.109375 43.015625 
Q 36.375 43.015625 40.234375 45.921875 
Q 44.09375 48.828125 44.09375 54.296875 
Q 44.09375 59.90625 40.109375 62.90625 
Q 36.140625 65.921875 28.71875 65.921875 
Q 24.65625 65.921875 20.015625 65.03125 
Q 15.375 64.15625 9.8125 62.3125 
L 9.8125 71.09375 
Q 15.4375 72.65625 20.34375 73.4375 
Q 25.25 74.21875 29.59375 74.21875 
Q 40.828125 74.21875 47.359375 69.109375 
Q 53.90625 64.015625 53.90625 55.328125 
Q 53.90625 49.265625 50.4375 45.09375 
Q 46.96875 40.921875 40.578125 39.3125 
z
" id="DejaVuSans-51"/>
       </defs>
       <use xlink:href="#DejaVuSans-51"/>
       <use x="63.623047" xlink:href="#DejaVuSans-48"/>
      </g>
     </g>
    </g>
    <g id="ytick_5">
     <g id="line2d_15">
      <g>
       <use style="stroke:#000000;stroke-width:0.8;" x="54" xlink:href="#mae75d4c96f" y="88.643749"/>
      </g>
     </g>
     <g id="text_15">
      <!-- 40 -->
      <g transform="translate(34.275 92.442968)scale(0.1 -0.1)">
       <defs>
        <path d="M 37.796875 64.3125 
L 12.890625 25.390625 
L 37.796875 25.390625 
z
M 35.203125 72.90625 
L 47.609375 72.90625 
L 47.609375 25.390625 
L 58.015625 25.390625 
L 58.015625 17.1875 
L 47.609375 17.1875 
L 47.609375 0 
L 37.796875 0 
L 37.796875 17.1875 
L 4.890625 17.1875 
L 4.890625 26.703125 
z
" id="DejaVuSans-52"/>
       </defs>
       <use xlink:href="#DejaVuSans-52"/>
       <use x="63.623047" xlink:href="#DejaVuSans-48"/>
      </g>
     </g>
    </g>
    <g id="ytick_6">
     <g id="line2d_16">
      <g>
       <use style="stroke:#000000;stroke-width:0.8;" x="54" xlink:href="#mae75d4c96f" y="50.275596"/>
      </g>
     </g>
     <g id="text_16">
      <!-- 50 -->
      <g transform="translate(34.275 54.074814)scale(0.1 -0.1)">
       <use xlink:href="#DejaVuSans-53"/>
       <use x="63.623047" xlink:href="#DejaVuSans-48"/>
      </g>
     </g>
    </g>
   </g>
   <g id="line2d_17">
    <path clip-path="url(#pe29605a999)" d="M 69.218182 103.338752 
L 69.774097 136.066787 
L 70.052055 158.819102 
L 70.330012 197.455833 
L 70.60797 206.625822 
L 70.885928 184.717606 
L 71.441843 167.79725 
L 71.719801 190.894879 
L 71.997758 191.336112 
L 72.275716 190.587933 
L 72.553674 165.073111 
L 73.109589 160.392196 
L 73.387547 202.827374 
L 73.665504 187.403377 
L 73.943462 178.578701 
L 74.22142 213.148408 
L 74.499377 181.763258 
L 74.777335 211.421841 
L 75.055293 216.371333 
L 75.33325 175.547617 
L 75.611208 187.825426 
L 75.889166 189.436889 
L 76.167123 209.656906 
L 76.445081 201.292648 
L 76.723039 206.24214 
L 77.000996 191.393665 
L 77.278954 208.582597 
L 77.556912 210.501005 
L 77.834869 198.453405 
L 78.112827 199.757922 
L 78.390785 198.14646 
L 78.668742 213.493721 
L 78.9467 197.340728 
L 79.224658 203.863315 
L 79.502615 204.285364 
L 80.058531 218.28974 
L 80.336488 170.559757 
L 80.614446 160.814246 
L 80.892403 159.739938 
L 81.170361 208.544229 
L 82.004234 162.118763 
L 82.282192 196.074579 
L 82.560149 184.449029 
L 82.838107 204.630678 
L 83.116065 195.038639 
L 83.394022 152.449989 
L 83.67198 181.801626 
L 83.949938 187.038879 
L 84.227895 172.900215 
L 84.783811 206.280508 
L 85.061768 196.151316 
L 85.617684 217.138696 
L 85.895641 197.033783 
L 86.173599 205.858458 
L 86.451557 198.568509 
L 86.729514 213.455353 
L 87.007472 189.091575 
L 87.28543 185.101287 
L 87.563387 206.85603 
L 87.841345 202.443693 
L 88.119303 209.618538 
L 88.39726 209.656906 
L 88.675218 171.442225 
L 88.953176 161.082823 
L 89.231133 170.981807 
L 89.509091 202.366957 
L 89.787049 203.095951 
L 90.342964 143.740418 
L 90.620922 167.528673 
L 90.898879 180.842422 
L 91.454795 129.505833 
L 91.732752 136.181892 
L 92.01071 153.217352 
L 92.288667 148.382964 
L 92.566625 151.912835 
L 92.844583 137.409673 
L 93.12254 153.67777 
L 93.400498 129.620937 
L 93.678456 166.953151 
L 93.956413 184.947815 
L 94.234371 210.692846 
L 94.512329 174.012891 
L 94.790286 211.84389 
L 95.068244 203.364529 
L 95.346202 207.354816 
L 95.624159 194.961903 
L 95.902117 193.964331 
L 96.180075 214.874975 
L 96.73599 164.152276 
L 97.013948 171.250384 
L 97.291905 185.600073 
L 97.569863 216.294596 
L 97.847821 197.877883 
L 98.403736 128.853574 
L 98.681694 159.70157 
L 98.959651 203.13432 
L 99.237609 194.002699 
L 99.515567 174.933727 
L 99.793524 174.051259 
L 100.071482 178.501965 
L 100.627397 113.621417 
L 101.183313 190.741406 
L 101.46127 206.280508 
L 101.739228 215.565601 
L 102.295143 184.449029 
L 102.573101 206.817662 
L 102.851059 215.565601 
L 103.129016 208.620966 
L 103.406974 219.210576 
L 103.962889 207.815234 
L 104.240847 123.271008 
L 104.518804 169.216872 
L 104.796762 141.668538 
L 105.07472 182.223676 
L 105.352677 205.014359 
L 105.630635 201.599593 
L 105.908593 203.211056 
L 106.18655 196.726838 
L 106.464508 176.621925 
L 106.742466 212.189204 
L 107.020423 178.156652 
L 107.298381 157.744794 
L 107.576339 145.77393 
L 107.854296 171.825906 
L 108.132254 157.092535 
L 108.410212 133.956539 
L 108.688169 204.400469 
L 109.244085 93.056087 
L 109.522042 97.314952 
L 109.8 105.87105 
L 110.077958 53.114839 
L 110.355915 119.990531 
L 110.633873 124.671446 
L 110.911831 121.87057 
L 111.189788 181.341208 
L 111.467746 200.870599 
L 111.745704 189.82057 
L 112.023661 210.80795 
L 112.301619 204.860887 
L 112.579577 168.909927 
L 112.857534 208.160548 
L 113.135492 205.513145 
L 113.41345 213.033303 
L 113.691407 211.383473 
L 113.969365 172.593269 
L 114.247323 195.537425 
L 114.52528 197.762778 
L 114.803238 173.590841 
L 115.081196 184.410661 
L 115.359153 207.585025 
L 115.637111 200.333444 
L 115.915068 204.323732 
L 116.193026 132.421813 
L 116.470984 198.798718 
L 116.748941 181.955099 
L 117.026899 191.163456 
L 117.582814 158.013371 
L 117.860772 151.529153 
L 118.13873 198.031355 
L 118.416687 195.614161 
L 118.694645 199.681186 
L 118.972603 176.468453 
L 119.25056 211.114896 
L 119.528518 203.633106 
L 119.806476 203.057583 
L 120.084433 155.289232 
L 120.362391 190.511197 
L 120.640349 187.32664 
L 120.918306 196.68847 
L 121.196264 188.17074 
L 121.474222 143.395104 
L 122.030137 196.726838 
L 122.308095 205.359673 
L 122.586052 207.853602 
L 122.86401 207.316448 
L 123.141968 191.623874 
L 123.419925 151.222208 
L 124.253798 191.930819 
L 124.531756 191.623874 
L 124.809714 150.76179 
L 125.087671 201.484489 
L 125.643587 177.504393 
L 125.921544 170.444653 
L 126.199502 196.458261 
L 126.47746 145.965771 
L 126.755417 183.106143 
L 127.033375 187.74869 
L 127.311333 187.633586 
L 127.58929 85.459193 
L 127.867248 170.367916 
L 128.145205 179.537905 
L 128.423163 199.028927 
L 128.701121 190.549565 
L 128.979078 190.280988 
L 129.257036 189.743834 
L 129.534994 146.38782 
L 129.812951 187.74869 
L 130.090909 178.501965 
L 130.368867 183.259616 
L 130.646824 157.783162 
L 130.924782 145.965771 
L 131.20274 145.697194 
L 131.480697 176.008035 
L 131.758655 171.212016 
L 132.036613 144.277572 
L 132.31457 199.450977 
L 132.592528 185.293128 
L 132.870486 185.600073 
L 133.148443 186.482541 
L 133.426401 176.008035 
L 133.704359 142.052219 
L 133.982316 157.20764 
L 134.538232 214.491293 
L 134.816189 214.452925 
L 135.094147 210.654478 
L 135.372105 211.65205 
L 135.650062 208.774438 
L 136.205978 210.999791 
L 136.483935 211.153264 
L 136.761893 210.424269 
L 137.039851 215.565601 
L 137.595766 212.534517 
L 138.151681 215.565601 
L 138.429639 213.033303 
L 138.707597 155.174128 
L 138.985554 155.174128 
L 139.263512 147.116815 
L 139.541469 200.563653 
L 139.819427 203.709842 
L 140.097385 201.292648 
L 140.375342 179.077487 
L 140.6533 171.212016 
L 140.931258 196.918679 
L 141.209215 177.734602 
L 141.487173 187.096431 
L 141.765131 121.218312 
L 142.043088 196.189684 
L 142.321046 199.335872 
L 142.599004 151.989571 
L 142.876961 190.626302 
L 143.154919 156.1717 
L 143.432877 187.365008 
L 143.710834 145.927403 
L 143.988792 192.583077 
L 144.26675 159.778306 
L 144.544707 158.550525 
L 144.822665 176.813766 
L 145.100623 171.941011 
L 145.37858 170.674862 
L 145.656538 193.312072 
L 145.934496 145.965771 
L 146.212453 154.330028 
L 146.490411 155.711282 
L 146.768369 149.380536 
L 147.046326 130.503405 
L 147.324284 171.941011 
L 147.602242 133.189176 
L 147.880199 182.262044 
L 148.158157 165.648634 
L 148.436115 167.720514 
L 148.714072 142.896318 
L 148.99203 162.694286 
L 149.269988 165.993947 
L 149.547945 141.016279 
L 149.825903 146.963343 
L 150.103861 182.031835 
L 150.381818 158.205212 
L 150.659776 181.878363 
L 151.215691 102.916702 
L 151.493649 118.417436 
L 151.771606 115.808402 
L 152.049564 126.896798 
L 152.327522 179.729746 
L 152.605479 196.228052 
L 152.883437 172.439797 
L 153.161395 165.993947 
L 153.439352 153.294088 
L 153.71731 119.760322 
L 153.995268 193.810858 
L 154.273225 178.003179 
L 154.829141 170.636494 
L 155.385056 197.762778 
L 155.663014 148.459701 
L 155.940971 181.456313 
L 156.218929 193.273704 
L 156.496887 185.791914 
L 156.774844 154.483501 
L 157.052802 100.461141 
L 157.33076 187.1348 
L 157.608717 191.585505 
L 157.886675 179.422801 
L 158.164633 186.674382 
L 158.44259 185.446601 
L 158.720548 136.143523 
L 158.998506 169.86913 
L 159.276463 171.595697 
L 159.554421 172.516533 
L 159.832379 165.648634 
L 160.110336 165.917211 
L 160.388294 183.911875 
L 160.666252 175.931299 
L 160.944209 174.818622 
L 161.500125 197.225624 
L 161.778082 145.044935 
L 162.05604 188.017267 
L 162.333998 165.073111 
L 162.611955 188.822998 
L 162.889913 183.106143 
L 163.16787 192.621446 
L 163.445828 165.130663 
L 163.723786 165.073111 
L 164.001743 194.386381 
L 164.279701 195.268848 
L 164.557659 166.684574 
L 164.835616 162.886126 
L 165.113574 193.734122 
L 165.391532 202.213484 
L 165.669489 166.799678 
L 165.947447 183.681666 
L 166.225405 190.645486 
L 166.503362 173.130423 
L 167.059278 188.707894 
L 167.337235 174.204732 
L 167.615193 189.858938 
L 167.893151 197.379097 
L 168.171108 201.25428 
L 168.449066 198.14646 
L 168.727024 171.787538 
L 169.004981 185.408233 
L 169.282939 181.993467 
L 169.560897 195.153744 
L 169.838854 194.463117 
L 170.116812 190.127516 
L 170.39477 202.136748 
L 170.672727 204.592309 
L 170.950685 185.216392 
L 171.228643 189.897307 
L 171.784558 204.093523 
L 172.062516 176.698662 
L 172.340473 213.762298 
L 172.618431 202.021643 
L 172.896389 211.958995 
L 173.174346 214.184348 
L 173.452304 214.606398 
L 173.730262 174.703518 
L 174.008219 205.935195 
L 174.286177 187.096431 
L 174.564134 178.425229 
L 174.842092 197.110519 
L 175.12005 181.878363 
L 175.398007 188.631158 
L 175.675965 157.591321 
L 175.953923 184.142084 
L 176.509838 195.537425 
L 176.787796 196.650102 
L 177.065753 177.120711 
L 177.343711 178.732174 
L 177.621669 209.791194 
L 177.899626 225.953779 
L 178.177584 234.035071 
L 178.455542 233.126226 
L 179.011457 209.15812 
L 179.84533 207.047871 
L 180.123288 201.292648 
L 180.401245 85.228984 
L 180.679203 113.506313 
L 181.235118 202.251852 
L 181.513076 203.978419 
L 181.791034 180.190164 
L 182.068991 185.830282 
L 182.346949 188.209108 
L 182.624907 198.223196 
L 182.902864 157.975003 
L 183.180822 195.921107 
L 183.45878 174.818622 
L 183.736737 198.76035 
L 184.57061 176.276612 
L 184.848568 136.181892 
L 185.126526 167.490305 
L 185.404483 172.247956 
L 185.682441 153.907979 
L 185.960399 188.899735 
L 186.238356 186.175596 
L 186.794271 148.766646 
L 187.072229 166.14742 
L 187.350187 153.178984 
L 187.628144 149.073591 
L 187.906102 147.922547 
L 188.18406 152.334884 
L 188.739975 195.614161 
L 189.017933 199.527713 
L 189.29589 174.396573 
L 189.573848 161.581609 
L 189.851806 128.31642 
L 190.129763 127.932739 
L 190.407721 133.189176 
L 190.685679 122.753038 
L 191.241594 129.582569 
L 191.519552 118.417436 
L 191.797509 134.800638 
L 192.075467 141.668538 
L 192.631382 195.038639 
L 193.187298 170.406285 
L 193.465255 146.656398 
L 193.743213 147.538865 
L 194.021171 153.927163 
L 194.577086 97.238216 
L 194.855044 114.19694 
L 195.133001 174.33902 
L 195.410959 181.226104 
L 195.688917 155.941491 
L 196.52279 135.18432 
L 196.800747 188.055635 
L 197.078705 161.044455 
L 197.356663 175.816194 
L 197.912578 124.249396 
L 198.190535 131.270768 
L 198.468493 165.648634 
L 198.746451 177.15908 
L 199.024408 201.944907 
L 199.580324 179.480353 
L 199.858281 176.545189 
L 200.414197 198.14646 
L 200.692154 198.108091 
L 200.970112 170.636494 
L 201.526027 195.460689 
L 201.803985 189.245048 
L 202.081943 195.882739 
L 202.3599 196.765206 
L 202.637858 155.941491 
L 202.915816 160.852614 
L 203.193773 194.232908 
L 203.471731 175.509249 
L 203.749689 134.647165 
L 204.305604 170.674862 
L 204.861519 128.124579 
L 205.139477 148.344596 
L 205.417435 125.131863 
L 205.695392 167.835618 
L 205.97335 163.84533 
L 206.251308 110.283388 
L 206.529265 102.801598 
L 206.807223 146.042507 
L 207.085181 147.84581 
L 207.363138 103.952643 
L 207.641096 166.14742 
L 207.919054 160.852614 
L 208.197011 132.69039 
L 208.474969 166.415997 
L 208.752927 152.027939 
L 209.030884 98.043947 
L 209.308842 113.506313 
L 209.5868 140.594229 
L 209.864757 66.735534 
L 210.142715 93.554873 
L 210.420672 79.512129 
L 210.69863 72.759334 
L 210.976588 100.192564 
L 211.254545 144.891462 
L 211.532503 137.639881 
L 211.810461 142.704478 
L 212.088418 73.027911 
L 212.366376 115.079407 
L 212.644334 94.705918 
L 212.922291 106.024523 
L 213.200249 98.542733 
L 213.478207 85.957979 
L 213.756164 86.264924 
L 214.034122 175.432513 
L 214.31208 121.179944 
L 214.590037 102.110971 
L 214.867995 116.057795 
L 215.145953 89.602953 
L 215.42391 105.87105 
L 215.701868 153.601033 
L 215.979826 163.538385 
L 216.257783 167.451937 
L 216.535741 67.733106 
L 217.091656 130.426669 
L 217.369614 84.26978 
L 217.647572 150.301372 
L 217.925529 67.23432 
L 218.203487 150.416477 
L 218.481445 177.77297 
L 218.759402 185.600073 
L 219.03736 184.679238 
L 219.593275 122.024043 
L 219.871233 160.929351 
L 220.705106 195.345584 
L 221.261021 173.590841 
L 221.538979 142.397532 
L 221.816936 182.33878 
L 222.094894 141.515065 
L 222.372852 169.523817 
L 222.650809 184.372292 
L 222.928767 161.926923 
L 223.206725 156.36354 
L 223.484682 191.547137 
L 224.040598 174.85699 
L 224.318555 126.589853 
L 224.596513 164.996375 
L 224.874471 167.758882 
L 225.152428 164.152276 
L 225.430386 150.263004 
L 225.708344 147.500497 
L 225.986301 159.970147 
L 226.264259 142.512637 
L 226.542217 137.639881 
L 226.820174 125.975963 
L 227.098132 128.009475 
L 227.37609 111.357696 
L 227.932005 133.457753 
L 228.209963 178.540333 
L 228.48792 156.517013 
L 228.765878 123.059983 
L 229.043836 162.042027 
L 229.321793 162.617549 
L 229.599751 167.643778 
L 229.877709 168.526245 
L 230.155666 166.569469 
L 230.433624 172.209588 
L 230.711582 162.272236 
L 230.989539 162.233868 
L 231.267497 172.056115 
L 231.545455 164.842902 
L 231.823412 164.382484 
L 232.10137 179.768114 
L 232.379328 132.709574 
L 232.657285 156.747222 
L 232.935243 159.931779 
L 233.2132 123.980819 
L 233.491158 147.500497 
L 233.769116 159.049311 
L 234.047073 121.640361 
L 234.325031 154.176556 
L 234.602989 124.940023 
L 234.880946 111.89485 
L 235.436862 155.481073 
L 235.714819 165.610265 
L 235.992777 141.438329 
L 236.270735 186.751118 
L 236.548692 155.346784 
L 236.82665 147.270288 
L 237.104608 177.964811 
L 237.382565 165.034743 
L 237.660523 166.492733 
L 237.938481 178.866462 
L 238.216438 173.629209 
L 238.494396 130.042987 
L 238.772354 117.688442 
L 239.050311 138.71419 
L 239.328269 141.975483 
L 239.606227 130.081355 
L 239.884184 172.286324 
L 240.4401 144.124099 
L 240.718057 146.080875 
L 240.996015 178.19502 
L 241.273973 134.225116 
L 241.55193 156.977431 
L 241.829888 167.605409 
L 242.107846 167.413569 
L 242.385803 154.023083 
L 242.663761 114.81083 
L 242.941719 152.910407 
L 243.219676 111.70301 
L 243.497634 159.778306 
L 243.775592 174.780254 
L 244.053549 155.135759 
L 244.331507 115.117775 
L 244.609465 122.944879 
L 244.887422 44.443636 
L 245.16538 107.405776 
L 245.443337 143.471841 
L 245.721295 146.848238 
L 245.999253 71.454816 
L 246.27721 144.814726 
L 246.555168 135.222688 
L 246.833126 109.285816 
L 247.111083 144.354308 
L 247.389041 159.931779 
L 247.666999 167.835618 
L 247.944956 185.024551 
L 248.222914 98.504365 
L 248.500872 126.781694 
L 248.778829 117.880282 
L 249.334745 131.347504 
L 249.612702 148.498069 
L 249.89066 111.856482 
L 250.168618 57.220232 
L 250.446575 139.673394 
L 250.724533 120.259108 
L 251.002491 127.433953 
L 251.280448 110.513597 
L 251.558406 142.973055 
L 251.836364 56.337764 
L 252.114321 124.287764 
L 252.670237 138.522349 
L 252.948194 99.578673 
L 253.50411 150.186268 
L 253.782067 164.68943 
L 254.060025 155.212496 
L 254.337983 155.404337 
L 254.61594 157.092535 
L 254.893898 115.463089 
L 255.171856 190.703038 
L 255.449813 183.604929 
L 255.727771 180.804054 
L 256.005729 154.061451 
L 256.283686 179.269328 
L 256.839601 149.073591 
L 257.117559 182.070203 
L 257.395517 183.911875 
L 257.673474 171.058543 
L 257.951432 173.20716 
L 258.22939 164.305748 
L 258.507347 171.058543 
L 258.785305 181.034263 
L 259.063263 172.017747 
L 259.34122 170.789966 
L 259.619178 159.356256 
L 259.897136 164.727798 
L 260.175093 185.715178 
L 260.453051 186.137228 
L 260.731009 192.12266 
L 261.008966 153.102247 
L 261.286924 176.621925 
L 261.564882 167.490305 
L 261.842839 168.334404 
L 262.120797 163.806962 
L 262.398755 167.912355 
L 262.676712 164.651062 
L 262.95467 169.562185 
L 263.232628 151.682626 
L 263.510585 145.889034 
L 263.788543 171.864274 
L 264.066501 163.269808 
L 264.344458 186.329068 
L 264.622416 169.830762 
L 264.900374 180.113427 
L 265.178331 150.685054 
L 265.456289 182.684094 
L 265.734247 182.991039 
L 266.012204 193.964331 
L 266.56812 159.356256 
L 266.846077 176.621925 
L 267.124035 178.348492 
L 267.401993 184.487397 
L 267.67995 148.613173 
L 267.957908 155.3276 
L 268.235866 156.094963 
L 268.513823 180.765686 
L 268.791781 184.333924 
L 269.069738 191.125088 
L 269.347696 193.196968 
L 269.903611 205.781722 
L 270.181569 206.357244 
L 270.459527 187.998083 
L 271.015442 200.755494 
L 271.2934 201.791434 
L 271.571357 197.148888 
L 271.849315 194.846798 
L 272.127273 203.402897 
L 272.40523 183.029407 
L 272.683188 199.489345 
L 272.961146 198.491773 
L 273.239103 203.709842 
L 273.517061 185.907019 
L 273.795019 184.602501 
L 274.072976 203.901683 
L 274.350934 204.093523 
L 274.628892 201.561225 
L 274.906849 201.369385 
L 275.184807 200.64039 
L 275.462765 196.036211 
L 275.740722 198.990559 
L 276.01868 206.85603 
L 276.574595 205.091095 
L 276.852553 211.920627 
L 277.130511 204.016787 
L 277.408468 212.764726 
L 277.686426 210.347532 
L 277.964384 213.148408 
L 278.242341 213.647194 
L 278.520299 215.143552 
L 278.798257 215.757442 
L 279.076214 191.432033 
L 279.354172 210.692846 
L 279.63213 191.815714 
L 279.910087 209.925483 
L 280.188045 178.310124 
L 280.466002 203.172688 
L 280.74396 202.021643 
L 281.021918 204.477205 
L 281.299875 184.21882 
L 281.577833 198.76035 
L 281.855791 197.379097 
L 282.411706 188.094003 
L 283.245579 206.433981 
L 283.523537 177.581129 
L 283.801494 198.299932 
L 284.079452 205.781722 
L 284.35741 188.592789 
L 284.635367 185.86865 
L 284.913325 187.787058 
L 285.191283 204.553941 
L 285.747198 197.916251 
L 286.025156 188.899735 
L 286.303113 187.441745 
L 286.581071 205.781722 
L 286.859029 209.081383 
L 287.136986 208.927911 
L 287.414944 194.578221 
L 287.692902 196.803574 
L 287.970859 196.228052 
L 288.248817 185.86865 
L 288.526775 192.467973 
L 288.804732 187.671954 
L 289.08269 188.132372 
L 289.360648 182.108571 
L 289.638605 183.106143 
L 289.916563 187.441745 
L 290.194521 196.880311 
L 290.472478 197.570937 
L 290.750436 154.579421 
L 291.028394 139.519921 
L 291.306351 190.703038 
L 291.584309 180.573845 
L 291.862267 154.483501 
L 292.140224 178.540333 
L 292.418182 156.517013 
L 292.696139 145.313512 
L 292.974097 152.334884 
L 293.252055 188.324212 
L 293.530012 151.145471 
L 293.80797 162.886126 
L 294.085928 168.142564 
L 294.363885 150.33974 
L 294.641843 118.686014 
L 294.919801 129.390728 
L 295.475716 159.509729 
L 295.753674 151.912835 
L 296.031631 153.907979 
L 296.309589 196.496629 
L 296.587547 193.657386 
L 296.865504 194.041067 
L 297.143462 185.638442 
L 297.42142 147.308656 
L 297.977335 196.26642 
L 298.255293 202.520429 
L 298.53325 180.190164 
L 298.811208 197.839514 
L 299.089166 168.142564 
L 299.367123 196.68847 
L 299.645081 189.053207 
L 299.923039 186.904591 
L 300.478954 204.669046 
L 300.756912 187.441745 
L 301.034869 153.102247 
L 301.312827 170.252812 
L 301.590785 196.880311 
L 301.868742 194.348012 
L 302.1467 188.938103 
L 302.424658 195.345584 
L 302.702615 140.018707 
L 303.258531 199.335872 
L 303.536488 189.475257 
L 303.814446 189.091575 
L 304.092403 190.587933 
L 304.370361 201.714698 
L 304.648319 164.459221 
L 304.926276 199.949763 
L 305.204234 184.755974 
L 305.482192 184.410661 
L 305.760149 188.669526 
L 306.038107 168.679718 
L 306.316065 168.027459 
L 306.594022 193.35044 
L 306.87198 173.974523 
L 307.149938 200.141604 
L 307.427895 155.903123 
L 307.705853 186.520909 
L 307.983811 175.048831 
L 308.261768 176.73703 
L 308.539726 156.36354 
L 308.817684 180.842422 
L 309.095641 180.535477 
L 309.373599 134.781454 
L 309.651557 133.381016 
L 309.929514 159.509729 
L 310.207472 104.720006 
L 310.48543 142.24406 
L 310.763387 146.771502 
L 311.041345 178.885647 
L 311.319303 160.890982 
L 311.59726 184.026979 
L 311.875218 194.156172 
L 312.153176 156.900695 
L 312.431133 179.959955 
L 312.709091 181.955099 
L 312.987049 157.591321 
L 313.265006 179.058303 
L 313.542964 89.602953 
L 313.820922 179.499537 
L 314.098879 195.575793 
L 314.376837 188.055635 
L 314.654795 188.285844 
L 314.932752 175.547617 
L 315.21071 179.998323 
L 315.488667 141.82201 
L 316.044583 158.780734 
L 316.32254 138.867662 
L 316.600498 184.21882 
L 316.878456 180.535477 
L 317.156413 170.406285 
L 317.434371 194.117804 
L 317.712329 200.141604 
L 317.990286 185.024551 
L 318.268244 137.563145 
L 318.546202 182.300412 
L 318.824159 164.766166 
L 319.102117 137.754986 
L 319.380075 186.175596 
L 319.658032 182.799198 
L 319.93599 183.528193 
L 320.491905 167.931539 
L 320.769863 176.199876 
L 321.047821 180.957527 
L 321.325778 138.599085 
L 321.603736 185.67681 
L 321.881694 193.1586 
L 322.159651 176.621925 
L 322.437609 176.468453 
L 322.715567 120.374212 
L 322.993524 173.437369 
L 323.54944 192.12266 
L 323.827397 197.72441 
L 324.105355 194.885167 
L 324.383313 173.629209 
L 324.66127 175.70109 
L 324.939228 168.487877 
L 325.217186 180.497109 
L 325.495143 180.343636 
L 325.773101 190.683854 
L 326.051059 131.731186 
L 326.329016 150.800158 
L 326.606974 150.33974 
L 326.884932 145.313512 
L 327.162889 91.943411 
L 327.718804 131.155663 
L 327.996762 118.187228 
L 328.552677 141.361592 
L 328.830635 142.66611 
L 329.108593 164.26738 
L 329.38655 171.365488 
L 329.664508 143.663682 
L 329.942466 87.300864 
L 330.220423 159.663202 
L 330.498381 139.251344 
L 330.776339 160.468933 
L 331.054296 109.516025 
L 331.332254 189.053207 
L 331.610212 145.275144 
L 331.888169 148.843382 
L 332.166127 170.176076 
L 332.444085 152.565093 
L 332.722042 187.940531 
L 333 189.321784 
L 333.277958 187.595217 
L 333.555915 188.650342 
L 333.833873 146.656398 
L 334.111831 154.368396 
L 334.389788 114.81083 
L 334.667746 94.667549 
L 335.223661 178.348492 
L 335.501619 180.036691 
L 335.779577 191.662242 
L 336.057534 173.916971 
L 336.335492 147.960915 
L 336.61345 184.564133 
L 336.891407 159.394625 
L 337.169365 170.329548 
L 337.447323 161.850186 
L 337.72528 139.212976 
L 338.003238 176.583557 
L 338.281196 169.754026 
L 338.559153 114.081835 
L 338.837111 163.615121 
L 339.115068 173.437369 
L 339.393026 154.943919 
L 339.670984 122.062411 
L 339.948941 121.563625 
L 340.226899 113.966731 
L 340.504857 100.806454 
L 340.782814 150.263004 
L 341.060772 171.825906 
L 341.33873 145.658826 
L 341.616687 175.202304 
L 341.894645 171.403857 
L 342.172603 181.226104 
L 342.45056 143.011423 
L 342.728518 178.425229 
L 343.006476 180.842422 
L 343.284433 111.818114 
L 343.562391 155.059023 
L 343.840349 151.874466 
L 344.118306 131.194032 
L 344.396264 162.272236 
L 344.674222 156.248436 
L 344.952179 177.082343 
L 345.230137 164.459221 
L 345.508095 157.476217 
L 345.786052 96.279012 
L 346.341968 168.027459 
L 346.619925 155.557809 
L 346.897883 178.655438 
L 347.175841 137.371304 
L 347.453798 147.078447 
L 347.731756 139.711762 
L 348.009714 157.054167 
L 348.287671 135.529633 
L 348.565629 128.354788 
L 349.121544 167.835618 
L 349.67746 123.136719 
L 349.955417 148.344596 
L 350.233375 153.562665 
L 350.511333 142.973055 
L 350.78929 147.577233 
L 351.067248 161.082823 
L 351.345205 111.933219 
L 351.623163 157.706426 
L 351.901121 141.438329 
L 352.179078 109.746234 
L 352.457036 153.332456 
L 352.734994 242.116364 
L 353.012951 96.355748 
L 353.290909 145.543721 
L 353.568867 158.531341 
L 354.124782 170.367916 
L 354.40274 99.194992 
L 354.680697 146.119243 
L 355.236613 180.190164 
L 355.51457 176.813766 
L 355.792528 148.574805 
L 356.070486 180.190164 
L 356.348443 150.685054 
L 356.626401 163.998803 
L 356.904359 119.721954 
L 357.182316 151.89365 
L 357.738232 182.33878 
L 358.016189 164.88127 
L 358.294147 164.305748 
L 358.572105 132.038131 
L 358.850062 158.281948 
L 359.12802 142.819582 
L 359.405978 160.775878 
L 359.683935 160.31546 
L 359.961893 147.347024 
L 360.239851 144.31594 
L 360.517808 139.174608 
L 360.795766 147.270288 
L 361.073724 133.72633 
L 361.351681 137.601513 
L 361.629639 152.258148 
L 361.907597 110.129915 
L 362.185554 161.121191 
L 362.463512 169.140136 
L 362.741469 165.149848 
L 363.019427 150.071163 
L 363.297385 168.487877 
L 363.575342 173.82105 
L 363.8533 146.004139 
L 364.131258 166.14742 
L 364.409215 163.960435 
L 364.687173 188.324212 
L 364.965131 142.704478 
L 365.243088 165.917211 
L 365.521046 173.20716 
L 365.799004 186.213964 
L 366.076961 94.667549 
L 366.354919 183.413089 
L 366.632877 152.296516 
L 366.910834 176.775398 
L 367.46675 145.083303 
L 367.744707 168.948295 
L 368.022665 158.819102 
L 368.57858 187.403377 
L 368.856538 132.498549 
L 369.134496 151.759362 
L 369.412453 153.485929 
L 369.690411 171.058543 
L 369.968369 160.468933 
L 370.246326 161.15956 
L 370.524284 180.477925 
L 370.802242 158.358684 
L 371.080199 186.597645 
L 371.358157 166.799678 
L 371.636115 190.741406 
L 371.914072 172.17122 
L 372.19203 196.458261 
L 372.469988 153.754506 
L 372.747945 191.508769 
L 373.025903 193.465545 
L 373.303861 163.806962 
L 373.581818 238.471389 
L 373.581818 238.471389 
" style="fill:none;stroke:#000000;stroke-linecap:square;stroke-width:1.5;"/>
   </g>
   <g id="patch_3">
    <path d="M 54 252 
L 54 34.56 
" style="fill:none;stroke:#000000;stroke-linecap:square;stroke-linejoin:miter;stroke-width:0.8;"/>
   </g>
   <g id="patch_4">
    <path d="M 388.8 252 
L 388.8 34.56 
" style="fill:none;stroke:#000000;stroke-linecap:square;stroke-linejoin:miter;stroke-width:0.8;"/>
   </g>
   <g id="patch_5">
    <path d="M 54 252 
L 388.8 252 
" style="fill:none;stroke:#000000;stroke-linecap:square;stroke-linejoin:miter;stroke-width:0.8;"/>
   </g>
   <g id="patch_6">
    <path d="M 54 34.56 
L 388.8 34.56 
" style="fill:none;stroke:#000000;stroke-linecap:square;stroke-linejoin:miter;stroke-width:0.8;"/>
   </g>
   <g id="text_17">
    <!-- Soma Diária de Energia - Casa 25 -->
    <g transform="translate(120.413438 28.56)scale(0.12 -0.12)">
     <defs>
      <path d="M 53.515625 70.515625 
L 53.515625 60.890625 
Q 47.90625 63.578125 42.921875 64.890625 
Q 37.9375 66.21875 33.296875 66.21875 
Q 25.25 66.21875 20.875 63.09375 
Q 16.5 59.96875 16.5 54.203125 
Q 16.5 49.359375 19.40625 46.890625 
Q 22.3125 44.4375 30.421875 42.921875 
L 36.375 41.703125 
Q 47.40625 39.59375 52.65625 34.296875 
Q 57.90625 29 57.90625 20.125 
Q 57.90625 9.515625 50.796875 4.046875 
Q 43.703125 -1.421875 29.984375 -1.421875 
Q 24.8125 -1.421875 18.96875 -0.25 
Q 13.140625 0.921875 6.890625 3.21875 
L 6.890625 13.375 
Q 12.890625 10.015625 18.65625 8.296875 
Q 24.421875 6.59375 29.984375 6.59375 
Q 38.421875 6.59375 43.015625 9.90625 
Q 47.609375 13.234375 47.609375 19.390625 
Q 47.609375 24.75 44.3125 27.78125 
Q 41.015625 30.8125 33.5 32.328125 
L 27.484375 33.5 
Q 16.453125 35.6875 11.515625 40.375 
Q 6.59375 45.0625 6.59375 53.421875 
Q 6.59375 63.09375 13.40625 68.65625 
Q 20.21875 74.21875 32.171875 74.21875 
Q 37.3125 74.21875 42.625 73.28125 
Q 47.953125 72.359375 53.515625 70.515625 
z
" id="DejaVuSans-83"/>
      <path d="M 30.609375 48.390625 
Q 23.390625 48.390625 19.1875 42.75 
Q 14.984375 37.109375 14.984375 27.296875 
Q 14.984375 17.484375 19.15625 11.84375 
Q 23.34375 6.203125 30.609375 6.203125 
Q 37.796875 6.203125 41.984375 11.859375 
Q 46.1875 17.53125 46.1875 27.296875 
Q 46.1875 37.015625 41.984375 42.703125 
Q 37.796875 48.390625 30.609375 48.390625 
z
M 30.609375 56 
Q 42.328125 56 49.015625 48.375 
Q 55.71875 40.765625 55.71875 27.296875 
Q 55.71875 13.875 49.015625 6.21875 
Q 42.328125 -1.421875 30.609375 -1.421875 
Q 18.84375 -1.421875 12.171875 6.21875 
Q 5.515625 13.875 5.515625 27.296875 
Q 5.515625 40.765625 12.171875 48.375 
Q 18.84375 56 30.609375 56 
z
" id="DejaVuSans-111"/>
      <path d="M 52 44.1875 
Q 55.375 50.25 60.0625 53.125 
Q 64.75 56 71.09375 56 
Q 79.640625 56 84.28125 50.015625 
Q 88.921875 44.046875 88.921875 33.015625 
L 88.921875 0 
L 79.890625 0 
L 79.890625 32.71875 
Q 79.890625 40.578125 77.09375 44.375 
Q 74.3125 48.1875 68.609375 48.1875 
Q 61.625 48.1875 57.5625 43.546875 
Q 53.515625 38.921875 53.515625 30.90625 
L 53.515625 0 
L 44.484375 0 
L 44.484375 32.71875 
Q 44.484375 40.625 41.703125 44.40625 
Q 38.921875 48.1875 33.109375 48.1875 
Q 26.21875 48.1875 22.15625 43.53125 
Q 18.109375 38.875 18.109375 30.90625 
L 18.109375 0 
L 9.078125 0 
L 9.078125 54.6875 
L 18.109375 54.6875 
L 18.109375 46.1875 
Q 21.1875 51.21875 25.484375 53.609375 
Q 29.78125 56 35.6875 56 
Q 41.65625 56 45.828125 52.96875 
Q 50 49.953125 52 44.1875 
z
" id="DejaVuSans-109"/>
      <path d="M 34.28125 27.484375 
Q 23.390625 27.484375 19.1875 25 
Q 14.984375 22.515625 14.984375 16.5 
Q 14.984375 11.71875 18.140625 8.90625 
Q 21.296875 6.109375 26.703125 6.109375 
Q 34.1875 6.109375 38.703125 11.40625 
Q 43.21875 16.703125 43.21875 25.484375 
L 43.21875 27.484375 
z
M 52.203125 31.203125 
L 52.203125 0 
L 43.21875 0 
L 43.21875 8.296875 
Q 40.140625 3.328125 35.546875 0.953125 
Q 30.953125 -1.421875 24.3125 -1.421875 
Q 15.921875 -1.421875 10.953125 3.296875 
Q 6 8.015625 6 15.921875 
Q 6 25.140625 12.171875 29.828125 
Q 18.359375 34.515625 30.609375 34.515625 
L 43.21875 34.515625 
L 43.21875 35.40625 
Q 43.21875 41.609375 39.140625 45 
Q 35.0625 48.390625 27.6875 48.390625 
Q 23 48.390625 18.546875 47.265625 
Q 14.109375 46.140625 10.015625 43.890625 
L 10.015625 52.203125 
Q 14.9375 54.109375 19.578125 55.046875 
Q 24.21875 56 28.609375 56 
Q 40.484375 56 46.34375 49.84375 
Q 52.203125 43.703125 52.203125 31.203125 
z
" id="DejaVuSans-97"/>
      <path id="DejaVuSans-32"/>
      <path d="M 19.671875 64.796875 
L 19.671875 8.109375 
L 31.59375 8.109375 
Q 46.6875 8.109375 53.6875 14.9375 
Q 60.6875 21.78125 60.6875 36.53125 
Q 60.6875 51.171875 53.6875 57.984375 
Q 46.6875 64.796875 31.59375 64.796875 
z
M 9.8125 72.90625 
L 30.078125 72.90625 
Q 51.265625 72.90625 61.171875 64.09375 
Q 71.09375 55.28125 71.09375 36.53125 
Q 71.09375 17.671875 61.125 8.828125 
Q 51.171875 0 30.078125 0 
L 9.8125 0 
z
" id="DejaVuSans-68"/>
      <path d="M 9.421875 54.6875 
L 18.40625 54.6875 
L 18.40625 0 
L 9.421875 0 
z
M 9.421875 75.984375 
L 18.40625 75.984375 
L 18.40625 64.59375 
L 9.421875 64.59375 
z
" id="DejaVuSans-105"/>
      <path d="M 34.28125 27.484375 
Q 23.390625 27.484375 19.1875 25 
Q 14.984375 22.515625 14.984375 16.5 
Q 14.984375 11.71875 18.140625 8.90625 
Q 21.296875 6.109375 26.703125 6.109375 
Q 34.1875 6.109375 38.703125 11.40625 
Q 43.21875 16.703125 43.21875 25.484375 
L 43.21875 27.484375 
z
M 52.203125 31.203125 
L 52.203125 0 
L 43.21875 0 
L 43.21875 8.296875 
Q 40.140625 3.328125 35.546875 0.953125 
Q 30.953125 -1.421875 24.3125 -1.421875 
Q 15.921875 -1.421875 10.953125 3.296875 
Q 6 8.015625 6 15.921875 
Q 6 25.140625 12.171875 29.828125 
Q 18.359375 34.515625 30.609375 34.515625 
L 43.21875 34.515625 
L 43.21875 35.40625 
Q 43.21875 41.609375 39.140625 45 
Q 35.0625 48.390625 27.6875 48.390625 
Q 23 48.390625 18.546875 47.265625 
Q 14.109375 46.140625 10.015625 43.890625 
L 10.015625 52.203125 
Q 14.9375 54.109375 19.578125 55.046875 
Q 24.21875 56 28.609375 56 
Q 40.484375 56 46.34375 49.84375 
Q 52.203125 43.703125 52.203125 31.203125 
z
M 35.796875 79.984375 
L 45.515625 79.984375 
L 29.59375 61.625 
L 22.125 61.625 
z
" id="DejaVuSans-225"/>
      <path d="M 41.109375 46.296875 
Q 39.59375 47.171875 37.8125 47.578125 
Q 36.03125 48 33.890625 48 
Q 26.265625 48 22.1875 43.046875 
Q 18.109375 38.09375 18.109375 28.8125 
L 18.109375 0 
L 9.078125 0 
L 9.078125 54.6875 
L 18.109375 54.6875 
L 18.109375 46.1875 
Q 20.953125 51.171875 25.484375 53.578125 
Q 30.03125 56 36.53125 56 
Q 37.453125 56 38.578125 55.875 
Q 39.703125 55.765625 41.0625 55.515625 
z
" id="DejaVuSans-114"/>
      <path d="M 45.40625 46.390625 
L 45.40625 75.984375 
L 54.390625 75.984375 
L 54.390625 0 
L 45.40625 0 
L 45.40625 8.203125 
Q 42.578125 3.328125 38.25 0.953125 
Q 33.9375 -1.421875 27.875 -1.421875 
Q 17.96875 -1.421875 11.734375 6.484375 
Q 5.515625 14.40625 5.515625 27.296875 
Q 5.515625 40.1875 11.734375 48.09375 
Q 17.96875 56 27.875 56 
Q 33.9375 56 38.25 53.625 
Q 42.578125 51.265625 45.40625 46.390625 
z
M 14.796875 27.296875 
Q 14.796875 17.390625 18.875 11.75 
Q 22.953125 6.109375 30.078125 6.109375 
Q 37.203125 6.109375 41.296875 11.75 
Q 45.40625 17.390625 45.40625 27.296875 
Q 45.40625 37.203125 41.296875 42.84375 
Q 37.203125 48.484375 30.078125 48.484375 
Q 22.953125 48.484375 18.875 42.84375 
Q 14.796875 37.203125 14.796875 27.296875 
z
" id="DejaVuSans-100"/>
      <path d="M 56.203125 29.59375 
L 56.203125 25.203125 
L 14.890625 25.203125 
Q 15.484375 15.921875 20.484375 11.0625 
Q 25.484375 6.203125 34.421875 6.203125 
Q 39.59375 6.203125 44.453125 7.46875 
Q 49.3125 8.734375 54.109375 11.28125 
L 54.109375 2.78125 
Q 49.265625 0.734375 44.1875 -0.34375 
Q 39.109375 -1.421875 33.890625 -1.421875 
Q 20.796875 -1.421875 13.15625 6.1875 
Q 5.515625 13.8125 5.515625 26.8125 
Q 5.515625 40.234375 12.765625 48.109375 
Q 20.015625 56 32.328125 56 
Q 43.359375 56 49.78125 48.890625 
Q 56.203125 41.796875 56.203125 29.59375 
z
M 47.21875 32.234375 
Q 47.125 39.59375 43.09375 43.984375 
Q 39.0625 48.390625 32.421875 48.390625 
Q 24.90625 48.390625 20.390625 44.140625 
Q 15.875 39.890625 15.1875 32.171875 
z
" id="DejaVuSans-101"/>
      <path d="M 9.8125 72.90625 
L 55.90625 72.90625 
L 55.90625 64.59375 
L 19.671875 64.59375 
L 19.671875 43.015625 
L 54.390625 43.015625 
L 54.390625 34.71875 
L 19.671875 34.71875 
L 19.671875 8.296875 
L 56.78125 8.296875 
L 56.78125 0 
L 9.8125 0 
z
" id="DejaVuSans-69"/>
      <path d="M 54.890625 33.015625 
L 54.890625 0 
L 45.90625 0 
L 45.90625 32.71875 
Q 45.90625 40.484375 42.875 44.328125 
Q 39.84375 48.1875 33.796875 48.1875 
Q 26.515625 48.1875 22.3125 43.546875 
Q 18.109375 38.921875 18.109375 30.90625 
L 18.109375 0 
L 9.078125 0 
L 9.078125 54.6875 
L 18.109375 54.6875 
L 18.109375 46.1875 
Q 21.34375 51.125 25.703125 53.5625 
Q 30.078125 56 35.796875 56 
Q 45.21875 56 50.046875 50.171875 
Q 54.890625 44.34375 54.890625 33.015625 
z
" id="DejaVuSans-110"/>
      <path d="M 45.40625 27.984375 
Q 45.40625 37.75 41.375 43.109375 
Q 37.359375 48.484375 30.078125 48.484375 
Q 22.859375 48.484375 18.828125 43.109375 
Q 14.796875 37.75 14.796875 27.984375 
Q 14.796875 18.265625 18.828125 12.890625 
Q 22.859375 7.515625 30.078125 7.515625 
Q 37.359375 7.515625 41.375 12.890625 
Q 45.40625 18.265625 45.40625 27.984375 
z
M 54.390625 6.78125 
Q 54.390625 -7.171875 48.1875 -13.984375 
Q 42 -20.796875 29.203125 -20.796875 
Q 24.46875 -20.796875 20.265625 -20.09375 
Q 16.0625 -19.390625 12.109375 -17.921875 
L 12.109375 -9.1875 
Q 16.0625 -11.328125 19.921875 -12.34375 
Q 23.78125 -13.375 27.78125 -13.375 
Q 36.625 -13.375 41.015625 -8.765625 
Q 45.40625 -4.15625 45.40625 5.171875 
L 45.40625 9.625 
Q 42.625 4.78125 38.28125 2.390625 
Q 33.9375 0 27.875 0 
Q 17.828125 0 11.671875 7.65625 
Q 5.515625 15.328125 5.515625 27.984375 
Q 5.515625 40.671875 11.671875 48.328125 
Q 17.828125 56 27.875 56 
Q 33.9375 56 38.28125 53.609375 
Q 42.625 51.21875 45.40625 46.390625 
L 45.40625 54.6875 
L 54.390625 54.6875 
z
" id="DejaVuSans-103"/>
      <path d="M 64.40625 67.28125 
L 64.40625 56.890625 
Q 59.421875 61.53125 53.78125 63.8125 
Q 48.140625 66.109375 41.796875 66.109375 
Q 29.296875 66.109375 22.65625 58.46875 
Q 16.015625 50.828125 16.015625 36.375 
Q 16.015625 21.96875 22.65625 14.328125 
Q 29.296875 6.6875 41.796875 6.6875 
Q 48.140625 6.6875 53.78125 8.984375 
Q 59.421875 11.28125 64.40625 15.921875 
L 64.40625 5.609375 
Q 59.234375 2.09375 53.4375 0.328125 
Q 47.65625 -1.421875 41.21875 -1.421875 
Q 24.65625 -1.421875 15.125 8.703125 
Q 5.609375 18.84375 5.609375 36.375 
Q 5.609375 53.953125 15.125 64.078125 
Q 24.65625 74.21875 41.21875 74.21875 
Q 47.75 74.21875 53.53125 72.484375 
Q 59.328125 70.75 64.40625 67.28125 
z
" id="DejaVuSans-67"/>
      <path d="M 44.28125 53.078125 
L 44.28125 44.578125 
Q 40.484375 46.53125 36.375 47.5 
Q 32.28125 48.484375 27.875 48.484375 
Q 21.1875 48.484375 17.84375 46.4375 
Q 14.5 44.390625 14.5 40.28125 
Q 14.5 37.15625 16.890625 35.375 
Q 19.28125 33.59375 26.515625 31.984375 
L 29.59375 31.296875 
Q 39.15625 29.25 43.1875 25.515625 
Q 47.21875 21.78125 47.21875 15.09375 
Q 47.21875 7.46875 41.1875 3.015625 
Q 35.15625 -1.421875 24.609375 -1.421875 
Q 20.21875 -1.421875 15.453125 -0.5625 
Q 10.6875 0.296875 5.421875 2 
L 5.421875 11.28125 
Q 10.40625 8.6875 15.234375 7.390625 
Q 20.0625 6.109375 24.8125 6.109375 
Q 31.15625 6.109375 34.5625 8.28125 
Q 37.984375 10.453125 37.984375 14.40625 
Q 37.984375 18.0625 35.515625 20.015625 
Q 33.0625 21.96875 24.703125 23.78125 
L 21.578125 24.515625 
Q 13.234375 26.265625 9.515625 29.90625 
Q 5.8125 33.546875 5.8125 39.890625 
Q 5.8125 47.609375 11.28125 51.796875 
Q 16.75 56 26.8125 56 
Q 31.78125 56 36.171875 55.265625 
Q 40.578125 54.546875 44.28125 53.078125 
z
" id="DejaVuSans-115"/>
     </defs>
     <use xlink:href="#DejaVuSans-83"/>
     <use x="63.476562" xlink:href="#DejaVuSans-111"/>
     <use x="124.658203" xlink:href="#DejaVuSans-109"/>
     <use x="222.070312" xlink:href="#DejaVuSans-97"/>
     <use x="283.349609" xlink:href="#DejaVuSans-32"/>
     <use x="315.136719" xlink:href="#DejaVuSans-68"/>
     <use x="392.138672" xlink:href="#DejaVuSans-105"/>
     <use x="419.921875" xlink:href="#DejaVuSans-225"/>
     <use x="481.201172" xlink:href="#DejaVuSans-114"/>
     <use x="522.314453" xlink:href="#DejaVuSans-105"/>
     <use x="550.097656" xlink:href="#DejaVuSans-97"/>
     <use x="611.376953" xlink:href="#DejaVuSans-32"/>
     <use x="643.164062" xlink:href="#DejaVuSans-100"/>
     <use x="706.640625" xlink:href="#DejaVuSans-101"/>
     <use x="768.164062" xlink:href="#DejaVuSans-32"/>
     <use x="799.951172" xlink:href="#DejaVuSans-69"/>
     <use x="863.134766" xlink:href="#DejaVuSans-110"/>
     <use x="926.513672" xlink:href="#DejaVuSans-101"/>
     <use x="988.037109" xlink:href="#DejaVuSans-114"/>
     <use x="1027.400391" xlink:href="#DejaVuSans-103"/>
     <use x="1090.876953" xlink:href="#DejaVuSans-105"/>
     <use x="1118.660156" xlink:href="#DejaVuSans-97"/>
     <use x="1179.939453" xlink:href="#DejaVuSans-32"/>
     <use x="1211.726562" xlink:href="#DejaVuSans-45"/>
     <use x="1247.810547" xlink:href="#DejaVuSans-32"/>
     <use x="1279.597656" xlink:href="#DejaVuSans-67"/>
     <use x="1349.421875" xlink:href="#DejaVuSans-97"/>
     <use x="1410.701172" xlink:href="#DejaVuSans-115"/>
     <use x="1462.800781" xlink:href="#DejaVuSans-97"/>
     <use x="1524.080078" xlink:href="#DejaVuSans-32"/>
     <use x="1555.867188" xlink:href="#DejaVuSans-50"/>
     <use x="1619.490234" xlink:href="#DejaVuSans-53"/>
    </g>
   </g>
  </g>
 </g>
 <defs>
  <clipPath id="pe29605a999">
   <rect height="217.44" width="334.8" x="54" y="34.56"/>
  </clipPath>
 </defs>
</svg>
