<?xml version="1.0" encoding="utf-8" standalone="no"?>
<!DOCTYPE svg PUBLIC "-//W3C//DTD SVG 1.1//EN"
  "http://www.w3.org/Graphics/SVG/1.1/DTD/svg11.dtd">
<!-- Created with matplotlib (https://matplotlib.org/) -->
<svg height="288pt" version="1.1" viewBox="0 0 432 288" width="432pt" xmlns="http://www.w3.org/2000/svg" xmlns:xlink="http://www.w3.org/1999/xlink">
 <metadata>
  <rdf:RDF xmlns:cc="http://creativecommons.org/ns#" xmlns:dc="http://purl.org/dc/elements/1.1/" xmlns:rdf="http://www.w3.org/1999/02/22-rdf-syntax-ns#">
   <cc:Work>
    <dc:type rdf:resource="http://purl.org/dc/dcmitype/StillImage"/>
    <dc:date>2021-07-21T14:57:42.252093</dc:date>
    <dc:format>image/svg+xml</dc:format>
    <dc:creator>
     <cc:Agent>
      <dc:title>Matplotlib v3.3.4, https://matplotlib.org/</dc:title>
     </cc:Agent>
    </dc:creator>
   </cc:Work>
  </rdf:RDF>
 </metadata>
 <defs>
  <style type="text/css">*{stroke-linecap:butt;stroke-linejoin:round;}</style>
 </defs>
 <g id="figure_1">
  <g id="patch_1">
   <path d="M 0 288 
L 432 288 
L 432 0 
L 0 0 
z
" style="fill:#ffffff;"/>
  </g>
  <g id="axes_1">
   <g id="patch_2">
    <path d="M 54 252 
L 388.8 252 
L 388.8 34.56 
L 54 34.56 
z
" style="fill:#ffffff;"/>
   </g>
   <g id="matplotlib.axis_1">
    <g id="xtick_1">
     <g id="line2d_1">
      <defs>
       <path d="M 0 0 
L 0 3.5 
" id="mb8959a0a0e" style="stroke:#000000;stroke-width:0.8;"/>
      </defs>
      <g>
       <use style="stroke:#000000;stroke-width:0.8;" x="74.536689" xlink:href="#mb8959a0a0e" y="252"/>
      </g>
     </g>
     <g id="text_1">
      <!-- 2016-07 -->
      <g transform="translate(61.715406 293.917817)rotate(-45)scale(0.1 -0.1)">
       <defs>
        <path d="M 19.1875 8.296875 
L 53.609375 8.296875 
L 53.609375 0 
L 7.328125 0 
L 7.328125 8.296875 
Q 12.9375 14.109375 22.625 23.890625 
Q 32.328125 33.6875 34.8125 36.53125 
Q 39.546875 41.84375 41.421875 45.53125 
Q 43.3125 49.21875 43.3125 52.78125 
Q 43.3125 58.59375 39.234375 62.25 
Q 35.15625 65.921875 28.609375 65.921875 
Q 23.96875 65.921875 18.8125 64.3125 
Q 13.671875 62.703125 7.8125 59.421875 
L 7.8125 69.390625 
Q 13.765625 71.78125 18.9375 73 
Q 24.125 74.21875 28.421875 74.21875 
Q 39.75 74.21875 46.484375 68.546875 
Q 53.21875 62.890625 53.21875 53.421875 
Q 53.21875 48.921875 51.53125 44.890625 
Q 49.859375 40.875 45.40625 35.40625 
Q 44.1875 33.984375 37.640625 27.21875 
Q 31.109375 20.453125 19.1875 8.296875 
z
" id="DejaVuSans-50"/>
        <path d="M 31.78125 66.40625 
Q 24.171875 66.40625 20.328125 58.90625 
Q 16.5 51.421875 16.5 36.375 
Q 16.5 21.390625 20.328125 13.890625 
Q 24.171875 6.390625 31.78125 6.390625 
Q 39.453125 6.390625 43.28125 13.890625 
Q 47.125 21.390625 47.125 36.375 
Q 47.125 51.421875 43.28125 58.90625 
Q 39.453125 66.40625 31.78125 66.40625 
z
M 31.78125 74.21875 
Q 44.046875 74.21875 50.515625 64.515625 
Q 56.984375 54.828125 56.984375 36.375 
Q 56.984375 17.96875 50.515625 8.265625 
Q 44.046875 -1.421875 31.78125 -1.421875 
Q 19.53125 -1.421875 13.0625 8.265625 
Q 6.59375 17.96875 6.59375 36.375 
Q 6.59375 54.828125 13.0625 64.515625 
Q 19.53125 74.21875 31.78125 74.21875 
z
" id="DejaVuSans-48"/>
        <path d="M 12.40625 8.296875 
L 28.515625 8.296875 
L 28.515625 63.921875 
L 10.984375 60.40625 
L 10.984375 69.390625 
L 28.421875 72.90625 
L 38.28125 72.90625 
L 38.28125 8.296875 
L 54.390625 8.296875 
L 54.390625 0 
L 12.40625 0 
z
" id="DejaVuSans-49"/>
        <path d="M 33.015625 40.375 
Q 26.375 40.375 22.484375 35.828125 
Q 18.609375 31.296875 18.609375 23.390625 
Q 18.609375 15.53125 22.484375 10.953125 
Q 26.375 6.390625 33.015625 6.390625 
Q 39.65625 6.390625 43.53125 10.953125 
Q 47.40625 15.53125 47.40625 23.390625 
Q 47.40625 31.296875 43.53125 35.828125 
Q 39.65625 40.375 33.015625 40.375 
z
M 52.59375 71.296875 
L 52.59375 62.3125 
Q 48.875 64.0625 45.09375 64.984375 
Q 41.3125 65.921875 37.59375 65.921875 
Q 27.828125 65.921875 22.671875 59.328125 
Q 17.53125 52.734375 16.796875 39.40625 
Q 19.671875 43.65625 24.015625 45.921875 
Q 28.375 48.1875 33.59375 48.1875 
Q 44.578125 48.1875 50.953125 41.515625 
Q 57.328125 34.859375 57.328125 23.390625 
Q 57.328125 12.15625 50.6875 5.359375 
Q 44.046875 -1.421875 33.015625 -1.421875 
Q 20.359375 -1.421875 13.671875 8.265625 
Q 6.984375 17.96875 6.984375 36.375 
Q 6.984375 53.65625 15.1875 63.9375 
Q 23.390625 74.21875 37.203125 74.21875 
Q 40.921875 74.21875 44.703125 73.484375 
Q 48.484375 72.75 52.59375 71.296875 
z
" id="DejaVuSans-54"/>
        <path d="M 4.890625 31.390625 
L 31.203125 31.390625 
L 31.203125 23.390625 
L 4.890625 23.390625 
z
" id="DejaVuSans-45"/>
        <path d="M 8.203125 72.90625 
L 55.078125 72.90625 
L 55.078125 68.703125 
L 28.609375 0 
L 18.3125 0 
L 43.21875 64.59375 
L 8.203125 64.59375 
z
" id="DejaVuSans-55"/>
       </defs>
       <use xlink:href="#DejaVuSans-50"/>
       <use x="63.623047" xlink:href="#DejaVuSans-48"/>
       <use x="127.246094" xlink:href="#DejaVuSans-49"/>
       <use x="190.869141" xlink:href="#DejaVuSans-54"/>
       <use x="254.492188" xlink:href="#DejaVuSans-45"/>
       <use x="290.576172" xlink:href="#DejaVuSans-48"/>
       <use x="354.199219" xlink:href="#DejaVuSans-55"/>
      </g>
     </g>
    </g>
    <g id="xtick_2">
     <g id="line2d_2">
      <g>
       <use style="stroke:#000000;stroke-width:0.8;" x="119.018745" xlink:href="#mb8959a0a0e" y="252"/>
      </g>
     </g>
     <g id="text_2">
      <!-- 2017-01 -->
      <g transform="translate(106.197463 293.917817)rotate(-45)scale(0.1 -0.1)">
       <use xlink:href="#DejaVuSans-50"/>
       <use x="63.623047" xlink:href="#DejaVuSans-48"/>
       <use x="127.246094" xlink:href="#DejaVuSans-49"/>
       <use x="190.869141" xlink:href="#DejaVuSans-55"/>
       <use x="254.492188" xlink:href="#DejaVuSans-45"/>
       <use x="290.576172" xlink:href="#DejaVuSans-48"/>
       <use x="354.199219" xlink:href="#DejaVuSans-49"/>
      </g>
     </g>
    </g>
    <g id="xtick_3">
     <g id="line2d_3">
      <g>
       <use style="stroke:#000000;stroke-width:0.8;" x="162.775551" xlink:href="#mb8959a0a0e" y="252"/>
      </g>
     </g>
     <g id="text_3">
      <!-- 2017-07 -->
      <g transform="translate(149.954268 293.917817)rotate(-45)scale(0.1 -0.1)">
       <use xlink:href="#DejaVuSans-50"/>
       <use x="63.623047" xlink:href="#DejaVuSans-48"/>
       <use x="127.246094" xlink:href="#DejaVuSans-49"/>
       <use x="190.869141" xlink:href="#DejaVuSans-55"/>
       <use x="254.492188" xlink:href="#DejaVuSans-45"/>
       <use x="290.576172" xlink:href="#DejaVuSans-48"/>
       <use x="354.199219" xlink:href="#DejaVuSans-55"/>
      </g>
     </g>
    </g>
    <g id="xtick_4">
     <g id="line2d_4">
      <g>
       <use style="stroke:#000000;stroke-width:0.8;" x="207.257607" xlink:href="#mb8959a0a0e" y="252"/>
      </g>
     </g>
     <g id="text_4">
      <!-- 2018-01 -->
      <g transform="translate(194.436325 293.917817)rotate(-45)scale(0.1 -0.1)">
       <defs>
        <path d="M 31.78125 34.625 
Q 24.75 34.625 20.71875 30.859375 
Q 16.703125 27.09375 16.703125 20.515625 
Q 16.703125 13.921875 20.71875 10.15625 
Q 24.75 6.390625 31.78125 6.390625 
Q 38.8125 6.390625 42.859375 10.171875 
Q 46.921875 13.96875 46.921875 20.515625 
Q 46.921875 27.09375 42.890625 30.859375 
Q 38.875 34.625 31.78125 34.625 
z
M 21.921875 38.8125 
Q 15.578125 40.375 12.03125 44.71875 
Q 8.5 49.078125 8.5 55.328125 
Q 8.5 64.0625 14.71875 69.140625 
Q 20.953125 74.21875 31.78125 74.21875 
Q 42.671875 74.21875 48.875 69.140625 
Q 55.078125 64.0625 55.078125 55.328125 
Q 55.078125 49.078125 51.53125 44.71875 
Q 48 40.375 41.703125 38.8125 
Q 48.828125 37.15625 52.796875 32.3125 
Q 56.78125 27.484375 56.78125 20.515625 
Q 56.78125 9.90625 50.3125 4.234375 
Q 43.84375 -1.421875 31.78125 -1.421875 
Q 19.734375 -1.421875 13.25 4.234375 
Q 6.78125 9.90625 6.78125 20.515625 
Q 6.78125 27.484375 10.78125 32.3125 
Q 14.796875 37.15625 21.921875 38.8125 
z
M 18.3125 54.390625 
Q 18.3125 48.734375 21.84375 45.5625 
Q 25.390625 42.390625 31.78125 42.390625 
Q 38.140625 42.390625 41.71875 45.5625 
Q 45.3125 48.734375 45.3125 54.390625 
Q 45.3125 60.0625 41.71875 63.234375 
Q 38.140625 66.40625 31.78125 66.40625 
Q 25.390625 66.40625 21.84375 63.234375 
Q 18.3125 60.0625 18.3125 54.390625 
z
" id="DejaVuSans-56"/>
       </defs>
       <use xlink:href="#DejaVuSans-50"/>
       <use x="63.623047" xlink:href="#DejaVuSans-48"/>
       <use x="127.246094" xlink:href="#DejaVuSans-49"/>
       <use x="190.869141" xlink:href="#DejaVuSans-56"/>
       <use x="254.492188" xlink:href="#DejaVuSans-45"/>
       <use x="290.576172" xlink:href="#DejaVuSans-48"/>
       <use x="354.199219" xlink:href="#DejaVuSans-49"/>
      </g>
     </g>
    </g>
    <g id="xtick_5">
     <g id="line2d_5">
      <g>
       <use style="stroke:#000000;stroke-width:0.8;" x="251.014413" xlink:href="#mb8959a0a0e" y="252"/>
      </g>
     </g>
     <g id="text_5">
      <!-- 2018-07 -->
      <g transform="translate(238.19313 293.917817)rotate(-45)scale(0.1 -0.1)">
       <use xlink:href="#DejaVuSans-50"/>
       <use x="63.623047" xlink:href="#DejaVuSans-48"/>
       <use x="127.246094" xlink:href="#DejaVuSans-49"/>
       <use x="190.869141" xlink:href="#DejaVuSans-56"/>
       <use x="254.492188" xlink:href="#DejaVuSans-45"/>
       <use x="290.576172" xlink:href="#DejaVuSans-48"/>
       <use x="354.199219" xlink:href="#DejaVuSans-55"/>
      </g>
     </g>
    </g>
    <g id="xtick_6">
     <g id="line2d_6">
      <g>
       <use style="stroke:#000000;stroke-width:0.8;" x="295.496469" xlink:href="#mb8959a0a0e" y="252"/>
      </g>
     </g>
     <g id="text_6">
      <!-- 2019-01 -->
      <g transform="translate(282.675187 293.917817)rotate(-45)scale(0.1 -0.1)">
       <defs>
        <path d="M 10.984375 1.515625 
L 10.984375 10.5 
Q 14.703125 8.734375 18.5 7.8125 
Q 22.3125 6.890625 25.984375 6.890625 
Q 35.75 6.890625 40.890625 13.453125 
Q 46.046875 20.015625 46.78125 33.40625 
Q 43.953125 29.203125 39.59375 26.953125 
Q 35.25 24.703125 29.984375 24.703125 
Q 19.046875 24.703125 12.671875 31.3125 
Q 6.296875 37.9375 6.296875 49.421875 
Q 6.296875 60.640625 12.9375 67.421875 
Q 19.578125 74.21875 30.609375 74.21875 
Q 43.265625 74.21875 49.921875 64.515625 
Q 56.59375 54.828125 56.59375 36.375 
Q 56.59375 19.140625 48.40625 8.859375 
Q 40.234375 -1.421875 26.421875 -1.421875 
Q 22.703125 -1.421875 18.890625 -0.6875 
Q 15.09375 0.046875 10.984375 1.515625 
z
M 30.609375 32.421875 
Q 37.25 32.421875 41.125 36.953125 
Q 45.015625 41.5 45.015625 49.421875 
Q 45.015625 57.28125 41.125 61.84375 
Q 37.25 66.40625 30.609375 66.40625 
Q 23.96875 66.40625 20.09375 61.84375 
Q 16.21875 57.28125 16.21875 49.421875 
Q 16.21875 41.5 20.09375 36.953125 
Q 23.96875 32.421875 30.609375 32.421875 
z
" id="DejaVuSans-57"/>
       </defs>
       <use xlink:href="#DejaVuSans-50"/>
       <use x="63.623047" xlink:href="#DejaVuSans-48"/>
       <use x="127.246094" xlink:href="#DejaVuSans-49"/>
       <use x="190.869141" xlink:href="#DejaVuSans-57"/>
       <use x="254.492188" xlink:href="#DejaVuSans-45"/>
       <use x="290.576172" xlink:href="#DejaVuSans-48"/>
       <use x="354.199219" xlink:href="#DejaVuSans-49"/>
      </g>
     </g>
    </g>
    <g id="xtick_7">
     <g id="line2d_7">
      <g>
       <use style="stroke:#000000;stroke-width:0.8;" x="339.253275" xlink:href="#mb8959a0a0e" y="252"/>
      </g>
     </g>
     <g id="text_7">
      <!-- 2019-07 -->
      <g transform="translate(326.431992 293.917817)rotate(-45)scale(0.1 -0.1)">
       <use xlink:href="#DejaVuSans-50"/>
       <use x="63.623047" xlink:href="#DejaVuSans-48"/>
       <use x="127.246094" xlink:href="#DejaVuSans-49"/>
       <use x="190.869141" xlink:href="#DejaVuSans-57"/>
       <use x="254.492188" xlink:href="#DejaVuSans-45"/>
       <use x="290.576172" xlink:href="#DejaVuSans-48"/>
       <use x="354.199219" xlink:href="#DejaVuSans-55"/>
      </g>
     </g>
    </g>
    <g id="xtick_8">
     <g id="line2d_8">
      <g>
       <use style="stroke:#000000;stroke-width:0.8;" x="383.735331" xlink:href="#mb8959a0a0e" y="252"/>
      </g>
     </g>
     <g id="text_8">
      <!-- 2020-01 -->
      <g transform="translate(370.914049 293.917817)rotate(-45)scale(0.1 -0.1)">
       <use xlink:href="#DejaVuSans-50"/>
       <use x="63.623047" xlink:href="#DejaVuSans-48"/>
       <use x="127.246094" xlink:href="#DejaVuSans-50"/>
       <use x="190.869141" xlink:href="#DejaVuSans-48"/>
       <use x="254.492188" xlink:href="#DejaVuSans-45"/>
       <use x="290.576172" xlink:href="#DejaVuSans-48"/>
       <use x="354.199219" xlink:href="#DejaVuSans-49"/>
      </g>
     </g>
    </g>
   </g>
   <g id="matplotlib.axis_2">
    <g id="ytick_1">
     <g id="line2d_9">
      <defs>
       <path d="M 0 0 
L -3.5 0 
" id="m098ea00be3" style="stroke:#000000;stroke-width:0.8;"/>
      </defs>
      <g>
       <use style="stroke:#000000;stroke-width:0.8;" x="54" xlink:href="#m098ea00be3" y="245.931277"/>
      </g>
     </g>
     <g id="text_9">
      <!-- 2.5 -->
      <g transform="translate(31.096875 249.730495)scale(0.1 -0.1)">
       <defs>
        <path d="M 10.6875 12.40625 
L 21 12.40625 
L 21 0 
L 10.6875 0 
z
" id="DejaVuSans-46"/>
        <path d="M 10.796875 72.90625 
L 49.515625 72.90625 
L 49.515625 64.59375 
L 19.828125 64.59375 
L 19.828125 46.734375 
Q 21.96875 47.46875 24.109375 47.828125 
Q 26.265625 48.1875 28.421875 48.1875 
Q 40.625 48.1875 47.75 41.5 
Q 54.890625 34.8125 54.890625 23.390625 
Q 54.890625 11.625 47.5625 5.09375 
Q 40.234375 -1.421875 26.90625 -1.421875 
Q 22.3125 -1.421875 17.546875 -0.640625 
Q 12.796875 0.140625 7.71875 1.703125 
L 7.71875 11.625 
Q 12.109375 9.234375 16.796875 8.0625 
Q 21.484375 6.890625 26.703125 6.890625 
Q 35.15625 6.890625 40.078125 11.328125 
Q 45.015625 15.765625 45.015625 23.390625 
Q 45.015625 31 40.078125 35.4375 
Q 35.15625 39.890625 26.703125 39.890625 
Q 22.75 39.890625 18.8125 39.015625 
Q 14.890625 38.140625 10.796875 36.28125 
z
" id="DejaVuSans-53"/>
       </defs>
       <use xlink:href="#DejaVuSans-50"/>
       <use x="63.623047" xlink:href="#DejaVuSans-46"/>
       <use x="95.410156" xlink:href="#DejaVuSans-53"/>
      </g>
     </g>
    </g>
    <g id="ytick_2">
     <g id="line2d_10">
      <g>
       <use style="stroke:#000000;stroke-width:0.8;" x="54" xlink:href="#m098ea00be3" y="220.833165"/>
      </g>
     </g>
     <g id="text_10">
      <!-- 5.0 -->
      <g transform="translate(31.096875 224.632384)scale(0.1 -0.1)">
       <use xlink:href="#DejaVuSans-53"/>
       <use x="63.623047" xlink:href="#DejaVuSans-46"/>
       <use x="95.410156" xlink:href="#DejaVuSans-48"/>
      </g>
     </g>
    </g>
    <g id="ytick_3">
     <g id="line2d_11">
      <g>
       <use style="stroke:#000000;stroke-width:0.8;" x="54" xlink:href="#m098ea00be3" y="195.735053"/>
      </g>
     </g>
     <g id="text_11">
      <!-- 7.5 -->
      <g transform="translate(31.096875 199.534272)scale(0.1 -0.1)">
       <use xlink:href="#DejaVuSans-55"/>
       <use x="63.623047" xlink:href="#DejaVuSans-46"/>
       <use x="95.410156" xlink:href="#DejaVuSans-53"/>
      </g>
     </g>
    </g>
    <g id="ytick_4">
     <g id="line2d_12">
      <g>
       <use style="stroke:#000000;stroke-width:0.8;" x="54" xlink:href="#m098ea00be3" y="170.636942"/>
      </g>
     </g>
     <g id="text_12">
      <!-- 10.0 -->
      <g transform="translate(24.734375 174.43616)scale(0.1 -0.1)">
       <use xlink:href="#DejaVuSans-49"/>
       <use x="63.623047" xlink:href="#DejaVuSans-48"/>
       <use x="127.246094" xlink:href="#DejaVuSans-46"/>
       <use x="159.033203" xlink:href="#DejaVuSans-48"/>
      </g>
     </g>
    </g>
    <g id="ytick_5">
     <g id="line2d_13">
      <g>
       <use style="stroke:#000000;stroke-width:0.8;" x="54" xlink:href="#m098ea00be3" y="145.53883"/>
      </g>
     </g>
     <g id="text_13">
      <!-- 12.5 -->
      <g transform="translate(24.734375 149.338049)scale(0.1 -0.1)">
       <use xlink:href="#DejaVuSans-49"/>
       <use x="63.623047" xlink:href="#DejaVuSans-50"/>
       <use x="127.246094" xlink:href="#DejaVuSans-46"/>
       <use x="159.033203" xlink:href="#DejaVuSans-53"/>
      </g>
     </g>
    </g>
    <g id="ytick_6">
     <g id="line2d_14">
      <g>
       <use style="stroke:#000000;stroke-width:0.8;" x="54" xlink:href="#m098ea00be3" y="120.440718"/>
      </g>
     </g>
     <g id="text_14">
      <!-- 15.0 -->
      <g transform="translate(24.734375 124.239937)scale(0.1 -0.1)">
       <use xlink:href="#DejaVuSans-49"/>
       <use x="63.623047" xlink:href="#DejaVuSans-53"/>
       <use x="127.246094" xlink:href="#DejaVuSans-46"/>
       <use x="159.033203" xlink:href="#DejaVuSans-48"/>
      </g>
     </g>
    </g>
    <g id="ytick_7">
     <g id="line2d_15">
      <g>
       <use style="stroke:#000000;stroke-width:0.8;" x="54" xlink:href="#m098ea00be3" y="95.342607"/>
      </g>
     </g>
     <g id="text_15">
      <!-- 17.5 -->
      <g transform="translate(24.734375 99.141826)scale(0.1 -0.1)">
       <use xlink:href="#DejaVuSans-49"/>
       <use x="63.623047" xlink:href="#DejaVuSans-55"/>
       <use x="127.246094" xlink:href="#DejaVuSans-46"/>
       <use x="159.033203" xlink:href="#DejaVuSans-53"/>
      </g>
     </g>
    </g>
    <g id="ytick_8">
     <g id="line2d_16">
      <g>
       <use style="stroke:#000000;stroke-width:0.8;" x="54" xlink:href="#m098ea00be3" y="70.244495"/>
      </g>
     </g>
     <g id="text_16">
      <!-- 20.0 -->
      <g transform="translate(24.734375 74.043714)scale(0.1 -0.1)">
       <use xlink:href="#DejaVuSans-50"/>
       <use x="63.623047" xlink:href="#DejaVuSans-48"/>
       <use x="127.246094" xlink:href="#DejaVuSans-46"/>
       <use x="159.033203" xlink:href="#DejaVuSans-48"/>
      </g>
     </g>
    </g>
    <g id="ytick_9">
     <g id="line2d_17">
      <g>
       <use style="stroke:#000000;stroke-width:0.8;" x="54" xlink:href="#m098ea00be3" y="45.146383"/>
      </g>
     </g>
     <g id="text_17">
      <!-- 22.5 -->
      <g transform="translate(24.734375 48.945602)scale(0.1 -0.1)">
       <use xlink:href="#DejaVuSans-50"/>
       <use x="63.623047" xlink:href="#DejaVuSans-50"/>
       <use x="127.246094" xlink:href="#DejaVuSans-46"/>
       <use x="159.033203" xlink:href="#DejaVuSans-53"/>
      </g>
     </g>
    </g>
   </g>
   <g id="line2d_18">
    <path clip-path="url(#pbbad37da55)" d="M 69.218182 198.144472 
L 69.701682 136.403117 
L 69.943433 191.217393 
L 70.185183 178.266768 
L 70.426933 176.459704 
L 70.668684 194.429952 
L 70.910434 95.643784 
L 71.152184 191.016608 
L 71.393935 166.018889 
L 71.635685 192.823672 
L 71.877435 187.00091 
L 72.119186 176.058134 
L 72.360936 186.900518 
L 72.602686 204.870766 
L 72.844436 179.873047 
L 73.086187 82.291589 
L 73.569687 222.941406 
L 73.811438 238.000273 
L 74.294938 239.004198 
L 74.536689 239.90773 
L 74.778439 237.448115 
L 75.020189 240.008122 
L 75.50369 241.514009 
L 75.74544 241.112439 
L 75.98719 170.737334 
L 76.228941 195.032306 
L 76.470691 142.025094 
L 76.712441 199.349181 
L 76.954192 120.641503 
L 77.195942 211.697452 
L 77.437692 204.870766 
L 77.679443 211.59706 
L 77.921193 204.569589 
L 78.162943 171.239296 
L 78.646444 157.385139 
L 78.888194 205.071551 
L 79.129944 189.811899 
L 79.371695 198.445649 
L 79.613445 189.309937 
L 79.855195 125.661126 
L 80.096946 141.623525 
L 80.338696 209.689603 
L 80.580446 153.269048 
L 80.822197 216.616682 
L 81.063947 200.654283 
L 81.305697 142.225879 
L 81.547447 179.421281 
L 81.789198 182.985213 
L 82.030948 114.818741 
L 82.756199 178.567945 
L 82.997949 182.985213 
L 83.2397 201.858993 
L 83.48145 192.72328 
L 83.7232 91.226516 
L 83.964951 207.48097 
L 84.206701 198.847219 
L 84.448451 214.709226 
L 84.690201 206.175868 
L 84.931952 186.599341 
L 85.173702 122.247782 
L 85.415452 205.573513 
L 85.657203 206.878615 
L 85.898953 212.099022 
L 86.140703 198.345257 
L 86.382454 202.862917 
L 86.624204 162.505154 
L 86.865954 98.35438 
L 87.107705 207.0794 
L 87.349455 212.299807 
L 87.591205 197.341332 
L 87.832955 209.388426 
L 88.074706 208.986856 
L 88.316456 178.76873 
L 88.558206 164.111433 
L 88.799957 201.7586 
L 89.041707 165.115357 
L 89.283457 212.600984 
L 89.525208 205.473121 
L 89.766958 217.118644 
L 90.008708 199.750751 
L 90.250459 133.290952 
L 90.733959 208.183717 
L 90.975709 193.325635 
L 91.21746 203.766449 
L 91.45921 208.685679 
L 91.70096 157.485531 
L 91.942711 221.535912 
L 92.426211 200.754676 
L 92.667962 206.075475 
L 92.909712 129.476039 
L 93.151462 208.284109 
L 93.393213 198.546042 
L 93.634963 153.871403 
L 93.876713 209.890388 
L 94.118463 217.520214 
L 94.360214 201.35703 
L 94.601964 210.994705 
L 94.843714 199.951536 
L 95.085465 207.280185 
L 95.327215 164.513002 
L 95.568965 153.168656 
L 95.810716 208.284109 
L 96.052466 158.690241 
L 96.294216 194.731129 
L 96.535966 194.028382 
L 96.777717 167.223599 
L 97.019467 216.315505 
L 97.261217 197.943687 
L 97.502968 194.931914 
L 97.986468 206.878615 
L 98.228219 203.465272 
L 98.711719 80.082955 
L 98.95347 206.577438 
L 99.19522 198.144472 
L 99.43697 200.152321 
L 99.67872 199.650359 
L 99.920471 194.128774 
L 100.162221 142.527057 
L 100.403971 156.782784 
L 100.645722 203.766449 
L 100.887472 201.055853 
L 101.129222 148.048641 
L 101.370973 202.963309 
L 101.612723 198.144472 
L 101.854473 198.04408 
L 102.096224 96.948886 
L 102.337974 200.353106 
L 102.579724 200.252713 
L 102.821474 198.244864 
L 103.063225 145.338045 
L 103.304975 188.807975 
L 103.546725 202.662132 
L 103.788476 44.443636 
L 104.030226 188.20562 
L 104.271976 195.233091 
L 104.513727 191.719355 
L 104.755477 199.449574 
L 104.997227 198.244864 
L 105.238978 153.369441 
L 105.480728 86.909641 
L 105.722478 193.12485 
L 105.964228 195.233091 
L 106.205979 184.189922 
L 106.447729 200.553891 
L 106.689479 199.349181 
L 107.17298 101.064976 
L 107.41473 204.669981 
L 107.656481 197.843295 
L 107.898231 181.579718 
L 108.139981 193.52642 
L 108.381732 187.80405 
L 108.623482 202.260562 
L 108.865232 72.453129 
L 109.106982 195.433876 
L 109.348733 197.742902 
L 109.590483 191.618963 
L 109.832233 193.275438 
L 110.073984 183.788352 
L 110.315734 146.442362 
L 110.557484 132.588204 
L 110.799235 185.394631 
L 111.040985 188.807975 
L 111.282735 141.924702 
L 111.524486 185.896594 
L 111.766236 176.660488 
L 112.007986 180.977364 
L 112.249736 117.328553 
L 112.491487 195.835446 
L 112.733237 142.426664 
L 112.974987 190.815823 
L 113.216738 192.522495 
L 113.458488 173.949892 
L 113.700238 190.213469 
L 113.941989 122.14739 
L 114.183739 156.581999 
L 114.425489 167.123206 
L 114.66724 193.626812 
L 114.90899 192.522495 
L 115.15074 189.811899 
L 115.39249 184.039333 
L 115.634241 75.565295 
L 115.875991 187.40248 
L 116.117741 197.64251 
L 116.359492 200.754676 
L 116.601242 181.780503 
L 116.842992 198.144472 
L 117.084743 163.007116 
L 117.326493 165.316142 
L 117.568243 156.682392 
L 118.051744 201.7586 
L 118.293494 186.097378 
L 118.535244 179.571869 
L 118.776995 169.633017 
L 119.018745 67.031937 
L 119.260495 199.650359 
L 119.502246 177.56402 
L 119.743996 198.04408 
L 119.985746 177.865198 
L 120.469247 207.782147 
L 120.710997 189.611114 
L 120.952747 118.834439 
L 121.677998 195.032306 
L 121.919749 200.353106 
L 122.161499 211.59706 
L 122.403249 87.612388 
L 122.645 194.329559 
L 122.88675 187.00091 
L 123.1285 198.144472 
L 123.370251 197.843295 
L 123.612001 203.164094 
L 123.853751 193.426027 
L 124.095501 96.246139 
L 124.337252 201.055853 
L 124.579002 191.217393 
L 124.820752 201.557815 
L 125.062503 182.88482 
L 125.304253 207.48097 
L 125.546003 208.183717 
L 125.787754 147.044717 
L 126.029504 157.786709 
L 126.271254 186.398556 
L 126.513005 196.036231 
L 126.754755 160.698089 
L 126.996505 197.742902 
L 127.238255 210.894313 
L 127.480006 110.301081 
L 127.721756 196.638585 
L 127.963506 201.156245 
L 128.205257 148.249426 
L 128.447007 190.414254 
L 128.688757 203.264487 
L 129.172258 144.836083 
L 129.414008 201.658208 
L 129.655759 193.827597 
L 129.897509 196.036231 
L 130.139259 167.424383 
L 130.381009 210.191566 
L 130.62276 166.621244 
L 130.86451 161.400837 
L 131.10626 202.762525 
L 131.348011 204.870766 
L 131.589761 203.866841 
L 131.831511 193.927989 
L 132.073262 157.535727 
L 132.315012 211.99863 
L 132.556762 128.672899 
L 132.798513 203.565664 
L 133.040263 188.004835 
L 133.523763 205.272336 
L 133.765514 201.055853 
L 134.007264 212.701377 
L 134.249014 72.252344 
L 134.490765 191.719355 
L 134.732515 183.989137 
L 134.974265 202.862917 
L 135.216016 159.192203 
L 135.457766 204.669981 
L 135.699516 142.326272 
L 135.941267 196.4378 
L 136.183017 131.98585 
L 136.424767 183.989137 
L 136.666517 125.761518 
L 136.908268 180.676186 
L 137.391768 190.213469 
L 137.633519 183.587567 
L 137.875269 79.88217 
L 138.117019 116.324628 
L 138.35877 200.102125 
L 138.60052 200.553891 
L 138.84227 194.630736 
L 139.084021 210.291958 
L 139.325771 200.353106 
L 139.567521 154.97572 
L 139.809271 203.465272 
L 140.051022 206.075475 
L 140.292772 124.556809 
L 140.534522 194.128774 
L 140.776273 194.931914 
L 141.018023 148.650996 
L 141.259773 195.233091 
L 141.501524 169.231447 
L 141.743274 196.83937 
L 141.985024 139.214106 
L 142.226774 199.549966 
L 142.468525 196.136623 
L 142.710275 165.115357 
L 142.952025 193.325635 
L 143.193776 156.381214 
L 143.435526 208.384502 
L 143.677276 201.959385 
L 143.919027 173.247145 
L 144.160777 215.211188 
L 144.402527 145.338045 
L 144.644278 209.589211 
L 144.886028 167.223599 
L 145.127778 200.553891 
L 145.369528 198.646434 
L 145.611279 211.295883 
L 145.853029 215.411973 
L 146.094779 115.822666 
L 146.33653 215.71315 
L 146.57828 153.871403 
L 146.82003 208.284109 
L 147.061781 209.990781 
L 147.303531 210.79392 
L 147.545281 149.052566 
L 147.787032 172.042436 
L 148.028782 207.330381 
L 148.270532 201.256638 
L 148.512282 200.252713 
L 148.754033 208.786071 
L 148.995783 212.801769 
L 149.237533 220.933557 
L 149.479284 64.522126 
L 149.721034 199.048004 
L 149.962784 209.990781 
L 150.204535 205.372728 
L 150.446285 207.982932 
L 150.688035 208.284109 
L 150.929786 195.032306 
L 151.171536 165.316142 
L 151.413286 205.372728 
L 151.655036 209.488819 
L 151.896787 115.822666 
L 152.138537 207.430773 
L 152.380287 212.099022 
L 152.622038 180.274617 
L 152.863788 198.746827 
L 153.105538 198.445649 
L 153.347289 218.624531 
L 153.589039 211.797845 
L 153.830789 214.608833 
L 154.07254 210.392351 
L 154.31429 115.421096 
L 154.79779 214.106871 
L 155.039541 211.396275 
L 155.281291 204.569589 
L 155.523041 212.801769 
L 156.006542 137.607827 
L 156.248292 226.153965 
L 156.731793 176.058134 
L 156.973543 222.238659 
L 157.457044 209.388426 
L 157.698794 133.592129 
L 157.940544 204.770374 
L 158.182295 183.587567 
L 158.424045 208.986856 
L 158.665795 175.957741 
L 158.907546 207.0794 
L 159.149296 194.931914 
L 159.391046 167.123206 
L 159.632797 155.979644 
L 159.874547 210.79392 
L 160.116297 202.762525 
L 160.358048 214.207263 
L 160.599798 167.123206 
L 160.841548 161.902799 
L 161.083298 151.963947 
L 161.325049 203.766449 
L 161.566799 200.453498 
L 161.808549 168.5287 
L 162.0503 199.851144 
L 162.29205 171.942043 
L 162.5338 200.252713 
L 162.775551 154.473758 
L 163.017301 174.953817 
L 163.259051 177.062058 
L 163.742552 215.110796 
L 163.984302 181.278541 
L 164.226052 188.707582 
L 164.467803 138.210181 
L 164.709553 200.051929 
L 164.951303 222.640229 
L 165.193054 184.08953 
L 165.434804 215.512365 
L 165.676554 204.971158 
L 165.918305 213.203339 
L 166.401805 130.881533 
L 166.643555 188.306012 
L 166.885306 214.809618 
L 167.127056 214.307656 
L 167.368806 211.496667 
L 167.610557 170.536549 
L 167.852307 161.802406 
L 168.094057 204.870766 
L 168.335808 214.910011 
L 168.577558 205.171943 
L 168.819308 213.203339 
L 169.061059 183.28639 
L 169.302809 217.118644 
L 169.544559 170.837727 
L 169.786309 214.608833 
L 170.02806 171.138904 
L 170.26981 207.982932 
L 170.753311 219.327278 
L 170.995061 213.906086 
L 171.236811 201.055853 
L 171.478562 220.933557 
L 171.720312 152.265124 
L 171.962062 193.52642 
L 172.203813 177.764805 
L 172.445563 223.342976 
L 172.687313 239.807337 
L 172.929063 241.564205 
L 173.412564 241.815186 
L 173.654314 241.614401 
L 174.379565 241.915579 
L 174.621316 155.176505 
L 174.863066 216.014328 
L 175.104816 211.99863 
L 175.346567 215.612758 
L 175.588317 188.707582 
L 175.830067 205.171943 
L 176.071817 210.994705 
L 176.313568 210.492743 
L 176.555318 202.56174 
L 176.797068 168.026738 
L 177.038819 212.400199 
L 177.280569 210.693528 
L 177.522319 203.465272 
L 177.76407 200.855068 
L 178.00582 177.865198 
L 178.24757 208.083324 
L 178.489321 174.953817 
L 178.731071 209.890388 
L 179.214571 217.118644 
L 179.698072 210.79392 
L 179.939822 156.381214 
L 180.181573 165.717712 
L 180.423323 205.071551 
L 180.665073 197.64251 
L 180.906824 213.404124 
L 181.148574 209.990781 
L 181.390324 214.709226 
L 181.632075 185.495024 
L 181.873825 191.016608 
L 182.115575 169.131055 
L 182.357325 216.11472 
L 182.840826 195.433876 
L 183.082576 169.030663 
L 183.324327 173.347538 
L 183.566077 167.424383 
L 183.807827 193.225242 
L 184.049578 206.778222 
L 184.291328 206.67783 
L 184.533078 198.244864 
L 184.774829 216.215112 
L 185.016579 153.871403 
L 185.258329 174.953817 
L 185.500079 183.888745 
L 185.74183 213.604909 
L 185.98358 204.971158 
L 186.22533 184.189922 
L 186.467081 200.955461 
L 186.708831 162.404761 
L 186.950581 199.750751 
L 187.192332 189.209544 
L 187.434082 208.585286 
L 187.675832 193.626812 
L 187.917582 154.57415 
L 188.159333 172.845576 
L 188.401083 107.490093 
L 188.642833 202.16017 
L 188.884584 190.213469 
L 189.126334 207.581362 
L 189.368084 207.581362 
L 189.609835 210.392351 
L 189.851585 122.649352 
L 190.093335 193.52642 
L 190.335086 195.634661 
L 190.576836 158.991418 
L 190.818586 200.152321 
L 191.060336 185.093454 
L 191.302087 197.24094 
L 191.543837 164.312218 
L 191.785587 170.235372 
L 192.027338 208.685679 
L 192.269088 175.857349 
L 192.510838 195.634661 
L 192.752589 163.509078 
L 192.994339 199.148397 
L 193.236089 173.749108 
L 193.47784 128.070544 
L 193.71959 192.522495 
L 193.96134 160.497305 
L 194.20309 189.410329 
L 194.444841 165.918497 
L 194.686591 199.951536 
L 194.928341 168.629093 
L 195.170092 162.806331 
L 195.653592 190.012684 
L 195.895343 153.670618 
L 196.137093 218.323354 
L 196.378843 232.779866 
L 196.620594 233.081043 
L 196.862344 229.466915 
L 197.345844 230.671625 
L 197.587595 143.330196 
L 197.829345 178.166375 
L 198.071095 174.050285 
L 198.312846 191.418178 
L 198.554596 141.723917 
L 198.796346 188.707582 
L 199.038097 182.48325 
L 199.279847 188.20562 
L 199.521597 83.094728 
L 199.763348 191.016608 
L 200.005098 175.355387 
L 200.246848 143.631374 
L 200.488598 175.355387 
L 200.730349 190.414254 
L 200.972099 196.4378 
L 201.213849 195.534268 
L 201.4556 187.302088 
L 201.69735 183.185998 
L 201.9391 54.282096 
L 202.180851 200.453498 
L 202.422601 191.317786 
L 202.664351 188.908367 
L 202.906102 192.32171 
L 203.389602 184.189922 
L 203.631352 182.583643 
L 203.873103 190.313861 
L 204.114853 188.506797 
L 204.356603 188.20562 
L 204.598354 123.753669 
L 204.840104 180.274617 
L 205.081854 198.345257 
L 205.565355 149.002369 
L 205.807105 210.015879 
L 206.048856 240.522634 
L 206.290606 239.361846 
L 206.774106 196.136623 
L 207.015857 193.12485 
L 207.257607 88.415528 
L 207.499357 188.105227 
L 207.741108 196.337408 
L 207.982858 194.630736 
L 208.466359 202.059777 
L 208.708109 88.315136 
L 208.949859 191.117001 
L 209.19161 193.426027 
L 209.43336 155.076112 
L 209.67511 182.784428 
L 209.91686 177.96559 
L 210.158611 194.128774 
L 210.400361 143.430589 
L 210.642111 197.040155 
L 210.883862 179.471477 
L 211.125612 194.429952 
L 211.367362 201.256638 
L 211.609113 187.101303 
L 211.850863 154.17258 
L 212.092613 97.95281 
L 212.334363 190.414254 
L 212.576114 159.89495 
L 213.059614 196.136623 
L 213.301365 196.4378 
L 213.543115 199.148397 
L 213.784865 94.338682 
L 214.026616 195.333484 
L 214.268366 198.144472 
L 214.510116 149.65492 
L 215.235367 213.705301 
L 215.477117 158.891025 
L 215.718868 163.408686 
L 215.960618 198.345257 
L 216.444119 205.22214 
L 216.685869 199.951536 
L 216.927619 205.774298 
L 217.16937 163.408686 
L 217.41112 156.381214 
L 217.65287 201.959385 
L 217.894621 171.540474 
L 218.136371 203.364879 
L 218.378121 209.288034 
L 218.619871 128.672899 
L 218.861622 125.560733 
L 219.103372 190.86602 
L 219.345122 197.24094 
L 219.586873 192.32171 
L 219.828623 198.847219 
L 220.070373 194.329559 
L 220.312124 187.502873 
L 220.553874 145.639222 
L 220.795624 197.943687 
L 221.037375 162.103584 
L 221.279125 194.530344 
L 221.520875 202.662132 
L 221.762625 177.262843 
L 222.004376 209.288034 
L 222.246126 63.618594 
L 222.487876 209.488819 
L 222.729627 186.298163 
L 222.971377 205.171943 
L 223.213127 193.024457 
L 223.454878 171.339689 
L 223.696628 208.484894 
L 223.938378 148.149034 
L 224.180129 203.164094 
L 224.421879 194.831521 
L 224.663629 198.546042 
L 224.905379 172.544398 
L 225.14713 169.231447 
L 225.38888 150.960022 
L 225.63063 187.302088 
L 225.872381 192.120925 
L 226.355881 162.806331 
L 226.597632 155.578075 
L 227.081132 194.229167 
L 227.322883 105.683029 
L 227.564633 152.767086 
L 227.806383 140.318423 
L 228.048133 201.256638 
L 228.289884 193.426027 
L 228.531634 212.902162 
L 228.773384 211.697452 
L 229.015135 142.426664 
L 229.256885 194.229167 
L 229.740386 205.473121 
L 229.982136 162.906723 
L 230.223886 183.386782 
L 230.465637 187.00091 
L 230.707387 144.334121 
L 230.949137 204.770374 
L 231.190887 206.075475 
L 231.432638 196.337408 
L 231.674388 206.125672 
L 231.916138 182.382858 
L 232.157889 202.963309 
L 232.399639 105.883814 
L 232.641389 164.613395 
L 232.88314 194.429952 
L 233.12489 206.175868 
L 233.36664 211.99863 
L 233.60839 207.782147 
L 233.850141 218.222961 
L 234.091891 215.813543 
L 234.333641 151.160807 
L 234.575392 136.704295 
L 234.817142 218.022176 
L 235.300643 180.776579 
L 235.542393 210.894313 
L 235.784143 152.867479 
L 236.025894 175.154602 
L 236.267644 209.087249 
L 236.509394 207.0794 
L 236.751144 199.951536 
L 236.992895 206.577438 
L 237.234645 195.032306 
L 237.718146 113.714424 
L 237.959896 166.018889 
L 238.443397 206.878615 
L 238.685147 208.685679 
L 238.926897 213.705301 
L 239.168648 148.450211 
L 239.410398 215.31158 
L 239.652148 209.488819 
L 239.893898 211.99863 
L 240.135649 204.067626 
L 240.377399 210.392351 
L 240.619149 143.731766 
L 240.8609 211.396275 
L 241.10265 165.014965 
L 241.3444 211.948433 
L 241.586151 196.83937 
L 241.827901 212.701377 
L 242.069651 212.400199 
L 242.311402 211.898237 
L 242.553152 127.869759 
L 242.794902 221.535912 
L 243.036652 188.807975 
L 243.278403 176.058134 
L 243.520153 212.701377 
L 243.761903 212.600984 
L 244.003654 164.513002 
L 244.245404 219.126493 
L 244.487154 140.820385 
L 244.728905 138.410966 
L 244.970655 219.427671 
L 245.454156 202.360955 
L 245.695906 215.010403 
L 245.937656 111.305006 
L 246.179406 206.075475 
L 246.421157 204.469196 
L 246.662907 203.766449 
L 246.904657 212.199415 
L 247.146408 214.709226 
L 247.388158 172.544398 
L 247.629908 219.026101 
L 248.113409 214.709226 
L 248.355159 167.825953 
L 248.59691 167.123206 
L 248.83866 223.844938 
L 249.08041 227.258282 
L 249.32216 108.293232 
L 249.563911 198.04408 
L 249.805661 211.797845 
L 250.047411 217.219037 
L 250.289162 218.724924 
L 250.530912 213.805694 
L 250.772662 166.621244 
L 251.014413 162.705938 
L 251.256163 197.441725 
L 251.497913 212.400199 
L 251.739664 155.77886 
L 251.981414 208.786071 
L 252.223164 215.71315 
L 252.464914 156.732588 
L 252.706665 211.295883 
L 252.948415 211.898237 
L 253.190165 218.724924 
L 253.431916 209.990781 
L 253.673666 209.037052 
L 253.915416 180.375009 
L 254.157167 187.00091 
L 254.398917 211.797845 
L 254.640667 212.902162 
L 254.882418 203.565664 
L 255.124168 213.705301 
L 255.607668 215.913935 
L 255.849419 176.861273 
L 256.091169 215.211188 
L 256.332919 211.697452 
L 256.57467 202.059777 
L 256.81642 203.565664 
L 257.05817 210.492743 
L 257.299921 210.593135 
L 257.541671 215.211188 
L 257.783421 204.268411 
L 258.025171 211.59706 
L 258.266922 211.797845 
L 258.508672 169.131055 
L 258.750422 211.396275 
L 258.992173 206.477045 
L 259.233923 220.63238 
L 259.475673 221.134342 
L 259.959174 194.630736 
L 260.200924 209.33823 
L 260.442675 202.16017 
L 260.684425 181.278541 
L 260.926175 230.571232 
L 261.167925 240.208907 
L 261.409676 240.208907 
L 261.651426 241.212832 
L 261.893176 240.610477 
L 262.134927 240.3093 
L 262.376677 240.510084 
L 262.618427 242.116364 
L 262.860178 153.771011 
L 263.101928 169.33184 
L 263.343678 196.337408 
L 263.585429 135.599978 
L 263.827179 191.117001 
L 264.068929 202.109974 
L 264.310679 147.145109 
L 264.55243 162.003191 
L 264.79418 192.522495 
L 265.03593 184.591492 
L 265.277681 167.323991 
L 265.519431 206.67783 
L 266.002932 174.65264 
L 266.244682 144.73569 
L 266.486432 155.477682 
L 266.728183 200.855068 
L 266.969933 185.394631 
L 267.211683 183.386782 
L 267.695184 195.333484 
L 267.936934 160.798482 
L 268.178684 185.595416 
L 268.420435 182.182073 
L 268.662185 130.580356 
L 268.903935 175.054209 
L 269.387436 202.461347 
L 269.629186 161.099659 
L 269.870937 199.951536 
L 270.112687 199.650359 
L 270.354437 193.426027 
L 270.596187 177.664413 
L 270.837938 195.132699 
L 271.079688 102.068901 
L 271.563189 185.796201 
L 271.804939 188.406405 
L 272.046689 167.424383 
L 272.28844 128.672899 
L 272.53019 193.927989 
L 272.77194 206.27626 
L 273.255441 191.418178 
L 273.497191 190.916216 
L 273.738941 201.156245 
L 273.980692 193.426027 
L 274.222442 197.341332 
L 274.464192 110.301081 
L 274.705943 167.725561 
L 274.947693 139.916853 
L 275.189443 173.949892 
L 275.431194 137.909004 
L 275.672944 177.162451 
L 275.914694 151.060415 
L 276.156445 173.146753 
L 276.398195 101.466546 
L 276.639945 164.914572 
L 276.881695 181.077756 
L 277.123446 165.115357 
L 277.365196 79.4806 
L 277.606946 148.450211 
L 277.848697 146.843932 
L 278.090447 116.926983 
L 278.332197 155.276897 
L 278.573948 157.686316 
L 278.815698 150.156883 
L 279.057448 136.10194 
L 279.299198 174.451855 
L 279.540949 188.60719 
L 279.782699 77.974714 
L 280.024449 174.050285 
L 280.50795 188.707582 
L 280.7497 149.253351 
L 280.991451 197.040155 
L 281.233201 186.800126 
L 281.474951 130.279178 
L 281.716702 145.338045 
L 281.958452 184.08953 
L 282.200202 200.353106 
L 282.441952 187.00091 
L 282.683703 192.120925 
L 283.167203 80.384132 
L 283.408954 159.392988 
L 283.650704 178.266768 
L 283.892454 179.471477 
L 284.134205 164.513002 
L 284.375955 197.441725 
L 284.617705 185.796201 
L 284.859456 126.363873 
L 285.101206 181.680111 
L 285.342956 147.948249 
L 286.068207 173.949892 
L 286.309957 132.688597 
L 286.551708 72.051559 
L 286.793458 152.767086 
L 287.035208 182.182073 
L 287.276959 171.741259 
L 287.760459 187.904442 
L 288.00221 187.904442 
L 288.24396 81.890019 
L 288.48571 185.093454 
L 288.72746 178.567945 
L 288.969211 176.861273 
L 289.210961 151.361592 
L 289.452711 175.455779 
L 289.936212 129.074469 
L 290.177962 129.777216 
L 290.419713 178.668337 
L 290.661463 181.378933 
L 290.903213 180.575794 
L 291.144964 180.375009 
L 291.386714 178.668337 
L 291.628464 141.221955 
L 291.870214 133.491736 
L 292.111965 188.105227 
L 292.353715 180.274617 
L 292.595465 181.378933 
L 292.837216 151.361592 
L 293.078966 188.506797 
L 293.320716 142.326272 
L 293.562467 182.583643 
L 293.804217 166.370263 
L 294.045967 132.588204 
L 294.287718 185.193846 
L 294.529468 178.869122 
L 294.771218 184.691884 
L 295.012968 134.495661 
L 295.254719 146.040792 
L 295.496469 184.189922 
L 295.738219 108.59441 
L 295.97997 176.158526 
L 296.22172 181.378933 
L 296.46347 178.76873 
L 296.705221 133.541933 
L 296.946971 169.33184 
L 297.188721 181.579718 
L 297.430472 185.695809 
L 297.672222 180.274617 
L 297.913972 199.851144 
L 298.155722 102.269686 
L 298.397473 127.167012 
L 298.639223 178.668337 
L 298.880973 183.788352 
L 299.122724 142.025094 
L 299.364474 185.595416 
L 299.847975 178.969515 
L 300.089725 122.649352 
L 300.331475 185.294239 
L 300.573226 130.78114 
L 300.814976 141.42274 
L 301.298476 185.896594 
L 301.540227 195.835446 
L 301.781977 89.72063 
L 302.023727 185.193846 
L 302.265478 175.857349 
L 302.507228 76.669612 
L 302.748978 193.375831 
L 302.990729 180.073832 
L 303.232479 134.395268 
L 303.474229 126.966227 
L 303.715979 176.961666 
L 303.95773 161.200052 
L 304.19948 132.788989 
L 304.44123 177.56402 
L 304.682981 153.871403 
L 304.924731 162.505154 
L 305.166481 117.027375 
L 305.408232 174.552247 
L 305.649982 161.200052 
L 305.891732 137.206257 
L 306.133483 176.961666 
L 306.375233 162.304369 
L 306.616983 190.564842 
L 306.858733 142.527057 
L 307.100484 139.414891 
L 307.342234 173.04636 
L 307.583984 183.185998 
L 307.825735 185.796201 
L 308.067485 180.375009 
L 308.309235 188.105227 
L 308.550986 81.588842 
L 308.792736 185.394631 
L 309.034486 165.918497 
L 309.276237 135.399193 
L 309.517987 188.20562 
L 309.759737 180.876971 
L 310.001487 135.499585 
L 310.243238 146.944324 
L 310.484988 172.644791 
L 310.726738 161.300444 
L 310.968489 185.193846 
L 311.210239 179.471477 
L 311.451989 176.861273 
L 311.69374 193.827597 
L 311.93549 89.921415 
L 312.17724 189.811899 
L 312.418991 189.109152 
L 312.660741 114.517564 
L 312.902491 178.869122 
L 313.144241 149.052566 
L 313.385992 182.182073 
L 313.869492 169.633017 
L 314.352993 175.957741 
L 314.594743 86.909641 
L 314.836494 167.223599 
L 315.078244 165.516927 
L 315.319994 130.78114 
L 315.561745 169.783606 
L 315.803495 122.850137 
L 316.045245 171.540474 
L 316.286995 195.634661 
L 316.528746 203.666057 
L 317.012246 114.617957 
L 317.253997 178.36716 
L 317.495747 177.262843 
L 317.737497 180.174224 
L 317.979248 189.008759 
L 318.220998 166.721636 
L 318.462748 87.813173 
L 318.704499 129.476039 
L 318.946249 151.562377 
L 319.187999 197.341332 
L 319.429749 198.847219 
L 319.6715 172.745183 
L 319.91325 196.989959 
L 320.155 192.72328 
L 320.396751 73.959016 
L 320.638501 209.488819 
L 320.880251 159.89495 
L 321.122002 167.323991 
L 321.363752 184.591492 
L 321.605502 188.506797 
L 321.847253 205.673906 
L 322.089003 152.666694 
L 322.330753 197.742902 
L 322.572503 182.282465 
L 322.814254 182.583643 
L 323.056004 172.745183 
L 323.297754 174.25107 
L 323.539505 198.445649 
L 323.781255 56.289945 
L 324.023005 204.770374 
L 324.506506 148.851781 
L 324.748256 163.810255 
L 324.990006 193.927989 
L 325.473507 134.696446 
L 325.715257 187.302088 
L 325.957008 162.404761 
L 326.440508 206.577438 
L 326.682259 152.265124 
L 326.924009 203.766449 
L 327.165759 197.24094 
L 327.40751 173.648715 
L 327.64926 189.912291 
L 327.89101 175.857349 
L 328.13276 209.087249 
L 328.616261 197.140548 
L 328.858011 135.901155 
L 329.099762 204.971158 
L 329.341512 132.487812 
L 329.583262 199.851144 
L 329.825013 201.457423 
L 330.066763 191.618963 
L 330.308513 193.827597 
L 330.550264 156.180429 
L 330.792014 203.565664 
L 331.033764 165.416534 
L 331.275514 147.044717 
L 331.759015 203.766449 
L 332.000765 167.223599 
L 332.242516 153.168656 
L 332.484266 214.207263 
L 332.967767 161.099659 
L 333.209517 174.050285 
L 333.451267 195.534268 
L 333.693018 151.461984 
L 333.934768 166.922421 
L 334.418268 205.975083 
L 334.660019 203.565664 
L 334.901769 206.376653 
L 335.143519 207.882539 
L 335.38527 121.34425 
L 335.62702 189.811899 
L 335.86877 195.132699 
L 336.110521 183.888745 
L 336.352271 209.087249 
L 336.835772 197.441725 
L 337.077522 202.963309 
L 337.319272 127.267405 
L 337.561022 198.445649 
L 338.044523 214.910011 
L 338.286273 211.59706 
L 338.528024 223.142191 
L 338.769774 185.093454 
L 339.011524 200.051929 
L 339.253275 148.851781 
L 339.495025 210.693528 
L 339.736775 205.975083 
L 339.978526 214.608833 
L 340.220276 212.801769 
L 340.462026 162.304369 
L 340.703776 151.763162 
L 340.945527 213.604909 
L 341.187277 216.215112 
L 341.429027 223.342976 
L 341.670778 225.451218 
L 342.154278 138.812536 
L 342.396029 198.746827 
L 342.637779 211.99863 
L 342.879529 209.589211 
L 343.12128 216.215112 
L 343.36303 206.27626 
L 343.60478 178.76873 
L 343.84653 182.88482 
L 344.088281 207.782147 
L 344.330031 212.801769 
L 344.571781 209.689603 
L 344.813532 217.118644 
L 345.055282 209.589211 
L 345.297032 215.913935 
L 345.538783 142.225879 
L 345.780533 202.059777 
L 346.022283 213.604909 
L 346.264034 176.459704 
L 346.505784 197.943687 
L 346.747534 206.778222 
L 346.989284 209.488819 
L 347.231035 172.845576 
L 347.472785 186.197771 
L 347.714535 209.388426 
L 347.956286 205.975083 
L 348.198036 209.488819 
L 348.681537 223.945331 
L 348.923287 222.439444 
L 349.165037 225.250433 
L 349.406787 223.342976 
L 349.648538 204.469196 
L 349.890288 219.427671 
L 350.132038 219.528063 
L 350.373789 225.95318 
L 350.857289 172.042436 
L 351.09904 205.071551 
L 351.34079 207.0794 
L 351.58254 195.835446 
L 351.824291 192.070729 
L 352.066041 210.091173 
L 352.307791 218.122569 
L 352.549541 171.540474 
L 352.791292 212.600984 
L 353.033042 212.701377 
L 353.274792 190.263665 
L 353.516543 196.4378 
L 353.758293 216.616682 
L 354.000043 177.764805 
L 354.241794 182.282465 
L 354.483544 178.467553 
L 354.725294 215.411973 
L 354.967045 209.488819 
L 355.208795 210.191566 
L 355.450545 204.168019 
L 355.692295 136.202333 
L 356.175796 210.091173 
L 356.417546 194.329559 
L 356.659297 198.947612 
L 357.142797 215.71315 
L 357.384548 174.753032 
L 357.626298 99.860267 
L 357.868048 198.646434 
L 358.351549 202.56174 
L 358.593299 198.244864 
L 358.835049 198.947612 
L 359.0768 207.179792 
L 359.31855 89.72063 
L 359.5603 199.248789 
L 359.802051 201.658208 
L 360.285551 212.500592 
L 360.527302 172.544398 
L 360.769052 209.388426 
L 361.010802 85.353558 
L 361.252553 212.400199 
L 361.494303 201.959385 
L 361.736053 208.183717 
L 362.219554 203.866841 
L 362.703054 130.479963 
L 362.944805 211.295883 
L 363.186555 166.922421 
L 363.428305 208.886464 
L 363.670056 210.291958 
L 363.911806 206.175868 
L 364.153556 191.117001 
L 364.395307 141.221955 
L 364.637057 201.658208 
L 364.878807 195.333484 
L 365.120557 204.368804 
L 365.362308 199.650359 
L 365.604058 152.114535 
L 365.845808 200.654283 
L 366.087559 136.804687 
L 366.329309 190.715431 
L 366.571059 186.800126 
L 366.81281 204.368804 
L 367.05456 200.955461 
L 367.29631 211.99863 
L 367.538061 202.762525 
L 367.779811 114.517564 
L 368.021561 213.102947 
L 368.263311 198.546042 
L 368.505062 176.760881 
L 368.746812 186.247967 
L 368.988562 171.490277 
L 369.230313 173.247145 
L 369.472063 148.400015 
L 369.713813 213.002554 
L 369.955564 187.904442 
L 370.197314 198.345257 
L 370.439064 197.24094 
L 370.680814 202.762525 
L 370.922565 181.880896 
L 371.164315 200.955461 
L 371.406065 89.31906 
L 371.647816 184.892669 
L 371.889566 201.658208 
L 372.131316 199.851144 
L 372.373067 191.518571 
L 372.614817 193.426027 
L 372.856567 104.377927 
L 373.098318 208.886464 
L 373.581818 168.629093 
L 373.581818 168.629093 
" style="fill:none;stroke:#000000;stroke-linecap:square;stroke-width:1.5;"/>
   </g>
   <g id="patch_3">
    <path d="M 54 252 
L 54 34.56 
" style="fill:none;stroke:#000000;stroke-linecap:square;stroke-linejoin:miter;stroke-width:0.8;"/>
   </g>
   <g id="patch_4">
    <path d="M 388.8 252 
L 388.8 34.56 
" style="fill:none;stroke:#000000;stroke-linecap:square;stroke-linejoin:miter;stroke-width:0.8;"/>
   </g>
   <g id="patch_5">
    <path d="M 54 252 
L 388.8 252 
" style="fill:none;stroke:#000000;stroke-linecap:square;stroke-linejoin:miter;stroke-width:0.8;"/>
   </g>
   <g id="patch_6">
    <path d="M 54 34.56 
L 388.8 34.56 
" style="fill:none;stroke:#000000;stroke-linecap:square;stroke-linejoin:miter;stroke-width:0.8;"/>
   </g>
   <g id="text_18">
    <!-- Soma Diária de Energia - Casa 2 -->
    <g transform="translate(124.230938 28.56)scale(0.12 -0.12)">
     <defs>
      <path d="M 53.515625 70.515625 
L 53.515625 60.890625 
Q 47.90625 63.578125 42.921875 64.890625 
Q 37.9375 66.21875 33.296875 66.21875 
Q 25.25 66.21875 20.875 63.09375 
Q 16.5 59.96875 16.5 54.203125 
Q 16.5 49.359375 19.40625 46.890625 
Q 22.3125 44.4375 30.421875 42.921875 
L 36.375 41.703125 
Q 47.40625 39.59375 52.65625 34.296875 
Q 57.90625 29 57.90625 20.125 
Q 57.90625 9.515625 50.796875 4.046875 
Q 43.703125 -1.421875 29.984375 -1.421875 
Q 24.8125 -1.421875 18.96875 -0.25 
Q 13.140625 0.921875 6.890625 3.21875 
L 6.890625 13.375 
Q 12.890625 10.015625 18.65625 8.296875 
Q 24.421875 6.59375 29.984375 6.59375 
Q 38.421875 6.59375 43.015625 9.90625 
Q 47.609375 13.234375 47.609375 19.390625 
Q 47.609375 24.75 44.3125 27.78125 
Q 41.015625 30.8125 33.5 32.328125 
L 27.484375 33.5 
Q 16.453125 35.6875 11.515625 40.375 
Q 6.59375 45.0625 6.59375 53.421875 
Q 6.59375 63.09375 13.40625 68.65625 
Q 20.21875 74.21875 32.171875 74.21875 
Q 37.3125 74.21875 42.625 73.28125 
Q 47.953125 72.359375 53.515625 70.515625 
z
" id="DejaVuSans-83"/>
      <path d="M 30.609375 48.390625 
Q 23.390625 48.390625 19.1875 42.75 
Q 14.984375 37.109375 14.984375 27.296875 
Q 14.984375 17.484375 19.15625 11.84375 
Q 23.34375 6.203125 30.609375 6.203125 
Q 37.796875 6.203125 41.984375 11.859375 
Q 46.1875 17.53125 46.1875 27.296875 
Q 46.1875 37.015625 41.984375 42.703125 
Q 37.796875 48.390625 30.609375 48.390625 
z
M 30.609375 56 
Q 42.328125 56 49.015625 48.375 
Q 55.71875 40.765625 55.71875 27.296875 
Q 55.71875 13.875 49.015625 6.21875 
Q 42.328125 -1.421875 30.609375 -1.421875 
Q 18.84375 -1.421875 12.171875 6.21875 
Q 5.515625 13.875 5.515625 27.296875 
Q 5.515625 40.765625 12.171875 48.375 
Q 18.84375 56 30.609375 56 
z
" id="DejaVuSans-111"/>
      <path d="M 52 44.1875 
Q 55.375 50.25 60.0625 53.125 
Q 64.75 56 71.09375 56 
Q 79.640625 56 84.28125 50.015625 
Q 88.921875 44.046875 88.921875 33.015625 
L 88.921875 0 
L 79.890625 0 
L 79.890625 32.71875 
Q 79.890625 40.578125 77.09375 44.375 
Q 74.3125 48.1875 68.609375 48.1875 
Q 61.625 48.1875 57.5625 43.546875 
Q 53.515625 38.921875 53.515625 30.90625 
L 53.515625 0 
L 44.484375 0 
L 44.484375 32.71875 
Q 44.484375 40.625 41.703125 44.40625 
Q 38.921875 48.1875 33.109375 48.1875 
Q 26.21875 48.1875 22.15625 43.53125 
Q 18.109375 38.875 18.109375 30.90625 
L 18.109375 0 
L 9.078125 0 
L 9.078125 54.6875 
L 18.109375 54.6875 
L 18.109375 46.1875 
Q 21.1875 51.21875 25.484375 53.609375 
Q 29.78125 56 35.6875 56 
Q 41.65625 56 45.828125 52.96875 
Q 50 49.953125 52 44.1875 
z
" id="DejaVuSans-109"/>
      <path d="M 34.28125 27.484375 
Q 23.390625 27.484375 19.1875 25 
Q 14.984375 22.515625 14.984375 16.5 
Q 14.984375 11.71875 18.140625 8.90625 
Q 21.296875 6.109375 26.703125 6.109375 
Q 34.1875 6.109375 38.703125 11.40625 
Q 43.21875 16.703125 43.21875 25.484375 
L 43.21875 27.484375 
z
M 52.203125 31.203125 
L 52.203125 0 
L 43.21875 0 
L 43.21875 8.296875 
Q 40.140625 3.328125 35.546875 0.953125 
Q 30.953125 -1.421875 24.3125 -1.421875 
Q 15.921875 -1.421875 10.953125 3.296875 
Q 6 8.015625 6 15.921875 
Q 6 25.140625 12.171875 29.828125 
Q 18.359375 34.515625 30.609375 34.515625 
L 43.21875 34.515625 
L 43.21875 35.40625 
Q 43.21875 41.609375 39.140625 45 
Q 35.0625 48.390625 27.6875 48.390625 
Q 23 48.390625 18.546875 47.265625 
Q 14.109375 46.140625 10.015625 43.890625 
L 10.015625 52.203125 
Q 14.9375 54.109375 19.578125 55.046875 
Q 24.21875 56 28.609375 56 
Q 40.484375 56 46.34375 49.84375 
Q 52.203125 43.703125 52.203125 31.203125 
z
" id="DejaVuSans-97"/>
      <path id="DejaVuSans-32"/>
      <path d="M 19.671875 64.796875 
L 19.671875 8.109375 
L 31.59375 8.109375 
Q 46.6875 8.109375 53.6875 14.9375 
Q 60.6875 21.78125 60.6875 36.53125 
Q 60.6875 51.171875 53.6875 57.984375 
Q 46.6875 64.796875 31.59375 64.796875 
z
M 9.8125 72.90625 
L 30.078125 72.90625 
Q 51.265625 72.90625 61.171875 64.09375 
Q 71.09375 55.28125 71.09375 36.53125 
Q 71.09375 17.671875 61.125 8.828125 
Q 51.171875 0 30.078125 0 
L 9.8125 0 
z
" id="DejaVuSans-68"/>
      <path d="M 9.421875 54.6875 
L 18.40625 54.6875 
L 18.40625 0 
L 9.421875 0 
z
M 9.421875 75.984375 
L 18.40625 75.984375 
L 18.40625 64.59375 
L 9.421875 64.59375 
z
" id="DejaVuSans-105"/>
      <path d="M 34.28125 27.484375 
Q 23.390625 27.484375 19.1875 25 
Q 14.984375 22.515625 14.984375 16.5 
Q 14.984375 11.71875 18.140625 8.90625 
Q 21.296875 6.109375 26.703125 6.109375 
Q 34.1875 6.109375 38.703125 11.40625 
Q 43.21875 16.703125 43.21875 25.484375 
L 43.21875 27.484375 
z
M 52.203125 31.203125 
L 52.203125 0 
L 43.21875 0 
L 43.21875 8.296875 
Q 40.140625 3.328125 35.546875 0.953125 
Q 30.953125 -1.421875 24.3125 -1.421875 
Q 15.921875 -1.421875 10.953125 3.296875 
Q 6 8.015625 6 15.921875 
Q 6 25.140625 12.171875 29.828125 
Q 18.359375 34.515625 30.609375 34.515625 
L 43.21875 34.515625 
L 43.21875 35.40625 
Q 43.21875 41.609375 39.140625 45 
Q 35.0625 48.390625 27.6875 48.390625 
Q 23 48.390625 18.546875 47.265625 
Q 14.109375 46.140625 10.015625 43.890625 
L 10.015625 52.203125 
Q 14.9375 54.109375 19.578125 55.046875 
Q 24.21875 56 28.609375 56 
Q 40.484375 56 46.34375 49.84375 
Q 52.203125 43.703125 52.203125 31.203125 
z
M 35.796875 79.984375 
L 45.515625 79.984375 
L 29.59375 61.625 
L 22.125 61.625 
z
" id="DejaVuSans-225"/>
      <path d="M 41.109375 46.296875 
Q 39.59375 47.171875 37.8125 47.578125 
Q 36.03125 48 33.890625 48 
Q 26.265625 48 22.1875 43.046875 
Q 18.109375 38.09375 18.109375 28.8125 
L 18.109375 0 
L 9.078125 0 
L 9.078125 54.6875 
L 18.109375 54.6875 
L 18.109375 46.1875 
Q 20.953125 51.171875 25.484375 53.578125 
Q 30.03125 56 36.53125 56 
Q 37.453125 56 38.578125 55.875 
Q 39.703125 55.765625 41.0625 55.515625 
z
" id="DejaVuSans-114"/>
      <path d="M 45.40625 46.390625 
L 45.40625 75.984375 
L 54.390625 75.984375 
L 54.390625 0 
L 45.40625 0 
L 45.40625 8.203125 
Q 42.578125 3.328125 38.25 0.953125 
Q 33.9375 -1.421875 27.875 -1.421875 
Q 17.96875 -1.421875 11.734375 6.484375 
Q 5.515625 14.40625 5.515625 27.296875 
Q 5.515625 40.1875 11.734375 48.09375 
Q 17.96875 56 27.875 56 
Q 33.9375 56 38.25 53.625 
Q 42.578125 51.265625 45.40625 46.390625 
z
M 14.796875 27.296875 
Q 14.796875 17.390625 18.875 11.75 
Q 22.953125 6.109375 30.078125 6.109375 
Q 37.203125 6.109375 41.296875 11.75 
Q 45.40625 17.390625 45.40625 27.296875 
Q 45.40625 37.203125 41.296875 42.84375 
Q 37.203125 48.484375 30.078125 48.484375 
Q 22.953125 48.484375 18.875 42.84375 
Q 14.796875 37.203125 14.796875 27.296875 
z
" id="DejaVuSans-100"/>
      <path d="M 56.203125 29.59375 
L 56.203125 25.203125 
L 14.890625 25.203125 
Q 15.484375 15.921875 20.484375 11.0625 
Q 25.484375 6.203125 34.421875 6.203125 
Q 39.59375 6.203125 44.453125 7.46875 
Q 49.3125 8.734375 54.109375 11.28125 
L 54.109375 2.78125 
Q 49.265625 0.734375 44.1875 -0.34375 
Q 39.109375 -1.421875 33.890625 -1.421875 
Q 20.796875 -1.421875 13.15625 6.1875 
Q 5.515625 13.8125 5.515625 26.8125 
Q 5.515625 40.234375 12.765625 48.109375 
Q 20.015625 56 32.328125 56 
Q 43.359375 56 49.78125 48.890625 
Q 56.203125 41.796875 56.203125 29.59375 
z
M 47.21875 32.234375 
Q 47.125 39.59375 43.09375 43.984375 
Q 39.0625 48.390625 32.421875 48.390625 
Q 24.90625 48.390625 20.390625 44.140625 
Q 15.875 39.890625 15.1875 32.171875 
z
" id="DejaVuSans-101"/>
      <path d="M 9.8125 72.90625 
L 55.90625 72.90625 
L 55.90625 64.59375 
L 19.671875 64.59375 
L 19.671875 43.015625 
L 54.390625 43.015625 
L 54.390625 34.71875 
L 19.671875 34.71875 
L 19.671875 8.296875 
L 56.78125 8.296875 
L 56.78125 0 
L 9.8125 0 
z
" id="DejaVuSans-69"/>
      <path d="M 54.890625 33.015625 
L 54.890625 0 
L 45.90625 0 
L 45.90625 32.71875 
Q 45.90625 40.484375 42.875 44.328125 
Q 39.84375 48.1875 33.796875 48.1875 
Q 26.515625 48.1875 22.3125 43.546875 
Q 18.109375 38.921875 18.109375 30.90625 
L 18.109375 0 
L 9.078125 0 
L 9.078125 54.6875 
L 18.109375 54.6875 
L 18.109375 46.1875 
Q 21.34375 51.125 25.703125 53.5625 
Q 30.078125 56 35.796875 56 
Q 45.21875 56 50.046875 50.171875 
Q 54.890625 44.34375 54.890625 33.015625 
z
" id="DejaVuSans-110"/>
      <path d="M 45.40625 27.984375 
Q 45.40625 37.75 41.375 43.109375 
Q 37.359375 48.484375 30.078125 48.484375 
Q 22.859375 48.484375 18.828125 43.109375 
Q 14.796875 37.75 14.796875 27.984375 
Q 14.796875 18.265625 18.828125 12.890625 
Q 22.859375 7.515625 30.078125 7.515625 
Q 37.359375 7.515625 41.375 12.890625 
Q 45.40625 18.265625 45.40625 27.984375 
z
M 54.390625 6.78125 
Q 54.390625 -7.171875 48.1875 -13.984375 
Q 42 -20.796875 29.203125 -20.796875 
Q 24.46875 -20.796875 20.265625 -20.09375 
Q 16.0625 -19.390625 12.109375 -17.921875 
L 12.109375 -9.1875 
Q 16.0625 -11.328125 19.921875 -12.34375 
Q 23.78125 -13.375 27.78125 -13.375 
Q 36.625 -13.375 41.015625 -8.765625 
Q 45.40625 -4.15625 45.40625 5.171875 
L 45.40625 9.625 
Q 42.625 4.78125 38.28125 2.390625 
Q 33.9375 0 27.875 0 
Q 17.828125 0 11.671875 7.65625 
Q 5.515625 15.328125 5.515625 27.984375 
Q 5.515625 40.671875 11.671875 48.328125 
Q 17.828125 56 27.875 56 
Q 33.9375 56 38.28125 53.609375 
Q 42.625 51.21875 45.40625 46.390625 
L 45.40625 54.6875 
L 54.390625 54.6875 
z
" id="DejaVuSans-103"/>
      <path d="M 64.40625 67.28125 
L 64.40625 56.890625 
Q 59.421875 61.53125 53.78125 63.8125 
Q 48.140625 66.109375 41.796875 66.109375 
Q 29.296875 66.109375 22.65625 58.46875 
Q 16.015625 50.828125 16.015625 36.375 
Q 16.015625 21.96875 22.65625 14.328125 
Q 29.296875 6.6875 41.796875 6.6875 
Q 48.140625 6.6875 53.78125 8.984375 
Q 59.421875 11.28125 64.40625 15.921875 
L 64.40625 5.609375 
Q 59.234375 2.09375 53.4375 0.328125 
Q 47.65625 -1.421875 41.21875 -1.421875 
Q 24.65625 -1.421875 15.125 8.703125 
Q 5.609375 18.84375 5.609375 36.375 
Q 5.609375 53.953125 15.125 64.078125 
Q 24.65625 74.21875 41.21875 74.21875 
Q 47.75 74.21875 53.53125 72.484375 
Q 59.328125 70.75 64.40625 67.28125 
z
" id="DejaVuSans-67"/>
      <path d="M 44.28125 53.078125 
L 44.28125 44.578125 
Q 40.484375 46.53125 36.375 47.5 
Q 32.28125 48.484375 27.875 48.484375 
Q 21.1875 48.484375 17.84375 46.4375 
Q 14.5 44.390625 14.5 40.28125 
Q 14.5 37.15625 16.890625 35.375 
Q 19.28125 33.59375 26.515625 31.984375 
L 29.59375 31.296875 
Q 39.15625 29.25 43.1875 25.515625 
Q 47.21875 21.78125 47.21875 15.09375 
Q 47.21875 7.46875 41.1875 3.015625 
Q 35.15625 -1.421875 24.609375 -1.421875 
Q 20.21875 -1.421875 15.453125 -0.5625 
Q 10.6875 0.296875 5.421875 2 
L 5.421875 11.28125 
Q 10.40625 8.6875 15.234375 7.390625 
Q 20.0625 6.109375 24.8125 6.109375 
Q 31.15625 6.109375 34.5625 8.28125 
Q 37.984375 10.453125 37.984375 14.40625 
Q 37.984375 18.0625 35.515625 20.015625 
Q 33.0625 21.96875 24.703125 23.78125 
L 21.578125 24.515625 
Q 13.234375 26.265625 9.515625 29.90625 
Q 5.8125 33.546875 5.8125 39.890625 
Q 5.8125 47.609375 11.28125 51.796875 
Q 16.75 56 26.8125 56 
Q 31.78125 56 36.171875 55.265625 
Q 40.578125 54.546875 44.28125 53.078125 
z
" id="DejaVuSans-115"/>
     </defs>
     <use xlink:href="#DejaVuSans-83"/>
     <use x="63.476562" xlink:href="#DejaVuSans-111"/>
     <use x="124.658203" xlink:href="#DejaVuSans-109"/>
     <use x="222.070312" xlink:href="#DejaVuSans-97"/>
     <use x="283.349609" xlink:href="#DejaVuSans-32"/>
     <use x="315.136719" xlink:href="#DejaVuSans-68"/>
     <use x="392.138672" xlink:href="#DejaVuSans-105"/>
     <use x="419.921875" xlink:href="#DejaVuSans-225"/>
     <use x="481.201172" xlink:href="#DejaVuSans-114"/>
     <use x="522.314453" xlink:href="#DejaVuSans-105"/>
     <use x="550.097656" xlink:href="#DejaVuSans-97"/>
     <use x="611.376953" xlink:href="#DejaVuSans-32"/>
     <use x="643.164062" xlink:href="#DejaVuSans-100"/>
     <use x="706.640625" xlink:href="#DejaVuSans-101"/>
     <use x="768.164062" xlink:href="#DejaVuSans-32"/>
     <use x="799.951172" xlink:href="#DejaVuSans-69"/>
     <use x="863.134766" xlink:href="#DejaVuSans-110"/>
     <use x="926.513672" xlink:href="#DejaVuSans-101"/>
     <use x="988.037109" xlink:href="#DejaVuSans-114"/>
     <use x="1027.400391" xlink:href="#DejaVuSans-103"/>
     <use x="1090.876953" xlink:href="#DejaVuSans-105"/>
     <use x="1118.660156" xlink:href="#DejaVuSans-97"/>
     <use x="1179.939453" xlink:href="#DejaVuSans-32"/>
     <use x="1211.726562" xlink:href="#DejaVuSans-45"/>
     <use x="1247.810547" xlink:href="#DejaVuSans-32"/>
     <use x="1279.597656" xlink:href="#DejaVuSans-67"/>
     <use x="1349.421875" xlink:href="#DejaVuSans-97"/>
     <use x="1410.701172" xlink:href="#DejaVuSans-115"/>
     <use x="1462.800781" xlink:href="#DejaVuSans-97"/>
     <use x="1524.080078" xlink:href="#DejaVuSans-32"/>
     <use x="1555.867188" xlink:href="#DejaVuSans-50"/>
    </g>
   </g>
  </g>
 </g>
 <defs>
  <clipPath id="pbbad37da55">
   <rect height="217.44" width="334.8" x="54" y="34.56"/>
  </clipPath>
 </defs>
</svg>
