<?xml version="1.0" encoding="utf-8" standalone="no"?>
<!DOCTYPE svg PUBLIC "-//W3C//DTD SVG 1.1//EN"
  "http://www.w3.org/Graphics/SVG/1.1/DTD/svg11.dtd">
<!-- Created with matplotlib (https://matplotlib.org/) -->
<svg height="288pt" version="1.1" viewBox="0 0 432 288" width="432pt" xmlns="http://www.w3.org/2000/svg" xmlns:xlink="http://www.w3.org/1999/xlink">
 <metadata>
  <rdf:RDF xmlns:cc="http://creativecommons.org/ns#" xmlns:dc="http://purl.org/dc/elements/1.1/" xmlns:rdf="http://www.w3.org/1999/02/22-rdf-syntax-ns#">
   <cc:Work>
    <dc:type rdf:resource="http://purl.org/dc/dcmitype/StillImage"/>
    <dc:date>2021-07-21T14:57:51.693091</dc:date>
    <dc:format>image/svg+xml</dc:format>
    <dc:creator>
     <cc:Agent>
      <dc:title>Matplotlib v3.3.4, https://matplotlib.org/</dc:title>
     </cc:Agent>
    </dc:creator>
   </cc:Work>
  </rdf:RDF>
 </metadata>
 <defs>
  <style type="text/css">*{stroke-linecap:butt;stroke-linejoin:round;}</style>
 </defs>
 <g id="figure_1">
  <g id="patch_1">
   <path d="M 0 288 
L 432 288 
L 432 0 
L 0 0 
z
" style="fill:#ffffff;"/>
  </g>
  <g id="axes_1">
   <g id="patch_2">
    <path d="M 54 252 
L 388.8 252 
L 388.8 34.56 
L 54 34.56 
z
" style="fill:#ffffff;"/>
   </g>
   <g id="matplotlib.axis_1">
    <g id="xtick_1">
     <g id="line2d_1">
      <defs>
       <path d="M 0 0 
L 0 3.5 
" id="m9c99e7051d" style="stroke:#000000;stroke-width:0.8;"/>
      </defs>
      <g>
       <use style="stroke:#000000;stroke-width:0.8;" x="79.224658" xlink:href="#m9c99e7051d" y="252"/>
      </g>
     </g>
     <g id="text_1">
      <!-- 2015-05 -->
      <g transform="translate(66.403375 293.917817)rotate(-45)scale(0.1 -0.1)">
       <defs>
        <path d="M 19.1875 8.296875 
L 53.609375 8.296875 
L 53.609375 0 
L 7.328125 0 
L 7.328125 8.296875 
Q 12.9375 14.109375 22.625 23.890625 
Q 32.328125 33.6875 34.8125 36.53125 
Q 39.546875 41.84375 41.421875 45.53125 
Q 43.3125 49.21875 43.3125 52.78125 
Q 43.3125 58.59375 39.234375 62.25 
Q 35.15625 65.921875 28.609375 65.921875 
Q 23.96875 65.921875 18.8125 64.3125 
Q 13.671875 62.703125 7.8125 59.421875 
L 7.8125 69.390625 
Q 13.765625 71.78125 18.9375 73 
Q 24.125 74.21875 28.421875 74.21875 
Q 39.75 74.21875 46.484375 68.546875 
Q 53.21875 62.890625 53.21875 53.421875 
Q 53.21875 48.921875 51.53125 44.890625 
Q 49.859375 40.875 45.40625 35.40625 
Q 44.1875 33.984375 37.640625 27.21875 
Q 31.109375 20.453125 19.1875 8.296875 
z
" id="DejaVuSans-50"/>
        <path d="M 31.78125 66.40625 
Q 24.171875 66.40625 20.328125 58.90625 
Q 16.5 51.421875 16.5 36.375 
Q 16.5 21.390625 20.328125 13.890625 
Q 24.171875 6.390625 31.78125 6.390625 
Q 39.453125 6.390625 43.28125 13.890625 
Q 47.125 21.390625 47.125 36.375 
Q 47.125 51.421875 43.28125 58.90625 
Q 39.453125 66.40625 31.78125 66.40625 
z
M 31.78125 74.21875 
Q 44.046875 74.21875 50.515625 64.515625 
Q 56.984375 54.828125 56.984375 36.375 
Q 56.984375 17.96875 50.515625 8.265625 
Q 44.046875 -1.421875 31.78125 -1.421875 
Q 19.53125 -1.421875 13.0625 8.265625 
Q 6.59375 17.96875 6.59375 36.375 
Q 6.59375 54.828125 13.0625 64.515625 
Q 19.53125 74.21875 31.78125 74.21875 
z
" id="DejaVuSans-48"/>
        <path d="M 12.40625 8.296875 
L 28.515625 8.296875 
L 28.515625 63.921875 
L 10.984375 60.40625 
L 10.984375 69.390625 
L 28.421875 72.90625 
L 38.28125 72.90625 
L 38.28125 8.296875 
L 54.390625 8.296875 
L 54.390625 0 
L 12.40625 0 
z
" id="DejaVuSans-49"/>
        <path d="M 10.796875 72.90625 
L 49.515625 72.90625 
L 49.515625 64.59375 
L 19.828125 64.59375 
L 19.828125 46.734375 
Q 21.96875 47.46875 24.109375 47.828125 
Q 26.265625 48.1875 28.421875 48.1875 
Q 40.625 48.1875 47.75 41.5 
Q 54.890625 34.8125 54.890625 23.390625 
Q 54.890625 11.625 47.5625 5.09375 
Q 40.234375 -1.421875 26.90625 -1.421875 
Q 22.3125 -1.421875 17.546875 -0.640625 
Q 12.796875 0.140625 7.71875 1.703125 
L 7.71875 11.625 
Q 12.109375 9.234375 16.796875 8.0625 
Q 21.484375 6.890625 26.703125 6.890625 
Q 35.15625 6.890625 40.078125 11.328125 
Q 45.015625 15.765625 45.015625 23.390625 
Q 45.015625 31 40.078125 35.4375 
Q 35.15625 39.890625 26.703125 39.890625 
Q 22.75 39.890625 18.8125 39.015625 
Q 14.890625 38.140625 10.796875 36.28125 
z
" id="DejaVuSans-53"/>
        <path d="M 4.890625 31.390625 
L 31.203125 31.390625 
L 31.203125 23.390625 
L 4.890625 23.390625 
z
" id="DejaVuSans-45"/>
       </defs>
       <use xlink:href="#DejaVuSans-50"/>
       <use x="63.623047" xlink:href="#DejaVuSans-48"/>
       <use x="127.246094" xlink:href="#DejaVuSans-49"/>
       <use x="190.869141" xlink:href="#DejaVuSans-53"/>
       <use x="254.492188" xlink:href="#DejaVuSans-45"/>
       <use x="290.576172" xlink:href="#DejaVuSans-48"/>
       <use x="354.199219" xlink:href="#DejaVuSans-53"/>
      </g>
     </g>
    </g>
    <g id="xtick_2">
     <g id="line2d_2">
      <g>
       <use style="stroke:#000000;stroke-width:0.8;" x="113.41345" xlink:href="#m9c99e7051d" y="252"/>
      </g>
     </g>
     <g id="text_2">
      <!-- 2015-09 -->
      <g transform="translate(100.592167 293.917817)rotate(-45)scale(0.1 -0.1)">
       <defs>
        <path d="M 10.984375 1.515625 
L 10.984375 10.5 
Q 14.703125 8.734375 18.5 7.8125 
Q 22.3125 6.890625 25.984375 6.890625 
Q 35.75 6.890625 40.890625 13.453125 
Q 46.046875 20.015625 46.78125 33.40625 
Q 43.953125 29.203125 39.59375 26.953125 
Q 35.25 24.703125 29.984375 24.703125 
Q 19.046875 24.703125 12.671875 31.3125 
Q 6.296875 37.9375 6.296875 49.421875 
Q 6.296875 60.640625 12.9375 67.421875 
Q 19.578125 74.21875 30.609375 74.21875 
Q 43.265625 74.21875 49.921875 64.515625 
Q 56.59375 54.828125 56.59375 36.375 
Q 56.59375 19.140625 48.40625 8.859375 
Q 40.234375 -1.421875 26.421875 -1.421875 
Q 22.703125 -1.421875 18.890625 -0.6875 
Q 15.09375 0.046875 10.984375 1.515625 
z
M 30.609375 32.421875 
Q 37.25 32.421875 41.125 36.953125 
Q 45.015625 41.5 45.015625 49.421875 
Q 45.015625 57.28125 41.125 61.84375 
Q 37.25 66.40625 30.609375 66.40625 
Q 23.96875 66.40625 20.09375 61.84375 
Q 16.21875 57.28125 16.21875 49.421875 
Q 16.21875 41.5 20.09375 36.953125 
Q 23.96875 32.421875 30.609375 32.421875 
z
" id="DejaVuSans-57"/>
       </defs>
       <use xlink:href="#DejaVuSans-50"/>
       <use x="63.623047" xlink:href="#DejaVuSans-48"/>
       <use x="127.246094" xlink:href="#DejaVuSans-49"/>
       <use x="190.869141" xlink:href="#DejaVuSans-53"/>
       <use x="254.492188" xlink:href="#DejaVuSans-45"/>
       <use x="290.576172" xlink:href="#DejaVuSans-48"/>
       <use x="354.199219" xlink:href="#DejaVuSans-57"/>
      </g>
     </g>
    </g>
    <g id="xtick_3">
     <g id="line2d_3">
      <g>
       <use style="stroke:#000000;stroke-width:0.8;" x="147.324284" xlink:href="#m9c99e7051d" y="252"/>
      </g>
     </g>
     <g id="text_3">
      <!-- 2016-01 -->
      <g transform="translate(134.503002 293.917817)rotate(-45)scale(0.1 -0.1)">
       <defs>
        <path d="M 33.015625 40.375 
Q 26.375 40.375 22.484375 35.828125 
Q 18.609375 31.296875 18.609375 23.390625 
Q 18.609375 15.53125 22.484375 10.953125 
Q 26.375 6.390625 33.015625 6.390625 
Q 39.65625 6.390625 43.53125 10.953125 
Q 47.40625 15.53125 47.40625 23.390625 
Q 47.40625 31.296875 43.53125 35.828125 
Q 39.65625 40.375 33.015625 40.375 
z
M 52.59375 71.296875 
L 52.59375 62.3125 
Q 48.875 64.0625 45.09375 64.984375 
Q 41.3125 65.921875 37.59375 65.921875 
Q 27.828125 65.921875 22.671875 59.328125 
Q 17.53125 52.734375 16.796875 39.40625 
Q 19.671875 43.65625 24.015625 45.921875 
Q 28.375 48.1875 33.59375 48.1875 
Q 44.578125 48.1875 50.953125 41.515625 
Q 57.328125 34.859375 57.328125 23.390625 
Q 57.328125 12.15625 50.6875 5.359375 
Q 44.046875 -1.421875 33.015625 -1.421875 
Q 20.359375 -1.421875 13.671875 8.265625 
Q 6.984375 17.96875 6.984375 36.375 
Q 6.984375 53.65625 15.1875 63.9375 
Q 23.390625 74.21875 37.203125 74.21875 
Q 40.921875 74.21875 44.703125 73.484375 
Q 48.484375 72.75 52.59375 71.296875 
z
" id="DejaVuSans-54"/>
       </defs>
       <use xlink:href="#DejaVuSans-50"/>
       <use x="63.623047" xlink:href="#DejaVuSans-48"/>
       <use x="127.246094" xlink:href="#DejaVuSans-49"/>
       <use x="190.869141" xlink:href="#DejaVuSans-54"/>
       <use x="254.492188" xlink:href="#DejaVuSans-45"/>
       <use x="290.576172" xlink:href="#DejaVuSans-48"/>
       <use x="354.199219" xlink:href="#DejaVuSans-49"/>
      </g>
     </g>
    </g>
    <g id="xtick_4">
     <g id="line2d_4">
      <g>
       <use style="stroke:#000000;stroke-width:0.8;" x="180.957161" xlink:href="#m9c99e7051d" y="252"/>
      </g>
     </g>
     <g id="text_4">
      <!-- 2016-05 -->
      <g transform="translate(168.135878 293.917817)rotate(-45)scale(0.1 -0.1)">
       <use xlink:href="#DejaVuSans-50"/>
       <use x="63.623047" xlink:href="#DejaVuSans-48"/>
       <use x="127.246094" xlink:href="#DejaVuSans-49"/>
       <use x="190.869141" xlink:href="#DejaVuSans-54"/>
       <use x="254.492188" xlink:href="#DejaVuSans-45"/>
       <use x="290.576172" xlink:href="#DejaVuSans-48"/>
       <use x="354.199219" xlink:href="#DejaVuSans-53"/>
      </g>
     </g>
    </g>
    <g id="xtick_5">
     <g id="line2d_5">
      <g>
       <use style="stroke:#000000;stroke-width:0.8;" x="215.145953" xlink:href="#m9c99e7051d" y="252"/>
      </g>
     </g>
     <g id="text_5">
      <!-- 2016-09 -->
      <g transform="translate(202.32467 293.917817)rotate(-45)scale(0.1 -0.1)">
       <use xlink:href="#DejaVuSans-50"/>
       <use x="63.623047" xlink:href="#DejaVuSans-48"/>
       <use x="127.246094" xlink:href="#DejaVuSans-49"/>
       <use x="190.869141" xlink:href="#DejaVuSans-54"/>
       <use x="254.492188" xlink:href="#DejaVuSans-45"/>
       <use x="290.576172" xlink:href="#DejaVuSans-48"/>
       <use x="354.199219" xlink:href="#DejaVuSans-57"/>
      </g>
     </g>
    </g>
    <g id="xtick_6">
     <g id="line2d_6">
      <g>
       <use style="stroke:#000000;stroke-width:0.8;" x="249.056787" xlink:href="#m9c99e7051d" y="252"/>
      </g>
     </g>
     <g id="text_6">
      <!-- 2017-01 -->
      <g transform="translate(236.235505 293.917817)rotate(-45)scale(0.1 -0.1)">
       <defs>
        <path d="M 8.203125 72.90625 
L 55.078125 72.90625 
L 55.078125 68.703125 
L 28.609375 0 
L 18.3125 0 
L 43.21875 64.59375 
L 8.203125 64.59375 
z
" id="DejaVuSans-55"/>
       </defs>
       <use xlink:href="#DejaVuSans-50"/>
       <use x="63.623047" xlink:href="#DejaVuSans-48"/>
       <use x="127.246094" xlink:href="#DejaVuSans-49"/>
       <use x="190.869141" xlink:href="#DejaVuSans-55"/>
       <use x="254.492188" xlink:href="#DejaVuSans-45"/>
       <use x="290.576172" xlink:href="#DejaVuSans-48"/>
       <use x="354.199219" xlink:href="#DejaVuSans-49"/>
      </g>
     </g>
    </g>
    <g id="xtick_7">
     <g id="line2d_7">
      <g>
       <use style="stroke:#000000;stroke-width:0.8;" x="282.411706" xlink:href="#m9c99e7051d" y="252"/>
      </g>
     </g>
     <g id="text_7">
      <!-- 2017-05 -->
      <g transform="translate(269.590424 293.917817)rotate(-45)scale(0.1 -0.1)">
       <use xlink:href="#DejaVuSans-50"/>
       <use x="63.623047" xlink:href="#DejaVuSans-48"/>
       <use x="127.246094" xlink:href="#DejaVuSans-49"/>
       <use x="190.869141" xlink:href="#DejaVuSans-55"/>
       <use x="254.492188" xlink:href="#DejaVuSans-45"/>
       <use x="290.576172" xlink:href="#DejaVuSans-48"/>
       <use x="354.199219" xlink:href="#DejaVuSans-53"/>
      </g>
     </g>
    </g>
    <g id="xtick_8">
     <g id="line2d_8">
      <g>
       <use style="stroke:#000000;stroke-width:0.8;" x="316.600498" xlink:href="#m9c99e7051d" y="252"/>
      </g>
     </g>
     <g id="text_8">
      <!-- 2017-09 -->
      <g transform="translate(303.779216 293.917817)rotate(-45)scale(0.1 -0.1)">
       <use xlink:href="#DejaVuSans-50"/>
       <use x="63.623047" xlink:href="#DejaVuSans-48"/>
       <use x="127.246094" xlink:href="#DejaVuSans-49"/>
       <use x="190.869141" xlink:href="#DejaVuSans-55"/>
       <use x="254.492188" xlink:href="#DejaVuSans-45"/>
       <use x="290.576172" xlink:href="#DejaVuSans-48"/>
       <use x="354.199219" xlink:href="#DejaVuSans-57"/>
      </g>
     </g>
    </g>
    <g id="xtick_9">
     <g id="line2d_9">
      <g>
       <use style="stroke:#000000;stroke-width:0.8;" x="350.511333" xlink:href="#m9c99e7051d" y="252"/>
      </g>
     </g>
     <g id="text_9">
      <!-- 2018-01 -->
      <g transform="translate(337.69005 293.917817)rotate(-45)scale(0.1 -0.1)">
       <defs>
        <path d="M 31.78125 34.625 
Q 24.75 34.625 20.71875 30.859375 
Q 16.703125 27.09375 16.703125 20.515625 
Q 16.703125 13.921875 20.71875 10.15625 
Q 24.75 6.390625 31.78125 6.390625 
Q 38.8125 6.390625 42.859375 10.171875 
Q 46.921875 13.96875 46.921875 20.515625 
Q 46.921875 27.09375 42.890625 30.859375 
Q 38.875 34.625 31.78125 34.625 
z
M 21.921875 38.8125 
Q 15.578125 40.375 12.03125 44.71875 
Q 8.5 49.078125 8.5 55.328125 
Q 8.5 64.0625 14.71875 69.140625 
Q 20.953125 74.21875 31.78125 74.21875 
Q 42.671875 74.21875 48.875 69.140625 
Q 55.078125 64.0625 55.078125 55.328125 
Q 55.078125 49.078125 51.53125 44.71875 
Q 48 40.375 41.703125 38.8125 
Q 48.828125 37.15625 52.796875 32.3125 
Q 56.78125 27.484375 56.78125 20.515625 
Q 56.78125 9.90625 50.3125 4.234375 
Q 43.84375 -1.421875 31.78125 -1.421875 
Q 19.734375 -1.421875 13.25 4.234375 
Q 6.78125 9.90625 6.78125 20.515625 
Q 6.78125 27.484375 10.78125 32.3125 
Q 14.796875 37.15625 21.921875 38.8125 
z
M 18.3125 54.390625 
Q 18.3125 48.734375 21.84375 45.5625 
Q 25.390625 42.390625 31.78125 42.390625 
Q 38.140625 42.390625 41.71875 45.5625 
Q 45.3125 48.734375 45.3125 54.390625 
Q 45.3125 60.0625 41.71875 63.234375 
Q 38.140625 66.40625 31.78125 66.40625 
Q 25.390625 66.40625 21.84375 63.234375 
Q 18.3125 60.0625 18.3125 54.390625 
z
" id="DejaVuSans-56"/>
       </defs>
       <use xlink:href="#DejaVuSans-50"/>
       <use x="63.623047" xlink:href="#DejaVuSans-48"/>
       <use x="127.246094" xlink:href="#DejaVuSans-49"/>
       <use x="190.869141" xlink:href="#DejaVuSans-56"/>
       <use x="254.492188" xlink:href="#DejaVuSans-45"/>
       <use x="290.576172" xlink:href="#DejaVuSans-48"/>
       <use x="354.199219" xlink:href="#DejaVuSans-49"/>
      </g>
     </g>
    </g>
    <g id="xtick_10">
     <g id="line2d_10">
      <g>
       <use style="stroke:#000000;stroke-width:0.8;" x="383.866252" xlink:href="#m9c99e7051d" y="252"/>
      </g>
     </g>
     <g id="text_10">
      <!-- 2018-05 -->
      <g transform="translate(371.044969 293.917817)rotate(-45)scale(0.1 -0.1)">
       <use xlink:href="#DejaVuSans-50"/>
       <use x="63.623047" xlink:href="#DejaVuSans-48"/>
       <use x="127.246094" xlink:href="#DejaVuSans-49"/>
       <use x="190.869141" xlink:href="#DejaVuSans-56"/>
       <use x="254.492188" xlink:href="#DejaVuSans-45"/>
       <use x="290.576172" xlink:href="#DejaVuSans-48"/>
       <use x="354.199219" xlink:href="#DejaVuSans-53"/>
      </g>
     </g>
    </g>
   </g>
   <g id="matplotlib.axis_2">
    <g id="ytick_1">
     <g id="line2d_11">
      <defs>
       <path d="M 0 0 
L -3.5 0 
" id="m8ac29dd26b" style="stroke:#000000;stroke-width:0.8;"/>
      </defs>
      <g>
       <use style="stroke:#000000;stroke-width:0.8;" x="54" xlink:href="#m8ac29dd26b" y="242.116364"/>
      </g>
     </g>
     <g id="text_11">
      <!-- 0 -->
      <g transform="translate(40.6375 245.915582)scale(0.1 -0.1)">
       <use xlink:href="#DejaVuSans-48"/>
      </g>
     </g>
    </g>
    <g id="ytick_2">
     <g id="line2d_12">
      <g>
       <use style="stroke:#000000;stroke-width:0.8;" x="54" xlink:href="#m8ac29dd26b" y="212.692022"/>
      </g>
     </g>
     <g id="text_12">
      <!-- 10 -->
      <g transform="translate(34.275 216.491241)scale(0.1 -0.1)">
       <use xlink:href="#DejaVuSans-49"/>
       <use x="63.623047" xlink:href="#DejaVuSans-48"/>
      </g>
     </g>
    </g>
    <g id="ytick_3">
     <g id="line2d_13">
      <g>
       <use style="stroke:#000000;stroke-width:0.8;" x="54" xlink:href="#m8ac29dd26b" y="183.26768"/>
      </g>
     </g>
     <g id="text_13">
      <!-- 20 -->
      <g transform="translate(34.275 187.066899)scale(0.1 -0.1)">
       <use xlink:href="#DejaVuSans-50"/>
       <use x="63.623047" xlink:href="#DejaVuSans-48"/>
      </g>
     </g>
    </g>
    <g id="ytick_4">
     <g id="line2d_14">
      <g>
       <use style="stroke:#000000;stroke-width:0.8;" x="54" xlink:href="#m8ac29dd26b" y="153.843339"/>
      </g>
     </g>
     <g id="text_14">
      <!-- 30 -->
      <g transform="translate(34.275 157.642557)scale(0.1 -0.1)">
       <defs>
        <path d="M 40.578125 39.3125 
Q 47.65625 37.796875 51.625 33 
Q 55.609375 28.21875 55.609375 21.1875 
Q 55.609375 10.40625 48.1875 4.484375 
Q 40.765625 -1.421875 27.09375 -1.421875 
Q 22.515625 -1.421875 17.65625 -0.515625 
Q 12.796875 0.390625 7.625 2.203125 
L 7.625 11.71875 
Q 11.71875 9.328125 16.59375 8.109375 
Q 21.484375 6.890625 26.8125 6.890625 
Q 36.078125 6.890625 40.9375 10.546875 
Q 45.796875 14.203125 45.796875 21.1875 
Q 45.796875 27.640625 41.28125 31.265625 
Q 36.765625 34.90625 28.71875 34.90625 
L 20.21875 34.90625 
L 20.21875 43.015625 
L 29.109375 43.015625 
Q 36.375 43.015625 40.234375 45.921875 
Q 44.09375 48.828125 44.09375 54.296875 
Q 44.09375 59.90625 40.109375 62.90625 
Q 36.140625 65.921875 28.71875 65.921875 
Q 24.65625 65.921875 20.015625 65.03125 
Q 15.375 64.15625 9.8125 62.3125 
L 9.8125 71.09375 
Q 15.4375 72.65625 20.34375 73.4375 
Q 25.25 74.21875 29.59375 74.21875 
Q 40.828125 74.21875 47.359375 69.109375 
Q 53.90625 64.015625 53.90625 55.328125 
Q 53.90625 49.265625 50.4375 45.09375 
Q 46.96875 40.921875 40.578125 39.3125 
z
" id="DejaVuSans-51"/>
       </defs>
       <use xlink:href="#DejaVuSans-51"/>
       <use x="63.623047" xlink:href="#DejaVuSans-48"/>
      </g>
     </g>
    </g>
    <g id="ytick_5">
     <g id="line2d_15">
      <g>
       <use style="stroke:#000000;stroke-width:0.8;" x="54" xlink:href="#m8ac29dd26b" y="124.418997"/>
      </g>
     </g>
     <g id="text_15">
      <!-- 40 -->
      <g transform="translate(34.275 128.218216)scale(0.1 -0.1)">
       <defs>
        <path d="M 37.796875 64.3125 
L 12.890625 25.390625 
L 37.796875 25.390625 
z
M 35.203125 72.90625 
L 47.609375 72.90625 
L 47.609375 25.390625 
L 58.015625 25.390625 
L 58.015625 17.1875 
L 47.609375 17.1875 
L 47.609375 0 
L 37.796875 0 
L 37.796875 17.1875 
L 4.890625 17.1875 
L 4.890625 26.703125 
z
" id="DejaVuSans-52"/>
       </defs>
       <use xlink:href="#DejaVuSans-52"/>
       <use x="63.623047" xlink:href="#DejaVuSans-48"/>
      </g>
     </g>
    </g>
    <g id="ytick_6">
     <g id="line2d_16">
      <g>
       <use style="stroke:#000000;stroke-width:0.8;" x="54" xlink:href="#m8ac29dd26b" y="94.994655"/>
      </g>
     </g>
     <g id="text_16">
      <!-- 50 -->
      <g transform="translate(34.275 98.793874)scale(0.1 -0.1)">
       <use xlink:href="#DejaVuSans-53"/>
       <use x="63.623047" xlink:href="#DejaVuSans-48"/>
      </g>
     </g>
    </g>
    <g id="ytick_7">
     <g id="line2d_17">
      <g>
       <use style="stroke:#000000;stroke-width:0.8;" x="54" xlink:href="#m8ac29dd26b" y="65.570314"/>
      </g>
     </g>
     <g id="text_17">
      <!-- 60 -->
      <g transform="translate(34.275 69.369532)scale(0.1 -0.1)">
       <use xlink:href="#DejaVuSans-54"/>
       <use x="63.623047" xlink:href="#DejaVuSans-48"/>
      </g>
     </g>
    </g>
    <g id="ytick_8">
     <g id="line2d_18">
      <g>
       <use style="stroke:#000000;stroke-width:0.8;" x="54" xlink:href="#m8ac29dd26b" y="36.145972"/>
      </g>
     </g>
     <g id="text_18">
      <!-- 70 -->
      <g transform="translate(34.275 39.945191)scale(0.1 -0.1)">
       <use xlink:href="#DejaVuSans-55"/>
       <use x="63.623047" xlink:href="#DejaVuSans-48"/>
      </g>
     </g>
    </g>
   </g>
   <g id="line2d_19">
    <path clip-path="url(#pf22fabef5e)" d="M 69.218182 160.875756 
L 69.496139 164.49495 
L 69.774097 146.899194 
L 70.052055 105.116629 
L 70.330012 173.057434 
L 70.60797 169.938454 
L 70.885928 131.304293 
L 71.163885 152.195576 
L 71.441843 131.833931 
L 71.719801 142.779786 
L 71.997758 144.309852 
L 72.275716 137.954194 
L 72.553674 144.810066 
L 72.831631 169.349967 
L 73.109589 167.466809 
L 73.387547 167.349111 
L 73.665504 129.744803 
L 73.943462 122.712385 
L 74.22142 145.869342 
L 74.777335 152.077878 
L 75.055293 150.106447 
L 75.33325 163.259128 
L 75.889166 152.489819 
L 76.167123 180.178124 
L 77.000996 140.543536 
L 77.278954 142.39727 
L 77.834869 136.541826 
L 78.390785 168.555509 
L 78.668742 162.670641 
L 78.9467 164.524375 
L 79.224658 164.700921 
L 79.780573 174.352105 
L 80.058531 171.497944 
L 80.336488 162.994309 
L 81.170361 188.564062 
L 81.448319 192.88944 
L 82.004234 181.060855 
L 82.282192 194.699037 
L 82.560149 155.34398 
L 82.838107 185.871735 
L 83.116065 184.179835 
L 83.394022 171.497944 
L 83.67198 192.536348 
L 83.949938 189.402656 
L 84.227895 187.887302 
L 84.505853 192.88944 
L 84.783811 206.159818 
L 85.061768 208.793297 
L 85.339726 182.061282 
L 85.617684 181.443371 
L 86.173599 169.526513 
L 86.451557 191.506496 
L 86.729514 194.419506 
L 87.007472 192.801167 
L 87.28543 192.565772 
L 87.563387 196.68518 
L 88.119303 167.172565 
L 88.39726 167.025444 
L 88.675218 183.444226 
L 88.953176 181.914161 
L 89.509091 203.305657 
L 89.787049 195.007993 
L 90.065006 203.011414 
L 90.342964 197.185394 
L 90.620922 195.80245 
L 90.898879 202.010986 
L 91.176837 189.535065 
L 91.454795 205.600756 
L 91.732752 205.041693 
L 92.01071 198.24467 
L 92.288667 205.277088 
L 92.566625 200.598618 
L 92.844583 200.422072 
L 93.12254 180.648914 
L 93.400498 192.830591 
L 93.678456 198.862581 
L 93.956413 197.008848 
L 94.234371 178.942302 
L 94.512329 204.247236 
L 94.790286 204.217812 
L 95.068244 192.448075 
L 95.346202 189.682187 
L 95.624159 196.508634 
L 95.902117 199.951282 
L 96.180075 195.920147 
L 96.458032 195.949572 
L 96.73599 189.270246 
L 97.013948 194.419506 
L 97.291905 193.065986 
L 97.569863 202.246381 
L 98.125778 195.537631 
L 98.403736 205.483058 
L 98.959651 186.563207 
L 99.237609 190.682614 
L 99.515567 210.220377 
L 99.793524 201.805016 
L 100.34944 199.274522 
L 100.627397 195.272812 
L 100.905355 196.405649 
L 101.183313 187.593059 
L 101.46127 196.611619 
L 101.739228 197.273667 
L 102.017186 200.686891 
L 102.295143 201.481348 
L 102.573101 200.451496 
L 102.851059 182.149555 
L 103.129016 197.36194 
L 103.406974 195.773026 
L 103.684932 196.302664 
L 104.240847 193.742746 
L 104.518804 216.634884 
L 104.796762 217.723584 
L 105.352677 189.240822 
L 105.630635 198.656611 
L 105.908593 196.067269 
L 106.18655 197.832729 
L 106.464508 187.298815 
L 106.742466 190.152976 
L 107.020423 190.800312 
L 107.298381 189.682187 
L 107.576339 192.654045 
L 107.854296 197.509062 
L 108.132254 195.213963 
L 108.410212 199.951282 
L 108.688169 200.569193 
L 108.966127 200.27495 
L 109.244085 192.712894 
L 109.522042 194.036989 
L 109.8 181.973009 
L 110.077958 204.188387 
L 110.355915 188.387516 
L 110.633873 194.91972 
L 110.911831 204.100114 
L 111.189788 195.706821 
L 111.467746 191.477072 
L 111.745704 197.950427 
L 112.023661 201.304802 
L 112.301619 207.837006 
L 112.579577 193.124835 
L 112.857534 184.326957 
L 113.135492 202.099259 
L 113.691407 163.671069 
L 113.969365 164.200707 
L 114.247323 155.13801 
L 114.803238 188.21097 
L 115.081196 175.146562 
L 115.359153 168.437812 
L 115.637111 172.439523 
L 116.193026 192.742318 
L 116.470984 166.260411 
L 116.748941 176.264687 
L 117.026899 156.6975 
L 117.304857 157.491957 
L 117.582814 159.080871 
L 117.860772 146.457829 
L 118.13873 149.929901 
L 118.416687 142.662089 
L 118.694645 129.038619 
L 118.972603 150.753783 
L 119.25056 145.663372 
L 119.528518 161.346546 
L 119.806476 150.430115 
L 120.084433 150.66551 
L 120.362391 142.132451 
L 120.640349 146.281283 
L 121.196264 164.906891 
L 121.474222 154.402401 
L 121.752179 168.172993 
L 122.030137 136.100461 
L 122.308095 165.024588 
L 122.586052 158.021595 
L 122.86401 158.845477 
L 123.141968 133.864211 
L 123.697883 150.047599 
L 123.975841 148.811776 
L 124.253798 117.577838 
L 124.531756 138.277862 
L 125.087671 159.404539 
L 125.365629 140.661234 
L 125.643587 130.862928 
L 125.921544 136.100461 
L 126.199502 144.545247 
L 126.47746 111.795954 
L 126.755417 140.808355 
L 127.033375 150.371266 
L 127.311333 153.666793 
L 127.58929 146.575526 
L 128.145205 102.733257 
L 128.423163 132.716661 
L 128.701121 149.812204 
L 128.979078 139.543109 
L 129.257036 142.279572 
L 129.534994 133.158026 
L 129.812951 136.865494 
L 130.090909 137.218586 
L 130.368867 111.119195 
L 130.646824 129.421135 
L 130.924782 107.882517 
L 131.20274 112.266744 
L 131.480697 119.652254 
L 131.758655 134.658668 
L 132.036613 114.944359 
L 132.31457 105.646267 
L 132.592528 126.802369 
L 132.870486 119.622829 
L 133.148443 132.392994 
L 133.426401 120.093619 
L 133.704359 135.423701 
L 133.982316 123.565691 
L 134.260274 88.491876 
L 134.538232 106.4113 
L 134.816189 111.413438 
L 135.094147 102.880379 
L 135.372105 110.913224 
L 135.650062 108.471004 
L 135.92802 97.495724 
L 136.205978 70.484179 
L 136.483935 113.473142 
L 137.039851 92.817254 
L 137.317808 89.727698 
L 137.595766 83.872254 
L 138.151681 57.861136 
L 138.429639 75.78056 
L 138.707597 110.766102 
L 138.985554 94.935807 
L 139.263512 119.917073 
L 139.541469 102.085922 
L 139.819427 112.10491 
L 140.375342 98.908093 
L 140.6533 121.829655 
L 140.931258 111.325165 
L 141.209215 111.795954 
L 141.487173 94.612139 
L 141.765131 96.877813 
L 142.043088 90.316185 
L 142.321046 102.321316 
L 142.599004 104.484006 
L 142.876961 104.998932 
L 143.432877 78.399327 
L 143.710834 82.695281 
L 143.988792 97.348603 
L 144.26675 97.201481 
L 144.544707 88.815544 
L 144.822665 90.845823 
L 145.100623 103.527714 
L 145.37858 85.520017 
L 145.656538 79.782271 
L 145.934496 67.30635 
L 146.490411 86.402748 
L 146.768369 80.635577 
L 147.046326 44.855577 
L 147.324284 65.864557 
L 147.602242 60.568176 
L 147.880199 63.981399 
L 148.158157 95.641991 
L 148.436115 75.309771 
L 148.714072 97.760543 
L 148.99203 95.200626 
L 149.269988 84.372468 
L 149.547945 65.158373 
L 149.825903 88.786119 
L 150.103861 76.427896 
L 150.381818 103.821958 
L 150.659776 103.733685 
L 150.937733 106.352451 
L 151.215691 93.935379 
L 151.493649 95.141777 
L 151.771606 135.394276 
L 152.049564 112.149047 
L 152.327522 130.951201 
L 152.605479 120.770379 
L 152.883437 137.954194 
L 153.161395 138.866349 
L 153.439352 136.924342 
L 153.71731 129.068043 
L 153.995268 135.100033 
L 154.273225 123.712813 
L 154.829141 149.414975 
L 155.385056 117.445428 
L 155.663014 115.503421 
L 156.218929 135.306003 
L 156.496887 131.716234 
L 156.774844 124.978059 
L 157.052802 112.796382 
L 157.33076 120.9175 
L 157.608717 119.093191 
L 158.164633 132.451842 
L 158.44259 125.507698 
L 158.720548 129.156316 
L 158.998506 141.190872 
L 159.276463 134.80579 
L 159.554421 115.679968 
L 159.832379 133.702377 
L 160.110336 138.071892 
L 160.388294 135.747369 
L 160.666252 139.896201 
L 160.944209 124.978059 
L 161.222167 120.623257 
L 161.500125 106.646695 
L 161.778082 130.774655 
L 162.05604 126.125609 
L 162.333998 131.21602 
L 162.611955 139.925625 
L 162.889913 141.985329 
L 163.16787 131.304293 
L 163.445828 116.150757 
L 163.723786 242.116364 
L 164.001743 136.129885 
L 164.279701 125.125181 
L 165.113574 141.337993 
L 165.669489 134.187878 
L 165.947447 137.012615 
L 166.225405 125.919638 
L 166.503362 129.18574 
L 166.78132 121.564836 
L 167.059278 123.330296 
L 167.337235 120.50556 
L 167.615193 126.419852 
L 167.893151 111.442862 
L 168.171108 129.538832 
L 168.449066 131.89278 
L 168.727024 131.274869 
L 169.004981 140.572961 
L 169.282939 138.60153 
L 169.560897 139.896201 
L 169.838854 146.987467 
L 170.116812 132.245872 
L 170.39477 135.423701 
L 170.672727 136.688947 
L 170.950685 146.781497 
L 171.228643 140.661234 
L 171.5066 148.046743 
L 171.784558 148.223289 
L 172.062516 161.523092 
L 172.340473 168.908602 
L 172.618431 168.349539 
L 172.896389 166.260411 
L 173.174346 155.638223 
L 173.452304 165.995592 
L 173.730262 146.457829 
L 174.286177 165.142286 
L 174.564134 161.964457 
L 175.12005 139.543109 
L 175.398007 153.57852 
L 175.675965 134.658668 
L 175.953923 148.105592 
L 176.23188 145.133734 
L 176.509838 136.041612 
L 177.621669 189.064276 
L 177.899626 196.096693 
L 178.177584 189.034851 
L 178.455542 165.289408 
L 178.733499 168.055296 
L 179.011457 168.143569 
L 179.289415 151.106875 
L 179.567372 150.459539 
L 180.401245 180.266397 
L 180.679203 207.689884 
L 180.957161 199.156825 
L 181.235118 208.042976 
L 181.513076 204.011841 
L 181.791034 196.891151 
L 182.068991 183.885591 
L 182.346949 179.030575 
L 182.624907 195.272812 
L 182.902864 192.624621 
L 183.180822 176.48537 
L 183.45878 189.29967 
L 183.736737 196.273239 
L 184.014695 199.951282 
L 184.292653 200.186677 
L 184.57061 199.39222 
L 184.848568 195.743601 
L 185.126526 198.892006 
L 185.404483 178.942302 
L 185.682441 184.591776 
L 185.960399 195.449358 
L 186.238356 190.152976 
L 186.516314 194.272384 
L 187.072229 156.6975 
L 187.628144 177.265115 
L 187.906102 180.531217 
L 188.462017 150.341842 
L 188.739975 156.874046 
L 189.017933 187.504786 
L 189.29589 203.482203 
L 189.573848 200.039555 
L 189.851806 200.834012 
L 190.129763 192.065558 
L 190.685679 211.985838 
L 190.963636 212.250657 
L 191.241594 215.075394 
L 191.519552 197.097121 
L 191.797509 189.947006 
L 192.075467 159.286842 
L 192.353425 152.313273 
L 192.631382 171.174276 
L 192.90934 164.141858 
L 193.187298 150.753783 
L 193.465255 154.696645 
L 193.743213 179.413092 
L 194.021171 177.353388 
L 194.299128 171.645065 
L 194.577086 148.517533 
L 194.855044 175.087713 
L 195.133001 175.999868 
L 195.410959 185.680476 
L 195.688917 185.915871 
L 195.966874 173.940164 
L 196.244832 183.797318 
L 196.52279 187.651907 
L 196.800747 204.041266 
L 197.078705 196.920575 
L 197.356663 198.156397 
L 197.63462 204.659177 
L 197.912578 198.568338 
L 198.190535 198.627187 
L 198.468493 203.982417 
L 198.746451 207.071973 
L 199.024408 195.508206 
L 199.302366 191.035707 
L 199.580324 193.213108 
L 199.858281 186.445509 
L 200.136239 188.917154 
L 200.414197 195.007993 
L 200.970112 199.480493 
L 201.24807 187.151693 
L 201.526027 202.746594 
L 201.803985 196.68518 
L 202.081943 197.214818 
L 202.3599 191.300526 
L 202.637858 202.158108 
L 202.915816 199.657039 
L 203.193773 200.363223 
L 203.471731 201.805016 
L 203.749689 197.509062 
L 204.027646 207.66046 
L 204.305604 202.481775 
L 204.583562 212.574325 
L 205.139477 200.981134 
L 205.695392 205.953848 
L 205.97335 193.77217 
L 206.251308 204.570904 
L 206.529265 200.157252 
L 206.807223 211.750443 
L 207.085181 202.834868 
L 207.363138 205.600756 
L 207.641096 206.630608 
L 207.919054 217.252795 
L 208.197011 192.418651 
L 208.474969 184.974292 
L 208.752927 183.473651 
L 209.308842 199.657039 
L 209.5868 187.475361 
L 209.864757 197.185394 
L 210.142715 201.922713 
L 210.420672 200.775164 
L 210.69863 206.071545 
L 210.976588 197.538486 
L 211.254545 195.714177 
L 211.532503 196.214391 
L 211.810461 203.364506 
L 212.088418 199.039127 
L 212.366376 200.392647 
L 212.644334 187.857878 
L 213.200249 209.573042 
L 213.478207 206.454062 
L 213.756164 201.687318 
L 214.034122 189.917582 
L 214.31208 186.092417 
L 214.590037 199.1274 
L 215.42391 172.733766 
L 215.701868 179.26597 
L 216.257783 160.081299 
L 216.535741 167.643355 
L 216.813699 171.2037 
L 217.091656 181.149128 
L 217.369614 182.944013 
L 217.647572 201.62847 
L 217.925529 205.865575 
L 218.203487 197.921002 
L 218.481445 199.951282 
L 218.759402 205.806726 
L 219.03736 177.559358 
L 219.315318 202.275805 
L 219.593275 181.090279 
L 219.871233 177.294539 
L 220.149191 155.608799 
L 220.427148 167.937598 
L 220.705106 172.35125 
L 221.261021 153.637368 
L 221.538979 159.051447 
L 222.372852 179.589638 
L 222.650809 169.909029 
L 222.928767 166.083865 
L 223.484682 144.898339 
L 223.76264 141.455691 
L 224.040598 171.380246 
L 224.318555 158.786628 
L 224.596513 157.256562 
L 224.874471 162.93546 
L 225.152428 160.875756 
L 225.430386 161.787911 
L 225.708344 168.938026 
L 225.986301 134.158454 
L 226.264259 143.368273 
L 226.542217 141.04375 
L 226.820174 160.375543 
L 227.37609 144.133306 
L 227.654047 141.337993 
L 228.209963 153.696217 
L 228.48792 149.665082 
L 228.765878 151.077451 
L 229.043836 141.92648 
L 229.599751 130.892352 
L 229.877709 155.697072 
L 230.155666 154.314128 
L 230.711582 144.251003 
L 230.989539 151.695362 
L 231.267497 133.923059 
L 231.545455 139.807928 
L 231.823412 134.864638 
L 232.10137 150.547812 
L 232.379328 144.339276 
L 232.657285 142.632664 
L 232.935243 142.250148 
L 233.2132 144.280428 
L 233.491158 135.070609 
L 233.769116 146.163585 
L 234.047073 167.496233 
L 234.325031 156.491529 
L 234.602989 133.717089 
L 234.880946 160.905181 
L 235.158904 155.932467 
L 235.436862 139.955049 
L 235.714819 142.559104 
L 235.992777 138.027755 
L 236.270735 136.041612 
L 236.548692 138.483832 
L 236.82665 137.100888 
L 237.104608 120.534984 
L 237.382565 123.83051 
L 237.660523 145.589811 
L 237.938481 125.978487 
L 238.216438 138.925197 
L 238.494396 140.249293 
L 238.772354 127.42028 
L 239.050311 135.600247 
L 239.328269 125.919638 
L 239.606227 126.331579 
L 239.884184 121.976777 
L 240.162142 126.037336 
L 240.4401 122.624112 
L 240.718057 112.531563 
L 240.996015 114.149902 
L 241.273973 109.32431 
L 241.55193 91.375461 
L 241.829888 116.592122 
L 242.107846 87.903389 
L 242.385803 93.935379 
L 242.663761 63.657731 
L 242.941719 78.840692 
L 243.219676 64.18737 
L 243.497634 79.017238 
L 243.775592 58.802715 
L 244.053549 51.240659 
L 244.331507 68.542172 
L 244.609465 72.632156 
L 245.16538 49.975413 
L 245.721295 93.920667 
L 245.999253 90.110215 
L 246.27721 91.669705 
L 246.833126 111.384014 
L 247.111083 94.641563 
L 247.389041 70.454754 
L 247.944956 90.610428 
L 248.500872 73.250067 
L 248.778829 81.253488 
L 249.056787 83.489738 
L 249.334745 48.06283 
L 249.612702 56.713587 
L 249.89066 74.397616 
L 250.168618 77.81084 
L 250.446575 62.098241 
L 251.002491 75.898258 
L 251.280448 99.02579 
L 251.558406 98.201909 
L 251.836364 65.334919 
L 252.114321 71.455182 
L 252.392279 52.093965 
L 252.670237 70.395906 
L 252.948194 59.24408 
L 253.226152 95.171201 
L 253.50411 104.410445 
L 253.782067 105.234326 
L 254.060025 109.706826 
L 254.337983 87.815116 
L 254.61594 106.793816 
L 254.893898 90.75755 
L 255.171856 93.641136 
L 255.449813 100.673553 
L 255.727771 97.172057 
L 256.005729 84.0488 
L 256.283686 93.317468 
L 256.561644 92.78783 
L 256.839601 80.812123 
L 257.117559 95.70084 
L 257.395517 88.874392 
L 257.673474 94.494442 
L 257.951432 84.225346 
L 258.22939 86.137928 
L 258.507347 78.193356 
L 258.785305 85.667139 
L 259.063263 82.165642 
L 259.34122 91.905099 
L 259.619178 77.840264 
L 259.897136 94.111925 
L 260.175093 82.9601 
L 260.453051 81.076942 
L 260.731009 96.083356 
L 261.008966 84.607863 
L 261.564882 112.44329 
L 261.842839 108.088487 
L 262.120797 91.522583 
L 262.398755 86.932386 
L 262.676712 101.526859 
L 262.95467 103.468866 
L 263.232628 90.021942 
L 263.510585 86.520445 
L 263.788543 85.696563 
L 264.066501 68.336202 
L 264.344458 64.363916 
L 264.622416 96.201053 
L 264.900374 89.433455 
L 265.178331 91.757978 
L 265.456289 91.316613 
L 265.734247 103.998504 
L 266.012204 95.465445 
L 266.290162 101.173767 
L 266.56812 76.25135 
L 266.846077 98.878668 
L 267.124035 90.669277 
L 267.401993 91.963948 
L 267.67995 87.108932 
L 267.957908 96.966086 
L 268.235866 97.348603 
L 268.513823 98.496152 
L 268.791781 107.882517 
L 269.069738 106.117056 
L 269.347696 102.07121 
L 269.625654 103.763109 
L 269.903611 119.799375 
L 270.181569 85.137501 
L 270.459527 92.552435 
L 270.737484 104.116201 
L 271.015442 98.584425 
L 271.2934 108.294458 
L 271.571357 106.970362 
L 271.849315 91.875675 
L 272.127273 98.084211 
L 272.40523 72.014244 
L 272.683188 98.34903 
L 272.961146 92.052221 
L 273.239103 108.000214 
L 273.517061 113.885083 
L 273.795019 100.408734 
L 274.072976 94.435593 
L 274.350934 103.674836 
L 274.628892 98.878668 
L 274.906849 101.73283 
L 275.184807 94.34732 
L 275.462765 112.149047 
L 275.740722 113.061201 
L 276.01868 107.058635 
L 276.296638 104.38102 
L 276.574595 106.058208 
L 276.852553 117.59255 
L 277.130511 108.794672 
L 277.408468 110.41301 
L 277.686426 81.165215 
L 277.964384 111.310453 
L 278.242341 116.562698 
L 278.520299 115.738816 
L 278.798257 116.091908 
L 279.076214 115.768241 
L 279.354172 112.207895 
L 279.63213 124.154178 
L 279.910087 122.27102 
L 280.188045 114.355872 
L 280.466002 127.302582 
L 280.74396 116.386152 
L 281.021918 125.654819 
L 281.299875 128.538405 
L 281.577833 117.739671 
L 281.855791 99.849672 
L 282.133748 130.921777 
L 282.411706 119.799375 
L 282.689664 131.01005 
L 282.967621 130.862928 
L 283.245579 153.519671 
L 283.523537 148.399835 
L 283.801494 133.45227 
L 284.079452 126.096184 
L 284.35741 143.044605 
L 284.635367 144.427549 
L 284.913325 146.810921 
L 285.46924 120.564408 
L 285.747198 135.923915 
L 286.025156 120.093619 
L 286.303113 116.827517 
L 286.581071 121.300017 
L 286.859029 106.381876 
L 287.136986 152.666365 
L 287.414944 146.86977 
L 287.970859 161.905608 
L 288.248817 176.411809 
L 288.526775 175.529078 
L 288.804732 152.651653 
L 289.08269 159.169144 
L 289.360648 160.257845 
L 289.638605 164.08301 
L 289.916563 191.53592 
L 290.194521 194.713749 
L 290.472478 158.080444 
L 290.750436 142.367845 
L 291.028394 145.31028 
L 291.306351 149.841628 
L 291.584309 158.786628 
L 292.140224 151.430543 
L 292.418182 171.821611 
L 292.696139 179.383667 
L 293.252055 144.251003 
L 293.530012 151.077451 
L 293.80797 154.902615 
L 294.085928 164.024161 
L 294.641843 138.572105 
L 295.197758 147.340559 
L 295.475716 143.515395 
L 295.753674 124.183602 
L 296.031631 155.167434 
L 296.309589 169.938454 
L 296.587547 162.199852 
L 296.865504 164.642072 
L 297.143462 181.796463 
L 297.42142 189.711611 
L 297.699377 202.981989 
L 297.977335 194.860871 
L 298.255293 198.92143 
L 298.53325 207.601611 
L 298.811208 208.778585 
L 299.089166 191.741891 
L 299.367123 192.506924 
L 299.645081 197.744456 
L 299.923039 219.135953 
L 300.200996 227.345344 
L 300.756912 227.168798 
L 301.034869 226.874555 
L 301.312827 227.374768 
L 301.590785 226.815706 
L 301.868742 227.31592 
L 302.1467 227.227647 
L 302.424658 215.752154 
L 302.702615 194.566628 
L 303.814446 206.542335 
L 304.092403 199.421644 
L 304.370361 208.631463 
L 304.648319 202.275805 
L 304.926276 205.894999 
L 305.204234 200.127828 
L 305.482192 200.510345 
L 305.760149 205.071117 
L 306.038107 193.419078 
L 306.594022 211.603321 
L 306.87198 206.689456 
L 307.149938 209.867285 
L 307.427895 204.541479 
L 307.705853 205.306512 
L 307.983811 203.688173 
L 308.261768 207.66046 
L 308.539726 206.277515 
L 308.817684 188.122697 
L 309.095641 215.811002 
L 309.651557 186.769177 
L 309.929514 209.779012 
L 310.207472 204.512055 
L 310.48543 204.217812 
L 310.763387 199.833585 
L 311.041345 197.303091 
L 311.319303 193.595624 
L 311.59726 204.982844 
L 311.875218 197.685608 
L 312.153176 208.925706 
L 312.431133 202.158108 
L 312.709091 204.659177 
L 312.987049 204.703313 
L 313.265006 186.65148 
L 313.542964 214.222088 
L 313.820922 191.683042 
L 314.098879 190.329522 
L 314.654795 206.601183 
L 314.932752 191.271101 
L 315.21071 202.687746 
L 315.488667 198.24467 
L 315.766625 205.865575 
L 316.044583 200.834012 
L 316.32254 207.071973 
L 316.600498 193.742746 
L 316.878456 198.480065 
L 317.156413 210.98541 
L 317.434371 201.981562 
L 317.712329 202.687746 
L 317.990286 200.186677 
L 318.268244 203.835295 
L 318.824159 180.031003 
L 319.380075 208.602038 
L 319.658032 205.188815 
L 319.93599 209.720163 
L 320.491905 185.50393 
L 321.047821 125.18403 
L 321.325778 142.485543 
L 321.603736 142.294285 
L 322.159651 149.047171 
L 322.437609 133.805362 
L 322.715567 144.63352 
L 322.993524 134.305576 
L 323.54944 162.552944 
L 323.827397 147.164013 
L 324.105355 154.814342 
L 324.383313 152.489819 
L 324.939228 119.681678 
L 325.217186 148.458684 
L 325.495143 141.24972 
L 325.773101 145.72222 
L 326.051059 136.806645 
L 326.329016 136.36528 
L 326.606974 108.382731 
L 326.884932 126.978915 
L 327.162889 135.717944 
L 327.440847 112.001925 
L 327.718804 129.597681 
L 327.996762 115.032632 
L 328.27472 128.538405 
L 328.552677 98.790395 
L 329.108593 136.424128 
L 329.38655 138.101316 
L 329.664508 114.944359 
L 329.942466 131.01005 
L 330.498381 109.883372 
L 330.776339 107.705971 
L 331.054296 130.833503 
L 331.332254 144.368701 
L 331.610212 128.950346 
L 331.888169 130.480411 
L 332.166127 130.097895 
L 332.444085 128.185313 
L 332.722042 123.771661 
L 333 123.712813 
L 333.277958 125.18403 
L 333.833873 122.594688 
L 334.111831 111.648833 
L 334.389788 90.257336 
L 334.667746 84.754984 
L 334.945704 93.376317 
L 335.223661 91.728553 
L 335.501619 119.416859 
L 335.779577 113.32602 
L 336.057534 117.062912 
L 336.335492 92.287616 
L 336.61345 96.171629 
L 337.169365 109.618553 
L 337.447323 110.030494 
L 337.72528 107.441152 
L 338.003238 110.265889 
L 338.281196 97.054359 
L 338.559153 97.26033 
L 338.837111 109.795099 
L 339.115068 115.268027 
L 339.670984 132.09875 
L 339.948941 117.739671 
L 340.226899 111.795954 
L 340.504857 89.992517 
L 340.782814 107.191045 
L 341.060772 98.14306 
L 341.33873 104.85181 
L 341.616687 100.026218 
L 342.172603 96.642418 
L 342.45056 91.43431 
L 342.728518 96.848389 
L 343.006476 78.340478 
L 343.284433 87.962238 
L 343.562391 84.107649 
L 343.840349 83.430889 
L 344.396264 59.832567 
L 344.674222 90.963521 
L 344.952179 101.497435 
L 345.230137 97.907665 
L 345.508095 87.991662 
L 345.786052 95.377172 
L 346.341968 99.761399 
L 346.619925 106.705543 
L 346.897883 86.873537 
L 347.175841 88.344754 
L 347.453798 66.394195 
L 347.731756 65.27607 
L 348.009714 59.214656 
L 348.287671 88.197632 
L 348.565629 44.443636 
L 348.843587 85.431744 
L 349.121544 70.072238 
L 349.399502 87.462024 
L 349.67746 78.075659 
L 349.955417 77.81084 
L 350.233375 76.780988 
L 350.511333 76.898685 
L 350.78929 84.93153 
L 351.067248 75.162649 
L 351.623163 107.441152 
L 351.901121 112.472714 
L 352.179078 92.670132 
L 352.457036 105.852237 
L 352.734994 100.291037 
L 353.012951 97.230905 
L 353.290909 109.736251 
L 353.568867 111.619408 
L 353.846824 72.808702 
L 354.124782 91.728553 
L 354.40274 95.90681 
L 354.680697 119.15204 
L 354.958655 108.265033 
L 355.236613 117.680823 
L 355.51457 115.944787 
L 355.792528 94.376744 
L 356.070486 82.077369 
L 356.348443 107.058635 
L 356.626401 99.349458 
L 356.904359 104.881234 
L 357.182316 107.853093 
L 357.738232 78.075659 
L 358.016189 84.137073 
L 358.294147 112.502139 
L 358.572105 98.34903 
L 358.850062 98.908093 
L 359.12802 100.026218 
L 359.405978 106.293603 
L 359.683935 105.763964 
L 359.961893 101.894663 
L 360.239851 106.058208 
L 360.517808 115.797665 
L 360.795766 111.030922 
L 361.073724 120.24074 
L 361.351681 96.407024 
L 361.629639 84.990379 
L 361.907597 82.695281 
L 362.185554 74.338767 
L 362.463512 94.729836 
L 362.741469 83.519162 
L 363.019427 95.612567 
L 363.297385 85.137501 
L 363.575342 87.932813 
L 363.8533 76.295486 
L 364.131258 70.866695 
L 364.409215 89.845396 
L 364.687173 74.603587 
L 364.965131 92.052221 
L 365.243088 73.191218 
L 365.799004 98.172484 
L 366.076961 73.632583 
L 366.354919 98.731547 
L 366.632877 92.169919 
L 366.910834 102.409589 
L 367.46675 93.611711 
L 367.744707 92.346465 
L 368.022665 98.172484 
L 368.300623 107.705971 
L 368.57858 86.28505 
L 368.856538 124.860362 
L 369.134496 104.410445 
L 369.412453 102.998076 
L 369.968369 129.038619 
L 370.524284 117.945642 
L 370.802242 120.299589 
L 371.080199 118.592977 
L 371.358157 113.737961 
L 371.636115 87.903389 
L 372.19203 121.211744 
L 372.469988 111.325165 
L 372.747945 116.03306 
L 373.025903 97.378027 
L 373.303861 101.203191 
L 373.581818 107.29403 
L 373.581818 107.29403 
" style="fill:none;stroke:#000000;stroke-linecap:square;stroke-width:1.5;"/>
   </g>
   <g id="patch_3">
    <path d="M 54 252 
L 54 34.56 
" style="fill:none;stroke:#000000;stroke-linecap:square;stroke-linejoin:miter;stroke-width:0.8;"/>
   </g>
   <g id="patch_4">
    <path d="M 388.8 252 
L 388.8 34.56 
" style="fill:none;stroke:#000000;stroke-linecap:square;stroke-linejoin:miter;stroke-width:0.8;"/>
   </g>
   <g id="patch_5">
    <path d="M 54 252 
L 388.8 252 
" style="fill:none;stroke:#000000;stroke-linecap:square;stroke-linejoin:miter;stroke-width:0.8;"/>
   </g>
   <g id="patch_6">
    <path d="M 54 34.56 
L 388.8 34.56 
" style="fill:none;stroke:#000000;stroke-linecap:square;stroke-linejoin:miter;stroke-width:0.8;"/>
   </g>
   <g id="text_19">
    <!-- Soma Diária de Energia - Casa 19 -->
    <g transform="translate(120.413438 28.56)scale(0.12 -0.12)">
     <defs>
      <path d="M 53.515625 70.515625 
L 53.515625 60.890625 
Q 47.90625 63.578125 42.921875 64.890625 
Q 37.9375 66.21875 33.296875 66.21875 
Q 25.25 66.21875 20.875 63.09375 
Q 16.5 59.96875 16.5 54.203125 
Q 16.5 49.359375 19.40625 46.890625 
Q 22.3125 44.4375 30.421875 42.921875 
L 36.375 41.703125 
Q 47.40625 39.59375 52.65625 34.296875 
Q 57.90625 29 57.90625 20.125 
Q 57.90625 9.515625 50.796875 4.046875 
Q 43.703125 -1.421875 29.984375 -1.421875 
Q 24.8125 -1.421875 18.96875 -0.25 
Q 13.140625 0.921875 6.890625 3.21875 
L 6.890625 13.375 
Q 12.890625 10.015625 18.65625 8.296875 
Q 24.421875 6.59375 29.984375 6.59375 
Q 38.421875 6.59375 43.015625 9.90625 
Q 47.609375 13.234375 47.609375 19.390625 
Q 47.609375 24.75 44.3125 27.78125 
Q 41.015625 30.8125 33.5 32.328125 
L 27.484375 33.5 
Q 16.453125 35.6875 11.515625 40.375 
Q 6.59375 45.0625 6.59375 53.421875 
Q 6.59375 63.09375 13.40625 68.65625 
Q 20.21875 74.21875 32.171875 74.21875 
Q 37.3125 74.21875 42.625 73.28125 
Q 47.953125 72.359375 53.515625 70.515625 
z
" id="DejaVuSans-83"/>
      <path d="M 30.609375 48.390625 
Q 23.390625 48.390625 19.1875 42.75 
Q 14.984375 37.109375 14.984375 27.296875 
Q 14.984375 17.484375 19.15625 11.84375 
Q 23.34375 6.203125 30.609375 6.203125 
Q 37.796875 6.203125 41.984375 11.859375 
Q 46.1875 17.53125 46.1875 27.296875 
Q 46.1875 37.015625 41.984375 42.703125 
Q 37.796875 48.390625 30.609375 48.390625 
z
M 30.609375 56 
Q 42.328125 56 49.015625 48.375 
Q 55.71875 40.765625 55.71875 27.296875 
Q 55.71875 13.875 49.015625 6.21875 
Q 42.328125 -1.421875 30.609375 -1.421875 
Q 18.84375 -1.421875 12.171875 6.21875 
Q 5.515625 13.875 5.515625 27.296875 
Q 5.515625 40.765625 12.171875 48.375 
Q 18.84375 56 30.609375 56 
z
" id="DejaVuSans-111"/>
      <path d="M 52 44.1875 
Q 55.375 50.25 60.0625 53.125 
Q 64.75 56 71.09375 56 
Q 79.640625 56 84.28125 50.015625 
Q 88.921875 44.046875 88.921875 33.015625 
L 88.921875 0 
L 79.890625 0 
L 79.890625 32.71875 
Q 79.890625 40.578125 77.09375 44.375 
Q 74.3125 48.1875 68.609375 48.1875 
Q 61.625 48.1875 57.5625 43.546875 
Q 53.515625 38.921875 53.515625 30.90625 
L 53.515625 0 
L 44.484375 0 
L 44.484375 32.71875 
Q 44.484375 40.625 41.703125 44.40625 
Q 38.921875 48.1875 33.109375 48.1875 
Q 26.21875 48.1875 22.15625 43.53125 
Q 18.109375 38.875 18.109375 30.90625 
L 18.109375 0 
L 9.078125 0 
L 9.078125 54.6875 
L 18.109375 54.6875 
L 18.109375 46.1875 
Q 21.1875 51.21875 25.484375 53.609375 
Q 29.78125 56 35.6875 56 
Q 41.65625 56 45.828125 52.96875 
Q 50 49.953125 52 44.1875 
z
" id="DejaVuSans-109"/>
      <path d="M 34.28125 27.484375 
Q 23.390625 27.484375 19.1875 25 
Q 14.984375 22.515625 14.984375 16.5 
Q 14.984375 11.71875 18.140625 8.90625 
Q 21.296875 6.109375 26.703125 6.109375 
Q 34.1875 6.109375 38.703125 11.40625 
Q 43.21875 16.703125 43.21875 25.484375 
L 43.21875 27.484375 
z
M 52.203125 31.203125 
L 52.203125 0 
L 43.21875 0 
L 43.21875 8.296875 
Q 40.140625 3.328125 35.546875 0.953125 
Q 30.953125 -1.421875 24.3125 -1.421875 
Q 15.921875 -1.421875 10.953125 3.296875 
Q 6 8.015625 6 15.921875 
Q 6 25.140625 12.171875 29.828125 
Q 18.359375 34.515625 30.609375 34.515625 
L 43.21875 34.515625 
L 43.21875 35.40625 
Q 43.21875 41.609375 39.140625 45 
Q 35.0625 48.390625 27.6875 48.390625 
Q 23 48.390625 18.546875 47.265625 
Q 14.109375 46.140625 10.015625 43.890625 
L 10.015625 52.203125 
Q 14.9375 54.109375 19.578125 55.046875 
Q 24.21875 56 28.609375 56 
Q 40.484375 56 46.34375 49.84375 
Q 52.203125 43.703125 52.203125 31.203125 
z
" id="DejaVuSans-97"/>
      <path id="DejaVuSans-32"/>
      <path d="M 19.671875 64.796875 
L 19.671875 8.109375 
L 31.59375 8.109375 
Q 46.6875 8.109375 53.6875 14.9375 
Q 60.6875 21.78125 60.6875 36.53125 
Q 60.6875 51.171875 53.6875 57.984375 
Q 46.6875 64.796875 31.59375 64.796875 
z
M 9.8125 72.90625 
L 30.078125 72.90625 
Q 51.265625 72.90625 61.171875 64.09375 
Q 71.09375 55.28125 71.09375 36.53125 
Q 71.09375 17.671875 61.125 8.828125 
Q 51.171875 0 30.078125 0 
L 9.8125 0 
z
" id="DejaVuSans-68"/>
      <path d="M 9.421875 54.6875 
L 18.40625 54.6875 
L 18.40625 0 
L 9.421875 0 
z
M 9.421875 75.984375 
L 18.40625 75.984375 
L 18.40625 64.59375 
L 9.421875 64.59375 
z
" id="DejaVuSans-105"/>
      <path d="M 34.28125 27.484375 
Q 23.390625 27.484375 19.1875 25 
Q 14.984375 22.515625 14.984375 16.5 
Q 14.984375 11.71875 18.140625 8.90625 
Q 21.296875 6.109375 26.703125 6.109375 
Q 34.1875 6.109375 38.703125 11.40625 
Q 43.21875 16.703125 43.21875 25.484375 
L 43.21875 27.484375 
z
M 52.203125 31.203125 
L 52.203125 0 
L 43.21875 0 
L 43.21875 8.296875 
Q 40.140625 3.328125 35.546875 0.953125 
Q 30.953125 -1.421875 24.3125 -1.421875 
Q 15.921875 -1.421875 10.953125 3.296875 
Q 6 8.015625 6 15.921875 
Q 6 25.140625 12.171875 29.828125 
Q 18.359375 34.515625 30.609375 34.515625 
L 43.21875 34.515625 
L 43.21875 35.40625 
Q 43.21875 41.609375 39.140625 45 
Q 35.0625 48.390625 27.6875 48.390625 
Q 23 48.390625 18.546875 47.265625 
Q 14.109375 46.140625 10.015625 43.890625 
L 10.015625 52.203125 
Q 14.9375 54.109375 19.578125 55.046875 
Q 24.21875 56 28.609375 56 
Q 40.484375 56 46.34375 49.84375 
Q 52.203125 43.703125 52.203125 31.203125 
z
M 35.796875 79.984375 
L 45.515625 79.984375 
L 29.59375 61.625 
L 22.125 61.625 
z
" id="DejaVuSans-225"/>
      <path d="M 41.109375 46.296875 
Q 39.59375 47.171875 37.8125 47.578125 
Q 36.03125 48 33.890625 48 
Q 26.265625 48 22.1875 43.046875 
Q 18.109375 38.09375 18.109375 28.8125 
L 18.109375 0 
L 9.078125 0 
L 9.078125 54.6875 
L 18.109375 54.6875 
L 18.109375 46.1875 
Q 20.953125 51.171875 25.484375 53.578125 
Q 30.03125 56 36.53125 56 
Q 37.453125 56 38.578125 55.875 
Q 39.703125 55.765625 41.0625 55.515625 
z
" id="DejaVuSans-114"/>
      <path d="M 45.40625 46.390625 
L 45.40625 75.984375 
L 54.390625 75.984375 
L 54.390625 0 
L 45.40625 0 
L 45.40625 8.203125 
Q 42.578125 3.328125 38.25 0.953125 
Q 33.9375 -1.421875 27.875 -1.421875 
Q 17.96875 -1.421875 11.734375 6.484375 
Q 5.515625 14.40625 5.515625 27.296875 
Q 5.515625 40.1875 11.734375 48.09375 
Q 17.96875 56 27.875 56 
Q 33.9375 56 38.25 53.625 
Q 42.578125 51.265625 45.40625 46.390625 
z
M 14.796875 27.296875 
Q 14.796875 17.390625 18.875 11.75 
Q 22.953125 6.109375 30.078125 6.109375 
Q 37.203125 6.109375 41.296875 11.75 
Q 45.40625 17.390625 45.40625 27.296875 
Q 45.40625 37.203125 41.296875 42.84375 
Q 37.203125 48.484375 30.078125 48.484375 
Q 22.953125 48.484375 18.875 42.84375 
Q 14.796875 37.203125 14.796875 27.296875 
z
" id="DejaVuSans-100"/>
      <path d="M 56.203125 29.59375 
L 56.203125 25.203125 
L 14.890625 25.203125 
Q 15.484375 15.921875 20.484375 11.0625 
Q 25.484375 6.203125 34.421875 6.203125 
Q 39.59375 6.203125 44.453125 7.46875 
Q 49.3125 8.734375 54.109375 11.28125 
L 54.109375 2.78125 
Q 49.265625 0.734375 44.1875 -0.34375 
Q 39.109375 -1.421875 33.890625 -1.421875 
Q 20.796875 -1.421875 13.15625 6.1875 
Q 5.515625 13.8125 5.515625 26.8125 
Q 5.515625 40.234375 12.765625 48.109375 
Q 20.015625 56 32.328125 56 
Q 43.359375 56 49.78125 48.890625 
Q 56.203125 41.796875 56.203125 29.59375 
z
M 47.21875 32.234375 
Q 47.125 39.59375 43.09375 43.984375 
Q 39.0625 48.390625 32.421875 48.390625 
Q 24.90625 48.390625 20.390625 44.140625 
Q 15.875 39.890625 15.1875 32.171875 
z
" id="DejaVuSans-101"/>
      <path d="M 9.8125 72.90625 
L 55.90625 72.90625 
L 55.90625 64.59375 
L 19.671875 64.59375 
L 19.671875 43.015625 
L 54.390625 43.015625 
L 54.390625 34.71875 
L 19.671875 34.71875 
L 19.671875 8.296875 
L 56.78125 8.296875 
L 56.78125 0 
L 9.8125 0 
z
" id="DejaVuSans-69"/>
      <path d="M 54.890625 33.015625 
L 54.890625 0 
L 45.90625 0 
L 45.90625 32.71875 
Q 45.90625 40.484375 42.875 44.328125 
Q 39.84375 48.1875 33.796875 48.1875 
Q 26.515625 48.1875 22.3125 43.546875 
Q 18.109375 38.921875 18.109375 30.90625 
L 18.109375 0 
L 9.078125 0 
L 9.078125 54.6875 
L 18.109375 54.6875 
L 18.109375 46.1875 
Q 21.34375 51.125 25.703125 53.5625 
Q 30.078125 56 35.796875 56 
Q 45.21875 56 50.046875 50.171875 
Q 54.890625 44.34375 54.890625 33.015625 
z
" id="DejaVuSans-110"/>
      <path d="M 45.40625 27.984375 
Q 45.40625 37.75 41.375 43.109375 
Q 37.359375 48.484375 30.078125 48.484375 
Q 22.859375 48.484375 18.828125 43.109375 
Q 14.796875 37.75 14.796875 27.984375 
Q 14.796875 18.265625 18.828125 12.890625 
Q 22.859375 7.515625 30.078125 7.515625 
Q 37.359375 7.515625 41.375 12.890625 
Q 45.40625 18.265625 45.40625 27.984375 
z
M 54.390625 6.78125 
Q 54.390625 -7.171875 48.1875 -13.984375 
Q 42 -20.796875 29.203125 -20.796875 
Q 24.46875 -20.796875 20.265625 -20.09375 
Q 16.0625 -19.390625 12.109375 -17.921875 
L 12.109375 -9.1875 
Q 16.0625 -11.328125 19.921875 -12.34375 
Q 23.78125 -13.375 27.78125 -13.375 
Q 36.625 -13.375 41.015625 -8.765625 
Q 45.40625 -4.15625 45.40625 5.171875 
L 45.40625 9.625 
Q 42.625 4.78125 38.28125 2.390625 
Q 33.9375 0 27.875 0 
Q 17.828125 0 11.671875 7.65625 
Q 5.515625 15.328125 5.515625 27.984375 
Q 5.515625 40.671875 11.671875 48.328125 
Q 17.828125 56 27.875 56 
Q 33.9375 56 38.28125 53.609375 
Q 42.625 51.21875 45.40625 46.390625 
L 45.40625 54.6875 
L 54.390625 54.6875 
z
" id="DejaVuSans-103"/>
      <path d="M 64.40625 67.28125 
L 64.40625 56.890625 
Q 59.421875 61.53125 53.78125 63.8125 
Q 48.140625 66.109375 41.796875 66.109375 
Q 29.296875 66.109375 22.65625 58.46875 
Q 16.015625 50.828125 16.015625 36.375 
Q 16.015625 21.96875 22.65625 14.328125 
Q 29.296875 6.6875 41.796875 6.6875 
Q 48.140625 6.6875 53.78125 8.984375 
Q 59.421875 11.28125 64.40625 15.921875 
L 64.40625 5.609375 
Q 59.234375 2.09375 53.4375 0.328125 
Q 47.65625 -1.421875 41.21875 -1.421875 
Q 24.65625 -1.421875 15.125 8.703125 
Q 5.609375 18.84375 5.609375 36.375 
Q 5.609375 53.953125 15.125 64.078125 
Q 24.65625 74.21875 41.21875 74.21875 
Q 47.75 74.21875 53.53125 72.484375 
Q 59.328125 70.75 64.40625 67.28125 
z
" id="DejaVuSans-67"/>
      <path d="M 44.28125 53.078125 
L 44.28125 44.578125 
Q 40.484375 46.53125 36.375 47.5 
Q 32.28125 48.484375 27.875 48.484375 
Q 21.1875 48.484375 17.84375 46.4375 
Q 14.5 44.390625 14.5 40.28125 
Q 14.5 37.15625 16.890625 35.375 
Q 19.28125 33.59375 26.515625 31.984375 
L 29.59375 31.296875 
Q 39.15625 29.25 43.1875 25.515625 
Q 47.21875 21.78125 47.21875 15.09375 
Q 47.21875 7.46875 41.1875 3.015625 
Q 35.15625 -1.421875 24.609375 -1.421875 
Q 20.21875 -1.421875 15.453125 -0.5625 
Q 10.6875 0.296875 5.421875 2 
L 5.421875 11.28125 
Q 10.40625 8.6875 15.234375 7.390625 
Q 20.0625 6.109375 24.8125 6.109375 
Q 31.15625 6.109375 34.5625 8.28125 
Q 37.984375 10.453125 37.984375 14.40625 
Q 37.984375 18.0625 35.515625 20.015625 
Q 33.0625 21.96875 24.703125 23.78125 
L 21.578125 24.515625 
Q 13.234375 26.265625 9.515625 29.90625 
Q 5.8125 33.546875 5.8125 39.890625 
Q 5.8125 47.609375 11.28125 51.796875 
Q 16.75 56 26.8125 56 
Q 31.78125 56 36.171875 55.265625 
Q 40.578125 54.546875 44.28125 53.078125 
z
" id="DejaVuSans-115"/>
     </defs>
     <use xlink:href="#DejaVuSans-83"/>
     <use x="63.476562" xlink:href="#DejaVuSans-111"/>
     <use x="124.658203" xlink:href="#DejaVuSans-109"/>
     <use x="222.070312" xlink:href="#DejaVuSans-97"/>
     <use x="283.349609" xlink:href="#DejaVuSans-32"/>
     <use x="315.136719" xlink:href="#DejaVuSans-68"/>
     <use x="392.138672" xlink:href="#DejaVuSans-105"/>
     <use x="419.921875" xlink:href="#DejaVuSans-225"/>
     <use x="481.201172" xlink:href="#DejaVuSans-114"/>
     <use x="522.314453" xlink:href="#DejaVuSans-105"/>
     <use x="550.097656" xlink:href="#DejaVuSans-97"/>
     <use x="611.376953" xlink:href="#DejaVuSans-32"/>
     <use x="643.164062" xlink:href="#DejaVuSans-100"/>
     <use x="706.640625" xlink:href="#DejaVuSans-101"/>
     <use x="768.164062" xlink:href="#DejaVuSans-32"/>
     <use x="799.951172" xlink:href="#DejaVuSans-69"/>
     <use x="863.134766" xlink:href="#DejaVuSans-110"/>
     <use x="926.513672" xlink:href="#DejaVuSans-101"/>
     <use x="988.037109" xlink:href="#DejaVuSans-114"/>
     <use x="1027.400391" xlink:href="#DejaVuSans-103"/>
     <use x="1090.876953" xlink:href="#DejaVuSans-105"/>
     <use x="1118.660156" xlink:href="#DejaVuSans-97"/>
     <use x="1179.939453" xlink:href="#DejaVuSans-32"/>
     <use x="1211.726562" xlink:href="#DejaVuSans-45"/>
     <use x="1247.810547" xlink:href="#DejaVuSans-32"/>
     <use x="1279.597656" xlink:href="#DejaVuSans-67"/>
     <use x="1349.421875" xlink:href="#DejaVuSans-97"/>
     <use x="1410.701172" xlink:href="#DejaVuSans-115"/>
     <use x="1462.800781" xlink:href="#DejaVuSans-97"/>
     <use x="1524.080078" xlink:href="#DejaVuSans-32"/>
     <use x="1555.867188" xlink:href="#DejaVuSans-49"/>
     <use x="1619.490234" xlink:href="#DejaVuSans-57"/>
    </g>
   </g>
  </g>
 </g>
 <defs>
  <clipPath id="pf22fabef5e">
   <rect height="217.44" width="334.8" x="54" y="34.56"/>
  </clipPath>
 </defs>
</svg>
