<?xml version="1.0" encoding="utf-8" standalone="no"?>
<!DOCTYPE svg PUBLIC "-//W3C//DTD SVG 1.1//EN"
  "http://www.w3.org/Graphics/SVG/1.1/DTD/svg11.dtd">
<!-- Created with matplotlib (https://matplotlib.org/) -->
<svg height="288pt" version="1.1" viewBox="0 0 432 288" width="432pt" xmlns="http://www.w3.org/2000/svg" xmlns:xlink="http://www.w3.org/1999/xlink">
 <metadata>
  <rdf:RDF xmlns:cc="http://creativecommons.org/ns#" xmlns:dc="http://purl.org/dc/elements/1.1/" xmlns:rdf="http://www.w3.org/1999/02/22-rdf-syntax-ns#">
   <cc:Work>
    <dc:type rdf:resource="http://purl.org/dc/dcmitype/StillImage"/>
    <dc:date>2021-07-21T14:57:53.131106</dc:date>
    <dc:format>image/svg+xml</dc:format>
    <dc:creator>
     <cc:Agent>
      <dc:title>Matplotlib v3.3.4, https://matplotlib.org/</dc:title>
     </cc:Agent>
    </dc:creator>
   </cc:Work>
  </rdf:RDF>
 </metadata>
 <defs>
  <style type="text/css">*{stroke-linecap:butt;stroke-linejoin:round;}</style>
 </defs>
 <g id="figure_1">
  <g id="patch_1">
   <path d="M 0 288 
L 432 288 
L 432 0 
L 0 0 
z
" style="fill:#ffffff;"/>
  </g>
  <g id="axes_1">
   <g id="patch_2">
    <path d="M 54 252 
L 388.8 252 
L 388.8 34.56 
L 54 34.56 
z
" style="fill:#ffffff;"/>
   </g>
   <g id="matplotlib.axis_1">
    <g id="xtick_1">
     <g id="line2d_1">
      <defs>
       <path d="M 0 0 
L 0 3.5 
" id="md4fe879748" style="stroke:#000000;stroke-width:0.8;"/>
      </defs>
      <g>
       <use style="stroke:#000000;stroke-width:0.8;" x="70.080402" xlink:href="#md4fe879748" y="252"/>
      </g>
     </g>
     <g id="text_1">
      <!-- 2016-07 -->
      <g transform="translate(57.259119 293.917817)rotate(-45)scale(0.1 -0.1)">
       <defs>
        <path d="M 19.1875 8.296875 
L 53.609375 8.296875 
L 53.609375 0 
L 7.328125 0 
L 7.328125 8.296875 
Q 12.9375 14.109375 22.625 23.890625 
Q 32.328125 33.6875 34.8125 36.53125 
Q 39.546875 41.84375 41.421875 45.53125 
Q 43.3125 49.21875 43.3125 52.78125 
Q 43.3125 58.59375 39.234375 62.25 
Q 35.15625 65.921875 28.609375 65.921875 
Q 23.96875 65.921875 18.8125 64.3125 
Q 13.671875 62.703125 7.8125 59.421875 
L 7.8125 69.390625 
Q 13.765625 71.78125 18.9375 73 
Q 24.125 74.21875 28.421875 74.21875 
Q 39.75 74.21875 46.484375 68.546875 
Q 53.21875 62.890625 53.21875 53.421875 
Q 53.21875 48.921875 51.53125 44.890625 
Q 49.859375 40.875 45.40625 35.40625 
Q 44.1875 33.984375 37.640625 27.21875 
Q 31.109375 20.453125 19.1875 8.296875 
z
" id="DejaVuSans-50"/>
        <path d="M 31.78125 66.40625 
Q 24.171875 66.40625 20.328125 58.90625 
Q 16.5 51.421875 16.5 36.375 
Q 16.5 21.390625 20.328125 13.890625 
Q 24.171875 6.390625 31.78125 6.390625 
Q 39.453125 6.390625 43.28125 13.890625 
Q 47.125 21.390625 47.125 36.375 
Q 47.125 51.421875 43.28125 58.90625 
Q 39.453125 66.40625 31.78125 66.40625 
z
M 31.78125 74.21875 
Q 44.046875 74.21875 50.515625 64.515625 
Q 56.984375 54.828125 56.984375 36.375 
Q 56.984375 17.96875 50.515625 8.265625 
Q 44.046875 -1.421875 31.78125 -1.421875 
Q 19.53125 -1.421875 13.0625 8.265625 
Q 6.59375 17.96875 6.59375 36.375 
Q 6.59375 54.828125 13.0625 64.515625 
Q 19.53125 74.21875 31.78125 74.21875 
z
" id="DejaVuSans-48"/>
        <path d="M 12.40625 8.296875 
L 28.515625 8.296875 
L 28.515625 63.921875 
L 10.984375 60.40625 
L 10.984375 69.390625 
L 28.421875 72.90625 
L 38.28125 72.90625 
L 38.28125 8.296875 
L 54.390625 8.296875 
L 54.390625 0 
L 12.40625 0 
z
" id="DejaVuSans-49"/>
        <path d="M 33.015625 40.375 
Q 26.375 40.375 22.484375 35.828125 
Q 18.609375 31.296875 18.609375 23.390625 
Q 18.609375 15.53125 22.484375 10.953125 
Q 26.375 6.390625 33.015625 6.390625 
Q 39.65625 6.390625 43.53125 10.953125 
Q 47.40625 15.53125 47.40625 23.390625 
Q 47.40625 31.296875 43.53125 35.828125 
Q 39.65625 40.375 33.015625 40.375 
z
M 52.59375 71.296875 
L 52.59375 62.3125 
Q 48.875 64.0625 45.09375 64.984375 
Q 41.3125 65.921875 37.59375 65.921875 
Q 27.828125 65.921875 22.671875 59.328125 
Q 17.53125 52.734375 16.796875 39.40625 
Q 19.671875 43.65625 24.015625 45.921875 
Q 28.375 48.1875 33.59375 48.1875 
Q 44.578125 48.1875 50.953125 41.515625 
Q 57.328125 34.859375 57.328125 23.390625 
Q 57.328125 12.15625 50.6875 5.359375 
Q 44.046875 -1.421875 33.015625 -1.421875 
Q 20.359375 -1.421875 13.671875 8.265625 
Q 6.984375 17.96875 6.984375 36.375 
Q 6.984375 53.65625 15.1875 63.9375 
Q 23.390625 74.21875 37.203125 74.21875 
Q 40.921875 74.21875 44.703125 73.484375 
Q 48.484375 72.75 52.59375 71.296875 
z
" id="DejaVuSans-54"/>
        <path d="M 4.890625 31.390625 
L 31.203125 31.390625 
L 31.203125 23.390625 
L 4.890625 23.390625 
z
" id="DejaVuSans-45"/>
        <path d="M 8.203125 72.90625 
L 55.078125 72.90625 
L 55.078125 68.703125 
L 28.609375 0 
L 18.3125 0 
L 43.21875 64.59375 
L 8.203125 64.59375 
z
" id="DejaVuSans-55"/>
       </defs>
       <use xlink:href="#DejaVuSans-50"/>
       <use x="63.623047" xlink:href="#DejaVuSans-48"/>
       <use x="127.246094" xlink:href="#DejaVuSans-49"/>
       <use x="190.869141" xlink:href="#DejaVuSans-54"/>
       <use x="254.492188" xlink:href="#DejaVuSans-45"/>
       <use x="290.576172" xlink:href="#DejaVuSans-48"/>
       <use x="354.199219" xlink:href="#DejaVuSans-55"/>
      </g>
     </g>
    </g>
    <g id="xtick_2">
     <g id="line2d_2">
      <g>
       <use style="stroke:#000000;stroke-width:0.8;" x="109.742519" xlink:href="#md4fe879748" y="252"/>
      </g>
     </g>
     <g id="text_2">
      <!-- 2016-10 -->
      <g transform="translate(96.921236 293.917817)rotate(-45)scale(0.1 -0.1)">
       <use xlink:href="#DejaVuSans-50"/>
       <use x="63.623047" xlink:href="#DejaVuSans-48"/>
       <use x="127.246094" xlink:href="#DejaVuSans-49"/>
       <use x="190.869141" xlink:href="#DejaVuSans-54"/>
       <use x="254.492188" xlink:href="#DejaVuSans-45"/>
       <use x="290.576172" xlink:href="#DejaVuSans-49"/>
       <use x="354.199219" xlink:href="#DejaVuSans-48"/>
      </g>
     </g>
    </g>
    <g id="xtick_3">
     <g id="line2d_3">
      <g>
       <use style="stroke:#000000;stroke-width:0.8;" x="149.404636" xlink:href="#md4fe879748" y="252"/>
      </g>
     </g>
     <g id="text_3">
      <!-- 2017-01 -->
      <g transform="translate(136.583353 293.917817)rotate(-45)scale(0.1 -0.1)">
       <use xlink:href="#DejaVuSans-50"/>
       <use x="63.623047" xlink:href="#DejaVuSans-48"/>
       <use x="127.246094" xlink:href="#DejaVuSans-49"/>
       <use x="190.869141" xlink:href="#DejaVuSans-55"/>
       <use x="254.492188" xlink:href="#DejaVuSans-45"/>
       <use x="290.576172" xlink:href="#DejaVuSans-48"/>
       <use x="354.199219" xlink:href="#DejaVuSans-49"/>
      </g>
     </g>
    </g>
    <g id="xtick_4">
     <g id="line2d_4">
      <g>
       <use style="stroke:#000000;stroke-width:0.8;" x="188.204533" xlink:href="#md4fe879748" y="252"/>
      </g>
     </g>
     <g id="text_4">
      <!-- 2017-04 -->
      <g transform="translate(175.38325 293.917817)rotate(-45)scale(0.1 -0.1)">
       <defs>
        <path d="M 37.796875 64.3125 
L 12.890625 25.390625 
L 37.796875 25.390625 
z
M 35.203125 72.90625 
L 47.609375 72.90625 
L 47.609375 25.390625 
L 58.015625 25.390625 
L 58.015625 17.1875 
L 47.609375 17.1875 
L 47.609375 0 
L 37.796875 0 
L 37.796875 17.1875 
L 4.890625 17.1875 
L 4.890625 26.703125 
z
" id="DejaVuSans-52"/>
       </defs>
       <use xlink:href="#DejaVuSans-50"/>
       <use x="63.623047" xlink:href="#DejaVuSans-48"/>
       <use x="127.246094" xlink:href="#DejaVuSans-49"/>
       <use x="190.869141" xlink:href="#DejaVuSans-55"/>
       <use x="254.492188" xlink:href="#DejaVuSans-45"/>
       <use x="290.576172" xlink:href="#DejaVuSans-48"/>
       <use x="354.199219" xlink:href="#DejaVuSans-52"/>
      </g>
     </g>
    </g>
    <g id="xtick_5">
     <g id="line2d_5">
      <g>
       <use style="stroke:#000000;stroke-width:0.8;" x="227.43554" xlink:href="#md4fe879748" y="252"/>
      </g>
     </g>
     <g id="text_5">
      <!-- 2017-07 -->
      <g transform="translate(214.614257 293.917817)rotate(-45)scale(0.1 -0.1)">
       <use xlink:href="#DejaVuSans-50"/>
       <use x="63.623047" xlink:href="#DejaVuSans-48"/>
       <use x="127.246094" xlink:href="#DejaVuSans-49"/>
       <use x="190.869141" xlink:href="#DejaVuSans-55"/>
       <use x="254.492188" xlink:href="#DejaVuSans-45"/>
       <use x="290.576172" xlink:href="#DejaVuSans-48"/>
       <use x="354.199219" xlink:href="#DejaVuSans-55"/>
      </g>
     </g>
    </g>
    <g id="xtick_6">
     <g id="line2d_6">
      <g>
       <use style="stroke:#000000;stroke-width:0.8;" x="267.097656" xlink:href="#md4fe879748" y="252"/>
      </g>
     </g>
     <g id="text_6">
      <!-- 2017-10 -->
      <g transform="translate(254.276374 293.917817)rotate(-45)scale(0.1 -0.1)">
       <use xlink:href="#DejaVuSans-50"/>
       <use x="63.623047" xlink:href="#DejaVuSans-48"/>
       <use x="127.246094" xlink:href="#DejaVuSans-49"/>
       <use x="190.869141" xlink:href="#DejaVuSans-55"/>
       <use x="254.492188" xlink:href="#DejaVuSans-45"/>
       <use x="290.576172" xlink:href="#DejaVuSans-49"/>
       <use x="354.199219" xlink:href="#DejaVuSans-48"/>
      </g>
     </g>
    </g>
    <g id="xtick_7">
     <g id="line2d_7">
      <g>
       <use style="stroke:#000000;stroke-width:0.8;" x="306.759773" xlink:href="#md4fe879748" y="252"/>
      </g>
     </g>
     <g id="text_7">
      <!-- 2018-01 -->
      <g transform="translate(293.938491 293.917817)rotate(-45)scale(0.1 -0.1)">
       <defs>
        <path d="M 31.78125 34.625 
Q 24.75 34.625 20.71875 30.859375 
Q 16.703125 27.09375 16.703125 20.515625 
Q 16.703125 13.921875 20.71875 10.15625 
Q 24.75 6.390625 31.78125 6.390625 
Q 38.8125 6.390625 42.859375 10.171875 
Q 46.921875 13.96875 46.921875 20.515625 
Q 46.921875 27.09375 42.890625 30.859375 
Q 38.875 34.625 31.78125 34.625 
z
M 21.921875 38.8125 
Q 15.578125 40.375 12.03125 44.71875 
Q 8.5 49.078125 8.5 55.328125 
Q 8.5 64.0625 14.71875 69.140625 
Q 20.953125 74.21875 31.78125 74.21875 
Q 42.671875 74.21875 48.875 69.140625 
Q 55.078125 64.0625 55.078125 55.328125 
Q 55.078125 49.078125 51.53125 44.71875 
Q 48 40.375 41.703125 38.8125 
Q 48.828125 37.15625 52.796875 32.3125 
Q 56.78125 27.484375 56.78125 20.515625 
Q 56.78125 9.90625 50.3125 4.234375 
Q 43.84375 -1.421875 31.78125 -1.421875 
Q 19.734375 -1.421875 13.25 4.234375 
Q 6.78125 9.90625 6.78125 20.515625 
Q 6.78125 27.484375 10.78125 32.3125 
Q 14.796875 37.15625 21.921875 38.8125 
z
M 18.3125 54.390625 
Q 18.3125 48.734375 21.84375 45.5625 
Q 25.390625 42.390625 31.78125 42.390625 
Q 38.140625 42.390625 41.71875 45.5625 
Q 45.3125 48.734375 45.3125 54.390625 
Q 45.3125 60.0625 41.71875 63.234375 
Q 38.140625 66.40625 31.78125 66.40625 
Q 25.390625 66.40625 21.84375 63.234375 
Q 18.3125 60.0625 18.3125 54.390625 
z
" id="DejaVuSans-56"/>
       </defs>
       <use xlink:href="#DejaVuSans-50"/>
       <use x="63.623047" xlink:href="#DejaVuSans-48"/>
       <use x="127.246094" xlink:href="#DejaVuSans-49"/>
       <use x="190.869141" xlink:href="#DejaVuSans-56"/>
       <use x="254.492188" xlink:href="#DejaVuSans-45"/>
       <use x="290.576172" xlink:href="#DejaVuSans-48"/>
       <use x="354.199219" xlink:href="#DejaVuSans-49"/>
      </g>
     </g>
    </g>
    <g id="xtick_8">
     <g id="line2d_8">
      <g>
       <use style="stroke:#000000;stroke-width:0.8;" x="345.55967" xlink:href="#md4fe879748" y="252"/>
      </g>
     </g>
     <g id="text_8">
      <!-- 2018-04 -->
      <g transform="translate(332.738388 293.917817)rotate(-45)scale(0.1 -0.1)">
       <use xlink:href="#DejaVuSans-50"/>
       <use x="63.623047" xlink:href="#DejaVuSans-48"/>
       <use x="127.246094" xlink:href="#DejaVuSans-49"/>
       <use x="190.869141" xlink:href="#DejaVuSans-56"/>
       <use x="254.492188" xlink:href="#DejaVuSans-45"/>
       <use x="290.576172" xlink:href="#DejaVuSans-48"/>
       <use x="354.199219" xlink:href="#DejaVuSans-52"/>
      </g>
     </g>
    </g>
    <g id="xtick_9">
     <g id="line2d_9">
      <g>
       <use style="stroke:#000000;stroke-width:0.8;" x="384.790677" xlink:href="#md4fe879748" y="252"/>
      </g>
     </g>
     <g id="text_9">
      <!-- 2018-07 -->
      <g transform="translate(371.969395 293.917817)rotate(-45)scale(0.1 -0.1)">
       <use xlink:href="#DejaVuSans-50"/>
       <use x="63.623047" xlink:href="#DejaVuSans-48"/>
       <use x="127.246094" xlink:href="#DejaVuSans-49"/>
       <use x="190.869141" xlink:href="#DejaVuSans-56"/>
       <use x="254.492188" xlink:href="#DejaVuSans-45"/>
       <use x="290.576172" xlink:href="#DejaVuSans-48"/>
       <use x="354.199219" xlink:href="#DejaVuSans-55"/>
      </g>
     </g>
    </g>
   </g>
   <g id="matplotlib.axis_2">
    <g id="ytick_1">
     <g id="line2d_10">
      <defs>
       <path d="M 0 0 
L -3.5 0 
" id="me439898a43" style="stroke:#000000;stroke-width:0.8;"/>
      </defs>
      <g>
       <use style="stroke:#000000;stroke-width:0.8;" x="54" xlink:href="#me439898a43" y="222.505052"/>
      </g>
     </g>
     <g id="text_10">
      <!-- 5 -->
      <g transform="translate(40.6375 226.304271)scale(0.1 -0.1)">
       <defs>
        <path d="M 10.796875 72.90625 
L 49.515625 72.90625 
L 49.515625 64.59375 
L 19.828125 64.59375 
L 19.828125 46.734375 
Q 21.96875 47.46875 24.109375 47.828125 
Q 26.265625 48.1875 28.421875 48.1875 
Q 40.625 48.1875 47.75 41.5 
Q 54.890625 34.8125 54.890625 23.390625 
Q 54.890625 11.625 47.5625 5.09375 
Q 40.234375 -1.421875 26.90625 -1.421875 
Q 22.3125 -1.421875 17.546875 -0.640625 
Q 12.796875 0.140625 7.71875 1.703125 
L 7.71875 11.625 
Q 12.109375 9.234375 16.796875 8.0625 
Q 21.484375 6.890625 26.703125 6.890625 
Q 35.15625 6.890625 40.078125 11.328125 
Q 45.015625 15.765625 45.015625 23.390625 
Q 45.015625 31 40.078125 35.4375 
Q 35.15625 39.890625 26.703125 39.890625 
Q 22.75 39.890625 18.8125 39.015625 
Q 14.890625 38.140625 10.796875 36.28125 
z
" id="DejaVuSans-53"/>
       </defs>
       <use xlink:href="#DejaVuSans-53"/>
      </g>
     </g>
    </g>
    <g id="ytick_2">
     <g id="line2d_11">
      <g>
       <use style="stroke:#000000;stroke-width:0.8;" x="54" xlink:href="#me439898a43" y="189.321784"/>
      </g>
     </g>
     <g id="text_11">
      <!-- 10 -->
      <g transform="translate(34.275 193.121003)scale(0.1 -0.1)">
       <use xlink:href="#DejaVuSans-49"/>
       <use x="63.623047" xlink:href="#DejaVuSans-48"/>
      </g>
     </g>
    </g>
    <g id="ytick_3">
     <g id="line2d_12">
      <g>
       <use style="stroke:#000000;stroke-width:0.8;" x="54" xlink:href="#me439898a43" y="156.138516"/>
      </g>
     </g>
     <g id="text_12">
      <!-- 15 -->
      <g transform="translate(34.275 159.937735)scale(0.1 -0.1)">
       <use xlink:href="#DejaVuSans-49"/>
       <use x="63.623047" xlink:href="#DejaVuSans-53"/>
      </g>
     </g>
    </g>
    <g id="ytick_4">
     <g id="line2d_13">
      <g>
       <use style="stroke:#000000;stroke-width:0.8;" x="54" xlink:href="#me439898a43" y="122.955248"/>
      </g>
     </g>
     <g id="text_13">
      <!-- 20 -->
      <g transform="translate(34.275 126.754467)scale(0.1 -0.1)">
       <use xlink:href="#DejaVuSans-50"/>
       <use x="63.623047" xlink:href="#DejaVuSans-48"/>
      </g>
     </g>
    </g>
    <g id="ytick_5">
     <g id="line2d_14">
      <g>
       <use style="stroke:#000000;stroke-width:0.8;" x="54" xlink:href="#me439898a43" y="89.77198"/>
      </g>
     </g>
     <g id="text_14">
      <!-- 25 -->
      <g transform="translate(34.275 93.571199)scale(0.1 -0.1)">
       <use xlink:href="#DejaVuSans-50"/>
       <use x="63.623047" xlink:href="#DejaVuSans-53"/>
      </g>
     </g>
    </g>
    <g id="ytick_6">
     <g id="line2d_15">
      <g>
       <use style="stroke:#000000;stroke-width:0.8;" x="54" xlink:href="#me439898a43" y="56.588712"/>
      </g>
     </g>
     <g id="text_15">
      <!-- 30 -->
      <g transform="translate(34.275 60.387931)scale(0.1 -0.1)">
       <defs>
        <path d="M 40.578125 39.3125 
Q 47.65625 37.796875 51.625 33 
Q 55.609375 28.21875 55.609375 21.1875 
Q 55.609375 10.40625 48.1875 4.484375 
Q 40.765625 -1.421875 27.09375 -1.421875 
Q 22.515625 -1.421875 17.65625 -0.515625 
Q 12.796875 0.390625 7.625 2.203125 
L 7.625 11.71875 
Q 11.71875 9.328125 16.59375 8.109375 
Q 21.484375 6.890625 26.8125 6.890625 
Q 36.078125 6.890625 40.9375 10.546875 
Q 45.796875 14.203125 45.796875 21.1875 
Q 45.796875 27.640625 41.28125 31.265625 
Q 36.765625 34.90625 28.71875 34.90625 
L 20.21875 34.90625 
L 20.21875 43.015625 
L 29.109375 43.015625 
Q 36.375 43.015625 40.234375 45.921875 
Q 44.09375 48.828125 44.09375 54.296875 
Q 44.09375 59.90625 40.109375 62.90625 
Q 36.140625 65.921875 28.71875 65.921875 
Q 24.65625 65.921875 20.015625 65.03125 
Q 15.375 64.15625 9.8125 62.3125 
L 9.8125 71.09375 
Q 15.4375 72.65625 20.34375 73.4375 
Q 25.25 74.21875 29.59375 74.21875 
Q 40.828125 74.21875 47.359375 69.109375 
Q 53.90625 64.015625 53.90625 55.328125 
Q 53.90625 49.265625 50.4375 45.09375 
Q 46.96875 40.921875 40.578125 39.3125 
z
" id="DejaVuSans-51"/>
       </defs>
       <use xlink:href="#DejaVuSans-51"/>
       <use x="63.623047" xlink:href="#DejaVuSans-48"/>
      </g>
     </g>
    </g>
   </g>
   <g id="line2d_16">
    <path clip-path="url(#p092d2a623e)" d="M 69.218182 194.033808 
L 69.649292 233.256431 
L 70.080402 235.446527 
L 70.511512 232.924598 
L 70.942622 235.38016 
L 71.373732 208.966279 
L 71.804842 235.313794 
L 72.235952 208.634446 
L 72.667062 230.137204 
L 73.098172 209.99496 
L 73.529281 178.504039 
L 73.960391 227.748009 
L 74.391501 229.008973 
L 74.822611 183.746995 
L 75.253721 189.388151 
L 75.684831 217.992128 
L 76.115941 203.258757 
L 76.547051 223.367817 
L 76.978161 223.102351 
L 77.409271 168.283592 
L 77.840381 170.871887 
L 78.271491 205.714319 
L 78.702601 170.075489 
L 79.133711 209.099012 
L 79.564821 227.349809 
L 79.995931 229.473539 
L 80.427041 229.008973 
L 80.858151 229.805371 
L 81.289261 229.739005 
L 81.720371 226.95161 
L 82.151481 229.208072 
L 82.582591 228.809873 
L 83.013701 209.563578 
L 83.444811 141.736978 
L 83.875921 216.332964 
L 84.307031 211.156375 
L 84.738141 228.67714 
L 85.169251 203.457856 
L 85.600361 227.681642 
L 86.031471 200.537729 
L 86.46258 206.577084 
L 86.89369 230.269937 
L 87.3248 225.491546 
L 87.75591 229.739005 
L 88.18702 228.146208 
L 88.61813 229.739005 
L 89.48035 225.026981 
L 89.91146 228.079841 
L 90.34257 210.29361 
L 90.77368 163.173369 
L 91.20479 210.957275 
L 91.6359 228.345307 
L 92.06701 229.473539 
L 92.49812 190.715482 
L 93.36034 208.103514 
L 93.79145 181.755999 
L 94.22256 200.13953 
L 94.65367 196.423004 
L 95.08478 228.743507 
L 95.51589 198.347633 
L 95.947 198.480366 
L 96.37811 181.623266 
L 96.80922 214.142869 
L 97.24033 228.013475 
L 97.67144 205.581586 
L 98.10255 229.805371 
L 98.53366 227.880742 
L 98.96477 224.761514 
L 99.395879 230.40267 
L 99.826989 230.40267 
L 100.258099 228.411674 
L 100.689209 229.672638 
L 101.120319 229.539905 
L 101.551429 202.528725 
L 101.982539 183.348796 
L 102.413649 214.474701 
L 102.844759 208.302614 
L 103.275869 213.34647 
L 103.706979 228.146208 
L 104.138089 166.624429 
L 104.569199 135.830356 
L 105.000309 180.495035 
L 105.431419 179.499537 
L 105.862529 179.565904 
L 106.293639 193.901075 
L 106.724749 146.847201 
L 107.155859 230.800869 
L 107.586969 230.336304 
L 108.018079 208.634446 
L 108.449189 198.148534 
L 108.880299 207.638948 
L 109.311409 209.430845 
L 109.742519 228.610774 
L 110.173629 230.933602 
L 110.604739 189.653617 
L 111.035849 186.799856 
L 111.466959 185.207059 
L 111.898069 193.104677 
L 112.329178 192.241912 
L 112.760288 178.703139 
L 113.191398 229.539905 
L 113.622508 228.610774 
L 114.053618 215.403833 
L 114.484728 215.868399 
L 114.915838 179.167704 
L 115.346948 214.474701 
L 115.778058 212.085506 
L 116.209168 213.280104 
L 116.640278 226.553411 
L 117.071388 209.364478 
L 117.502498 214.740168 
L 117.933608 195.892071 
L 118.364718 212.085506 
L 118.795828 212.483705 
L 119.226938 230.469037 
L 119.658048 216.598431 
L 120.089158 183.415163 
L 120.520268 186.998956 
L 120.951378 211.82004 
L 121.382488 229.672638 
L 121.813598 230.60177 
L 122.244708 229.274439 
L 122.675818 225.624279 
L 123.106928 164.5007 
L 123.538038 194.96294 
L 123.969148 198.347633 
L 124.400258 230.070837 
L 124.831367 230.070837 
L 125.262477 229.539905 
L 125.693587 199.210398 
L 126.124697 192.308278 
L 126.555807 197.153036 
L 126.986917 213.943769 
L 127.418027 216.532064 
L 127.849137 230.20357 
L 128.280247 228.67714 
L 128.711357 188.326286 
L 129.142467 195.294773 
L 129.573577 198.546733 
L 130.004687 203.59059 
L 130.435797 206.245251 
L 130.866907 210.957275 
L 131.298017 230.867236 
L 131.729127 198.51355 
L 132.160237 193.43651 
L 132.591347 204.519721 
L 133.022457 188.724485 
L 133.453567 179.698637 
L 133.884677 217.195729 
L 134.315787 209.231745 
L 134.746897 136.560388 
L 135.178007 206.975283 
L 135.609117 170.407322 
L 136.040227 187.861721 
L 136.471337 198.480366 
L 136.902447 195.029306 
L 137.333557 217.195729 
L 137.764666 145.188038 
L 138.195776 96.541367 
L 138.626886 186.866222 
L 139.489106 108.420977 
L 139.920216 95.479502 
L 140.351326 108.75281 
L 140.782436 114.261232 
L 141.213546 169.146357 
L 141.644656 160.319608 
L 142.075766 134.768492 
L 142.506876 160.319608 
L 142.937986 94.94857 
L 143.369096 60.437972 
L 143.800206 229.739005 
L 144.231316 230.40267 
L 144.662426 77.095972 
L 145.093536 193.502876 
L 145.524646 229.672638 
L 145.955756 229.672638 
L 146.386866 229.075339 
L 146.817976 225.624279 
L 147.680196 120.167854 
L 148.111306 228.345307 
L 148.973526 209.961777 
L 149.404636 205.913418 
L 149.835746 85.789988 
L 150.266856 121.096985 
L 150.697965 139.347783 
L 151.129075 181.3578 
L 151.560185 132.976595 
L 151.991295 44.443636 
L 152.422405 205.515219 
L 152.853515 125.211711 
L 153.284625 169.146357 
L 153.715735 121.096985 
L 154.146845 148.108165 
L 154.577955 164.699799 
L 155.009065 93.687606 
L 155.440175 185.273426 
L 155.871285 173.924748 
L 156.302395 201.46686 
L 157.164615 142.599743 
L 157.595725 195.692972 
L 158.026835 172.862883 
L 158.457945 103.310754 
L 158.889055 140.343281 
L 159.320165 204.453354 
L 159.751275 91.298411 
L 160.182385 199.608597 
L 160.613495 197.219402 
L 161.044605 181.888732 
L 161.475715 97.536865 
L 161.906825 178.902238 
L 162.337935 193.171043 
L 162.769045 155.673951 
L 163.200155 172.862883 
L 163.631264 143.661608 
L 164.062374 98.532363 
L 164.493484 230.469037 
L 165.355704 111.872037 
L 165.786814 139.414149 
L 166.217924 205.183386 
L 166.649034 160.253242 
L 167.080144 176.18121 
L 167.511254 228.942606 
L 167.942364 190.516382 
L 168.373474 218.456694 
L 169.235694 230.40267 
L 169.666804 181.225067 
L 170.097914 198.082167 
L 170.529024 229.473539 
L 170.960134 202.064159 
L 171.391244 207.240749 
L 171.822354 113.597567 
L 172.253464 174.190214 
L 172.684574 210.19406 
L 173.115684 227.017977 
L 173.546794 212.151873 
L 173.977904 184.742493 
L 174.409014 149.767329 
L 174.840124 139.745982 
L 175.271234 156.669449 
L 176.133454 230.336304 
L 176.564563 229.340805 
L 176.995673 146.515369 
L 177.426783 183.680629 
L 177.857893 179.234071 
L 178.289003 126.339942 
L 178.720113 207.373482 
L 179.151223 230.668136 
L 179.582333 230.535403 
L 180.013443 148.307265 
L 180.444553 142.400643 
L 180.875663 176.844876 
L 181.306773 177.90674 
L 181.737883 214.872901 
L 182.168993 174.422497 
L 182.600103 191.31278 
L 183.031213 183.016963 
L 183.462323 160.983273 
L 183.893433 204.519721 
L 184.324543 190.184549 
L 184.755653 204.586088 
L 185.186763 226.221578 
L 186.048983 176.579409 
L 186.480093 199.409498 
L 186.911203 184.145194 
L 187.342313 200.073163 
L 187.773423 209.032645 
L 188.204533 230.999969 
L 188.635643 230.800869 
L 189.066753 227.017977 
L 189.497862 148.041799 
L 189.928972 199.210398 
L 190.360082 210.890908 
L 190.791192 229.274439 
L 191.222302 230.535403 
L 191.653412 228.212574 
L 192.084522 230.070837 
L 192.515632 227.947108 
L 192.946742 228.478041 
L 193.377852 229.340805 
L 193.808962 172.92925 
L 194.240072 228.478041 
L 195.102292 230.535403 
L 195.533402 228.743507 
L 195.964512 229.606272 
L 196.395622 228.67714 
L 196.826732 229.340805 
L 197.257842 228.87624 
L 197.688952 229.141706 
L 198.120062 180.694135 
L 198.551172 166.02713 
L 198.982282 184.344294 
L 199.413392 214.541068 
L 199.844502 227.283443 
L 200.275612 152.090158 
L 200.706722 228.87624 
L 201.137832 198.613099 
L 202.000052 218.124861 
L 202.431161 202.064159 
L 202.862271 205.847052 
L 203.293381 228.278941 
L 203.724491 230.40267 
L 204.155601 205.847052 
L 204.586711 173.460182 
L 205.017821 208.236247 
L 205.448931 196.68847 
L 205.880041 188.25992 
L 206.311151 230.535403 
L 206.742261 184.676127 
L 207.173371 192.042812 
L 207.604481 204.91792 
L 208.035591 189.321784 
L 208.466701 185.007959 
L 209.328921 230.20357 
L 209.760031 228.146208 
L 210.191141 228.079841 
L 210.622251 208.634446 
L 211.053361 199.774514 
L 211.484471 182.685131 
L 211.915581 203.988789 
L 212.346691 177.641274 
L 212.777801 197.352135 
L 213.208911 200.338629 
L 213.640021 172.531051 
L 214.071131 162.642437 
L 214.502241 209.165379 
L 214.933351 209.762677 
L 215.36446 230.60177 
L 215.79557 228.743507 
L 216.22668 165.761664 
L 216.65779 194.96294 
L 217.0889 192.905577 
L 217.52001 172.398318 
L 217.95112 208.037147 
L 218.81334 164.633433 
L 219.24445 183.149696 
L 219.67556 187.596254 
L 220.10667 172.464684 
L 220.96889 229.141706 
L 221.4 228.87624 
L 221.83111 231.066335 
L 222.26222 227.615276 
L 222.69333 206.975283 
L 223.12444 209.89541 
L 223.55555 211.82004 
L 223.98666 197.551235 
L 224.41777 203.19239 
L 224.84888 230.070837 
L 225.27999 209.165379 
L 225.7111 201.931426 
L 226.14221 207.838048 
L 226.57332 205.714319 
L 227.00443 188.989952 
L 227.43554 227.548909 
L 227.866649 228.345307 
L 228.297759 228.146208 
L 228.728869 218.257594 
L 229.159979 212.01914 
L 229.591089 167.553561 
L 230.022199 211.023642 
L 230.453309 228.411674 
L 230.884419 220.115857 
L 231.315529 209.364478 
L 231.746639 208.634446 
L 232.177749 213.014638 
L 232.608859 221.177722 
L 233.039969 199.144032 
L 233.471079 199.409498 
L 233.902189 227.482542 
L 234.333299 169.544557 
L 234.764409 196.48937 
L 235.195519 208.767179 
L 235.626629 161.514206 
L 236.057739 199.74133 
L 236.488849 225.557913 
L 236.919959 229.739005 
L 237.351069 229.208072 
L 237.782179 227.681642 
L 238.213289 229.208072 
L 238.644399 227.283443 
L 239.075509 229.008973 
L 239.506619 228.013475 
L 239.937729 229.008973 
L 240.368839 218.191227 
L 240.799948 192.042812 
L 241.231058 195.095673 
L 241.662168 210.957275 
L 242.093278 203.126024 
L 242.524388 139.281416 
L 242.955498 212.350972 
L 243.386608 176.778509 
L 243.817718 198.745832 
L 244.248828 180.561402 
L 244.679938 198.679466 
L 245.111048 205.847052 
L 245.542158 228.743507 
L 245.973268 229.307622 
L 246.404378 228.212574 
L 246.835488 228.079841 
L 247.266598 228.743507 
L 247.697708 227.947108 
L 248.128818 229.440355 
L 248.559928 229.075339 
L 248.991038 204.851554 
L 249.422148 209.032645 
L 249.853258 219.120359 
L 250.284368 218.390327 
L 250.715478 227.217076 
L 251.577698 194.232908 
L 252.008808 224.363315 
L 252.871028 193.901075 
L 253.302138 217.262096 
L 253.733247 218.72216 
L 254.595467 200.13953 
L 255.026577 202.462358 
L 255.457687 181.490533 
L 255.888797 206.709817 
L 256.319907 207.506215 
L 256.751017 181.092334 
L 257.182127 213.678303 
L 257.613237 193.303776 
L 258.044347 193.635609 
L 258.475457 208.634446 
L 258.906567 195.493872 
L 259.337677 203.59059 
L 259.768787 186.998956 
L 260.199897 207.970781 
L 260.631007 209.829044 
L 261.062117 228.146208 
L 261.493227 192.706478 
L 262.355447 196.953936 
L 262.786557 209.364478 
L 263.217667 212.881905 
L 263.648777 213.74467 
L 264.079887 228.809873 
L 264.510997 193.834709 
L 264.942107 193.43651 
L 265.373217 211.289108 
L 265.804327 183.879728 
L 266.235437 212.682805 
L 266.666546 175.052979 
L 267.097656 204.652454 
L 267.528766 204.586088 
L 267.959876 183.415163 
L 268.390986 212.881905 
L 268.822096 205.448853 
L 269.253206 208.103514 
L 269.684316 190.649115 
L 270.546536 230.469037 
L 270.977646 199.674964 
L 271.408756 188.658119 
L 271.839866 200.13953 
L 272.270976 208.302614 
L 272.702086 229.805371 
L 273.133196 225.093347 
L 273.564306 185.273426 
L 273.995416 185.804358 
L 274.857636 215.802032 
L 275.288746 215.403833 
L 275.719856 203.656956 
L 276.150966 129.326436 
L 276.582076 184.145194 
L 277.013186 173.592915 
L 277.444296 198.745832 
L 277.875406 183.149696 
L 278.306516 174.123848 
L 278.737626 152.62109 
L 279.168736 203.258757 
L 279.599845 209.829044 
L 280.030955 227.283443 
L 280.462065 203.656956 
L 280.893175 216.598431 
L 281.324285 188.525386 
L 281.755395 177.508541 
L 282.186505 209.696311 
L 282.617615 190.450015 
L 283.048725 206.377984 
L 283.479835 212.417339 
L 283.910945 141.869711 
L 284.342055 204.519721 
L 285.635385 242.116364 
L 286.497605 181.623266 
L 287.359825 209.829044 
L 287.790935 228.67714 
L 288.222045 90.302913 
L 288.653155 175.119346 
L 289.515375 202.926924 
L 290.377595 213.479203 
L 290.808705 226.221578 
L 291.239815 139.945082 
L 291.670925 208.767179 
L 292.102035 193.768342 
L 292.533144 151.559225 
L 292.964254 207.439849 
L 293.395364 205.913418 
L 293.826474 167.885393 
L 294.257584 226.619777 
L 294.688694 183.149696 
L 295.119804 188.459019 
L 295.550914 207.240749 
L 295.982024 194.432008 
L 296.413134 201.732327 
L 296.844244 162.177871 
L 297.275354 200.338629 
L 297.706464 172.862883 
L 298.137574 205.515219 
L 298.568684 189.58725 
L 298.999794 202.661458 
L 299.430904 199.608597 
L 299.862014 208.037147 
L 300.293124 227.349809 
L 300.724234 229.008973 
L 301.155344 162.708803 
L 301.586454 226.088845 
L 302.017564 164.965266 
L 302.448674 163.704301 
L 302.879784 229.672638 
L 303.742004 226.686144 
L 304.173114 228.544407 
L 304.604224 223.832383 
L 305.035334 183.481529 
L 305.466443 167.885393 
L 305.897553 228.013475 
L 306.328663 220.713156 
L 306.759773 227.349809 
L 307.190883 145.652604 
L 307.621993 167.619927 
L 308.053103 203.59059 
L 308.484213 206.975283 
L 308.915323 228.87624 
L 309.346433 226.354311 
L 309.777543 154.744819 
L 310.208653 190.250916 
L 310.639763 186.468023 
L 311.070873 192.971944 
L 311.501983 205.714319 
L 311.933093 228.146208 
L 312.364203 167.420827 
L 312.795313 168.349959 
L 313.226423 172.597417 
L 313.657533 205.714319 
L 314.088643 170.075489 
L 314.519753 205.714319 
L 314.950863 226.354311 
L 315.381973 219.983124 
L 315.813083 180.096836 
L 316.244193 173.792015 
L 316.675303 133.042962 
L 317.968633 225.823379 
L 318.399742 228.212574 
L 318.830852 166.22623 
L 319.261962 187.065322 
L 319.693072 189.454517 
L 320.124182 205.316119 
L 320.555292 162.310604 
L 320.986402 190.151366 
L 321.417512 228.67714 
L 321.848622 169.544557 
L 322.279732 201.732327 
L 322.710842 214.142869 
L 323.141952 132.976595 
L 323.573062 204.718821 
L 324.004172 228.212574 
L 324.435282 107.624579 
L 324.866392 227.681642 
L 325.297502 118.575057 
L 325.728612 187.994454 
L 326.159722 150.497361 
L 326.590832 206.577084 
L 327.021942 225.292447 
L 327.453052 230.004471 
L 327.884162 139.613249 
L 328.315272 145.785337 
L 328.746382 137.224054 
L 329.177492 138.883217 
L 329.608602 200.404996 
L 330.039712 228.146208 
L 330.470822 228.743507 
L 330.901931 143.064309 
L 331.333041 152.42199 
L 331.764151 156.07215 
L 332.195261 194.432008 
L 332.626371 205.382486 
L 333.057481 229.340805 
L 333.488591 226.354311 
L 333.919701 155.740317 
L 334.350811 121.428818 
L 334.781921 178.835872 
L 335.213031 163.969768 
L 335.644141 197.617601 
L 336.075251 200.272263 
L 336.506361 220.24859 
L 336.937471 141.471512 
L 337.368581 179.698637 
L 337.799691 188.525386 
L 338.230801 157.001281 
L 338.661911 201.002295 
L 339.093021 226.553411 
L 339.524131 226.752511 
L 339.955241 174.057481 
L 340.386351 183.547896 
L 340.817461 167.221728 
L 341.248571 166.22623 
L 341.679681 192.573745 
L 342.110791 226.95161 
L 342.541901 227.548909 
L 342.973011 188.658119 
L 343.404121 196.887569 
L 343.83523 125.41081 
L 344.26634 204.785187 
L 344.69745 228.212574 
L 345.12856 211.62094 
L 345.55967 203.922422 
L 345.99078 186.733489 
L 346.42189 154.943919 
L 346.853 203.524223 
L 347.28411 179.765003 
L 348.14633 227.615276 
L 348.57744 225.889746 
L 349.00855 205.714319 
L 349.43966 157.731313 
L 349.87077 206.245251 
L 350.30188 209.298112 
L 350.73299 208.037147 
L 351.1641 226.287945 
L 351.59521 226.95161 
L 352.02632 178.371306 
L 352.45743 202.130526 
L 352.88854 214.872901 
L 353.31965 198.31445 
L 353.75076 203.39149 
L 354.18187 199.807697 
L 354.61298 188.790852 
L 355.04409 182.552398 
L 355.4752 192.706478 
L 355.90631 209.762677 
L 356.33742 174.920246 
L 356.768529 210.625442 
L 357.199639 229.008973 
L 357.630749 226.287945 
L 358.061859 185.737991 
L 358.492969 208.767179 
L 358.924079 214.740168 
L 359.355189 183.415163 
L 360.217409 225.956112 
L 360.648519 227.947108 
L 361.079629 216.79753 
L 361.510739 156.934915 
L 361.941849 195.493872 
L 362.804069 224.695148 
L 363.235179 226.022479 
L 363.666289 122.557049 
L 364.097399 189.520884 
L 364.528509 199.608597 
L 364.959619 170.473688 
L 365.821839 204.386988 
L 366.252949 227.283443 
L 366.684059 184.941593 
L 367.115169 190.582748 
L 367.546279 177.176708 
L 367.977389 196.622103 
L 368.408499 175.052979 
L 368.839609 174.123848 
L 369.270719 216.532064 
L 369.701828 227.548909 
L 370.132938 227.748009 
L 370.564048 227.416176 
L 370.995158 226.818877 
L 371.426268 229.739005 
L 371.857378 227.349809 
L 372.288488 227.084343 
L 372.719598 144.988938 
L 373.150708 210.957275 
L 373.581818 204.91792 
L 373.581818 204.91792 
" style="fill:none;stroke:#000000;stroke-linecap:square;stroke-width:1.5;"/>
   </g>
   <g id="patch_3">
    <path d="M 54 252 
L 54 34.56 
" style="fill:none;stroke:#000000;stroke-linecap:square;stroke-linejoin:miter;stroke-width:0.8;"/>
   </g>
   <g id="patch_4">
    <path d="M 388.8 252 
L 388.8 34.56 
" style="fill:none;stroke:#000000;stroke-linecap:square;stroke-linejoin:miter;stroke-width:0.8;"/>
   </g>
   <g id="patch_5">
    <path d="M 54 252 
L 388.8 252 
" style="fill:none;stroke:#000000;stroke-linecap:square;stroke-linejoin:miter;stroke-width:0.8;"/>
   </g>
   <g id="patch_6">
    <path d="M 54 34.56 
L 388.8 34.56 
" style="fill:none;stroke:#000000;stroke-linecap:square;stroke-linejoin:miter;stroke-width:0.8;"/>
   </g>
   <g id="text_16">
    <!-- Soma Diária de Energia - Casa 22 -->
    <g transform="translate(120.413438 28.56)scale(0.12 -0.12)">
     <defs>
      <path d="M 53.515625 70.515625 
L 53.515625 60.890625 
Q 47.90625 63.578125 42.921875 64.890625 
Q 37.9375 66.21875 33.296875 66.21875 
Q 25.25 66.21875 20.875 63.09375 
Q 16.5 59.96875 16.5 54.203125 
Q 16.5 49.359375 19.40625 46.890625 
Q 22.3125 44.4375 30.421875 42.921875 
L 36.375 41.703125 
Q 47.40625 39.59375 52.65625 34.296875 
Q 57.90625 29 57.90625 20.125 
Q 57.90625 9.515625 50.796875 4.046875 
Q 43.703125 -1.421875 29.984375 -1.421875 
Q 24.8125 -1.421875 18.96875 -0.25 
Q 13.140625 0.921875 6.890625 3.21875 
L 6.890625 13.375 
Q 12.890625 10.015625 18.65625 8.296875 
Q 24.421875 6.59375 29.984375 6.59375 
Q 38.421875 6.59375 43.015625 9.90625 
Q 47.609375 13.234375 47.609375 19.390625 
Q 47.609375 24.75 44.3125 27.78125 
Q 41.015625 30.8125 33.5 32.328125 
L 27.484375 33.5 
Q 16.453125 35.6875 11.515625 40.375 
Q 6.59375 45.0625 6.59375 53.421875 
Q 6.59375 63.09375 13.40625 68.65625 
Q 20.21875 74.21875 32.171875 74.21875 
Q 37.3125 74.21875 42.625 73.28125 
Q 47.953125 72.359375 53.515625 70.515625 
z
" id="DejaVuSans-83"/>
      <path d="M 30.609375 48.390625 
Q 23.390625 48.390625 19.1875 42.75 
Q 14.984375 37.109375 14.984375 27.296875 
Q 14.984375 17.484375 19.15625 11.84375 
Q 23.34375 6.203125 30.609375 6.203125 
Q 37.796875 6.203125 41.984375 11.859375 
Q 46.1875 17.53125 46.1875 27.296875 
Q 46.1875 37.015625 41.984375 42.703125 
Q 37.796875 48.390625 30.609375 48.390625 
z
M 30.609375 56 
Q 42.328125 56 49.015625 48.375 
Q 55.71875 40.765625 55.71875 27.296875 
Q 55.71875 13.875 49.015625 6.21875 
Q 42.328125 -1.421875 30.609375 -1.421875 
Q 18.84375 -1.421875 12.171875 6.21875 
Q 5.515625 13.875 5.515625 27.296875 
Q 5.515625 40.765625 12.171875 48.375 
Q 18.84375 56 30.609375 56 
z
" id="DejaVuSans-111"/>
      <path d="M 52 44.1875 
Q 55.375 50.25 60.0625 53.125 
Q 64.75 56 71.09375 56 
Q 79.640625 56 84.28125 50.015625 
Q 88.921875 44.046875 88.921875 33.015625 
L 88.921875 0 
L 79.890625 0 
L 79.890625 32.71875 
Q 79.890625 40.578125 77.09375 44.375 
Q 74.3125 48.1875 68.609375 48.1875 
Q 61.625 48.1875 57.5625 43.546875 
Q 53.515625 38.921875 53.515625 30.90625 
L 53.515625 0 
L 44.484375 0 
L 44.484375 32.71875 
Q 44.484375 40.625 41.703125 44.40625 
Q 38.921875 48.1875 33.109375 48.1875 
Q 26.21875 48.1875 22.15625 43.53125 
Q 18.109375 38.875 18.109375 30.90625 
L 18.109375 0 
L 9.078125 0 
L 9.078125 54.6875 
L 18.109375 54.6875 
L 18.109375 46.1875 
Q 21.1875 51.21875 25.484375 53.609375 
Q 29.78125 56 35.6875 56 
Q 41.65625 56 45.828125 52.96875 
Q 50 49.953125 52 44.1875 
z
" id="DejaVuSans-109"/>
      <path d="M 34.28125 27.484375 
Q 23.390625 27.484375 19.1875 25 
Q 14.984375 22.515625 14.984375 16.5 
Q 14.984375 11.71875 18.140625 8.90625 
Q 21.296875 6.109375 26.703125 6.109375 
Q 34.1875 6.109375 38.703125 11.40625 
Q 43.21875 16.703125 43.21875 25.484375 
L 43.21875 27.484375 
z
M 52.203125 31.203125 
L 52.203125 0 
L 43.21875 0 
L 43.21875 8.296875 
Q 40.140625 3.328125 35.546875 0.953125 
Q 30.953125 -1.421875 24.3125 -1.421875 
Q 15.921875 -1.421875 10.953125 3.296875 
Q 6 8.015625 6 15.921875 
Q 6 25.140625 12.171875 29.828125 
Q 18.359375 34.515625 30.609375 34.515625 
L 43.21875 34.515625 
L 43.21875 35.40625 
Q 43.21875 41.609375 39.140625 45 
Q 35.0625 48.390625 27.6875 48.390625 
Q 23 48.390625 18.546875 47.265625 
Q 14.109375 46.140625 10.015625 43.890625 
L 10.015625 52.203125 
Q 14.9375 54.109375 19.578125 55.046875 
Q 24.21875 56 28.609375 56 
Q 40.484375 56 46.34375 49.84375 
Q 52.203125 43.703125 52.203125 31.203125 
z
" id="DejaVuSans-97"/>
      <path id="DejaVuSans-32"/>
      <path d="M 19.671875 64.796875 
L 19.671875 8.109375 
L 31.59375 8.109375 
Q 46.6875 8.109375 53.6875 14.9375 
Q 60.6875 21.78125 60.6875 36.53125 
Q 60.6875 51.171875 53.6875 57.984375 
Q 46.6875 64.796875 31.59375 64.796875 
z
M 9.8125 72.90625 
L 30.078125 72.90625 
Q 51.265625 72.90625 61.171875 64.09375 
Q 71.09375 55.28125 71.09375 36.53125 
Q 71.09375 17.671875 61.125 8.828125 
Q 51.171875 0 30.078125 0 
L 9.8125 0 
z
" id="DejaVuSans-68"/>
      <path d="M 9.421875 54.6875 
L 18.40625 54.6875 
L 18.40625 0 
L 9.421875 0 
z
M 9.421875 75.984375 
L 18.40625 75.984375 
L 18.40625 64.59375 
L 9.421875 64.59375 
z
" id="DejaVuSans-105"/>
      <path d="M 34.28125 27.484375 
Q 23.390625 27.484375 19.1875 25 
Q 14.984375 22.515625 14.984375 16.5 
Q 14.984375 11.71875 18.140625 8.90625 
Q 21.296875 6.109375 26.703125 6.109375 
Q 34.1875 6.109375 38.703125 11.40625 
Q 43.21875 16.703125 43.21875 25.484375 
L 43.21875 27.484375 
z
M 52.203125 31.203125 
L 52.203125 0 
L 43.21875 0 
L 43.21875 8.296875 
Q 40.140625 3.328125 35.546875 0.953125 
Q 30.953125 -1.421875 24.3125 -1.421875 
Q 15.921875 -1.421875 10.953125 3.296875 
Q 6 8.015625 6 15.921875 
Q 6 25.140625 12.171875 29.828125 
Q 18.359375 34.515625 30.609375 34.515625 
L 43.21875 34.515625 
L 43.21875 35.40625 
Q 43.21875 41.609375 39.140625 45 
Q 35.0625 48.390625 27.6875 48.390625 
Q 23 48.390625 18.546875 47.265625 
Q 14.109375 46.140625 10.015625 43.890625 
L 10.015625 52.203125 
Q 14.9375 54.109375 19.578125 55.046875 
Q 24.21875 56 28.609375 56 
Q 40.484375 56 46.34375 49.84375 
Q 52.203125 43.703125 52.203125 31.203125 
z
M 35.796875 79.984375 
L 45.515625 79.984375 
L 29.59375 61.625 
L 22.125 61.625 
z
" id="DejaVuSans-225"/>
      <path d="M 41.109375 46.296875 
Q 39.59375 47.171875 37.8125 47.578125 
Q 36.03125 48 33.890625 48 
Q 26.265625 48 22.1875 43.046875 
Q 18.109375 38.09375 18.109375 28.8125 
L 18.109375 0 
L 9.078125 0 
L 9.078125 54.6875 
L 18.109375 54.6875 
L 18.109375 46.1875 
Q 20.953125 51.171875 25.484375 53.578125 
Q 30.03125 56 36.53125 56 
Q 37.453125 56 38.578125 55.875 
Q 39.703125 55.765625 41.0625 55.515625 
z
" id="DejaVuSans-114"/>
      <path d="M 45.40625 46.390625 
L 45.40625 75.984375 
L 54.390625 75.984375 
L 54.390625 0 
L 45.40625 0 
L 45.40625 8.203125 
Q 42.578125 3.328125 38.25 0.953125 
Q 33.9375 -1.421875 27.875 -1.421875 
Q 17.96875 -1.421875 11.734375 6.484375 
Q 5.515625 14.40625 5.515625 27.296875 
Q 5.515625 40.1875 11.734375 48.09375 
Q 17.96875 56 27.875 56 
Q 33.9375 56 38.25 53.625 
Q 42.578125 51.265625 45.40625 46.390625 
z
M 14.796875 27.296875 
Q 14.796875 17.390625 18.875 11.75 
Q 22.953125 6.109375 30.078125 6.109375 
Q 37.203125 6.109375 41.296875 11.75 
Q 45.40625 17.390625 45.40625 27.296875 
Q 45.40625 37.203125 41.296875 42.84375 
Q 37.203125 48.484375 30.078125 48.484375 
Q 22.953125 48.484375 18.875 42.84375 
Q 14.796875 37.203125 14.796875 27.296875 
z
" id="DejaVuSans-100"/>
      <path d="M 56.203125 29.59375 
L 56.203125 25.203125 
L 14.890625 25.203125 
Q 15.484375 15.921875 20.484375 11.0625 
Q 25.484375 6.203125 34.421875 6.203125 
Q 39.59375 6.203125 44.453125 7.46875 
Q 49.3125 8.734375 54.109375 11.28125 
L 54.109375 2.78125 
Q 49.265625 0.734375 44.1875 -0.34375 
Q 39.109375 -1.421875 33.890625 -1.421875 
Q 20.796875 -1.421875 13.15625 6.1875 
Q 5.515625 13.8125 5.515625 26.8125 
Q 5.515625 40.234375 12.765625 48.109375 
Q 20.015625 56 32.328125 56 
Q 43.359375 56 49.78125 48.890625 
Q 56.203125 41.796875 56.203125 29.59375 
z
M 47.21875 32.234375 
Q 47.125 39.59375 43.09375 43.984375 
Q 39.0625 48.390625 32.421875 48.390625 
Q 24.90625 48.390625 20.390625 44.140625 
Q 15.875 39.890625 15.1875 32.171875 
z
" id="DejaVuSans-101"/>
      <path d="M 9.8125 72.90625 
L 55.90625 72.90625 
L 55.90625 64.59375 
L 19.671875 64.59375 
L 19.671875 43.015625 
L 54.390625 43.015625 
L 54.390625 34.71875 
L 19.671875 34.71875 
L 19.671875 8.296875 
L 56.78125 8.296875 
L 56.78125 0 
L 9.8125 0 
z
" id="DejaVuSans-69"/>
      <path d="M 54.890625 33.015625 
L 54.890625 0 
L 45.90625 0 
L 45.90625 32.71875 
Q 45.90625 40.484375 42.875 44.328125 
Q 39.84375 48.1875 33.796875 48.1875 
Q 26.515625 48.1875 22.3125 43.546875 
Q 18.109375 38.921875 18.109375 30.90625 
L 18.109375 0 
L 9.078125 0 
L 9.078125 54.6875 
L 18.109375 54.6875 
L 18.109375 46.1875 
Q 21.34375 51.125 25.703125 53.5625 
Q 30.078125 56 35.796875 56 
Q 45.21875 56 50.046875 50.171875 
Q 54.890625 44.34375 54.890625 33.015625 
z
" id="DejaVuSans-110"/>
      <path d="M 45.40625 27.984375 
Q 45.40625 37.75 41.375 43.109375 
Q 37.359375 48.484375 30.078125 48.484375 
Q 22.859375 48.484375 18.828125 43.109375 
Q 14.796875 37.75 14.796875 27.984375 
Q 14.796875 18.265625 18.828125 12.890625 
Q 22.859375 7.515625 30.078125 7.515625 
Q 37.359375 7.515625 41.375 12.890625 
Q 45.40625 18.265625 45.40625 27.984375 
z
M 54.390625 6.78125 
Q 54.390625 -7.171875 48.1875 -13.984375 
Q 42 -20.796875 29.203125 -20.796875 
Q 24.46875 -20.796875 20.265625 -20.09375 
Q 16.0625 -19.390625 12.109375 -17.921875 
L 12.109375 -9.1875 
Q 16.0625 -11.328125 19.921875 -12.34375 
Q 23.78125 -13.375 27.78125 -13.375 
Q 36.625 -13.375 41.015625 -8.765625 
Q 45.40625 -4.15625 45.40625 5.171875 
L 45.40625 9.625 
Q 42.625 4.78125 38.28125 2.390625 
Q 33.9375 0 27.875 0 
Q 17.828125 0 11.671875 7.65625 
Q 5.515625 15.328125 5.515625 27.984375 
Q 5.515625 40.671875 11.671875 48.328125 
Q 17.828125 56 27.875 56 
Q 33.9375 56 38.28125 53.609375 
Q 42.625 51.21875 45.40625 46.390625 
L 45.40625 54.6875 
L 54.390625 54.6875 
z
" id="DejaVuSans-103"/>
      <path d="M 64.40625 67.28125 
L 64.40625 56.890625 
Q 59.421875 61.53125 53.78125 63.8125 
Q 48.140625 66.109375 41.796875 66.109375 
Q 29.296875 66.109375 22.65625 58.46875 
Q 16.015625 50.828125 16.015625 36.375 
Q 16.015625 21.96875 22.65625 14.328125 
Q 29.296875 6.6875 41.796875 6.6875 
Q 48.140625 6.6875 53.78125 8.984375 
Q 59.421875 11.28125 64.40625 15.921875 
L 64.40625 5.609375 
Q 59.234375 2.09375 53.4375 0.328125 
Q 47.65625 -1.421875 41.21875 -1.421875 
Q 24.65625 -1.421875 15.125 8.703125 
Q 5.609375 18.84375 5.609375 36.375 
Q 5.609375 53.953125 15.125 64.078125 
Q 24.65625 74.21875 41.21875 74.21875 
Q 47.75 74.21875 53.53125 72.484375 
Q 59.328125 70.75 64.40625 67.28125 
z
" id="DejaVuSans-67"/>
      <path d="M 44.28125 53.078125 
L 44.28125 44.578125 
Q 40.484375 46.53125 36.375 47.5 
Q 32.28125 48.484375 27.875 48.484375 
Q 21.1875 48.484375 17.84375 46.4375 
Q 14.5 44.390625 14.5 40.28125 
Q 14.5 37.15625 16.890625 35.375 
Q 19.28125 33.59375 26.515625 31.984375 
L 29.59375 31.296875 
Q 39.15625 29.25 43.1875 25.515625 
Q 47.21875 21.78125 47.21875 15.09375 
Q 47.21875 7.46875 41.1875 3.015625 
Q 35.15625 -1.421875 24.609375 -1.421875 
Q 20.21875 -1.421875 15.453125 -0.5625 
Q 10.6875 0.296875 5.421875 2 
L 5.421875 11.28125 
Q 10.40625 8.6875 15.234375 7.390625 
Q 20.0625 6.109375 24.8125 6.109375 
Q 31.15625 6.109375 34.5625 8.28125 
Q 37.984375 10.453125 37.984375 14.40625 
Q 37.984375 18.0625 35.515625 20.015625 
Q 33.0625 21.96875 24.703125 23.78125 
L 21.578125 24.515625 
Q 13.234375 26.265625 9.515625 29.90625 
Q 5.8125 33.546875 5.8125 39.890625 
Q 5.8125 47.609375 11.28125 51.796875 
Q 16.75 56 26.8125 56 
Q 31.78125 56 36.171875 55.265625 
Q 40.578125 54.546875 44.28125 53.078125 
z
" id="DejaVuSans-115"/>
     </defs>
     <use xlink:href="#DejaVuSans-83"/>
     <use x="63.476562" xlink:href="#DejaVuSans-111"/>
     <use x="124.658203" xlink:href="#DejaVuSans-109"/>
     <use x="222.070312" xlink:href="#DejaVuSans-97"/>
     <use x="283.349609" xlink:href="#DejaVuSans-32"/>
     <use x="315.136719" xlink:href="#DejaVuSans-68"/>
     <use x="392.138672" xlink:href="#DejaVuSans-105"/>
     <use x="419.921875" xlink:href="#DejaVuSans-225"/>
     <use x="481.201172" xlink:href="#DejaVuSans-114"/>
     <use x="522.314453" xlink:href="#DejaVuSans-105"/>
     <use x="550.097656" xlink:href="#DejaVuSans-97"/>
     <use x="611.376953" xlink:href="#DejaVuSans-32"/>
     <use x="643.164062" xlink:href="#DejaVuSans-100"/>
     <use x="706.640625" xlink:href="#DejaVuSans-101"/>
     <use x="768.164062" xlink:href="#DejaVuSans-32"/>
     <use x="799.951172" xlink:href="#DejaVuSans-69"/>
     <use x="863.134766" xlink:href="#DejaVuSans-110"/>
     <use x="926.513672" xlink:href="#DejaVuSans-101"/>
     <use x="988.037109" xlink:href="#DejaVuSans-114"/>
     <use x="1027.400391" xlink:href="#DejaVuSans-103"/>
     <use x="1090.876953" xlink:href="#DejaVuSans-105"/>
     <use x="1118.660156" xlink:href="#DejaVuSans-97"/>
     <use x="1179.939453" xlink:href="#DejaVuSans-32"/>
     <use x="1211.726562" xlink:href="#DejaVuSans-45"/>
     <use x="1247.810547" xlink:href="#DejaVuSans-32"/>
     <use x="1279.597656" xlink:href="#DejaVuSans-67"/>
     <use x="1349.421875" xlink:href="#DejaVuSans-97"/>
     <use x="1410.701172" xlink:href="#DejaVuSans-115"/>
     <use x="1462.800781" xlink:href="#DejaVuSans-97"/>
     <use x="1524.080078" xlink:href="#DejaVuSans-32"/>
     <use x="1555.867188" xlink:href="#DejaVuSans-50"/>
     <use x="1619.490234" xlink:href="#DejaVuSans-50"/>
    </g>
   </g>
  </g>
 </g>
 <defs>
  <clipPath id="p092d2a623e">
   <rect height="217.44" width="334.8" x="54" y="34.56"/>
  </clipPath>
 </defs>
</svg>
