<?xml version="1.0" encoding="utf-8" standalone="no"?>
<!DOCTYPE svg PUBLIC "-//W3C//DTD SVG 1.1//EN"
  "http://www.w3.org/Graphics/SVG/1.1/DTD/svg11.dtd">
<!-- Created with matplotlib (https://matplotlib.org/) -->
<svg height="288pt" version="1.1" viewBox="0 0 432 288" width="432pt" xmlns="http://www.w3.org/2000/svg" xmlns:xlink="http://www.w3.org/1999/xlink">
 <metadata>
  <rdf:RDF xmlns:cc="http://creativecommons.org/ns#" xmlns:dc="http://purl.org/dc/elements/1.1/" xmlns:rdf="http://www.w3.org/1999/02/22-rdf-syntax-ns#">
   <cc:Work>
    <dc:type rdf:resource="http://purl.org/dc/dcmitype/StillImage"/>
    <dc:date>2021-07-21T14:57:42.955092</dc:date>
    <dc:format>image/svg+xml</dc:format>
    <dc:creator>
     <cc:Agent>
      <dc:title>Matplotlib v3.3.4, https://matplotlib.org/</dc:title>
     </cc:Agent>
    </dc:creator>
   </cc:Work>
  </rdf:RDF>
 </metadata>
 <defs>
  <style type="text/css">*{stroke-linecap:butt;stroke-linejoin:round;}</style>
 </defs>
 <g id="figure_1">
  <g id="patch_1">
   <path d="M 0 288 
L 432 288 
L 432 0 
L 0 0 
z
" style="fill:#ffffff;"/>
  </g>
  <g id="axes_1">
   <g id="patch_2">
    <path d="M 54 252 
L 388.8 252 
L 388.8 34.56 
L 54 34.56 
z
" style="fill:#ffffff;"/>
   </g>
   <g id="matplotlib.axis_1">
    <g id="xtick_1">
     <g id="line2d_1">
      <defs>
       <path d="M 0 0 
L 0 3.5 
" id="m7022add7a6" style="stroke:#000000;stroke-width:0.8;"/>
      </defs>
      <g>
       <use style="stroke:#000000;stroke-width:0.8;" x="62.011028" xlink:href="#m7022add7a6" y="252"/>
      </g>
     </g>
     <g id="text_1">
      <!-- 2015-01 -->
      <g transform="translate(49.189746 293.917817)rotate(-45)scale(0.1 -0.1)">
       <defs>
        <path d="M 19.1875 8.296875 
L 53.609375 8.296875 
L 53.609375 0 
L 7.328125 0 
L 7.328125 8.296875 
Q 12.9375 14.109375 22.625 23.890625 
Q 32.328125 33.6875 34.8125 36.53125 
Q 39.546875 41.84375 41.421875 45.53125 
Q 43.3125 49.21875 43.3125 52.78125 
Q 43.3125 58.59375 39.234375 62.25 
Q 35.15625 65.921875 28.609375 65.921875 
Q 23.96875 65.921875 18.8125 64.3125 
Q 13.671875 62.703125 7.8125 59.421875 
L 7.8125 69.390625 
Q 13.765625 71.78125 18.9375 73 
Q 24.125 74.21875 28.421875 74.21875 
Q 39.75 74.21875 46.484375 68.546875 
Q 53.21875 62.890625 53.21875 53.421875 
Q 53.21875 48.921875 51.53125 44.890625 
Q 49.859375 40.875 45.40625 35.40625 
Q 44.1875 33.984375 37.640625 27.21875 
Q 31.109375 20.453125 19.1875 8.296875 
z
" id="DejaVuSans-50"/>
        <path d="M 31.78125 66.40625 
Q 24.171875 66.40625 20.328125 58.90625 
Q 16.5 51.421875 16.5 36.375 
Q 16.5 21.390625 20.328125 13.890625 
Q 24.171875 6.390625 31.78125 6.390625 
Q 39.453125 6.390625 43.28125 13.890625 
Q 47.125 21.390625 47.125 36.375 
Q 47.125 51.421875 43.28125 58.90625 
Q 39.453125 66.40625 31.78125 66.40625 
z
M 31.78125 74.21875 
Q 44.046875 74.21875 50.515625 64.515625 
Q 56.984375 54.828125 56.984375 36.375 
Q 56.984375 17.96875 50.515625 8.265625 
Q 44.046875 -1.421875 31.78125 -1.421875 
Q 19.53125 -1.421875 13.0625 8.265625 
Q 6.59375 17.96875 6.59375 36.375 
Q 6.59375 54.828125 13.0625 64.515625 
Q 19.53125 74.21875 31.78125 74.21875 
z
" id="DejaVuSans-48"/>
        <path d="M 12.40625 8.296875 
L 28.515625 8.296875 
L 28.515625 63.921875 
L 10.984375 60.40625 
L 10.984375 69.390625 
L 28.421875 72.90625 
L 38.28125 72.90625 
L 38.28125 8.296875 
L 54.390625 8.296875 
L 54.390625 0 
L 12.40625 0 
z
" id="DejaVuSans-49"/>
        <path d="M 10.796875 72.90625 
L 49.515625 72.90625 
L 49.515625 64.59375 
L 19.828125 64.59375 
L 19.828125 46.734375 
Q 21.96875 47.46875 24.109375 47.828125 
Q 26.265625 48.1875 28.421875 48.1875 
Q 40.625 48.1875 47.75 41.5 
Q 54.890625 34.8125 54.890625 23.390625 
Q 54.890625 11.625 47.5625 5.09375 
Q 40.234375 -1.421875 26.90625 -1.421875 
Q 22.3125 -1.421875 17.546875 -0.640625 
Q 12.796875 0.140625 7.71875 1.703125 
L 7.71875 11.625 
Q 12.109375 9.234375 16.796875 8.0625 
Q 21.484375 6.890625 26.703125 6.890625 
Q 35.15625 6.890625 40.078125 11.328125 
Q 45.015625 15.765625 45.015625 23.390625 
Q 45.015625 31 40.078125 35.4375 
Q 35.15625 39.890625 26.703125 39.890625 
Q 22.75 39.890625 18.8125 39.015625 
Q 14.890625 38.140625 10.796875 36.28125 
z
" id="DejaVuSans-53"/>
        <path d="M 4.890625 31.390625 
L 31.203125 31.390625 
L 31.203125 23.390625 
L 4.890625 23.390625 
z
" id="DejaVuSans-45"/>
       </defs>
       <use xlink:href="#DejaVuSans-50"/>
       <use x="63.623047" xlink:href="#DejaVuSans-48"/>
       <use x="127.246094" xlink:href="#DejaVuSans-49"/>
       <use x="190.869141" xlink:href="#DejaVuSans-53"/>
       <use x="254.492188" xlink:href="#DejaVuSans-45"/>
       <use x="290.576172" xlink:href="#DejaVuSans-48"/>
       <use x="354.199219" xlink:href="#DejaVuSans-49"/>
      </g>
     </g>
    </g>
    <g id="xtick_2">
     <g id="line2d_2">
      <g>
       <use style="stroke:#000000;stroke-width:0.8;" x="95.274814" xlink:href="#m7022add7a6" y="252"/>
      </g>
     </g>
     <g id="text_2">
      <!-- 2015-05 -->
      <g transform="translate(82.453531 293.917817)rotate(-45)scale(0.1 -0.1)">
       <use xlink:href="#DejaVuSans-50"/>
       <use x="63.623047" xlink:href="#DejaVuSans-48"/>
       <use x="127.246094" xlink:href="#DejaVuSans-49"/>
       <use x="190.869141" xlink:href="#DejaVuSans-53"/>
       <use x="254.492188" xlink:href="#DejaVuSans-45"/>
       <use x="290.576172" xlink:href="#DejaVuSans-48"/>
       <use x="354.199219" xlink:href="#DejaVuSans-53"/>
      </g>
     </g>
    </g>
    <g id="xtick_3">
     <g id="line2d_3">
      <g>
       <use style="stroke:#000000;stroke-width:0.8;" x="129.370194" xlink:href="#m7022add7a6" y="252"/>
      </g>
     </g>
     <g id="text_3">
      <!-- 2015-09 -->
      <g transform="translate(116.548911 293.917817)rotate(-45)scale(0.1 -0.1)">
       <defs>
        <path d="M 10.984375 1.515625 
L 10.984375 10.5 
Q 14.703125 8.734375 18.5 7.8125 
Q 22.3125 6.890625 25.984375 6.890625 
Q 35.75 6.890625 40.890625 13.453125 
Q 46.046875 20.015625 46.78125 33.40625 
Q 43.953125 29.203125 39.59375 26.953125 
Q 35.25 24.703125 29.984375 24.703125 
Q 19.046875 24.703125 12.671875 31.3125 
Q 6.296875 37.9375 6.296875 49.421875 
Q 6.296875 60.640625 12.9375 67.421875 
Q 19.578125 74.21875 30.609375 74.21875 
Q 43.265625 74.21875 49.921875 64.515625 
Q 56.59375 54.828125 56.59375 36.375 
Q 56.59375 19.140625 48.40625 8.859375 
Q 40.234375 -1.421875 26.421875 -1.421875 
Q 22.703125 -1.421875 18.890625 -0.6875 
Q 15.09375 0.046875 10.984375 1.515625 
z
M 30.609375 32.421875 
Q 37.25 32.421875 41.125 36.953125 
Q 45.015625 41.5 45.015625 49.421875 
Q 45.015625 57.28125 41.125 61.84375 
Q 37.25 66.40625 30.609375 66.40625 
Q 23.96875 66.40625 20.09375 61.84375 
Q 16.21875 57.28125 16.21875 49.421875 
Q 16.21875 41.5 20.09375 36.953125 
Q 23.96875 32.421875 30.609375 32.421875 
z
" id="DejaVuSans-57"/>
       </defs>
       <use xlink:href="#DejaVuSans-50"/>
       <use x="63.623047" xlink:href="#DejaVuSans-48"/>
       <use x="127.246094" xlink:href="#DejaVuSans-49"/>
       <use x="190.869141" xlink:href="#DejaVuSans-53"/>
       <use x="254.492188" xlink:href="#DejaVuSans-45"/>
       <use x="290.576172" xlink:href="#DejaVuSans-48"/>
       <use x="354.199219" xlink:href="#DejaVuSans-57"/>
      </g>
     </g>
    </g>
    <g id="xtick_4">
     <g id="line2d_4">
      <g>
       <use style="stroke:#000000;stroke-width:0.8;" x="163.188376" xlink:href="#m7022add7a6" y="252"/>
      </g>
     </g>
     <g id="text_4">
      <!-- 2016-01 -->
      <g transform="translate(150.367093 293.917817)rotate(-45)scale(0.1 -0.1)">
       <defs>
        <path d="M 33.015625 40.375 
Q 26.375 40.375 22.484375 35.828125 
Q 18.609375 31.296875 18.609375 23.390625 
Q 18.609375 15.53125 22.484375 10.953125 
Q 26.375 6.390625 33.015625 6.390625 
Q 39.65625 6.390625 43.53125 10.953125 
Q 47.40625 15.53125 47.40625 23.390625 
Q 47.40625 31.296875 43.53125 35.828125 
Q 39.65625 40.375 33.015625 40.375 
z
M 52.59375 71.296875 
L 52.59375 62.3125 
Q 48.875 64.0625 45.09375 64.984375 
Q 41.3125 65.921875 37.59375 65.921875 
Q 27.828125 65.921875 22.671875 59.328125 
Q 17.53125 52.734375 16.796875 39.40625 
Q 19.671875 43.65625 24.015625 45.921875 
Q 28.375 48.1875 33.59375 48.1875 
Q 44.578125 48.1875 50.953125 41.515625 
Q 57.328125 34.859375 57.328125 23.390625 
Q 57.328125 12.15625 50.6875 5.359375 
Q 44.046875 -1.421875 33.015625 -1.421875 
Q 20.359375 -1.421875 13.671875 8.265625 
Q 6.984375 17.96875 6.984375 36.375 
Q 6.984375 53.65625 15.1875 63.9375 
Q 23.390625 74.21875 37.203125 74.21875 
Q 40.921875 74.21875 44.703125 73.484375 
Q 48.484375 72.75 52.59375 71.296875 
z
" id="DejaVuSans-54"/>
       </defs>
       <use xlink:href="#DejaVuSans-50"/>
       <use x="63.623047" xlink:href="#DejaVuSans-48"/>
       <use x="127.246094" xlink:href="#DejaVuSans-49"/>
       <use x="190.869141" xlink:href="#DejaVuSans-54"/>
       <use x="254.492188" xlink:href="#DejaVuSans-45"/>
       <use x="290.576172" xlink:href="#DejaVuSans-48"/>
       <use x="354.199219" xlink:href="#DejaVuSans-49"/>
      </g>
     </g>
    </g>
    <g id="xtick_5">
     <g id="line2d_5">
      <g>
       <use style="stroke:#000000;stroke-width:0.8;" x="196.729359" xlink:href="#m7022add7a6" y="252"/>
      </g>
     </g>
     <g id="text_5">
      <!-- 2016-05 -->
      <g transform="translate(183.908077 293.917817)rotate(-45)scale(0.1 -0.1)">
       <use xlink:href="#DejaVuSans-50"/>
       <use x="63.623047" xlink:href="#DejaVuSans-48"/>
       <use x="127.246094" xlink:href="#DejaVuSans-49"/>
       <use x="190.869141" xlink:href="#DejaVuSans-54"/>
       <use x="254.492188" xlink:href="#DejaVuSans-45"/>
       <use x="290.576172" xlink:href="#DejaVuSans-48"/>
       <use x="354.199219" xlink:href="#DejaVuSans-53"/>
      </g>
     </g>
    </g>
    <g id="xtick_6">
     <g id="line2d_6">
      <g>
       <use style="stroke:#000000;stroke-width:0.8;" x="230.824739" xlink:href="#m7022add7a6" y="252"/>
      </g>
     </g>
     <g id="text_6">
      <!-- 2016-09 -->
      <g transform="translate(218.003457 293.917817)rotate(-45)scale(0.1 -0.1)">
       <use xlink:href="#DejaVuSans-50"/>
       <use x="63.623047" xlink:href="#DejaVuSans-48"/>
       <use x="127.246094" xlink:href="#DejaVuSans-49"/>
       <use x="190.869141" xlink:href="#DejaVuSans-54"/>
       <use x="254.492188" xlink:href="#DejaVuSans-45"/>
       <use x="290.576172" xlink:href="#DejaVuSans-48"/>
       <use x="354.199219" xlink:href="#DejaVuSans-57"/>
      </g>
     </g>
    </g>
    <g id="xtick_7">
     <g id="line2d_7">
      <g>
       <use style="stroke:#000000;stroke-width:0.8;" x="264.642921" xlink:href="#m7022add7a6" y="252"/>
      </g>
     </g>
     <g id="text_7">
      <!-- 2017-01 -->
      <g transform="translate(251.821639 293.917817)rotate(-45)scale(0.1 -0.1)">
       <defs>
        <path d="M 8.203125 72.90625 
L 55.078125 72.90625 
L 55.078125 68.703125 
L 28.609375 0 
L 18.3125 0 
L 43.21875 64.59375 
L 8.203125 64.59375 
z
" id="DejaVuSans-55"/>
       </defs>
       <use xlink:href="#DejaVuSans-50"/>
       <use x="63.623047" xlink:href="#DejaVuSans-48"/>
       <use x="127.246094" xlink:href="#DejaVuSans-49"/>
       <use x="190.869141" xlink:href="#DejaVuSans-55"/>
       <use x="254.492188" xlink:href="#DejaVuSans-45"/>
       <use x="290.576172" xlink:href="#DejaVuSans-48"/>
       <use x="354.199219" xlink:href="#DejaVuSans-49"/>
      </g>
     </g>
    </g>
    <g id="xtick_8">
     <g id="line2d_8">
      <g>
       <use style="stroke:#000000;stroke-width:0.8;" x="297.906706" xlink:href="#m7022add7a6" y="252"/>
      </g>
     </g>
     <g id="text_8">
      <!-- 2017-05 -->
      <g transform="translate(285.085424 293.917817)rotate(-45)scale(0.1 -0.1)">
       <use xlink:href="#DejaVuSans-50"/>
       <use x="63.623047" xlink:href="#DejaVuSans-48"/>
       <use x="127.246094" xlink:href="#DejaVuSans-49"/>
       <use x="190.869141" xlink:href="#DejaVuSans-55"/>
       <use x="254.492188" xlink:href="#DejaVuSans-45"/>
       <use x="290.576172" xlink:href="#DejaVuSans-48"/>
       <use x="354.199219" xlink:href="#DejaVuSans-53"/>
      </g>
     </g>
    </g>
    <g id="xtick_9">
     <g id="line2d_9">
      <g>
       <use style="stroke:#000000;stroke-width:0.8;" x="332.002086" xlink:href="#m7022add7a6" y="252"/>
      </g>
     </g>
     <g id="text_9">
      <!-- 2017-09 -->
      <g transform="translate(319.180804 293.917817)rotate(-45)scale(0.1 -0.1)">
       <use xlink:href="#DejaVuSans-50"/>
       <use x="63.623047" xlink:href="#DejaVuSans-48"/>
       <use x="127.246094" xlink:href="#DejaVuSans-49"/>
       <use x="190.869141" xlink:href="#DejaVuSans-55"/>
       <use x="254.492188" xlink:href="#DejaVuSans-45"/>
       <use x="290.576172" xlink:href="#DejaVuSans-48"/>
       <use x="354.199219" xlink:href="#DejaVuSans-57"/>
      </g>
     </g>
    </g>
    <g id="xtick_10">
     <g id="line2d_10">
      <g>
       <use style="stroke:#000000;stroke-width:0.8;" x="365.820268" xlink:href="#m7022add7a6" y="252"/>
      </g>
     </g>
     <g id="text_10">
      <!-- 2018-01 -->
      <g transform="translate(352.998986 293.917817)rotate(-45)scale(0.1 -0.1)">
       <defs>
        <path d="M 31.78125 34.625 
Q 24.75 34.625 20.71875 30.859375 
Q 16.703125 27.09375 16.703125 20.515625 
Q 16.703125 13.921875 20.71875 10.15625 
Q 24.75 6.390625 31.78125 6.390625 
Q 38.8125 6.390625 42.859375 10.171875 
Q 46.921875 13.96875 46.921875 20.515625 
Q 46.921875 27.09375 42.890625 30.859375 
Q 38.875 34.625 31.78125 34.625 
z
M 21.921875 38.8125 
Q 15.578125 40.375 12.03125 44.71875 
Q 8.5 49.078125 8.5 55.328125 
Q 8.5 64.0625 14.71875 69.140625 
Q 20.953125 74.21875 31.78125 74.21875 
Q 42.671875 74.21875 48.875 69.140625 
Q 55.078125 64.0625 55.078125 55.328125 
Q 55.078125 49.078125 51.53125 44.71875 
Q 48 40.375 41.703125 38.8125 
Q 48.828125 37.15625 52.796875 32.3125 
Q 56.78125 27.484375 56.78125 20.515625 
Q 56.78125 9.90625 50.3125 4.234375 
Q 43.84375 -1.421875 31.78125 -1.421875 
Q 19.734375 -1.421875 13.25 4.234375 
Q 6.78125 9.90625 6.78125 20.515625 
Q 6.78125 27.484375 10.78125 32.3125 
Q 14.796875 37.15625 21.921875 38.8125 
z
M 18.3125 54.390625 
Q 18.3125 48.734375 21.84375 45.5625 
Q 25.390625 42.390625 31.78125 42.390625 
Q 38.140625 42.390625 41.71875 45.5625 
Q 45.3125 48.734375 45.3125 54.390625 
Q 45.3125 60.0625 41.71875 63.234375 
Q 38.140625 66.40625 31.78125 66.40625 
Q 25.390625 66.40625 21.84375 63.234375 
Q 18.3125 60.0625 18.3125 54.390625 
z
" id="DejaVuSans-56"/>
       </defs>
       <use xlink:href="#DejaVuSans-50"/>
       <use x="63.623047" xlink:href="#DejaVuSans-48"/>
       <use x="127.246094" xlink:href="#DejaVuSans-49"/>
       <use x="190.869141" xlink:href="#DejaVuSans-56"/>
       <use x="254.492188" xlink:href="#DejaVuSans-45"/>
       <use x="290.576172" xlink:href="#DejaVuSans-48"/>
       <use x="354.199219" xlink:href="#DejaVuSans-49"/>
      </g>
     </g>
    </g>
   </g>
   <g id="matplotlib.axis_2">
    <g id="ytick_1">
     <g id="line2d_11">
      <defs>
       <path d="M 0 0 
L -3.5 0 
" id="mfcbb5dd5b3" style="stroke:#000000;stroke-width:0.8;"/>
      </defs>
      <g>
       <use style="stroke:#000000;stroke-width:0.8;" x="54" xlink:href="#mfcbb5dd5b3" y="242.116364"/>
      </g>
     </g>
     <g id="text_11">
      <!-- 0 -->
      <g transform="translate(40.6375 245.915582)scale(0.1 -0.1)">
       <use xlink:href="#DejaVuSans-48"/>
      </g>
     </g>
    </g>
    <g id="ytick_2">
     <g id="line2d_12">
      <g>
       <use style="stroke:#000000;stroke-width:0.8;" x="54" xlink:href="#mfcbb5dd5b3" y="194.92784"/>
      </g>
     </g>
     <g id="text_12">
      <!-- 10 -->
      <g transform="translate(34.275 198.727058)scale(0.1 -0.1)">
       <use xlink:href="#DejaVuSans-49"/>
       <use x="63.623047" xlink:href="#DejaVuSans-48"/>
      </g>
     </g>
    </g>
    <g id="ytick_3">
     <g id="line2d_13">
      <g>
       <use style="stroke:#000000;stroke-width:0.8;" x="54" xlink:href="#mfcbb5dd5b3" y="147.739316"/>
      </g>
     </g>
     <g id="text_13">
      <!-- 20 -->
      <g transform="translate(34.275 151.538534)scale(0.1 -0.1)">
       <use xlink:href="#DejaVuSans-50"/>
       <use x="63.623047" xlink:href="#DejaVuSans-48"/>
      </g>
     </g>
    </g>
    <g id="ytick_4">
     <g id="line2d_14">
      <g>
       <use style="stroke:#000000;stroke-width:0.8;" x="54" xlink:href="#mfcbb5dd5b3" y="100.550791"/>
      </g>
     </g>
     <g id="text_14">
      <!-- 30 -->
      <g transform="translate(34.275 104.35001)scale(0.1 -0.1)">
       <defs>
        <path d="M 40.578125 39.3125 
Q 47.65625 37.796875 51.625 33 
Q 55.609375 28.21875 55.609375 21.1875 
Q 55.609375 10.40625 48.1875 4.484375 
Q 40.765625 -1.421875 27.09375 -1.421875 
Q 22.515625 -1.421875 17.65625 -0.515625 
Q 12.796875 0.390625 7.625 2.203125 
L 7.625 11.71875 
Q 11.71875 9.328125 16.59375 8.109375 
Q 21.484375 6.890625 26.8125 6.890625 
Q 36.078125 6.890625 40.9375 10.546875 
Q 45.796875 14.203125 45.796875 21.1875 
Q 45.796875 27.640625 41.28125 31.265625 
Q 36.765625 34.90625 28.71875 34.90625 
L 20.21875 34.90625 
L 20.21875 43.015625 
L 29.109375 43.015625 
Q 36.375 43.015625 40.234375 45.921875 
Q 44.09375 48.828125 44.09375 54.296875 
Q 44.09375 59.90625 40.109375 62.90625 
Q 36.140625 65.921875 28.71875 65.921875 
Q 24.65625 65.921875 20.015625 65.03125 
Q 15.375 64.15625 9.8125 62.3125 
L 9.8125 71.09375 
Q 15.4375 72.65625 20.34375 73.4375 
Q 25.25 74.21875 29.59375 74.21875 
Q 40.828125 74.21875 47.359375 69.109375 
Q 53.90625 64.015625 53.90625 55.328125 
Q 53.90625 49.265625 50.4375 45.09375 
Q 46.96875 40.921875 40.578125 39.3125 
z
" id="DejaVuSans-51"/>
       </defs>
       <use xlink:href="#DejaVuSans-51"/>
       <use x="63.623047" xlink:href="#DejaVuSans-48"/>
      </g>
     </g>
    </g>
    <g id="ytick_5">
     <g id="line2d_15">
      <g>
       <use style="stroke:#000000;stroke-width:0.8;" x="54" xlink:href="#mfcbb5dd5b3" y="53.362267"/>
      </g>
     </g>
     <g id="text_15">
      <!-- 40 -->
      <g transform="translate(34.275 57.161486)scale(0.1 -0.1)">
       <defs>
        <path d="M 37.796875 64.3125 
L 12.890625 25.390625 
L 37.796875 25.390625 
z
M 35.203125 72.90625 
L 47.609375 72.90625 
L 47.609375 25.390625 
L 58.015625 25.390625 
L 58.015625 17.1875 
L 47.609375 17.1875 
L 47.609375 0 
L 37.796875 0 
L 37.796875 17.1875 
L 4.890625 17.1875 
L 4.890625 26.703125 
z
" id="DejaVuSans-52"/>
       </defs>
       <use xlink:href="#DejaVuSans-52"/>
       <use x="63.623047" xlink:href="#DejaVuSans-48"/>
      </g>
     </g>
    </g>
   </g>
   <g id="line2d_16">
    <path clip-path="url(#p0c362cf3d8)" d="M 69.218182 140.944168 
L 69.49538 130.609881 
L 69.772578 133.629947 
L 70.049776 112.725431 
L 70.604173 103.665234 
L 70.881371 105.411209 
L 71.158569 145.757398 
L 71.435768 141.132922 
L 71.990164 155.997307 
L 72.267362 133.441193 
L 72.54456 139.198193 
L 72.821759 138.348799 
L 73.098957 145.191135 
L 73.376155 141.887939 
L 73.653353 141.887939 
L 73.930551 159.253315 
L 74.20775 137.027521 
L 74.484948 130.987389 
L 74.762146 96.822898 
L 75.039344 118.435242 
L 75.316542 151.514397 
L 75.593741 156.091684 
L 75.870939 117.86898 
L 76.148137 138.537553 
L 76.425335 118.435242 
L 76.702534 154.440086 
L 76.979732 127.44825 
L 77.25693 160.527406 
L 77.534128 122.115947 
L 77.811326 142.407012 
L 78.088525 99.087947 
L 78.365723 143.303594 
L 78.642921 147.692127 
L 78.920119 170.720127 
L 79.197317 127.023553 
L 79.474516 129.99643 
L 79.751714 152.599734 
L 80.028912 132.403045 
L 80.30611 122.304701 
L 80.583308 168.643832 
L 80.860507 134.432152 
L 81.137705 158.639865 
L 81.414903 159.064561 
L 81.692101 159.772389 
L 81.9693 157.129832 
L 82.246498 102.249578 
L 82.523696 154.345709 
L 82.800894 162.367758 
L 83.355291 143.303594 
L 83.632489 153.779447 
L 84.186885 115.792685 
L 84.741282 155.147914 
L 85.01848 138.301611 
L 85.295678 130.397533 
L 85.572876 174.306455 
L 85.850075 129.524545 
L 86.404471 151.573383 
L 86.681669 115.014074 
L 87.236066 168.171946 
L 87.513264 172.513291 
L 87.790462 165.246258 
L 88.06766 170.153864 
L 88.344858 171.380766 
L 88.622057 160.102709 
L 88.899255 178.175914 
L 89.176453 181.101602 
L 89.453651 179.26125 
L 89.730849 163.830602 
L 90.008048 96.067882 
L 90.562444 152.269414 
L 90.839642 153.401938 
L 91.116841 172.466102 
L 91.394039 162.603701 
L 91.671237 126.032594 
L 91.948435 109.044726 
L 92.225633 167.08661 
L 92.502832 163.358717 
L 92.78003 116.689267 
L 93.334426 141.085734 
L 93.611624 132.969307 
L 93.888823 150.80657 
L 94.166021 145.710209 
L 94.443219 131.412086 
L 94.720417 159.394881 
L 94.997615 151.939094 
L 95.274814 119.190258 
L 95.552012 142.831709 
L 96.106408 125.041635 
L 96.383607 152.599734 
L 96.660805 151.75034 
L 96.938003 134.432152 
L 97.492399 167.133799 
L 97.769598 141.651996 
L 98.046796 149.343725 
L 98.323994 140.56666 
L 98.601192 127.44825 
L 98.87839 160.527406 
L 99.155589 147.550561 
L 99.432787 149.107783 
L 99.709985 169.870733 
L 99.987183 137.074709 
L 100.264382 137.593783 
L 100.818778 169.493225 
L 101.095976 145.804586 
L 101.373174 163.075586 
L 101.650373 100.078906 
L 101.927571 157.17702 
L 102.204769 114.046709 
L 102.481967 119.709332 
L 102.759165 160.952102 
L 103.036364 127.825758 
L 103.313562 138.726307 
L 103.59076 141.604807 
L 103.867958 154.392897 
L 104.145156 151.42002 
L 104.422355 177.137766 
L 104.976751 155.195102 
L 105.253949 197.004135 
L 105.808346 163.417703 
L 106.085544 180.299397 
L 106.362742 190.232581 
L 106.917139 133.871788 
L 107.194337 186.315934 
L 107.471535 214.216149 
L 107.748733 212.52326 
L 108.580328 119.190258 
L 108.857526 172.135782 
L 109.134724 162.556512 
L 109.411923 134.573717 
L 109.689121 165.387824 
L 109.966319 144.200176 
L 110.520715 178.175914 
L 110.797914 180.629717 
L 111.629508 175.958053 
L 111.906706 164.915938 
L 112.461103 189.123651 
L 112.738301 173.409873 
L 113.015499 177.232143 
L 113.292697 119.237447 
L 113.569896 124.050676 
L 114.124292 142.690143 
L 114.40149 140.094775 
L 114.678689 149.20216 
L 115.233085 99.182324 
L 115.510283 160.480217 
L 115.787481 157.83766 
L 116.06468 146.842734 
L 116.341878 146.465225 
L 116.619076 145.427078 
L 116.896274 98.969976 
L 117.173472 137.121898 
L 117.450671 147.196647 
L 117.727869 143.44516 
L 118.005067 158.309545 
L 118.282265 115.226422 
L 118.559463 145.804586 
L 118.836662 133.441193 
L 119.11386 101.824882 
L 119.391058 159.913955 
L 119.668256 167.700061 
L 119.945455 145.757398 
L 120.222653 137.971291 
L 120.499851 172.702045 
L 120.777049 159.772389 
L 121.054247 140.802602 
L 121.331446 138.63193 
L 121.608644 145.804586 
L 121.885842 148.352766 
L 122.16304 144.483307 
L 122.440238 121.030611 
L 122.717437 153.921012 
L 123.271833 124.522562 
L 123.549031 114.754537 
L 123.82623 148.211201 
L 124.103428 147.786504 
L 124.380626 149.107783 
L 124.657824 156.752324 
L 124.935022 98.757628 
L 125.489419 138.160045 
L 125.766617 153.968201 
L 126.321013 124.050676 
L 126.598212 145.143947 
L 126.87541 150.499844 
L 127.152608 151.443615 
L 127.429806 159.772389 
L 127.707004 155.714176 
L 127.984203 163.028397 
L 128.261401 165.199069 
L 128.538599 81.816947 
L 128.815797 151.467209 
L 129.092996 148.54152 
L 129.370194 165.199069 
L 129.647392 140.377906 
L 129.92459 101.305808 
L 130.201788 115.509554 
L 130.478987 146.889922 
L 130.756185 161.707119 
L 131.033383 166.850668 
L 131.310581 165.199069 
L 131.587779 166.567537 
L 131.864978 161.565553 
L 132.142176 179.8747 
L 132.419374 164.963127 
L 132.696572 100.031718 
L 132.97377 146.559602 
L 133.250969 131.836783 
L 133.528167 134.668094 
L 133.805365 160.338651 
L 134.359762 136.791578 
L 134.63696 134.762471 
L 134.914158 152.033471 
L 135.191356 132.450234 
L 135.745753 159.442069 
L 136.022951 137.027521 
L 136.577347 108.053767 
L 136.854545 157.83766 
L 137.408942 143.822668 
L 137.68614 159.394881 
L 137.963338 144.105799 
L 138.240537 140.259934 
L 138.517735 128.533586 
L 138.794933 143.822668 
L 139.072131 144.152988 
L 139.349329 146.040529 
L 139.626528 140.708225 
L 139.903726 154.345709 
L 140.180924 146.040529 
L 140.458122 127.872947 
L 141.012519 166.921451 
L 141.289717 164.255299 
L 141.844113 132.733365 
L 142.121311 150.240307 
L 142.39851 148.919029 
L 142.675708 169.587602 
L 142.952906 162.792455 
L 143.230104 139.858832 
L 143.507303 138.820684 
L 143.784501 149.721234 
L 144.061699 134.149021 
L 144.338897 110.271627 
L 144.616095 166.756291 
L 144.893294 140.991357 
L 145.170492 147.92807 
L 145.44769 161.140856 
L 145.724888 164.86875 
L 146.279285 90.971521 
L 146.556483 129.666111 
L 146.833681 129.618922 
L 147.110879 154.251332 
L 147.388077 141.038545 
L 147.665276 142.312635 
L 148.49687 96.822898 
L 148.774069 116.311759 
L 149.051267 143.77548 
L 149.328465 144.105799 
L 149.605663 156.044496 
L 149.882861 67.613202 
L 150.437258 148.824652 
L 150.714456 140.118369 
L 150.991654 147.786504 
L 151.268852 127.731381 
L 151.546051 127.637004 
L 151.823249 73.370202 
L 152.377645 152.741299 
L 152.654844 103.853988 
L 152.932042 138.112857 
L 153.20924 93.472513 
L 153.486438 95.407242 
L 154.040835 58.883325 
L 154.318033 120.228406 
L 154.595231 65.914415 
L 154.872429 144.247365 
L 155.426826 171.947028 
L 155.704024 168.974151 
L 155.981222 123.673168 
L 156.25842 167.369742 
L 156.812817 148.258389 
L 157.090015 167.039422 
L 157.367213 167.888815 
L 157.644411 161.093668 
L 157.92161 117.963357 
L 158.198808 148.683086 
L 158.476006 160.38584 
L 159.030402 131.553652 
L 159.307601 141.935127 
L 159.584799 146.842734 
L 159.861997 128.958283 
L 160.139195 143.633914 
L 160.416393 141.887939 
L 160.693592 130.987389 
L 160.97079 131.742406 
L 161.247988 143.728291 
L 161.525186 118.907127 
L 161.802385 70.491702 
L 162.079583 121.880004 
L 162.356781 125.655086 
L 162.633979 121.219365 
L 162.911177 131.883971 
L 163.188376 109.327857 
L 163.465574 105.599964 
L 163.742772 62.611218 
L 164.01997 105.505586 
L 164.297168 105.835906 
L 164.574367 94.463472 
L 164.851565 98.852005 
L 165.128763 115.839873 
L 165.405961 87.998644 
L 165.683159 92.528742 
L 165.960358 108.997537 
L 166.237556 111.121021 
L 166.514754 73.794898 
L 166.791952 121.455308 
L 167.069151 87.526759 
L 167.346349 118.010545 
L 167.623547 85.592029 
L 167.900745 124.475373 
L 168.177943 98.332931 
L 168.455142 96.77571 
L 168.73234 100.59798 
L 169.009538 145.615832 
L 169.286736 133.818701 
L 169.563934 145.615832 
L 169.841133 87.196439 
L 170.118331 121.360931 
L 170.395529 141.534025 
L 170.672727 147.078676 
L 170.949925 137.452217 
L 171.227124 117.86898 
L 171.504322 60.582112 
L 171.78152 109.846931 
L 172.058718 105.741529 
L 172.335917 115.132045 
L 172.613115 129.713299 
L 172.890313 128.297644 
L 173.167511 62.56403 
L 173.721908 111.309775 
L 173.999106 123.531603 
L 174.553502 137.68816 
L 175.107899 85.686406 
L 175.385097 103.287726 
L 175.662295 131.883971 
L 175.939493 130.043619 
L 176.216692 103.948365 
L 176.49389 97.766669 
L 176.771088 107.393127 
L 177.048286 88.423341 
L 177.325484 53.551022 
L 177.602683 124.56975 
L 177.879881 94.227529 
L 178.434277 126.032594 
L 178.711475 123.909111 
L 178.988674 93.283759 
L 179.265872 107.393127 
L 179.54307 242.116364 
L 179.820268 64.498759 
L 180.097466 122.96534 
L 180.374665 143.397971 
L 180.651863 138.395988 
L 180.929061 114.188275 
L 181.206259 117.774603 
L 181.483458 93.802833 
L 182.037854 122.163135 
L 182.315052 121.738439 
L 182.869449 131.553652 
L 183.146647 84.837013 
L 183.423845 107.723447 
L 183.701043 147.550561 
L 183.978241 164.915938 
L 184.532638 156.752324 
L 185.087034 117.680226 
L 185.364232 135.564676 
L 185.641431 133.724324 
L 186.195827 177.845594 
L 186.473025 164.727184 
L 186.750224 164.86875 
L 187.30462 174.353643 
L 187.581818 143.067652 
L 187.859016 163.877791 
L 188.136215 143.869857 
L 188.413413 144.152988 
L 188.690611 142.407012 
L 188.967809 129.335791 
L 189.245007 158.026414 
L 189.522206 144.577684 
L 189.799404 145.946152 
L 190.076602 117.53866 
L 190.3538 166.520348 
L 190.908197 124.616939 
L 191.185395 158.922996 
L 191.462593 131.317709 
L 191.739791 141.085734 
L 192.01699 142.642955 
L 192.294188 120.322783 
L 192.571386 159.253315 
L 192.848584 175.250225 
L 193.125782 159.725201 
L 193.680179 154.723217 
L 193.957377 141.416053 
L 194.234575 155.572611 
L 194.511773 148.164012 
L 194.788972 132.26148 
L 195.06617 153.968201 
L 195.343368 166.284405 
L 195.620566 161.612742 
L 195.897765 140.094775 
L 196.174963 157.743283 
L 196.452161 139.717266 
L 196.729359 109.422234 
L 197.006557 157.224209 
L 197.283756 130.845824 
L 197.560954 159.324098 
L 197.838152 152.505356 
L 198.11535 150.80657 
L 198.392548 123.909111 
L 198.669747 133.629947 
L 198.946945 123.46082 
L 199.224143 149.249348 
L 199.501341 158.309545 
L 199.778539 158.875807 
L 200.332936 121.502496 
L 200.887332 158.309545 
L 201.164531 151.75034 
L 201.441729 126.410103 
L 201.718927 120.08684 
L 201.996125 163.028397 
L 202.273323 121.455308 
L 202.550522 143.44516 
L 202.82772 150.098742 
L 203.382116 115.698308 
L 203.659314 162.650889 
L 204.213711 130.609881 
L 204.490909 129.005471 
L 204.768107 150.240307 
L 205.045306 124.333808 
L 205.322504 160.904914 
L 205.599702 160.008332 
L 205.8769 153.401938 
L 206.154098 128.863906 
L 206.985693 162.556512 
L 207.262891 159.819578 
L 207.540089 146.182094 
L 207.817288 156.846701 
L 208.094486 145.096758 
L 208.371684 119.520578 
L 208.648882 178.883741 
L 208.92608 149.249348 
L 209.203279 156.988266 
L 209.480477 157.601717 
L 209.757675 158.687053 
L 210.034873 115.226422 
L 210.312072 159.064561 
L 210.58927 156.469192 
L 210.866468 149.626856 
L 211.143666 168.832586 
L 211.698063 140.23634 
L 211.975261 157.082643 
L 212.252459 151.042512 
L 212.529657 168.785397 
L 213.084054 150.80657 
L 213.361252 159.206127 
L 213.63845 126.693234 
L 213.915648 154.864783 
L 214.192846 133.53557 
L 214.470045 151.372832 
L 214.747243 132.214291 
L 215.301639 161.707119 
L 215.578838 163.689037 
L 215.856036 176.05243 
L 216.133234 140.047586 
L 216.410432 138.348799 
L 216.68763 135.281545 
L 216.964829 153.873824 
L 217.242027 164.774373 
L 217.519225 163.358717 
L 218.073621 110.366004 
L 218.35082 116.642078 
L 218.628018 146.465225 
L 218.905216 117.86898 
L 219.182414 150.429061 
L 219.459613 140.283529 
L 219.736811 138.867873 
L 220.014009 112.725431 
L 220.291207 129.524545 
L 220.568405 133.016496 
L 220.845604 143.162029 
L 221.122802 143.11484 
L 221.4 147.173053 
L 221.677198 110.601947 
L 222.231595 138.065668 
L 222.508793 147.408996 
L 222.785991 148.116824 
L 223.063189 145.615832 
L 223.617586 121.785627 
L 223.894784 146.465225 
L 224.171982 136.838766 
L 224.44918 139.764455 
L 224.726379 144.200176 
L 225.003577 131.176144 
L 225.280775 150.570627 
L 225.557973 106.638111 
L 225.835171 141.085734 
L 226.11237 144.294553 
L 226.389568 124.758504 
L 226.666766 141.887939 
L 227.498361 144.105799 
L 227.775559 128.769529 
L 228.052757 142.78452 
L 228.329955 135.800619 
L 228.607154 141.793561 
L 228.884352 152.505356 
L 229.16155 127.731381 
L 229.438748 136.508447 
L 229.715946 139.386947 
L 229.993145 102.674275 
L 230.270343 148.588709 
L 230.547541 149.579668 
L 230.824739 140.802602 
L 231.101937 151.939094 
L 231.379136 104.514627 
L 231.656334 138.537553 
L 231.933532 113.669201 
L 232.21073 152.835676 
L 232.487928 145.474266 
L 232.765127 146.984299 
L 233.042325 110.83789 
L 233.319523 151.089701 
L 233.596721 149.107783 
L 233.87392 151.184078 
L 234.151118 130.279562 
L 234.428316 126.315726 
L 234.705514 106.449357 
L 234.982712 157.648906 
L 235.259911 167.41693 
L 235.537109 166.945045 
L 235.814307 138.773496 
L 236.091505 174.872717 
L 236.368703 155.336668 
L 236.645902 164.632807 
L 236.9231 164.491242 
L 237.477496 125.041635 
L 237.754694 147.031488 
L 238.309091 144.058611 
L 238.586289 147.739316 
L 238.863487 154.156955 
L 239.140686 142.78452 
L 239.417884 149.20216 
L 239.695082 149.485291 
L 239.97228 127.44825 
L 240.249478 153.35475 
L 240.526677 164.86875 
L 240.803875 143.728291 
L 241.081073 150.665004 
L 241.358271 108.336898 
L 241.635469 113.527636 
L 241.912668 152.410979 
L 242.189866 140.613848 
L 242.467064 134.80966 
L 242.744262 135.847807 
L 243.021461 93.472513 
L 243.298659 137.216275 
L 243.575857 157.318586 
L 243.853055 133.724324 
L 244.407452 143.77548 
L 244.68465 115.273611 
L 244.961848 130.185185 
L 245.239046 131.553652 
L 245.516244 151.986283 
L 245.793443 160.480217 
L 246.070641 161.754307 
L 246.347839 144.71925 
L 246.625037 150.665004 
L 246.902235 162.698078 
L 247.179434 134.337775 
L 247.456632 160.291463 
L 247.73383 150.240307 
L 248.011028 148.069635 
L 248.288227 157.412963 
L 248.565425 138.112857 
L 248.842623 160.05552 
L 249.119821 124.805693 
L 249.397019 163.311528 
L 249.674218 143.633914 
L 249.951416 151.42002 
L 250.228614 168.596643 
L 250.505812 157.365774 
L 250.78301 134.054644 
L 251.060209 131.270521 
L 251.337407 145.898963 
L 251.614605 133.582758 
L 251.891803 158.78143 
L 252.169001 153.496315 
L 252.4462 160.763348 
L 252.723398 98.285742 
L 253.277794 150.80657 
L 253.554993 149.768422 
L 253.832191 153.165996 
L 254.109389 160.433028 
L 254.386587 114.707349 
L 254.663785 133.913078 
L 254.940984 124.711316 
L 255.218182 166.614725 
L 255.49538 140.472283 
L 255.772578 158.639865 
L 256.049776 160.008332 
L 256.604173 142.218258 
L 256.881371 97.766669 
L 257.158569 146.795545 
L 257.435768 134.668094 
L 257.712966 117.161152 
L 257.990164 113.905144 
L 258.267362 115.651119 
L 258.54456 129.571734 
L 258.821759 122.96534 
L 259.098957 85.780783 
L 259.376155 105.222455 
L 259.653353 97.955423 
L 259.930551 94.699414 
L 260.20775 98.99357 
L 260.762146 88.75366 
L 261.039344 109.139103 
L 261.316542 92.552337 
L 261.593741 110.83789 
L 261.870939 117.916168 
L 262.425335 59.072079 
L 262.702534 103.759611 
L 262.979732 105.930283 
L 263.25693 97.247595 
L 263.534128 100.9283 
L 263.811326 117.86898 
L 264.088525 114.046709 
L 264.365723 115.792685 
L 264.642921 71.293907 
L 264.920119 62.658407 
L 265.197317 87.857078 
L 265.474516 81.486628 
L 265.751714 87.338005 
L 266.028912 102.296767 
L 266.30611 54.282444 
L 266.860507 106.779677 
L 267.137705 77.239661 
L 267.414903 72.756751 
L 267.692101 87.762701 
L 267.9693 80.259726 
L 268.246498 59.496776 
L 268.523696 92.2928 
L 268.800894 101.588939 
L 269.078092 106.826865 
L 269.355291 123.059717 
L 269.632489 120.794668 
L 269.909687 105.930283 
L 270.186885 104.42025 
L 270.464083 90.735578 
L 270.741282 105.977472 
L 271.01848 90.027751 
L 271.295678 92.764685 
L 271.572876 44.443636 
L 271.850075 108.714406 
L 272.127273 87.47957 
L 272.404471 100.857517 
L 272.681669 122.257513 
L 272.958867 100.786734 
L 273.236066 92.623119 
L 273.513264 123.578791 
L 274.06766 60.818054 
L 274.344858 79.032824 
L 274.622057 84.695447 
L 274.899255 78.041865 
L 275.730849 139.056627 
L 276.008048 130.137996 
L 276.285246 116.925209 
L 276.562444 76.767775 
L 276.839642 116.972398 
L 277.116841 120.936234 
L 277.394039 132.591799 
L 277.671237 123.578791 
L 277.948435 83.610111 
L 278.225633 94.416283 
L 278.502832 120.275595 
L 278.78003 88.659283 
L 279.057228 109.469423 
L 279.334426 102.485521 
L 279.888823 73.134259 
L 280.166021 98.096988 
L 280.443219 93.944398 
L 280.720417 119.709332 
L 280.997615 114.707349 
L 281.274814 125.041635 
L 281.552012 114.565783 
L 282.106408 73.370202 
L 282.383607 110.932267 
L 282.660805 77.758734 
L 283.215201 87.432382 
L 283.492399 139.575701 
L 284.046796 119.898086 
L 284.87839 141.274488 
L 285.432787 166.709102 
L 285.709985 168.785397 
L 285.987183 173.126741 
L 286.264382 150.712193 
L 286.54158 139.103816 
L 286.818778 170.012299 
L 287.095976 164.444053 
L 287.373174 168.407889 
L 287.650373 147.26743 
L 287.927571 141.887939 
L 288.481967 137.640971 
L 288.759165 139.151004 
L 289.036364 157.648906 
L 289.313562 164.915938 
L 289.59076 121.408119 
L 289.867958 133.394004 
L 290.699553 150.051553 
L 290.976751 160.338651 
L 291.253949 147.173053 
L 291.531148 107.817824 
L 292.085544 149.438102 
L 292.362742 144.813627 
L 292.63994 158.403922 
L 292.917139 127.023553 
L 293.194337 139.622889 
L 293.471535 137.169086 
L 293.748733 150.14593 
L 294.025931 148.919029 
L 294.30313 164.821561 
L 294.857526 131.883971 
L 295.134724 167.180987 
L 295.411923 150.381873 
L 295.689121 114.943291 
L 295.966319 162.839643 
L 296.243517 132.686176 
L 296.520715 139.764455 
L 296.797914 143.11484 
L 297.075112 159.961143 
L 297.35231 121.077799 
L 297.629508 164.349676 
L 297.906706 129.666111 
L 298.183905 132.355857 
L 298.461103 167.369742 
L 298.738301 160.291463 
L 299.015499 163.311528 
L 299.292697 125.419144 
L 299.569896 143.256406 
L 300.40149 160.668971 
L 300.678689 165.387824 
L 300.955887 136.319693 
L 301.233085 129.288603 
L 301.510283 139.386947 
L 301.787481 154.29852 
L 302.06468 153.118807 
L 302.341878 154.29852 
L 302.619076 170.956069 
L 302.896274 152.930053 
L 303.173472 108.714406 
L 303.727869 158.215168 
L 304.005067 155.950119 
L 304.282265 158.734242 
L 304.559463 139.622889 
L 304.836662 162.603701 
L 305.11386 134.384963 
L 305.391058 137.640971 
L 305.668256 163.641848 
L 305.945455 156.23325 
L 306.222653 145.757398 
L 306.777049 162.650889 
L 307.054247 144.200176 
L 307.331446 149.390914 
L 307.608644 159.253315 
L 307.885842 157.460151 
L 308.16304 142.218258 
L 308.440238 144.105799 
L 308.717437 134.668094 
L 308.994635 176.429938 
L 309.271833 174.353643 
L 309.549031 144.813627 
L 309.82623 143.681102 
L 310.103428 162.509324 
L 310.657824 181.054414 
L 310.935022 178.128725 
L 311.212221 164.915938 
L 311.489419 167.936004 
L 311.766617 167.605684 
L 312.043815 169.681979 
L 312.321013 170.153864 
L 312.598212 164.444053 
L 312.87541 163.877791 
L 313.152608 165.104692 
L 313.429806 132.591799 
L 313.707004 166.378783 
L 313.984203 167.74725 
L 314.261401 168.219135 
L 314.538599 168.077569 
L 314.815797 152.458168 
L 315.092996 170.248241 
L 315.370194 118.104922 
L 315.647392 158.639865 
L 315.92459 132.025537 
L 316.201788 133.20525 
L 316.478987 146.418037 
L 316.756185 137.85332 
L 317.033383 98.144177 
L 317.310581 161.32961 
L 317.587779 163.736225 
L 317.864978 154.676029 
L 318.142176 164.727184 
L 318.419374 169.634791 
L 318.696572 120.983422 
L 318.97377 161.565553 
L 319.250969 139.339758 
L 319.528167 145.002381 
L 319.805365 145.568643 
L 320.359762 153.118807 
L 320.63696 104.042742 
L 320.914158 110.50757 
L 321.191356 142.407012 
L 321.468554 147.314619 
L 321.745753 125.041635 
L 322.022951 115.981439 
L 322.300149 151.608774 
L 322.577347 106.35498 
L 322.854545 117.727414 
L 323.131744 138.63193 
L 323.408942 144.766439 
L 323.68614 129.713299 
L 323.963338 131.412086 
L 324.240537 150.712193 
L 324.517735 124.805693 
L 324.794933 130.987389 
L 325.072131 167.558496 
L 325.349329 133.016496 
L 325.626528 139.386947 
L 325.903726 139.953209 
L 326.180924 149.815611 
L 326.458122 125.088824 
L 327.012519 155.336668 
L 327.289717 152.127848 
L 327.566915 130.798635 
L 327.844113 133.559164 
L 328.121311 121.172176 
L 328.39851 134.384963 
L 328.675708 159.158938 
L 328.952906 158.639865 
L 329.230104 141.321676 
L 329.507303 137.829725 
L 329.784501 141.51043 
L 330.061699 164.255299 
L 330.338897 128.203267 
L 330.616095 130.609881 
L 330.893294 161.140856 
L 331.170492 149.815611 
L 331.724888 159.11175 
L 332.002086 145.002381 
L 332.279285 147.361807 
L 332.556483 128.958283 
L 332.833681 149.839205 
L 333.110879 125.607898 
L 333.388077 142.831709 
L 333.665276 127.589816 
L 333.942474 124.380996 
L 334.49687 139.717266 
L 335.051267 133.016496 
L 335.328465 134.762471 
L 335.605663 143.728291 
L 335.882861 181.526299 
L 336.16006 160.857725 
L 336.437258 169.634791 
L 336.714456 170.342619 
L 336.991654 161.376799 
L 337.268852 174.77834 
L 337.546051 163.830602 
L 337.823249 122.163135 
L 338.100447 116.406136 
L 338.377645 122.918152 
L 338.654844 161.754307 
L 338.932042 165.057504 
L 339.20924 133.016496 
L 339.486438 149.20216 
L 339.763636 156.799512 
L 340.040835 129.713299 
L 340.318033 123.720357 
L 340.595231 168.171946 
L 340.872429 154.817594 
L 341.149627 149.20216 
L 341.426826 134.998414 
L 341.704024 171.522332 
L 341.981222 119.331824 
L 342.25842 139.481324 
L 342.535618 106.590923 
L 342.812817 135.423111 
L 343.090015 145.757398 
L 343.367213 135.187168 
L 343.644411 160.338651 
L 343.92161 123.531603 
L 344.198808 154.911971 
L 344.476006 132.450234 
L 345.030402 154.204143 
L 345.307601 151.655963 
L 345.584799 158.545488 
L 346.139195 116.547701 
L 346.416393 156.752324 
L 346.693592 140.283529 
L 346.97079 142.359824 
L 347.247988 155.572611 
L 348.079583 102.674275 
L 348.356781 160.338651 
L 348.633979 154.440086 
L 348.911177 130.798635 
L 349.188376 153.637881 
L 349.465574 127.542627 
L 349.742772 121.596873 
L 350.01997 106.496545 
L 350.297168 143.822668 
L 350.574367 159.819578 
L 350.851565 123.578791 
L 351.128763 109.799742 
L 351.405961 159.158938 
L 351.960358 151.278455 
L 352.237556 165.482201 
L 352.514754 155.855742 
L 352.791952 151.467209 
L 353.069151 155.950119 
L 353.346349 170.908881 
L 353.623547 86.960497 
L 353.900745 96.681332 
L 354.177943 142.312635 
L 354.455142 135.13998 
L 354.73234 150.287496 
L 355.009538 143.492348 
L 355.286736 152.599734 
L 355.563934 128.392021 
L 355.841133 143.303594 
L 356.118331 133.960266 
L 356.395529 153.543504 
L 356.672727 156.138873 
L 356.949925 141.085734 
L 357.227124 141.51043 
L 357.504322 122.02157 
L 357.78152 115.745496 
L 358.335917 150.098742 
L 358.613115 119.237447 
L 358.890313 119.567767 
L 359.167511 126.221349 
L 359.444709 146.984299 
L 359.721908 155.431045 
L 359.999106 156.044496 
L 360.276304 140.56666 
L 360.8307 162.320569 
L 361.107899 155.431045 
L 361.662295 164.160922 
L 361.939493 158.073602 
L 362.216692 126.268537 
L 362.49389 159.630824 
L 362.771088 155.808553 
L 363.325484 143.256406 
L 363.602683 158.545488 
L 363.879881 166.47316 
L 364.157079 151.302049 
L 364.434277 147.503373 
L 364.988674 162.037438 
L 365.54307 156.138873 
L 365.820268 156.799512 
L 366.097466 91.349029 
L 366.651863 155.997307 
L 366.929061 154.156955 
L 367.483458 118.954316 
L 367.760656 145.521455 
L 368.037854 144.813627 
L 368.315052 155.997307 
L 368.59225 159.394881 
L 369.146647 114.424218 
L 369.423845 103.098972 
L 369.701043 154.156955 
L 369.978241 156.280438 
L 370.25544 149.438102 
L 370.532638 156.091684 
L 370.809836 141.180111 
L 371.364232 97.766669 
L 371.641431 149.626856 
L 371.918629 130.421127 
L 372.195827 154.676029 
L 372.473025 149.957176 
L 372.750224 121.030611 
L 373.027422 120.181217 
L 373.30462 125.702275 
L 373.581818 141.651996 
L 373.581818 141.651996 
" style="fill:none;stroke:#000000;stroke-linecap:square;stroke-width:1.5;"/>
   </g>
   <g id="patch_3">
    <path d="M 54 252 
L 54 34.56 
" style="fill:none;stroke:#000000;stroke-linecap:square;stroke-linejoin:miter;stroke-width:0.8;"/>
   </g>
   <g id="patch_4">
    <path d="M 388.8 252 
L 388.8 34.56 
" style="fill:none;stroke:#000000;stroke-linecap:square;stroke-linejoin:miter;stroke-width:0.8;"/>
   </g>
   <g id="patch_5">
    <path d="M 54 252 
L 388.8 252 
" style="fill:none;stroke:#000000;stroke-linecap:square;stroke-linejoin:miter;stroke-width:0.8;"/>
   </g>
   <g id="patch_6">
    <path d="M 54 34.56 
L 388.8 34.56 
" style="fill:none;stroke:#000000;stroke-linecap:square;stroke-linejoin:miter;stroke-width:0.8;"/>
   </g>
   <g id="text_16">
    <!-- Soma Diária de Energia - Casa 3 -->
    <g transform="translate(124.230938 28.56)scale(0.12 -0.12)">
     <defs>
      <path d="M 53.515625 70.515625 
L 53.515625 60.890625 
Q 47.90625 63.578125 42.921875 64.890625 
Q 37.9375 66.21875 33.296875 66.21875 
Q 25.25 66.21875 20.875 63.09375 
Q 16.5 59.96875 16.5 54.203125 
Q 16.5 49.359375 19.40625 46.890625 
Q 22.3125 44.4375 30.421875 42.921875 
L 36.375 41.703125 
Q 47.40625 39.59375 52.65625 34.296875 
Q 57.90625 29 57.90625 20.125 
Q 57.90625 9.515625 50.796875 4.046875 
Q 43.703125 -1.421875 29.984375 -1.421875 
Q 24.8125 -1.421875 18.96875 -0.25 
Q 13.140625 0.921875 6.890625 3.21875 
L 6.890625 13.375 
Q 12.890625 10.015625 18.65625 8.296875 
Q 24.421875 6.59375 29.984375 6.59375 
Q 38.421875 6.59375 43.015625 9.90625 
Q 47.609375 13.234375 47.609375 19.390625 
Q 47.609375 24.75 44.3125 27.78125 
Q 41.015625 30.8125 33.5 32.328125 
L 27.484375 33.5 
Q 16.453125 35.6875 11.515625 40.375 
Q 6.59375 45.0625 6.59375 53.421875 
Q 6.59375 63.09375 13.40625 68.65625 
Q 20.21875 74.21875 32.171875 74.21875 
Q 37.3125 74.21875 42.625 73.28125 
Q 47.953125 72.359375 53.515625 70.515625 
z
" id="DejaVuSans-83"/>
      <path d="M 30.609375 48.390625 
Q 23.390625 48.390625 19.1875 42.75 
Q 14.984375 37.109375 14.984375 27.296875 
Q 14.984375 17.484375 19.15625 11.84375 
Q 23.34375 6.203125 30.609375 6.203125 
Q 37.796875 6.203125 41.984375 11.859375 
Q 46.1875 17.53125 46.1875 27.296875 
Q 46.1875 37.015625 41.984375 42.703125 
Q 37.796875 48.390625 30.609375 48.390625 
z
M 30.609375 56 
Q 42.328125 56 49.015625 48.375 
Q 55.71875 40.765625 55.71875 27.296875 
Q 55.71875 13.875 49.015625 6.21875 
Q 42.328125 -1.421875 30.609375 -1.421875 
Q 18.84375 -1.421875 12.171875 6.21875 
Q 5.515625 13.875 5.515625 27.296875 
Q 5.515625 40.765625 12.171875 48.375 
Q 18.84375 56 30.609375 56 
z
" id="DejaVuSans-111"/>
      <path d="M 52 44.1875 
Q 55.375 50.25 60.0625 53.125 
Q 64.75 56 71.09375 56 
Q 79.640625 56 84.28125 50.015625 
Q 88.921875 44.046875 88.921875 33.015625 
L 88.921875 0 
L 79.890625 0 
L 79.890625 32.71875 
Q 79.890625 40.578125 77.09375 44.375 
Q 74.3125 48.1875 68.609375 48.1875 
Q 61.625 48.1875 57.5625 43.546875 
Q 53.515625 38.921875 53.515625 30.90625 
L 53.515625 0 
L 44.484375 0 
L 44.484375 32.71875 
Q 44.484375 40.625 41.703125 44.40625 
Q 38.921875 48.1875 33.109375 48.1875 
Q 26.21875 48.1875 22.15625 43.53125 
Q 18.109375 38.875 18.109375 30.90625 
L 18.109375 0 
L 9.078125 0 
L 9.078125 54.6875 
L 18.109375 54.6875 
L 18.109375 46.1875 
Q 21.1875 51.21875 25.484375 53.609375 
Q 29.78125 56 35.6875 56 
Q 41.65625 56 45.828125 52.96875 
Q 50 49.953125 52 44.1875 
z
" id="DejaVuSans-109"/>
      <path d="M 34.28125 27.484375 
Q 23.390625 27.484375 19.1875 25 
Q 14.984375 22.515625 14.984375 16.5 
Q 14.984375 11.71875 18.140625 8.90625 
Q 21.296875 6.109375 26.703125 6.109375 
Q 34.1875 6.109375 38.703125 11.40625 
Q 43.21875 16.703125 43.21875 25.484375 
L 43.21875 27.484375 
z
M 52.203125 31.203125 
L 52.203125 0 
L 43.21875 0 
L 43.21875 8.296875 
Q 40.140625 3.328125 35.546875 0.953125 
Q 30.953125 -1.421875 24.3125 -1.421875 
Q 15.921875 -1.421875 10.953125 3.296875 
Q 6 8.015625 6 15.921875 
Q 6 25.140625 12.171875 29.828125 
Q 18.359375 34.515625 30.609375 34.515625 
L 43.21875 34.515625 
L 43.21875 35.40625 
Q 43.21875 41.609375 39.140625 45 
Q 35.0625 48.390625 27.6875 48.390625 
Q 23 48.390625 18.546875 47.265625 
Q 14.109375 46.140625 10.015625 43.890625 
L 10.015625 52.203125 
Q 14.9375 54.109375 19.578125 55.046875 
Q 24.21875 56 28.609375 56 
Q 40.484375 56 46.34375 49.84375 
Q 52.203125 43.703125 52.203125 31.203125 
z
" id="DejaVuSans-97"/>
      <path id="DejaVuSans-32"/>
      <path d="M 19.671875 64.796875 
L 19.671875 8.109375 
L 31.59375 8.109375 
Q 46.6875 8.109375 53.6875 14.9375 
Q 60.6875 21.78125 60.6875 36.53125 
Q 60.6875 51.171875 53.6875 57.984375 
Q 46.6875 64.796875 31.59375 64.796875 
z
M 9.8125 72.90625 
L 30.078125 72.90625 
Q 51.265625 72.90625 61.171875 64.09375 
Q 71.09375 55.28125 71.09375 36.53125 
Q 71.09375 17.671875 61.125 8.828125 
Q 51.171875 0 30.078125 0 
L 9.8125 0 
z
" id="DejaVuSans-68"/>
      <path d="M 9.421875 54.6875 
L 18.40625 54.6875 
L 18.40625 0 
L 9.421875 0 
z
M 9.421875 75.984375 
L 18.40625 75.984375 
L 18.40625 64.59375 
L 9.421875 64.59375 
z
" id="DejaVuSans-105"/>
      <path d="M 34.28125 27.484375 
Q 23.390625 27.484375 19.1875 25 
Q 14.984375 22.515625 14.984375 16.5 
Q 14.984375 11.71875 18.140625 8.90625 
Q 21.296875 6.109375 26.703125 6.109375 
Q 34.1875 6.109375 38.703125 11.40625 
Q 43.21875 16.703125 43.21875 25.484375 
L 43.21875 27.484375 
z
M 52.203125 31.203125 
L 52.203125 0 
L 43.21875 0 
L 43.21875 8.296875 
Q 40.140625 3.328125 35.546875 0.953125 
Q 30.953125 -1.421875 24.3125 -1.421875 
Q 15.921875 -1.421875 10.953125 3.296875 
Q 6 8.015625 6 15.921875 
Q 6 25.140625 12.171875 29.828125 
Q 18.359375 34.515625 30.609375 34.515625 
L 43.21875 34.515625 
L 43.21875 35.40625 
Q 43.21875 41.609375 39.140625 45 
Q 35.0625 48.390625 27.6875 48.390625 
Q 23 48.390625 18.546875 47.265625 
Q 14.109375 46.140625 10.015625 43.890625 
L 10.015625 52.203125 
Q 14.9375 54.109375 19.578125 55.046875 
Q 24.21875 56 28.609375 56 
Q 40.484375 56 46.34375 49.84375 
Q 52.203125 43.703125 52.203125 31.203125 
z
M 35.796875 79.984375 
L 45.515625 79.984375 
L 29.59375 61.625 
L 22.125 61.625 
z
" id="DejaVuSans-225"/>
      <path d="M 41.109375 46.296875 
Q 39.59375 47.171875 37.8125 47.578125 
Q 36.03125 48 33.890625 48 
Q 26.265625 48 22.1875 43.046875 
Q 18.109375 38.09375 18.109375 28.8125 
L 18.109375 0 
L 9.078125 0 
L 9.078125 54.6875 
L 18.109375 54.6875 
L 18.109375 46.1875 
Q 20.953125 51.171875 25.484375 53.578125 
Q 30.03125 56 36.53125 56 
Q 37.453125 56 38.578125 55.875 
Q 39.703125 55.765625 41.0625 55.515625 
z
" id="DejaVuSans-114"/>
      <path d="M 45.40625 46.390625 
L 45.40625 75.984375 
L 54.390625 75.984375 
L 54.390625 0 
L 45.40625 0 
L 45.40625 8.203125 
Q 42.578125 3.328125 38.25 0.953125 
Q 33.9375 -1.421875 27.875 -1.421875 
Q 17.96875 -1.421875 11.734375 6.484375 
Q 5.515625 14.40625 5.515625 27.296875 
Q 5.515625 40.1875 11.734375 48.09375 
Q 17.96875 56 27.875 56 
Q 33.9375 56 38.25 53.625 
Q 42.578125 51.265625 45.40625 46.390625 
z
M 14.796875 27.296875 
Q 14.796875 17.390625 18.875 11.75 
Q 22.953125 6.109375 30.078125 6.109375 
Q 37.203125 6.109375 41.296875 11.75 
Q 45.40625 17.390625 45.40625 27.296875 
Q 45.40625 37.203125 41.296875 42.84375 
Q 37.203125 48.484375 30.078125 48.484375 
Q 22.953125 48.484375 18.875 42.84375 
Q 14.796875 37.203125 14.796875 27.296875 
z
" id="DejaVuSans-100"/>
      <path d="M 56.203125 29.59375 
L 56.203125 25.203125 
L 14.890625 25.203125 
Q 15.484375 15.921875 20.484375 11.0625 
Q 25.484375 6.203125 34.421875 6.203125 
Q 39.59375 6.203125 44.453125 7.46875 
Q 49.3125 8.734375 54.109375 11.28125 
L 54.109375 2.78125 
Q 49.265625 0.734375 44.1875 -0.34375 
Q 39.109375 -1.421875 33.890625 -1.421875 
Q 20.796875 -1.421875 13.15625 6.1875 
Q 5.515625 13.8125 5.515625 26.8125 
Q 5.515625 40.234375 12.765625 48.109375 
Q 20.015625 56 32.328125 56 
Q 43.359375 56 49.78125 48.890625 
Q 56.203125 41.796875 56.203125 29.59375 
z
M 47.21875 32.234375 
Q 47.125 39.59375 43.09375 43.984375 
Q 39.0625 48.390625 32.421875 48.390625 
Q 24.90625 48.390625 20.390625 44.140625 
Q 15.875 39.890625 15.1875 32.171875 
z
" id="DejaVuSans-101"/>
      <path d="M 9.8125 72.90625 
L 55.90625 72.90625 
L 55.90625 64.59375 
L 19.671875 64.59375 
L 19.671875 43.015625 
L 54.390625 43.015625 
L 54.390625 34.71875 
L 19.671875 34.71875 
L 19.671875 8.296875 
L 56.78125 8.296875 
L 56.78125 0 
L 9.8125 0 
z
" id="DejaVuSans-69"/>
      <path d="M 54.890625 33.015625 
L 54.890625 0 
L 45.90625 0 
L 45.90625 32.71875 
Q 45.90625 40.484375 42.875 44.328125 
Q 39.84375 48.1875 33.796875 48.1875 
Q 26.515625 48.1875 22.3125 43.546875 
Q 18.109375 38.921875 18.109375 30.90625 
L 18.109375 0 
L 9.078125 0 
L 9.078125 54.6875 
L 18.109375 54.6875 
L 18.109375 46.1875 
Q 21.34375 51.125 25.703125 53.5625 
Q 30.078125 56 35.796875 56 
Q 45.21875 56 50.046875 50.171875 
Q 54.890625 44.34375 54.890625 33.015625 
z
" id="DejaVuSans-110"/>
      <path d="M 45.40625 27.984375 
Q 45.40625 37.75 41.375 43.109375 
Q 37.359375 48.484375 30.078125 48.484375 
Q 22.859375 48.484375 18.828125 43.109375 
Q 14.796875 37.75 14.796875 27.984375 
Q 14.796875 18.265625 18.828125 12.890625 
Q 22.859375 7.515625 30.078125 7.515625 
Q 37.359375 7.515625 41.375 12.890625 
Q 45.40625 18.265625 45.40625 27.984375 
z
M 54.390625 6.78125 
Q 54.390625 -7.171875 48.1875 -13.984375 
Q 42 -20.796875 29.203125 -20.796875 
Q 24.46875 -20.796875 20.265625 -20.09375 
Q 16.0625 -19.390625 12.109375 -17.921875 
L 12.109375 -9.1875 
Q 16.0625 -11.328125 19.921875 -12.34375 
Q 23.78125 -13.375 27.78125 -13.375 
Q 36.625 -13.375 41.015625 -8.765625 
Q 45.40625 -4.15625 45.40625 5.171875 
L 45.40625 9.625 
Q 42.625 4.78125 38.28125 2.390625 
Q 33.9375 0 27.875 0 
Q 17.828125 0 11.671875 7.65625 
Q 5.515625 15.328125 5.515625 27.984375 
Q 5.515625 40.671875 11.671875 48.328125 
Q 17.828125 56 27.875 56 
Q 33.9375 56 38.28125 53.609375 
Q 42.625 51.21875 45.40625 46.390625 
L 45.40625 54.6875 
L 54.390625 54.6875 
z
" id="DejaVuSans-103"/>
      <path d="M 64.40625 67.28125 
L 64.40625 56.890625 
Q 59.421875 61.53125 53.78125 63.8125 
Q 48.140625 66.109375 41.796875 66.109375 
Q 29.296875 66.109375 22.65625 58.46875 
Q 16.015625 50.828125 16.015625 36.375 
Q 16.015625 21.96875 22.65625 14.328125 
Q 29.296875 6.6875 41.796875 6.6875 
Q 48.140625 6.6875 53.78125 8.984375 
Q 59.421875 11.28125 64.40625 15.921875 
L 64.40625 5.609375 
Q 59.234375 2.09375 53.4375 0.328125 
Q 47.65625 -1.421875 41.21875 -1.421875 
Q 24.65625 -1.421875 15.125 8.703125 
Q 5.609375 18.84375 5.609375 36.375 
Q 5.609375 53.953125 15.125 64.078125 
Q 24.65625 74.21875 41.21875 74.21875 
Q 47.75 74.21875 53.53125 72.484375 
Q 59.328125 70.75 64.40625 67.28125 
z
" id="DejaVuSans-67"/>
      <path d="M 44.28125 53.078125 
L 44.28125 44.578125 
Q 40.484375 46.53125 36.375 47.5 
Q 32.28125 48.484375 27.875 48.484375 
Q 21.1875 48.484375 17.84375 46.4375 
Q 14.5 44.390625 14.5 40.28125 
Q 14.5 37.15625 16.890625 35.375 
Q 19.28125 33.59375 26.515625 31.984375 
L 29.59375 31.296875 
Q 39.15625 29.25 43.1875 25.515625 
Q 47.21875 21.78125 47.21875 15.09375 
Q 47.21875 7.46875 41.1875 3.015625 
Q 35.15625 -1.421875 24.609375 -1.421875 
Q 20.21875 -1.421875 15.453125 -0.5625 
Q 10.6875 0.296875 5.421875 2 
L 5.421875 11.28125 
Q 10.40625 8.6875 15.234375 7.390625 
Q 20.0625 6.109375 24.8125 6.109375 
Q 31.15625 6.109375 34.5625 8.28125 
Q 37.984375 10.453125 37.984375 14.40625 
Q 37.984375 18.0625 35.515625 20.015625 
Q 33.0625 21.96875 24.703125 23.78125 
L 21.578125 24.515625 
Q 13.234375 26.265625 9.515625 29.90625 
Q 5.8125 33.546875 5.8125 39.890625 
Q 5.8125 47.609375 11.28125 51.796875 
Q 16.75 56 26.8125 56 
Q 31.78125 56 36.171875 55.265625 
Q 40.578125 54.546875 44.28125 53.078125 
z
" id="DejaVuSans-115"/>
     </defs>
     <use xlink:href="#DejaVuSans-83"/>
     <use x="63.476562" xlink:href="#DejaVuSans-111"/>
     <use x="124.658203" xlink:href="#DejaVuSans-109"/>
     <use x="222.070312" xlink:href="#DejaVuSans-97"/>
     <use x="283.349609" xlink:href="#DejaVuSans-32"/>
     <use x="315.136719" xlink:href="#DejaVuSans-68"/>
     <use x="392.138672" xlink:href="#DejaVuSans-105"/>
     <use x="419.921875" xlink:href="#DejaVuSans-225"/>
     <use x="481.201172" xlink:href="#DejaVuSans-114"/>
     <use x="522.314453" xlink:href="#DejaVuSans-105"/>
     <use x="550.097656" xlink:href="#DejaVuSans-97"/>
     <use x="611.376953" xlink:href="#DejaVuSans-32"/>
     <use x="643.164062" xlink:href="#DejaVuSans-100"/>
     <use x="706.640625" xlink:href="#DejaVuSans-101"/>
     <use x="768.164062" xlink:href="#DejaVuSans-32"/>
     <use x="799.951172" xlink:href="#DejaVuSans-69"/>
     <use x="863.134766" xlink:href="#DejaVuSans-110"/>
     <use x="926.513672" xlink:href="#DejaVuSans-101"/>
     <use x="988.037109" xlink:href="#DejaVuSans-114"/>
     <use x="1027.400391" xlink:href="#DejaVuSans-103"/>
     <use x="1090.876953" xlink:href="#DejaVuSans-105"/>
     <use x="1118.660156" xlink:href="#DejaVuSans-97"/>
     <use x="1179.939453" xlink:href="#DejaVuSans-32"/>
     <use x="1211.726562" xlink:href="#DejaVuSans-45"/>
     <use x="1247.810547" xlink:href="#DejaVuSans-32"/>
     <use x="1279.597656" xlink:href="#DejaVuSans-67"/>
     <use x="1349.421875" xlink:href="#DejaVuSans-97"/>
     <use x="1410.701172" xlink:href="#DejaVuSans-115"/>
     <use x="1462.800781" xlink:href="#DejaVuSans-97"/>
     <use x="1524.080078" xlink:href="#DejaVuSans-32"/>
     <use x="1555.867188" xlink:href="#DejaVuSans-51"/>
    </g>
   </g>
  </g>
 </g>
 <defs>
  <clipPath id="p0c362cf3d8">
   <rect height="217.44" width="334.8" x="54" y="34.56"/>
  </clipPath>
 </defs>
</svg>
