<?xml version="1.0" encoding="utf-8" standalone="no"?>
<!DOCTYPE svg PUBLIC "-//W3C//DTD SVG 1.1//EN"
  "http://www.w3.org/Graphics/SVG/1.1/DTD/svg11.dtd">
<!-- Created with matplotlib (https://matplotlib.org/) -->
<svg height="288pt" version="1.1" viewBox="0 0 432 288" width="432pt" xmlns="http://www.w3.org/2000/svg" xmlns:xlink="http://www.w3.org/1999/xlink">
 <metadata>
  <rdf:RDF xmlns:cc="http://creativecommons.org/ns#" xmlns:dc="http://purl.org/dc/elements/1.1/" xmlns:rdf="http://www.w3.org/1999/02/22-rdf-syntax-ns#">
   <cc:Work>
    <dc:type rdf:resource="http://purl.org/dc/dcmitype/StillImage"/>
    <dc:date>2021-07-21T14:57:51.094090</dc:date>
    <dc:format>image/svg+xml</dc:format>
    <dc:creator>
     <cc:Agent>
      <dc:title>Matplotlib v3.3.4, https://matplotlib.org/</dc:title>
     </cc:Agent>
    </dc:creator>
   </cc:Work>
  </rdf:RDF>
 </metadata>
 <defs>
  <style type="text/css">*{stroke-linecap:butt;stroke-linejoin:round;}</style>
 </defs>
 <g id="figure_1">
  <g id="patch_1">
   <path d="M 0 288 
L 432 288 
L 432 0 
L 0 0 
z
" style="fill:#ffffff;"/>
  </g>
  <g id="axes_1">
   <g id="patch_2">
    <path d="M 54 252 
L 388.8 252 
L 388.8 34.56 
L 54 34.56 
z
" style="fill:#ffffff;"/>
   </g>
   <g id="matplotlib.axis_1">
    <g id="xtick_1">
     <g id="line2d_1">
      <defs>
       <path d="M 0 0 
L 0 3.5 
" id="m7d81dd769a" style="stroke:#000000;stroke-width:0.8;"/>
      </defs>
      <g>
       <use style="stroke:#000000;stroke-width:0.8;" x="82.004234" xlink:href="#m7d81dd769a" y="252"/>
      </g>
     </g>
     <g id="text_1">
      <!-- 2015-05 -->
      <g transform="translate(69.182952 293.917817)rotate(-45)scale(0.1 -0.1)">
       <defs>
        <path d="M 19.1875 8.296875 
L 53.609375 8.296875 
L 53.609375 0 
L 7.328125 0 
L 7.328125 8.296875 
Q 12.9375 14.109375 22.625 23.890625 
Q 32.328125 33.6875 34.8125 36.53125 
Q 39.546875 41.84375 41.421875 45.53125 
Q 43.3125 49.21875 43.3125 52.78125 
Q 43.3125 58.59375 39.234375 62.25 
Q 35.15625 65.921875 28.609375 65.921875 
Q 23.96875 65.921875 18.8125 64.3125 
Q 13.671875 62.703125 7.8125 59.421875 
L 7.8125 69.390625 
Q 13.765625 71.78125 18.9375 73 
Q 24.125 74.21875 28.421875 74.21875 
Q 39.75 74.21875 46.484375 68.546875 
Q 53.21875 62.890625 53.21875 53.421875 
Q 53.21875 48.921875 51.53125 44.890625 
Q 49.859375 40.875 45.40625 35.40625 
Q 44.1875 33.984375 37.640625 27.21875 
Q 31.109375 20.453125 19.1875 8.296875 
z
" id="DejaVuSans-50"/>
        <path d="M 31.78125 66.40625 
Q 24.171875 66.40625 20.328125 58.90625 
Q 16.5 51.421875 16.5 36.375 
Q 16.5 21.390625 20.328125 13.890625 
Q 24.171875 6.390625 31.78125 6.390625 
Q 39.453125 6.390625 43.28125 13.890625 
Q 47.125 21.390625 47.125 36.375 
Q 47.125 51.421875 43.28125 58.90625 
Q 39.453125 66.40625 31.78125 66.40625 
z
M 31.78125 74.21875 
Q 44.046875 74.21875 50.515625 64.515625 
Q 56.984375 54.828125 56.984375 36.375 
Q 56.984375 17.96875 50.515625 8.265625 
Q 44.046875 -1.421875 31.78125 -1.421875 
Q 19.53125 -1.421875 13.0625 8.265625 
Q 6.59375 17.96875 6.59375 36.375 
Q 6.59375 54.828125 13.0625 64.515625 
Q 19.53125 74.21875 31.78125 74.21875 
z
" id="DejaVuSans-48"/>
        <path d="M 12.40625 8.296875 
L 28.515625 8.296875 
L 28.515625 63.921875 
L 10.984375 60.40625 
L 10.984375 69.390625 
L 28.421875 72.90625 
L 38.28125 72.90625 
L 38.28125 8.296875 
L 54.390625 8.296875 
L 54.390625 0 
L 12.40625 0 
z
" id="DejaVuSans-49"/>
        <path d="M 10.796875 72.90625 
L 49.515625 72.90625 
L 49.515625 64.59375 
L 19.828125 64.59375 
L 19.828125 46.734375 
Q 21.96875 47.46875 24.109375 47.828125 
Q 26.265625 48.1875 28.421875 48.1875 
Q 40.625 48.1875 47.75 41.5 
Q 54.890625 34.8125 54.890625 23.390625 
Q 54.890625 11.625 47.5625 5.09375 
Q 40.234375 -1.421875 26.90625 -1.421875 
Q 22.3125 -1.421875 17.546875 -0.640625 
Q 12.796875 0.140625 7.71875 1.703125 
L 7.71875 11.625 
Q 12.109375 9.234375 16.796875 8.0625 
Q 21.484375 6.890625 26.703125 6.890625 
Q 35.15625 6.890625 40.078125 11.328125 
Q 45.015625 15.765625 45.015625 23.390625 
Q 45.015625 31 40.078125 35.4375 
Q 35.15625 39.890625 26.703125 39.890625 
Q 22.75 39.890625 18.8125 39.015625 
Q 14.890625 38.140625 10.796875 36.28125 
z
" id="DejaVuSans-53"/>
        <path d="M 4.890625 31.390625 
L 31.203125 31.390625 
L 31.203125 23.390625 
L 4.890625 23.390625 
z
" id="DejaVuSans-45"/>
       </defs>
       <use xlink:href="#DejaVuSans-50"/>
       <use x="63.623047" xlink:href="#DejaVuSans-48"/>
       <use x="127.246094" xlink:href="#DejaVuSans-49"/>
       <use x="190.869141" xlink:href="#DejaVuSans-53"/>
       <use x="254.492188" xlink:href="#DejaVuSans-45"/>
       <use x="290.576172" xlink:href="#DejaVuSans-48"/>
       <use x="354.199219" xlink:href="#DejaVuSans-53"/>
      </g>
     </g>
    </g>
    <g id="xtick_2">
     <g id="line2d_2">
      <g>
       <use style="stroke:#000000;stroke-width:0.8;" x="116.193026" xlink:href="#m7d81dd769a" y="252"/>
      </g>
     </g>
     <g id="text_2">
      <!-- 2015-09 -->
      <g transform="translate(103.371744 293.917817)rotate(-45)scale(0.1 -0.1)">
       <defs>
        <path d="M 10.984375 1.515625 
L 10.984375 10.5 
Q 14.703125 8.734375 18.5 7.8125 
Q 22.3125 6.890625 25.984375 6.890625 
Q 35.75 6.890625 40.890625 13.453125 
Q 46.046875 20.015625 46.78125 33.40625 
Q 43.953125 29.203125 39.59375 26.953125 
Q 35.25 24.703125 29.984375 24.703125 
Q 19.046875 24.703125 12.671875 31.3125 
Q 6.296875 37.9375 6.296875 49.421875 
Q 6.296875 60.640625 12.9375 67.421875 
Q 19.578125 74.21875 30.609375 74.21875 
Q 43.265625 74.21875 49.921875 64.515625 
Q 56.59375 54.828125 56.59375 36.375 
Q 56.59375 19.140625 48.40625 8.859375 
Q 40.234375 -1.421875 26.421875 -1.421875 
Q 22.703125 -1.421875 18.890625 -0.6875 
Q 15.09375 0.046875 10.984375 1.515625 
z
M 30.609375 32.421875 
Q 37.25 32.421875 41.125 36.953125 
Q 45.015625 41.5 45.015625 49.421875 
Q 45.015625 57.28125 41.125 61.84375 
Q 37.25 66.40625 30.609375 66.40625 
Q 23.96875 66.40625 20.09375 61.84375 
Q 16.21875 57.28125 16.21875 49.421875 
Q 16.21875 41.5 20.09375 36.953125 
Q 23.96875 32.421875 30.609375 32.421875 
z
" id="DejaVuSans-57"/>
       </defs>
       <use xlink:href="#DejaVuSans-50"/>
       <use x="63.623047" xlink:href="#DejaVuSans-48"/>
       <use x="127.246094" xlink:href="#DejaVuSans-49"/>
       <use x="190.869141" xlink:href="#DejaVuSans-53"/>
       <use x="254.492188" xlink:href="#DejaVuSans-45"/>
       <use x="290.576172" xlink:href="#DejaVuSans-48"/>
       <use x="354.199219" xlink:href="#DejaVuSans-57"/>
      </g>
     </g>
    </g>
    <g id="xtick_3">
     <g id="line2d_3">
      <g>
       <use style="stroke:#000000;stroke-width:0.8;" x="150.103861" xlink:href="#m7d81dd769a" y="252"/>
      </g>
     </g>
     <g id="text_3">
      <!-- 2016-01 -->
      <g transform="translate(137.282578 293.917817)rotate(-45)scale(0.1 -0.1)">
       <defs>
        <path d="M 33.015625 40.375 
Q 26.375 40.375 22.484375 35.828125 
Q 18.609375 31.296875 18.609375 23.390625 
Q 18.609375 15.53125 22.484375 10.953125 
Q 26.375 6.390625 33.015625 6.390625 
Q 39.65625 6.390625 43.53125 10.953125 
Q 47.40625 15.53125 47.40625 23.390625 
Q 47.40625 31.296875 43.53125 35.828125 
Q 39.65625 40.375 33.015625 40.375 
z
M 52.59375 71.296875 
L 52.59375 62.3125 
Q 48.875 64.0625 45.09375 64.984375 
Q 41.3125 65.921875 37.59375 65.921875 
Q 27.828125 65.921875 22.671875 59.328125 
Q 17.53125 52.734375 16.796875 39.40625 
Q 19.671875 43.65625 24.015625 45.921875 
Q 28.375 48.1875 33.59375 48.1875 
Q 44.578125 48.1875 50.953125 41.515625 
Q 57.328125 34.859375 57.328125 23.390625 
Q 57.328125 12.15625 50.6875 5.359375 
Q 44.046875 -1.421875 33.015625 -1.421875 
Q 20.359375 -1.421875 13.671875 8.265625 
Q 6.984375 17.96875 6.984375 36.375 
Q 6.984375 53.65625 15.1875 63.9375 
Q 23.390625 74.21875 37.203125 74.21875 
Q 40.921875 74.21875 44.703125 73.484375 
Q 48.484375 72.75 52.59375 71.296875 
z
" id="DejaVuSans-54"/>
       </defs>
       <use xlink:href="#DejaVuSans-50"/>
       <use x="63.623047" xlink:href="#DejaVuSans-48"/>
       <use x="127.246094" xlink:href="#DejaVuSans-49"/>
       <use x="190.869141" xlink:href="#DejaVuSans-54"/>
       <use x="254.492188" xlink:href="#DejaVuSans-45"/>
       <use x="290.576172" xlink:href="#DejaVuSans-48"/>
       <use x="354.199219" xlink:href="#DejaVuSans-49"/>
      </g>
     </g>
    </g>
    <g id="xtick_4">
     <g id="line2d_4">
      <g>
       <use style="stroke:#000000;stroke-width:0.8;" x="183.736737" xlink:href="#m7d81dd769a" y="252"/>
      </g>
     </g>
     <g id="text_4">
      <!-- 2016-05 -->
      <g transform="translate(170.915455 293.917817)rotate(-45)scale(0.1 -0.1)">
       <use xlink:href="#DejaVuSans-50"/>
       <use x="63.623047" xlink:href="#DejaVuSans-48"/>
       <use x="127.246094" xlink:href="#DejaVuSans-49"/>
       <use x="190.869141" xlink:href="#DejaVuSans-54"/>
       <use x="254.492188" xlink:href="#DejaVuSans-45"/>
       <use x="290.576172" xlink:href="#DejaVuSans-48"/>
       <use x="354.199219" xlink:href="#DejaVuSans-53"/>
      </g>
     </g>
    </g>
    <g id="xtick_5">
     <g id="line2d_5">
      <g>
       <use style="stroke:#000000;stroke-width:0.8;" x="217.925529" xlink:href="#m7d81dd769a" y="252"/>
      </g>
     </g>
     <g id="text_5">
      <!-- 2016-09 -->
      <g transform="translate(205.104247 293.917817)rotate(-45)scale(0.1 -0.1)">
       <use xlink:href="#DejaVuSans-50"/>
       <use x="63.623047" xlink:href="#DejaVuSans-48"/>
       <use x="127.246094" xlink:href="#DejaVuSans-49"/>
       <use x="190.869141" xlink:href="#DejaVuSans-54"/>
       <use x="254.492188" xlink:href="#DejaVuSans-45"/>
       <use x="290.576172" xlink:href="#DejaVuSans-48"/>
       <use x="354.199219" xlink:href="#DejaVuSans-57"/>
      </g>
     </g>
    </g>
    <g id="xtick_6">
     <g id="line2d_6">
      <g>
       <use style="stroke:#000000;stroke-width:0.8;" x="251.836364" xlink:href="#m7d81dd769a" y="252"/>
      </g>
     </g>
     <g id="text_6">
      <!-- 2017-01 -->
      <g transform="translate(239.015081 293.917817)rotate(-45)scale(0.1 -0.1)">
       <defs>
        <path d="M 8.203125 72.90625 
L 55.078125 72.90625 
L 55.078125 68.703125 
L 28.609375 0 
L 18.3125 0 
L 43.21875 64.59375 
L 8.203125 64.59375 
z
" id="DejaVuSans-55"/>
       </defs>
       <use xlink:href="#DejaVuSans-50"/>
       <use x="63.623047" xlink:href="#DejaVuSans-48"/>
       <use x="127.246094" xlink:href="#DejaVuSans-49"/>
       <use x="190.869141" xlink:href="#DejaVuSans-55"/>
       <use x="254.492188" xlink:href="#DejaVuSans-45"/>
       <use x="290.576172" xlink:href="#DejaVuSans-48"/>
       <use x="354.199219" xlink:href="#DejaVuSans-49"/>
      </g>
     </g>
    </g>
    <g id="xtick_7">
     <g id="line2d_7">
      <g>
       <use style="stroke:#000000;stroke-width:0.8;" x="285.191283" xlink:href="#m7d81dd769a" y="252"/>
      </g>
     </g>
     <g id="text_7">
      <!-- 2017-05 -->
      <g transform="translate(272.37 293.917817)rotate(-45)scale(0.1 -0.1)">
       <use xlink:href="#DejaVuSans-50"/>
       <use x="63.623047" xlink:href="#DejaVuSans-48"/>
       <use x="127.246094" xlink:href="#DejaVuSans-49"/>
       <use x="190.869141" xlink:href="#DejaVuSans-55"/>
       <use x="254.492188" xlink:href="#DejaVuSans-45"/>
       <use x="290.576172" xlink:href="#DejaVuSans-48"/>
       <use x="354.199219" xlink:href="#DejaVuSans-53"/>
      </g>
     </g>
    </g>
    <g id="xtick_8">
     <g id="line2d_8">
      <g>
       <use style="stroke:#000000;stroke-width:0.8;" x="319.380075" xlink:href="#m7d81dd769a" y="252"/>
      </g>
     </g>
     <g id="text_8">
      <!-- 2017-09 -->
      <g transform="translate(306.558792 293.917817)rotate(-45)scale(0.1 -0.1)">
       <use xlink:href="#DejaVuSans-50"/>
       <use x="63.623047" xlink:href="#DejaVuSans-48"/>
       <use x="127.246094" xlink:href="#DejaVuSans-49"/>
       <use x="190.869141" xlink:href="#DejaVuSans-55"/>
       <use x="254.492188" xlink:href="#DejaVuSans-45"/>
       <use x="290.576172" xlink:href="#DejaVuSans-48"/>
       <use x="354.199219" xlink:href="#DejaVuSans-57"/>
      </g>
     </g>
    </g>
    <g id="xtick_9">
     <g id="line2d_9">
      <g>
       <use style="stroke:#000000;stroke-width:0.8;" x="353.290909" xlink:href="#m7d81dd769a" y="252"/>
      </g>
     </g>
     <g id="text_9">
      <!-- 2018-01 -->
      <g transform="translate(340.469627 293.917817)rotate(-45)scale(0.1 -0.1)">
       <defs>
        <path d="M 31.78125 34.625 
Q 24.75 34.625 20.71875 30.859375 
Q 16.703125 27.09375 16.703125 20.515625 
Q 16.703125 13.921875 20.71875 10.15625 
Q 24.75 6.390625 31.78125 6.390625 
Q 38.8125 6.390625 42.859375 10.171875 
Q 46.921875 13.96875 46.921875 20.515625 
Q 46.921875 27.09375 42.890625 30.859375 
Q 38.875 34.625 31.78125 34.625 
z
M 21.921875 38.8125 
Q 15.578125 40.375 12.03125 44.71875 
Q 8.5 49.078125 8.5 55.328125 
Q 8.5 64.0625 14.71875 69.140625 
Q 20.953125 74.21875 31.78125 74.21875 
Q 42.671875 74.21875 48.875 69.140625 
Q 55.078125 64.0625 55.078125 55.328125 
Q 55.078125 49.078125 51.53125 44.71875 
Q 48 40.375 41.703125 38.8125 
Q 48.828125 37.15625 52.796875 32.3125 
Q 56.78125 27.484375 56.78125 20.515625 
Q 56.78125 9.90625 50.3125 4.234375 
Q 43.84375 -1.421875 31.78125 -1.421875 
Q 19.734375 -1.421875 13.25 4.234375 
Q 6.78125 9.90625 6.78125 20.515625 
Q 6.78125 27.484375 10.78125 32.3125 
Q 14.796875 37.15625 21.921875 38.8125 
z
M 18.3125 54.390625 
Q 18.3125 48.734375 21.84375 45.5625 
Q 25.390625 42.390625 31.78125 42.390625 
Q 38.140625 42.390625 41.71875 45.5625 
Q 45.3125 48.734375 45.3125 54.390625 
Q 45.3125 60.0625 41.71875 63.234375 
Q 38.140625 66.40625 31.78125 66.40625 
Q 25.390625 66.40625 21.84375 63.234375 
Q 18.3125 60.0625 18.3125 54.390625 
z
" id="DejaVuSans-56"/>
       </defs>
       <use xlink:href="#DejaVuSans-50"/>
       <use x="63.623047" xlink:href="#DejaVuSans-48"/>
       <use x="127.246094" xlink:href="#DejaVuSans-49"/>
       <use x="190.869141" xlink:href="#DejaVuSans-56"/>
       <use x="254.492188" xlink:href="#DejaVuSans-45"/>
       <use x="290.576172" xlink:href="#DejaVuSans-48"/>
       <use x="354.199219" xlink:href="#DejaVuSans-49"/>
      </g>
     </g>
    </g>
    <g id="xtick_10">
     <g id="line2d_10">
      <g>
       <use style="stroke:#000000;stroke-width:0.8;" x="386.645828" xlink:href="#m7d81dd769a" y="252"/>
      </g>
     </g>
     <g id="text_10">
      <!-- 2018-05 -->
      <g transform="translate(373.824546 293.917817)rotate(-45)scale(0.1 -0.1)">
       <use xlink:href="#DejaVuSans-50"/>
       <use x="63.623047" xlink:href="#DejaVuSans-48"/>
       <use x="127.246094" xlink:href="#DejaVuSans-49"/>
       <use x="190.869141" xlink:href="#DejaVuSans-56"/>
       <use x="254.492188" xlink:href="#DejaVuSans-45"/>
       <use x="290.576172" xlink:href="#DejaVuSans-48"/>
       <use x="354.199219" xlink:href="#DejaVuSans-53"/>
      </g>
     </g>
    </g>
   </g>
   <g id="matplotlib.axis_2">
    <g id="ytick_1">
     <g id="line2d_11">
      <defs>
       <path d="M 0 0 
L -3.5 0 
" id="mc00e867833" style="stroke:#000000;stroke-width:0.8;"/>
      </defs>
      <g>
       <use style="stroke:#000000;stroke-width:0.8;" x="54" xlink:href="#mc00e867833" y="242.116364"/>
      </g>
     </g>
     <g id="text_11">
      <!-- 0 -->
      <g transform="translate(40.6375 245.915582)scale(0.1 -0.1)">
       <use xlink:href="#DejaVuSans-48"/>
      </g>
     </g>
    </g>
    <g id="ytick_2">
     <g id="line2d_12">
      <g>
       <use style="stroke:#000000;stroke-width:0.8;" x="54" xlink:href="#mc00e867833" y="202.419059"/>
      </g>
     </g>
     <g id="text_12">
      <!-- 20 -->
      <g transform="translate(34.275 206.218278)scale(0.1 -0.1)">
       <use xlink:href="#DejaVuSans-50"/>
       <use x="63.623047" xlink:href="#DejaVuSans-48"/>
      </g>
     </g>
    </g>
    <g id="ytick_3">
     <g id="line2d_13">
      <g>
       <use style="stroke:#000000;stroke-width:0.8;" x="54" xlink:href="#mc00e867833" y="162.721755"/>
      </g>
     </g>
     <g id="text_13">
      <!-- 40 -->
      <g transform="translate(34.275 166.520974)scale(0.1 -0.1)">
       <defs>
        <path d="M 37.796875 64.3125 
L 12.890625 25.390625 
L 37.796875 25.390625 
z
M 35.203125 72.90625 
L 47.609375 72.90625 
L 47.609375 25.390625 
L 58.015625 25.390625 
L 58.015625 17.1875 
L 47.609375 17.1875 
L 47.609375 0 
L 37.796875 0 
L 37.796875 17.1875 
L 4.890625 17.1875 
L 4.890625 26.703125 
z
" id="DejaVuSans-52"/>
       </defs>
       <use xlink:href="#DejaVuSans-52"/>
       <use x="63.623047" xlink:href="#DejaVuSans-48"/>
      </g>
     </g>
    </g>
    <g id="ytick_4">
     <g id="line2d_14">
      <g>
       <use style="stroke:#000000;stroke-width:0.8;" x="54" xlink:href="#mc00e867833" y="123.02445"/>
      </g>
     </g>
     <g id="text_14">
      <!-- 60 -->
      <g transform="translate(34.275 126.823669)scale(0.1 -0.1)">
       <use xlink:href="#DejaVuSans-54"/>
       <use x="63.623047" xlink:href="#DejaVuSans-48"/>
      </g>
     </g>
    </g>
    <g id="ytick_5">
     <g id="line2d_15">
      <g>
       <use style="stroke:#000000;stroke-width:0.8;" x="54" xlink:href="#mc00e867833" y="83.327146"/>
      </g>
     </g>
     <g id="text_15">
      <!-- 80 -->
      <g transform="translate(34.275 87.126365)scale(0.1 -0.1)">
       <use xlink:href="#DejaVuSans-56"/>
       <use x="63.623047" xlink:href="#DejaVuSans-48"/>
      </g>
     </g>
    </g>
    <g id="ytick_6">
     <g id="line2d_16">
      <g>
       <use style="stroke:#000000;stroke-width:0.8;" x="54" xlink:href="#mc00e867833" y="43.629842"/>
      </g>
     </g>
     <g id="text_16">
      <!-- 100 -->
      <g transform="translate(27.9125 47.42906)scale(0.1 -0.1)">
       <use xlink:href="#DejaVuSans-49"/>
       <use x="63.623047" xlink:href="#DejaVuSans-48"/>
       <use x="127.246094" xlink:href="#DejaVuSans-48"/>
      </g>
     </g>
    </g>
   </g>
   <g id="line2d_17">
    <path clip-path="url(#pcb80ed7076)" d="M 69.218182 142.972346 
L 69.496139 166.969366 
L 69.774097 157.104586 
L 70.052055 140.828691 
L 70.330012 148.907093 
L 70.60797 179.672504 
L 70.885928 155.715181 
L 71.163885 156.588521 
L 71.441843 162.066749 
L 71.719801 129.276776 
L 71.997758 183.959813 
L 72.275716 97.757116 
L 72.553674 153.988348 
L 72.831631 153.770013 
L 73.109589 128.859954 
L 73.665504 170.125302 
L 73.943462 174.670643 
L 74.22142 115.22393 
L 74.499377 170.125302 
L 74.777335 150.475136 
L 75.055293 176.377628 
L 75.33325 164.468436 
L 75.611208 165.321928 
L 75.889166 147.795568 
L 76.167123 119.134115 
L 76.445081 169.053475 
L 76.723039 184.833153 
L 77.000996 136.025318 
L 77.278954 158.652781 
L 77.556912 158.752024 
L 77.834869 192.494733 
L 78.390785 152.737883 
L 78.668742 173.062903 
L 78.9467 151.090445 
L 79.224658 155.397602 
L 79.502615 134.397728 
L 80.336488 175.127162 
L 80.614446 141.185967 
L 80.892403 168.418318 
L 81.170361 115.025444 
L 81.448319 188.386062 
L 81.726276 152.321061 
L 82.004234 159.029906 
L 82.282192 186.837867 
L 82.560149 154.444867 
L 82.838107 172.685778 
L 83.116065 159.010057 
L 83.394022 159.764306 
L 83.67198 183.40405 
L 83.949938 182.82844 
L 84.227895 141.086724 
L 84.505853 172.646081 
L 84.783811 166.889972 
L 85.061768 141.702032 
L 86.173599 182.342148 
L 86.451557 153.690618 
L 86.729514 173.221692 
L 87.007472 138.665188 
L 87.563387 167.683918 
L 87.841345 184.396483 
L 88.119303 178.243401 
L 88.675218 149.423158 
L 88.953176 157.77944 
L 89.231133 146.465709 
L 89.509091 177.062406 
L 89.787049 148.728455 
L 90.065006 210.259277 
L 90.898879 167.57475 
L 91.176837 194.916269 
L 92.01071 174.43246 
L 92.288667 173.003357 
L 92.566625 148.053601 
L 92.844583 155.199116 
L 93.12254 167.644221 
L 93.400498 156.112154 
L 93.678456 166.810577 
L 93.956413 156.330489 
L 94.234371 169.688632 
L 94.512329 169.113021 
L 94.790286 162.483571 
L 95.068244 193.348225 
L 95.346202 144.738876 
L 95.624159 189.973954 
L 95.902117 150.435439 
L 96.180075 176.357779 
L 96.458032 183.820872 
L 97.013948 179.970234 
L 97.291905 166.810577 
L 97.569863 101.329874 
L 97.847821 131.499825 
L 98.125778 112.663454 
L 98.403736 109.269334 
L 98.681694 134.040452 
L 98.959651 144.08387 
L 99.237609 110.877075 
L 99.515567 162.285084 
L 99.793524 128.046159 
L 100.071482 133.802269 
L 100.34944 105.855366 
L 100.627397 97.499084 
L 100.905355 122.309899 
L 101.183313 135.965772 
L 101.46127 157.283224 
L 101.739228 145.890098 
L 102.295143 182.431466 
L 102.573101 156.648067 
L 102.851059 141.245513 
L 103.129016 156.429732 
L 103.406974 179.73205 
L 103.684932 133.78242 
L 103.962889 130.348603 
L 104.240847 120.622764 
L 104.518804 160.220825 
L 104.796762 134.576366 
L 105.07472 193.030647 
L 105.352677 150.693472 
L 105.630635 175.226406 
L 105.908593 166.195269 
L 106.18655 144.738876 
L 106.464508 180.387055 
L 106.742466 176.000503 
L 107.020423 186.3615 
L 107.298381 167.306793 
L 107.576339 115.462114 
L 108.132254 154.84184 
L 108.410212 144.024324 
L 108.688169 140.769145 
L 108.966127 184.336937 
L 109.244085 184.773607 
L 109.522042 141.662335 
L 109.8 171.594102 
L 110.077958 143.21053 
L 110.355915 176.179141 
L 110.633873 168.160286 
L 110.911831 164.250101 
L 111.189788 171.514708 
L 111.467746 147.398595 
L 111.745704 189.656376 
L 112.023661 167.763312 
L 112.301619 172.010924 
L 112.579577 169.232113 
L 112.857534 155.973213 
L 113.135492 148.549817 
L 113.41345 177.747185 
L 113.691407 178.064763 
L 113.969365 169.807724 
L 114.247323 143.94493 
L 114.52528 167.644221 
L 114.803238 211.311255 
L 115.081196 218.556013 
L 115.359153 219.022457 
L 115.637111 221.086717 
L 115.915068 196.166734 
L 116.193026 145.969492 
L 116.470984 167.544977 
L 116.748941 162.701906 
L 117.026899 134.278636 
L 117.304857 124.771132 
L 117.582814 184.515575 
L 117.860772 177.846428 
L 118.13873 179.196136 
L 118.416687 173.856849 
L 118.694645 158.335203 
L 118.972603 193.169587 
L 119.25056 138.208669 
L 119.528518 173.201843 
L 119.806476 175.127162 
L 120.084433 153.710467 
L 120.362391 182.550558 
L 120.640349 118.082136 
L 120.918306 140.173686 
L 121.196264 189.715922 
L 121.474222 156.489278 
L 121.752179 185.111035 
L 122.030137 151.586661 
L 122.308095 155.913667 
L 122.586052 177.290666 
L 122.86401 184.475878 
L 123.141968 186.520289 
L 123.419925 176.86392 
L 123.697883 174.621022 
L 123.975841 186.480592 
L 124.253798 159.446727 
L 124.531756 169.132869 
L 124.809714 167.098383 
L 125.087671 167.088458 
L 125.365629 190.708354 
L 125.643587 154.702899 
L 125.921544 177.131876 
L 126.199502 163.67449 
L 126.47746 180.148871 
L 126.755417 146.187828 
L 127.033375 174.253822 
L 127.58929 163.714187 
L 127.867248 141.384454 
L 128.145205 131.360884 
L 128.423163 189.497587 
L 128.979078 137.375026 
L 129.257036 182.749045 
L 129.534994 157.600803 
L 129.812951 193.328377 
L 130.090909 155.179267 
L 130.368867 179.374774 
L 130.646824 162.94009 
L 130.924782 166.77088 
L 131.20274 145.572519 
L 131.480697 193.457393 
L 132.036613 176.079898 
L 132.31457 161.630079 
L 132.592528 160.478857 
L 132.870486 117.149249 
L 133.148443 129.177533 
L 133.426401 154.047894 
L 133.704359 161.61023 
L 133.982316 174.849281 
L 134.260274 146.584801 
L 134.538232 184.753759 
L 134.816189 127.311759 
L 135.372105 174.194276 
L 135.650062 155.516694 
L 135.92802 164.885258 
L 136.205978 153.293645 
L 136.483935 162.126295 
L 136.761893 140.640129 
L 137.039851 155.020478 
L 137.317808 153.154704 
L 137.595766 170.343637 
L 137.873724 137.633058 
L 138.151681 155.367829 
L 138.429639 122.766418 
L 138.707597 157.124435 
L 138.985554 166.631939 
L 139.263512 137.573512 
L 139.541469 142.079157 
L 139.819427 186.599683 
L 140.097385 141.364605 
L 140.6533 180.60539 
L 140.931258 175.16686 
L 141.209215 166.532696 
L 141.487173 142.932649 
L 141.765131 150.435439 
L 142.043088 125.654397 
L 142.321046 117.58592 
L 142.599004 129.435565 
L 142.876961 155.735029 
L 143.154919 161.094165 
L 143.432877 146.029038 
L 143.710834 160.796436 
L 143.988792 118.836385 
L 144.26675 170.323789 
L 144.544707 147.894812 
L 145.100623 169.847421 
L 145.37858 121.535802 
L 145.656538 144.24266 
L 145.934496 148.252087 
L 146.212453 164.726469 
L 146.490411 139.538529 
L 146.768369 176.715055 
L 147.046326 127.371305 
L 147.324284 98.531214 
L 147.880199 163.198122 
L 148.158157 159.188695 
L 148.436115 171.097886 
L 148.714072 121.059434 
L 148.99203 140.7096 
L 149.269988 127.569792 
L 149.825903 156.290792 
L 150.103861 101.290176 
L 150.381818 151.844693 
L 150.659776 127.371305 
L 151.215691 144.3816 
L 151.493649 133.961058 
L 151.771606 140.094291 
L 152.049564 150.554531 
L 152.327522 136.521534 
L 152.605479 137.831545 
L 152.883437 138.010183 
L 153.161395 174.86913 
L 153.439352 158.017624 
L 153.71731 165.083744 
L 153.995268 147.160412 
L 154.273225 172.884265 
L 154.551183 165.44102 
L 154.829141 167.306793 
L 155.107098 179.73205 
L 155.385056 155.615937 
L 155.663014 146.346617 
L 155.940971 165.73875 
L 156.218929 135.54895 
L 156.496887 173.181995 
L 156.774844 182.411618 
L 157.33076 172.149865 
L 157.608717 150.177407 
L 157.886675 168.795442 
L 158.164633 153.611223 
L 158.720548 170.026059 
L 159.276463 131.896798 
L 159.554421 148.64906 
L 159.832379 156.350337 
L 160.110336 157.6405 
L 160.388294 157.759592 
L 160.666252 184.118602 
L 161.222167 168.418318 
L 161.500125 150.494985 
L 161.778082 171.6338 
L 162.333998 199.084486 
L 162.889913 148.172693 
L 163.445828 189.557133 
L 163.723786 140.233232 
L 164.279701 160.220825 
L 164.557659 147.577233 
L 164.835616 182.768894 
L 165.113574 149.264369 
L 165.391532 194.499447 
L 165.669489 143.05174 
L 165.947447 187.96924 
L 166.225405 140.729448 
L 166.503362 242.116364 
L 166.78132 173.757605 
L 167.059278 158.295505 
L 167.337235 182.352072 
L 167.615193 167.822858 
L 167.893151 185.944678 
L 168.171108 168.557259 
L 168.449066 177.211271 
L 168.727024 143.409016 
L 169.004981 148.192541 
L 169.282939 184.853002 
L 169.560897 190.847295 
L 170.116812 144.599935 
L 170.39477 166.532696 
L 170.672727 173.797303 
L 170.950685 177.131876 
L 171.228643 158.97036 
L 171.5066 167.683918 
L 171.784558 143.131135 
L 172.062516 159.307787 
L 172.340473 146.74359 
L 172.618431 189.398343 
L 172.896389 124.890224 
L 173.174346 156.211397 
L 173.452304 163.436306 
L 173.730262 161.372046 
L 174.008219 150.217104 
L 174.286177 165.361626 
L 174.564134 159.506273 
L 174.842092 194.479598 
L 175.12005 155.536543 
L 175.398007 166.33421 
L 175.675965 186.79817 
L 175.953923 185.289672 
L 176.23188 199.541005 
L 176.509838 148.569666 
L 176.787796 160.994922 
L 177.065753 201.0892 
L 177.343711 196.36522 
L 177.621669 168.199983 
L 177.899626 164.071463 
L 178.177584 174.035487 
L 178.455542 140.729448 
L 178.733499 186.877565 
L 179.011457 132.095284 
L 179.289415 188.644095 
L 179.567372 183.106321 
L 179.84533 180.863423 
L 180.123288 150.356045 
L 180.401245 188.12803 
L 180.679203 162.94009 
L 180.957161 167.604523 
L 181.235118 160.478857 
L 181.513076 186.897413 
L 181.791034 190.7679 
L 182.068991 149.184974 
L 182.346949 142.218097 
L 182.902864 180.049628 
L 183.180822 157.977927 
L 183.45878 172.169713 
L 183.736737 169.033626 
L 184.014695 167.544977 
L 184.292653 189.993803 
L 184.57061 160.617798 
L 184.848568 191.829803 
L 185.126526 162.463722 
L 185.404483 176.357779 
L 185.682441 142.297492 
L 185.960399 188.316592 
L 186.238356 192.157306 
L 186.516314 165.619658 
L 186.794271 174.630946 
L 187.072229 139.399588 
L 187.350187 154.206683 
L 187.628144 189.993803 
L 187.906102 129.415716 
L 188.18406 195.551426 
L 188.462017 198.885999 
L 188.739975 160.478857 
L 189.29589 189.199857 
L 189.573848 186.679078 
L 189.851806 136.620777 
L 190.129763 157.739743 
L 190.407721 191.879425 
L 190.685679 166.90982 
L 190.963636 187.869997 
L 191.241594 149.264369 
L 191.519552 159.148997 
L 191.797509 188.068484 
L 192.075467 201.109048 
L 192.353425 152.658488 
L 192.631382 180.069477 
L 192.90934 173.698059 
L 193.187298 191.780182 
L 193.465255 150.614077 
L 193.743213 143.131135 
L 194.021171 179.930536 
L 194.299128 188.525003 
L 194.577086 156.667916 
L 194.855044 189.120462 
L 195.410959 148.172693 
L 195.688917 170.74061 
L 195.966874 162.840847 
L 196.244832 180.506147 
L 196.52279 159.823852 
L 196.800747 167.108307 
L 197.078705 177.330363 
L 197.356663 172.80487 
L 197.63462 180.248115 
L 197.912578 138.724734 
L 198.190535 176.576114 
L 198.468493 182.590256 
L 199.024408 140.630205 
L 199.302366 161.788868 
L 199.858281 157.481711 
L 200.136239 170.204697 
L 200.414197 162.979787 
L 200.692154 143.409016 
L 200.970112 147.40852 
L 201.24807 195.809458 
L 201.526027 192.613825 
L 201.803985 182.431466 
L 202.081943 184.813305 
L 202.3599 192.732917 
L 202.637858 177.092179 
L 202.915816 171.494859 
L 203.193773 173.003357 
L 203.471731 178.898406 
L 203.749689 172.348351 
L 204.027646 178.719769 
L 204.305604 155.476997 
L 204.583562 175.444741 
L 204.861519 161.233106 
L 205.139477 169.033626 
L 205.417435 145.096152 
L 205.695392 174.551552 
L 205.97335 160.161279 
L 206.251308 164.051615 
L 206.529265 191.502301 
L 206.807223 188.763187 
L 207.085181 148.430725 
L 207.363138 168.180134 
L 207.919054 129.6539 
L 208.197011 153.134856 
L 208.474969 141.444 
L 208.752927 136.541383 
L 209.030884 159.883398 
L 209.308842 168.755745 
L 209.5868 148.371179 
L 209.864757 155.099872 
L 210.142715 147.418444 
L 210.420672 164.131009 
L 210.69863 132.492258 
L 210.976588 132.075436 
L 211.254545 143.607503 
L 211.532503 169.906967 
L 211.810461 182.927683 
L 212.644334 111.09541 
L 212.922291 174.690492 
L 213.200249 207.500314 
L 213.478207 209.862304 
L 213.756164 202.736638 
L 214.034122 211.033374 
L 214.31208 142.813557 
L 214.590037 128.085857 
L 214.867995 123.083996 
L 215.145953 159.923095 
L 215.42391 154.464716 
L 215.701868 140.570659 
L 215.979826 101.012295 
L 216.257783 149.343763 
L 216.535741 128.740862 
L 216.813699 168.001496 
L 217.091656 178.99765 
L 217.369614 174.541627 
L 217.647572 168.160286 
L 217.925529 141.523394 
L 218.203487 173.896546 
L 218.481445 125.922354 
L 218.759402 161.153711 
L 219.03736 174.650795 
L 219.315318 165.222685 
L 219.593275 190.231987 
L 219.871233 185.388916 
L 220.149191 162.999636 
L 220.427148 160.042187 
L 220.705106 139.81641 
L 220.983064 183.304807 
L 221.261021 192.415339 
L 221.538979 188.604397 
L 221.816936 151.546964 
L 222.094894 177.628093 
L 222.372852 101.806241 
L 222.650809 170.800156 
L 222.928767 191.819879 
L 223.206725 186.619532 
L 223.484682 190.212138 
L 223.76264 186.639381 
L 224.040598 165.599809 
L 224.318555 128.48283 
L 224.596513 163.158425 
L 224.874471 150.157558 
L 225.152428 173.301086 
L 225.430386 184.118602 
L 225.708344 180.922969 
L 225.986301 187.731057 
L 226.264259 144.202962 
L 226.542217 161.014771 
L 226.820174 162.185841 
L 227.098132 184.833153 
L 227.37609 163.67449 
L 227.654047 173.757605 
L 227.932005 159.010057 
L 228.209963 164.666923 
L 228.48792 150.891958 
L 228.765878 153.353191 
L 229.043836 185.984375 
L 229.321793 194.360506 
L 229.599751 181.816158 
L 229.877709 152.04318 
L 230.155666 154.286078 
L 230.433624 161.749171 
L 230.711582 191.502301 
L 230.989539 180.962666 
L 231.267497 184.535424 
L 231.545455 137.831545 
L 231.823412 170.502426 
L 232.10137 188.544851 
L 232.379328 175.940957 
L 232.657285 194.082625 
L 232.935243 146.624498 
L 233.2132 166.215118 
L 233.491158 148.748304 
L 233.769116 179.454169 
L 234.325031 146.088584 
L 234.602989 183.463596 
L 234.880946 185.03164 
L 235.158904 152.837126 
L 235.436862 196.166734 
L 235.714819 183.344504 
L 235.992777 133.92136 
L 236.270735 146.664195 
L 236.82665 203.788616 
L 237.382565 165.857842 
L 237.660523 168.954232 
L 237.938481 152.579094 
L 238.216438 166.691485 
L 238.494396 197.040074 
L 238.772354 198.052356 
L 239.050311 186.421046 
L 239.328269 146.465709 
L 239.606227 151.050747 
L 239.884184 160.518554 
L 240.162142 126.875089 
L 240.4401 164.746317 
L 240.718057 164.051615 
L 240.996015 172.745324 
L 241.273973 159.446727 
L 241.55193 164.051615 
L 241.829888 148.668909 
L 242.385803 141.444 
L 242.663761 159.883398 
L 242.941719 162.027052 
L 243.219676 178.541131 
L 243.497634 156.270943 
L 243.775592 162.543117 
L 244.053549 155.735029 
L 244.331507 162.662209 
L 244.609465 133.365598 
L 244.887422 137.216237 
L 245.16538 162.761452 
L 245.443337 138.427005 
L 245.721295 145.393881 
L 245.999253 144.540389 
L 246.27721 145.393881 
L 246.555168 144.639633 
L 246.833126 144.500692 
L 247.111083 163.138577 
L 247.389041 140.570659 
L 247.666999 145.493125 
L 247.944956 144.202962 
L 248.500872 169.371053 
L 249.056787 148.728455 
L 249.334745 166.870123 
L 249.612702 168.458015 
L 249.89066 194.89642 
L 250.168618 139.756864 
L 250.446575 169.450448 
L 250.724533 175.623379 
L 251.002491 169.549691 
L 251.280448 179.374774 
L 251.558406 176.754752 
L 251.836364 155.834273 
L 252.114321 172.50714 
L 252.392279 149.820131 
L 252.670237 155.080024 
L 252.948194 157.521408 
L 253.226152 182.193283 
L 253.50411 179.057196 
L 253.782067 164.527982 
L 254.060025 175.226406 
L 254.337983 165.480717 
L 254.61594 151.586661 
L 254.893898 160.637646 
L 255.449813 139.032388 
L 256.005729 168.120588 
L 256.283686 140.570659 
L 256.561644 147.755871 
L 256.839601 161.153711 
L 257.117559 191.998517 
L 257.395517 137.116993 
L 257.673474 169.430599 
L 257.951432 174.670643 
L 258.22939 144.580087 
L 258.507347 183.364353 
L 258.785305 159.625365 
L 259.063263 175.90126 
L 259.34122 162.64236 
L 259.619178 175.722622 
L 259.897136 194.558993 
L 260.175093 161.114014 
L 260.453051 180.724482 
L 260.731009 158.414597 
L 261.008966 177.092179 
L 261.286924 124.691737 
L 261.564882 171.931529 
L 261.842839 178.69992 
L 262.120797 171.435313 
L 262.398755 146.346617 
L 262.676712 170.30394 
L 262.95467 184.495726 
L 263.232628 148.192541 
L 263.510585 186.818019 
L 264.066501 162.920241 
L 264.344458 189.636527 
L 264.622416 172.586535 
L 264.900374 145.512973 
L 265.178331 160.73689 
L 265.456289 184.932397 
L 265.734247 155.953364 
L 266.012204 200.116616 
L 266.290162 176.258536 
L 266.56812 177.866276 
L 266.846077 173.678211 
L 267.124035 140.133989 
L 267.401993 145.036606 
L 267.67995 186.996656 
L 267.957908 180.645088 
L 268.235866 170.184848 
L 268.513823 169.807724 
L 268.791781 179.930536 
L 269.069738 146.00919 
L 269.347696 174.849281 
L 269.625654 191.383209 
L 270.181569 194.281112 
L 270.459527 137.75215 
L 270.737484 155.298359 
L 271.015442 164.250101 
L 271.2934 162.860695 
L 271.571357 219.201095 
L 271.849315 223.121203 
L 272.127273 222.763928 
L 272.40523 221.632555 
L 272.683188 221.314976 
L 272.961146 221.453917 
L 273.239103 220.81876 
L 273.795019 222.744079 
L 274.072976 222.327257 
L 274.350934 153.928802 
L 274.628892 137.196388 
L 274.906849 192.455036 
L 275.184807 162.046901 
L 275.462765 167.50528 
L 275.740722 167.981648 
L 276.01868 190.648808 
L 276.296638 202.875578 
L 276.574595 153.770013 
L 276.852553 158.573387 
L 277.130511 195.511728 
L 277.408468 156.985494 
L 277.686426 196.117112 
L 277.964384 177.489152 
L 278.242341 183.622386 
L 278.520299 181.756612 
L 278.798257 162.900393 
L 279.076214 181.002364 
L 279.354172 163.515701 
L 279.63213 200.19601 
L 279.910087 201.883146 
L 280.188045 169.609237 
L 280.74396 149.760585 
L 281.021918 156.687765 
L 281.577833 194.30096 
L 281.855791 178.99765 
L 282.133748 197.317956 
L 282.689664 171.355919 
L 282.967621 167.862556 
L 283.245579 178.382341 
L 283.523537 169.887118 
L 283.801494 194.697934 
L 284.079452 176.139444 
L 284.35741 183.582688 
L 284.635367 164.349344 
L 284.913325 181.657369 
L 285.191283 169.986362 
L 285.46924 163.67449 
L 285.747198 201.049502 
L 286.025156 167.862556 
L 286.303113 193.348225 
L 286.581071 146.14813 
L 286.859029 174.591249 
L 287.136986 172.785021 
L 287.414944 177.489152 
L 287.970859 193.784896 
L 288.248817 169.807724 
L 288.526775 189.16016 
L 288.804732 176.715055 
L 289.08269 172.209411 
L 289.360648 190.728203 
L 289.638605 192.455036 
L 289.916563 170.224545 
L 290.194521 192.792463 
L 290.472478 149.145277 
L 290.750436 194.181869 
L 291.028394 162.602663 
L 291.306351 185.607251 
L 291.584309 157.442013 
L 291.862267 202.220573 
L 292.140224 203.133611 
L 292.418182 192.345868 
L 292.696139 187.468062 
L 292.974097 153.611223 
L 293.252055 147.577233 
L 293.530012 182.352072 
L 293.80797 173.380481 
L 294.085928 205.912422 
L 294.641843 185.051489 
L 294.919801 160.498706 
L 295.197758 164.984501 
L 295.475716 151.408023 
L 295.753674 167.366339 
L 296.031631 192.216852 
L 296.587547 166.195269 
L 296.865504 195.968247 
L 297.143462 156.350337 
L 297.42142 190.212138 
L 297.699377 161.630079 
L 297.977335 184.43618 
L 298.255293 189.120462 
L 298.811208 174.650795 
L 299.089166 203.43134 
L 299.367123 164.567679 
L 299.645081 192.296247 
L 299.923039 196.861437 
L 300.200996 118.101985 
L 300.756912 152.63864 
L 301.034869 184.972094 
L 301.312827 192.018365 
L 301.590785 186.976808 
L 301.868742 167.80301 
L 302.1467 189.279251 
L 302.424658 165.540263 
L 302.702615 166.373907 
L 302.980573 171.931529 
L 303.536488 134.258788 
L 303.814446 167.048761 
L 304.092403 124.681813 
L 304.370361 159.208543 
L 304.648319 153.293645 
L 304.926276 184.714061 
L 305.482192 163.337063 
L 305.760149 139.419437 
L 306.038107 133.802269 
L 306.316065 119.987607 
L 306.594022 190.549565 
L 306.87198 196.087339 
L 307.149938 132.889231 
L 307.427895 195.968247 
L 307.705853 222.247863 
L 307.983811 199.957826 
L 308.261768 193.368074 
L 308.539726 197.714929 
L 308.817684 147.18026 
L 309.095641 157.660349 
L 309.373599 177.647941 
L 309.651557 166.751031 
L 309.929514 185.071337 
L 310.207472 161.590382 
L 310.763387 137.811696 
L 311.041345 91.207061 
L 311.319303 143.964779 
L 311.59726 106.034004 
L 311.875218 142.992195 
L 312.153176 155.060175 
L 312.431133 133.802269 
L 312.709091 123.957337 
L 312.987049 125.128408 
L 313.265006 139.359891 
L 313.542964 175.444741 
L 313.820922 171.693346 
L 314.098879 165.202836 
L 314.376837 185.071337 
L 314.654795 171.832286 
L 314.932752 151.765299 
L 315.21071 175.23633 
L 315.488667 168.219831 
L 315.766625 145.41373 
L 316.044583 135.171826 
L 316.32254 140.332475 
L 316.600498 126.378873 
L 316.878456 137.375026 
L 317.156413 170.502426 
L 317.434371 152.460002 
L 317.712329 163.098879 
L 317.990286 161.510987 
L 318.268244 105.815669 
L 318.546202 105.220209 
L 318.824159 126.835392 
L 319.380075 222.505895 
L 319.658032 222.783776 
L 319.93599 190.33123 
L 320.213948 120.265488 
L 320.491905 129.316473 
L 320.769863 160.87583 
L 321.047821 157.382467 
L 321.325778 142.416584 
L 321.603736 181.617672 
L 321.881694 177.290666 
L 322.159651 156.449581 
L 322.437609 184.59497 
L 322.715567 119.590634 
L 322.993524 195.174301 
L 323.271482 178.69992 
L 323.54944 180.208417 
L 323.827397 144.897665 
L 324.105355 162.701906 
L 324.383313 190.291533 
L 324.66127 164.964653 
L 324.939228 186.976808 
L 325.773101 135.350463 
L 326.051059 195.075058 
L 326.329016 184.019359 
L 326.606974 193.070344 
L 326.884932 159.724608 
L 327.162889 163.833279 
L 327.440847 157.561105 
L 327.996762 187.195143 
L 328.27472 162.820998 
L 328.552677 178.878558 
L 328.830635 162.860695 
L 329.108593 199.382215 
L 329.38655 156.31064 
L 329.664508 183.662083 
L 329.942466 181.419185 
L 330.220423 146.346617 
L 330.498381 186.559986 
L 330.776339 168.735896 
L 331.332254 174.472157 
L 331.610212 149.820131 
L 331.888169 172.80487 
L 332.444085 195.372788 
L 333 147.378747 
L 333.277958 157.382467 
L 333.555915 180.684785 
L 333.833873 182.312375 
L 334.111831 169.251961 
L 334.389788 196.801891 
L 334.667746 173.53927 
L 334.945704 161.927809 
L 335.223661 187.453175 
L 335.501619 186.421046 
L 335.779577 155.774727 
L 336.057534 183.979661 
L 336.335492 174.313368 
L 336.61345 173.638514 
L 336.891407 165.321928 
L 337.169365 133.425144 
L 337.447323 142.495978 
L 337.72528 174.253822 
L 338.003238 164.805863 
L 338.281196 191.145025 
L 338.559153 197.179015 
L 338.837111 178.183855 
L 339.115068 210.150109 
L 339.670984 147.696325 
L 339.948941 178.779314 
L 340.226899 177.250968 
L 340.504857 160.300219 
L 340.782814 190.867144 
L 341.060772 187.790603 
L 341.33873 155.933516 
L 341.616687 176.516568 
L 341.894645 169.906967 
L 342.172603 166.135723 
L 342.45056 191.283965 
L 343.006476 137.573512 
L 343.284433 135.11228 
L 343.562391 177.568547 
L 343.840349 149.601796 
L 344.118306 182.987229 
L 344.396264 180.90312 
L 344.674222 155.695332 
L 344.952179 169.331356 
L 345.230137 127.768278 
L 345.508095 187.353932 
L 345.786052 143.905233 
L 346.06401 183.70178 
L 346.341968 141.602789 
L 346.619925 152.162272 
L 346.897883 93.787386 
L 347.175841 191.998517 
L 347.453798 116.593487 
L 347.731756 136.124561 
L 348.287671 203.43134 
L 348.565629 161.749171 
L 348.843587 192.53443 
L 349.399502 184.361748 
L 349.67746 179.791596 
L 349.955417 128.165251 
L 350.233375 104.108685 
L 350.511333 119.015023 
L 350.78929 114.48953 
L 351.067248 163.932523 
L 351.345205 171.832286 
L 351.623163 157.213754 
L 351.901121 121.793834 
L 352.179078 172.963659 
L 352.457036 167.108307 
L 352.734994 100.297744 
L 353.012951 175.881411 
L 353.568867 64.669413 
L 353.846824 181.955099 
L 354.124782 186.50044 
L 354.40274 180.565693 
L 354.680697 139.617924 
L 354.958655 168.358772 
L 355.236613 102.044425 
L 355.51457 177.548698 
L 355.792528 191.998517 
L 356.070486 78.067253 
L 356.348443 147.517687 
L 356.626401 176.139444 
L 356.904359 170.125302 
L 357.182316 191.125176 
L 357.460274 185.627099 
L 357.738232 183.483445 
L 358.016189 84.795946 
L 358.294147 189.239554 
L 358.572105 183.40405 
L 358.850062 76.042691 
L 359.12802 182.193283 
L 359.405978 189.884635 
L 359.683935 155.080024 
L 359.961893 181.706991 
L 360.239851 187.711208 
L 360.517808 64.848051 
L 360.795766 130.586787 
L 361.073724 112.723 
L 361.351681 187.96924 
L 361.629639 48.889734 
L 361.907597 89.30159 
L 362.185554 200.017372 
L 362.463512 152.162272 
L 362.741469 150.038466 
L 363.019427 194.261263 
L 363.297385 94.204207 
L 363.8533 202.478605 
L 364.131258 92.358283 
L 364.409215 182.610104 
L 364.687173 167.822858 
L 364.965131 107.979172 
L 365.243088 166.215118 
L 365.521046 183.284959 
L 365.799004 178.342644 
L 366.076961 136.382593 
L 366.354919 142.773859 
L 366.632877 159.208543 
L 366.910834 44.443636 
L 367.188792 174.075184 
L 367.46675 175.107314 
L 367.744707 110.301464 
L 368.022665 147.219957 
L 368.300623 155.913667 
L 368.57858 149.780434 
L 368.856538 92.606391 
L 369.134496 138.248367 
L 369.412453 99.503798 
L 369.690411 123.32218 
L 369.968369 165.897539 
L 370.524284 117.050006 
L 370.802242 103.751409 
L 371.080199 185.587402 
L 371.358157 62.50591 
L 371.636115 104.386566 
L 371.914072 112.087843 
L 372.19203 161.153711 
L 372.469988 115.204081 
L 372.747945 179.116742 
L 373.025903 168.10074 
L 373.303861 202.935124 
L 373.581818 220.699668 
L 373.581818 220.699668 
" style="fill:none;stroke:#000000;stroke-linecap:square;stroke-width:1.5;"/>
   </g>
   <g id="patch_3">
    <path d="M 54 252 
L 54 34.56 
" style="fill:none;stroke:#000000;stroke-linecap:square;stroke-linejoin:miter;stroke-width:0.8;"/>
   </g>
   <g id="patch_4">
    <path d="M 388.8 252 
L 388.8 34.56 
" style="fill:none;stroke:#000000;stroke-linecap:square;stroke-linejoin:miter;stroke-width:0.8;"/>
   </g>
   <g id="patch_5">
    <path d="M 54 252 
L 388.8 252 
" style="fill:none;stroke:#000000;stroke-linecap:square;stroke-linejoin:miter;stroke-width:0.8;"/>
   </g>
   <g id="patch_6">
    <path d="M 54 34.56 
L 388.8 34.56 
" style="fill:none;stroke:#000000;stroke-linecap:square;stroke-linejoin:miter;stroke-width:0.8;"/>
   </g>
   <g id="text_17">
    <!-- Soma Diária de Energia - Casa 18 -->
    <g transform="translate(120.413438 28.56)scale(0.12 -0.12)">
     <defs>
      <path d="M 53.515625 70.515625 
L 53.515625 60.890625 
Q 47.90625 63.578125 42.921875 64.890625 
Q 37.9375 66.21875 33.296875 66.21875 
Q 25.25 66.21875 20.875 63.09375 
Q 16.5 59.96875 16.5 54.203125 
Q 16.5 49.359375 19.40625 46.890625 
Q 22.3125 44.4375 30.421875 42.921875 
L 36.375 41.703125 
Q 47.40625 39.59375 52.65625 34.296875 
Q 57.90625 29 57.90625 20.125 
Q 57.90625 9.515625 50.796875 4.046875 
Q 43.703125 -1.421875 29.984375 -1.421875 
Q 24.8125 -1.421875 18.96875 -0.25 
Q 13.140625 0.921875 6.890625 3.21875 
L 6.890625 13.375 
Q 12.890625 10.015625 18.65625 8.296875 
Q 24.421875 6.59375 29.984375 6.59375 
Q 38.421875 6.59375 43.015625 9.90625 
Q 47.609375 13.234375 47.609375 19.390625 
Q 47.609375 24.75 44.3125 27.78125 
Q 41.015625 30.8125 33.5 32.328125 
L 27.484375 33.5 
Q 16.453125 35.6875 11.515625 40.375 
Q 6.59375 45.0625 6.59375 53.421875 
Q 6.59375 63.09375 13.40625 68.65625 
Q 20.21875 74.21875 32.171875 74.21875 
Q 37.3125 74.21875 42.625 73.28125 
Q 47.953125 72.359375 53.515625 70.515625 
z
" id="DejaVuSans-83"/>
      <path d="M 30.609375 48.390625 
Q 23.390625 48.390625 19.1875 42.75 
Q 14.984375 37.109375 14.984375 27.296875 
Q 14.984375 17.484375 19.15625 11.84375 
Q 23.34375 6.203125 30.609375 6.203125 
Q 37.796875 6.203125 41.984375 11.859375 
Q 46.1875 17.53125 46.1875 27.296875 
Q 46.1875 37.015625 41.984375 42.703125 
Q 37.796875 48.390625 30.609375 48.390625 
z
M 30.609375 56 
Q 42.328125 56 49.015625 48.375 
Q 55.71875 40.765625 55.71875 27.296875 
Q 55.71875 13.875 49.015625 6.21875 
Q 42.328125 -1.421875 30.609375 -1.421875 
Q 18.84375 -1.421875 12.171875 6.21875 
Q 5.515625 13.875 5.515625 27.296875 
Q 5.515625 40.765625 12.171875 48.375 
Q 18.84375 56 30.609375 56 
z
" id="DejaVuSans-111"/>
      <path d="M 52 44.1875 
Q 55.375 50.25 60.0625 53.125 
Q 64.75 56 71.09375 56 
Q 79.640625 56 84.28125 50.015625 
Q 88.921875 44.046875 88.921875 33.015625 
L 88.921875 0 
L 79.890625 0 
L 79.890625 32.71875 
Q 79.890625 40.578125 77.09375 44.375 
Q 74.3125 48.1875 68.609375 48.1875 
Q 61.625 48.1875 57.5625 43.546875 
Q 53.515625 38.921875 53.515625 30.90625 
L 53.515625 0 
L 44.484375 0 
L 44.484375 32.71875 
Q 44.484375 40.625 41.703125 44.40625 
Q 38.921875 48.1875 33.109375 48.1875 
Q 26.21875 48.1875 22.15625 43.53125 
Q 18.109375 38.875 18.109375 30.90625 
L 18.109375 0 
L 9.078125 0 
L 9.078125 54.6875 
L 18.109375 54.6875 
L 18.109375 46.1875 
Q 21.1875 51.21875 25.484375 53.609375 
Q 29.78125 56 35.6875 56 
Q 41.65625 56 45.828125 52.96875 
Q 50 49.953125 52 44.1875 
z
" id="DejaVuSans-109"/>
      <path d="M 34.28125 27.484375 
Q 23.390625 27.484375 19.1875 25 
Q 14.984375 22.515625 14.984375 16.5 
Q 14.984375 11.71875 18.140625 8.90625 
Q 21.296875 6.109375 26.703125 6.109375 
Q 34.1875 6.109375 38.703125 11.40625 
Q 43.21875 16.703125 43.21875 25.484375 
L 43.21875 27.484375 
z
M 52.203125 31.203125 
L 52.203125 0 
L 43.21875 0 
L 43.21875 8.296875 
Q 40.140625 3.328125 35.546875 0.953125 
Q 30.953125 -1.421875 24.3125 -1.421875 
Q 15.921875 -1.421875 10.953125 3.296875 
Q 6 8.015625 6 15.921875 
Q 6 25.140625 12.171875 29.828125 
Q 18.359375 34.515625 30.609375 34.515625 
L 43.21875 34.515625 
L 43.21875 35.40625 
Q 43.21875 41.609375 39.140625 45 
Q 35.0625 48.390625 27.6875 48.390625 
Q 23 48.390625 18.546875 47.265625 
Q 14.109375 46.140625 10.015625 43.890625 
L 10.015625 52.203125 
Q 14.9375 54.109375 19.578125 55.046875 
Q 24.21875 56 28.609375 56 
Q 40.484375 56 46.34375 49.84375 
Q 52.203125 43.703125 52.203125 31.203125 
z
" id="DejaVuSans-97"/>
      <path id="DejaVuSans-32"/>
      <path d="M 19.671875 64.796875 
L 19.671875 8.109375 
L 31.59375 8.109375 
Q 46.6875 8.109375 53.6875 14.9375 
Q 60.6875 21.78125 60.6875 36.53125 
Q 60.6875 51.171875 53.6875 57.984375 
Q 46.6875 64.796875 31.59375 64.796875 
z
M 9.8125 72.90625 
L 30.078125 72.90625 
Q 51.265625 72.90625 61.171875 64.09375 
Q 71.09375 55.28125 71.09375 36.53125 
Q 71.09375 17.671875 61.125 8.828125 
Q 51.171875 0 30.078125 0 
L 9.8125 0 
z
" id="DejaVuSans-68"/>
      <path d="M 9.421875 54.6875 
L 18.40625 54.6875 
L 18.40625 0 
L 9.421875 0 
z
M 9.421875 75.984375 
L 18.40625 75.984375 
L 18.40625 64.59375 
L 9.421875 64.59375 
z
" id="DejaVuSans-105"/>
      <path d="M 34.28125 27.484375 
Q 23.390625 27.484375 19.1875 25 
Q 14.984375 22.515625 14.984375 16.5 
Q 14.984375 11.71875 18.140625 8.90625 
Q 21.296875 6.109375 26.703125 6.109375 
Q 34.1875 6.109375 38.703125 11.40625 
Q 43.21875 16.703125 43.21875 25.484375 
L 43.21875 27.484375 
z
M 52.203125 31.203125 
L 52.203125 0 
L 43.21875 0 
L 43.21875 8.296875 
Q 40.140625 3.328125 35.546875 0.953125 
Q 30.953125 -1.421875 24.3125 -1.421875 
Q 15.921875 -1.421875 10.953125 3.296875 
Q 6 8.015625 6 15.921875 
Q 6 25.140625 12.171875 29.828125 
Q 18.359375 34.515625 30.609375 34.515625 
L 43.21875 34.515625 
L 43.21875 35.40625 
Q 43.21875 41.609375 39.140625 45 
Q 35.0625 48.390625 27.6875 48.390625 
Q 23 48.390625 18.546875 47.265625 
Q 14.109375 46.140625 10.015625 43.890625 
L 10.015625 52.203125 
Q 14.9375 54.109375 19.578125 55.046875 
Q 24.21875 56 28.609375 56 
Q 40.484375 56 46.34375 49.84375 
Q 52.203125 43.703125 52.203125 31.203125 
z
M 35.796875 79.984375 
L 45.515625 79.984375 
L 29.59375 61.625 
L 22.125 61.625 
z
" id="DejaVuSans-225"/>
      <path d="M 41.109375 46.296875 
Q 39.59375 47.171875 37.8125 47.578125 
Q 36.03125 48 33.890625 48 
Q 26.265625 48 22.1875 43.046875 
Q 18.109375 38.09375 18.109375 28.8125 
L 18.109375 0 
L 9.078125 0 
L 9.078125 54.6875 
L 18.109375 54.6875 
L 18.109375 46.1875 
Q 20.953125 51.171875 25.484375 53.578125 
Q 30.03125 56 36.53125 56 
Q 37.453125 56 38.578125 55.875 
Q 39.703125 55.765625 41.0625 55.515625 
z
" id="DejaVuSans-114"/>
      <path d="M 45.40625 46.390625 
L 45.40625 75.984375 
L 54.390625 75.984375 
L 54.390625 0 
L 45.40625 0 
L 45.40625 8.203125 
Q 42.578125 3.328125 38.25 0.953125 
Q 33.9375 -1.421875 27.875 -1.421875 
Q 17.96875 -1.421875 11.734375 6.484375 
Q 5.515625 14.40625 5.515625 27.296875 
Q 5.515625 40.1875 11.734375 48.09375 
Q 17.96875 56 27.875 56 
Q 33.9375 56 38.25 53.625 
Q 42.578125 51.265625 45.40625 46.390625 
z
M 14.796875 27.296875 
Q 14.796875 17.390625 18.875 11.75 
Q 22.953125 6.109375 30.078125 6.109375 
Q 37.203125 6.109375 41.296875 11.75 
Q 45.40625 17.390625 45.40625 27.296875 
Q 45.40625 37.203125 41.296875 42.84375 
Q 37.203125 48.484375 30.078125 48.484375 
Q 22.953125 48.484375 18.875 42.84375 
Q 14.796875 37.203125 14.796875 27.296875 
z
" id="DejaVuSans-100"/>
      <path d="M 56.203125 29.59375 
L 56.203125 25.203125 
L 14.890625 25.203125 
Q 15.484375 15.921875 20.484375 11.0625 
Q 25.484375 6.203125 34.421875 6.203125 
Q 39.59375 6.203125 44.453125 7.46875 
Q 49.3125 8.734375 54.109375 11.28125 
L 54.109375 2.78125 
Q 49.265625 0.734375 44.1875 -0.34375 
Q 39.109375 -1.421875 33.890625 -1.421875 
Q 20.796875 -1.421875 13.15625 6.1875 
Q 5.515625 13.8125 5.515625 26.8125 
Q 5.515625 40.234375 12.765625 48.109375 
Q 20.015625 56 32.328125 56 
Q 43.359375 56 49.78125 48.890625 
Q 56.203125 41.796875 56.203125 29.59375 
z
M 47.21875 32.234375 
Q 47.125 39.59375 43.09375 43.984375 
Q 39.0625 48.390625 32.421875 48.390625 
Q 24.90625 48.390625 20.390625 44.140625 
Q 15.875 39.890625 15.1875 32.171875 
z
" id="DejaVuSans-101"/>
      <path d="M 9.8125 72.90625 
L 55.90625 72.90625 
L 55.90625 64.59375 
L 19.671875 64.59375 
L 19.671875 43.015625 
L 54.390625 43.015625 
L 54.390625 34.71875 
L 19.671875 34.71875 
L 19.671875 8.296875 
L 56.78125 8.296875 
L 56.78125 0 
L 9.8125 0 
z
" id="DejaVuSans-69"/>
      <path d="M 54.890625 33.015625 
L 54.890625 0 
L 45.90625 0 
L 45.90625 32.71875 
Q 45.90625 40.484375 42.875 44.328125 
Q 39.84375 48.1875 33.796875 48.1875 
Q 26.515625 48.1875 22.3125 43.546875 
Q 18.109375 38.921875 18.109375 30.90625 
L 18.109375 0 
L 9.078125 0 
L 9.078125 54.6875 
L 18.109375 54.6875 
L 18.109375 46.1875 
Q 21.34375 51.125 25.703125 53.5625 
Q 30.078125 56 35.796875 56 
Q 45.21875 56 50.046875 50.171875 
Q 54.890625 44.34375 54.890625 33.015625 
z
" id="DejaVuSans-110"/>
      <path d="M 45.40625 27.984375 
Q 45.40625 37.75 41.375 43.109375 
Q 37.359375 48.484375 30.078125 48.484375 
Q 22.859375 48.484375 18.828125 43.109375 
Q 14.796875 37.75 14.796875 27.984375 
Q 14.796875 18.265625 18.828125 12.890625 
Q 22.859375 7.515625 30.078125 7.515625 
Q 37.359375 7.515625 41.375 12.890625 
Q 45.40625 18.265625 45.40625 27.984375 
z
M 54.390625 6.78125 
Q 54.390625 -7.171875 48.1875 -13.984375 
Q 42 -20.796875 29.203125 -20.796875 
Q 24.46875 -20.796875 20.265625 -20.09375 
Q 16.0625 -19.390625 12.109375 -17.921875 
L 12.109375 -9.1875 
Q 16.0625 -11.328125 19.921875 -12.34375 
Q 23.78125 -13.375 27.78125 -13.375 
Q 36.625 -13.375 41.015625 -8.765625 
Q 45.40625 -4.15625 45.40625 5.171875 
L 45.40625 9.625 
Q 42.625 4.78125 38.28125 2.390625 
Q 33.9375 0 27.875 0 
Q 17.828125 0 11.671875 7.65625 
Q 5.515625 15.328125 5.515625 27.984375 
Q 5.515625 40.671875 11.671875 48.328125 
Q 17.828125 56 27.875 56 
Q 33.9375 56 38.28125 53.609375 
Q 42.625 51.21875 45.40625 46.390625 
L 45.40625 54.6875 
L 54.390625 54.6875 
z
" id="DejaVuSans-103"/>
      <path d="M 64.40625 67.28125 
L 64.40625 56.890625 
Q 59.421875 61.53125 53.78125 63.8125 
Q 48.140625 66.109375 41.796875 66.109375 
Q 29.296875 66.109375 22.65625 58.46875 
Q 16.015625 50.828125 16.015625 36.375 
Q 16.015625 21.96875 22.65625 14.328125 
Q 29.296875 6.6875 41.796875 6.6875 
Q 48.140625 6.6875 53.78125 8.984375 
Q 59.421875 11.28125 64.40625 15.921875 
L 64.40625 5.609375 
Q 59.234375 2.09375 53.4375 0.328125 
Q 47.65625 -1.421875 41.21875 -1.421875 
Q 24.65625 -1.421875 15.125 8.703125 
Q 5.609375 18.84375 5.609375 36.375 
Q 5.609375 53.953125 15.125 64.078125 
Q 24.65625 74.21875 41.21875 74.21875 
Q 47.75 74.21875 53.53125 72.484375 
Q 59.328125 70.75 64.40625 67.28125 
z
" id="DejaVuSans-67"/>
      <path d="M 44.28125 53.078125 
L 44.28125 44.578125 
Q 40.484375 46.53125 36.375 47.5 
Q 32.28125 48.484375 27.875 48.484375 
Q 21.1875 48.484375 17.84375 46.4375 
Q 14.5 44.390625 14.5 40.28125 
Q 14.5 37.15625 16.890625 35.375 
Q 19.28125 33.59375 26.515625 31.984375 
L 29.59375 31.296875 
Q 39.15625 29.25 43.1875 25.515625 
Q 47.21875 21.78125 47.21875 15.09375 
Q 47.21875 7.46875 41.1875 3.015625 
Q 35.15625 -1.421875 24.609375 -1.421875 
Q 20.21875 -1.421875 15.453125 -0.5625 
Q 10.6875 0.296875 5.421875 2 
L 5.421875 11.28125 
Q 10.40625 8.6875 15.234375 7.390625 
Q 20.0625 6.109375 24.8125 6.109375 
Q 31.15625 6.109375 34.5625 8.28125 
Q 37.984375 10.453125 37.984375 14.40625 
Q 37.984375 18.0625 35.515625 20.015625 
Q 33.0625 21.96875 24.703125 23.78125 
L 21.578125 24.515625 
Q 13.234375 26.265625 9.515625 29.90625 
Q 5.8125 33.546875 5.8125 39.890625 
Q 5.8125 47.609375 11.28125 51.796875 
Q 16.75 56 26.8125 56 
Q 31.78125 56 36.171875 55.265625 
Q 40.578125 54.546875 44.28125 53.078125 
z
" id="DejaVuSans-115"/>
     </defs>
     <use xlink:href="#DejaVuSans-83"/>
     <use x="63.476562" xlink:href="#DejaVuSans-111"/>
     <use x="124.658203" xlink:href="#DejaVuSans-109"/>
     <use x="222.070312" xlink:href="#DejaVuSans-97"/>
     <use x="283.349609" xlink:href="#DejaVuSans-32"/>
     <use x="315.136719" xlink:href="#DejaVuSans-68"/>
     <use x="392.138672" xlink:href="#DejaVuSans-105"/>
     <use x="419.921875" xlink:href="#DejaVuSans-225"/>
     <use x="481.201172" xlink:href="#DejaVuSans-114"/>
     <use x="522.314453" xlink:href="#DejaVuSans-105"/>
     <use x="550.097656" xlink:href="#DejaVuSans-97"/>
     <use x="611.376953" xlink:href="#DejaVuSans-32"/>
     <use x="643.164062" xlink:href="#DejaVuSans-100"/>
     <use x="706.640625" xlink:href="#DejaVuSans-101"/>
     <use x="768.164062" xlink:href="#DejaVuSans-32"/>
     <use x="799.951172" xlink:href="#DejaVuSans-69"/>
     <use x="863.134766" xlink:href="#DejaVuSans-110"/>
     <use x="926.513672" xlink:href="#DejaVuSans-101"/>
     <use x="988.037109" xlink:href="#DejaVuSans-114"/>
     <use x="1027.400391" xlink:href="#DejaVuSans-103"/>
     <use x="1090.876953" xlink:href="#DejaVuSans-105"/>
     <use x="1118.660156" xlink:href="#DejaVuSans-97"/>
     <use x="1179.939453" xlink:href="#DejaVuSans-32"/>
     <use x="1211.726562" xlink:href="#DejaVuSans-45"/>
     <use x="1247.810547" xlink:href="#DejaVuSans-32"/>
     <use x="1279.597656" xlink:href="#DejaVuSans-67"/>
     <use x="1349.421875" xlink:href="#DejaVuSans-97"/>
     <use x="1410.701172" xlink:href="#DejaVuSans-115"/>
     <use x="1462.800781" xlink:href="#DejaVuSans-97"/>
     <use x="1524.080078" xlink:href="#DejaVuSans-32"/>
     <use x="1555.867188" xlink:href="#DejaVuSans-49"/>
     <use x="1619.490234" xlink:href="#DejaVuSans-56"/>
    </g>
   </g>
  </g>
 </g>
 <defs>
  <clipPath id="pcb80ed7076">
   <rect height="217.44" width="334.8" x="54" y="34.56"/>
  </clipPath>
 </defs>
</svg>
