<?xml version="1.0" encoding="utf-8" standalone="no"?>
<!DOCTYPE svg PUBLIC "-//W3C//DTD SVG 1.1//EN"
  "http://www.w3.org/Graphics/SVG/1.1/DTD/svg11.dtd">
<!-- Created with matplotlib (https://matplotlib.org/) -->
<svg height="288pt" version="1.1" viewBox="0 0 432 288" width="432pt" xmlns="http://www.w3.org/2000/svg" xmlns:xlink="http://www.w3.org/1999/xlink">
 <metadata>
  <rdf:RDF xmlns:cc="http://creativecommons.org/ns#" xmlns:dc="http://purl.org/dc/elements/1.1/" xmlns:rdf="http://www.w3.org/1999/02/22-rdf-syntax-ns#">
   <cc:Work>
    <dc:type rdf:resource="http://purl.org/dc/dcmitype/StillImage"/>
    <dc:date>2021-07-21T14:57:52.255097</dc:date>
    <dc:format>image/svg+xml</dc:format>
    <dc:creator>
     <cc:Agent>
      <dc:title>Matplotlib v3.3.4, https://matplotlib.org/</dc:title>
     </cc:Agent>
    </dc:creator>
   </cc:Work>
  </rdf:RDF>
 </metadata>
 <defs>
  <style type="text/css">*{stroke-linecap:butt;stroke-linejoin:round;}</style>
 </defs>
 <g id="figure_1">
  <g id="patch_1">
   <path d="M 0 288 
L 432 288 
L 432 0 
L 0 0 
z
" style="fill:#ffffff;"/>
  </g>
  <g id="axes_1">
   <g id="patch_2">
    <path d="M 54 252 
L 388.8 252 
L 388.8 34.56 
L 54 34.56 
z
" style="fill:#ffffff;"/>
   </g>
   <g id="matplotlib.axis_1">
    <g id="xtick_1">
     <g id="line2d_1">
      <defs>
       <path d="M 0 0 
L 0 3.5 
" id="m919de02c85" style="stroke:#000000;stroke-width:0.8;"/>
      </defs>
      <g>
       <use style="stroke:#000000;stroke-width:0.8;" x="72.659086" xlink:href="#m919de02c85" y="252"/>
      </g>
     </g>
     <g id="text_1">
      <!-- 2015-09 -->
      <g transform="translate(59.837804 293.917817)rotate(-45)scale(0.1 -0.1)">
       <defs>
        <path d="M 19.1875 8.296875 
L 53.609375 8.296875 
L 53.609375 0 
L 7.328125 0 
L 7.328125 8.296875 
Q 12.9375 14.109375 22.625 23.890625 
Q 32.328125 33.6875 34.8125 36.53125 
Q 39.546875 41.84375 41.421875 45.53125 
Q 43.3125 49.21875 43.3125 52.78125 
Q 43.3125 58.59375 39.234375 62.25 
Q 35.15625 65.921875 28.609375 65.921875 
Q 23.96875 65.921875 18.8125 64.3125 
Q 13.671875 62.703125 7.8125 59.421875 
L 7.8125 69.390625 
Q 13.765625 71.78125 18.9375 73 
Q 24.125 74.21875 28.421875 74.21875 
Q 39.75 74.21875 46.484375 68.546875 
Q 53.21875 62.890625 53.21875 53.421875 
Q 53.21875 48.921875 51.53125 44.890625 
Q 49.859375 40.875 45.40625 35.40625 
Q 44.1875 33.984375 37.640625 27.21875 
Q 31.109375 20.453125 19.1875 8.296875 
z
" id="DejaVuSans-50"/>
        <path d="M 31.78125 66.40625 
Q 24.171875 66.40625 20.328125 58.90625 
Q 16.5 51.421875 16.5 36.375 
Q 16.5 21.390625 20.328125 13.890625 
Q 24.171875 6.390625 31.78125 6.390625 
Q 39.453125 6.390625 43.28125 13.890625 
Q 47.125 21.390625 47.125 36.375 
Q 47.125 51.421875 43.28125 58.90625 
Q 39.453125 66.40625 31.78125 66.40625 
z
M 31.78125 74.21875 
Q 44.046875 74.21875 50.515625 64.515625 
Q 56.984375 54.828125 56.984375 36.375 
Q 56.984375 17.96875 50.515625 8.265625 
Q 44.046875 -1.421875 31.78125 -1.421875 
Q 19.53125 -1.421875 13.0625 8.265625 
Q 6.59375 17.96875 6.59375 36.375 
Q 6.59375 54.828125 13.0625 64.515625 
Q 19.53125 74.21875 31.78125 74.21875 
z
" id="DejaVuSans-48"/>
        <path d="M 12.40625 8.296875 
L 28.515625 8.296875 
L 28.515625 63.921875 
L 10.984375 60.40625 
L 10.984375 69.390625 
L 28.421875 72.90625 
L 38.28125 72.90625 
L 38.28125 8.296875 
L 54.390625 8.296875 
L 54.390625 0 
L 12.40625 0 
z
" id="DejaVuSans-49"/>
        <path d="M 10.796875 72.90625 
L 49.515625 72.90625 
L 49.515625 64.59375 
L 19.828125 64.59375 
L 19.828125 46.734375 
Q 21.96875 47.46875 24.109375 47.828125 
Q 26.265625 48.1875 28.421875 48.1875 
Q 40.625 48.1875 47.75 41.5 
Q 54.890625 34.8125 54.890625 23.390625 
Q 54.890625 11.625 47.5625 5.09375 
Q 40.234375 -1.421875 26.90625 -1.421875 
Q 22.3125 -1.421875 17.546875 -0.640625 
Q 12.796875 0.140625 7.71875 1.703125 
L 7.71875 11.625 
Q 12.109375 9.234375 16.796875 8.0625 
Q 21.484375 6.890625 26.703125 6.890625 
Q 35.15625 6.890625 40.078125 11.328125 
Q 45.015625 15.765625 45.015625 23.390625 
Q 45.015625 31 40.078125 35.4375 
Q 35.15625 39.890625 26.703125 39.890625 
Q 22.75 39.890625 18.8125 39.015625 
Q 14.890625 38.140625 10.796875 36.28125 
z
" id="DejaVuSans-53"/>
        <path d="M 4.890625 31.390625 
L 31.203125 31.390625 
L 31.203125 23.390625 
L 4.890625 23.390625 
z
" id="DejaVuSans-45"/>
        <path d="M 10.984375 1.515625 
L 10.984375 10.5 
Q 14.703125 8.734375 18.5 7.8125 
Q 22.3125 6.890625 25.984375 6.890625 
Q 35.75 6.890625 40.890625 13.453125 
Q 46.046875 20.015625 46.78125 33.40625 
Q 43.953125 29.203125 39.59375 26.953125 
Q 35.25 24.703125 29.984375 24.703125 
Q 19.046875 24.703125 12.671875 31.3125 
Q 6.296875 37.9375 6.296875 49.421875 
Q 6.296875 60.640625 12.9375 67.421875 
Q 19.578125 74.21875 30.609375 74.21875 
Q 43.265625 74.21875 49.921875 64.515625 
Q 56.59375 54.828125 56.59375 36.375 
Q 56.59375 19.140625 48.40625 8.859375 
Q 40.234375 -1.421875 26.421875 -1.421875 
Q 22.703125 -1.421875 18.890625 -0.6875 
Q 15.09375 0.046875 10.984375 1.515625 
z
M 30.609375 32.421875 
Q 37.25 32.421875 41.125 36.953125 
Q 45.015625 41.5 45.015625 49.421875 
Q 45.015625 57.28125 41.125 61.84375 
Q 37.25 66.40625 30.609375 66.40625 
Q 23.96875 66.40625 20.09375 61.84375 
Q 16.21875 57.28125 16.21875 49.421875 
Q 16.21875 41.5 20.09375 36.953125 
Q 23.96875 32.421875 30.609375 32.421875 
z
" id="DejaVuSans-57"/>
       </defs>
       <use xlink:href="#DejaVuSans-50"/>
       <use x="63.623047" xlink:href="#DejaVuSans-48"/>
       <use x="127.246094" xlink:href="#DejaVuSans-49"/>
       <use x="190.869141" xlink:href="#DejaVuSans-53"/>
       <use x="254.492188" xlink:href="#DejaVuSans-45"/>
       <use x="290.576172" xlink:href="#DejaVuSans-48"/>
       <use x="354.199219" xlink:href="#DejaVuSans-57"/>
      </g>
     </g>
    </g>
    <g id="xtick_2">
     <g id="line2d_2">
      <g>
       <use style="stroke:#000000;stroke-width:0.8;" x="110.821844" xlink:href="#m919de02c85" y="252"/>
      </g>
     </g>
     <g id="text_2">
      <!-- 2016-01 -->
      <g transform="translate(98.000562 293.917817)rotate(-45)scale(0.1 -0.1)">
       <defs>
        <path d="M 33.015625 40.375 
Q 26.375 40.375 22.484375 35.828125 
Q 18.609375 31.296875 18.609375 23.390625 
Q 18.609375 15.53125 22.484375 10.953125 
Q 26.375 6.390625 33.015625 6.390625 
Q 39.65625 6.390625 43.53125 10.953125 
Q 47.40625 15.53125 47.40625 23.390625 
Q 47.40625 31.296875 43.53125 35.828125 
Q 39.65625 40.375 33.015625 40.375 
z
M 52.59375 71.296875 
L 52.59375 62.3125 
Q 48.875 64.0625 45.09375 64.984375 
Q 41.3125 65.921875 37.59375 65.921875 
Q 27.828125 65.921875 22.671875 59.328125 
Q 17.53125 52.734375 16.796875 39.40625 
Q 19.671875 43.65625 24.015625 45.921875 
Q 28.375 48.1875 33.59375 48.1875 
Q 44.578125 48.1875 50.953125 41.515625 
Q 57.328125 34.859375 57.328125 23.390625 
Q 57.328125 12.15625 50.6875 5.359375 
Q 44.046875 -1.421875 33.015625 -1.421875 
Q 20.359375 -1.421875 13.671875 8.265625 
Q 6.984375 17.96875 6.984375 36.375 
Q 6.984375 53.65625 15.1875 63.9375 
Q 23.390625 74.21875 37.203125 74.21875 
Q 40.921875 74.21875 44.703125 73.484375 
Q 48.484375 72.75 52.59375 71.296875 
z
" id="DejaVuSans-54"/>
       </defs>
       <use xlink:href="#DejaVuSans-50"/>
       <use x="63.623047" xlink:href="#DejaVuSans-48"/>
       <use x="127.246094" xlink:href="#DejaVuSans-49"/>
       <use x="190.869141" xlink:href="#DejaVuSans-54"/>
       <use x="254.492188" xlink:href="#DejaVuSans-45"/>
       <use x="290.576172" xlink:href="#DejaVuSans-48"/>
       <use x="354.199219" xlink:href="#DejaVuSans-49"/>
      </g>
     </g>
    </g>
    <g id="xtick_3">
     <g id="line2d_3">
      <g>
       <use style="stroke:#000000;stroke-width:0.8;" x="148.671793" xlink:href="#m919de02c85" y="252"/>
      </g>
     </g>
     <g id="text_3">
      <!-- 2016-05 -->
      <g transform="translate(135.850511 293.917817)rotate(-45)scale(0.1 -0.1)">
       <use xlink:href="#DejaVuSans-50"/>
       <use x="63.623047" xlink:href="#DejaVuSans-48"/>
       <use x="127.246094" xlink:href="#DejaVuSans-49"/>
       <use x="190.869141" xlink:href="#DejaVuSans-54"/>
       <use x="254.492188" xlink:href="#DejaVuSans-45"/>
       <use x="290.576172" xlink:href="#DejaVuSans-48"/>
       <use x="354.199219" xlink:href="#DejaVuSans-53"/>
      </g>
     </g>
    </g>
    <g id="xtick_4">
     <g id="line2d_4">
      <g>
       <use style="stroke:#000000;stroke-width:0.8;" x="187.147361" xlink:href="#m919de02c85" y="252"/>
      </g>
     </g>
     <g id="text_4">
      <!-- 2016-09 -->
      <g transform="translate(174.326078 293.917817)rotate(-45)scale(0.1 -0.1)">
       <use xlink:href="#DejaVuSans-50"/>
       <use x="63.623047" xlink:href="#DejaVuSans-48"/>
       <use x="127.246094" xlink:href="#DejaVuSans-49"/>
       <use x="190.869141" xlink:href="#DejaVuSans-54"/>
       <use x="254.492188" xlink:href="#DejaVuSans-45"/>
       <use x="290.576172" xlink:href="#DejaVuSans-48"/>
       <use x="354.199219" xlink:href="#DejaVuSans-57"/>
      </g>
     </g>
    </g>
    <g id="xtick_5">
     <g id="line2d_5">
      <g>
       <use style="stroke:#000000;stroke-width:0.8;" x="225.310119" xlink:href="#m919de02c85" y="252"/>
      </g>
     </g>
     <g id="text_5">
      <!-- 2017-01 -->
      <g transform="translate(212.488836 293.917817)rotate(-45)scale(0.1 -0.1)">
       <defs>
        <path d="M 8.203125 72.90625 
L 55.078125 72.90625 
L 55.078125 68.703125 
L 28.609375 0 
L 18.3125 0 
L 43.21875 64.59375 
L 8.203125 64.59375 
z
" id="DejaVuSans-55"/>
       </defs>
       <use xlink:href="#DejaVuSans-50"/>
       <use x="63.623047" xlink:href="#DejaVuSans-48"/>
       <use x="127.246094" xlink:href="#DejaVuSans-49"/>
       <use x="190.869141" xlink:href="#DejaVuSans-55"/>
       <use x="254.492188" xlink:href="#DejaVuSans-45"/>
       <use x="290.576172" xlink:href="#DejaVuSans-48"/>
       <use x="354.199219" xlink:href="#DejaVuSans-49"/>
      </g>
     </g>
    </g>
    <g id="xtick_6">
     <g id="line2d_6">
      <g>
       <use style="stroke:#000000;stroke-width:0.8;" x="262.847258" xlink:href="#m919de02c85" y="252"/>
      </g>
     </g>
     <g id="text_6">
      <!-- 2017-05 -->
      <g transform="translate(250.025976 293.917817)rotate(-45)scale(0.1 -0.1)">
       <use xlink:href="#DejaVuSans-50"/>
       <use x="63.623047" xlink:href="#DejaVuSans-48"/>
       <use x="127.246094" xlink:href="#DejaVuSans-49"/>
       <use x="190.869141" xlink:href="#DejaVuSans-55"/>
       <use x="254.492188" xlink:href="#DejaVuSans-45"/>
       <use x="290.576172" xlink:href="#DejaVuSans-48"/>
       <use x="354.199219" xlink:href="#DejaVuSans-53"/>
      </g>
     </g>
    </g>
    <g id="xtick_7">
     <g id="line2d_7">
      <g>
       <use style="stroke:#000000;stroke-width:0.8;" x="301.322825" xlink:href="#m919de02c85" y="252"/>
      </g>
     </g>
     <g id="text_7">
      <!-- 2017-09 -->
      <g transform="translate(288.501543 293.917817)rotate(-45)scale(0.1 -0.1)">
       <use xlink:href="#DejaVuSans-50"/>
       <use x="63.623047" xlink:href="#DejaVuSans-48"/>
       <use x="127.246094" xlink:href="#DejaVuSans-49"/>
       <use x="190.869141" xlink:href="#DejaVuSans-55"/>
       <use x="254.492188" xlink:href="#DejaVuSans-45"/>
       <use x="290.576172" xlink:href="#DejaVuSans-48"/>
       <use x="354.199219" xlink:href="#DejaVuSans-57"/>
      </g>
     </g>
    </g>
    <g id="xtick_8">
     <g id="line2d_8">
      <g>
       <use style="stroke:#000000;stroke-width:0.8;" x="339.485583" xlink:href="#m919de02c85" y="252"/>
      </g>
     </g>
     <g id="text_8">
      <!-- 2018-01 -->
      <g transform="translate(326.664301 293.917817)rotate(-45)scale(0.1 -0.1)">
       <defs>
        <path d="M 31.78125 34.625 
Q 24.75 34.625 20.71875 30.859375 
Q 16.703125 27.09375 16.703125 20.515625 
Q 16.703125 13.921875 20.71875 10.15625 
Q 24.75 6.390625 31.78125 6.390625 
Q 38.8125 6.390625 42.859375 10.171875 
Q 46.921875 13.96875 46.921875 20.515625 
Q 46.921875 27.09375 42.890625 30.859375 
Q 38.875 34.625 31.78125 34.625 
z
M 21.921875 38.8125 
Q 15.578125 40.375 12.03125 44.71875 
Q 8.5 49.078125 8.5 55.328125 
Q 8.5 64.0625 14.71875 69.140625 
Q 20.953125 74.21875 31.78125 74.21875 
Q 42.671875 74.21875 48.875 69.140625 
Q 55.078125 64.0625 55.078125 55.328125 
Q 55.078125 49.078125 51.53125 44.71875 
Q 48 40.375 41.703125 38.8125 
Q 48.828125 37.15625 52.796875 32.3125 
Q 56.78125 27.484375 56.78125 20.515625 
Q 56.78125 9.90625 50.3125 4.234375 
Q 43.84375 -1.421875 31.78125 -1.421875 
Q 19.734375 -1.421875 13.25 4.234375 
Q 6.78125 9.90625 6.78125 20.515625 
Q 6.78125 27.484375 10.78125 32.3125 
Q 14.796875 37.15625 21.921875 38.8125 
z
M 18.3125 54.390625 
Q 18.3125 48.734375 21.84375 45.5625 
Q 25.390625 42.390625 31.78125 42.390625 
Q 38.140625 42.390625 41.71875 45.5625 
Q 45.3125 48.734375 45.3125 54.390625 
Q 45.3125 60.0625 41.71875 63.234375 
Q 38.140625 66.40625 31.78125 66.40625 
Q 25.390625 66.40625 21.84375 63.234375 
Q 18.3125 60.0625 18.3125 54.390625 
z
" id="DejaVuSans-56"/>
       </defs>
       <use xlink:href="#DejaVuSans-50"/>
       <use x="63.623047" xlink:href="#DejaVuSans-48"/>
       <use x="127.246094" xlink:href="#DejaVuSans-49"/>
       <use x="190.869141" xlink:href="#DejaVuSans-56"/>
       <use x="254.492188" xlink:href="#DejaVuSans-45"/>
       <use x="290.576172" xlink:href="#DejaVuSans-48"/>
       <use x="354.199219" xlink:href="#DejaVuSans-49"/>
      </g>
     </g>
    </g>
    <g id="xtick_9">
     <g id="line2d_9">
      <g>
       <use style="stroke:#000000;stroke-width:0.8;" x="377.022723" xlink:href="#m919de02c85" y="252"/>
      </g>
     </g>
     <g id="text_9">
      <!-- 2018-05 -->
      <g transform="translate(364.20144 293.917817)rotate(-45)scale(0.1 -0.1)">
       <use xlink:href="#DejaVuSans-50"/>
       <use x="63.623047" xlink:href="#DejaVuSans-48"/>
       <use x="127.246094" xlink:href="#DejaVuSans-49"/>
       <use x="190.869141" xlink:href="#DejaVuSans-56"/>
       <use x="254.492188" xlink:href="#DejaVuSans-45"/>
       <use x="290.576172" xlink:href="#DejaVuSans-48"/>
       <use x="354.199219" xlink:href="#DejaVuSans-53"/>
      </g>
     </g>
    </g>
   </g>
   <g id="matplotlib.axis_2">
    <g id="ytick_1">
     <g id="line2d_10">
      <defs>
       <path d="M 0 0 
L -3.5 0 
" id="md963b64a27" style="stroke:#000000;stroke-width:0.8;"/>
      </defs>
      <g>
       <use style="stroke:#000000;stroke-width:0.8;" x="54" xlink:href="#md963b64a27" y="242.116364"/>
      </g>
     </g>
     <g id="text_10">
      <!-- 0 -->
      <g transform="translate(40.6375 245.915582)scale(0.1 -0.1)">
       <use xlink:href="#DejaVuSans-48"/>
      </g>
     </g>
    </g>
    <g id="ytick_2">
     <g id="line2d_11">
      <g>
       <use style="stroke:#000000;stroke-width:0.8;" x="54" xlink:href="#md963b64a27" y="204.966819"/>
      </g>
     </g>
     <g id="text_11">
      <!-- 10 -->
      <g transform="translate(34.275 208.766038)scale(0.1 -0.1)">
       <use xlink:href="#DejaVuSans-49"/>
       <use x="63.623047" xlink:href="#DejaVuSans-48"/>
      </g>
     </g>
    </g>
    <g id="ytick_3">
     <g id="line2d_12">
      <g>
       <use style="stroke:#000000;stroke-width:0.8;" x="54" xlink:href="#md963b64a27" y="167.817274"/>
      </g>
     </g>
     <g id="text_12">
      <!-- 20 -->
      <g transform="translate(34.275 171.616493)scale(0.1 -0.1)">
       <use xlink:href="#DejaVuSans-50"/>
       <use x="63.623047" xlink:href="#DejaVuSans-48"/>
      </g>
     </g>
    </g>
    <g id="ytick_4">
     <g id="line2d_13">
      <g>
       <use style="stroke:#000000;stroke-width:0.8;" x="54" xlink:href="#md963b64a27" y="130.66773"/>
      </g>
     </g>
     <g id="text_13">
      <!-- 30 -->
      <g transform="translate(34.275 134.466948)scale(0.1 -0.1)">
       <defs>
        <path d="M 40.578125 39.3125 
Q 47.65625 37.796875 51.625 33 
Q 55.609375 28.21875 55.609375 21.1875 
Q 55.609375 10.40625 48.1875 4.484375 
Q 40.765625 -1.421875 27.09375 -1.421875 
Q 22.515625 -1.421875 17.65625 -0.515625 
Q 12.796875 0.390625 7.625 2.203125 
L 7.625 11.71875 
Q 11.71875 9.328125 16.59375 8.109375 
Q 21.484375 6.890625 26.8125 6.890625 
Q 36.078125 6.890625 40.9375 10.546875 
Q 45.796875 14.203125 45.796875 21.1875 
Q 45.796875 27.640625 41.28125 31.265625 
Q 36.765625 34.90625 28.71875 34.90625 
L 20.21875 34.90625 
L 20.21875 43.015625 
L 29.109375 43.015625 
Q 36.375 43.015625 40.234375 45.921875 
Q 44.09375 48.828125 44.09375 54.296875 
Q 44.09375 59.90625 40.109375 62.90625 
Q 36.140625 65.921875 28.71875 65.921875 
Q 24.65625 65.921875 20.015625 65.03125 
Q 15.375 64.15625 9.8125 62.3125 
L 9.8125 71.09375 
Q 15.4375 72.65625 20.34375 73.4375 
Q 25.25 74.21875 29.59375 74.21875 
Q 40.828125 74.21875 47.359375 69.109375 
Q 53.90625 64.015625 53.90625 55.328125 
Q 53.90625 49.265625 50.4375 45.09375 
Q 46.96875 40.921875 40.578125 39.3125 
z
" id="DejaVuSans-51"/>
       </defs>
       <use xlink:href="#DejaVuSans-51"/>
       <use x="63.623047" xlink:href="#DejaVuSans-48"/>
      </g>
     </g>
    </g>
    <g id="ytick_5">
     <g id="line2d_14">
      <g>
       <use style="stroke:#000000;stroke-width:0.8;" x="54" xlink:href="#md963b64a27" y="93.518185"/>
      </g>
     </g>
     <g id="text_14">
      <!-- 40 -->
      <g transform="translate(34.275 97.317404)scale(0.1 -0.1)">
       <defs>
        <path d="M 37.796875 64.3125 
L 12.890625 25.390625 
L 37.796875 25.390625 
z
M 35.203125 72.90625 
L 47.609375 72.90625 
L 47.609375 25.390625 
L 58.015625 25.390625 
L 58.015625 17.1875 
L 47.609375 17.1875 
L 47.609375 0 
L 37.796875 0 
L 37.796875 17.1875 
L 4.890625 17.1875 
L 4.890625 26.703125 
z
" id="DejaVuSans-52"/>
       </defs>
       <use xlink:href="#DejaVuSans-52"/>
       <use x="63.623047" xlink:href="#DejaVuSans-48"/>
      </g>
     </g>
    </g>
    <g id="ytick_6">
     <g id="line2d_15">
      <g>
       <use style="stroke:#000000;stroke-width:0.8;" x="54" xlink:href="#md963b64a27" y="56.36864"/>
      </g>
     </g>
     <g id="text_15">
      <!-- 50 -->
      <g transform="translate(34.275 60.167859)scale(0.1 -0.1)">
       <use xlink:href="#DejaVuSans-53"/>
       <use x="63.623047" xlink:href="#DejaVuSans-48"/>
      </g>
     </g>
    </g>
   </g>
   <g id="line2d_16">
    <path clip-path="url(#p8657a0ee89)" d="M 69.218182 196.088078 
L 69.530991 202.217753 
L 69.843801 222.761451 
L 70.15661 218.489253 
L 70.46942 218.229206 
L 70.782229 218.489253 
L 71.095039 218.340655 
L 71.407848 176.918913 
L 71.720658 177.699053 
L 72.033467 191.778731 
L 72.346277 156.560962 
L 72.659086 189.438309 
L 72.971896 162.839235 
L 73.597515 207.270091 
L 73.910324 181.042512 
L 74.223134 174.169846 
L 74.535943 182.417045 
L 74.848753 171.643677 
L 75.161562 189.252562 
L 75.474372 192.818918 
L 75.787181 209.201867 
L 76.099991 155.037831 
L 76.4128 182.491344 
L 76.72561 190.589945 
L 77.038419 150.988531 
L 77.351229 195.08504 
L 77.976848 165.551152 
L 78.289657 172.646715 
L 78.602467 150.802783 
L 78.915276 175.915875 
L 79.228086 177.401857 
L 79.540895 182.937139 
L 79.853705 103.920057 
L 80.166514 172.349519 
L 80.479324 188.58387 
L 80.792133 184.683168 
L 81.104943 183.605831 
L 81.417752 186.169149 
L 81.730562 184.46027 
L 82.043371 187.543682 
L 82.356181 171.272182 
L 82.66899 176.565992 
L 82.981799 155.92942 
L 83.294609 182.194148 
L 83.607418 160.79601 
L 83.920228 182.194148 
L 84.233037 177.216109 
L 84.545847 187.72943 
L 84.858656 170.343443 
L 85.171466 173.575454 
L 85.484275 141.775443 
L 85.797085 185.537607 
L 86.109894 170.714939 
L 86.422704 177.847651 
L 86.735513 169.043209 
L 87.048323 149.985493 
L 87.361132 171.866575 
L 87.673942 163.656525 
L 87.986751 179.110736 
L 88.299561 181.525456 
L 88.61237 133.193899 
L 88.92518 186.874991 
L 89.237989 173.129659 
L 89.550799 164.510965 
L 89.863608 172.795313 
L 90.176418 177.290408 
L 90.489227 169.600452 
L 90.802037 158.529888 
L 91.114846 161.687599 
L 91.427656 116.216557 
L 91.740465 168.485966 
L 92.366084 173.129659 
L 92.678894 167.445779 
L 92.991703 146.307688 
L 93.304513 166.851386 
L 93.617322 170.64064 
L 93.930132 127.621467 
L 94.242941 170.194845 
L 94.555751 184.534569 
L 94.86856 177.884801 
L 95.18137 152.604536 
L 95.494179 174.392744 
L 95.806989 157.341103 
L 96.119798 157.155355 
L 96.432608 147.162127 
L 96.745417 145.044603 
L 97.058227 160.721711 
L 97.371036 76.355095 
L 97.683846 143.447173 
L 98.309465 159.16143 
L 98.622274 132.785254 
L 98.935084 156.375215 
L 99.247893 138.171938 
L 99.560703 139.843667 
L 99.873512 145.044603 
L 100.186322 140.883854 
L 100.499131 102.545524 
L 101.12475 170.083396 
L 101.43756 152.62311 
L 102.063179 166.256993 
L 102.375988 116.476604 
L 102.688798 168.597415 
L 103.001607 149.019605 
L 103.314417 166.777087 
L 103.627226 153.291802 
L 103.940036 175.953025 
L 104.252845 169.897649 
L 104.565654 138.320536 
L 104.878464 153.180354 
L 105.191273 150.765633 
L 105.504083 157.118205 
L 105.816892 145.044603 
L 106.129702 163.470778 
L 106.442511 147.979417 
L 106.755321 182.119849 
L 107.06813 156.115168 
L 107.38094 149.874044 
L 107.693749 111.08992 
L 108.006559 152.548811 
L 108.319368 126.878476 
L 108.632178 111.127069 
L 108.944987 119.039922 
L 109.257797 133.565394 
L 109.570606 140.252312 
L 109.883416 166.51704 
L 110.196225 73.606029 
L 110.509035 125.875438 
L 110.821844 143.558622 
L 111.134654 144.673108 
L 111.447463 128.401607 
L 111.760273 136.648806 
L 112.073082 161.539001 
L 112.385892 165.885498 
L 112.698701 146.530585 
L 113.011511 168.931761 
L 113.32432 157.675449 
L 113.63713 151.768671 
L 113.949939 95.52426 
L 114.262749 150.24554 
L 114.575558 167.074283 
L 114.888368 147.719371 
L 115.201177 137.13175 
L 115.513987 117.739688 
L 116.139606 157.303953 
L 116.452415 164.288068 
L 117.078034 155.632224 
L 117.390844 174.244145 
L 117.703653 157.564 
L 118.016463 44.443636 
L 118.329272 156.598112 
L 118.642082 154.183391 
L 118.954891 136.240161 
L 119.267701 157.341103 
L 119.58051 153.830471 
L 119.89332 107.00347 
L 120.206129 151.304302 
L 120.831748 160.944608 
L 121.144558 149.465399 
L 121.457367 164.176619 
L 121.770177 161.984796 
L 122.082986 57.928921 
L 122.708605 168.857462 
L 123.021415 165.105358 
L 123.334224 173.946949 
L 123.647034 160.573113 
L 123.959843 171.049285 
L 124.272653 162.802086 
L 124.585462 124.538055 
L 124.898272 152.214465 
L 125.211081 160.907459 
L 125.52389 139.174975 
L 125.8367 163.990871 
L 126.149509 168.18877 
L 126.775128 154.33199 
L 127.400747 165.476853 
L 127.713557 164.808161 
L 128.026366 160.535964 
L 128.339176 173.9098 
L 128.651985 60.343641 
L 128.964795 173.241108 
L 129.277604 242.116364 
L 129.590414 164.06517 
L 129.903223 169.507579 
L 130.528842 144.970304 
L 130.841652 147.162127 
L 131.467271 168.727438 
L 131.78008 168.634564 
L 132.09289 159.904421 
L 132.405699 165.848348 
L 132.718509 177.327558 
L 133.031318 100.799496 
L 133.344128 177.327558 
L 133.656937 145.899043 
L 133.969747 185.871953 
L 134.282556 188.398122 
L 134.595366 168.634564 
L 134.908175 166.294143 
L 135.220985 151.88012 
L 135.533794 180.931064 
L 135.846604 167.445779 
L 136.159413 170.492041 
L 136.472223 166.182694 
L 136.785032 175.432931 
L 137.097842 174.65279 
L 137.723461 102.396926 
L 138.03627 184.571719 
L 138.34908 176.138772 
L 138.661889 173.09251 
L 138.974699 171.532229 
L 139.287508 165.514002 
L 139.600318 174.72709 
L 139.913127 153.254653 
L 140.225937 169.82335 
L 140.538746 166.256993 
L 140.851556 183.308634 
L 141.164365 169.674751 
L 141.477175 178.293446 
L 141.789984 177.327558 
L 142.102794 106.18618 
L 142.415603 167.854424 
L 142.728413 165.142507 
L 143.041222 167.148582 
L 143.354032 174.467043 
L 143.666841 166.702788 
L 143.979651 165.365404 
L 144.29246 154.963532 
L 144.60527 173.278257 
L 144.918079 164.91961 
L 145.543698 182.0084 
L 145.856508 166.888536 
L 146.169317 133.416796 
L 146.482127 176.807464 
L 146.794936 178.479194 
L 147.107745 165.402554 
L 147.420555 169.563303 
L 147.733364 169.82335 
L 148.046174 189.475459 
L 148.358983 185.834803 
L 148.671793 155.817971 
L 148.984602 180.262372 
L 149.297412 175.804426 
L 149.610221 185.351859 
L 149.923031 154.443438 
L 150.23584 192.596021 
L 150.54865 123.497867 
L 150.861459 191.741581 
L 151.174269 182.194148 
L 151.487078 181.265409 
L 151.799888 164.028021 
L 152.112697 173.09251 
L 152.425507 189.512608 
L 152.738316 164.473815 
L 153.051126 188.918216 
L 153.676745 172.981061 
L 153.989554 176.175922 
L 154.615173 187.320785 
L 154.927983 113.727537 
L 155.240792 180.485269 
L 155.553602 164.696713 
L 155.866411 182.454195 
L 156.179221 174.467043 
L 156.49203 174.72709 
L 156.80484 179.073586 
L 157.117649 131.262122 
L 157.430459 172.349519 
L 157.743268 184.534569 
L 158.056078 175.395781 
L 158.368887 180.188073 
L 158.681697 181.896952 
L 158.994506 171.717976 
L 159.307316 147.162127 
L 159.620125 132.116562 
L 159.932935 173.946949 
L 160.245744 167.631527 
L 160.558554 179.259334 
L 160.871363 171.643677 
L 161.184173 181.339709 
L 161.496982 155.242153 
L 161.809792 156.300915 
L 162.122601 178.627792 
L 162.435411 161.316104 
L 162.74822 175.061435 
L 163.06103 174.764239 
L 163.373839 188.918216 
L 163.686649 163.545077 
L 163.999458 181.246835 
L 164.312268 179.073586 
L 164.625077 186.057701 
L 164.937887 167.891573 
L 165.250696 199.580135 
L 165.563506 156.598112 
L 165.876315 171.940874 
L 166.189125 165.551152 
L 166.501934 173.575454 
L 166.814744 131.113524 
L 167.127553 177.550455 
L 167.440363 191.85303 
L 167.753172 166.08982 
L 168.065982 156.70956 
L 168.378791 179.705129 
L 168.6916 179.445082 
L 169.00441 176.36167 
L 169.317219 180.188073 
L 169.630029 177.847651 
L 169.942838 173.315407 
L 170.255648 178.73924 
L 170.568457 168.411667 
L 170.881267 183.754429 
L 171.194076 184.423121 
L 171.506886 168.894611 
L 171.819695 192.893217 
L 172.132505 192.484572 
L 172.445314 100.260827 
L 172.758124 174.65279 
L 173.070933 177.847651 
L 173.383743 196.868218 
L 173.696552 183.903027 
L 174.009362 192.856067 
L 174.322171 192.038777 
L 174.634981 182.565644 
L 174.94779 179.853727 
L 175.2606 163.28503 
L 175.573409 184.348822 
L 175.886219 167.742975 
L 176.199028 191.407235 
L 176.511838 200.434574 
L 176.824647 160.907459 
L 177.137457 185.426158 
L 177.450266 166.851386 
L 177.763076 187.060738 
L 178.075885 187.692281 
L 178.388695 193.413311 
L 178.701504 185.463308 
L 179.014314 171.978023 
L 179.327123 179.147885 
L 179.639933 189.40116 
L 179.952742 190.032702 
L 180.265552 132.190861 
L 180.578361 168.040172 
L 181.20398 203.517987 
L 181.51679 203.480837 
L 181.829599 203.146491 
L 182.142409 202.626398 
L 182.455218 196.75677 
L 182.768028 156.412364 
L 183.080837 195.159339 
L 183.393647 182.491344 
L 183.706456 198.577097 
L 184.019266 192.781768 
L 184.332075 177.624754 
L 184.957694 202.143454 
L 185.270504 208.644624 
L 185.583313 197.982705 
L 185.896123 177.030361 
L 186.208932 202.366351 
L 186.521742 198.948593 
L 186.834551 179.890876 
L 187.147361 191.592983 
L 187.46017 189.141113 
L 187.77298 179.519381 
L 188.085789 107.337816 
L 188.398599 183.420083 
L 188.711408 190.627095 
L 189.024218 187.357935 
L 189.337027 196.199526 
L 189.649836 200.360275 
L 189.962646 181.22826 
L 190.275455 196.236676 
L 190.588265 188.472421 
L 190.901074 188.881066 
L 191.213884 199.654434 
L 191.526693 198.057004 
L 191.839503 191.964478 
L 192.152312 137.540395 
L 192.465122 171.197883 
L 193.090741 204.929669 
L 193.40355 197.202564 
L 193.71636 192.63317 
L 194.029169 189.846954 
L 194.341979 153.366101 
L 194.654788 158.38129 
L 194.967598 191.370086 
L 195.280407 185.946252 
L 195.593217 186.09485 
L 195.906026 186.689243 
L 196.218836 169.266107 
L 196.531645 171.495079 
L 196.844455 156.932458 
L 197.157264 163.136432 
L 197.470074 176.807464 
L 197.782883 146.902081 
L 198.095693 171.717976 
L 199.034121 140.475209 
L 199.65974 166.108395 
L 199.97255 163.28503 
L 200.285359 155.89227 
L 200.598169 173.594028 
L 200.910978 150.059792 
L 201.223788 181.896952 
L 201.536597 160.870309 
L 201.849407 160.721711 
L 202.162216 164.028021 
L 202.475026 183.382933 
L 202.787835 175.024286 
L 203.100645 118.928473 
L 203.413454 165.402554 
L 203.726264 178.999287 
L 204.039073 170.306294 
L 204.351883 175.284333 
L 204.664692 175.54438 
L 204.977502 178.962138 
L 205.290311 135.422871 
L 205.603121 157.043906 
L 205.91593 167.260031 
L 206.22874 171.049285 
L 206.541549 165.69975 
L 206.854359 173.464005 
L 207.167168 170.046247 
L 207.479978 155.706523 
L 207.792787 164.622413 
L 208.105597 164.10232 
L 208.418406 161.316104 
L 209.044025 176.213071 
L 209.356835 167.260031 
L 209.669644 127.658616 
L 209.982454 173.612603 
L 210.295263 179.965175 
L 210.608073 163.953722 
L 210.920882 159.607225 
L 211.233691 162.950684 
L 211.546501 149.019605 
L 211.85931 67.550653 
L 212.17212 164.10232 
L 212.484929 162.096244 
L 212.797739 166.331292 
L 213.110548 157.006757 
L 213.423358 154.29484 
L 213.736167 168.448817 
L 214.048977 162.319142 
L 214.361786 125.020999 
L 214.674596 157.006757 
L 214.987405 159.532926 
L 215.300215 143.001378 
L 215.613024 154.814934 
L 215.925834 176.621716 
L 216.238643 164.176619 
L 216.551453 122.271932 
L 216.864262 155.743672 
L 217.177072 149.651147 
L 217.489881 129.218897 
L 217.802691 130.259085 
L 218.1155 138.840629 
L 218.42831 94.855569 
L 218.741119 156.040869 
L 219.053929 150.765633 
L 219.366738 119.782913 
L 219.679548 131.002075 
L 219.992357 91.363511 
L 220.305167 121.194596 
L 220.617976 124.240858 
L 220.930786 116.922398 
L 221.556405 150.654185 
L 221.869214 160.573113 
L 222.182024 132.488057 
L 222.494833 46.821207 
L 222.807643 115.399267 
L 223.120452 107.300666 
L 223.433262 129.03315 
L 223.746071 135.460021 
L 224.058881 150.394138 
L 224.37169 144.004416 
L 224.6845 160.573113 
L 224.997309 126.246934 
L 225.310119 127.992962 
L 225.622928 123.795064 
L 225.935738 115.696463 
L 226.248547 139.174975 
L 226.561357 116.402304 
L 226.874166 132.525207 
L 227.186976 62.572614 
L 227.499785 136.240161 
L 227.812595 167.705826 
L 228.438214 123.497867 
L 228.751023 117.256744 
L 229.376642 131.782216 
L 229.689452 131.48502 
L 230.002261 140.958153 
L 230.315071 162.727787 
L 230.62788 154.443438 
L 230.94069 173.389706 
L 231.253499 156.189467 
L 231.566309 146.827782 
L 231.879118 121.120297 
L 232.191927 159.941571 
L 232.504737 152.771709 
L 232.817546 82.819116 
L 233.130356 146.15909 
L 233.443165 178.813539 
L 233.755975 168.18877 
L 234.068784 141.366798 
L 234.381594 162.059095 
L 234.694403 159.607225 
L 235.007213 149.131053 
L 235.320022 131.745066 
L 235.632832 140.178013 
L 235.945641 117.776838 
L 236.258451 136.463059 
L 236.57126 142.592733 
L 236.88407 146.15909 
L 237.196879 131.819365 
L 237.509689 149.836895 
L 237.822498 146.084791 
L 238.135308 48.121441 
L 238.448117 157.006757 
L 238.760927 146.196239 
L 239.073736 144.48736 
L 239.386546 153.366101 
L 239.699355 159.087131 
L 240.012165 158.084094 
L 240.324974 121.120297 
L 240.950593 161.799048 
L 241.263403 166.479891 
L 241.576212 148.833857 
L 241.889022 152.363064 
L 242.514641 112.315855 
L 242.82745 151.06283 
L 243.14026 142.667033 
L 243.453069 147.199277 
L 243.765879 157.638299 
L 244.078688 141.106752 
L 244.391498 151.471475 
L 244.704307 133.491095 
L 245.017117 132.933852 
L 245.329926 148.833857 
L 245.642736 149.948343 
L 245.955545 152.214465 
L 246.268355 156.263766 
L 246.581164 158.38129 
L 246.893974 158.232692 
L 247.206783 87.611407 
L 247.519593 113.095995 
L 247.832402 164.399516 
L 248.145212 159.941571 
L 248.458021 143.744369 
L 248.770831 142.741332 
L 249.08364 159.235729 
L 249.39645 129.738991 
L 249.709259 163.470778 
L 250.022069 174.504192 
L 250.647688 177.067511 
L 250.960497 160.498814 
L 251.273307 132.413758 
L 251.586116 159.904421 
L 251.898926 142.778481 
L 252.211735 136.834554 
L 252.524545 153.180354 
L 252.837354 162.207693 
L 253.150164 162.170543 
L 253.462973 122.420531 
L 253.775782 152.214465 
L 254.088592 146.530585 
L 254.714211 158.975683 
L 255.02702 162.356291 
L 255.33983 163.024983 
L 255.652639 103.102767 
L 255.965449 154.090518 
L 256.278258 160.350216 
L 256.591068 151.285727 
L 256.903877 148.685259 
L 257.216687 171.866575 
L 257.529496 162.802086 
L 257.842306 132.748104 
L 258.467925 170.974986 
L 258.780734 171.45793 
L 259.093544 159.570075 
L 259.406353 169.82335 
L 259.719163 169.674751 
L 260.031972 99.907907 
L 260.344782 79.25276 
L 260.657591 162.653488 
L 260.970401 160.201618 
L 261.28321 175.172884 
L 261.59602 164.659563 
L 261.908829 172.981061 
L 262.534448 146.864931 
L 262.847258 160.79601 
L 263.160067 162.207693 
L 263.472877 174.467043 
L 263.785686 164.88246 
L 264.098496 180.002325 
L 264.411305 133.565394 
L 264.724115 169.340406 
L 265.036924 171.717976 
L 265.349734 172.795313 
L 265.662543 152.883157 
L 265.975353 176.584567 
L 266.288162 174.65279 
L 266.600972 124.723802 
L 266.913781 169.080359 
L 267.226591 163.805123 
L 267.5394 169.526153 
L 267.85221 157.786897 
L 268.165019 162.950684 
L 268.790638 151.508624 
L 269.103448 174.615641 
L 269.416257 169.971948 
L 269.729067 175.432931 
L 270.041876 164.956759 
L 270.980305 174.132697 
L 271.293114 154.25769 
L 271.605924 181.525456 
L 271.918733 164.585264 
L 272.231543 163.24788 
L 272.857162 168.560265 
L 273.169971 123.646466 
L 273.482781 165.811199 
L 273.79559 170.677789 
L 274.1084 172.572416 
L 274.421209 150.096941 
L 274.734018 185.686205 
L 275.046828 177.773352 
L 275.359637 173.9098 
L 275.672447 175.395781 
L 275.985256 188.918216 
L 276.298066 169.377555 
L 276.610875 139.286424 
L 276.923685 153.811896 
L 277.236494 188.286673 
L 277.549304 193.710507 
L 277.862113 203.25794 
L 278.174923 204.743922 
L 278.487732 205.67266 
L 278.800542 204.781071 
L 279.113351 204.558174 
L 279.426161 206.007006 
L 279.73897 206.675698 
L 280.05178 207.901633 
L 280.364589 208.458876 
L 280.677399 207.34439 
L 280.990208 117.925436 
L 281.303018 159.087131 
L 281.615827 175.692978 
L 281.928637 154.480588 
L 282.241446 179.333633 
L 282.554256 172.386668 
L 282.867065 179.928026 
L 283.179875 179.277909 
L 283.492684 173.018211 
L 283.805494 190.329898 
L 284.118303 182.899989 
L 284.431113 169.00606 
L 284.743922 171.235032 
L 285.056732 174.578491 
L 285.369541 163.842273 
L 285.682351 188.100926 
L 285.99516 181.896952 
L 286.30797 139.58362 
L 286.933589 175.655828 
L 287.246398 185.946252 
L 287.559208 191.03574 
L 287.872017 167.965872 
L 288.184827 196.273825 
L 288.497636 202.552099 
L 289.123255 163.545077 
L 289.436065 174.429893 
L 290.061684 209.944858 
L 290.374493 168.708863 
L 290.687303 198.502798 
L 291.000112 170.529191 
L 291.312922 202.960744 
L 291.625731 198.31705 
L 291.938541 189.252562 
L 292.25135 197.648359 
L 292.56416 197.165415 
L 292.876969 176.993212 
L 293.189779 208.421727 
L 293.502588 169.526153 
L 293.815398 188.918216 
L 294.128207 193.561909 
L 294.441017 179.463657 
L 294.753826 201.140416 
L 295.066636 176.213071 
L 295.379445 195.90233 
L 295.692255 182.807116 
L 296.005064 195.753732 
L 296.317873 195.93948 
L 296.630683 198.279901 
L 296.943492 208.607474 
L 297.256302 188.323823 
L 297.569111 146.604884 
L 297.881921 201.437612 
L 298.19473 192.521721 
L 298.50754 180.076624 
L 298.820349 219.975235 
L 299.133159 221.869862 
L 299.445968 219.938085 
L 299.758778 183.754429 
L 300.071587 185.463308 
L 300.384397 189.36401 
L 300.697206 186.392047 
L 301.010016 182.305597 
L 301.322825 193.673357 
L 301.635635 190.961441 
L 301.948444 171.272182 
L 302.261254 180.559568 
L 302.574063 186.280598 
L 302.886873 184.237373 
L 303.199682 183.828728 
L 303.512492 189.995552 
L 303.825301 185.574757 
L 304.138111 130.59343 
L 304.45092 174.987136 
L 305.076539 199.431537 
L 305.389349 170.677789 
L 305.702158 184.49742 
L 306.014968 157.638299 
L 306.640587 188.843917 
L 306.953396 187.135038 
L 307.266206 189.252562 
L 307.579015 166.999984 
L 307.891825 158.827084 
L 308.204634 155.297878 
L 308.517444 111.01562 
L 308.830253 162.876385 
L 309.143063 169.7862 
L 309.455872 161.464702 
L 309.768682 181.525456 
L 310.081491 158.641337 
L 310.394301 161.204655 
L 310.70711 138.654882 
L 311.01992 165.439703 
L 311.645539 180.856764 
L 311.958348 165.476853 
L 312.271158 170.324869 
L 312.583967 144.375912 
L 312.896777 170.529191 
L 313.209586 152.585961 
L 313.522396 142.03549 
L 314.148015 174.021248 
L 314.460824 160.610263 
L 314.773634 113.950434 
L 315.086443 149.056754 
L 315.399253 168.708863 
L 315.712062 172.386668 
L 316.024872 169.266107 
L 316.337681 173.166809 
L 316.650491 173.036785 
L 316.9633 146.233389 
L 317.27611 162.393441 
L 317.588919 156.895308 
L 317.901728 172.27522 
L 318.214538 175.135735 
L 318.527347 164.845311 
L 318.840157 171.569378 
L 319.152966 166.962835 
L 319.465776 117.999735 
L 319.778585 168.597415 
L 320.091395 167.854424 
L 320.404204 161.241805 
L 320.717014 178.293446 
L 321.029823 160.313066 
L 321.342633 156.040869 
L 321.655442 92.700895 
L 321.968252 157.155355 
L 322.281061 159.681524 
L 322.593871 176.993212 
L 322.90668 156.375215 
L 323.21949 156.040869 
L 323.532299 150.579886 
L 323.845109 164.473815 
L 324.157918 168.894611 
L 324.783537 146.790632 
L 325.096347 165.291105 
L 325.409156 164.362367 
L 325.721966 159.607225 
L 326.034775 122.829176 
L 326.347585 163.062133 
L 326.660394 178.107698 
L 326.973204 170.231995 
L 327.286013 168.708863 
L 327.598823 178.144848 
L 327.911632 148.945306 
L 328.224442 164.91961 
L 328.537251 169.526153 
L 328.850061 162.393441 
L 329.16287 161.576151 
L 329.788489 181.636905 
L 330.101299 168.857462 
L 330.414108 89.580333 
L 330.726918 143.930117 
L 331.039727 161.947646 
L 331.665346 168.634564 
L 331.978156 157.415402 
L 332.290965 171.903724 
L 332.603775 147.459324 
L 332.916584 163.433628 
L 333.229394 171.792276 
L 333.542203 166.405592 
L 333.855013 148.239464 
L 334.167822 167.594377 
L 334.480632 155.595074 
L 334.793441 125.838289 
L 335.106251 150.022642 
L 335.41906 149.502549 
L 335.73187 143.038528 
L 336.044679 155.335027 
L 336.670298 137.98619 
L 337.295917 59.67495 
L 337.608727 52.913733 
L 337.921536 62.646913 
L 338.234346 79.810003 
L 338.547155 61.755324 
L 338.859964 84.267948 
L 339.172774 46.041067 
L 339.485583 71.265608 
L 339.798393 79.178461 
L 340.111202 75.463506 
L 340.424012 77.729628 
L 340.736821 82.967714 
L 341.049631 101.059542 
L 341.36244 88.837342 
L 341.67525 93.815381 
L 341.988059 105.294591 
L 342.300869 102.471225 
L 342.613678 98.199028 
L 342.926488 72.231496 
L 343.239297 79.25276 
L 343.552107 95.004167 
L 343.864916 93.220989 
L 344.490535 152.065867 
L 344.803345 151.620073 
L 345.116154 150.654185 
L 345.428964 146.93923 
L 345.741773 104.291553 
L 346.054583 123.720765 
L 346.367392 128.698804 
L 346.680202 137.094601 
L 346.993011 134.011189 
L 347.305821 134.977077 
L 347.61863 128.587355 
L 347.93144 105.814684 
L 348.244249 136.091563 
L 348.557059 153.923345 
L 348.869868 125.541092 
L 349.182678 141.924042 
L 349.495487 142.221238 
L 349.808297 159.607225 
L 350.121106 98.514799 
L 350.433916 148.313763 
L 350.746725 154.666335 
L 351.059535 133.453945 
L 351.372344 156.74671 
L 351.685154 144.896005 
L 351.997963 118.594128 
L 352.310773 110.421228 
L 352.623582 80.330097 
L 352.936392 131.559319 
L 353.249201 88.391548 
L 353.87482 145.230351 
L 354.18763 139.58362 
L 354.500439 103.957207 
L 354.813249 114.581977 
L 355.126058 121.306044 
L 355.438868 106.371927 
L 355.751677 117.405342 
L 356.064487 113.541789 
L 356.377296 140.029415 
L 356.690106 115.696463 
L 357.315725 144.227313 
L 357.628534 131.44787 
L 357.941344 134.419834 
L 358.254153 132.822403 
L 358.566963 154.592036 
L 358.879772 85.679631 
L 359.192582 136.463059 
L 359.505391 143.484322 
L 359.818201 138.394835 
L 360.13101 156.115168 
L 360.756629 124.983849 
L 361.069438 158.34414 
L 361.382248 153.273228 
L 361.695057 151.285727 
L 362.007867 132.22801 
L 362.320676 138.469134 
L 362.633486 136.983152 
L 362.946295 149.762596 
L 363.259105 141.701144 
L 363.571914 160.387365 
L 363.884724 156.895308 
L 364.197533 117.070996 
L 364.510343 163.470778 
L 364.823152 156.189467 
L 365.135962 154.443438 
L 365.448771 159.532926 
L 365.761581 153.031755 
L 366.07439 149.42825 
L 366.3872 150.654185 
L 366.700009 112.130107 
L 367.012819 153.254653 
L 367.325628 161.984796 
L 367.638438 146.344837 
L 367.951247 137.354648 
L 368.264057 155.780822 
L 368.576866 138.840629 
L 368.889676 162.690637 
L 369.202485 165.328255 
L 369.515295 123.869363 
L 369.828104 136.871704 
L 370.140914 172.089472 
L 370.453723 160.83316 
L 371.079342 154.29484 
L 371.392152 160.684562 
L 371.704961 155.817971 
L 372.017771 148.388062 
L 372.33058 156.152317 
L 372.64339 168.857462 
L 372.956199 138.469134 
L 373.269009 146.084791 
L 373.581818 160.275917 
L 373.581818 160.275917 
" style="fill:none;stroke:#000000;stroke-linecap:square;stroke-width:1.5;"/>
   </g>
   <g id="patch_3">
    <path d="M 54 252 
L 54 34.56 
" style="fill:none;stroke:#000000;stroke-linecap:square;stroke-linejoin:miter;stroke-width:0.8;"/>
   </g>
   <g id="patch_4">
    <path d="M 388.8 252 
L 388.8 34.56 
" style="fill:none;stroke:#000000;stroke-linecap:square;stroke-linejoin:miter;stroke-width:0.8;"/>
   </g>
   <g id="patch_5">
    <path d="M 54 252 
L 388.8 252 
" style="fill:none;stroke:#000000;stroke-linecap:square;stroke-linejoin:miter;stroke-width:0.8;"/>
   </g>
   <g id="patch_6">
    <path d="M 54 34.56 
L 388.8 34.56 
" style="fill:none;stroke:#000000;stroke-linecap:square;stroke-linejoin:miter;stroke-width:0.8;"/>
   </g>
   <g id="text_16">
    <!-- Soma Diária de Energia - Casa 20 -->
    <g transform="translate(120.413438 28.56)scale(0.12 -0.12)">
     <defs>
      <path d="M 53.515625 70.515625 
L 53.515625 60.890625 
Q 47.90625 63.578125 42.921875 64.890625 
Q 37.9375 66.21875 33.296875 66.21875 
Q 25.25 66.21875 20.875 63.09375 
Q 16.5 59.96875 16.5 54.203125 
Q 16.5 49.359375 19.40625 46.890625 
Q 22.3125 44.4375 30.421875 42.921875 
L 36.375 41.703125 
Q 47.40625 39.59375 52.65625 34.296875 
Q 57.90625 29 57.90625 20.125 
Q 57.90625 9.515625 50.796875 4.046875 
Q 43.703125 -1.421875 29.984375 -1.421875 
Q 24.8125 -1.421875 18.96875 -0.25 
Q 13.140625 0.921875 6.890625 3.21875 
L 6.890625 13.375 
Q 12.890625 10.015625 18.65625 8.296875 
Q 24.421875 6.59375 29.984375 6.59375 
Q 38.421875 6.59375 43.015625 9.90625 
Q 47.609375 13.234375 47.609375 19.390625 
Q 47.609375 24.75 44.3125 27.78125 
Q 41.015625 30.8125 33.5 32.328125 
L 27.484375 33.5 
Q 16.453125 35.6875 11.515625 40.375 
Q 6.59375 45.0625 6.59375 53.421875 
Q 6.59375 63.09375 13.40625 68.65625 
Q 20.21875 74.21875 32.171875 74.21875 
Q 37.3125 74.21875 42.625 73.28125 
Q 47.953125 72.359375 53.515625 70.515625 
z
" id="DejaVuSans-83"/>
      <path d="M 30.609375 48.390625 
Q 23.390625 48.390625 19.1875 42.75 
Q 14.984375 37.109375 14.984375 27.296875 
Q 14.984375 17.484375 19.15625 11.84375 
Q 23.34375 6.203125 30.609375 6.203125 
Q 37.796875 6.203125 41.984375 11.859375 
Q 46.1875 17.53125 46.1875 27.296875 
Q 46.1875 37.015625 41.984375 42.703125 
Q 37.796875 48.390625 30.609375 48.390625 
z
M 30.609375 56 
Q 42.328125 56 49.015625 48.375 
Q 55.71875 40.765625 55.71875 27.296875 
Q 55.71875 13.875 49.015625 6.21875 
Q 42.328125 -1.421875 30.609375 -1.421875 
Q 18.84375 -1.421875 12.171875 6.21875 
Q 5.515625 13.875 5.515625 27.296875 
Q 5.515625 40.765625 12.171875 48.375 
Q 18.84375 56 30.609375 56 
z
" id="DejaVuSans-111"/>
      <path d="M 52 44.1875 
Q 55.375 50.25 60.0625 53.125 
Q 64.75 56 71.09375 56 
Q 79.640625 56 84.28125 50.015625 
Q 88.921875 44.046875 88.921875 33.015625 
L 88.921875 0 
L 79.890625 0 
L 79.890625 32.71875 
Q 79.890625 40.578125 77.09375 44.375 
Q 74.3125 48.1875 68.609375 48.1875 
Q 61.625 48.1875 57.5625 43.546875 
Q 53.515625 38.921875 53.515625 30.90625 
L 53.515625 0 
L 44.484375 0 
L 44.484375 32.71875 
Q 44.484375 40.625 41.703125 44.40625 
Q 38.921875 48.1875 33.109375 48.1875 
Q 26.21875 48.1875 22.15625 43.53125 
Q 18.109375 38.875 18.109375 30.90625 
L 18.109375 0 
L 9.078125 0 
L 9.078125 54.6875 
L 18.109375 54.6875 
L 18.109375 46.1875 
Q 21.1875 51.21875 25.484375 53.609375 
Q 29.78125 56 35.6875 56 
Q 41.65625 56 45.828125 52.96875 
Q 50 49.953125 52 44.1875 
z
" id="DejaVuSans-109"/>
      <path d="M 34.28125 27.484375 
Q 23.390625 27.484375 19.1875 25 
Q 14.984375 22.515625 14.984375 16.5 
Q 14.984375 11.71875 18.140625 8.90625 
Q 21.296875 6.109375 26.703125 6.109375 
Q 34.1875 6.109375 38.703125 11.40625 
Q 43.21875 16.703125 43.21875 25.484375 
L 43.21875 27.484375 
z
M 52.203125 31.203125 
L 52.203125 0 
L 43.21875 0 
L 43.21875 8.296875 
Q 40.140625 3.328125 35.546875 0.953125 
Q 30.953125 -1.421875 24.3125 -1.421875 
Q 15.921875 -1.421875 10.953125 3.296875 
Q 6 8.015625 6 15.921875 
Q 6 25.140625 12.171875 29.828125 
Q 18.359375 34.515625 30.609375 34.515625 
L 43.21875 34.515625 
L 43.21875 35.40625 
Q 43.21875 41.609375 39.140625 45 
Q 35.0625 48.390625 27.6875 48.390625 
Q 23 48.390625 18.546875 47.265625 
Q 14.109375 46.140625 10.015625 43.890625 
L 10.015625 52.203125 
Q 14.9375 54.109375 19.578125 55.046875 
Q 24.21875 56 28.609375 56 
Q 40.484375 56 46.34375 49.84375 
Q 52.203125 43.703125 52.203125 31.203125 
z
" id="DejaVuSans-97"/>
      <path id="DejaVuSans-32"/>
      <path d="M 19.671875 64.796875 
L 19.671875 8.109375 
L 31.59375 8.109375 
Q 46.6875 8.109375 53.6875 14.9375 
Q 60.6875 21.78125 60.6875 36.53125 
Q 60.6875 51.171875 53.6875 57.984375 
Q 46.6875 64.796875 31.59375 64.796875 
z
M 9.8125 72.90625 
L 30.078125 72.90625 
Q 51.265625 72.90625 61.171875 64.09375 
Q 71.09375 55.28125 71.09375 36.53125 
Q 71.09375 17.671875 61.125 8.828125 
Q 51.171875 0 30.078125 0 
L 9.8125 0 
z
" id="DejaVuSans-68"/>
      <path d="M 9.421875 54.6875 
L 18.40625 54.6875 
L 18.40625 0 
L 9.421875 0 
z
M 9.421875 75.984375 
L 18.40625 75.984375 
L 18.40625 64.59375 
L 9.421875 64.59375 
z
" id="DejaVuSans-105"/>
      <path d="M 34.28125 27.484375 
Q 23.390625 27.484375 19.1875 25 
Q 14.984375 22.515625 14.984375 16.5 
Q 14.984375 11.71875 18.140625 8.90625 
Q 21.296875 6.109375 26.703125 6.109375 
Q 34.1875 6.109375 38.703125 11.40625 
Q 43.21875 16.703125 43.21875 25.484375 
L 43.21875 27.484375 
z
M 52.203125 31.203125 
L 52.203125 0 
L 43.21875 0 
L 43.21875 8.296875 
Q 40.140625 3.328125 35.546875 0.953125 
Q 30.953125 -1.421875 24.3125 -1.421875 
Q 15.921875 -1.421875 10.953125 3.296875 
Q 6 8.015625 6 15.921875 
Q 6 25.140625 12.171875 29.828125 
Q 18.359375 34.515625 30.609375 34.515625 
L 43.21875 34.515625 
L 43.21875 35.40625 
Q 43.21875 41.609375 39.140625 45 
Q 35.0625 48.390625 27.6875 48.390625 
Q 23 48.390625 18.546875 47.265625 
Q 14.109375 46.140625 10.015625 43.890625 
L 10.015625 52.203125 
Q 14.9375 54.109375 19.578125 55.046875 
Q 24.21875 56 28.609375 56 
Q 40.484375 56 46.34375 49.84375 
Q 52.203125 43.703125 52.203125 31.203125 
z
M 35.796875 79.984375 
L 45.515625 79.984375 
L 29.59375 61.625 
L 22.125 61.625 
z
" id="DejaVuSans-225"/>
      <path d="M 41.109375 46.296875 
Q 39.59375 47.171875 37.8125 47.578125 
Q 36.03125 48 33.890625 48 
Q 26.265625 48 22.1875 43.046875 
Q 18.109375 38.09375 18.109375 28.8125 
L 18.109375 0 
L 9.078125 0 
L 9.078125 54.6875 
L 18.109375 54.6875 
L 18.109375 46.1875 
Q 20.953125 51.171875 25.484375 53.578125 
Q 30.03125 56 36.53125 56 
Q 37.453125 56 38.578125 55.875 
Q 39.703125 55.765625 41.0625 55.515625 
z
" id="DejaVuSans-114"/>
      <path d="M 45.40625 46.390625 
L 45.40625 75.984375 
L 54.390625 75.984375 
L 54.390625 0 
L 45.40625 0 
L 45.40625 8.203125 
Q 42.578125 3.328125 38.25 0.953125 
Q 33.9375 -1.421875 27.875 -1.421875 
Q 17.96875 -1.421875 11.734375 6.484375 
Q 5.515625 14.40625 5.515625 27.296875 
Q 5.515625 40.1875 11.734375 48.09375 
Q 17.96875 56 27.875 56 
Q 33.9375 56 38.25 53.625 
Q 42.578125 51.265625 45.40625 46.390625 
z
M 14.796875 27.296875 
Q 14.796875 17.390625 18.875 11.75 
Q 22.953125 6.109375 30.078125 6.109375 
Q 37.203125 6.109375 41.296875 11.75 
Q 45.40625 17.390625 45.40625 27.296875 
Q 45.40625 37.203125 41.296875 42.84375 
Q 37.203125 48.484375 30.078125 48.484375 
Q 22.953125 48.484375 18.875 42.84375 
Q 14.796875 37.203125 14.796875 27.296875 
z
" id="DejaVuSans-100"/>
      <path d="M 56.203125 29.59375 
L 56.203125 25.203125 
L 14.890625 25.203125 
Q 15.484375 15.921875 20.484375 11.0625 
Q 25.484375 6.203125 34.421875 6.203125 
Q 39.59375 6.203125 44.453125 7.46875 
Q 49.3125 8.734375 54.109375 11.28125 
L 54.109375 2.78125 
Q 49.265625 0.734375 44.1875 -0.34375 
Q 39.109375 -1.421875 33.890625 -1.421875 
Q 20.796875 -1.421875 13.15625 6.1875 
Q 5.515625 13.8125 5.515625 26.8125 
Q 5.515625 40.234375 12.765625 48.109375 
Q 20.015625 56 32.328125 56 
Q 43.359375 56 49.78125 48.890625 
Q 56.203125 41.796875 56.203125 29.59375 
z
M 47.21875 32.234375 
Q 47.125 39.59375 43.09375 43.984375 
Q 39.0625 48.390625 32.421875 48.390625 
Q 24.90625 48.390625 20.390625 44.140625 
Q 15.875 39.890625 15.1875 32.171875 
z
" id="DejaVuSans-101"/>
      <path d="M 9.8125 72.90625 
L 55.90625 72.90625 
L 55.90625 64.59375 
L 19.671875 64.59375 
L 19.671875 43.015625 
L 54.390625 43.015625 
L 54.390625 34.71875 
L 19.671875 34.71875 
L 19.671875 8.296875 
L 56.78125 8.296875 
L 56.78125 0 
L 9.8125 0 
z
" id="DejaVuSans-69"/>
      <path d="M 54.890625 33.015625 
L 54.890625 0 
L 45.90625 0 
L 45.90625 32.71875 
Q 45.90625 40.484375 42.875 44.328125 
Q 39.84375 48.1875 33.796875 48.1875 
Q 26.515625 48.1875 22.3125 43.546875 
Q 18.109375 38.921875 18.109375 30.90625 
L 18.109375 0 
L 9.078125 0 
L 9.078125 54.6875 
L 18.109375 54.6875 
L 18.109375 46.1875 
Q 21.34375 51.125 25.703125 53.5625 
Q 30.078125 56 35.796875 56 
Q 45.21875 56 50.046875 50.171875 
Q 54.890625 44.34375 54.890625 33.015625 
z
" id="DejaVuSans-110"/>
      <path d="M 45.40625 27.984375 
Q 45.40625 37.75 41.375 43.109375 
Q 37.359375 48.484375 30.078125 48.484375 
Q 22.859375 48.484375 18.828125 43.109375 
Q 14.796875 37.75 14.796875 27.984375 
Q 14.796875 18.265625 18.828125 12.890625 
Q 22.859375 7.515625 30.078125 7.515625 
Q 37.359375 7.515625 41.375 12.890625 
Q 45.40625 18.265625 45.40625 27.984375 
z
M 54.390625 6.78125 
Q 54.390625 -7.171875 48.1875 -13.984375 
Q 42 -20.796875 29.203125 -20.796875 
Q 24.46875 -20.796875 20.265625 -20.09375 
Q 16.0625 -19.390625 12.109375 -17.921875 
L 12.109375 -9.1875 
Q 16.0625 -11.328125 19.921875 -12.34375 
Q 23.78125 -13.375 27.78125 -13.375 
Q 36.625 -13.375 41.015625 -8.765625 
Q 45.40625 -4.15625 45.40625 5.171875 
L 45.40625 9.625 
Q 42.625 4.78125 38.28125 2.390625 
Q 33.9375 0 27.875 0 
Q 17.828125 0 11.671875 7.65625 
Q 5.515625 15.328125 5.515625 27.984375 
Q 5.515625 40.671875 11.671875 48.328125 
Q 17.828125 56 27.875 56 
Q 33.9375 56 38.28125 53.609375 
Q 42.625 51.21875 45.40625 46.390625 
L 45.40625 54.6875 
L 54.390625 54.6875 
z
" id="DejaVuSans-103"/>
      <path d="M 64.40625 67.28125 
L 64.40625 56.890625 
Q 59.421875 61.53125 53.78125 63.8125 
Q 48.140625 66.109375 41.796875 66.109375 
Q 29.296875 66.109375 22.65625 58.46875 
Q 16.015625 50.828125 16.015625 36.375 
Q 16.015625 21.96875 22.65625 14.328125 
Q 29.296875 6.6875 41.796875 6.6875 
Q 48.140625 6.6875 53.78125 8.984375 
Q 59.421875 11.28125 64.40625 15.921875 
L 64.40625 5.609375 
Q 59.234375 2.09375 53.4375 0.328125 
Q 47.65625 -1.421875 41.21875 -1.421875 
Q 24.65625 -1.421875 15.125 8.703125 
Q 5.609375 18.84375 5.609375 36.375 
Q 5.609375 53.953125 15.125 64.078125 
Q 24.65625 74.21875 41.21875 74.21875 
Q 47.75 74.21875 53.53125 72.484375 
Q 59.328125 70.75 64.40625 67.28125 
z
" id="DejaVuSans-67"/>
      <path d="M 44.28125 53.078125 
L 44.28125 44.578125 
Q 40.484375 46.53125 36.375 47.5 
Q 32.28125 48.484375 27.875 48.484375 
Q 21.1875 48.484375 17.84375 46.4375 
Q 14.5 44.390625 14.5 40.28125 
Q 14.5 37.15625 16.890625 35.375 
Q 19.28125 33.59375 26.515625 31.984375 
L 29.59375 31.296875 
Q 39.15625 29.25 43.1875 25.515625 
Q 47.21875 21.78125 47.21875 15.09375 
Q 47.21875 7.46875 41.1875 3.015625 
Q 35.15625 -1.421875 24.609375 -1.421875 
Q 20.21875 -1.421875 15.453125 -0.5625 
Q 10.6875 0.296875 5.421875 2 
L 5.421875 11.28125 
Q 10.40625 8.6875 15.234375 7.390625 
Q 20.0625 6.109375 24.8125 6.109375 
Q 31.15625 6.109375 34.5625 8.28125 
Q 37.984375 10.453125 37.984375 14.40625 
Q 37.984375 18.0625 35.515625 20.015625 
Q 33.0625 21.96875 24.703125 23.78125 
L 21.578125 24.515625 
Q 13.234375 26.265625 9.515625 29.90625 
Q 5.8125 33.546875 5.8125 39.890625 
Q 5.8125 47.609375 11.28125 51.796875 
Q 16.75 56 26.8125 56 
Q 31.78125 56 36.171875 55.265625 
Q 40.578125 54.546875 44.28125 53.078125 
z
" id="DejaVuSans-115"/>
     </defs>
     <use xlink:href="#DejaVuSans-83"/>
     <use x="63.476562" xlink:href="#DejaVuSans-111"/>
     <use x="124.658203" xlink:href="#DejaVuSans-109"/>
     <use x="222.070312" xlink:href="#DejaVuSans-97"/>
     <use x="283.349609" xlink:href="#DejaVuSans-32"/>
     <use x="315.136719" xlink:href="#DejaVuSans-68"/>
     <use x="392.138672" xlink:href="#DejaVuSans-105"/>
     <use x="419.921875" xlink:href="#DejaVuSans-225"/>
     <use x="481.201172" xlink:href="#DejaVuSans-114"/>
     <use x="522.314453" xlink:href="#DejaVuSans-105"/>
     <use x="550.097656" xlink:href="#DejaVuSans-97"/>
     <use x="611.376953" xlink:href="#DejaVuSans-32"/>
     <use x="643.164062" xlink:href="#DejaVuSans-100"/>
     <use x="706.640625" xlink:href="#DejaVuSans-101"/>
     <use x="768.164062" xlink:href="#DejaVuSans-32"/>
     <use x="799.951172" xlink:href="#DejaVuSans-69"/>
     <use x="863.134766" xlink:href="#DejaVuSans-110"/>
     <use x="926.513672" xlink:href="#DejaVuSans-101"/>
     <use x="988.037109" xlink:href="#DejaVuSans-114"/>
     <use x="1027.400391" xlink:href="#DejaVuSans-103"/>
     <use x="1090.876953" xlink:href="#DejaVuSans-105"/>
     <use x="1118.660156" xlink:href="#DejaVuSans-97"/>
     <use x="1179.939453" xlink:href="#DejaVuSans-32"/>
     <use x="1211.726562" xlink:href="#DejaVuSans-45"/>
     <use x="1247.810547" xlink:href="#DejaVuSans-32"/>
     <use x="1279.597656" xlink:href="#DejaVuSans-67"/>
     <use x="1349.421875" xlink:href="#DejaVuSans-97"/>
     <use x="1410.701172" xlink:href="#DejaVuSans-115"/>
     <use x="1462.800781" xlink:href="#DejaVuSans-97"/>
     <use x="1524.080078" xlink:href="#DejaVuSans-32"/>
     <use x="1555.867188" xlink:href="#DejaVuSans-50"/>
     <use x="1619.490234" xlink:href="#DejaVuSans-48"/>
    </g>
   </g>
  </g>
 </g>
 <defs>
  <clipPath id="p8657a0ee89">
   <rect height="217.44" width="334.8" x="54" y="34.56"/>
  </clipPath>
 </defs>
</svg>
