<?xml version="1.0" encoding="utf-8" standalone="no"?>
<!DOCTYPE svg PUBLIC "-//W3C//DTD SVG 1.1//EN"
  "http://www.w3.org/Graphics/SVG/1.1/DTD/svg11.dtd">
<!-- Created with matplotlib (https://matplotlib.org/) -->
<svg height="288pt" version="1.1" viewBox="0 0 432 288" width="432pt" xmlns="http://www.w3.org/2000/svg" xmlns:xlink="http://www.w3.org/1999/xlink">
 <metadata>
  <rdf:RDF xmlns:cc="http://creativecommons.org/ns#" xmlns:dc="http://purl.org/dc/elements/1.1/" xmlns:rdf="http://www.w3.org/1999/02/22-rdf-syntax-ns#">
   <cc:Work>
    <dc:type rdf:resource="http://purl.org/dc/dcmitype/StillImage"/>
    <dc:date>2021-07-21T14:57:43.646099</dc:date>
    <dc:format>image/svg+xml</dc:format>
    <dc:creator>
     <cc:Agent>
      <dc:title>Matplotlib v3.3.4, https://matplotlib.org/</dc:title>
     </cc:Agent>
    </dc:creator>
   </cc:Work>
  </rdf:RDF>
 </metadata>
 <defs>
  <style type="text/css">*{stroke-linecap:butt;stroke-linejoin:round;}</style>
 </defs>
 <g id="figure_1">
  <g id="patch_1">
   <path d="M 0 288 
L 432 288 
L 432 0 
L 0 0 
z
" style="fill:#ffffff;"/>
  </g>
  <g id="axes_1">
   <g id="patch_2">
    <path d="M 54 252 
L 388.8 252 
L 388.8 34.56 
L 54 34.56 
z
" style="fill:#ffffff;"/>
   </g>
   <g id="matplotlib.axis_1">
    <g id="xtick_1">
     <g id="line2d_1">
      <defs>
       <path d="M 0 0 
L 0 3.5 
" id="m98e5ea783c" style="stroke:#000000;stroke-width:0.8;"/>
      </defs>
      <g>
       <use style="stroke:#000000;stroke-width:0.8;" x="61.15741" xlink:href="#m98e5ea783c" y="252"/>
      </g>
     </g>
     <g id="text_1">
      <!-- 2015-01 -->
      <g transform="translate(48.336127 293.917817)rotate(-45)scale(0.1 -0.1)">
       <defs>
        <path d="M 19.1875 8.296875 
L 53.609375 8.296875 
L 53.609375 0 
L 7.328125 0 
L 7.328125 8.296875 
Q 12.9375 14.109375 22.625 23.890625 
Q 32.328125 33.6875 34.8125 36.53125 
Q 39.546875 41.84375 41.421875 45.53125 
Q 43.3125 49.21875 43.3125 52.78125 
Q 43.3125 58.59375 39.234375 62.25 
Q 35.15625 65.921875 28.609375 65.921875 
Q 23.96875 65.921875 18.8125 64.3125 
Q 13.671875 62.703125 7.8125 59.421875 
L 7.8125 69.390625 
Q 13.765625 71.78125 18.9375 73 
Q 24.125 74.21875 28.421875 74.21875 
Q 39.75 74.21875 46.484375 68.546875 
Q 53.21875 62.890625 53.21875 53.421875 
Q 53.21875 48.921875 51.53125 44.890625 
Q 49.859375 40.875 45.40625 35.40625 
Q 44.1875 33.984375 37.640625 27.21875 
Q 31.109375 20.453125 19.1875 8.296875 
z
" id="DejaVuSans-50"/>
        <path d="M 31.78125 66.40625 
Q 24.171875 66.40625 20.328125 58.90625 
Q 16.5 51.421875 16.5 36.375 
Q 16.5 21.390625 20.328125 13.890625 
Q 24.171875 6.390625 31.78125 6.390625 
Q 39.453125 6.390625 43.28125 13.890625 
Q 47.125 21.390625 47.125 36.375 
Q 47.125 51.421875 43.28125 58.90625 
Q 39.453125 66.40625 31.78125 66.40625 
z
M 31.78125 74.21875 
Q 44.046875 74.21875 50.515625 64.515625 
Q 56.984375 54.828125 56.984375 36.375 
Q 56.984375 17.96875 50.515625 8.265625 
Q 44.046875 -1.421875 31.78125 -1.421875 
Q 19.53125 -1.421875 13.0625 8.265625 
Q 6.59375 17.96875 6.59375 36.375 
Q 6.59375 54.828125 13.0625 64.515625 
Q 19.53125 74.21875 31.78125 74.21875 
z
" id="DejaVuSans-48"/>
        <path d="M 12.40625 8.296875 
L 28.515625 8.296875 
L 28.515625 63.921875 
L 10.984375 60.40625 
L 10.984375 69.390625 
L 28.421875 72.90625 
L 38.28125 72.90625 
L 38.28125 8.296875 
L 54.390625 8.296875 
L 54.390625 0 
L 12.40625 0 
z
" id="DejaVuSans-49"/>
        <path d="M 10.796875 72.90625 
L 49.515625 72.90625 
L 49.515625 64.59375 
L 19.828125 64.59375 
L 19.828125 46.734375 
Q 21.96875 47.46875 24.109375 47.828125 
Q 26.265625 48.1875 28.421875 48.1875 
Q 40.625 48.1875 47.75 41.5 
Q 54.890625 34.8125 54.890625 23.390625 
Q 54.890625 11.625 47.5625 5.09375 
Q 40.234375 -1.421875 26.90625 -1.421875 
Q 22.3125 -1.421875 17.546875 -0.640625 
Q 12.796875 0.140625 7.71875 1.703125 
L 7.71875 11.625 
Q 12.109375 9.234375 16.796875 8.0625 
Q 21.484375 6.890625 26.703125 6.890625 
Q 35.15625 6.890625 40.078125 11.328125 
Q 45.015625 15.765625 45.015625 23.390625 
Q 45.015625 31 40.078125 35.4375 
Q 35.15625 39.890625 26.703125 39.890625 
Q 22.75 39.890625 18.8125 39.015625 
Q 14.890625 38.140625 10.796875 36.28125 
z
" id="DejaVuSans-53"/>
        <path d="M 4.890625 31.390625 
L 31.203125 31.390625 
L 31.203125 23.390625 
L 4.890625 23.390625 
z
" id="DejaVuSans-45"/>
       </defs>
       <use xlink:href="#DejaVuSans-50"/>
       <use x="63.623047" xlink:href="#DejaVuSans-48"/>
       <use x="127.246094" xlink:href="#DejaVuSans-49"/>
       <use x="190.869141" xlink:href="#DejaVuSans-53"/>
       <use x="254.492188" xlink:href="#DejaVuSans-45"/>
       <use x="290.576172" xlink:href="#DejaVuSans-48"/>
       <use x="354.199219" xlink:href="#DejaVuSans-49"/>
      </g>
     </g>
    </g>
    <g id="xtick_2">
     <g id="line2d_2">
      <g>
       <use style="stroke:#000000;stroke-width:0.8;" x="94.512329" xlink:href="#m98e5ea783c" y="252"/>
      </g>
     </g>
     <g id="text_2">
      <!-- 2015-05 -->
      <g transform="translate(81.691047 293.917817)rotate(-45)scale(0.1 -0.1)">
       <use xlink:href="#DejaVuSans-50"/>
       <use x="63.623047" xlink:href="#DejaVuSans-48"/>
       <use x="127.246094" xlink:href="#DejaVuSans-49"/>
       <use x="190.869141" xlink:href="#DejaVuSans-53"/>
       <use x="254.492188" xlink:href="#DejaVuSans-45"/>
       <use x="290.576172" xlink:href="#DejaVuSans-48"/>
       <use x="354.199219" xlink:href="#DejaVuSans-53"/>
      </g>
     </g>
    </g>
    <g id="xtick_3">
     <g id="line2d_3">
      <g>
       <use style="stroke:#000000;stroke-width:0.8;" x="128.701121" xlink:href="#m98e5ea783c" y="252"/>
      </g>
     </g>
     <g id="text_3">
      <!-- 2015-09 -->
      <g transform="translate(115.879839 293.917817)rotate(-45)scale(0.1 -0.1)">
       <defs>
        <path d="M 10.984375 1.515625 
L 10.984375 10.5 
Q 14.703125 8.734375 18.5 7.8125 
Q 22.3125 6.890625 25.984375 6.890625 
Q 35.75 6.890625 40.890625 13.453125 
Q 46.046875 20.015625 46.78125 33.40625 
Q 43.953125 29.203125 39.59375 26.953125 
Q 35.25 24.703125 29.984375 24.703125 
Q 19.046875 24.703125 12.671875 31.3125 
Q 6.296875 37.9375 6.296875 49.421875 
Q 6.296875 60.640625 12.9375 67.421875 
Q 19.578125 74.21875 30.609375 74.21875 
Q 43.265625 74.21875 49.921875 64.515625 
Q 56.59375 54.828125 56.59375 36.375 
Q 56.59375 19.140625 48.40625 8.859375 
Q 40.234375 -1.421875 26.421875 -1.421875 
Q 22.703125 -1.421875 18.890625 -0.6875 
Q 15.09375 0.046875 10.984375 1.515625 
z
M 30.609375 32.421875 
Q 37.25 32.421875 41.125 36.953125 
Q 45.015625 41.5 45.015625 49.421875 
Q 45.015625 57.28125 41.125 61.84375 
Q 37.25 66.40625 30.609375 66.40625 
Q 23.96875 66.40625 20.09375 61.84375 
Q 16.21875 57.28125 16.21875 49.421875 
Q 16.21875 41.5 20.09375 36.953125 
Q 23.96875 32.421875 30.609375 32.421875 
z
" id="DejaVuSans-57"/>
       </defs>
       <use xlink:href="#DejaVuSans-50"/>
       <use x="63.623047" xlink:href="#DejaVuSans-48"/>
       <use x="127.246094" xlink:href="#DejaVuSans-49"/>
       <use x="190.869141" xlink:href="#DejaVuSans-53"/>
       <use x="254.492188" xlink:href="#DejaVuSans-45"/>
       <use x="290.576172" xlink:href="#DejaVuSans-48"/>
       <use x="354.199219" xlink:href="#DejaVuSans-57"/>
      </g>
     </g>
    </g>
    <g id="xtick_4">
     <g id="line2d_4">
      <g>
       <use style="stroke:#000000;stroke-width:0.8;" x="162.611955" xlink:href="#m98e5ea783c" y="252"/>
      </g>
     </g>
     <g id="text_4">
      <!-- 2016-01 -->
      <g transform="translate(149.790673 293.917817)rotate(-45)scale(0.1 -0.1)">
       <defs>
        <path d="M 33.015625 40.375 
Q 26.375 40.375 22.484375 35.828125 
Q 18.609375 31.296875 18.609375 23.390625 
Q 18.609375 15.53125 22.484375 10.953125 
Q 26.375 6.390625 33.015625 6.390625 
Q 39.65625 6.390625 43.53125 10.953125 
Q 47.40625 15.53125 47.40625 23.390625 
Q 47.40625 31.296875 43.53125 35.828125 
Q 39.65625 40.375 33.015625 40.375 
z
M 52.59375 71.296875 
L 52.59375 62.3125 
Q 48.875 64.0625 45.09375 64.984375 
Q 41.3125 65.921875 37.59375 65.921875 
Q 27.828125 65.921875 22.671875 59.328125 
Q 17.53125 52.734375 16.796875 39.40625 
Q 19.671875 43.65625 24.015625 45.921875 
Q 28.375 48.1875 33.59375 48.1875 
Q 44.578125 48.1875 50.953125 41.515625 
Q 57.328125 34.859375 57.328125 23.390625 
Q 57.328125 12.15625 50.6875 5.359375 
Q 44.046875 -1.421875 33.015625 -1.421875 
Q 20.359375 -1.421875 13.671875 8.265625 
Q 6.984375 17.96875 6.984375 36.375 
Q 6.984375 53.65625 15.1875 63.9375 
Q 23.390625 74.21875 37.203125 74.21875 
Q 40.921875 74.21875 44.703125 73.484375 
Q 48.484375 72.75 52.59375 71.296875 
z
" id="DejaVuSans-54"/>
       </defs>
       <use xlink:href="#DejaVuSans-50"/>
       <use x="63.623047" xlink:href="#DejaVuSans-48"/>
       <use x="127.246094" xlink:href="#DejaVuSans-49"/>
       <use x="190.869141" xlink:href="#DejaVuSans-54"/>
       <use x="254.492188" xlink:href="#DejaVuSans-45"/>
       <use x="290.576172" xlink:href="#DejaVuSans-48"/>
       <use x="354.199219" xlink:href="#DejaVuSans-49"/>
      </g>
     </g>
    </g>
    <g id="xtick_5">
     <g id="line2d_5">
      <g>
       <use style="stroke:#000000;stroke-width:0.8;" x="196.244832" xlink:href="#m98e5ea783c" y="252"/>
      </g>
     </g>
     <g id="text_5">
      <!-- 2016-05 -->
      <g transform="translate(183.42355 293.917817)rotate(-45)scale(0.1 -0.1)">
       <use xlink:href="#DejaVuSans-50"/>
       <use x="63.623047" xlink:href="#DejaVuSans-48"/>
       <use x="127.246094" xlink:href="#DejaVuSans-49"/>
       <use x="190.869141" xlink:href="#DejaVuSans-54"/>
       <use x="254.492188" xlink:href="#DejaVuSans-45"/>
       <use x="290.576172" xlink:href="#DejaVuSans-48"/>
       <use x="354.199219" xlink:href="#DejaVuSans-53"/>
      </g>
     </g>
    </g>
    <g id="xtick_6">
     <g id="line2d_6">
      <g>
       <use style="stroke:#000000;stroke-width:0.8;" x="230.433624" xlink:href="#m98e5ea783c" y="252"/>
      </g>
     </g>
     <g id="text_6">
      <!-- 2016-09 -->
      <g transform="translate(217.612342 293.917817)rotate(-45)scale(0.1 -0.1)">
       <use xlink:href="#DejaVuSans-50"/>
       <use x="63.623047" xlink:href="#DejaVuSans-48"/>
       <use x="127.246094" xlink:href="#DejaVuSans-49"/>
       <use x="190.869141" xlink:href="#DejaVuSans-54"/>
       <use x="254.492188" xlink:href="#DejaVuSans-45"/>
       <use x="290.576172" xlink:href="#DejaVuSans-48"/>
       <use x="354.199219" xlink:href="#DejaVuSans-57"/>
      </g>
     </g>
    </g>
    <g id="xtick_7">
     <g id="line2d_7">
      <g>
       <use style="stroke:#000000;stroke-width:0.8;" x="264.344458" xlink:href="#m98e5ea783c" y="252"/>
      </g>
     </g>
     <g id="text_7">
      <!-- 2017-01 -->
      <g transform="translate(251.523176 293.917817)rotate(-45)scale(0.1 -0.1)">
       <defs>
        <path d="M 8.203125 72.90625 
L 55.078125 72.90625 
L 55.078125 68.703125 
L 28.609375 0 
L 18.3125 0 
L 43.21875 64.59375 
L 8.203125 64.59375 
z
" id="DejaVuSans-55"/>
       </defs>
       <use xlink:href="#DejaVuSans-50"/>
       <use x="63.623047" xlink:href="#DejaVuSans-48"/>
       <use x="127.246094" xlink:href="#DejaVuSans-49"/>
       <use x="190.869141" xlink:href="#DejaVuSans-55"/>
       <use x="254.492188" xlink:href="#DejaVuSans-45"/>
       <use x="290.576172" xlink:href="#DejaVuSans-48"/>
       <use x="354.199219" xlink:href="#DejaVuSans-49"/>
      </g>
     </g>
    </g>
    <g id="xtick_8">
     <g id="line2d_8">
      <g>
       <use style="stroke:#000000;stroke-width:0.8;" x="297.699377" xlink:href="#m98e5ea783c" y="252"/>
      </g>
     </g>
     <g id="text_8">
      <!-- 2017-05 -->
      <g transform="translate(284.878095 293.917817)rotate(-45)scale(0.1 -0.1)">
       <use xlink:href="#DejaVuSans-50"/>
       <use x="63.623047" xlink:href="#DejaVuSans-48"/>
       <use x="127.246094" xlink:href="#DejaVuSans-49"/>
       <use x="190.869141" xlink:href="#DejaVuSans-55"/>
       <use x="254.492188" xlink:href="#DejaVuSans-45"/>
       <use x="290.576172" xlink:href="#DejaVuSans-48"/>
       <use x="354.199219" xlink:href="#DejaVuSans-53"/>
      </g>
     </g>
    </g>
    <g id="xtick_9">
     <g id="line2d_9">
      <g>
       <use style="stroke:#000000;stroke-width:0.8;" x="331.888169" xlink:href="#m98e5ea783c" y="252"/>
      </g>
     </g>
     <g id="text_9">
      <!-- 2017-09 -->
      <g transform="translate(319.066887 293.917817)rotate(-45)scale(0.1 -0.1)">
       <use xlink:href="#DejaVuSans-50"/>
       <use x="63.623047" xlink:href="#DejaVuSans-48"/>
       <use x="127.246094" xlink:href="#DejaVuSans-49"/>
       <use x="190.869141" xlink:href="#DejaVuSans-55"/>
       <use x="254.492188" xlink:href="#DejaVuSans-45"/>
       <use x="290.576172" xlink:href="#DejaVuSans-48"/>
       <use x="354.199219" xlink:href="#DejaVuSans-57"/>
      </g>
     </g>
    </g>
    <g id="xtick_10">
     <g id="line2d_10">
      <g>
       <use style="stroke:#000000;stroke-width:0.8;" x="365.799004" xlink:href="#m98e5ea783c" y="252"/>
      </g>
     </g>
     <g id="text_10">
      <!-- 2018-01 -->
      <g transform="translate(352.977721 293.917817)rotate(-45)scale(0.1 -0.1)">
       <defs>
        <path d="M 31.78125 34.625 
Q 24.75 34.625 20.71875 30.859375 
Q 16.703125 27.09375 16.703125 20.515625 
Q 16.703125 13.921875 20.71875 10.15625 
Q 24.75 6.390625 31.78125 6.390625 
Q 38.8125 6.390625 42.859375 10.171875 
Q 46.921875 13.96875 46.921875 20.515625 
Q 46.921875 27.09375 42.890625 30.859375 
Q 38.875 34.625 31.78125 34.625 
z
M 21.921875 38.8125 
Q 15.578125 40.375 12.03125 44.71875 
Q 8.5 49.078125 8.5 55.328125 
Q 8.5 64.0625 14.71875 69.140625 
Q 20.953125 74.21875 31.78125 74.21875 
Q 42.671875 74.21875 48.875 69.140625 
Q 55.078125 64.0625 55.078125 55.328125 
Q 55.078125 49.078125 51.53125 44.71875 
Q 48 40.375 41.703125 38.8125 
Q 48.828125 37.15625 52.796875 32.3125 
Q 56.78125 27.484375 56.78125 20.515625 
Q 56.78125 9.90625 50.3125 4.234375 
Q 43.84375 -1.421875 31.78125 -1.421875 
Q 19.734375 -1.421875 13.25 4.234375 
Q 6.78125 9.90625 6.78125 20.515625 
Q 6.78125 27.484375 10.78125 32.3125 
Q 14.796875 37.15625 21.921875 38.8125 
z
M 18.3125 54.390625 
Q 18.3125 48.734375 21.84375 45.5625 
Q 25.390625 42.390625 31.78125 42.390625 
Q 38.140625 42.390625 41.71875 45.5625 
Q 45.3125 48.734375 45.3125 54.390625 
Q 45.3125 60.0625 41.71875 63.234375 
Q 38.140625 66.40625 31.78125 66.40625 
Q 25.390625 66.40625 21.84375 63.234375 
Q 18.3125 60.0625 18.3125 54.390625 
z
" id="DejaVuSans-56"/>
       </defs>
       <use xlink:href="#DejaVuSans-50"/>
       <use x="63.623047" xlink:href="#DejaVuSans-48"/>
       <use x="127.246094" xlink:href="#DejaVuSans-49"/>
       <use x="190.869141" xlink:href="#DejaVuSans-56"/>
       <use x="254.492188" xlink:href="#DejaVuSans-45"/>
       <use x="290.576172" xlink:href="#DejaVuSans-48"/>
       <use x="354.199219" xlink:href="#DejaVuSans-49"/>
      </g>
     </g>
    </g>
   </g>
   <g id="matplotlib.axis_2">
    <g id="ytick_1">
     <g id="line2d_11">
      <defs>
       <path d="M 0 0 
L -3.5 0 
" id="m5ef79d50ad" style="stroke:#000000;stroke-width:0.8;"/>
      </defs>
      <g>
       <use style="stroke:#000000;stroke-width:0.8;" x="54" xlink:href="#m5ef79d50ad" y="242.116364"/>
      </g>
     </g>
     <g id="text_11">
      <!-- 0 -->
      <g transform="translate(40.6375 245.915582)scale(0.1 -0.1)">
       <use xlink:href="#DejaVuSans-48"/>
      </g>
     </g>
    </g>
    <g id="ytick_2">
     <g id="line2d_12">
      <g>
       <use style="stroke:#000000;stroke-width:0.8;" x="54" xlink:href="#m5ef79d50ad" y="209.8538"/>
      </g>
     </g>
     <g id="text_12">
      <!-- 10 -->
      <g transform="translate(34.275 213.653019)scale(0.1 -0.1)">
       <use xlink:href="#DejaVuSans-49"/>
       <use x="63.623047" xlink:href="#DejaVuSans-48"/>
      </g>
     </g>
    </g>
    <g id="ytick_3">
     <g id="line2d_13">
      <g>
       <use style="stroke:#000000;stroke-width:0.8;" x="54" xlink:href="#m5ef79d50ad" y="177.591236"/>
      </g>
     </g>
     <g id="text_13">
      <!-- 20 -->
      <g transform="translate(34.275 181.390455)scale(0.1 -0.1)">
       <use xlink:href="#DejaVuSans-50"/>
       <use x="63.623047" xlink:href="#DejaVuSans-48"/>
      </g>
     </g>
    </g>
    <g id="ytick_4">
     <g id="line2d_14">
      <g>
       <use style="stroke:#000000;stroke-width:0.8;" x="54" xlink:href="#m5ef79d50ad" y="145.328673"/>
      </g>
     </g>
     <g id="text_14">
      <!-- 30 -->
      <g transform="translate(34.275 149.127892)scale(0.1 -0.1)">
       <defs>
        <path d="M 40.578125 39.3125 
Q 47.65625 37.796875 51.625 33 
Q 55.609375 28.21875 55.609375 21.1875 
Q 55.609375 10.40625 48.1875 4.484375 
Q 40.765625 -1.421875 27.09375 -1.421875 
Q 22.515625 -1.421875 17.65625 -0.515625 
Q 12.796875 0.390625 7.625 2.203125 
L 7.625 11.71875 
Q 11.71875 9.328125 16.59375 8.109375 
Q 21.484375 6.890625 26.8125 6.890625 
Q 36.078125 6.890625 40.9375 10.546875 
Q 45.796875 14.203125 45.796875 21.1875 
Q 45.796875 27.640625 41.28125 31.265625 
Q 36.765625 34.90625 28.71875 34.90625 
L 20.21875 34.90625 
L 20.21875 43.015625 
L 29.109375 43.015625 
Q 36.375 43.015625 40.234375 45.921875 
Q 44.09375 48.828125 44.09375 54.296875 
Q 44.09375 59.90625 40.109375 62.90625 
Q 36.140625 65.921875 28.71875 65.921875 
Q 24.65625 65.921875 20.015625 65.03125 
Q 15.375 64.15625 9.8125 62.3125 
L 9.8125 71.09375 
Q 15.4375 72.65625 20.34375 73.4375 
Q 25.25 74.21875 29.59375 74.21875 
Q 40.828125 74.21875 47.359375 69.109375 
Q 53.90625 64.015625 53.90625 55.328125 
Q 53.90625 49.265625 50.4375 45.09375 
Q 46.96875 40.921875 40.578125 39.3125 
z
" id="DejaVuSans-51"/>
       </defs>
       <use xlink:href="#DejaVuSans-51"/>
       <use x="63.623047" xlink:href="#DejaVuSans-48"/>
      </g>
     </g>
    </g>
    <g id="ytick_5">
     <g id="line2d_15">
      <g>
       <use style="stroke:#000000;stroke-width:0.8;" x="54" xlink:href="#m5ef79d50ad" y="113.066109"/>
      </g>
     </g>
     <g id="text_15">
      <!-- 40 -->
      <g transform="translate(34.275 116.865328)scale(0.1 -0.1)">
       <defs>
        <path d="M 37.796875 64.3125 
L 12.890625 25.390625 
L 37.796875 25.390625 
z
M 35.203125 72.90625 
L 47.609375 72.90625 
L 47.609375 25.390625 
L 58.015625 25.390625 
L 58.015625 17.1875 
L 47.609375 17.1875 
L 47.609375 0 
L 37.796875 0 
L 37.796875 17.1875 
L 4.890625 17.1875 
L 4.890625 26.703125 
z
" id="DejaVuSans-52"/>
       </defs>
       <use xlink:href="#DejaVuSans-52"/>
       <use x="63.623047" xlink:href="#DejaVuSans-48"/>
      </g>
     </g>
    </g>
    <g id="ytick_6">
     <g id="line2d_16">
      <g>
       <use style="stroke:#000000;stroke-width:0.8;" x="54" xlink:href="#m5ef79d50ad" y="80.803546"/>
      </g>
     </g>
     <g id="text_16">
      <!-- 50 -->
      <g transform="translate(34.275 84.602764)scale(0.1 -0.1)">
       <use xlink:href="#DejaVuSans-53"/>
       <use x="63.623047" xlink:href="#DejaVuSans-48"/>
      </g>
     </g>
    </g>
    <g id="ytick_7">
     <g id="line2d_17">
      <g>
       <use style="stroke:#000000;stroke-width:0.8;" x="54" xlink:href="#m5ef79d50ad" y="48.540982"/>
      </g>
     </g>
     <g id="text_17">
      <!-- 60 -->
      <g transform="translate(34.275 52.340201)scale(0.1 -0.1)">
       <use xlink:href="#DejaVuSans-54"/>
       <use x="63.623047" xlink:href="#DejaVuSans-48"/>
      </g>
     </g>
    </g>
   </g>
   <g id="line2d_18">
    <path clip-path="url(#p29962500ea)" d="M 69.218182 106.290971 
L 69.496139 118.066807 
L 69.774097 115.034126 
L 70.052055 84.416953 
L 70.60797 110.549629 
L 70.885928 121.583426 
L 71.163885 148.877555 
L 71.441843 117.776443 
L 71.719801 129.455491 
L 71.997758 118.583008 
L 72.275716 123.874068 
L 72.553674 134.198088 
L 72.831631 123.841805 
L 73.109589 147.038589 
L 73.387547 156.36247 
L 73.665504 152.458699 
L 73.943462 97.515554 
L 74.22142 126.390548 
L 74.499377 135.488591 
L 74.777335 140.844176 
L 75.055293 162.750457 
L 75.33325 119.583147 
L 75.611208 118.228119 
L 75.889166 144.941522 
L 76.167123 160.233977 
L 76.445081 125.713034 
L 76.723039 152.749062 
L 77.000996 166.138026 
L 77.556912 132.71401 
L 77.834869 139.456886 
L 78.112827 116.002002 
L 78.390785 126.551861 
L 78.668742 146.651438 
L 78.9467 154.555766 
L 79.224658 150.006745 
L 79.502615 155.814006 
L 79.780573 145.102835 
L 80.058531 157.394872 
L 80.336488 151.781186 
L 80.614446 167.912467 
L 80.892403 158.459536 
L 81.170361 161.395429 
L 81.448319 138.359959 
L 81.726276 130.939569 
L 82.004234 154.620291 
L 82.560149 133.197949 
L 82.838107 133.326999 
L 83.116065 150.619733 
L 83.394022 122.164152 
L 83.67198 141.812053 
L 83.949938 148.167778 
L 84.227895 142.166942 
L 84.505853 154.168615 
L 84.783811 143.167081 
L 85.061768 148.425879 
L 85.339726 95.031336 
L 85.617684 143.263869 
L 86.173599 162.976295 
L 86.451557 153.007163 
L 86.729514 152.781325 
L 87.007472 118.163594 
L 87.28543 136.424205 
L 87.563387 167.105903 
L 87.841345 168.719031 
L 88.119303 154.329928 
L 88.39726 152.813588 
L 88.675218 179.849616 
L 88.953176 155.846269 
L 89.231133 148.554929 
L 89.509091 137.069457 
L 89.787049 170.396685 
L 90.065006 162.298781 
L 90.342964 167.57371 
L 90.620922 170.654785 
L 90.898879 164.29906 
L 91.176837 161.040541 
L 91.454795 179.043052 
L 91.732752 162.847245 
L 92.01071 158.87895 
L 92.288667 116.711779 
L 92.566625 118.61527 
L 92.844583 163.460234 
L 93.12254 162.427832 
L 93.400498 163.395708 
L 93.678456 152.620012 
L 93.956413 165.815401 
L 94.512329 152.58775 
L 94.790286 163.782859 
L 95.068244 159.717776 
L 95.346202 157.74976 
L 95.624159 153.781464 
L 95.902117 146.038449 
L 96.180075 159.169313 
L 96.73599 170.71931 
L 97.291905 156.330207 
L 97.569863 135.778954 
L 98.125778 169.945009 
L 98.403736 168.106043 
L 98.681694 159.153181 
L 98.959651 157.072246 
L 99.237609 156.426995 
L 99.515567 176.623359 
L 99.793524 160.637259 
L 100.071482 164.992705 
L 100.34944 182.979085 
L 100.627397 172.235651 
L 100.905355 150.07127 
L 101.183313 140.489288 
L 101.739228 162.008418 
L 102.017186 171.300037 
L 102.295143 156.814145 
L 102.573101 175.526432 
L 102.851059 179.26889 
L 103.129016 137.972808 
L 103.406974 151.58761 
L 104.518804 180.494867 
L 104.796762 165.621825 
L 105.07472 170.654785 
L 105.352677 167.364004 
L 105.630635 172.396964 
L 105.908593 185.334252 
L 106.18655 189.173497 
L 106.464508 175.978108 
L 106.742466 152.878113 
L 107.020423 176.494309 
L 107.298381 165.363725 
L 107.576339 161.427692 
L 107.854296 151.103672 
L 108.132254 175.816795 
L 108.410212 189.302547 
L 108.688169 167.783417 
L 108.966127 171.945288 
L 109.244085 167.686629 
L 109.522042 154.717079 
L 109.8 187.657156 
L 110.077958 165.879926 
L 110.355915 159.427413 
L 110.633873 179.849616 
L 110.911831 178.526851 
L 111.189788 179.688303 
L 111.467746 187.689419 
L 111.745704 184.592213 
L 112.023661 192.786904 
L 112.579577 181.204644 
L 112.857534 186.431179 
L 113.135492 181.011068 
L 113.691407 200.175031 
L 114.247323 148.81303 
L 114.52528 190.141374 
L 114.803238 181.817632 
L 115.081196 188.270145 
L 115.359153 197.368188 
L 115.637111 173.397103 
L 115.915068 180.559392 
L 116.193026 181.269169 
L 116.470984 205.111203 
L 116.748941 198.561903 
L 117.026899 204.465952 
L 117.304857 200.078243 
L 118.13873 176.945985 
L 118.416687 213.88662 
L 118.694645 217.53229 
L 119.25056 218.177541 
L 119.806476 208.272934 
L 120.084433 222.178099 
L 120.362391 220.597234 
L 120.640349 203.401287 
L 120.918306 209.531174 
L 121.196264 210.660364 
L 121.474222 179.010789 
L 121.752179 197.303663 
L 122.030137 202.949611 
L 122.308095 203.594863 
L 122.586052 193.464418 
L 122.86401 194.529082 
L 123.141968 204.369164 
L 123.419925 191.915815 
L 123.697883 199.207154 
L 123.975841 193.528943 
L 124.253798 192.851429 
L 124.531756 176.913723 
L 124.809714 184.55995 
L 125.087671 172.461489 
L 125.365629 180.78523 
L 125.643587 177.268611 
L 125.921544 177.462186 
L 126.199502 195.400172 
L 126.47746 184.463162 
L 126.755417 154.071828 
L 127.033375 170.622523 
L 127.311333 178.494588 
L 127.58929 169.428808 
L 127.867248 167.202691 
L 128.145205 153.97504 
L 128.423163 130.616944 
L 128.701121 129.649067 
L 129.257036 197.303663 
L 129.534994 191.85129 
L 129.812951 156.846408 
L 130.090909 142.844455 
L 130.368867 169.364283 
L 130.646824 151.58761 
L 130.924782 159.491938 
L 131.20274 155.749481 
L 131.480697 169.07392 
L 131.758655 150.813309 
L 132.036613 168.009255 
L 132.31457 168.106043 
L 132.592528 134.940127 
L 132.870486 161.589005 
L 133.148443 124.293481 
L 133.426401 139.940825 
L 133.704359 145.909399 
L 133.982316 158.040123 
L 134.260274 145.328673 
L 134.538232 163.944172 
L 134.816189 163.427971 
L 135.094147 152.168336 
L 135.372105 170.267634 
L 135.650062 146.748226 
L 135.92802 151.845711 
L 136.205978 146.135237 
L 136.483935 159.298363 
L 137.039851 152.329649 
L 137.317808 159.298363 
L 137.595766 181.140118 
L 137.873724 178.107437 
L 138.151681 161.234117 
L 138.429639 156.265682 
L 138.707597 160.137189 
L 138.985554 140.586076 
L 139.263512 151.168197 
L 139.541469 144.554371 
L 140.097385 98.677006 
L 140.375342 153.329789 
L 140.6533 157.556184 
L 141.209215 149.587331 
L 141.487173 193.399893 
L 141.765131 205.014415 
L 142.043088 205.627404 
L 142.599004 151.168197 
L 143.154919 166.460652 
L 143.432877 150.20032 
L 143.710834 159.201575 
L 143.988792 172.84864 
L 144.26675 141.618478 
L 144.544707 125.519459 
L 145.100623 113.291947 
L 145.37858 76.57715 
L 145.656538 107.129797 
L 145.934496 100.128821 
L 146.212453 99.419045 
L 146.490411 102.548513 
L 146.768369 122.002839 
L 147.046326 98.35438 
L 147.880199 125.067783 
L 148.158157 117.970019 
L 148.436115 144.457584 
L 148.714072 119.11534 
L 148.99203 134.97239 
L 149.269988 105.387619 
L 149.547945 126.971274 
L 149.825903 113.904936 
L 150.103861 115.937477 
L 150.381818 127.842363 
L 150.659776 108.033149 
L 151.215691 126.196973 
L 151.493649 119.841248 
L 151.771606 110.614154 
L 152.049564 124.970995 
L 152.327522 112.32407 
L 152.605479 115.389014 
L 152.883437 96.128263 
L 153.161395 102.774351 
L 153.439352 112.549908 
L 153.71731 113.259685 
L 153.995268 90.708153 
L 154.273225 109.67854 
L 154.551183 101.306405 
L 154.829141 105.000468 
L 155.107098 104.677843 
L 155.663014 126.713174 
L 156.218929 113.162897 
L 156.496887 73.350893 
L 156.774844 131.907446 
L 157.052802 133.8432 
L 157.33076 139.973087 
L 157.608717 139.714987 
L 157.886675 141.553953 
L 158.164633 128.326302 
L 158.44259 129.390966 
L 158.720548 121.712476 
L 158.998506 150.619733 
L 159.276463 145.909399 
L 159.554421 131.229932 
L 159.832379 139.553674 
L 160.110336 128.584402 
L 160.388294 139.134261 
L 160.666252 141.876578 
L 161.222167 86.062343 
L 161.500125 103.290552 
L 161.778082 107.226585 
L 162.05604 106.194183 
L 162.333998 107.710524 
L 162.611955 105.323094 
L 162.889913 114.485662 
L 163.16787 99.74167 
L 163.445828 121.647951 
L 163.723786 114.453399 
L 164.001743 125.971135 
L 164.279701 109.775328 
L 164.557659 124.358006 
L 164.835616 107.000747 
L 165.113574 120.163873 
L 165.391532 87.965835 
L 165.669489 102.709826 
L 165.947447 141.199065 
L 166.225405 127.616525 
L 166.503362 128.358564 
L 166.78132 69.608436 
L 167.337235 126.713174 
L 167.615193 139.424624 
L 167.893151 137.456607 
L 168.171108 106.065133 
L 168.449066 132.649485 
L 168.727024 135.617641 
L 169.004981 109.388177 
L 169.282939 130.391106 
L 169.560897 133.71415 
L 169.838854 122.873929 
L 170.116812 130.036218 
L 170.39477 131.310589 
L 170.672727 129.81038 
L 170.950685 96.128263 
L 171.228643 133.294737 
L 171.5066 148.329091 
L 172.062516 124.390269 
L 172.340473 141.457165 
L 172.618431 119.195996 
L 172.896389 142.295992 
L 173.174346 150.990753 
L 173.452304 125.229096 
L 173.730262 114.098511 
L 174.008219 108.54935 
L 174.286177 160.169452 
L 174.564134 100.064296 
L 174.842092 120.228398 
L 175.12005 101.967787 
L 175.398007 125.938872 
L 175.675965 92.192231 
L 175.953923 75.415697 
L 176.23188 138.134121 
L 176.509838 131.036357 
L 177.343711 171.138724 
L 177.621669 148.780767 
L 178.177584 129.616804 
L 178.455542 127.100324 
L 178.733499 113.743623 
L 179.011457 242.116364 
L 179.289415 146.264287 
L 179.567372 125.390408 
L 180.401245 166.331602 
L 180.679203 159.556463 
L 180.957161 147.94194 
L 181.235118 162.718195 
L 181.513076 156.104369 
L 181.791034 160.008139 
L 182.068991 146.586913 
L 182.346949 168.07378 
L 182.902864 129.487754 
L 183.180822 131.358983 
L 183.45878 146.232025 
L 183.736737 155.039704 
L 184.014695 154.313797 
L 184.292653 152.58775 
L 184.848568 142.166942 
L 185.126526 153.84599 
L 185.404483 159.298363 
L 185.682441 140.715126 
L 185.960399 142.39278 
L 186.238356 157.491659 
L 186.516314 153.716939 
L 186.794271 145.877136 
L 187.072229 151.58761 
L 187.350187 167.686629 
L 187.628144 166.55744 
L 187.906102 157.62071 
L 188.18406 141.26359 
L 188.462017 154.717079 
L 188.739975 146.393337 
L 189.017933 127.552 
L 189.29589 161.91163 
L 189.573848 158.749899 
L 189.851806 170.977411 
L 190.129763 152.426437 
L 190.685679 137.166244 
L 190.963636 142.941243 
L 191.241594 166.847803 
L 191.519552 172.332439 
L 191.797509 207.095351 
L 192.353425 152.982966 
L 192.90934 174.639212 
L 193.187298 179.043052 
L 193.465255 181.398219 
L 193.743213 186.302129 
L 194.021171 160.363027 
L 194.299128 168.783557 
L 194.577086 159.233838 
L 195.133001 169.719171 
L 195.410959 163.331183 
L 195.688917 149.426018 
L 195.966874 129.358704 
L 196.244832 166.202551 
L 196.52279 163.524759 
L 196.800747 155.910794 
L 197.078705 173.687466 
L 197.356663 178.333275 
L 197.63462 168.880344 
L 197.912578 171.332299 
L 198.190535 166.025107 
L 198.468493 167.557579 
L 198.746451 159.233838 
L 199.024408 158.459536 
L 199.302366 149.555069 
L 199.580324 174.623081 
L 199.858281 182.979085 
L 200.136239 180.430342 
L 200.414197 152.652275 
L 200.692154 148.587192 
L 200.970112 141.876578 
L 201.24807 145.844874 
L 201.803985 168.041518 
L 202.081943 168.589981 
L 202.3599 145.877136 
L 202.637858 145.183491 
L 202.915816 160.879228 
L 203.193773 160.39529 
L 203.471731 166.621965 
L 203.749689 145.812611 
L 204.027646 167.428529 
L 204.583562 181.688582 
L 204.861519 166.68649 
L 205.139477 160.040402 
L 205.417435 177.558974 
L 205.695392 162.847245 
L 205.97335 180.78523 
L 206.251308 183.656598 
L 206.529265 157.846547 
L 206.807223 156.233419 
L 207.085181 163.298921 
L 207.363138 167.299479 
L 207.641096 150.297108 
L 207.919054 157.87881 
L 208.197011 160.459815 
L 208.474969 155.523643 
L 209.030884 169.751433 
L 209.308842 170.783835 
L 209.5868 175.75227 
L 210.142715 157.427134 
L 210.420672 175.236069 
L 210.69863 174.429505 
L 210.976588 155.588168 
L 211.254545 198.561903 
L 211.532503 207.692208 
L 211.810461 206.950169 
L 212.366376 151.684398 
L 212.644334 158.072385 
L 212.922291 177.784812 
L 213.200249 162.476225 
L 213.478207 159.040262 
L 213.756164 182.011208 
L 214.034122 156.201157 
L 214.590037 167.138166 
L 214.867995 161.65353 
L 215.145953 161.137329 
L 215.42391 168.138305 
L 215.701868 167.105903 
L 215.979826 165.395987 
L 216.257783 173.10674 
L 216.535741 171.170986 
L 216.813699 154.878392 
L 217.091656 172.526014 
L 217.369614 139.295573 
L 217.925529 168.20283 
L 218.203487 175.62322 
L 218.481445 179.075314 
L 218.759402 168.267356 
L 219.03736 179.946404 
L 219.315318 147.264427 
L 219.593275 187.463581 
L 219.871233 166.202551 
L 220.149191 182.785509 
L 220.427148 173.332578 
L 220.983064 197.626288 
L 221.261021 195.335646 
L 221.538979 201.207433 
L 221.816936 198.336065 
L 222.094894 177.300873 
L 222.372852 186.915117 
L 222.650809 181.688582 
L 222.928767 202.336623 
L 223.206725 194.948496 
L 223.484682 193.303105 
L 223.76264 196.916512 
L 224.040598 192.012602 
L 224.318555 199.303942 
L 224.596513 195.561484 
L 224.874471 198.626428 
L 225.152428 195.819585 
L 225.430386 208.660085 
L 225.708344 202.594723 
L 225.986301 185.398777 
L 226.264259 197.239138 
L 226.542217 190.625312 
L 226.820174 201.820422 
L 227.37609 176.236209 
L 227.932005 170.396685 
L 228.209963 185.463302 
L 228.48792 171.009673 
L 228.765878 195.980898 
L 229.321793 174.139142 
L 229.599751 222.403937 
L 229.877709 222.210362 
L 230.155666 222.210362 
L 230.433624 222.791088 
L 230.711582 221.565111 
L 230.989539 222.629775 
L 231.267497 218.080754 
L 231.545455 179.978666 
L 231.823412 202.207572 
L 232.10137 182.17252 
L 232.379328 154.071828 
L 232.657285 163.460234 
L 232.935243 148.619454 
L 233.2132 149.845432 
L 233.491158 155.394593 
L 233.769116 154.588029 
L 234.047073 175.720008 
L 234.325031 168.235093 
L 234.602989 166.299339 
L 234.880946 112.485383 
L 235.158904 167.783417 
L 235.436862 158.846687 
L 235.714819 177.655762 
L 235.992777 177.139561 
L 236.270735 173.558416 
L 236.82665 130.165268 
L 237.104608 169.783696 
L 237.382565 171.525874 
L 237.660523 131.262195 
L 237.938481 168.557719 
L 238.216438 145.780349 
L 238.494396 176.526572 
L 238.772354 126.648648 
L 239.050311 131.19767 
L 239.328269 150.877834 
L 239.606227 135.553116 
L 239.884184 164.04096 
L 240.162142 159.040262 
L 240.4401 132.778536 
L 240.718057 153.394314 
L 241.273973 145.16736 
L 241.55193 165.266937 
L 241.829888 165.976714 
L 242.107846 144.102695 
L 242.385803 148.264566 
L 242.663761 137.74697 
L 242.941719 119.228259 
L 243.497634 147.103114 
L 243.775592 145.328673 
L 244.053549 163.911909 
L 244.331507 146.586913 
L 244.609465 143.263869 
L 244.887422 151.490822 
L 245.443337 109.743065 
L 245.721295 123.745018 
L 245.999253 122.164152 
L 246.27721 142.844455 
L 246.555168 114.646975 
L 246.833126 124.970995 
L 247.111083 125.454934 
L 247.389041 127.358425 
L 247.666999 119.808985 
L 247.944956 156.523782 
L 248.222914 150.910096 
L 248.778829 110.420579 
L 249.056787 95.999213 
L 249.334745 153.200738 
L 249.612702 144.876997 
L 249.89066 154.297665 
L 250.168618 145.231885 
L 250.446575 140.26345 
L 250.724533 108.484825 
L 251.002491 145.973924 
L 251.280448 141.39264 
L 251.558406 133.5851 
L 251.836364 130.616944 
L 252.114321 123.874068 
L 252.392279 104.855287 
L 252.670237 131.100882 
L 252.948194 131.165407 
L 253.782067 173.558416 
L 254.337983 159.943614 
L 254.61594 129.745855 
L 254.893898 141.26359 
L 255.171856 135.23049 
L 255.449813 123.680493 
L 255.727771 100.386922 
L 256.005729 139.101998 
L 256.283686 127.068062 
L 256.561644 95.483012 
L 257.117559 131.520296 
L 257.395517 95.870163 
L 257.673474 98.773793 
L 258.507347 177.333136 
L 258.785305 148.683979 
L 259.063263 132.004234 
L 259.34122 104.871418 
L 259.619178 106.839434 
L 259.897136 56.154947 
L 260.175093 58.768215 
L 260.453051 63.155923 
L 260.731009 95.96695 
L 261.008966 89.643488 
L 261.286924 92.966532 
L 261.564882 67.930783 
L 261.842839 100.61276 
L 262.120797 59.768354 
L 262.398755 73.286368 
L 262.676712 59.607041 
L 262.95467 94.257035 
L 263.232628 62.704247 
L 263.510585 83.610389 
L 263.788543 84.449215 
L 264.344458 102.096838 
L 264.622416 66.575755 
L 264.900374 95.321699 
L 265.178331 59.413466 
L 265.734247 93.869884 
L 266.012204 107.936362 
L 266.290162 83.481338 
L 266.56812 122.164152 
L 266.846077 104.935943 
L 267.124035 124.551582 
L 267.401993 116.969879 
L 267.67995 134.165826 
L 267.957908 125.422671 
L 268.235866 126.616386 
L 268.513823 107.065272 
L 268.791781 135.036915 
L 269.069738 134.585239 
L 269.347696 127.584263 
L 269.625654 142.166942 
L 269.903611 79.996981 
L 270.181569 118.324907 
L 270.737484 140.037612 
L 271.2934 130.971832 
L 271.571357 149.135655 
L 271.849315 132.520435 
L 272.127273 131.036357 
L 272.40523 152.007023 
L 272.683188 120.099348 
L 272.961146 133.875463 
L 273.239103 139.00521 
L 273.517061 131.971971 
L 273.795019 130.810519 
L 274.072976 110.388316 
L 274.350934 142.39278 
L 274.628892 139.166523 
L 274.906849 127.068062 
L 275.184807 123.745018 
L 275.462765 132.843061 
L 275.740722 148.651717 
L 276.01868 151.684398 
L 276.296638 141.037752 
L 276.574595 141.26359 
L 276.852553 134.133563 
L 277.130511 140.715126 
L 277.408468 150.877834 
L 277.686426 124.422532 
L 277.964384 121.034962 
L 278.242341 160.008139 
L 278.520299 147.425739 
L 278.798257 140.747389 
L 279.076214 106.129658 
L 279.354172 136.85975 
L 279.63213 120.647812 
L 279.910087 92.966532 
L 280.188045 119.454097 
L 280.466002 114.58245 
L 280.74396 130.326581 
L 281.021918 107.03301 
L 281.299875 129.681329 
L 281.577833 119.002421 
L 281.855791 130.810519 
L 282.133748 115.743902 
L 282.411706 111.614294 
L 282.689664 118.421695 
L 282.967621 117.615131 
L 283.245579 135.908004 
L 283.523537 65.640141 
L 283.801494 150.264845 
L 284.079452 181.398219 
L 284.35741 171.267774 
L 284.635367 175.332857 
L 284.913325 168.428668 
L 285.191283 76.83525 
L 285.46924 154.136353 
L 285.747198 144.989916 
L 286.025156 140.715126 
L 286.303113 138.263171 
L 286.581071 138.037333 
L 286.859029 116.453678 
L 287.136986 134.520714 
L 287.414944 142.683143 
L 287.692902 114.388874 
L 288.248817 148.393616 
L 288.526775 122.067364 
L 288.804732 147.845153 
L 289.08269 156.588307 
L 289.638605 148.974342 
L 289.916563 152.071549 
L 290.194521 128.358564 
L 290.472478 162.814982 
L 290.750436 145.231885 
L 291.028394 144.618896 
L 291.306351 117.034404 
L 291.584309 141.150671 
L 291.862267 141.553953 
L 292.140224 151.490822 
L 292.418182 124.712895 
L 292.696139 148.167778 
L 292.974097 118.61527 
L 293.252055 148.345222 
L 293.530012 109.452702 
L 293.80797 113.45326 
L 294.085928 126.29376 
L 294.363885 128.874765 
L 294.641843 154.878392 
L 294.919801 158.524061 
L 295.197758 139.392361 
L 295.475716 128.423089 
L 295.753674 154.652554 
L 296.031631 115.84069 
L 296.309589 120.486499 
L 296.587547 155.814006 
L 296.865504 156.039844 
L 297.143462 133.359262 
L 297.42142 159.911352 
L 297.699377 134.230351 
L 297.977335 164.847524 
L 298.255293 128.777978 
L 298.53325 158.201436 
L 298.811208 145.973924 
L 299.089166 151.684398 
L 299.367123 150.039007 
L 299.645081 163.653809 
L 299.923039 155.459118 
L 300.200996 134.294876 
L 300.478954 135.617641 
L 300.756912 161.589005 
L 301.034869 133.133424 
L 301.312827 125.390408 
L 301.590785 121.841526 
L 301.868742 123.970856 
L 302.424658 151.297247 
L 302.702615 145.586773 
L 302.980573 152.394174 
L 303.258531 115.679377 
L 303.536488 131.133145 
L 303.814446 158.491799 
L 304.370361 145.42546 
L 304.648319 172.106601 
L 304.926276 163.04082 
L 305.482192 174.139142 
L 305.760149 136.037054 
L 306.594022 155.49138 
L 306.87198 142.77993 
L 307.149938 162.395569 
L 307.427895 160.492078 
L 307.705853 153.329789 
L 307.983811 162.78272 
L 308.261768 149.038868 
L 308.539726 148.974342 
L 309.095641 156.588307 
L 309.373599 166.138026 
L 309.651557 148.81303 
L 310.207472 145.328673 
L 310.763387 175.784533 
L 311.041345 170.848361 
L 311.319303 181.527269 
L 311.59726 181.140118 
L 312.153176 141.844316 
L 312.431133 169.815959 
L 312.709091 181.978945 
L 312.987049 172.429226 
L 313.265006 167.81568 
L 313.542964 156.62057 
L 313.820922 158.298223 
L 314.098879 171.009673 
L 314.376837 162.331044 
L 314.654795 174.590818 
L 314.932752 168.138305 
L 315.21071 154.781604 
L 315.488667 163.750597 
L 315.766625 161.701924 
L 316.044583 161.330904 
L 316.32254 170.783835 
L 316.878456 173.493891 
L 317.156413 146.070712 
L 317.434371 166.138026 
L 317.712329 159.362888 
L 317.990286 138.134121 
L 318.268244 151.748923 
L 318.546202 194.787183 
L 318.824159 206.337181 
L 319.102117 206.014555 
L 319.380075 206.530756 
L 319.658032 205.917767 
L 319.93599 206.014555 
L 320.213948 203.175449 
L 320.491905 153.716939 
L 320.769863 184.592213 
L 321.047821 183.333973 
L 321.325778 169.138445 
L 321.603736 192.754641 
L 321.881694 197.464976 
L 322.159651 189.496122 
L 322.437609 201.401008 
L 322.715567 203.530338 
L 322.993524 203.143187 
L 323.271482 203.723913 
L 323.54944 202.852824 
L 323.827397 203.820701 
L 324.105355 203.852963 
L 324.383313 203.3045 
L 324.66127 203.917488 
L 325.217186 170.364422 
L 325.495143 186.173078 
L 325.773101 177.784812 
L 326.051059 174.074617 
L 326.329016 165.589563 
L 326.606974 150.232582 
L 326.884932 161.15346 
L 327.162889 188.495983 
L 327.440847 183.624336 
L 327.718804 190.7221 
L 327.996762 183.737255 
L 328.552677 179.52699 
L 328.830635 179.559253 
L 329.108593 152.813588 
L 329.38655 162.750457 
L 329.664508 165.912188 
L 329.942466 159.298363 
L 330.220423 171.041936 
L 330.498381 168.251224 
L 330.776339 163.460234 
L 331.054296 171.816238 
L 331.332254 154.329928 
L 331.610212 149.716381 
L 331.888169 171.687187 
L 332.166127 166.492915 
L 332.444085 164.29906 
L 332.722042 141.457165 
L 333 141.683003 
L 333.277958 163.04082 
L 333.555915 135.23049 
L 333.833873 137.327557 
L 334.111831 175.36512 
L 334.389788 178.559113 
L 334.667746 187.721681 
L 335.223661 168.170568 
L 335.501619 167.267216 
L 335.779577 167.138166 
L 336.057534 140.360238 
L 336.61345 152.942638 
L 336.891407 168.364143 
L 337.169365 149.07113 
L 337.447323 166.976853 
L 337.72528 149.006605 
L 338.003238 141.102277 
L 338.559153 182.075733 
L 338.837111 185.656877 
L 339.115068 180.269029 
L 339.393026 188.625033 
L 339.670984 176.558834 
L 339.948941 169.945009 
L 340.226899 167.880205 
L 340.504857 174.10688 
L 341.060772 133.520575 
L 341.33873 159.846826 
L 341.616687 137.230769 
L 341.894645 136.424205 
L 342.172603 128.81024 
L 342.45056 117.292505 
L 342.728518 136.069317 
L 343.284433 148.264566 
L 343.562391 161.78258 
L 343.840349 130.326581 
L 344.118306 116.292366 
L 344.396264 133.197949 
L 344.674222 139.489149 
L 345.230137 108.968764 
L 345.508095 115.905215 
L 345.786052 80.190557 
L 346.06401 138.005071 
L 346.341968 112.162757 
L 346.619925 151.974761 
L 346.897883 134.230351 
L 347.175841 151.684398 
L 347.453798 152.878113 
L 347.731756 129.390966 
L 348.009714 138.005071 
L 348.287671 111.614294 
L 348.565629 126.229235 
L 348.843587 108.839713 
L 349.121544 137.650183 
L 349.67746 114.679237 
L 349.955417 122.744878 
L 350.511333 146.748226 
L 350.78929 126.390548 
L 351.345205 141.973366 
L 351.623163 125.325883 
L 351.901121 170.396685 
L 352.457036 134.97239 
L 352.734994 143.683282 
L 353.290909 124.809682 
L 353.568867 120.131611 
L 353.846824 86.514019 
L 354.124782 119.841248 
L 354.40274 125.551721 
L 354.680697 149.490543 
L 354.958655 115.421276 
L 355.236613 127.132587 
L 355.51457 128.907028 
L 355.792528 137.714708 
L 356.070486 108.323512 
L 356.348443 98.515693 
L 356.626401 128.035939 
L 356.904359 128.68119 
L 357.182316 127.068062 
L 357.460274 121.551163 
L 357.738232 125.745297 
L 358.016189 141.424903 
L 358.572105 108.775188 
L 358.850062 122.777141 
L 359.405978 101.645162 
L 359.683935 96.579939 
L 359.961893 127.390687 
L 360.239851 129.745855 
L 360.517808 140.069875 
L 360.795766 124.583844 
L 361.073724 99.48357 
L 361.351681 98.547956 
L 361.629639 72.334623 
L 361.907597 111.582031 
L 362.185554 44.443636 
L 362.463512 78.738741 
L 362.741469 94.57966 
L 363.019427 100.838598 
L 363.297385 80.029244 
L 363.575342 106.129658 
L 363.8533 44.86305 
L 364.131258 100.483709 
L 364.409215 69.253548 
L 364.687173 74.351033 
L 364.965131 104.548792 
L 365.243088 117.905494 
L 365.521046 111.743344 
L 365.799004 99.870721 
L 366.076961 62.73651 
L 366.354919 96.483151 
L 366.632877 97.612341 
L 367.188792 106.774909 
L 367.46675 103.484128 
L 367.744707 104.258429 
L 368.022665 117.647393 
L 368.300623 76.448099 
L 368.57858 108.000887 
L 368.856538 125.422671 
L 369.134496 133.488312 
L 369.412453 118.905633 
L 369.690411 154.039565 
L 370.246326 120.518761 
L 370.524284 102.25815 
L 370.802242 114.679237 
L 371.080199 110.420579 
L 371.636115 131.358983 
L 371.914072 93.902146 
L 372.19203 123.938593 
L 372.469988 87.223796 
L 372.747945 139.489149 
L 373.025903 81.73916 
L 373.303861 122.196415 
L 373.581818 112.388595 
L 373.581818 112.388595 
" style="fill:none;stroke:#000000;stroke-linecap:square;stroke-width:1.5;"/>
   </g>
   <g id="patch_3">
    <path d="M 54 252 
L 54 34.56 
" style="fill:none;stroke:#000000;stroke-linecap:square;stroke-linejoin:miter;stroke-width:0.8;"/>
   </g>
   <g id="patch_4">
    <path d="M 388.8 252 
L 388.8 34.56 
" style="fill:none;stroke:#000000;stroke-linecap:square;stroke-linejoin:miter;stroke-width:0.8;"/>
   </g>
   <g id="patch_5">
    <path d="M 54 252 
L 388.8 252 
" style="fill:none;stroke:#000000;stroke-linecap:square;stroke-linejoin:miter;stroke-width:0.8;"/>
   </g>
   <g id="patch_6">
    <path d="M 54 34.56 
L 388.8 34.56 
" style="fill:none;stroke:#000000;stroke-linecap:square;stroke-linejoin:miter;stroke-width:0.8;"/>
   </g>
   <g id="text_18">
    <!-- Soma Diária de Energia - Casa 4 -->
    <g transform="translate(124.230938 28.56)scale(0.12 -0.12)">
     <defs>
      <path d="M 53.515625 70.515625 
L 53.515625 60.890625 
Q 47.90625 63.578125 42.921875 64.890625 
Q 37.9375 66.21875 33.296875 66.21875 
Q 25.25 66.21875 20.875 63.09375 
Q 16.5 59.96875 16.5 54.203125 
Q 16.5 49.359375 19.40625 46.890625 
Q 22.3125 44.4375 30.421875 42.921875 
L 36.375 41.703125 
Q 47.40625 39.59375 52.65625 34.296875 
Q 57.90625 29 57.90625 20.125 
Q 57.90625 9.515625 50.796875 4.046875 
Q 43.703125 -1.421875 29.984375 -1.421875 
Q 24.8125 -1.421875 18.96875 -0.25 
Q 13.140625 0.921875 6.890625 3.21875 
L 6.890625 13.375 
Q 12.890625 10.015625 18.65625 8.296875 
Q 24.421875 6.59375 29.984375 6.59375 
Q 38.421875 6.59375 43.015625 9.90625 
Q 47.609375 13.234375 47.609375 19.390625 
Q 47.609375 24.75 44.3125 27.78125 
Q 41.015625 30.8125 33.5 32.328125 
L 27.484375 33.5 
Q 16.453125 35.6875 11.515625 40.375 
Q 6.59375 45.0625 6.59375 53.421875 
Q 6.59375 63.09375 13.40625 68.65625 
Q 20.21875 74.21875 32.171875 74.21875 
Q 37.3125 74.21875 42.625 73.28125 
Q 47.953125 72.359375 53.515625 70.515625 
z
" id="DejaVuSans-83"/>
      <path d="M 30.609375 48.390625 
Q 23.390625 48.390625 19.1875 42.75 
Q 14.984375 37.109375 14.984375 27.296875 
Q 14.984375 17.484375 19.15625 11.84375 
Q 23.34375 6.203125 30.609375 6.203125 
Q 37.796875 6.203125 41.984375 11.859375 
Q 46.1875 17.53125 46.1875 27.296875 
Q 46.1875 37.015625 41.984375 42.703125 
Q 37.796875 48.390625 30.609375 48.390625 
z
M 30.609375 56 
Q 42.328125 56 49.015625 48.375 
Q 55.71875 40.765625 55.71875 27.296875 
Q 55.71875 13.875 49.015625 6.21875 
Q 42.328125 -1.421875 30.609375 -1.421875 
Q 18.84375 -1.421875 12.171875 6.21875 
Q 5.515625 13.875 5.515625 27.296875 
Q 5.515625 40.765625 12.171875 48.375 
Q 18.84375 56 30.609375 56 
z
" id="DejaVuSans-111"/>
      <path d="M 52 44.1875 
Q 55.375 50.25 60.0625 53.125 
Q 64.75 56 71.09375 56 
Q 79.640625 56 84.28125 50.015625 
Q 88.921875 44.046875 88.921875 33.015625 
L 88.921875 0 
L 79.890625 0 
L 79.890625 32.71875 
Q 79.890625 40.578125 77.09375 44.375 
Q 74.3125 48.1875 68.609375 48.1875 
Q 61.625 48.1875 57.5625 43.546875 
Q 53.515625 38.921875 53.515625 30.90625 
L 53.515625 0 
L 44.484375 0 
L 44.484375 32.71875 
Q 44.484375 40.625 41.703125 44.40625 
Q 38.921875 48.1875 33.109375 48.1875 
Q 26.21875 48.1875 22.15625 43.53125 
Q 18.109375 38.875 18.109375 30.90625 
L 18.109375 0 
L 9.078125 0 
L 9.078125 54.6875 
L 18.109375 54.6875 
L 18.109375 46.1875 
Q 21.1875 51.21875 25.484375 53.609375 
Q 29.78125 56 35.6875 56 
Q 41.65625 56 45.828125 52.96875 
Q 50 49.953125 52 44.1875 
z
" id="DejaVuSans-109"/>
      <path d="M 34.28125 27.484375 
Q 23.390625 27.484375 19.1875 25 
Q 14.984375 22.515625 14.984375 16.5 
Q 14.984375 11.71875 18.140625 8.90625 
Q 21.296875 6.109375 26.703125 6.109375 
Q 34.1875 6.109375 38.703125 11.40625 
Q 43.21875 16.703125 43.21875 25.484375 
L 43.21875 27.484375 
z
M 52.203125 31.203125 
L 52.203125 0 
L 43.21875 0 
L 43.21875 8.296875 
Q 40.140625 3.328125 35.546875 0.953125 
Q 30.953125 -1.421875 24.3125 -1.421875 
Q 15.921875 -1.421875 10.953125 3.296875 
Q 6 8.015625 6 15.921875 
Q 6 25.140625 12.171875 29.828125 
Q 18.359375 34.515625 30.609375 34.515625 
L 43.21875 34.515625 
L 43.21875 35.40625 
Q 43.21875 41.609375 39.140625 45 
Q 35.0625 48.390625 27.6875 48.390625 
Q 23 48.390625 18.546875 47.265625 
Q 14.109375 46.140625 10.015625 43.890625 
L 10.015625 52.203125 
Q 14.9375 54.109375 19.578125 55.046875 
Q 24.21875 56 28.609375 56 
Q 40.484375 56 46.34375 49.84375 
Q 52.203125 43.703125 52.203125 31.203125 
z
" id="DejaVuSans-97"/>
      <path id="DejaVuSans-32"/>
      <path d="M 19.671875 64.796875 
L 19.671875 8.109375 
L 31.59375 8.109375 
Q 46.6875 8.109375 53.6875 14.9375 
Q 60.6875 21.78125 60.6875 36.53125 
Q 60.6875 51.171875 53.6875 57.984375 
Q 46.6875 64.796875 31.59375 64.796875 
z
M 9.8125 72.90625 
L 30.078125 72.90625 
Q 51.265625 72.90625 61.171875 64.09375 
Q 71.09375 55.28125 71.09375 36.53125 
Q 71.09375 17.671875 61.125 8.828125 
Q 51.171875 0 30.078125 0 
L 9.8125 0 
z
" id="DejaVuSans-68"/>
      <path d="M 9.421875 54.6875 
L 18.40625 54.6875 
L 18.40625 0 
L 9.421875 0 
z
M 9.421875 75.984375 
L 18.40625 75.984375 
L 18.40625 64.59375 
L 9.421875 64.59375 
z
" id="DejaVuSans-105"/>
      <path d="M 34.28125 27.484375 
Q 23.390625 27.484375 19.1875 25 
Q 14.984375 22.515625 14.984375 16.5 
Q 14.984375 11.71875 18.140625 8.90625 
Q 21.296875 6.109375 26.703125 6.109375 
Q 34.1875 6.109375 38.703125 11.40625 
Q 43.21875 16.703125 43.21875 25.484375 
L 43.21875 27.484375 
z
M 52.203125 31.203125 
L 52.203125 0 
L 43.21875 0 
L 43.21875 8.296875 
Q 40.140625 3.328125 35.546875 0.953125 
Q 30.953125 -1.421875 24.3125 -1.421875 
Q 15.921875 -1.421875 10.953125 3.296875 
Q 6 8.015625 6 15.921875 
Q 6 25.140625 12.171875 29.828125 
Q 18.359375 34.515625 30.609375 34.515625 
L 43.21875 34.515625 
L 43.21875 35.40625 
Q 43.21875 41.609375 39.140625 45 
Q 35.0625 48.390625 27.6875 48.390625 
Q 23 48.390625 18.546875 47.265625 
Q 14.109375 46.140625 10.015625 43.890625 
L 10.015625 52.203125 
Q 14.9375 54.109375 19.578125 55.046875 
Q 24.21875 56 28.609375 56 
Q 40.484375 56 46.34375 49.84375 
Q 52.203125 43.703125 52.203125 31.203125 
z
M 35.796875 79.984375 
L 45.515625 79.984375 
L 29.59375 61.625 
L 22.125 61.625 
z
" id="DejaVuSans-225"/>
      <path d="M 41.109375 46.296875 
Q 39.59375 47.171875 37.8125 47.578125 
Q 36.03125 48 33.890625 48 
Q 26.265625 48 22.1875 43.046875 
Q 18.109375 38.09375 18.109375 28.8125 
L 18.109375 0 
L 9.078125 0 
L 9.078125 54.6875 
L 18.109375 54.6875 
L 18.109375 46.1875 
Q 20.953125 51.171875 25.484375 53.578125 
Q 30.03125 56 36.53125 56 
Q 37.453125 56 38.578125 55.875 
Q 39.703125 55.765625 41.0625 55.515625 
z
" id="DejaVuSans-114"/>
      <path d="M 45.40625 46.390625 
L 45.40625 75.984375 
L 54.390625 75.984375 
L 54.390625 0 
L 45.40625 0 
L 45.40625 8.203125 
Q 42.578125 3.328125 38.25 0.953125 
Q 33.9375 -1.421875 27.875 -1.421875 
Q 17.96875 -1.421875 11.734375 6.484375 
Q 5.515625 14.40625 5.515625 27.296875 
Q 5.515625 40.1875 11.734375 48.09375 
Q 17.96875 56 27.875 56 
Q 33.9375 56 38.25 53.625 
Q 42.578125 51.265625 45.40625 46.390625 
z
M 14.796875 27.296875 
Q 14.796875 17.390625 18.875 11.75 
Q 22.953125 6.109375 30.078125 6.109375 
Q 37.203125 6.109375 41.296875 11.75 
Q 45.40625 17.390625 45.40625 27.296875 
Q 45.40625 37.203125 41.296875 42.84375 
Q 37.203125 48.484375 30.078125 48.484375 
Q 22.953125 48.484375 18.875 42.84375 
Q 14.796875 37.203125 14.796875 27.296875 
z
" id="DejaVuSans-100"/>
      <path d="M 56.203125 29.59375 
L 56.203125 25.203125 
L 14.890625 25.203125 
Q 15.484375 15.921875 20.484375 11.0625 
Q 25.484375 6.203125 34.421875 6.203125 
Q 39.59375 6.203125 44.453125 7.46875 
Q 49.3125 8.734375 54.109375 11.28125 
L 54.109375 2.78125 
Q 49.265625 0.734375 44.1875 -0.34375 
Q 39.109375 -1.421875 33.890625 -1.421875 
Q 20.796875 -1.421875 13.15625 6.1875 
Q 5.515625 13.8125 5.515625 26.8125 
Q 5.515625 40.234375 12.765625 48.109375 
Q 20.015625 56 32.328125 56 
Q 43.359375 56 49.78125 48.890625 
Q 56.203125 41.796875 56.203125 29.59375 
z
M 47.21875 32.234375 
Q 47.125 39.59375 43.09375 43.984375 
Q 39.0625 48.390625 32.421875 48.390625 
Q 24.90625 48.390625 20.390625 44.140625 
Q 15.875 39.890625 15.1875 32.171875 
z
" id="DejaVuSans-101"/>
      <path d="M 9.8125 72.90625 
L 55.90625 72.90625 
L 55.90625 64.59375 
L 19.671875 64.59375 
L 19.671875 43.015625 
L 54.390625 43.015625 
L 54.390625 34.71875 
L 19.671875 34.71875 
L 19.671875 8.296875 
L 56.78125 8.296875 
L 56.78125 0 
L 9.8125 0 
z
" id="DejaVuSans-69"/>
      <path d="M 54.890625 33.015625 
L 54.890625 0 
L 45.90625 0 
L 45.90625 32.71875 
Q 45.90625 40.484375 42.875 44.328125 
Q 39.84375 48.1875 33.796875 48.1875 
Q 26.515625 48.1875 22.3125 43.546875 
Q 18.109375 38.921875 18.109375 30.90625 
L 18.109375 0 
L 9.078125 0 
L 9.078125 54.6875 
L 18.109375 54.6875 
L 18.109375 46.1875 
Q 21.34375 51.125 25.703125 53.5625 
Q 30.078125 56 35.796875 56 
Q 45.21875 56 50.046875 50.171875 
Q 54.890625 44.34375 54.890625 33.015625 
z
" id="DejaVuSans-110"/>
      <path d="M 45.40625 27.984375 
Q 45.40625 37.75 41.375 43.109375 
Q 37.359375 48.484375 30.078125 48.484375 
Q 22.859375 48.484375 18.828125 43.109375 
Q 14.796875 37.75 14.796875 27.984375 
Q 14.796875 18.265625 18.828125 12.890625 
Q 22.859375 7.515625 30.078125 7.515625 
Q 37.359375 7.515625 41.375 12.890625 
Q 45.40625 18.265625 45.40625 27.984375 
z
M 54.390625 6.78125 
Q 54.390625 -7.171875 48.1875 -13.984375 
Q 42 -20.796875 29.203125 -20.796875 
Q 24.46875 -20.796875 20.265625 -20.09375 
Q 16.0625 -19.390625 12.109375 -17.921875 
L 12.109375 -9.1875 
Q 16.0625 -11.328125 19.921875 -12.34375 
Q 23.78125 -13.375 27.78125 -13.375 
Q 36.625 -13.375 41.015625 -8.765625 
Q 45.40625 -4.15625 45.40625 5.171875 
L 45.40625 9.625 
Q 42.625 4.78125 38.28125 2.390625 
Q 33.9375 0 27.875 0 
Q 17.828125 0 11.671875 7.65625 
Q 5.515625 15.328125 5.515625 27.984375 
Q 5.515625 40.671875 11.671875 48.328125 
Q 17.828125 56 27.875 56 
Q 33.9375 56 38.28125 53.609375 
Q 42.625 51.21875 45.40625 46.390625 
L 45.40625 54.6875 
L 54.390625 54.6875 
z
" id="DejaVuSans-103"/>
      <path d="M 64.40625 67.28125 
L 64.40625 56.890625 
Q 59.421875 61.53125 53.78125 63.8125 
Q 48.140625 66.109375 41.796875 66.109375 
Q 29.296875 66.109375 22.65625 58.46875 
Q 16.015625 50.828125 16.015625 36.375 
Q 16.015625 21.96875 22.65625 14.328125 
Q 29.296875 6.6875 41.796875 6.6875 
Q 48.140625 6.6875 53.78125 8.984375 
Q 59.421875 11.28125 64.40625 15.921875 
L 64.40625 5.609375 
Q 59.234375 2.09375 53.4375 0.328125 
Q 47.65625 -1.421875 41.21875 -1.421875 
Q 24.65625 -1.421875 15.125 8.703125 
Q 5.609375 18.84375 5.609375 36.375 
Q 5.609375 53.953125 15.125 64.078125 
Q 24.65625 74.21875 41.21875 74.21875 
Q 47.75 74.21875 53.53125 72.484375 
Q 59.328125 70.75 64.40625 67.28125 
z
" id="DejaVuSans-67"/>
      <path d="M 44.28125 53.078125 
L 44.28125 44.578125 
Q 40.484375 46.53125 36.375 47.5 
Q 32.28125 48.484375 27.875 48.484375 
Q 21.1875 48.484375 17.84375 46.4375 
Q 14.5 44.390625 14.5 40.28125 
Q 14.5 37.15625 16.890625 35.375 
Q 19.28125 33.59375 26.515625 31.984375 
L 29.59375 31.296875 
Q 39.15625 29.25 43.1875 25.515625 
Q 47.21875 21.78125 47.21875 15.09375 
Q 47.21875 7.46875 41.1875 3.015625 
Q 35.15625 -1.421875 24.609375 -1.421875 
Q 20.21875 -1.421875 15.453125 -0.5625 
Q 10.6875 0.296875 5.421875 2 
L 5.421875 11.28125 
Q 10.40625 8.6875 15.234375 7.390625 
Q 20.0625 6.109375 24.8125 6.109375 
Q 31.15625 6.109375 34.5625 8.28125 
Q 37.984375 10.453125 37.984375 14.40625 
Q 37.984375 18.0625 35.515625 20.015625 
Q 33.0625 21.96875 24.703125 23.78125 
L 21.578125 24.515625 
Q 13.234375 26.265625 9.515625 29.90625 
Q 5.8125 33.546875 5.8125 39.890625 
Q 5.8125 47.609375 11.28125 51.796875 
Q 16.75 56 26.8125 56 
Q 31.78125 56 36.171875 55.265625 
Q 40.578125 54.546875 44.28125 53.078125 
z
" id="DejaVuSans-115"/>
     </defs>
     <use xlink:href="#DejaVuSans-83"/>
     <use x="63.476562" xlink:href="#DejaVuSans-111"/>
     <use x="124.658203" xlink:href="#DejaVuSans-109"/>
     <use x="222.070312" xlink:href="#DejaVuSans-97"/>
     <use x="283.349609" xlink:href="#DejaVuSans-32"/>
     <use x="315.136719" xlink:href="#DejaVuSans-68"/>
     <use x="392.138672" xlink:href="#DejaVuSans-105"/>
     <use x="419.921875" xlink:href="#DejaVuSans-225"/>
     <use x="481.201172" xlink:href="#DejaVuSans-114"/>
     <use x="522.314453" xlink:href="#DejaVuSans-105"/>
     <use x="550.097656" xlink:href="#DejaVuSans-97"/>
     <use x="611.376953" xlink:href="#DejaVuSans-32"/>
     <use x="643.164062" xlink:href="#DejaVuSans-100"/>
     <use x="706.640625" xlink:href="#DejaVuSans-101"/>
     <use x="768.164062" xlink:href="#DejaVuSans-32"/>
     <use x="799.951172" xlink:href="#DejaVuSans-69"/>
     <use x="863.134766" xlink:href="#DejaVuSans-110"/>
     <use x="926.513672" xlink:href="#DejaVuSans-101"/>
     <use x="988.037109" xlink:href="#DejaVuSans-114"/>
     <use x="1027.400391" xlink:href="#DejaVuSans-103"/>
     <use x="1090.876953" xlink:href="#DejaVuSans-105"/>
     <use x="1118.660156" xlink:href="#DejaVuSans-97"/>
     <use x="1179.939453" xlink:href="#DejaVuSans-32"/>
     <use x="1211.726562" xlink:href="#DejaVuSans-45"/>
     <use x="1247.810547" xlink:href="#DejaVuSans-32"/>
     <use x="1279.597656" xlink:href="#DejaVuSans-67"/>
     <use x="1349.421875" xlink:href="#DejaVuSans-97"/>
     <use x="1410.701172" xlink:href="#DejaVuSans-115"/>
     <use x="1462.800781" xlink:href="#DejaVuSans-97"/>
     <use x="1524.080078" xlink:href="#DejaVuSans-32"/>
     <use x="1555.867188" xlink:href="#DejaVuSans-52"/>
    </g>
   </g>
  </g>
 </g>
 <defs>
  <clipPath id="p29962500ea">
   <rect height="217.44" width="334.8" x="54" y="34.56"/>
  </clipPath>
 </defs>
</svg>
