<?xml version="1.0" encoding="utf-8" standalone="no"?>
<!DOCTYPE svg PUBLIC "-//W3C//DTD SVG 1.1//EN"
  "http://www.w3.org/Graphics/SVG/1.1/DTD/svg11.dtd">
<!-- Created with matplotlib (https://matplotlib.org/) -->
<svg height="288pt" version="1.1" viewBox="0 0 432 288" width="432pt" xmlns="http://www.w3.org/2000/svg" xmlns:xlink="http://www.w3.org/1999/xlink">
 <metadata>
  <rdf:RDF xmlns:cc="http://creativecommons.org/ns#" xmlns:dc="http://purl.org/dc/elements/1.1/" xmlns:rdf="http://www.w3.org/1999/02/22-rdf-syntax-ns#">
   <cc:Work>
    <dc:type rdf:resource="http://purl.org/dc/dcmitype/StillImage"/>
    <dc:date>2021-07-21T14:57:41.677099</dc:date>
    <dc:format>image/svg+xml</dc:format>
    <dc:creator>
     <cc:Agent>
      <dc:title>Matplotlib v3.3.4, https://matplotlib.org/</dc:title>
     </cc:Agent>
    </dc:creator>
   </cc:Work>
  </rdf:RDF>
 </metadata>
 <defs>
  <style type="text/css">*{stroke-linecap:butt;stroke-linejoin:round;}</style>
 </defs>
 <g id="figure_1">
  <g id="patch_1">
   <path d="M 0 288 
L 432 288 
L 432 0 
L 0 0 
z
" style="fill:#ffffff;"/>
  </g>
  <g id="axes_1">
   <g id="patch_2">
    <path d="M 54 252 
L 388.8 252 
L 388.8 34.56 
L 54 34.56 
z
" style="fill:#ffffff;"/>
   </g>
   <g id="matplotlib.axis_1">
    <g id="xtick_1">
     <g id="line2d_1">
      <defs>
       <path d="M 0 0 
L 0 3.5 
" id="m4bb4b418b6" style="stroke:#000000;stroke-width:0.8;"/>
      </defs>
      <g>
       <use style="stroke:#000000;stroke-width:0.8;" x="61.478007" xlink:href="#m4bb4b418b6" y="252"/>
      </g>
     </g>
     <g id="text_1">
      <!-- 2012-05 -->
      <g transform="translate(48.656725 293.917817)rotate(-45)scale(0.1 -0.1)">
       <defs>
        <path d="M 19.1875 8.296875 
L 53.609375 8.296875 
L 53.609375 0 
L 7.328125 0 
L 7.328125 8.296875 
Q 12.9375 14.109375 22.625 23.890625 
Q 32.328125 33.6875 34.8125 36.53125 
Q 39.546875 41.84375 41.421875 45.53125 
Q 43.3125 49.21875 43.3125 52.78125 
Q 43.3125 58.59375 39.234375 62.25 
Q 35.15625 65.921875 28.609375 65.921875 
Q 23.96875 65.921875 18.8125 64.3125 
Q 13.671875 62.703125 7.8125 59.421875 
L 7.8125 69.390625 
Q 13.765625 71.78125 18.9375 73 
Q 24.125 74.21875 28.421875 74.21875 
Q 39.75 74.21875 46.484375 68.546875 
Q 53.21875 62.890625 53.21875 53.421875 
Q 53.21875 48.921875 51.53125 44.890625 
Q 49.859375 40.875 45.40625 35.40625 
Q 44.1875 33.984375 37.640625 27.21875 
Q 31.109375 20.453125 19.1875 8.296875 
z
" id="DejaVuSans-50"/>
        <path d="M 31.78125 66.40625 
Q 24.171875 66.40625 20.328125 58.90625 
Q 16.5 51.421875 16.5 36.375 
Q 16.5 21.390625 20.328125 13.890625 
Q 24.171875 6.390625 31.78125 6.390625 
Q 39.453125 6.390625 43.28125 13.890625 
Q 47.125 21.390625 47.125 36.375 
Q 47.125 51.421875 43.28125 58.90625 
Q 39.453125 66.40625 31.78125 66.40625 
z
M 31.78125 74.21875 
Q 44.046875 74.21875 50.515625 64.515625 
Q 56.984375 54.828125 56.984375 36.375 
Q 56.984375 17.96875 50.515625 8.265625 
Q 44.046875 -1.421875 31.78125 -1.421875 
Q 19.53125 -1.421875 13.0625 8.265625 
Q 6.59375 17.96875 6.59375 36.375 
Q 6.59375 54.828125 13.0625 64.515625 
Q 19.53125 74.21875 31.78125 74.21875 
z
" id="DejaVuSans-48"/>
        <path d="M 12.40625 8.296875 
L 28.515625 8.296875 
L 28.515625 63.921875 
L 10.984375 60.40625 
L 10.984375 69.390625 
L 28.421875 72.90625 
L 38.28125 72.90625 
L 38.28125 8.296875 
L 54.390625 8.296875 
L 54.390625 0 
L 12.40625 0 
z
" id="DejaVuSans-49"/>
        <path d="M 4.890625 31.390625 
L 31.203125 31.390625 
L 31.203125 23.390625 
L 4.890625 23.390625 
z
" id="DejaVuSans-45"/>
        <path d="M 10.796875 72.90625 
L 49.515625 72.90625 
L 49.515625 64.59375 
L 19.828125 64.59375 
L 19.828125 46.734375 
Q 21.96875 47.46875 24.109375 47.828125 
Q 26.265625 48.1875 28.421875 48.1875 
Q 40.625 48.1875 47.75 41.5 
Q 54.890625 34.8125 54.890625 23.390625 
Q 54.890625 11.625 47.5625 5.09375 
Q 40.234375 -1.421875 26.90625 -1.421875 
Q 22.3125 -1.421875 17.546875 -0.640625 
Q 12.796875 0.140625 7.71875 1.703125 
L 7.71875 11.625 
Q 12.109375 9.234375 16.796875 8.0625 
Q 21.484375 6.890625 26.703125 6.890625 
Q 35.15625 6.890625 40.078125 11.328125 
Q 45.015625 15.765625 45.015625 23.390625 
Q 45.015625 31 40.078125 35.4375 
Q 35.15625 39.890625 26.703125 39.890625 
Q 22.75 39.890625 18.8125 39.015625 
Q 14.890625 38.140625 10.796875 36.28125 
z
" id="DejaVuSans-53"/>
       </defs>
       <use xlink:href="#DejaVuSans-50"/>
       <use x="63.623047" xlink:href="#DejaVuSans-48"/>
       <use x="127.246094" xlink:href="#DejaVuSans-49"/>
       <use x="190.869141" xlink:href="#DejaVuSans-50"/>
       <use x="254.492188" xlink:href="#DejaVuSans-45"/>
       <use x="290.576172" xlink:href="#DejaVuSans-48"/>
       <use x="354.199219" xlink:href="#DejaVuSans-53"/>
      </g>
     </g>
    </g>
    <g id="xtick_2">
     <g id="line2d_2">
      <g>
       <use style="stroke:#000000;stroke-width:0.8;" x="92.189022" xlink:href="#m4bb4b418b6" y="252"/>
      </g>
     </g>
     <g id="text_2">
      <!-- 2012-09 -->
      <g transform="translate(79.36774 293.917817)rotate(-45)scale(0.1 -0.1)">
       <defs>
        <path d="M 10.984375 1.515625 
L 10.984375 10.5 
Q 14.703125 8.734375 18.5 7.8125 
Q 22.3125 6.890625 25.984375 6.890625 
Q 35.75 6.890625 40.890625 13.453125 
Q 46.046875 20.015625 46.78125 33.40625 
Q 43.953125 29.203125 39.59375 26.953125 
Q 35.25 24.703125 29.984375 24.703125 
Q 19.046875 24.703125 12.671875 31.3125 
Q 6.296875 37.9375 6.296875 49.421875 
Q 6.296875 60.640625 12.9375 67.421875 
Q 19.578125 74.21875 30.609375 74.21875 
Q 43.265625 74.21875 49.921875 64.515625 
Q 56.59375 54.828125 56.59375 36.375 
Q 56.59375 19.140625 48.40625 8.859375 
Q 40.234375 -1.421875 26.421875 -1.421875 
Q 22.703125 -1.421875 18.890625 -0.6875 
Q 15.09375 0.046875 10.984375 1.515625 
z
M 30.609375 32.421875 
Q 37.25 32.421875 41.125 36.953125 
Q 45.015625 41.5 45.015625 49.421875 
Q 45.015625 57.28125 41.125 61.84375 
Q 37.25 66.40625 30.609375 66.40625 
Q 23.96875 66.40625 20.09375 61.84375 
Q 16.21875 57.28125 16.21875 49.421875 
Q 16.21875 41.5 20.09375 36.953125 
Q 23.96875 32.421875 30.609375 32.421875 
z
" id="DejaVuSans-57"/>
       </defs>
       <use xlink:href="#DejaVuSans-50"/>
       <use x="63.623047" xlink:href="#DejaVuSans-48"/>
       <use x="127.246094" xlink:href="#DejaVuSans-49"/>
       <use x="190.869141" xlink:href="#DejaVuSans-50"/>
       <use x="254.492188" xlink:href="#DejaVuSans-45"/>
       <use x="290.576172" xlink:href="#DejaVuSans-48"/>
       <use x="354.199219" xlink:href="#DejaVuSans-57"/>
      </g>
     </g>
    </g>
    <g id="xtick_3">
     <g id="line2d_3">
      <g>
       <use style="stroke:#000000;stroke-width:0.8;" x="122.650354" xlink:href="#m4bb4b418b6" y="252"/>
      </g>
     </g>
     <g id="text_3">
      <!-- 2013-01 -->
      <g transform="translate(109.829072 293.917817)rotate(-45)scale(0.1 -0.1)">
       <defs>
        <path d="M 40.578125 39.3125 
Q 47.65625 37.796875 51.625 33 
Q 55.609375 28.21875 55.609375 21.1875 
Q 55.609375 10.40625 48.1875 4.484375 
Q 40.765625 -1.421875 27.09375 -1.421875 
Q 22.515625 -1.421875 17.65625 -0.515625 
Q 12.796875 0.390625 7.625 2.203125 
L 7.625 11.71875 
Q 11.71875 9.328125 16.59375 8.109375 
Q 21.484375 6.890625 26.8125 6.890625 
Q 36.078125 6.890625 40.9375 10.546875 
Q 45.796875 14.203125 45.796875 21.1875 
Q 45.796875 27.640625 41.28125 31.265625 
Q 36.765625 34.90625 28.71875 34.90625 
L 20.21875 34.90625 
L 20.21875 43.015625 
L 29.109375 43.015625 
Q 36.375 43.015625 40.234375 45.921875 
Q 44.09375 48.828125 44.09375 54.296875 
Q 44.09375 59.90625 40.109375 62.90625 
Q 36.140625 65.921875 28.71875 65.921875 
Q 24.65625 65.921875 20.015625 65.03125 
Q 15.375 64.15625 9.8125 62.3125 
L 9.8125 71.09375 
Q 15.4375 72.65625 20.34375 73.4375 
Q 25.25 74.21875 29.59375 74.21875 
Q 40.828125 74.21875 47.359375 69.109375 
Q 53.90625 64.015625 53.90625 55.328125 
Q 53.90625 49.265625 50.4375 45.09375 
Q 46.96875 40.921875 40.578125 39.3125 
z
" id="DejaVuSans-51"/>
       </defs>
       <use xlink:href="#DejaVuSans-50"/>
       <use x="63.623047" xlink:href="#DejaVuSans-48"/>
       <use x="127.246094" xlink:href="#DejaVuSans-49"/>
       <use x="190.869141" xlink:href="#DejaVuSans-51"/>
       <use x="254.492188" xlink:href="#DejaVuSans-45"/>
       <use x="290.576172" xlink:href="#DejaVuSans-48"/>
       <use x="354.199219" xlink:href="#DejaVuSans-49"/>
      </g>
     </g>
    </g>
    <g id="xtick_4">
     <g id="line2d_4">
      <g>
       <use style="stroke:#000000;stroke-width:0.8;" x="152.61232" xlink:href="#m4bb4b418b6" y="252"/>
      </g>
     </g>
     <g id="text_4">
      <!-- 2013-05 -->
      <g transform="translate(139.791038 293.917817)rotate(-45)scale(0.1 -0.1)">
       <use xlink:href="#DejaVuSans-50"/>
       <use x="63.623047" xlink:href="#DejaVuSans-48"/>
       <use x="127.246094" xlink:href="#DejaVuSans-49"/>
       <use x="190.869141" xlink:href="#DejaVuSans-51"/>
       <use x="254.492188" xlink:href="#DejaVuSans-45"/>
       <use x="290.576172" xlink:href="#DejaVuSans-48"/>
       <use x="354.199219" xlink:href="#DejaVuSans-53"/>
      </g>
     </g>
    </g>
    <g id="xtick_5">
     <g id="line2d_5">
      <g>
       <use style="stroke:#000000;stroke-width:0.8;" x="183.323335" xlink:href="#m4bb4b418b6" y="252"/>
      </g>
     </g>
     <g id="text_5">
      <!-- 2013-09 -->
      <g transform="translate(170.502053 293.917817)rotate(-45)scale(0.1 -0.1)">
       <use xlink:href="#DejaVuSans-50"/>
       <use x="63.623047" xlink:href="#DejaVuSans-48"/>
       <use x="127.246094" xlink:href="#DejaVuSans-49"/>
       <use x="190.869141" xlink:href="#DejaVuSans-51"/>
       <use x="254.492188" xlink:href="#DejaVuSans-45"/>
       <use x="290.576172" xlink:href="#DejaVuSans-48"/>
       <use x="354.199219" xlink:href="#DejaVuSans-57"/>
      </g>
     </g>
    </g>
    <g id="xtick_6">
     <g id="line2d_6">
      <g>
       <use style="stroke:#000000;stroke-width:0.8;" x="213.784667" xlink:href="#m4bb4b418b6" y="252"/>
      </g>
     </g>
     <g id="text_6">
      <!-- 2014-01 -->
      <g transform="translate(200.963385 293.917817)rotate(-45)scale(0.1 -0.1)">
       <defs>
        <path d="M 37.796875 64.3125 
L 12.890625 25.390625 
L 37.796875 25.390625 
z
M 35.203125 72.90625 
L 47.609375 72.90625 
L 47.609375 25.390625 
L 58.015625 25.390625 
L 58.015625 17.1875 
L 47.609375 17.1875 
L 47.609375 0 
L 37.796875 0 
L 37.796875 17.1875 
L 4.890625 17.1875 
L 4.890625 26.703125 
z
" id="DejaVuSans-52"/>
       </defs>
       <use xlink:href="#DejaVuSans-50"/>
       <use x="63.623047" xlink:href="#DejaVuSans-48"/>
       <use x="127.246094" xlink:href="#DejaVuSans-49"/>
       <use x="190.869141" xlink:href="#DejaVuSans-52"/>
       <use x="254.492188" xlink:href="#DejaVuSans-45"/>
       <use x="290.576172" xlink:href="#DejaVuSans-48"/>
       <use x="354.199219" xlink:href="#DejaVuSans-49"/>
      </g>
     </g>
    </g>
    <g id="xtick_7">
     <g id="line2d_7">
      <g>
       <use style="stroke:#000000;stroke-width:0.8;" x="243.746633" xlink:href="#m4bb4b418b6" y="252"/>
      </g>
     </g>
     <g id="text_7">
      <!-- 2014-05 -->
      <g transform="translate(230.925351 293.917817)rotate(-45)scale(0.1 -0.1)">
       <use xlink:href="#DejaVuSans-50"/>
       <use x="63.623047" xlink:href="#DejaVuSans-48"/>
       <use x="127.246094" xlink:href="#DejaVuSans-49"/>
       <use x="190.869141" xlink:href="#DejaVuSans-52"/>
       <use x="254.492188" xlink:href="#DejaVuSans-45"/>
       <use x="290.576172" xlink:href="#DejaVuSans-48"/>
       <use x="354.199219" xlink:href="#DejaVuSans-53"/>
      </g>
     </g>
    </g>
    <g id="xtick_8">
     <g id="line2d_8">
      <g>
       <use style="stroke:#000000;stroke-width:0.8;" x="274.457648" xlink:href="#m4bb4b418b6" y="252"/>
      </g>
     </g>
     <g id="text_8">
      <!-- 2014-09 -->
      <g transform="translate(261.636366 293.917817)rotate(-45)scale(0.1 -0.1)">
       <use xlink:href="#DejaVuSans-50"/>
       <use x="63.623047" xlink:href="#DejaVuSans-48"/>
       <use x="127.246094" xlink:href="#DejaVuSans-49"/>
       <use x="190.869141" xlink:href="#DejaVuSans-52"/>
       <use x="254.492188" xlink:href="#DejaVuSans-45"/>
       <use x="290.576172" xlink:href="#DejaVuSans-48"/>
       <use x="354.199219" xlink:href="#DejaVuSans-57"/>
      </g>
     </g>
    </g>
    <g id="xtick_9">
     <g id="line2d_9">
      <g>
       <use style="stroke:#000000;stroke-width:0.8;" x="304.91898" xlink:href="#m4bb4b418b6" y="252"/>
      </g>
     </g>
     <g id="text_9">
      <!-- 2015-01 -->
      <g transform="translate(292.097698 293.917817)rotate(-45)scale(0.1 -0.1)">
       <use xlink:href="#DejaVuSans-50"/>
       <use x="63.623047" xlink:href="#DejaVuSans-48"/>
       <use x="127.246094" xlink:href="#DejaVuSans-49"/>
       <use x="190.869141" xlink:href="#DejaVuSans-53"/>
       <use x="254.492188" xlink:href="#DejaVuSans-45"/>
       <use x="290.576172" xlink:href="#DejaVuSans-48"/>
       <use x="354.199219" xlink:href="#DejaVuSans-49"/>
      </g>
     </g>
    </g>
    <g id="xtick_10">
     <g id="line2d_10">
      <g>
       <use style="stroke:#000000;stroke-width:0.8;" x="334.880946" xlink:href="#m4bb4b418b6" y="252"/>
      </g>
     </g>
     <g id="text_10">
      <!-- 2015-05 -->
      <g transform="translate(322.059663 293.917817)rotate(-45)scale(0.1 -0.1)">
       <use xlink:href="#DejaVuSans-50"/>
       <use x="63.623047" xlink:href="#DejaVuSans-48"/>
       <use x="127.246094" xlink:href="#DejaVuSans-49"/>
       <use x="190.869141" xlink:href="#DejaVuSans-53"/>
       <use x="254.492188" xlink:href="#DejaVuSans-45"/>
       <use x="290.576172" xlink:href="#DejaVuSans-48"/>
       <use x="354.199219" xlink:href="#DejaVuSans-53"/>
      </g>
     </g>
    </g>
    <g id="xtick_11">
     <g id="line2d_11">
      <g>
       <use style="stroke:#000000;stroke-width:0.8;" x="365.591961" xlink:href="#m4bb4b418b6" y="252"/>
      </g>
     </g>
     <g id="text_11">
      <!-- 2015-09 -->
      <g transform="translate(352.770678 293.917817)rotate(-45)scale(0.1 -0.1)">
       <use xlink:href="#DejaVuSans-50"/>
       <use x="63.623047" xlink:href="#DejaVuSans-48"/>
       <use x="127.246094" xlink:href="#DejaVuSans-49"/>
       <use x="190.869141" xlink:href="#DejaVuSans-53"/>
       <use x="254.492188" xlink:href="#DejaVuSans-45"/>
       <use x="290.576172" xlink:href="#DejaVuSans-48"/>
       <use x="354.199219" xlink:href="#DejaVuSans-57"/>
      </g>
     </g>
    </g>
   </g>
   <g id="matplotlib.axis_2">
    <g id="ytick_1">
     <g id="line2d_12">
      <defs>
       <path d="M 0 0 
L -3.5 0 
" id="m2ca0d1064a" style="stroke:#000000;stroke-width:0.8;"/>
      </defs>
      <g>
       <use style="stroke:#000000;stroke-width:0.8;" x="54" xlink:href="#m2ca0d1064a" y="245.515065"/>
      </g>
     </g>
     <g id="text_12">
      <!-- 0 -->
      <g transform="translate(40.6375 249.314284)scale(0.1 -0.1)">
       <use xlink:href="#DejaVuSans-48"/>
      </g>
     </g>
    </g>
    <g id="ytick_2">
     <g id="line2d_13">
      <g>
       <use style="stroke:#000000;stroke-width:0.8;" x="54" xlink:href="#m2ca0d1064a" y="203.031296"/>
      </g>
     </g>
     <g id="text_13">
      <!-- 10 -->
      <g transform="translate(34.275 206.830515)scale(0.1 -0.1)">
       <use xlink:href="#DejaVuSans-49"/>
       <use x="63.623047" xlink:href="#DejaVuSans-48"/>
      </g>
     </g>
    </g>
    <g id="ytick_3">
     <g id="line2d_14">
      <g>
       <use style="stroke:#000000;stroke-width:0.8;" x="54" xlink:href="#m2ca0d1064a" y="160.547528"/>
      </g>
     </g>
     <g id="text_14">
      <!-- 20 -->
      <g transform="translate(34.275 164.346747)scale(0.1 -0.1)">
       <use xlink:href="#DejaVuSans-50"/>
       <use x="63.623047" xlink:href="#DejaVuSans-48"/>
      </g>
     </g>
    </g>
    <g id="ytick_4">
     <g id="line2d_15">
      <g>
       <use style="stroke:#000000;stroke-width:0.8;" x="54" xlink:href="#m2ca0d1064a" y="118.063759"/>
      </g>
     </g>
     <g id="text_15">
      <!-- 30 -->
      <g transform="translate(34.275 121.862978)scale(0.1 -0.1)">
       <use xlink:href="#DejaVuSans-51"/>
       <use x="63.623047" xlink:href="#DejaVuSans-48"/>
      </g>
     </g>
    </g>
    <g id="ytick_5">
     <g id="line2d_16">
      <g>
       <use style="stroke:#000000;stroke-width:0.8;" x="54" xlink:href="#m2ca0d1064a" y="75.57999"/>
      </g>
     </g>
     <g id="text_16">
      <!-- 40 -->
      <g transform="translate(34.275 79.379209)scale(0.1 -0.1)">
       <use xlink:href="#DejaVuSans-52"/>
       <use x="63.623047" xlink:href="#DejaVuSans-48"/>
      </g>
     </g>
    </g>
   </g>
   <g id="line2d_17">
    <path clip-path="url(#p852fb2a8b9)" d="M 69.218182 162.773677 
L 69.467865 159.141315 
L 69.967231 136.714134 
L 70.216914 143.014476 
L 70.466597 127.758555 
L 70.965963 131.764775 
L 71.465329 175.828939 
L 71.715012 170.335788 
L 71.964695 178.31424 
L 72.214378 176.593647 
L 72.464061 173.980895 
L 72.713744 170.131866 
L 72.963428 186.220469 
L 73.213111 155.72562 
L 73.462794 154.540323 
L 73.712477 140.342247 
L 73.96216 164.621721 
L 74.211843 156.592289 
L 74.461526 132.924581 
L 74.711209 166.48251 
L 74.960892 168.91683 
L 75.210575 149.505996 
L 75.460258 115.361791 
L 75.709941 154.395878 
L 75.959624 154.162217 
L 76.209307 166.057673 
L 76.45899 142.300749 
L 76.708673 166.597216 
L 76.958356 145.478535 
L 77.208039 149.854363 
L 77.457722 156.515818 
L 77.707405 170.662913 
L 77.957089 163.092306 
L 78.206772 184.062294 
L 78.706138 117.600686 
L 78.955821 174.146582 
L 79.70487 142.266762 
L 79.954553 121.674879 
L 80.204236 152.275938 
L 80.453919 160.700469 
L 80.703602 164.473028 
L 80.953285 151.128876 
L 81.202968 150.155998 
L 81.452651 142.517416 
L 81.952017 156.579544 
L 82.451383 167.574343 
L 82.701066 143.316111 
L 82.950749 149.752402 
L 83.200433 168.610947 
L 83.450116 164.116164 
L 83.699799 164.770414 
L 83.949482 141.935389 
L 84.199165 158.206672 
L 84.448848 153.367771 
L 84.698531 146.213504 
L 84.948214 143.32036 
L 85.197897 126.067701 
L 85.44758 126.426689 
L 85.697263 149.599461 
L 86.196629 157.66288 
L 86.446312 137.402371 
L 86.695995 156.749479 
L 86.945678 149.760899 
L 87.195361 148.303706 
L 87.445044 154.276924 
L 87.694727 142.190291 
L 87.94441 73.443057 
L 88.194094 124.568024 
L 88.443777 123.412466 
L 88.69346 147.815142 
L 88.943143 151.744891 
L 89.192826 147.61122 
L 89.442509 166.537739 
L 89.692192 165.106036 
L 89.941875 130.864119 
L 90.191558 167.434147 
L 90.441241 138.311523 
L 90.690924 146.893245 
L 90.940607 142.024605 
L 91.19029 153.423 
L 91.439973 150.351423 
L 91.689656 168.547221 
L 92.438705 128.816401 
L 92.688388 166.321072 
L 92.938071 141.072968 
L 93.187754 150.449136 
L 93.437438 128.183393 
L 93.687121 162.629232 
L 93.936804 173.976647 
L 94.186487 155.41124 
L 94.43617 153.427248 
L 94.685853 147.084421 
L 94.935536 159.26027 
L 95.185219 157.756344 
L 95.434902 151.80012 
L 95.934268 131.12327 
L 96.183951 154.106988 
L 96.433634 161.558641 
L 96.683317 144.263499 
L 96.933 154.310911 
L 97.182683 152.993914 
L 97.432366 158.63151 
L 97.682049 150.512862 
L 97.931732 156.757976 
L 98.181415 168.109639 
L 98.680782 150.423646 
L 98.930465 145.618731 
L 99.180148 146.438668 
L 99.429831 126.033714 
L 99.679514 150.147501 
L 99.929197 155.54294 
L 100.17888 158.482817 
L 100.428563 149.777892 
L 100.678246 162.705703 
L 100.927929 156.923662 
L 101.427295 128.536008 
L 101.676978 160.169422 
L 101.926661 131.395166 
L 102.176344 135.567072 
L 102.426027 145.699451 
L 102.67571 111.512762 
L 102.925393 133.812492 
L 103.175076 132.79713 
L 103.424759 123.433707 
L 103.674443 138.218059 
L 103.924126 121.492199 
L 104.173809 134.721645 
L 104.423492 78.732286 
L 104.922858 107.489549 
L 105.172541 92.110425 
L 105.422224 93.767292 
L 105.671907 128.442544 
L 105.92159 100.568943 
L 106.171273 103.253917 
L 106.420956 116.287938 
L 106.670639 103.784964 
L 106.920322 140.945517 
L 107.170005 102.077117 
L 107.419688 146.238994 
L 107.919054 103.87418 
L 108.168737 126.870644 
L 108.41842 131.752029 
L 108.668104 107.999354 
L 108.917787 112.090541 
L 109.417153 90.661728 
L 109.666836 103.657513 
L 109.916519 45.934817 
L 110.166202 84.735243 
L 110.665568 117.494477 
L 110.915251 88.864665 
L 111.164934 99.413385 
L 111.414617 90.139178 
L 111.6643 97.939198 
L 112.163666 101.078748 
L 112.413349 84.34864 
L 112.663032 83.966286 
L 112.912715 109.205893 
L 113.162398 52.787449 
L 113.661764 140.915778 
L 113.911448 130.069672 
L 114.161131 72.25776 
L 114.410814 104.626143 
L 114.660497 120.306902 
L 114.91018 103.024505 
L 115.409546 44.443636 
L 115.659229 107.132685 
L 116.158595 84.994394 
L 116.657961 68.582914 
L 116.907644 140.482444 
L 117.157327 133.077523 
L 117.656693 89.875779 
L 118.156059 160.092951 
L 118.405742 145.814157 
L 118.655425 143.469053 
L 118.905109 112.851001 
L 119.154792 119.185331 
L 119.404475 114.864731 
L 119.654158 69.993375 
L 119.903841 132.580463 
L 120.153524 147.080173 
L 120.403207 107.612752 
L 120.65289 169.775002 
L 120.902573 129.86575 
L 121.152256 133.158242 
L 121.401939 109.354587 
L 121.651622 111.686945 
L 121.901305 138.965773 
L 122.150988 137.270671 
L 122.400671 127.227508 
L 122.650354 137.355638 
L 122.900037 116.190225 
L 123.14972 136.998775 
L 123.399403 86.935902 
L 123.649086 84.879687 
L 123.898769 100.704891 
L 124.148453 128.722937 
L 124.398136 118.110491 
L 124.647819 68.676378 
L 124.897502 134.742887 
L 125.147185 145.971347 
L 125.396868 145.244874 
L 125.646551 107.413078 
L 125.896234 125.75757 
L 126.145917 108.606872 
L 126.3956 130.141895 
L 126.645283 132.716411 
L 126.894966 142.415455 
L 127.144649 110.888251 
L 127.394332 113.692179 
L 127.644015 113.645447 
L 127.893698 127.936987 
L 128.143381 94.196378 
L 128.642747 99.443123 
L 128.89243 116.253951 
L 129.142114 110.739557 
L 129.391797 111.699691 
L 129.64148 111.865377 
L 129.891163 100.794107 
L 130.140846 71.063966 
L 130.640212 134.742887 
L 130.889895 95.415662 
L 131.139578 88.609762 
L 131.389261 93.669579 
L 131.638944 73.294364 
L 132.13831 103.861435 
L 132.387993 104.689869 
L 132.637676 135.324914 
L 132.887359 96.201612 
L 133.137042 76.455156 
L 133.386725 100.326786 
L 133.636408 91.460423 
L 133.886091 91.184279 
L 134.135774 81.196345 
L 134.385458 110.166027 
L 134.635141 124.495802 
L 134.884824 125.252013 
L 135.134507 120.226183 
L 135.38419 128.612479 
L 135.633873 104.052612 
L 135.883556 91.910751 
L 136.133239 105.81144 
L 136.382922 64.593688 
L 136.632605 107.294124 
L 136.882288 108.233015 
L 137.131971 122.74547 
L 137.381654 71.875406 
L 137.631337 104.379737 
L 137.88102 119.066376 
L 138.130703 141.790944 
L 138.380386 96.775143 
L 138.630069 91.617613 
L 138.879752 78.311697 
L 139.129435 128.914114 
L 139.379119 97.67155 
L 139.628802 105.475818 
L 139.878485 81.497979 
L 140.128168 96.477756 
L 140.377851 126.080446 
L 140.627534 104.876797 
L 140.877217 111.580736 
L 141.1269 104.864052 
L 141.626266 137.653025 
L 141.875949 101.040513 
L 142.125632 92.288857 
L 142.375315 137.563809 
L 142.624998 119.869319 
L 142.874681 136.000406 
L 143.124364 142.785064 
L 143.374047 116.916697 
L 143.873413 118.705264 
L 144.123096 132.529482 
L 144.372779 123.225537 
L 144.622463 118.314413 
L 144.872146 109.52877 
L 145.121829 144.238009 
L 145.371512 131.624578 
L 145.621195 141.174929 
L 145.870878 104.919281 
L 146.120561 119.10886 
L 146.370244 109.180403 
L 146.619927 86.451587 
L 146.86961 122.758216 
L 147.119293 121.105597 
L 147.368976 138.328517 
L 147.618659 135.103999 
L 147.868342 123.684362 
L 148.118025 90.483296 
L 148.367708 114.91996 
L 148.617391 125.659857 
L 148.867074 126.203649 
L 149.116757 133.89746 
L 149.36644 103.075486 
L 149.616123 115.654929 
L 149.865807 112.387928 
L 150.11549 126.896135 
L 150.365173 120.965401 
L 150.614856 133.137 
L 150.864539 131.603336 
L 151.114222 149.387042 
L 151.363905 151.315805 
L 151.863271 134.853344 
L 152.112954 91.919248 
L 152.362637 138.039627 
L 152.61232 145.3086 
L 152.862003 125.438941 
L 153.611052 158.465823 
L 153.860735 162.429559 
L 154.110418 170.072389 
L 155.109151 138.732113 
L 155.358834 135.902694 
L 155.608517 135.851713 
L 155.8582 157.204055 
L 156.107883 156.418105 
L 156.357566 124.678482 
L 156.856932 173.394619 
L 157.356298 136.833088 
L 157.605981 148.788021 
L 157.855664 144.824285 
L 158.105347 137.695509 
L 158.35503 153.257313 
L 158.854396 131.276211 
L 159.104079 159.578898 
L 159.353762 107.561771 
L 159.603445 144.029839 
L 159.853128 134.781122 
L 160.102812 146.272982 
L 160.352495 151.264824 
L 160.602178 147.003702 
L 160.851861 146.612852 
L 161.101544 157.471703 
L 161.351227 152.335415 
L 161.60091 162.319101 
L 161.850593 123.510178 
L 162.100276 151.766133 
L 162.349959 139.747475 
L 162.599642 155.186076 
L 162.849325 142.084082 
L 163.099008 157.764841 
L 163.348691 164.392309 
L 163.598374 137.317403 
L 163.848057 141.731467 
L 164.09774 119.712129 
L 164.347423 139.356624 
L 164.846789 156.575295 
L 165.096473 127.040579 
L 165.346156 137.172958 
L 165.595839 163.122044 
L 165.845522 119.686639 
L 166.095205 130.570981 
L 166.344888 146.56612 
L 166.594571 147.305337 
L 166.844254 156.817453 
L 167.093937 117.604934 
L 167.34362 142.394213 
L 167.842986 86.069233 
L 168.092669 139.335382 
L 168.342352 152.734763 
L 168.592035 151.494237 
L 168.841718 136.268054 
L 169.091401 161.834786 
L 169.341084 140.380483 
L 169.590767 137.704005 
L 169.84045 158.402097 
L 170.090133 126.560513 
L 170.339817 164.872375 
L 170.5895 155.364508 
L 170.839183 134.403017 
L 171.088866 147.347821 
L 171.338549 131.000067 
L 171.837915 150.852732 
L 172.087598 148.949459 
L 172.337281 132.32556 
L 172.586964 132.818372 
L 172.836647 131.972945 
L 173.336013 163.559627 
L 173.585696 149.501748 
L 173.835379 155.037383 
L 174.085062 144.080819 
L 174.334745 165.896234 
L 174.584428 119.062128 
L 174.834111 146.791283 
L 175.333478 166.359307 
L 175.583161 166.210614 
L 175.832844 187.023412 
L 176.082527 192.129961 
L 176.33221 187.813611 
L 176.581893 144.318728 
L 176.831576 174.8858 
L 177.081259 161.138052 
L 177.330942 116.17748 
L 177.580625 107.888897 
L 177.830308 149.879853 
L 178.079991 155.887058 
L 178.329674 138.213811 
L 178.579357 155.691633 
L 178.82904 144.888011 
L 179.078723 122.860177 
L 179.328406 154.106988 
L 179.578089 167.047544 
L 180.077455 139.13146 
L 180.327138 142.776567 
L 180.576822 163.291979 
L 180.826505 163.780543 
L 181.076188 150.780509 
L 181.325871 155.007644 
L 181.575554 130.286339 
L 181.825237 142.313494 
L 182.07492 163.903746 
L 182.324603 129.886992 
L 182.574286 119.7886 
L 182.823969 131.51412 
L 183.073652 174.864558 
L 183.323335 159.842297 
L 183.573018 111.092173 
L 184.072384 167.536108 
L 184.322067 156.66876 
L 184.57175 162.34884 
L 184.821433 108.483669 
L 185.071116 139.475579 
L 185.320799 125.812799 
L 185.570483 166.244601 
L 185.820166 165.377932 
L 186.069849 132.631443 
L 186.319532 163.122044 
L 186.569215 149.960573 
L 186.818898 108.917004 
L 187.068581 144.322977 
L 187.318264 146.910238 
L 187.567947 161.048836 
L 187.81763 158.746216 
L 188.067313 138.880806 
L 188.566679 136.463479 
L 188.816362 130.80889 
L 189.066045 150.576587 
L 189.315728 141.140942 
L 189.565411 150.219724 
L 189.815094 145.006965 
L 190.31446 113.964075 
L 190.564143 135.193215 
L 190.813827 120.047751 
L 191.06351 124.767698 
L 191.313193 140.898785 
L 191.562876 148.256974 
L 191.812559 120.158209 
L 192.062242 131.773271 
L 192.311925 173.985144 
L 192.561608 138.863812 
L 192.811291 145.121671 
L 193.060974 139.738978 
L 193.310657 139.046492 
L 193.56034 144.849775 
L 193.810023 163.508646 
L 194.059706 128.174896 
L 194.559072 148.08279 
L 194.808755 122.962138 
L 195.058438 137.610541 
L 195.308121 120.57455 
L 195.557804 113.216361 
L 196.306854 153.036397 
L 196.556537 141.918395 
L 196.80622 106.584645 
L 197.055903 125.145803 
L 197.305586 123.973251 
L 197.555269 112.396424 
L 197.804952 117.893824 
L 198.054635 129.253984 
L 198.304318 90.02872 
L 198.554001 134.432755 
L 198.803684 126.046459 
L 199.053367 137.704005 
L 199.30305 115.327804 
L 199.552733 116.122251 
L 199.802416 115.119634 
L 200.052099 64.400387 
L 200.301782 85.746356 
L 200.551465 117.277809 
L 200.801148 105.1317 
L 201.050832 118.696767 
L 201.550198 128.451041 
L 201.799881 131.998435 
L 202.049564 92.199641 
L 202.299247 106.376474 
L 202.54893 140.945517 
L 202.798613 78.677057 
L 203.297979 140.015122 
L 203.547662 138.303026 
L 203.797345 131.760526 
L 204.047028 76.263979 
L 204.296711 114.117017 
L 204.546394 112.230738 
L 204.796077 139.49682 
L 205.295443 95.810761 
L 205.545126 123.149066 
L 205.794809 115.20885 
L 206.044493 90.589506 
L 206.294176 154.591303 
L 206.543859 127.635352 
L 206.793542 146.451413 
L 207.043225 154.672023 
L 207.292908 131.458891 
L 207.542591 154.752742 
L 207.792274 136.765114 
L 208.041957 138.417733 
L 208.29164 153.104372 
L 208.541323 152.076264 
L 208.791006 156.558302 
L 209.290372 92.632975 
L 209.540055 89.998982 
L 209.789738 138.396491 
L 210.039421 121.38599 
L 210.289104 150.372665 
L 210.538787 162.340343 
L 210.78847 144.0001 
L 211.038153 167.170747 
L 211.287837 143.821668 
L 211.53752 81.54896 
L 211.787203 117.413757 
L 212.036886 98.321552 
L 212.286569 132.763143 
L 212.536252 111.070931 
L 212.785935 106.788567 
L 213.035618 137.53407 
L 213.285301 107.013731 
L 213.534984 51.733851 
L 214.03435 86.090475 
L 214.284033 134.530468 
L 214.533716 119.325527 
L 214.783399 138.052372 
L 215.282765 100.590185 
L 215.532448 111.300343 
L 215.782131 98.572206 
L 216.031814 91.702581 
L 216.281498 56.470791 
L 216.531181 113.641199 
L 216.780864 89.157803 
L 217.030547 108.305237 
L 217.28023 94.043436 
L 217.529913 148.932465 
L 217.779596 138.45172 
L 218.029279 137.610541 
L 218.278962 114.282704 
L 218.528645 128.438295 
L 219.028011 118.79448 
L 219.277694 142.19454 
L 219.527377 140.23179 
L 219.77706 141.761205 
L 220.026743 126.135675 
L 220.276426 93.758795 
L 220.526109 118.81997 
L 220.775792 111.767665 
L 221.025475 137.372632 
L 221.275158 147.318082 
L 221.524842 120.829452 
L 221.774525 139.981135 
L 222.024208 139.135708 
L 222.273891 128.901368 
L 222.523574 166.677936 
L 223.02294 143.362843 
L 223.272623 73.761685 
L 223.771989 149.238349 
L 224.021672 113.942834 
L 224.521038 135.902694 
L 224.770721 116.814736 
L 225.020404 113.080413 
L 225.270087 120.264418 
L 225.51977 119.503959 
L 225.769453 144.029839 
L 226.019136 132.563469 
L 226.268819 129.980456 
L 226.518502 133.612818 
L 226.768186 123.854297 
L 227.017869 124.223906 
L 227.267552 132.584711 
L 227.517235 157.679873 
L 227.766918 153.801105 
L 228.016601 145.775921 
L 228.266284 151.184105 
L 228.515967 106.053598 
L 228.76565 132.962817 
L 229.015333 114.648064 
L 229.265016 153.805354 
L 229.514699 141.939637 
L 229.764382 112.532372 
L 230.014065 103.304898 
L 230.263748 76.650581 
L 231.012797 150.262207 
L 231.26248 145.028207 
L 231.512163 131.416408 
L 231.761847 138.664139 
L 232.01153 85.703873 
L 232.261213 98.249329 
L 232.510896 140.274273 
L 232.760579 122.414097 
L 233.010262 118.709512 
L 233.259945 161.762564 
L 233.509628 121.632396 
L 233.759311 111.33433 
L 234.008994 123.004621 
L 234.258677 142.160553 
L 234.50836 77.750911 
L 234.758043 124.521292 
L 235.007726 109.350338 
L 235.257409 110.981715 
L 235.507092 100.424498 
L 235.756775 108.929749 
L 236.006458 134.883083 
L 236.256141 117.69415 
L 236.505824 147.339324 
L 237.005191 118.743499 
L 237.254874 73.298612 
L 237.75424 143.231144 
L 238.003923 172.808343 
L 238.253606 150.330181 
L 238.503289 140.329502 
L 238.752972 149.166126 
L 239.002655 118.628793 
L 239.252338 116.610814 
L 239.502021 144.607618 
L 239.751704 126.535023 
L 240.001387 125.60038 
L 241.000119 85.78884 
L 241.499485 145.873634 
L 241.749168 123.161811 
L 241.998852 115.281072 
L 242.248535 133.026542 
L 242.498218 126.56901 
L 242.747901 128.654963 
L 242.997584 120.141215 
L 243.247267 126.131427 
L 243.49695 160.199161 
L 243.746633 156.702747 
L 244.495682 118.972912 
L 244.745365 128.272609 
L 244.995048 161.401452 
L 245.244731 115.25983 
L 245.494414 145.584744 
L 245.99378 118.879447 
L 246.243463 137.024265 
L 246.493146 141.61676 
L 246.742829 127.813784 
L 246.992512 157.085101 
L 247.242196 152.080513 
L 247.491879 144.446179 
L 247.741562 157.076604 
L 247.991245 161.477922 
L 248.240928 128.255615 
L 248.490611 145.372326 
L 248.740294 123.561159 
L 248.989977 160.143932 
L 249.23966 150.240965 
L 249.489343 152.632802 
L 249.739026 153.350777 
L 249.988709 162.599494 
L 250.238392 177.944631 
L 250.488075 160.577266 
L 250.737758 167.24297 
L 251.237124 159.753081 
L 251.486807 168.853105 
L 251.73649 144.191277 
L 251.986173 174.72861 
L 252.235857 159.65112 
L 252.48554 169.995918 
L 252.735223 174.418478 
L 252.984906 160.696221 
L 253.234589 138.375249 
L 253.484272 175.22567 
L 253.733955 170.64592 
L 253.983638 182.367191 
L 254.233321 171.198209 
L 254.732687 162.675965 
L 254.98237 142.627874 
L 255.232053 157.267781 
L 255.481736 145.312848 
L 255.731419 179.958362 
L 255.981102 180.170781 
L 256.230785 184.788766 
L 256.480468 157.786083 
L 256.730151 166.478262 
L 257.229517 147.050434 
L 257.479201 183.684188 
L 257.728884 175.578285 
L 257.978567 190.8512 
L 258.22825 148.966452 
L 258.477933 176.202797 
L 258.977299 187.376028 
L 259.226982 161.244262 
L 259.476665 175.178938 
L 259.976031 161.779557 
L 260.225714 117.821602 
L 260.475397 166.95408 
L 260.72508 163.555379 
L 260.974763 168.432515 
L 261.224446 165.131526 
L 261.474129 170.705397 
L 261.723812 164.0227 
L 261.973495 118.633042 
L 262.223178 163.423679 
L 262.472862 133.693538 
L 262.972228 173.092985 
L 263.221911 156.1717 
L 263.471594 152.13999 
L 263.721277 134.751383 
L 263.97096 154.064505 
L 264.220643 126.649729 
L 264.470326 143.698465 
L 264.720009 135.452366 
L 264.969692 148.167758 
L 265.718741 144.828533 
L 265.968424 182.855755 
L 266.218107 183.369808 
L 266.46779 162.212892 
L 266.717473 180.060323 
L 266.967156 144.127551 
L 267.216839 143.073954 
L 267.466522 122.006253 
L 267.716206 153.686399 
L 267.965889 154.901435 
L 268.215572 165.64558 
L 268.465255 164.863879 
L 268.714938 160.471057 
L 268.964621 143.89389 
L 269.214304 77.653198 
L 269.463987 165.569109 
L 269.71367 170.637423 
L 269.963353 172.336774 
L 270.213036 145.011214 
L 270.462719 139.390611 
L 270.712402 155.003396 
L 270.962085 158.49981 
L 271.461451 175.004754 
L 271.711134 171.295921 
L 271.960817 162.799168 
L 272.2105 145.669712 
L 272.460183 150.610574 
L 272.709867 144.331473 
L 272.95955 163.861262 
L 273.209233 159.918768 
L 273.458916 160.050468 
L 273.708599 164.116164 
L 273.958282 142.292252 
L 274.207965 159.302753 
L 274.457648 152.373651 
L 274.707331 168.028919 
L 274.957014 169.184478 
L 275.45638 135.800733 
L 275.706063 153.699144 
L 275.955746 153.609928 
L 276.205429 142.028853 
L 276.455112 163.457666 
L 276.704795 153.333784 
L 276.954478 167.017806 
L 277.204161 164.902114 
L 277.453844 146.205007 
L 277.703527 149.25959 
L 277.953211 155.449476 
L 278.202894 165.161265 
L 278.452577 152.318422 
L 278.70226 164.349825 
L 278.951943 150.975935 
L 279.201626 156.299151 
L 279.451309 134.084388 
L 279.700992 144.739317 
L 279.950675 166.860616 
L 280.200358 152.526592 
L 280.450041 165.785776 
L 280.699724 126.989599 
L 280.949407 170.501475 
L 281.19909 119.750365 
L 281.698456 166.962577 
L 281.948139 160.640992 
L 282.197822 147.61122 
L 282.447505 157.68837 
L 282.697188 161.333477 
L 283.196555 123.896781 
L 283.446238 142.538658 
L 283.695921 146.128537 
L 283.945604 143.919381 
L 284.195287 145.801412 
L 284.44497 128.421302 
L 284.694653 142.355978 
L 284.944336 138.706622 
L 285.194019 157.072356 
L 285.443702 141.102707 
L 285.693385 148.490634 
L 285.943068 126.008224 
L 286.192751 150.704039 
L 286.442434 146.944225 
L 286.692117 156.970394 
L 286.9418 162.42531 
L 287.441166 129.785031 
L 287.690849 131.318695 
L 287.940532 58.939098 
L 288.190216 106.839547 
L 288.439899 128.387315 
L 288.689582 131.373924 
L 288.939265 148.766779 
L 289.438631 137.130474 
L 289.688314 122.414097 
L 289.937997 95.075792 
L 290.18768 131.484382 
L 290.437363 138.120346 
L 290.687046 135.796484 
L 291.186412 123.518675 
L 291.436095 122.350371 
L 291.685778 96.112396 
L 291.935461 136.850082 
L 292.185144 136.076877 
L 292.68451 150.17724 
L 292.934193 140.945517 
L 293.183877 125.184039 
L 293.43356 135.915439 
L 293.683243 124.759201 
L 293.932926 131.509872 
L 294.182609 98.1941 
L 294.432292 89.391464 
L 294.681975 115.34055 
L 294.931658 116.929442 
L 295.181341 90.776434 
L 295.431024 101.150971 
L 295.680707 85.950278 
L 295.93039 111.266356 
L 296.180073 124.729462 
L 296.429756 122.375862 
L 296.679439 165.43741 
L 296.929122 143.37134 
L 297.178805 109.146416 
L 297.428488 163.916491 
L 297.678171 137.835705 
L 297.927854 147.853378 
L 298.177537 110.799035 
L 298.427221 100.60293 
L 298.676904 97.182987 
L 299.17627 128.977839 
L 299.425953 128.238622 
L 299.925319 102.183326 
L 300.175002 100.020903 
L 300.424685 138.957277 
L 300.924051 90.236891 
L 301.173734 86.969889 
L 301.6731 115.969309 
L 301.922783 69.06298 
L 302.422149 122.601026 
L 302.671832 88.966626 
L 302.921515 122.630764 
L 303.171198 124.606259 
L 303.420881 129.41967 
L 303.670565 137.313155 
L 303.920248 163.385444 
L 304.169931 111.002957 
L 304.419614 152.343912 
L 304.669297 147.895861 
L 305.168663 127.09156 
L 305.418346 149.153381 
L 305.668029 124.041225 
L 305.917712 87.016621 
L 306.167395 91.315978 
L 306.417078 77.487512 
L 306.666761 153.176594 
L 306.916444 100.513714 
L 307.166127 87.785577 
L 307.41581 101.783979 
L 307.665493 95.092785 
L 307.915176 137.283416 
L 308.164859 154.790977 
L 308.414542 116.173231 
L 308.664226 132.304318 
L 308.913909 70.34599 
L 309.163592 69.296641 
L 309.413275 116.950684 
L 309.662958 122.299391 
L 309.912641 138.392242 
L 310.162324 97.841485 
L 310.412007 106.627129 
L 310.66169 89.518915 
L 310.911373 97.420896 
L 311.161056 131.938958 
L 311.410739 117.248071 
L 311.660422 118.148727 
L 311.910105 142.725587 
L 312.159788 136.442237 
L 312.409471 116.738266 
L 312.659154 55.451181 
L 312.908837 101.554567 
L 313.15852 95.139518 
L 313.408203 123.888284 
L 313.657886 88.486559 
L 313.90757 118.344152 
L 314.157253 118.29742 
L 314.406936 94.315332 
L 314.656619 112.213744 
L 314.906302 120.022261 
L 315.155985 109.732692 
L 315.405668 114.359174 
L 315.655351 102.990518 
L 315.905034 107.56602 
L 316.154717 70.783573 
L 316.654083 156.180196 
L 316.903766 109.261122 
L 317.153449 127.061821 
L 317.403132 116.185977 
L 317.652815 145.894876 
L 317.902498 122.188933 
L 318.152181 139.972639 
L 318.401864 133.45138 
L 318.651547 100.003909 
L 318.901231 109.719947 
L 319.150914 114.890222 
L 319.400597 100.169596 
L 319.65028 108.360466 
L 319.899963 151.596198 
L 320.149646 143.16317 
L 320.399329 150.279201 
L 320.649012 135.490601 
L 320.898695 139.887671 
L 321.148378 135.384392 
L 321.398061 150.300443 
L 321.647744 154.778232 
L 321.897427 147.883116 
L 322.14711 113.568976 
L 322.396793 104.29477 
L 322.646476 134.220336 
L 322.896159 147.708933 
L 323.145842 98.470245 
L 323.395525 142.436697 
L 323.645208 120.846446 
L 323.894891 132.814124 
L 324.394258 113.649696 
L 324.643941 118.182714 
L 324.893624 100.913062 
L 325.143307 111.661455 
L 325.39299 128.540256 
L 325.642673 98.032662 
L 325.892356 137.810215 
L 326.142039 156.24817 
L 326.391722 121.772592 
L 326.641405 104.324508 
L 327.140771 150.262207 
L 327.390454 124.619005 
L 327.640137 122.571287 
L 327.88982 93.780037 
L 328.139503 131.182747 
L 328.389186 124.635998 
L 328.638869 137.827208 
L 328.888552 140.541921 
L 329.138236 130.507255 
L 329.387919 130.171633 
L 329.637602 134.296807 
L 329.887285 132.346802 
L 330.136968 94.723177 
L 330.386651 94.447032 
L 330.636334 128.174896 
L 330.886017 123.272269 
L 331.1357 144.102061 
L 331.385383 146.447165 
L 331.635066 152.79424 
L 331.884749 130.936341 
L 332.384115 145.202391 
L 332.633798 146.753048 
L 332.883481 123.892532 
L 333.133164 131.446146 
L 333.382847 112.290215 
L 333.63253 115.939571 
L 333.882213 153.97104 
L 334.131896 143.562517 
L 334.38158 145.346835 
L 334.631263 148.656321 
L 334.880946 141.718722 
L 335.130629 140.924275 
L 335.380312 137.4576 
L 335.629995 146.25174 
L 335.879678 122.392855 
L 336.129361 149.268087 
L 336.379044 135.979164 
L 336.628727 149.085407 
L 336.87841 171.945923 
L 337.128093 148.601092 
L 337.377776 140.822314 
L 337.627459 150.495868 
L 337.877142 142.704345 
L 338.126825 148.023313 
L 338.376508 167.485127 
L 338.626191 157.930528 
L 338.875874 160.296874 
L 339.125557 136.259557 
L 339.375241 134.063146 
L 339.624924 138.689629 
L 339.874607 176.631883 
L 340.12429 130.553987 
L 340.373973 173.721744 
L 340.623656 132.622947 
L 340.873339 138.978518 
L 341.372705 170.522717 
L 341.622388 170.531213 
L 341.872071 153.321039 
L 342.121754 151.766133 
L 342.371437 117.099378 
L 343.120486 135.643543 
L 343.370169 153.253065 
L 343.619852 149.896847 
L 343.869535 157.3485 
L 344.119218 95.177753 
L 344.368901 142.853038 
L 344.618585 140.979504 
L 344.868268 132.933078 
L 345.117951 151.740643 
L 345.617317 127.648097 
L 345.867 142.793561 
L 346.116683 132.941575 
L 346.366366 146.081805 
L 346.616049 126.365088 
L 346.865732 153.456987 
L 347.115415 148.414163 
L 347.365098 138.906296 
L 347.614781 146.685074 
L 347.864464 137.801718 
L 348.114147 141.667741 
L 348.36383 170.22533 
L 348.863196 154.905683 
L 349.112879 150.262207 
L 349.362562 166.618458 
L 349.612246 148.983446 
L 349.861929 153.614177 
L 350.111612 106.011114 
L 350.361295 83.970535 
L 350.610978 120.884681 
L 350.860661 103.270911 
L 351.110344 67.002518 
L 351.360027 143.668726 
L 351.859393 99.808484 
L 352.109076 110.127791 
L 352.358759 141.570028 
L 352.608442 101.953914 
L 352.858125 133.612818 
L 353.107808 129.266729 
L 353.607174 156.464838 
L 353.856857 135.928184 
L 354.10654 157.085101 
L 354.605906 103.020257 
L 354.85559 147.411547 
L 355.105273 129.670325 
L 355.604639 133.625564 
L 355.854322 137.920673 
L 356.104005 96.898346 
L 356.353688 123.386975 
L 356.603371 110.70557 
L 356.853054 139.887671 
L 357.102737 139.590285 
L 357.35242 134.938312 
L 357.602103 96.099651 
L 357.851786 117.388267 
L 358.101469 127.72032 
L 358.351152 124.980117 
L 358.600835 136.030145 
L 358.850518 123.807565 
L 359.349884 152.233454 
L 359.599567 148.792269 
L 359.849251 130.375555 
L 360.098934 124.236651 
L 360.348617 97.454883 
L 360.847983 127.282737 
L 361.097666 133.744518 
L 361.347349 117.898072 
L 361.597032 117.316045 
L 361.846715 137.780476 
L 362.096398 129.729802 
L 362.346081 128.952349 
L 362.595764 136.272302 
L 362.845447 124.576521 
L 363.09513 92.314347 
L 363.344813 86.158449 
L 363.594496 125.235019 
L 363.844179 134.046153 
L 364.093862 110.357203 
L 364.343545 126.925873 
L 364.593228 111.618971 
L 364.842911 133.113634 
L 365.342278 106.542161 
L 365.591961 133.311184 
L 365.841644 141.247152 
L 366.34101 87.993748 
L 366.840376 133.455628 
L 367.090059 129.746795 
L 367.339742 113.947082 
L 367.589425 146.417426 
L 367.839108 127.435678 
L 368.088791 149.930834 
L 368.588157 87.768584 
L 368.83784 124.436324 
L 369.087523 122.970634 
L 369.337206 139.552049 
L 369.586889 139.059238 
L 369.836572 124.589266 
L 370.086256 133.11151 
L 370.335939 122.180436 
L 370.585622 117.001665 
L 370.835305 105.688237 
L 371.084988 127.975222 
L 371.334671 132.43177 
L 371.584354 130.426536 
L 371.834037 113.530741 
L 372.08372 120.566053 
L 372.333403 134.42001 
L 372.583086 130.915099 
L 372.832769 145.695202 
L 373.082452 144.046832 
L 373.332135 120.680759 
L 373.581818 242.116364 
L 373.581818 242.116364 
" style="fill:none;stroke:#000000;stroke-linecap:square;stroke-width:1.5;"/>
   </g>
   <g id="patch_3">
    <path d="M 54 252 
L 54 34.56 
" style="fill:none;stroke:#000000;stroke-linecap:square;stroke-linejoin:miter;stroke-width:0.8;"/>
   </g>
   <g id="patch_4">
    <path d="M 388.8 252 
L 388.8 34.56 
" style="fill:none;stroke:#000000;stroke-linecap:square;stroke-linejoin:miter;stroke-width:0.8;"/>
   </g>
   <g id="patch_5">
    <path d="M 54 252 
L 388.8 252 
" style="fill:none;stroke:#000000;stroke-linecap:square;stroke-linejoin:miter;stroke-width:0.8;"/>
   </g>
   <g id="patch_6">
    <path d="M 54 34.56 
L 388.8 34.56 
" style="fill:none;stroke:#000000;stroke-linecap:square;stroke-linejoin:miter;stroke-width:0.8;"/>
   </g>
   <g id="text_17">
    <!-- Soma Diária de Energia - Casa 1 -->
    <g transform="translate(124.230938 28.56)scale(0.12 -0.12)">
     <defs>
      <path d="M 53.515625 70.515625 
L 53.515625 60.890625 
Q 47.90625 63.578125 42.921875 64.890625 
Q 37.9375 66.21875 33.296875 66.21875 
Q 25.25 66.21875 20.875 63.09375 
Q 16.5 59.96875 16.5 54.203125 
Q 16.5 49.359375 19.40625 46.890625 
Q 22.3125 44.4375 30.421875 42.921875 
L 36.375 41.703125 
Q 47.40625 39.59375 52.65625 34.296875 
Q 57.90625 29 57.90625 20.125 
Q 57.90625 9.515625 50.796875 4.046875 
Q 43.703125 -1.421875 29.984375 -1.421875 
Q 24.8125 -1.421875 18.96875 -0.25 
Q 13.140625 0.921875 6.890625 3.21875 
L 6.890625 13.375 
Q 12.890625 10.015625 18.65625 8.296875 
Q 24.421875 6.59375 29.984375 6.59375 
Q 38.421875 6.59375 43.015625 9.90625 
Q 47.609375 13.234375 47.609375 19.390625 
Q 47.609375 24.75 44.3125 27.78125 
Q 41.015625 30.8125 33.5 32.328125 
L 27.484375 33.5 
Q 16.453125 35.6875 11.515625 40.375 
Q 6.59375 45.0625 6.59375 53.421875 
Q 6.59375 63.09375 13.40625 68.65625 
Q 20.21875 74.21875 32.171875 74.21875 
Q 37.3125 74.21875 42.625 73.28125 
Q 47.953125 72.359375 53.515625 70.515625 
z
" id="DejaVuSans-83"/>
      <path d="M 30.609375 48.390625 
Q 23.390625 48.390625 19.1875 42.75 
Q 14.984375 37.109375 14.984375 27.296875 
Q 14.984375 17.484375 19.15625 11.84375 
Q 23.34375 6.203125 30.609375 6.203125 
Q 37.796875 6.203125 41.984375 11.859375 
Q 46.1875 17.53125 46.1875 27.296875 
Q 46.1875 37.015625 41.984375 42.703125 
Q 37.796875 48.390625 30.609375 48.390625 
z
M 30.609375 56 
Q 42.328125 56 49.015625 48.375 
Q 55.71875 40.765625 55.71875 27.296875 
Q 55.71875 13.875 49.015625 6.21875 
Q 42.328125 -1.421875 30.609375 -1.421875 
Q 18.84375 -1.421875 12.171875 6.21875 
Q 5.515625 13.875 5.515625 27.296875 
Q 5.515625 40.765625 12.171875 48.375 
Q 18.84375 56 30.609375 56 
z
" id="DejaVuSans-111"/>
      <path d="M 52 44.1875 
Q 55.375 50.25 60.0625 53.125 
Q 64.75 56 71.09375 56 
Q 79.640625 56 84.28125 50.015625 
Q 88.921875 44.046875 88.921875 33.015625 
L 88.921875 0 
L 79.890625 0 
L 79.890625 32.71875 
Q 79.890625 40.578125 77.09375 44.375 
Q 74.3125 48.1875 68.609375 48.1875 
Q 61.625 48.1875 57.5625 43.546875 
Q 53.515625 38.921875 53.515625 30.90625 
L 53.515625 0 
L 44.484375 0 
L 44.484375 32.71875 
Q 44.484375 40.625 41.703125 44.40625 
Q 38.921875 48.1875 33.109375 48.1875 
Q 26.21875 48.1875 22.15625 43.53125 
Q 18.109375 38.875 18.109375 30.90625 
L 18.109375 0 
L 9.078125 0 
L 9.078125 54.6875 
L 18.109375 54.6875 
L 18.109375 46.1875 
Q 21.1875 51.21875 25.484375 53.609375 
Q 29.78125 56 35.6875 56 
Q 41.65625 56 45.828125 52.96875 
Q 50 49.953125 52 44.1875 
z
" id="DejaVuSans-109"/>
      <path d="M 34.28125 27.484375 
Q 23.390625 27.484375 19.1875 25 
Q 14.984375 22.515625 14.984375 16.5 
Q 14.984375 11.71875 18.140625 8.90625 
Q 21.296875 6.109375 26.703125 6.109375 
Q 34.1875 6.109375 38.703125 11.40625 
Q 43.21875 16.703125 43.21875 25.484375 
L 43.21875 27.484375 
z
M 52.203125 31.203125 
L 52.203125 0 
L 43.21875 0 
L 43.21875 8.296875 
Q 40.140625 3.328125 35.546875 0.953125 
Q 30.953125 -1.421875 24.3125 -1.421875 
Q 15.921875 -1.421875 10.953125 3.296875 
Q 6 8.015625 6 15.921875 
Q 6 25.140625 12.171875 29.828125 
Q 18.359375 34.515625 30.609375 34.515625 
L 43.21875 34.515625 
L 43.21875 35.40625 
Q 43.21875 41.609375 39.140625 45 
Q 35.0625 48.390625 27.6875 48.390625 
Q 23 48.390625 18.546875 47.265625 
Q 14.109375 46.140625 10.015625 43.890625 
L 10.015625 52.203125 
Q 14.9375 54.109375 19.578125 55.046875 
Q 24.21875 56 28.609375 56 
Q 40.484375 56 46.34375 49.84375 
Q 52.203125 43.703125 52.203125 31.203125 
z
" id="DejaVuSans-97"/>
      <path id="DejaVuSans-32"/>
      <path d="M 19.671875 64.796875 
L 19.671875 8.109375 
L 31.59375 8.109375 
Q 46.6875 8.109375 53.6875 14.9375 
Q 60.6875 21.78125 60.6875 36.53125 
Q 60.6875 51.171875 53.6875 57.984375 
Q 46.6875 64.796875 31.59375 64.796875 
z
M 9.8125 72.90625 
L 30.078125 72.90625 
Q 51.265625 72.90625 61.171875 64.09375 
Q 71.09375 55.28125 71.09375 36.53125 
Q 71.09375 17.671875 61.125 8.828125 
Q 51.171875 0 30.078125 0 
L 9.8125 0 
z
" id="DejaVuSans-68"/>
      <path d="M 9.421875 54.6875 
L 18.40625 54.6875 
L 18.40625 0 
L 9.421875 0 
z
M 9.421875 75.984375 
L 18.40625 75.984375 
L 18.40625 64.59375 
L 9.421875 64.59375 
z
" id="DejaVuSans-105"/>
      <path d="M 34.28125 27.484375 
Q 23.390625 27.484375 19.1875 25 
Q 14.984375 22.515625 14.984375 16.5 
Q 14.984375 11.71875 18.140625 8.90625 
Q 21.296875 6.109375 26.703125 6.109375 
Q 34.1875 6.109375 38.703125 11.40625 
Q 43.21875 16.703125 43.21875 25.484375 
L 43.21875 27.484375 
z
M 52.203125 31.203125 
L 52.203125 0 
L 43.21875 0 
L 43.21875 8.296875 
Q 40.140625 3.328125 35.546875 0.953125 
Q 30.953125 -1.421875 24.3125 -1.421875 
Q 15.921875 -1.421875 10.953125 3.296875 
Q 6 8.015625 6 15.921875 
Q 6 25.140625 12.171875 29.828125 
Q 18.359375 34.515625 30.609375 34.515625 
L 43.21875 34.515625 
L 43.21875 35.40625 
Q 43.21875 41.609375 39.140625 45 
Q 35.0625 48.390625 27.6875 48.390625 
Q 23 48.390625 18.546875 47.265625 
Q 14.109375 46.140625 10.015625 43.890625 
L 10.015625 52.203125 
Q 14.9375 54.109375 19.578125 55.046875 
Q 24.21875 56 28.609375 56 
Q 40.484375 56 46.34375 49.84375 
Q 52.203125 43.703125 52.203125 31.203125 
z
M 35.796875 79.984375 
L 45.515625 79.984375 
L 29.59375 61.625 
L 22.125 61.625 
z
" id="DejaVuSans-225"/>
      <path d="M 41.109375 46.296875 
Q 39.59375 47.171875 37.8125 47.578125 
Q 36.03125 48 33.890625 48 
Q 26.265625 48 22.1875 43.046875 
Q 18.109375 38.09375 18.109375 28.8125 
L 18.109375 0 
L 9.078125 0 
L 9.078125 54.6875 
L 18.109375 54.6875 
L 18.109375 46.1875 
Q 20.953125 51.171875 25.484375 53.578125 
Q 30.03125 56 36.53125 56 
Q 37.453125 56 38.578125 55.875 
Q 39.703125 55.765625 41.0625 55.515625 
z
" id="DejaVuSans-114"/>
      <path d="M 45.40625 46.390625 
L 45.40625 75.984375 
L 54.390625 75.984375 
L 54.390625 0 
L 45.40625 0 
L 45.40625 8.203125 
Q 42.578125 3.328125 38.25 0.953125 
Q 33.9375 -1.421875 27.875 -1.421875 
Q 17.96875 -1.421875 11.734375 6.484375 
Q 5.515625 14.40625 5.515625 27.296875 
Q 5.515625 40.1875 11.734375 48.09375 
Q 17.96875 56 27.875 56 
Q 33.9375 56 38.25 53.625 
Q 42.578125 51.265625 45.40625 46.390625 
z
M 14.796875 27.296875 
Q 14.796875 17.390625 18.875 11.75 
Q 22.953125 6.109375 30.078125 6.109375 
Q 37.203125 6.109375 41.296875 11.75 
Q 45.40625 17.390625 45.40625 27.296875 
Q 45.40625 37.203125 41.296875 42.84375 
Q 37.203125 48.484375 30.078125 48.484375 
Q 22.953125 48.484375 18.875 42.84375 
Q 14.796875 37.203125 14.796875 27.296875 
z
" id="DejaVuSans-100"/>
      <path d="M 56.203125 29.59375 
L 56.203125 25.203125 
L 14.890625 25.203125 
Q 15.484375 15.921875 20.484375 11.0625 
Q 25.484375 6.203125 34.421875 6.203125 
Q 39.59375 6.203125 44.453125 7.46875 
Q 49.3125 8.734375 54.109375 11.28125 
L 54.109375 2.78125 
Q 49.265625 0.734375 44.1875 -0.34375 
Q 39.109375 -1.421875 33.890625 -1.421875 
Q 20.796875 -1.421875 13.15625 6.1875 
Q 5.515625 13.8125 5.515625 26.8125 
Q 5.515625 40.234375 12.765625 48.109375 
Q 20.015625 56 32.328125 56 
Q 43.359375 56 49.78125 48.890625 
Q 56.203125 41.796875 56.203125 29.59375 
z
M 47.21875 32.234375 
Q 47.125 39.59375 43.09375 43.984375 
Q 39.0625 48.390625 32.421875 48.390625 
Q 24.90625 48.390625 20.390625 44.140625 
Q 15.875 39.890625 15.1875 32.171875 
z
" id="DejaVuSans-101"/>
      <path d="M 9.8125 72.90625 
L 55.90625 72.90625 
L 55.90625 64.59375 
L 19.671875 64.59375 
L 19.671875 43.015625 
L 54.390625 43.015625 
L 54.390625 34.71875 
L 19.671875 34.71875 
L 19.671875 8.296875 
L 56.78125 8.296875 
L 56.78125 0 
L 9.8125 0 
z
" id="DejaVuSans-69"/>
      <path d="M 54.890625 33.015625 
L 54.890625 0 
L 45.90625 0 
L 45.90625 32.71875 
Q 45.90625 40.484375 42.875 44.328125 
Q 39.84375 48.1875 33.796875 48.1875 
Q 26.515625 48.1875 22.3125 43.546875 
Q 18.109375 38.921875 18.109375 30.90625 
L 18.109375 0 
L 9.078125 0 
L 9.078125 54.6875 
L 18.109375 54.6875 
L 18.109375 46.1875 
Q 21.34375 51.125 25.703125 53.5625 
Q 30.078125 56 35.796875 56 
Q 45.21875 56 50.046875 50.171875 
Q 54.890625 44.34375 54.890625 33.015625 
z
" id="DejaVuSans-110"/>
      <path d="M 45.40625 27.984375 
Q 45.40625 37.75 41.375 43.109375 
Q 37.359375 48.484375 30.078125 48.484375 
Q 22.859375 48.484375 18.828125 43.109375 
Q 14.796875 37.75 14.796875 27.984375 
Q 14.796875 18.265625 18.828125 12.890625 
Q 22.859375 7.515625 30.078125 7.515625 
Q 37.359375 7.515625 41.375 12.890625 
Q 45.40625 18.265625 45.40625 27.984375 
z
M 54.390625 6.78125 
Q 54.390625 -7.171875 48.1875 -13.984375 
Q 42 -20.796875 29.203125 -20.796875 
Q 24.46875 -20.796875 20.265625 -20.09375 
Q 16.0625 -19.390625 12.109375 -17.921875 
L 12.109375 -9.1875 
Q 16.0625 -11.328125 19.921875 -12.34375 
Q 23.78125 -13.375 27.78125 -13.375 
Q 36.625 -13.375 41.015625 -8.765625 
Q 45.40625 -4.15625 45.40625 5.171875 
L 45.40625 9.625 
Q 42.625 4.78125 38.28125 2.390625 
Q 33.9375 0 27.875 0 
Q 17.828125 0 11.671875 7.65625 
Q 5.515625 15.328125 5.515625 27.984375 
Q 5.515625 40.671875 11.671875 48.328125 
Q 17.828125 56 27.875 56 
Q 33.9375 56 38.28125 53.609375 
Q 42.625 51.21875 45.40625 46.390625 
L 45.40625 54.6875 
L 54.390625 54.6875 
z
" id="DejaVuSans-103"/>
      <path d="M 64.40625 67.28125 
L 64.40625 56.890625 
Q 59.421875 61.53125 53.78125 63.8125 
Q 48.140625 66.109375 41.796875 66.109375 
Q 29.296875 66.109375 22.65625 58.46875 
Q 16.015625 50.828125 16.015625 36.375 
Q 16.015625 21.96875 22.65625 14.328125 
Q 29.296875 6.6875 41.796875 6.6875 
Q 48.140625 6.6875 53.78125 8.984375 
Q 59.421875 11.28125 64.40625 15.921875 
L 64.40625 5.609375 
Q 59.234375 2.09375 53.4375 0.328125 
Q 47.65625 -1.421875 41.21875 -1.421875 
Q 24.65625 -1.421875 15.125 8.703125 
Q 5.609375 18.84375 5.609375 36.375 
Q 5.609375 53.953125 15.125 64.078125 
Q 24.65625 74.21875 41.21875 74.21875 
Q 47.75 74.21875 53.53125 72.484375 
Q 59.328125 70.75 64.40625 67.28125 
z
" id="DejaVuSans-67"/>
      <path d="M 44.28125 53.078125 
L 44.28125 44.578125 
Q 40.484375 46.53125 36.375 47.5 
Q 32.28125 48.484375 27.875 48.484375 
Q 21.1875 48.484375 17.84375 46.4375 
Q 14.5 44.390625 14.5 40.28125 
Q 14.5 37.15625 16.890625 35.375 
Q 19.28125 33.59375 26.515625 31.984375 
L 29.59375 31.296875 
Q 39.15625 29.25 43.1875 25.515625 
Q 47.21875 21.78125 47.21875 15.09375 
Q 47.21875 7.46875 41.1875 3.015625 
Q 35.15625 -1.421875 24.609375 -1.421875 
Q 20.21875 -1.421875 15.453125 -0.5625 
Q 10.6875 0.296875 5.421875 2 
L 5.421875 11.28125 
Q 10.40625 8.6875 15.234375 7.390625 
Q 20.0625 6.109375 24.8125 6.109375 
Q 31.15625 6.109375 34.5625 8.28125 
Q 37.984375 10.453125 37.984375 14.40625 
Q 37.984375 18.0625 35.515625 20.015625 
Q 33.0625 21.96875 24.703125 23.78125 
L 21.578125 24.515625 
Q 13.234375 26.265625 9.515625 29.90625 
Q 5.8125 33.546875 5.8125 39.890625 
Q 5.8125 47.609375 11.28125 51.796875 
Q 16.75 56 26.8125 56 
Q 31.78125 56 36.171875 55.265625 
Q 40.578125 54.546875 44.28125 53.078125 
z
" id="DejaVuSans-115"/>
     </defs>
     <use xlink:href="#DejaVuSans-83"/>
     <use x="63.476562" xlink:href="#DejaVuSans-111"/>
     <use x="124.658203" xlink:href="#DejaVuSans-109"/>
     <use x="222.070312" xlink:href="#DejaVuSans-97"/>
     <use x="283.349609" xlink:href="#DejaVuSans-32"/>
     <use x="315.136719" xlink:href="#DejaVuSans-68"/>
     <use x="392.138672" xlink:href="#DejaVuSans-105"/>
     <use x="419.921875" xlink:href="#DejaVuSans-225"/>
     <use x="481.201172" xlink:href="#DejaVuSans-114"/>
     <use x="522.314453" xlink:href="#DejaVuSans-105"/>
     <use x="550.097656" xlink:href="#DejaVuSans-97"/>
     <use x="611.376953" xlink:href="#DejaVuSans-32"/>
     <use x="643.164062" xlink:href="#DejaVuSans-100"/>
     <use x="706.640625" xlink:href="#DejaVuSans-101"/>
     <use x="768.164062" xlink:href="#DejaVuSans-32"/>
     <use x="799.951172" xlink:href="#DejaVuSans-69"/>
     <use x="863.134766" xlink:href="#DejaVuSans-110"/>
     <use x="926.513672" xlink:href="#DejaVuSans-101"/>
     <use x="988.037109" xlink:href="#DejaVuSans-114"/>
     <use x="1027.400391" xlink:href="#DejaVuSans-103"/>
     <use x="1090.876953" xlink:href="#DejaVuSans-105"/>
     <use x="1118.660156" xlink:href="#DejaVuSans-97"/>
     <use x="1179.939453" xlink:href="#DejaVuSans-32"/>
     <use x="1211.726562" xlink:href="#DejaVuSans-45"/>
     <use x="1247.810547" xlink:href="#DejaVuSans-32"/>
     <use x="1279.597656" xlink:href="#DejaVuSans-67"/>
     <use x="1349.421875" xlink:href="#DejaVuSans-97"/>
     <use x="1410.701172" xlink:href="#DejaVuSans-115"/>
     <use x="1462.800781" xlink:href="#DejaVuSans-97"/>
     <use x="1524.080078" xlink:href="#DejaVuSans-32"/>
     <use x="1555.867188" xlink:href="#DejaVuSans-49"/>
    </g>
   </g>
  </g>
 </g>
 <defs>
  <clipPath id="p852fb2a8b9">
   <rect height="217.44" width="334.8" x="54" y="34.56"/>
  </clipPath>
 </defs>
</svg>
