<?xml version="1.0" encoding="utf-8" standalone="no"?>
<!DOCTYPE svg PUBLIC "-//W3C//DTD SVG 1.1//EN"
  "http://www.w3.org/Graphics/SVG/1.1/DTD/svg11.dtd">
<!-- Created with matplotlib (https://matplotlib.org/) -->
<svg height="356.480877pt" version="1.1" viewBox="0 0 608.98125 356.480877" width="608.98125pt" xmlns="http://www.w3.org/2000/svg" xmlns:xlink="http://www.w3.org/1999/xlink">
 <metadata>
  <rdf:RDF xmlns:cc="http://creativecommons.org/ns#" xmlns:dc="http://purl.org/dc/elements/1.1/" xmlns:rdf="http://www.w3.org/1999/02/22-rdf-syntax-ns#">
   <cc:Work>
    <dc:type rdf:resource="http://purl.org/dc/dcmitype/StillImage"/>
    <dc:date>2021-08-12T19:59:16.470248</dc:date>
    <dc:format>image/svg+xml</dc:format>
    <dc:creator>
     <cc:Agent>
      <dc:title>Matplotlib v3.3.4, https://matplotlib.org/</dc:title>
     </cc:Agent>
    </dc:creator>
   </cc:Work>
  </rdf:RDF>
 </metadata>
 <defs>
  <style type="text/css">*{stroke-linecap:butt;stroke-linejoin:round;}</style>
 </defs>
 <g id="figure_1">
  <g id="patch_1">
   <path d="M 0 356.480877 
L 608.98125 356.480877 
L 608.98125 0 
L 0 0 
z
" style="fill:#ffffff;"/>
  </g>
  <g id="axes_1">
   <g id="patch_2">
    <path d="M 43.78125 267.118125 
L 601.78125 267.118125 
L 601.78125 22.318125 
L 43.78125 22.318125 
z
" style="fill:#ffffff;"/>
   </g>
   <g id="matplotlib.axis_1">
    <g id="xtick_1">
     <g id="line2d_1">
      <defs>
       <path d="M 0 0 
L 0 3.5 
" id="meb9cd26d54" style="stroke:#000000;stroke-width:0.8;"/>
      </defs>
      <g>
       <use style="stroke:#000000;stroke-width:0.8;" x="55.64709" xlink:href="#meb9cd26d54" y="267.118125"/>
      </g>
     </g>
    </g>
    <g id="xtick_2">
     <g id="line2d_2">
      <g>
       <use style="stroke:#000000;stroke-width:0.8;" x="119.1101" xlink:href="#meb9cd26d54" y="267.118125"/>
      </g>
     </g>
     <g id="text_1">
      <!-- 2020-03-30 15:00:00 -->
      <g transform="translate(26.092945 333.80169)rotate(-30)scale(0.1 -0.1)">
       <defs>
        <path d="M 19.1875 8.296875 
L 53.609375 8.296875 
L 53.609375 0 
L 7.328125 0 
L 7.328125 8.296875 
Q 12.9375 14.109375 22.625 23.890625 
Q 32.328125 33.6875 34.8125 36.53125 
Q 39.546875 41.84375 41.421875 45.53125 
Q 43.3125 49.21875 43.3125 52.78125 
Q 43.3125 58.59375 39.234375 62.25 
Q 35.15625 65.921875 28.609375 65.921875 
Q 23.96875 65.921875 18.8125 64.3125 
Q 13.671875 62.703125 7.8125 59.421875 
L 7.8125 69.390625 
Q 13.765625 71.78125 18.9375 73 
Q 24.125 74.21875 28.421875 74.21875 
Q 39.75 74.21875 46.484375 68.546875 
Q 53.21875 62.890625 53.21875 53.421875 
Q 53.21875 48.921875 51.53125 44.890625 
Q 49.859375 40.875 45.40625 35.40625 
Q 44.1875 33.984375 37.640625 27.21875 
Q 31.109375 20.453125 19.1875 8.296875 
z
" id="DejaVuSans-50"/>
        <path d="M 31.78125 66.40625 
Q 24.171875 66.40625 20.328125 58.90625 
Q 16.5 51.421875 16.5 36.375 
Q 16.5 21.390625 20.328125 13.890625 
Q 24.171875 6.390625 31.78125 6.390625 
Q 39.453125 6.390625 43.28125 13.890625 
Q 47.125 21.390625 47.125 36.375 
Q 47.125 51.421875 43.28125 58.90625 
Q 39.453125 66.40625 31.78125 66.40625 
z
M 31.78125 74.21875 
Q 44.046875 74.21875 50.515625 64.515625 
Q 56.984375 54.828125 56.984375 36.375 
Q 56.984375 17.96875 50.515625 8.265625 
Q 44.046875 -1.421875 31.78125 -1.421875 
Q 19.53125 -1.421875 13.0625 8.265625 
Q 6.59375 17.96875 6.59375 36.375 
Q 6.59375 54.828125 13.0625 64.515625 
Q 19.53125 74.21875 31.78125 74.21875 
z
" id="DejaVuSans-48"/>
        <path d="M 4.890625 31.390625 
L 31.203125 31.390625 
L 31.203125 23.390625 
L 4.890625 23.390625 
z
" id="DejaVuSans-45"/>
        <path d="M 40.578125 39.3125 
Q 47.65625 37.796875 51.625 33 
Q 55.609375 28.21875 55.609375 21.1875 
Q 55.609375 10.40625 48.1875 4.484375 
Q 40.765625 -1.421875 27.09375 -1.421875 
Q 22.515625 -1.421875 17.65625 -0.515625 
Q 12.796875 0.390625 7.625 2.203125 
L 7.625 11.71875 
Q 11.71875 9.328125 16.59375 8.109375 
Q 21.484375 6.890625 26.8125 6.890625 
Q 36.078125 6.890625 40.9375 10.546875 
Q 45.796875 14.203125 45.796875 21.1875 
Q 45.796875 27.640625 41.28125 31.265625 
Q 36.765625 34.90625 28.71875 34.90625 
L 20.21875 34.90625 
L 20.21875 43.015625 
L 29.109375 43.015625 
Q 36.375 43.015625 40.234375 45.921875 
Q 44.09375 48.828125 44.09375 54.296875 
Q 44.09375 59.90625 40.109375 62.90625 
Q 36.140625 65.921875 28.71875 65.921875 
Q 24.65625 65.921875 20.015625 65.03125 
Q 15.375 64.15625 9.8125 62.3125 
L 9.8125 71.09375 
Q 15.4375 72.65625 20.34375 73.4375 
Q 25.25 74.21875 29.59375 74.21875 
Q 40.828125 74.21875 47.359375 69.109375 
Q 53.90625 64.015625 53.90625 55.328125 
Q 53.90625 49.265625 50.4375 45.09375 
Q 46.96875 40.921875 40.578125 39.3125 
z
" id="DejaVuSans-51"/>
        <path id="DejaVuSans-32"/>
        <path d="M 12.40625 8.296875 
L 28.515625 8.296875 
L 28.515625 63.921875 
L 10.984375 60.40625 
L 10.984375 69.390625 
L 28.421875 72.90625 
L 38.28125 72.90625 
L 38.28125 8.296875 
L 54.390625 8.296875 
L 54.390625 0 
L 12.40625 0 
z
" id="DejaVuSans-49"/>
        <path d="M 10.796875 72.90625 
L 49.515625 72.90625 
L 49.515625 64.59375 
L 19.828125 64.59375 
L 19.828125 46.734375 
Q 21.96875 47.46875 24.109375 47.828125 
Q 26.265625 48.1875 28.421875 48.1875 
Q 40.625 48.1875 47.75 41.5 
Q 54.890625 34.8125 54.890625 23.390625 
Q 54.890625 11.625 47.5625 5.09375 
Q 40.234375 -1.421875 26.90625 -1.421875 
Q 22.3125 -1.421875 17.546875 -0.640625 
Q 12.796875 0.140625 7.71875 1.703125 
L 7.71875 11.625 
Q 12.109375 9.234375 16.796875 8.0625 
Q 21.484375 6.890625 26.703125 6.890625 
Q 35.15625 6.890625 40.078125 11.328125 
Q 45.015625 15.765625 45.015625 23.390625 
Q 45.015625 31 40.078125 35.4375 
Q 35.15625 39.890625 26.703125 39.890625 
Q 22.75 39.890625 18.8125 39.015625 
Q 14.890625 38.140625 10.796875 36.28125 
z
" id="DejaVuSans-53"/>
        <path d="M 11.71875 12.40625 
L 22.015625 12.40625 
L 22.015625 0 
L 11.71875 0 
z
M 11.71875 51.703125 
L 22.015625 51.703125 
L 22.015625 39.3125 
L 11.71875 39.3125 
z
" id="DejaVuSans-58"/>
       </defs>
       <use xlink:href="#DejaVuSans-50"/>
       <use x="63.623047" xlink:href="#DejaVuSans-48"/>
       <use x="127.246094" xlink:href="#DejaVuSans-50"/>
       <use x="190.869141" xlink:href="#DejaVuSans-48"/>
       <use x="254.492188" xlink:href="#DejaVuSans-45"/>
       <use x="290.576172" xlink:href="#DejaVuSans-48"/>
       <use x="354.199219" xlink:href="#DejaVuSans-51"/>
       <use x="417.822266" xlink:href="#DejaVuSans-45"/>
       <use x="453.90625" xlink:href="#DejaVuSans-51"/>
       <use x="517.529297" xlink:href="#DejaVuSans-48"/>
       <use x="581.152344" xlink:href="#DejaVuSans-32"/>
       <use x="612.939453" xlink:href="#DejaVuSans-49"/>
       <use x="676.5625" xlink:href="#DejaVuSans-53"/>
       <use x="740.185547" xlink:href="#DejaVuSans-58"/>
       <use x="773.876953" xlink:href="#DejaVuSans-48"/>
       <use x="837.5" xlink:href="#DejaVuSans-48"/>
       <use x="901.123047" xlink:href="#DejaVuSans-58"/>
       <use x="934.814453" xlink:href="#DejaVuSans-48"/>
       <use x="998.4375" xlink:href="#DejaVuSans-48"/>
      </g>
     </g>
    </g>
    <g id="xtick_3">
     <g id="line2d_3">
      <g>
       <use style="stroke:#000000;stroke-width:0.8;" x="182.57311" xlink:href="#meb9cd26d54" y="267.118125"/>
      </g>
     </g>
     <g id="text_2">
      <!-- 2020-04-05 18:00:00 -->
      <g transform="translate(89.555956 333.80169)rotate(-30)scale(0.1 -0.1)">
       <defs>
        <path d="M 37.796875 64.3125 
L 12.890625 25.390625 
L 37.796875 25.390625 
z
M 35.203125 72.90625 
L 47.609375 72.90625 
L 47.609375 25.390625 
L 58.015625 25.390625 
L 58.015625 17.1875 
L 47.609375 17.1875 
L 47.609375 0 
L 37.796875 0 
L 37.796875 17.1875 
L 4.890625 17.1875 
L 4.890625 26.703125 
z
" id="DejaVuSans-52"/>
        <path d="M 31.78125 34.625 
Q 24.75 34.625 20.71875 30.859375 
Q 16.703125 27.09375 16.703125 20.515625 
Q 16.703125 13.921875 20.71875 10.15625 
Q 24.75 6.390625 31.78125 6.390625 
Q 38.8125 6.390625 42.859375 10.171875 
Q 46.921875 13.96875 46.921875 20.515625 
Q 46.921875 27.09375 42.890625 30.859375 
Q 38.875 34.625 31.78125 34.625 
z
M 21.921875 38.8125 
Q 15.578125 40.375 12.03125 44.71875 
Q 8.5 49.078125 8.5 55.328125 
Q 8.5 64.0625 14.71875 69.140625 
Q 20.953125 74.21875 31.78125 74.21875 
Q 42.671875 74.21875 48.875 69.140625 
Q 55.078125 64.0625 55.078125 55.328125 
Q 55.078125 49.078125 51.53125 44.71875 
Q 48 40.375 41.703125 38.8125 
Q 48.828125 37.15625 52.796875 32.3125 
Q 56.78125 27.484375 56.78125 20.515625 
Q 56.78125 9.90625 50.3125 4.234375 
Q 43.84375 -1.421875 31.78125 -1.421875 
Q 19.734375 -1.421875 13.25 4.234375 
Q 6.78125 9.90625 6.78125 20.515625 
Q 6.78125 27.484375 10.78125 32.3125 
Q 14.796875 37.15625 21.921875 38.8125 
z
M 18.3125 54.390625 
Q 18.3125 48.734375 21.84375 45.5625 
Q 25.390625 42.390625 31.78125 42.390625 
Q 38.140625 42.390625 41.71875 45.5625 
Q 45.3125 48.734375 45.3125 54.390625 
Q 45.3125 60.0625 41.71875 63.234375 
Q 38.140625 66.40625 31.78125 66.40625 
Q 25.390625 66.40625 21.84375 63.234375 
Q 18.3125 60.0625 18.3125 54.390625 
z
" id="DejaVuSans-56"/>
       </defs>
       <use xlink:href="#DejaVuSans-50"/>
       <use x="63.623047" xlink:href="#DejaVuSans-48"/>
       <use x="127.246094" xlink:href="#DejaVuSans-50"/>
       <use x="190.869141" xlink:href="#DejaVuSans-48"/>
       <use x="254.492188" xlink:href="#DejaVuSans-45"/>
       <use x="290.576172" xlink:href="#DejaVuSans-48"/>
       <use x="354.199219" xlink:href="#DejaVuSans-52"/>
       <use x="417.822266" xlink:href="#DejaVuSans-45"/>
       <use x="453.90625" xlink:href="#DejaVuSans-48"/>
       <use x="517.529297" xlink:href="#DejaVuSans-53"/>
       <use x="581.152344" xlink:href="#DejaVuSans-32"/>
       <use x="612.939453" xlink:href="#DejaVuSans-49"/>
       <use x="676.5625" xlink:href="#DejaVuSans-56"/>
       <use x="740.185547" xlink:href="#DejaVuSans-58"/>
       <use x="773.876953" xlink:href="#DejaVuSans-48"/>
       <use x="837.5" xlink:href="#DejaVuSans-48"/>
       <use x="901.123047" xlink:href="#DejaVuSans-58"/>
       <use x="934.814453" xlink:href="#DejaVuSans-48"/>
       <use x="998.4375" xlink:href="#DejaVuSans-48"/>
      </g>
     </g>
    </g>
    <g id="xtick_4">
     <g id="line2d_4">
      <g>
       <use style="stroke:#000000;stroke-width:0.8;" x="246.03612" xlink:href="#meb9cd26d54" y="267.118125"/>
      </g>
     </g>
     <g id="text_3">
      <!-- 2020-04-11 21:00:00 -->
      <g transform="translate(153.018966 333.80169)rotate(-30)scale(0.1 -0.1)">
       <use xlink:href="#DejaVuSans-50"/>
       <use x="63.623047" xlink:href="#DejaVuSans-48"/>
       <use x="127.246094" xlink:href="#DejaVuSans-50"/>
       <use x="190.869141" xlink:href="#DejaVuSans-48"/>
       <use x="254.492188" xlink:href="#DejaVuSans-45"/>
       <use x="290.576172" xlink:href="#DejaVuSans-48"/>
       <use x="354.199219" xlink:href="#DejaVuSans-52"/>
       <use x="417.822266" xlink:href="#DejaVuSans-45"/>
       <use x="453.90625" xlink:href="#DejaVuSans-49"/>
       <use x="517.529297" xlink:href="#DejaVuSans-49"/>
       <use x="581.152344" xlink:href="#DejaVuSans-32"/>
       <use x="612.939453" xlink:href="#DejaVuSans-50"/>
       <use x="676.5625" xlink:href="#DejaVuSans-49"/>
       <use x="740.185547" xlink:href="#DejaVuSans-58"/>
       <use x="773.876953" xlink:href="#DejaVuSans-48"/>
       <use x="837.5" xlink:href="#DejaVuSans-48"/>
       <use x="901.123047" xlink:href="#DejaVuSans-58"/>
       <use x="934.814453" xlink:href="#DejaVuSans-48"/>
       <use x="998.4375" xlink:href="#DejaVuSans-48"/>
      </g>
     </g>
    </g>
    <g id="xtick_5">
     <g id="line2d_5">
      <g>
       <use style="stroke:#000000;stroke-width:0.8;" x="309.49913" xlink:href="#meb9cd26d54" y="267.118125"/>
      </g>
     </g>
     <g id="text_4">
      <!-- 2020-04-18 00:00:00 -->
      <g transform="translate(216.481976 333.80169)rotate(-30)scale(0.1 -0.1)">
       <use xlink:href="#DejaVuSans-50"/>
       <use x="63.623047" xlink:href="#DejaVuSans-48"/>
       <use x="127.246094" xlink:href="#DejaVuSans-50"/>
       <use x="190.869141" xlink:href="#DejaVuSans-48"/>
       <use x="254.492188" xlink:href="#DejaVuSans-45"/>
       <use x="290.576172" xlink:href="#DejaVuSans-48"/>
       <use x="354.199219" xlink:href="#DejaVuSans-52"/>
       <use x="417.822266" xlink:href="#DejaVuSans-45"/>
       <use x="453.90625" xlink:href="#DejaVuSans-49"/>
       <use x="517.529297" xlink:href="#DejaVuSans-56"/>
       <use x="581.152344" xlink:href="#DejaVuSans-32"/>
       <use x="612.939453" xlink:href="#DejaVuSans-48"/>
       <use x="676.5625" xlink:href="#DejaVuSans-48"/>
       <use x="740.185547" xlink:href="#DejaVuSans-58"/>
       <use x="773.876953" xlink:href="#DejaVuSans-48"/>
       <use x="837.5" xlink:href="#DejaVuSans-48"/>
       <use x="901.123047" xlink:href="#DejaVuSans-58"/>
       <use x="934.814453" xlink:href="#DejaVuSans-48"/>
       <use x="998.4375" xlink:href="#DejaVuSans-48"/>
      </g>
     </g>
    </g>
    <g id="xtick_6">
     <g id="line2d_6">
      <g>
       <use style="stroke:#000000;stroke-width:0.8;" x="372.962141" xlink:href="#meb9cd26d54" y="267.118125"/>
      </g>
     </g>
     <g id="text_5">
      <!-- 2020-04-24 03:00:00 -->
      <g transform="translate(279.944986 333.80169)rotate(-30)scale(0.1 -0.1)">
       <use xlink:href="#DejaVuSans-50"/>
       <use x="63.623047" xlink:href="#DejaVuSans-48"/>
       <use x="127.246094" xlink:href="#DejaVuSans-50"/>
       <use x="190.869141" xlink:href="#DejaVuSans-48"/>
       <use x="254.492188" xlink:href="#DejaVuSans-45"/>
       <use x="290.576172" xlink:href="#DejaVuSans-48"/>
       <use x="354.199219" xlink:href="#DejaVuSans-52"/>
       <use x="417.822266" xlink:href="#DejaVuSans-45"/>
       <use x="453.90625" xlink:href="#DejaVuSans-50"/>
       <use x="517.529297" xlink:href="#DejaVuSans-52"/>
       <use x="581.152344" xlink:href="#DejaVuSans-32"/>
       <use x="612.939453" xlink:href="#DejaVuSans-48"/>
       <use x="676.5625" xlink:href="#DejaVuSans-51"/>
       <use x="740.185547" xlink:href="#DejaVuSans-58"/>
       <use x="773.876953" xlink:href="#DejaVuSans-48"/>
       <use x="837.5" xlink:href="#DejaVuSans-48"/>
       <use x="901.123047" xlink:href="#DejaVuSans-58"/>
       <use x="934.814453" xlink:href="#DejaVuSans-48"/>
       <use x="998.4375" xlink:href="#DejaVuSans-48"/>
      </g>
     </g>
    </g>
    <g id="xtick_7">
     <g id="line2d_7">
      <g>
       <use style="stroke:#000000;stroke-width:0.8;" x="436.425151" xlink:href="#meb9cd26d54" y="267.118125"/>
      </g>
     </g>
     <g id="text_6">
      <!-- 2020-04-30 06:00:00 -->
      <g transform="translate(343.407996 333.80169)rotate(-30)scale(0.1 -0.1)">
       <defs>
        <path d="M 33.015625 40.375 
Q 26.375 40.375 22.484375 35.828125 
Q 18.609375 31.296875 18.609375 23.390625 
Q 18.609375 15.53125 22.484375 10.953125 
Q 26.375 6.390625 33.015625 6.390625 
Q 39.65625 6.390625 43.53125 10.953125 
Q 47.40625 15.53125 47.40625 23.390625 
Q 47.40625 31.296875 43.53125 35.828125 
Q 39.65625 40.375 33.015625 40.375 
z
M 52.59375 71.296875 
L 52.59375 62.3125 
Q 48.875 64.0625 45.09375 64.984375 
Q 41.3125 65.921875 37.59375 65.921875 
Q 27.828125 65.921875 22.671875 59.328125 
Q 17.53125 52.734375 16.796875 39.40625 
Q 19.671875 43.65625 24.015625 45.921875 
Q 28.375 48.1875 33.59375 48.1875 
Q 44.578125 48.1875 50.953125 41.515625 
Q 57.328125 34.859375 57.328125 23.390625 
Q 57.328125 12.15625 50.6875 5.359375 
Q 44.046875 -1.421875 33.015625 -1.421875 
Q 20.359375 -1.421875 13.671875 8.265625 
Q 6.984375 17.96875 6.984375 36.375 
Q 6.984375 53.65625 15.1875 63.9375 
Q 23.390625 74.21875 37.203125 74.21875 
Q 40.921875 74.21875 44.703125 73.484375 
Q 48.484375 72.75 52.59375 71.296875 
z
" id="DejaVuSans-54"/>
       </defs>
       <use xlink:href="#DejaVuSans-50"/>
       <use x="63.623047" xlink:href="#DejaVuSans-48"/>
       <use x="127.246094" xlink:href="#DejaVuSans-50"/>
       <use x="190.869141" xlink:href="#DejaVuSans-48"/>
       <use x="254.492188" xlink:href="#DejaVuSans-45"/>
       <use x="290.576172" xlink:href="#DejaVuSans-48"/>
       <use x="354.199219" xlink:href="#DejaVuSans-52"/>
       <use x="417.822266" xlink:href="#DejaVuSans-45"/>
       <use x="453.90625" xlink:href="#DejaVuSans-51"/>
       <use x="517.529297" xlink:href="#DejaVuSans-48"/>
       <use x="581.152344" xlink:href="#DejaVuSans-32"/>
       <use x="612.939453" xlink:href="#DejaVuSans-48"/>
       <use x="676.5625" xlink:href="#DejaVuSans-54"/>
       <use x="740.185547" xlink:href="#DejaVuSans-58"/>
       <use x="773.876953" xlink:href="#DejaVuSans-48"/>
       <use x="837.5" xlink:href="#DejaVuSans-48"/>
       <use x="901.123047" xlink:href="#DejaVuSans-58"/>
       <use x="934.814453" xlink:href="#DejaVuSans-48"/>
       <use x="998.4375" xlink:href="#DejaVuSans-48"/>
      </g>
     </g>
    </g>
    <g id="xtick_8">
     <g id="line2d_8">
      <g>
       <use style="stroke:#000000;stroke-width:0.8;" x="499.888161" xlink:href="#meb9cd26d54" y="267.118125"/>
      </g>
     </g>
     <g id="text_7">
      <!-- 2020-05-06 15:00:00 -->
      <g transform="translate(406.871007 333.80169)rotate(-30)scale(0.1 -0.1)">
       <use xlink:href="#DejaVuSans-50"/>
       <use x="63.623047" xlink:href="#DejaVuSans-48"/>
       <use x="127.246094" xlink:href="#DejaVuSans-50"/>
       <use x="190.869141" xlink:href="#DejaVuSans-48"/>
       <use x="254.492188" xlink:href="#DejaVuSans-45"/>
       <use x="290.576172" xlink:href="#DejaVuSans-48"/>
       <use x="354.199219" xlink:href="#DejaVuSans-53"/>
       <use x="417.822266" xlink:href="#DejaVuSans-45"/>
       <use x="453.90625" xlink:href="#DejaVuSans-48"/>
       <use x="517.529297" xlink:href="#DejaVuSans-54"/>
       <use x="581.152344" xlink:href="#DejaVuSans-32"/>
       <use x="612.939453" xlink:href="#DejaVuSans-49"/>
       <use x="676.5625" xlink:href="#DejaVuSans-53"/>
       <use x="740.185547" xlink:href="#DejaVuSans-58"/>
       <use x="773.876953" xlink:href="#DejaVuSans-48"/>
       <use x="837.5" xlink:href="#DejaVuSans-48"/>
       <use x="901.123047" xlink:href="#DejaVuSans-58"/>
       <use x="934.814453" xlink:href="#DejaVuSans-48"/>
       <use x="998.4375" xlink:href="#DejaVuSans-48"/>
      </g>
     </g>
    </g>
    <g id="xtick_9">
     <g id="line2d_9">
      <g>
       <use style="stroke:#000000;stroke-width:0.8;" x="563.351171" xlink:href="#meb9cd26d54" y="267.118125"/>
      </g>
     </g>
     <g id="text_8">
      <!-- 2020-05-12 18:00:00 -->
      <g transform="translate(470.334017 333.80169)rotate(-30)scale(0.1 -0.1)">
       <use xlink:href="#DejaVuSans-50"/>
       <use x="63.623047" xlink:href="#DejaVuSans-48"/>
       <use x="127.246094" xlink:href="#DejaVuSans-50"/>
       <use x="190.869141" xlink:href="#DejaVuSans-48"/>
       <use x="254.492188" xlink:href="#DejaVuSans-45"/>
       <use x="290.576172" xlink:href="#DejaVuSans-48"/>
       <use x="354.199219" xlink:href="#DejaVuSans-53"/>
       <use x="417.822266" xlink:href="#DejaVuSans-45"/>
       <use x="453.90625" xlink:href="#DejaVuSans-49"/>
       <use x="517.529297" xlink:href="#DejaVuSans-50"/>
       <use x="581.152344" xlink:href="#DejaVuSans-32"/>
       <use x="612.939453" xlink:href="#DejaVuSans-49"/>
       <use x="676.5625" xlink:href="#DejaVuSans-56"/>
       <use x="740.185547" xlink:href="#DejaVuSans-58"/>
       <use x="773.876953" xlink:href="#DejaVuSans-48"/>
       <use x="837.5" xlink:href="#DejaVuSans-48"/>
       <use x="901.123047" xlink:href="#DejaVuSans-58"/>
       <use x="934.814453" xlink:href="#DejaVuSans-48"/>
       <use x="998.4375" xlink:href="#DejaVuSans-48"/>
      </g>
     </g>
    </g>
    <g id="text_9">
     <!-- Período -->
     <g transform="translate(304.133594 347.20119)scale(0.1 -0.1)">
      <defs>
       <path d="M 19.671875 64.796875 
L 19.671875 37.40625 
L 32.078125 37.40625 
Q 38.96875 37.40625 42.71875 40.96875 
Q 46.484375 44.53125 46.484375 51.125 
Q 46.484375 57.671875 42.71875 61.234375 
Q 38.96875 64.796875 32.078125 64.796875 
z
M 9.8125 72.90625 
L 32.078125 72.90625 
Q 44.34375 72.90625 50.609375 67.359375 
Q 56.890625 61.8125 56.890625 51.125 
Q 56.890625 40.328125 50.609375 34.8125 
Q 44.34375 29.296875 32.078125 29.296875 
L 19.671875 29.296875 
L 19.671875 0 
L 9.8125 0 
z
" id="DejaVuSans-80"/>
       <path d="M 56.203125 29.59375 
L 56.203125 25.203125 
L 14.890625 25.203125 
Q 15.484375 15.921875 20.484375 11.0625 
Q 25.484375 6.203125 34.421875 6.203125 
Q 39.59375 6.203125 44.453125 7.46875 
Q 49.3125 8.734375 54.109375 11.28125 
L 54.109375 2.78125 
Q 49.265625 0.734375 44.1875 -0.34375 
Q 39.109375 -1.421875 33.890625 -1.421875 
Q 20.796875 -1.421875 13.15625 6.1875 
Q 5.515625 13.8125 5.515625 26.8125 
Q 5.515625 40.234375 12.765625 48.109375 
Q 20.015625 56 32.328125 56 
Q 43.359375 56 49.78125 48.890625 
Q 56.203125 41.796875 56.203125 29.59375 
z
M 47.21875 32.234375 
Q 47.125 39.59375 43.09375 43.984375 
Q 39.0625 48.390625 32.421875 48.390625 
Q 24.90625 48.390625 20.390625 44.140625 
Q 15.875 39.890625 15.1875 32.171875 
z
" id="DejaVuSans-101"/>
       <path d="M 41.109375 46.296875 
Q 39.59375 47.171875 37.8125 47.578125 
Q 36.03125 48 33.890625 48 
Q 26.265625 48 22.1875 43.046875 
Q 18.109375 38.09375 18.109375 28.8125 
L 18.109375 0 
L 9.078125 0 
L 9.078125 54.6875 
L 18.109375 54.6875 
L 18.109375 46.1875 
Q 20.953125 51.171875 25.484375 53.578125 
Q 30.03125 56 36.53125 56 
Q 37.453125 56 38.578125 55.875 
Q 39.703125 55.765625 41.0625 55.515625 
z
" id="DejaVuSans-114"/>
       <path d="M 20.703125 79.984375 
L 30.421875 79.984375 
L 14.5 61.625 
L 7.03125 61.625 
z
M 9.421875 54.6875 
L 18.40625 54.6875 
L 18.40625 0 
L 9.421875 0 
z
M 13.921875 56 
z
" id="DejaVuSans-237"/>
       <path d="M 30.609375 48.390625 
Q 23.390625 48.390625 19.1875 42.75 
Q 14.984375 37.109375 14.984375 27.296875 
Q 14.984375 17.484375 19.15625 11.84375 
Q 23.34375 6.203125 30.609375 6.203125 
Q 37.796875 6.203125 41.984375 11.859375 
Q 46.1875 17.53125 46.1875 27.296875 
Q 46.1875 37.015625 41.984375 42.703125 
Q 37.796875 48.390625 30.609375 48.390625 
z
M 30.609375 56 
Q 42.328125 56 49.015625 48.375 
Q 55.71875 40.765625 55.71875 27.296875 
Q 55.71875 13.875 49.015625 6.21875 
Q 42.328125 -1.421875 30.609375 -1.421875 
Q 18.84375 -1.421875 12.171875 6.21875 
Q 5.515625 13.875 5.515625 27.296875 
Q 5.515625 40.765625 12.171875 48.375 
Q 18.84375 56 30.609375 56 
z
" id="DejaVuSans-111"/>
       <path d="M 45.40625 46.390625 
L 45.40625 75.984375 
L 54.390625 75.984375 
L 54.390625 0 
L 45.40625 0 
L 45.40625 8.203125 
Q 42.578125 3.328125 38.25 0.953125 
Q 33.9375 -1.421875 27.875 -1.421875 
Q 17.96875 -1.421875 11.734375 6.484375 
Q 5.515625 14.40625 5.515625 27.296875 
Q 5.515625 40.1875 11.734375 48.09375 
Q 17.96875 56 27.875 56 
Q 33.9375 56 38.25 53.625 
Q 42.578125 51.265625 45.40625 46.390625 
z
M 14.796875 27.296875 
Q 14.796875 17.390625 18.875 11.75 
Q 22.953125 6.109375 30.078125 6.109375 
Q 37.203125 6.109375 41.296875 11.75 
Q 45.40625 17.390625 45.40625 27.296875 
Q 45.40625 37.203125 41.296875 42.84375 
Q 37.203125 48.484375 30.078125 48.484375 
Q 22.953125 48.484375 18.875 42.84375 
Q 14.796875 37.203125 14.796875 27.296875 
z
" id="DejaVuSans-100"/>
      </defs>
      <use xlink:href="#DejaVuSans-80"/>
      <use x="56.677734" xlink:href="#DejaVuSans-101"/>
      <use x="118.201172" xlink:href="#DejaVuSans-114"/>
      <use x="159.314453" xlink:href="#DejaVuSans-237"/>
      <use x="187.097656" xlink:href="#DejaVuSans-111"/>
      <use x="248.279297" xlink:href="#DejaVuSans-100"/>
      <use x="311.755859" xlink:href="#DejaVuSans-111"/>
     </g>
    </g>
   </g>
   <g id="matplotlib.axis_2">
    <g id="ytick_1">
     <g id="line2d_10">
      <defs>
       <path d="M 0 0 
L -3.5 0 
" id="me52c114f49" style="stroke:#000000;stroke-width:0.8;"/>
      </defs>
      <g>
       <use style="stroke:#000000;stroke-width:0.8;" x="43.78125" xlink:href="#me52c114f49" y="237.611017"/>
      </g>
     </g>
     <g id="text_10">
      <!-- 0.2 -->
      <g transform="translate(20.878125 241.410236)scale(0.1 -0.1)">
       <defs>
        <path d="M 10.6875 12.40625 
L 21 12.40625 
L 21 0 
L 10.6875 0 
z
" id="DejaVuSans-46"/>
       </defs>
       <use xlink:href="#DejaVuSans-48"/>
       <use x="63.623047" xlink:href="#DejaVuSans-46"/>
       <use x="95.410156" xlink:href="#DejaVuSans-50"/>
      </g>
     </g>
    </g>
    <g id="ytick_2">
     <g id="line2d_11">
      <g>
       <use style="stroke:#000000;stroke-width:0.8;" x="43.78125" xlink:href="#me52c114f49" y="194.904329"/>
      </g>
     </g>
     <g id="text_11">
      <!-- 0.4 -->
      <g transform="translate(20.878125 198.703548)scale(0.1 -0.1)">
       <use xlink:href="#DejaVuSans-48"/>
       <use x="63.623047" xlink:href="#DejaVuSans-46"/>
       <use x="95.410156" xlink:href="#DejaVuSans-52"/>
      </g>
     </g>
    </g>
    <g id="ytick_3">
     <g id="line2d_12">
      <g>
       <use style="stroke:#000000;stroke-width:0.8;" x="43.78125" xlink:href="#me52c114f49" y="152.19764"/>
      </g>
     </g>
     <g id="text_12">
      <!-- 0.6 -->
      <g transform="translate(20.878125 155.996859)scale(0.1 -0.1)">
       <use xlink:href="#DejaVuSans-48"/>
       <use x="63.623047" xlink:href="#DejaVuSans-46"/>
       <use x="95.410156" xlink:href="#DejaVuSans-54"/>
      </g>
     </g>
    </g>
    <g id="ytick_4">
     <g id="line2d_13">
      <g>
       <use style="stroke:#000000;stroke-width:0.8;" x="43.78125" xlink:href="#me52c114f49" y="109.490952"/>
      </g>
     </g>
     <g id="text_13">
      <!-- 0.8 -->
      <g transform="translate(20.878125 113.29017)scale(0.1 -0.1)">
       <use xlink:href="#DejaVuSans-48"/>
       <use x="63.623047" xlink:href="#DejaVuSans-46"/>
       <use x="95.410156" xlink:href="#DejaVuSans-56"/>
      </g>
     </g>
    </g>
    <g id="ytick_5">
     <g id="line2d_14">
      <g>
       <use style="stroke:#000000;stroke-width:0.8;" x="43.78125" xlink:href="#me52c114f49" y="66.784263"/>
      </g>
     </g>
     <g id="text_14">
      <!-- 1.0 -->
      <g transform="translate(20.878125 70.583482)scale(0.1 -0.1)">
       <use xlink:href="#DejaVuSans-49"/>
       <use x="63.623047" xlink:href="#DejaVuSans-46"/>
       <use x="95.410156" xlink:href="#DejaVuSans-48"/>
      </g>
     </g>
    </g>
    <g id="ytick_6">
     <g id="line2d_15">
      <g>
       <use style="stroke:#000000;stroke-width:0.8;" x="43.78125" xlink:href="#me52c114f49" y="24.077574"/>
      </g>
     </g>
     <g id="text_15">
      <!-- 1.2 -->
      <g transform="translate(20.878125 27.876793)scale(0.1 -0.1)">
       <use xlink:href="#DejaVuSans-49"/>
       <use x="63.623047" xlink:href="#DejaVuSans-46"/>
       <use x="95.410156" xlink:href="#DejaVuSans-50"/>
      </g>
     </g>
    </g>
    <g id="text_16">
     <!-- energia (kWh) -->
     <g transform="translate(14.798438 180.13375)rotate(-90)scale(0.1 -0.1)">
      <defs>
       <path d="M 54.890625 33.015625 
L 54.890625 0 
L 45.90625 0 
L 45.90625 32.71875 
Q 45.90625 40.484375 42.875 44.328125 
Q 39.84375 48.1875 33.796875 48.1875 
Q 26.515625 48.1875 22.3125 43.546875 
Q 18.109375 38.921875 18.109375 30.90625 
L 18.109375 0 
L 9.078125 0 
L 9.078125 54.6875 
L 18.109375 54.6875 
L 18.109375 46.1875 
Q 21.34375 51.125 25.703125 53.5625 
Q 30.078125 56 35.796875 56 
Q 45.21875 56 50.046875 50.171875 
Q 54.890625 44.34375 54.890625 33.015625 
z
" id="DejaVuSans-110"/>
       <path d="M 45.40625 27.984375 
Q 45.40625 37.75 41.375 43.109375 
Q 37.359375 48.484375 30.078125 48.484375 
Q 22.859375 48.484375 18.828125 43.109375 
Q 14.796875 37.75 14.796875 27.984375 
Q 14.796875 18.265625 18.828125 12.890625 
Q 22.859375 7.515625 30.078125 7.515625 
Q 37.359375 7.515625 41.375 12.890625 
Q 45.40625 18.265625 45.40625 27.984375 
z
M 54.390625 6.78125 
Q 54.390625 -7.171875 48.1875 -13.984375 
Q 42 -20.796875 29.203125 -20.796875 
Q 24.46875 -20.796875 20.265625 -20.09375 
Q 16.0625 -19.390625 12.109375 -17.921875 
L 12.109375 -9.1875 
Q 16.0625 -11.328125 19.921875 -12.34375 
Q 23.78125 -13.375 27.78125 -13.375 
Q 36.625 -13.375 41.015625 -8.765625 
Q 45.40625 -4.15625 45.40625 5.171875 
L 45.40625 9.625 
Q 42.625 4.78125 38.28125 2.390625 
Q 33.9375 0 27.875 0 
Q 17.828125 0 11.671875 7.65625 
Q 5.515625 15.328125 5.515625 27.984375 
Q 5.515625 40.671875 11.671875 48.328125 
Q 17.828125 56 27.875 56 
Q 33.9375 56 38.28125 53.609375 
Q 42.625 51.21875 45.40625 46.390625 
L 45.40625 54.6875 
L 54.390625 54.6875 
z
" id="DejaVuSans-103"/>
       <path d="M 9.421875 54.6875 
L 18.40625 54.6875 
L 18.40625 0 
L 9.421875 0 
z
M 9.421875 75.984375 
L 18.40625 75.984375 
L 18.40625 64.59375 
L 9.421875 64.59375 
z
" id="DejaVuSans-105"/>
       <path d="M 34.28125 27.484375 
Q 23.390625 27.484375 19.1875 25 
Q 14.984375 22.515625 14.984375 16.5 
Q 14.984375 11.71875 18.140625 8.90625 
Q 21.296875 6.109375 26.703125 6.109375 
Q 34.1875 6.109375 38.703125 11.40625 
Q 43.21875 16.703125 43.21875 25.484375 
L 43.21875 27.484375 
z
M 52.203125 31.203125 
L 52.203125 0 
L 43.21875 0 
L 43.21875 8.296875 
Q 40.140625 3.328125 35.546875 0.953125 
Q 30.953125 -1.421875 24.3125 -1.421875 
Q 15.921875 -1.421875 10.953125 3.296875 
Q 6 8.015625 6 15.921875 
Q 6 25.140625 12.171875 29.828125 
Q 18.359375 34.515625 30.609375 34.515625 
L 43.21875 34.515625 
L 43.21875 35.40625 
Q 43.21875 41.609375 39.140625 45 
Q 35.0625 48.390625 27.6875 48.390625 
Q 23 48.390625 18.546875 47.265625 
Q 14.109375 46.140625 10.015625 43.890625 
L 10.015625 52.203125 
Q 14.9375 54.109375 19.578125 55.046875 
Q 24.21875 56 28.609375 56 
Q 40.484375 56 46.34375 49.84375 
Q 52.203125 43.703125 52.203125 31.203125 
z
" id="DejaVuSans-97"/>
       <path d="M 31 75.875 
Q 24.46875 64.65625 21.28125 53.65625 
Q 18.109375 42.671875 18.109375 31.390625 
Q 18.109375 20.125 21.3125 9.0625 
Q 24.515625 -2 31 -13.1875 
L 23.1875 -13.1875 
Q 15.875 -1.703125 12.234375 9.375 
Q 8.59375 20.453125 8.59375 31.390625 
Q 8.59375 42.28125 12.203125 53.3125 
Q 15.828125 64.359375 23.1875 75.875 
z
" id="DejaVuSans-40"/>
       <path d="M 9.078125 75.984375 
L 18.109375 75.984375 
L 18.109375 31.109375 
L 44.921875 54.6875 
L 56.390625 54.6875 
L 27.390625 29.109375 
L 57.625 0 
L 45.90625 0 
L 18.109375 26.703125 
L 18.109375 0 
L 9.078125 0 
z
" id="DejaVuSans-107"/>
       <path d="M 3.328125 72.90625 
L 13.28125 72.90625 
L 28.609375 11.28125 
L 43.890625 72.90625 
L 54.984375 72.90625 
L 70.3125 11.28125 
L 85.59375 72.90625 
L 95.609375 72.90625 
L 77.296875 0 
L 64.890625 0 
L 49.515625 63.28125 
L 33.984375 0 
L 21.578125 0 
z
" id="DejaVuSans-87"/>
       <path d="M 54.890625 33.015625 
L 54.890625 0 
L 45.90625 0 
L 45.90625 32.71875 
Q 45.90625 40.484375 42.875 44.328125 
Q 39.84375 48.1875 33.796875 48.1875 
Q 26.515625 48.1875 22.3125 43.546875 
Q 18.109375 38.921875 18.109375 30.90625 
L 18.109375 0 
L 9.078125 0 
L 9.078125 75.984375 
L 18.109375 75.984375 
L 18.109375 46.1875 
Q 21.34375 51.125 25.703125 53.5625 
Q 30.078125 56 35.796875 56 
Q 45.21875 56 50.046875 50.171875 
Q 54.890625 44.34375 54.890625 33.015625 
z
" id="DejaVuSans-104"/>
       <path d="M 8.015625 75.875 
L 15.828125 75.875 
Q 23.140625 64.359375 26.78125 53.3125 
Q 30.421875 42.28125 30.421875 31.390625 
Q 30.421875 20.453125 26.78125 9.375 
Q 23.140625 -1.703125 15.828125 -13.1875 
L 8.015625 -13.1875 
Q 14.5 -2 17.703125 9.0625 
Q 20.90625 20.125 20.90625 31.390625 
Q 20.90625 42.671875 17.703125 53.65625 
Q 14.5 64.65625 8.015625 75.875 
z
" id="DejaVuSans-41"/>
      </defs>
      <use xlink:href="#DejaVuSans-101"/>
      <use x="61.523438" xlink:href="#DejaVuSans-110"/>
      <use x="124.902344" xlink:href="#DejaVuSans-101"/>
      <use x="186.425781" xlink:href="#DejaVuSans-114"/>
      <use x="225.789062" xlink:href="#DejaVuSans-103"/>
      <use x="289.265625" xlink:href="#DejaVuSans-105"/>
      <use x="317.048828" xlink:href="#DejaVuSans-97"/>
      <use x="378.328125" xlink:href="#DejaVuSans-32"/>
      <use x="410.115234" xlink:href="#DejaVuSans-40"/>
      <use x="449.128906" xlink:href="#DejaVuSans-107"/>
      <use x="507.039062" xlink:href="#DejaVuSans-87"/>
      <use x="605.916016" xlink:href="#DejaVuSans-104"/>
      <use x="669.294922" xlink:href="#DejaVuSans-41"/>
     </g>
    </g>
   </g>
   <g id="line2d_16">
    <path clip-path="url(#pc9d9803bc6)" d="M 69.144886 213.268205 
L 69.576241 211.987004 
L 70.007595 214.549406 
L 70.438949 215.830606 
L 70.870304 219.247141 
L 72.164367 239.319285 
L 72.595721 246.579422 
L 73.027076 248.714756 
L 73.889784 247.860623 
L 74.321139 244.017021 
L 74.752493 234.194482 
L 75.183847 226.934345 
L 75.615202 226.507278 
L 76.046556 211.987004 
L 76.47791 211.559937 
L 76.909265 220.955409 
L 77.340619 226.507278 
L 77.771974 216.257673 
L 78.203328 221.809543 
L 78.634682 218.393008 
L 79.497391 207.716335 
L 80.3601 215.830606 
L 80.791454 214.122339 
L 81.222808 211.559937 
L 82.516872 227.788479 
L 83.37958 244.871154 
L 83.810935 245.725288 
L 84.242289 245.725288 
L 84.673643 245.298221 
L 85.536352 239.746352 
L 85.967706 239.319285 
L 86.399061 235.90275 
L 86.830415 234.621549 
L 87.261769 236.329817 
L 88.124478 226.934345 
L 88.555833 220.955409 
L 89.849896 207.289268 
L 90.28125 195.758463 
L 90.712604 193.196061 
L 91.143959 193.196061 
L 91.575313 198.747931 
L 92.006667 211.987004 
L 92.438022 229.496747 
L 92.869376 242.308753 
L 93.300731 249.56889 
L 93.732085 250.423024 
L 94.163439 249.995957 
L 94.594794 250.850091 
L 95.026148 249.141823 
L 96.320211 219.674208 
L 97.18292 211.13287 
L 97.614274 216.257673 
L 98.045628 224.371944 
L 98.476983 229.06968 
L 99.339692 236.756884 
L 99.771046 240.600486 
L 100.2024 241.881686 
L 100.633755 240.600486 
L 101.065109 234.194482 
L 101.496463 231.205014 
L 101.927818 230.35088 
L 102.790526 235.90275 
L 103.221881 242.73582 
L 103.653235 247.433556 
L 104.08459 249.995957 
L 104.515944 249.995957 
L 104.947298 250.850091 
L 105.378653 247.006489 
L 105.810007 234.621549 
L 106.241361 218.820074 
L 107.10407 85.575206 
L 107.535424 85.148139 
L 107.966779 91.127076 
L 108.398133 103.939082 
L 109.260842 231.205014 
L 109.692196 233.340349 
L 110.123551 233.767415 
L 110.554905 230.35088 
L 110.986259 232.059148 
L 111.417614 229.06968 
L 111.848968 227.361412 
L 112.280322 230.35088 
L 112.711677 235.475683 
L 113.574385 241.881686 
L 114.00574 245.725288 
L 114.437094 248.28769 
L 114.868449 249.56889 
L 115.299803 249.56889 
L 115.731157 244.444088 
L 116.162512 244.444088 
L 116.593866 245.298221 
L 117.02522 245.298221 
L 117.456575 240.173419 
L 117.887929 241.027552 
L 118.319283 237.611017 
L 118.750638 237.183951 
L 119.181992 237.183951 
L 120.044701 234.194482 
L 120.476055 236.329817 
L 120.90741 228.215546 
L 121.770118 200.029131 
L 122.201473 200.029131 
L 122.632827 200.883265 
L 123.064181 208.570469 
L 123.495536 221.382476 
L 123.92689 243.589954 
L 124.358244 247.006489 
L 124.789599 246.152355 
L 125.220953 246.579422 
L 125.652308 246.579422 
L 126.515016 236.756884 
L 126.946371 235.475683 
L 127.377725 233.340349 
L 127.809079 233.340349 
L 128.240434 235.475683 
L 128.671788 242.73582 
L 129.103142 244.871154 
L 129.534497 244.444088 
L 129.965851 236.329817 
L 130.82856 226.080211 
L 131.259914 224.371944 
L 131.691269 218.820074 
L 132.553977 226.507278 
L 132.985332 230.777947 
L 133.416686 232.913282 
L 133.84804 241.881686 
L 134.710749 249.56889 
L 135.142103 250.850091 
L 135.573458 250.850091 
L 136.004812 249.995957 
L 136.436167 245.298221 
L 136.867521 236.329817 
L 137.298875 236.329817 
L 137.73023 236.756884 
L 138.161584 236.329817 
L 138.592938 233.340349 
L 139.024293 233.767415 
L 139.455647 226.507278 
L 139.887001 225.653145 
L 140.318356 225.653145 
L 140.74971 233.340349 
L 141.181064 237.183951 
L 141.612419 238.038084 
L 142.475128 217.538874 
L 142.906482 211.13287 
L 143.337836 212.841138 
L 143.769191 218.820074 
L 144.631899 241.027552 
L 145.063254 247.860623 
L 145.494608 250.850091 
L 146.357317 251.704225 
L 146.788671 250.850091 
L 147.220026 244.444088 
L 147.65138 234.194482 
L 148.082734 229.06968 
L 148.514089 203.445667 
L 148.945443 118.459356 
L 149.376797 103.939082 
L 149.808152 113.334554 
L 150.239506 111.626286 
L 150.67086 133.833764 
L 151.102215 213.695272 
L 151.533569 228.642613 
L 151.964923 223.090743 
L 152.396278 223.944877 
L 153.258987 214.122339 
L 153.690341 217.111807 
L 154.55305 227.788479 
L 154.984404 235.048616 
L 155.415758 245.298221 
L 155.847113 247.860623 
L 156.278467 249.56889 
L 156.709821 249.995957 
L 157.141176 244.871154 
L 157.57253 230.777947 
L 158.003885 221.382476 
L 158.435239 219.247141 
L 158.866593 210.278737 
L 159.297948 206.435135 
L 160.160656 221.382476 
L 160.592011 221.809543 
L 161.023365 227.361412 
L 161.454719 229.496747 
L 161.886074 229.496747 
L 162.317428 227.361412 
L 163.180137 217.111807 
L 163.611491 212.414071 
L 164.042846 212.841138 
L 164.4742 217.111807 
L 165.336909 232.913282 
L 165.768263 244.444088 
L 166.199617 249.56889 
L 166.630972 250.423024 
L 167.062326 249.56889 
L 167.49368 245.725288 
L 167.925035 230.777947 
L 168.356389 224.799011 
L 169.219098 195.331396 
L 169.650452 188.071259 
L 170.081807 198.747931 
L 170.513161 202.164466 
L 170.944515 215.830606 
L 171.807224 233.340349 
L 172.238578 232.059148 
L 172.669933 229.496747 
L 173.101287 226.080211 
L 173.532641 225.226078 
L 173.963996 221.382476 
L 176.120768 250.423024 
L 176.552122 250.850091 
L 177.414831 250.850091 
L 177.846185 245.725288 
L 179.140248 217.538874 
L 180.002957 216.68474 
L 181.29702 231.632081 
L 181.728374 226.080211 
L 183.022437 221.382476 
L 183.453792 220.528342 
L 183.885146 211.559937 
L 184.3165 200.029131 
L 185.610564 216.257673 
L 186.041918 230.777947 
L 186.473272 249.56889 
L 186.904627 250.850091 
L 187.335981 250.423024 
L 187.767335 250.423024 
L 188.19869 241.881686 
L 188.630044 227.361412 
L 189.492753 214.976472 
L 189.924107 212.414071 
L 190.355462 214.976472 
L 190.786816 225.653145 
L 191.21817 226.080211 
L 191.649525 225.653145 
L 192.080879 220.955409 
L 192.512233 222.663676 
L 192.943588 218.820074 
L 193.374942 217.111807 
L 193.806296 217.111807 
L 194.237651 217.965941 
L 194.669005 220.955409 
L 195.963068 242.73582 
L 196.394423 247.006489 
L 196.825777 246.579422 
L 197.257131 245.725288 
L 197.688486 245.298221 
L 198.11984 244.444088 
L 198.982549 224.371944 
L 199.413903 197.039663 
L 199.845257 150.062306 
L 200.276612 63.794795 
L 200.707966 68.065464 
L 201.139321 75.325601 
L 201.570675 100.522547 
L 202.002029 140.666834 
L 202.433384 221.809543 
L 202.864738 222.663676 
L 203.296092 222.663676 
L 203.727447 219.674208 
L 204.158801 220.528342 
L 204.590155 215.403539 
L 205.02151 217.965941 
L 205.884218 230.35088 
L 206.315573 236.756884 
L 206.746927 247.860623 
L 207.178282 251.277158 
L 208.04099 251.277158 
L 208.472345 247.433556 
L 208.903699 240.173419 
L 209.335053 227.361412 
L 210.197762 214.122339 
L 211.060471 209.85167 
L 211.491825 214.122339 
L 211.923179 213.695272 
L 212.354534 210.705804 
L 212.785888 209.85167 
L 213.217243 211.987004 
L 213.648597 214.976472 
L 214.94266 219.674208 
L 215.374014 222.663676 
L 216.236723 234.194482 
L 217.099432 246.152355 
L 217.530786 250.423024 
L 217.962141 250.423024 
L 218.393495 249.56889 
L 220.118912 219.674208 
L 220.550267 213.695272 
L 220.981621 216.257673 
L 221.412975 216.257673 
L 222.275684 221.382476 
L 222.707038 222.663676 
L 223.138393 222.663676 
L 223.569747 223.090743 
L 224.001102 222.663676 
L 224.86381 220.101275 
L 225.295165 217.965941 
L 225.726519 216.68474 
L 226.157873 217.111807 
L 227.020582 226.507278 
L 228.314645 247.860623 
L 228.746 248.714756 
L 229.177354 244.444088 
L 230.040063 231.632081 
L 230.471417 228.215546 
L 230.902771 223.51781 
L 231.334126 227.361412 
L 232.196834 228.215546 
L 232.628189 225.226078 
L 233.059543 224.371944 
L 233.490897 218.820074 
L 233.922252 220.528342 
L 234.353606 219.674208 
L 234.784961 222.236609 
L 235.216315 221.809543 
L 235.647669 223.090743 
L 236.079024 222.663676 
L 236.510378 228.642613 
L 236.941732 232.486215 
L 238.235795 250.423024 
L 238.66715 250.850091 
L 239.098504 250.850091 
L 239.529859 251.277158 
L 239.961213 247.860623 
L 241.255276 229.496747 
L 241.68663 224.799011 
L 242.117985 223.944877 
L 242.549339 223.944877 
L 242.980693 224.799011 
L 243.412048 216.68474 
L 243.843402 203.445667 
L 244.274756 196.185529 
L 244.706111 197.039663 
L 245.137465 196.612596 
L 245.56882 202.164466 
L 246.000174 214.122339 
L 246.431528 219.674208 
L 246.862883 218.820074 
L 247.294237 222.236609 
L 247.725591 230.35088 
L 248.5883 241.027552 
L 249.019654 247.433556 
L 249.451009 249.995957 
L 249.882363 249.995957 
L 250.313718 245.725288 
L 250.745072 239.319285 
L 251.607781 231.632081 
L 252.039135 223.51781 
L 252.470489 220.955409 
L 252.901844 217.538874 
L 253.333198 208.143402 
L 253.764552 205.153934 
L 254.627261 136.396165 
L 255.058615 138.5315 
L 255.48997 143.656302 
L 255.921324 142.375102 
L 256.784033 216.68474 
L 258.50945 247.006489 
L 258.940805 248.714756 
L 259.372159 249.56889 
L 260.234868 249.56889 
L 260.666222 241.454619 
L 261.097577 235.475683 
L 261.528931 232.059148 
L 262.822994 197.039663 
L 263.254348 197.893797 
L 263.685703 194.904329 
L 264.117057 200.456198 
L 264.548411 208.143402 
L 264.979766 218.393008 
L 265.842474 218.393008 
L 266.273829 219.674208 
L 266.705183 218.393008 
L 267.999246 233.340349 
L 268.861955 245.725288 
L 269.293309 244.017021 
L 270.156018 243.162887 
L 270.587372 241.027552 
L 271.450081 228.215546 
L 271.881436 220.528342 
L 272.31279 216.68474 
L 273.175499 213.695272 
L 273.606853 216.257673 
L 274.038207 219.674208 
L 274.469562 218.820074 
L 274.900916 211.987004 
L 275.33227 211.559937 
L 275.763625 205.581001 
L 276.194979 187.217125 
L 276.626333 185.08179 
L 277.489042 193.623128 
L 277.920397 206.435135 
L 278.351751 230.777947 
L 279.21446 244.871154 
L 279.645814 250.850091 
L 280.077168 250.850091 
L 280.508523 250.423024 
L 280.939877 246.579422 
L 281.802586 232.486215 
L 282.23394 231.205014 
L 282.665295 231.632081 
L 283.096649 229.496747 
L 283.959358 228.642613 
L 284.822066 215.403539 
L 285.253421 216.68474 
L 285.684775 216.68474 
L 286.116129 217.965941 
L 286.547484 219.674208 
L 286.978838 218.393008 
L 287.410192 216.257673 
L 287.841547 219.674208 
L 288.272901 224.371944 
L 289.566964 244.017021 
L 289.998319 247.433556 
L 290.429673 248.28769 
L 290.861027 247.433556 
L 291.292382 247.006489 
L 292.586445 232.486215 
L 293.017799 223.090743 
L 293.449154 219.247141 
L 293.880508 217.965941 
L 294.311862 211.13287 
L 294.743217 144.937503 
L 295.174571 139.812701 
L 295.605925 138.958567 
L 296.03728 144.510436 
L 296.468634 144.510436 
L 296.899988 197.46673 
L 297.331343 198.320864 
L 297.762697 194.477262 
L 298.194051 187.217125 
L 298.625406 197.893797 
L 299.488115 228.215546 
L 300.350823 242.73582 
L 300.782178 243.162887 
L 301.213532 243.162887 
L 301.644886 242.73582 
L 302.938949 218.820074 
L 303.801658 212.841138 
L 304.233013 213.695272 
L 305.095721 226.507278 
L 305.95843 221.382476 
L 306.389784 223.090743 
L 306.821139 218.820074 
L 307.252493 217.965941 
L 307.683847 218.393008 
L 308.546556 220.955409 
L 310.271974 242.73582 
L 310.703328 248.28769 
L 311.134682 249.141823 
L 311.997391 249.141823 
L 312.8601 231.205014 
L 313.291454 221.382476 
L 313.722808 214.976472 
L 314.154163 214.122339 
L 315.448226 224.799011 
L 315.87958 225.653145 
L 317.173643 194.050195 
L 317.604998 189.352459 
L 318.036352 188.925392 
L 318.467706 193.623128 
L 318.899061 196.185529 
L 319.330415 210.278737 
L 319.761769 219.674208 
L 320.193124 224.371944 
L 320.624478 230.35088 
L 321.055833 239.319285 
L 321.487187 243.589954 
L 321.918541 244.871154 
L 322.349896 244.871154 
L 322.78125 242.73582 
L 323.643959 212.841138 
L 324.075313 135.969099 
L 324.506667 109.490952 
L 324.938022 106.074417 
L 325.800731 126.14656 
L 326.232085 197.039663 
L 326.663439 216.68474 
L 327.094794 209.85167 
L 327.526148 207.716335 
L 328.388857 206.862202 
L 328.820211 207.716335 
L 331.408337 244.017021 
L 331.839692 244.444088 
L 332.7024 246.152355 
L 333.133755 238.465151 
L 333.565109 223.51781 
L 333.996463 219.247141 
L 334.859172 214.549406 
L 335.290526 220.101275 
L 335.721881 230.35088 
L 336.153235 229.06968 
L 337.447298 219.674208 
L 337.878653 219.674208 
L 338.310007 220.955409 
L 339.172716 221.809543 
L 339.60407 223.090743 
L 341.329487 244.871154 
L 341.760842 247.006489 
L 342.623551 246.152355 
L 343.054905 244.871154 
L 343.486259 240.600486 
L 343.917614 226.507278 
L 344.348968 222.236609 
L 344.780322 221.809543 
L 345.211677 211.987004 
L 345.643031 205.581001 
L 346.074385 202.591533 
L 346.937094 193.196061 
L 347.368449 197.893797 
L 347.799803 206.862202 
L 348.231157 220.955409 
L 348.662512 225.226078 
L 349.093866 226.507278 
L 349.52522 227.361412 
L 349.956575 229.06968 
L 351.250638 242.73582 
L 351.681992 247.860623 
L 352.113346 250.423024 
L 352.544701 250.850091 
L 353.40741 250.850091 
L 353.838764 244.871154 
L 354.270118 235.475683 
L 354.701473 230.777947 
L 355.132827 220.528342 
L 355.564181 215.830606 
L 355.995536 153.905908 
L 356.42689 139.385634 
L 356.858244 138.104433 
L 357.289599 141.093901 
L 357.720953 139.812701 
L 358.152308 201.737399 
L 358.583662 219.674208 
L 359.015016 219.674208 
L 359.446371 221.382476 
L 359.877725 221.382476 
L 360.309079 218.820074 
L 362.034497 241.454619 
L 362.465851 249.56889 
L 362.897205 249.56889 
L 363.32856 249.995957 
L 363.759914 249.141823 
L 364.622623 233.767415 
L 365.053977 231.632081 
L 365.485332 230.35088 
L 365.916686 227.361412 
L 366.779395 231.632081 
L 367.642103 211.559937 
L 368.936167 183.373523 
L 369.798875 195.758463 
L 370.23023 200.883265 
L 371.092938 226.934345 
L 371.955647 237.183951 
L 372.387001 244.871154 
L 373.24971 247.433556 
L 373.681064 247.433556 
L 374.112419 246.579422 
L 374.543773 239.319285 
L 374.975128 229.06968 
L 375.406482 214.549406 
L 375.837836 137.250299 
L 376.269191 107.355617 
L 376.700545 112.907487 
L 377.131899 120.594691 
L 377.563254 134.260831 
L 377.994608 211.987004 
L 378.425962 241.454619 
L 378.857317 242.308753 
L 379.288671 245.725288 
L 379.720026 246.579422 
L 380.15138 244.017021 
L 380.582734 239.746352 
L 381.445443 223.944877 
L 381.876797 220.528342 
L 382.308152 223.090743 
L 382.739506 229.06968 
L 383.602215 246.152355 
L 384.033569 249.995957 
L 385.327632 244.444088 
L 385.758987 244.444088 
L 386.190341 243.589954 
L 386.621695 244.871154 
L 387.05305 247.006489 
L 387.484404 245.725288 
L 389.209821 220.528342 
L 389.641176 217.965941 
L 390.07253 217.538874 
L 390.503885 216.68474 
L 390.935239 217.111807 
L 391.366593 216.257673 
L 391.797948 214.976472 
L 393.954719 250.423024 
L 394.386074 250.423024 
L 394.817428 250.850091 
L 395.248782 247.006489 
L 395.680137 241.027552 
L 396.111491 223.090743 
L 396.542846 191.487794 
L 396.9742 172.269784 
L 397.405554 173.123918 
L 397.836909 173.123918 
L 398.268263 183.373523 
L 398.699617 207.716335 
L 399.130972 217.965941 
L 399.562326 213.695272 
L 399.99368 211.987004 
L 400.425035 213.268205 
L 400.856389 213.695272 
L 401.287744 216.68474 
L 401.719098 216.68474 
L 402.150452 218.820074 
L 403.87587 244.444088 
L 404.307224 249.995957 
L 404.738578 249.56889 
L 405.169933 249.995957 
L 405.601287 245.298221 
L 406.032641 238.038084 
L 407.326705 229.923813 
L 407.758059 230.777947 
L 408.189413 229.923813 
L 409.483476 214.122339 
L 409.914831 215.403539 
L 410.777539 220.101275 
L 411.208894 221.382476 
L 411.640248 220.955409 
L 412.071603 222.663676 
L 413.79702 246.579422 
L 414.228374 246.152355 
L 414.659729 246.152355 
L 415.091083 245.725288 
L 415.522437 246.152355 
L 415.953792 242.308753 
L 417.247855 219.247141 
L 417.679209 217.111807 
L 418.110564 207.716335 
L 418.541918 207.289268 
L 418.973272 213.695272 
L 419.404627 217.111807 
L 419.835981 211.987004 
L 420.69869 224.371944 
L 421.561398 217.965941 
L 421.992753 217.965941 
L 422.424107 220.955409 
L 422.855462 222.236609 
L 423.286816 226.080211 
L 424.580879 246.152355 
L 425.012233 248.28769 
L 425.443588 248.714756 
L 425.874942 245.298221 
L 426.737651 229.496747 
L 427.169005 226.507278 
L 427.600359 226.507278 
L 428.463068 202.164466 
L 428.894423 194.904329 
L 429.325777 192.341927 
L 429.757131 186.790058 
L 430.188486 202.591533 
L 431.051194 223.944877 
L 431.482549 221.382476 
L 431.913903 220.528342 
L 432.345257 215.403539 
L 432.776612 220.101275 
L 433.207966 226.080211 
L 434.070675 240.600486 
L 434.502029 246.579422 
L 434.933384 249.141823 
L 435.364738 248.28769 
L 435.796092 248.28769 
L 436.227447 246.152355 
L 437.090155 232.913282 
L 437.52151 231.205014 
L 437.952864 225.226078 
L 438.815573 222.663676 
L 439.246927 222.236609 
L 439.678282 218.820074 
L 440.109636 225.226078 
L 440.54099 227.788479 
L 440.972345 234.621549 
L 441.403699 234.621549 
L 441.835053 229.496747 
L 442.697762 209.424603 
L 443.129116 204.2998 
L 443.560471 209.424603 
L 444.854534 240.173419 
L 445.285888 247.433556 
L 446.148597 249.141823 
L 446.579951 245.725288 
L 447.011306 237.611017 
L 447.44266 232.486215 
L 447.874014 229.496747 
L 448.305369 220.101275 
L 448.736723 214.549406 
L 449.168077 213.695272 
L 449.599432 217.111807 
L 450.030786 218.820074 
L 451.324849 246.579422 
L 451.756204 247.860623 
L 452.187558 247.433556 
L 452.618912 241.881686 
L 453.481621 228.642613 
L 453.912975 227.361412 
L 454.34433 229.496747 
L 455.207038 241.454619 
L 455.638393 247.860623 
L 456.069747 249.995957 
L 456.501102 249.995957 
L 456.932456 245.725288 
L 457.795165 225.653145 
L 458.226519 221.382476 
L 458.657873 214.976472 
L 459.089228 214.976472 
L 459.520582 217.538874 
L 459.951936 226.507278 
L 460.383291 230.35088 
L 460.814645 236.756884 
L 461.246 240.600486 
L 461.677354 248.714756 
L 462.108708 249.995957 
L 462.540063 250.423024 
L 462.971417 249.995957 
L 463.834126 249.995957 
L 464.26548 249.141823 
L 464.696834 249.141823 
L 466.422252 250.850091 
L 466.853606 250.423024 
L 467.716315 250.423024 
L 468.147669 249.995957 
L 468.579024 249.995957 
L 469.441732 250.850091 
L 470.735795 250.850091 
L 471.598504 220.528342 
L 472.029859 133.406697 
L 472.461213 108.636818 
L 472.892567 102.657881 
L 473.323922 108.636818 
L 473.755276 108.636818 
L 474.18663 171.842717 
L 474.617985 192.341927 
L 475.480693 206.435135 
L 475.912048 222.663676 
L 476.343402 246.579422 
L 476.774756 250.850091 
L 477.206111 250.423024 
L 477.637465 244.017021 
L 478.500174 224.799011 
L 479.362883 217.111807 
L 479.794237 220.955409 
L 480.656946 235.048616 
L 481.0883 237.611017 
L 481.519654 237.611017 
L 481.951009 233.767415 
L 482.382363 235.048616 
L 482.813718 227.361412 
L 484.107781 247.006489 
L 484.539135 249.995957 
L 484.970489 249.995957 
L 485.401844 249.56889 
L 485.833198 244.871154 
L 486.264552 236.756884 
L 486.695907 231.205014 
L 487.558615 226.507278 
L 487.98997 227.361412 
L 488.421324 226.934345 
L 488.852679 229.06968 
L 489.284033 229.06968 
L 489.715387 224.371944 
L 490.146742 223.944877 
L 490.578096 225.653145 
L 491.00945 222.236609 
L 491.440805 223.090743 
L 491.872159 226.507278 
L 492.303513 224.799011 
L 492.734868 225.653145 
L 493.166222 227.788479 
L 493.597577 229.06968 
L 494.028931 232.059148 
L 494.89164 244.444088 
L 495.322994 248.714756 
L 495.754348 249.141823 
L 496.185703 245.725288 
L 497.048411 226.080211 
L 497.479766 223.51781 
L 497.91112 223.51781 
L 498.342474 219.247141 
L 498.773829 221.382476 
L 499.205183 224.799011 
L 499.636538 222.663676 
L 500.067892 219.247141 
L 501.361955 237.611017 
L 501.793309 241.454619 
L 502.224664 238.465151 
L 502.656018 227.361412 
L 503.087372 223.090743 
L 503.518727 220.528342 
L 503.950081 221.382476 
L 504.381436 225.653145 
L 504.81279 237.183951 
L 505.244144 241.454619 
L 505.675499 243.589954 
L 506.106853 243.589954 
L 506.538207 241.454619 
L 506.969562 235.90275 
L 507.83227 206.008068 
L 508.263625 199.174998 
L 508.694979 203.0186 
L 509.126333 209.424603 
L 509.557688 225.226078 
L 509.989042 236.756884 
L 510.420397 236.756884 
L 511.283105 234.194482 
L 511.71446 231.632081 
L 512.145814 230.35088 
L 512.577168 234.194482 
L 513.439877 227.788479 
L 513.871231 230.35088 
L 514.302586 234.621549 
L 514.73394 237.611017 
L 515.165295 241.881686 
L 515.596649 247.433556 
L 516.028003 248.714756 
L 516.459358 249.141823 
L 516.890712 245.298221 
L 517.322066 229.923813 
L 518.184775 99.668413 
L 518.616129 87.71054 
L 519.047484 86.42934 
L 519.478838 93.26241 
L 520.341547 216.68474 
L 520.772901 224.799011 
L 521.204256 223.944877 
L 521.63561 222.236609 
L 522.066964 222.663676 
L 522.498319 219.674208 
L 522.929673 217.538874 
L 523.361027 219.247141 
L 523.792382 223.944877 
L 524.223736 222.663676 
L 526.380508 249.141823 
L 526.811862 249.141823 
L 527.243217 244.444088 
L 528.105925 231.632081 
L 528.53728 222.236609 
L 528.968634 216.257673 
L 529.399988 220.528342 
L 529.831343 220.955409 
L 530.694051 227.361412 
L 531.125406 227.788479 
L 531.55676 224.799011 
L 531.988115 222.663676 
L 532.419469 210.278737 
L 532.850823 201.310332 
L 533.282178 199.602065 
L 533.713532 193.623128 
L 534.144886 195.758463 
L 535.007595 223.944877 
L 536.301658 245.725288 
L 536.733013 247.006489 
L 537.164367 247.860623 
L 537.595721 247.006489 
L 538.027076 234.194482 
L 538.889784 223.944877 
L 539.321139 223.090743 
L 539.752493 219.247141 
L 540.183847 232.059148 
L 541.046556 243.589954 
L 541.47791 244.871154 
L 541.909265 247.860623 
L 542.771974 243.162887 
L 543.634682 232.059148 
L 544.066037 227.788479 
L 544.928745 230.35088 
L 545.791454 242.308753 
L 546.222808 247.860623 
L 546.654163 249.141823 
L 547.085517 249.56889 
L 547.516872 249.141823 
L 548.37958 231.632081 
L 548.810935 217.111807 
L 549.673643 210.705804 
L 550.536352 216.257673 
L 550.967706 227.361412 
L 551.830415 222.663676 
L 552.261769 221.809543 
L 552.693124 217.965941 
L 553.555833 189.352459 
L 553.987187 183.373523 
L 554.418541 184.227657 
L 554.849896 190.63366 
L 556.143959 238.892218 
L 557.006667 247.860623 
L 557.869376 248.714756 
L 558.300731 246.579422 
L 558.732085 238.038084 
L 559.163439 224.799011 
L 560.457502 206.435135 
L 560.888857 211.559937 
L 561.320211 220.101275 
L 562.18292 222.663676 
L 562.614274 220.528342 
L 563.045628 215.830606 
L 563.476983 212.841138 
L 563.908337 212.414071 
L 564.339692 212.414071 
L 564.771046 214.122339 
L 565.2024 218.393008 
L 566.927818 244.017021 
L 567.359172 247.433556 
L 567.790526 248.714756 
L 568.221881 247.860623 
L 568.653235 242.308753 
L 570.378653 203.0186 
L 570.810007 131.69843 
L 571.241361 107.355617 
L 571.672716 112.907487 
L 572.10407 115.042821 
L 572.535424 120.594691 
L 572.966779 191.914861 
L 573.398133 220.528342 
L 573.829487 220.528342 
L 574.260842 219.674208 
L 575.123551 218.820074 
L 575.554905 218.820074 
L 575.986259 223.51781 
L 576.417614 229.923813 
L 576.417614 229.923813 
" style="fill:none;stroke:#000000;stroke-linecap:square;stroke-width:1.5;"/>
   </g>
   <g id="line2d_17">
    <path clip-path="url(#pc9d9803bc6)" d="M 69.144886 213.652168 
L 69.576241 207.130732 
L 70.007595 209.351428 
L 70.438949 214.905874 
L 70.870304 216.246267 
L 71.301658 220.814572 
L 72.164367 233.638311 
L 72.595721 239.672628 
L 73.027076 247.289944 
L 73.45843 246.593497 
L 73.889784 244.541346 
L 74.321139 243.802767 
L 74.752493 236.897314 
L 75.183847 221.48293 
L 75.615202 214.533535 
L 76.046556 219.478609 
L 76.47791 197.745373 
L 76.909265 206.070982 
L 77.340619 221.542501 
L 77.771974 223.788576 
L 78.203328 203.830119 
L 78.634682 217.244828 
L 79.497391 204.636889 
L 79.928745 202.635228 
L 80.3601 212.616843 
L 80.791454 217.793642 
L 81.654163 212.142225 
L 82.085517 220.53608 
L 82.516872 226.756312 
L 82.948226 228.980766 
L 83.810935 246.422247 
L 84.242289 242.813633 
L 85.104998 240.05982 
L 85.967706 230.350483 
L 86.399061 231.587544 
L 86.830415 226.706311 
L 87.261769 227.539653 
L 87.693124 230.901301 
L 88.124478 221.228365 
L 88.987187 208.326317 
L 89.849896 205.110648 
L 90.28125 202.326011 
L 90.712604 191.724799 
L 91.575313 200.648077 
L 92.006667 208.313303 
L 93.300731 246.724168 
L 93.732085 251.066012 
L 94.163439 247.85117 
L 94.594794 245.744523 
L 95.026148 247.434332 
L 95.457502 243.38676 
L 96.320211 208.342551 
L 96.751565 207.43972 
L 97.18292 207.168075 
L 97.614274 204.069761 
L 98.476983 223.277748 
L 99.339692 227.829355 
L 100.2024 236.655897 
L 100.633755 237.064701 
L 101.065109 234.549062 
L 101.496463 225.533885 
L 101.927818 225.417758 
L 102.359172 227.003427 
L 103.221881 235.344164 
L 103.653235 244.111271 
L 104.08459 247.828525 
L 104.515944 249.379588 
L 104.947298 247.751192 
L 105.378653 248.949278 
L 105.810007 241.078781 
L 106.672716 200.709767 
L 107.10407 105.542725 
L 107.535424 50.352569 
L 107.966779 95.405522 
L 108.398133 120.929675 
L 108.829487 134.001618 
L 109.260842 207.356411 
L 109.692196 244.339019 
L 110.123551 228.1938 
L 110.554905 226.415041 
L 110.986259 221.529067 
L 111.417614 225.950503 
L 111.848968 222.772571 
L 112.280322 222.855612 
L 113.143031 235.583821 
L 113.574385 237.65921 
L 114.00574 240.88038 
L 114.437094 244.960147 
L 114.868449 247.118535 
L 115.299803 247.949224 
L 115.731157 246.946414 
L 116.162512 237.386731 
L 116.593866 240.040255 
L 117.02522 241.442739 
L 117.456575 240.268664 
L 117.887929 230.212697 
L 118.319283 234.333975 
L 118.750638 228.211189 
L 119.613346 229.155907 
L 120.044701 227.179319 
L 120.476055 226.07615 
L 120.90741 230.665459 
L 122.201473 193.55451 
L 122.632827 203.532739 
L 123.064181 207.143141 
L 123.495536 215.618351 
L 123.92689 228.256732 
L 124.358244 251.035459 
L 125.220953 241.627464 
L 125.652308 242.467017 
L 126.083662 242.095928 
L 126.515016 232.917052 
L 126.946371 226.989898 
L 127.377725 227.422203 
L 127.809079 225.114721 
L 128.240434 227.133071 
L 128.671788 231.573054 
L 129.103142 242.075707 
L 129.534497 239.520832 
L 129.965851 235.377233 
L 130.397205 221.4799 
L 130.82856 218.739588 
L 131.259914 214.425567 
L 131.691269 216.164428 
L 132.122623 211.322759 
L 132.985332 226.224305 
L 133.416686 230.401212 
L 133.84804 231.735232 
L 134.279395 243.135972 
L 134.710749 245.290259 
L 135.142103 248.109289 
L 135.573458 248.485061 
L 136.004812 247.097481 
L 136.436167 245.290644 
L 136.867521 236.920205 
L 137.298875 223.404719 
L 137.73023 229.061758 
L 138.161584 230.984991 
L 138.592938 230.029783 
L 139.024293 225.464201 
L 139.455647 227.840473 
L 139.887001 217.715234 
L 140.318356 219.453523 
L 140.74971 220.47248 
L 141.181064 231.221763 
L 141.612419 233.302538 
L 142.043773 231.853996 
L 142.475128 215.555184 
L 142.906482 209.160674 
L 143.337836 207.629119 
L 144.200545 221.4792 
L 144.631899 233.764912 
L 145.063254 242.721457 
L 145.494608 247.935815 
L 145.925962 249.336985 
L 146.357317 248.45251 
L 146.788671 248.838748 
L 147.220026 246.669245 
L 147.65138 236.026805 
L 148.082734 222.287778 
L 148.514089 219.736769 
L 148.945443 185.623983 
L 149.376797 76.857128 
L 149.808152 94.884632 
L 150.239506 135.195809 
L 150.67086 133.321456 
L 151.102215 159.0611 
L 151.533569 235.69366 
L 151.964923 228.506797 
L 152.396278 217.635298 
L 152.827632 220.657438 
L 153.258987 215.388771 
L 153.690341 211.84314 
L 155.415758 235.866348 
L 155.847113 246.641996 
L 156.278467 246.174871 
L 156.709821 246.753333 
L 157.141176 246.65899 
L 157.57253 237.703938 
L 158.003885 216.507182 
L 158.435239 208.958585 
L 158.866593 212.257658 
L 159.297948 201.54443 
L 159.729302 199.597796 
L 160.160656 214.305908 
L 160.592011 219.240253 
L 161.023365 216.756108 
L 161.454719 223.763077 
L 161.886074 224.450742 
L 162.317428 224.127041 
L 162.748782 221.430454 
L 163.180137 216.189833 
L 163.611491 212.688531 
L 164.042846 210.673169 
L 164.4742 213.960189 
L 164.905554 220.004786 
L 165.768263 235.029847 
L 166.199617 247.32008 
L 166.630972 249.214164 
L 167.062326 247.468675 
L 167.49368 244.572239 
L 167.925035 238.030585 
L 168.356389 214.222899 
L 168.787744 213.646746 
L 169.219098 196.50421 
L 169.650452 185.586545 
L 170.081807 184.648204 
L 170.513161 203.355259 
L 170.944515 204.043554 
L 171.37587 217.581982 
L 172.238578 229.686819 
L 172.669933 224.932971 
L 173.532641 220.176787 
L 173.963996 221.718218 
L 174.39535 218.034072 
L 174.826705 227.808078 
L 175.689413 238.327446 
L 176.552122 251.486102 
L 176.983476 248.402205 
L 177.414831 247.80354 
L 177.846185 247.975096 
L 178.277539 238.104354 
L 179.140248 213.627738 
L 179.571603 206.171683 
L 180.002957 210.459473 
L 180.434311 211.793521 
L 181.29702 224.23499 
L 181.728374 226.503256 
L 182.159729 214.520578 
L 183.022437 212.852482 
L 183.885146 214.808915 
L 184.747855 196.964077 
L 185.179209 209.874717 
L 185.610564 216.830278 
L 186.041918 220.843973 
L 186.904627 255.990852 
L 187.335981 250.126812 
L 187.767335 247.120123 
L 188.19869 246.616709 
L 188.630044 231.046803 
L 189.061398 209.805415 
L 189.492753 209.93971 
L 189.924107 205.32309 
L 190.355462 206.903627 
L 190.786816 213.175113 
L 191.21817 226.869396 
L 191.649525 220.129676 
L 192.080879 216.003412 
L 192.512233 210.237007 
L 192.943588 215.715068 
L 193.374942 211.356373 
L 193.806296 211.087178 
L 194.669005 216.424847 
L 195.100359 221.036109 
L 195.963068 236.52068 
L 196.394423 243.368747 
L 196.825777 246.309204 
L 197.257131 243.353849 
L 197.688486 241.264826 
L 198.11984 241.274455 
L 198.551194 240.040029 
L 199.413903 212.430117 
L 199.845257 179.893789 
L 200.276612 132.286627 
L 200.707966 33.445398 
L 201.139321 80.112005 
L 202.433384 177.345778 
L 202.864738 249.405068 
L 203.296092 221.950668 
L 204.158801 212.774481 
L 204.590155 216.009266 
L 205.02151 210.611402 
L 206.746927 236.103033 
L 207.178282 248.847565 
L 207.609636 249.30733 
L 208.04099 248.512667 
L 208.472345 248.081342 
L 208.903699 241.530928 
L 209.335053 231.088047 
L 209.766408 214.35083 
L 210.629116 207.737602 
L 211.060471 209.108096 
L 211.491825 208.180484 
L 211.923179 214.34593 
L 212.354534 210.927275 
L 212.785888 205.045152 
L 213.217243 205.805313 
L 213.648597 210.233367 
L 214.079951 213.394378 
L 214.511306 213.985173 
L 214.94266 216.612153 
L 215.374014 217.880966 
L 215.805369 222.025678 
L 217.530786 245.585667 
L 217.962141 249.027027 
L 218.393495 246.561815 
L 218.824849 244.905845 
L 219.256204 232.312361 
L 220.118912 214.668135 
L 220.981621 206.621686 
L 221.412975 213.699789 
L 221.84433 213.943229 
L 222.275684 216.651545 
L 222.707038 218.617212 
L 223.138393 218.118723 
L 223.569747 216.834854 
L 224.001102 217.533083 
L 224.86381 216.154787 
L 225.295165 216.066967 
L 225.726519 215.375324 
L 226.157873 215.608309 
L 226.589228 216.803811 
L 227.020582 223.370742 
L 227.451936 227.021825 
L 228.746 247.852309 
L 229.177354 245.692562 
L 230.471417 221.61564 
L 230.902771 220.272403 
L 231.334126 215.717194 
L 231.76548 223.99363 
L 232.196834 222.631104 
L 232.628189 223.151312 
L 233.059543 217.822801 
L 233.490897 218.561083 
L 233.922252 211.03026 
L 234.353606 215.957446 
L 234.784961 214.819708 
L 235.216315 219.587417 
L 235.647669 218.168043 
L 236.079024 220.855593 
L 236.510378 221.006218 
L 236.941732 229.02879 
L 237.373087 232.040484 
L 238.66715 250.630779 
L 239.098504 248.379165 
L 239.529859 248.121103 
L 239.961213 248.347896 
L 240.392567 241.652165 
L 241.255276 224.244478 
L 241.68663 219.808088 
L 242.117985 216.98397 
L 242.549339 217.844584 
L 242.980693 220.398743 
L 243.412048 220.34719 
L 244.274756 191.908808 
L 244.706111 190.690046 
L 245.137465 195.727554 
L 245.56882 196.316339 
L 246.000174 203.497414 
L 246.431528 215.840887 
L 246.862883 219.407035 
L 247.294237 216.940505 
L 247.725591 221.556731 
L 248.156946 229.791418 
L 248.5883 234.11642 
L 249.451009 246.656807 
L 249.882363 247.741754 
L 250.313718 247.572175 
L 251.176426 231.538113 
L 252.039135 225.386423 
L 252.470489 215.648185 
L 252.901844 216.14899 
L 253.333198 213.472614 
L 253.764552 201.495861 
L 254.195907 200.736731 
L 254.627261 154.321882 
L 255.058615 128.683435 
L 255.48997 149.850808 
L 255.921324 159.826753 
L 256.352679 158.846156 
L 256.784033 198.019442 
L 257.215387 224.75117 
L 257.646742 224.427253 
L 258.940805 246.207966 
L 259.372159 246.137286 
L 259.803513 246.836219 
L 260.234868 246.425394 
L 260.666222 246.763305 
L 261.097577 233.514997 
L 261.528931 227.89859 
L 261.960285 225.439439 
L 262.822994 195.493825 
L 263.254348 193.685305 
L 263.685703 199.744641 
L 264.117057 196.412419 
L 264.979766 209.388097 
L 265.41112 217.300976 
L 265.842474 213.2541 
L 266.273829 213.349691 
L 266.705183 215.759271 
L 267.136538 214.981889 
L 267.567892 221.503898 
L 268.430601 231.040108 
L 269.293309 243.533948 
L 269.724664 239.282034 
L 270.156018 239.320847 
L 270.587372 238.963011 
L 271.018727 236.021402 
L 272.31279 212.525847 
L 272.744144 211.446306 
L 273.175499 212.760569 
L 273.606853 212.267095 
L 274.038207 216.02949 
L 274.469562 217.646174 
L 274.900916 213.181082 
L 275.33227 203.205456 
L 275.763625 206.344549 
L 276.194979 200.026913 
L 276.626333 181.178582 
L 277.057688 186.279193 
L 277.489042 194.631868 
L 277.920397 200.01941 
L 278.351751 212.842999 
L 278.783105 235.360917 
L 279.21446 237.446828 
L 280.077168 249.890282 
L 280.508523 247.686514 
L 280.939877 246.285238 
L 281.371231 240.391771 
L 282.23394 221.286142 
L 283.096649 227.930396 
L 283.528003 225.220207 
L 283.959358 225.605598 
L 284.390712 224.559378 
L 284.822066 211.37346 
L 285.253421 205.917284 
L 285.684775 211.969404 
L 286.547484 214.87506 
L 286.978838 216.800114 
L 287.410192 214.974749 
L 287.841547 213.753187 
L 289.998319 242.912435 
L 290.429673 245.14932 
L 290.861027 244.609664 
L 291.723736 242.805952 
L 292.586445 228.535612 
L 293.017799 224.839881 
L 293.449154 213.207549 
L 293.880508 212.408403 
L 294.311862 213.40141 
L 294.743217 205.625593 
L 295.174571 121.374746 
L 296.03728 153.938501 
L 296.468634 160.95555 
L 296.899988 159.166255 
L 297.331343 212.156957 
L 297.762697 201.211489 
L 298.625406 191.203591 
L 299.919469 229.859326 
L 300.350823 234.907064 
L 300.782178 241.267553 
L 301.213532 239.438326 
L 301.644886 239.018023 
L 302.076241 238.2326 
L 302.507595 226.514596 
L 303.370304 209.01409 
L 304.233013 208.570056 
L 304.664367 211.544633 
L 305.095721 220.589568 
L 305.527076 222.714616 
L 305.95843 215.145566 
L 306.389784 211.687952 
L 306.821139 215.785312 
L 307.252493 210.54602 
L 307.683847 212.025189 
L 308.115202 213.947397 
L 308.97791 220.245032 
L 310.271974 238.258329 
L 311.134682 248.910462 
L 311.997391 246.657813 
L 312.428745 246.644818 
L 313.291454 219.412406 
L 313.722808 209.906574 
L 314.154163 207.020301 
L 314.585517 210.262673 
L 315.016872 217.608602 
L 315.448226 218.740937 
L 315.87958 222.158217 
L 316.310935 221.048359 
L 316.742289 206.239407 
L 317.173643 199.889054 
L 317.604998 190.292481 
L 318.036352 191.058172 
L 318.467706 194.747072 
L 318.899061 201.294963 
L 319.330415 203.702455 
L 319.761769 218.605935 
L 320.193124 224.825836 
L 320.624478 226.371054 
L 321.055833 231.366666 
L 321.487187 240.995492 
L 321.918541 243.022961 
L 322.349896 242.506934 
L 322.78125 241.524364 
L 323.212604 237.384284 
L 324.075313 196.880813 
L 324.506667 99.522106 
L 324.938022 97.205215 
L 325.800731 145.585095 
L 326.232085 156.557368 
L 326.663439 236.857999 
L 327.094794 227.785525 
L 327.526148 205.468643 
L 327.957502 203.574791 
L 328.388857 205.110374 
L 328.820211 205.685897 
L 329.251565 208.433661 
L 330.114274 223.24612 
L 330.976983 231.209917 
L 331.839692 244.157014 
L 332.271046 241.382242 
L 333.133755 242.520784 
L 333.565109 228.958225 
L 333.996463 207.518739 
L 334.859172 212.107587 
L 335.290526 210.650985 
L 336.153235 232.132631 
L 336.58459 222.69219 
L 337.447298 212.328442 
L 337.878653 213.072389 
L 338.310007 214.775779 
L 338.741361 217.436016 
L 339.172716 217.477635 
L 339.60407 218.651952 
L 340.035424 221.210801 
L 340.466779 228.443827 
L 340.898133 233.330879 
L 341.329487 239.57242 
L 341.760842 243.788306 
L 342.192196 244.597198 
L 342.623551 242.916056 
L 343.054905 241.928742 
L 343.486259 239.847677 
L 343.917614 233.353309 
L 344.348968 212.092276 
L 344.780322 213.045336 
L 345.211677 217.467109 
L 345.643031 205.047035 
L 346.074385 200.403834 
L 346.50574 200.577897 
L 346.937094 194.545034 
L 347.368449 190.468077 
L 348.231157 209.592794 
L 348.662512 222.709131 
L 349.52522 221.793425 
L 349.956575 223.299939 
L 350.387929 226.119926 
L 351.250638 236.958165 
L 351.681992 240.700364 
L 352.113346 246.504576 
L 352.544701 247.998476 
L 352.976055 247.244691 
L 353.838764 246.541394 
L 354.701473 222.017075 
L 355.132827 219.770859 
L 355.564181 207.936598 
L 355.995536 207.341526 
L 356.42689 122.354337 
L 356.858244 131.381873 
L 357.289599 151.578782 
L 357.720953 159.109567 
L 358.152308 157.349214 
L 358.583662 231.32352 
L 359.015016 227.830663 
L 359.446371 218.279727 
L 359.877725 219.361139 
L 360.309079 219.464055 
L 360.740434 216.845049 
L 361.171788 225.961099 
L 362.034497 235.556368 
L 362.465851 242.00127 
L 362.897205 251.417876 
L 363.32856 246.753884 
L 363.759914 246.721387 
L 364.191269 244.751424 
L 364.622623 230.687586 
L 365.053977 222.931361 
L 365.485332 225.041422 
L 365.916686 224.995851 
L 366.34804 221.578437 
L 366.779395 226.112341 
L 367.210749 228.2518 
L 368.073458 203.401702 
L 369.367521 185.85945 
L 369.798875 197.418477 
L 370.661584 206.936757 
L 371.524293 230.309341 
L 371.955647 231.201475 
L 372.387001 236.145111 
L 372.818356 244.787303 
L 373.24971 243.117183 
L 373.681064 244.02004 
L 374.112419 243.346595 
L 374.543773 241.48565 
L 375.406482 216.145961 
L 375.837836 200.293168 
L 376.269191 101.437837 
L 376.700545 94.164977 
L 377.131899 135.128824 
L 377.994608 163.118005 
L 378.425962 246.557516 
L 378.857317 247.417621 
L 379.288671 237.088603 
L 379.720026 241.591588 
L 380.15138 240.982035 
L 381.014089 232.104322 
L 381.876797 216.269004 
L 382.308152 216.863052 
L 383.17086 229.479598 
L 384.033569 246.671571 
L 384.464923 248.881309 
L 385.327632 240.215402 
L 385.758987 238.000608 
L 386.190341 238.644077 
L 386.621695 237.548578 
L 387.484404 246.618787 
L 387.915758 242.26573 
L 388.347113 231.170935 
L 389.641176 210.534998 
L 390.07253 211.073483 
L 390.503885 212.631645 
L 390.935239 212.886426 
L 391.366593 214.950064 
L 391.797948 215.641923 
L 392.229302 215.209045 
L 392.660656 224.338618 
L 394.386074 250.82583 
L 394.817428 247.197676 
L 395.248782 247.118567 
L 396.111491 230.504006 
L 396.542846 204.035212 
L 396.9742 167.3736 
L 397.405554 161.215167 
L 397.836909 178.20503 
L 398.268263 180.897919 
L 398.699617 193.211769 
L 399.130972 218.503027 
L 399.562326 219.603129 
L 399.99368 207.370252 
L 400.425035 205.870103 
L 400.856389 208.9923 
L 401.287744 210.053756 
L 401.719098 214.890613 
L 402.150452 215.814241 
L 402.581807 219.675307 
L 403.013161 227.75026 
L 404.738578 250.6992 
L 405.169933 246.982134 
L 405.601287 247.366023 
L 406.463996 226.912199 
L 406.89535 227.654014 
L 407.326705 226.409886 
L 407.758059 223.625981 
L 408.189413 227.458003 
L 408.620768 223.96003 
L 409.052122 214.054405 
L 409.483476 207.717448 
L 409.914831 205.375808 
L 410.777539 214.662955 
L 411.208894 215.553122 
L 411.640248 217.016667 
L 412.071603 217.139259 
L 412.502957 220.810646 
L 413.365666 234.465232 
L 414.228374 245.934978 
L 414.659729 242.457411 
L 415.091083 242.406462 
L 415.522437 241.525758 
L 415.953792 242.025207 
L 416.385146 235.002791 
L 416.8165 222.999975 
L 417.247855 214.571094 
L 417.679209 210.281363 
L 418.110564 212.548528 
L 418.541918 200.889169 
L 418.973272 204.907102 
L 419.404627 213.464755 
L 419.835981 214.395536 
L 420.267335 205.597033 
L 420.69869 215.979656 
L 421.130044 222.182845 
L 421.561398 215.597981 
L 421.992753 212.379174 
L 422.424107 214.789836 
L 422.855462 220.278143 
L 423.286816 220.750082 
L 423.71817 225.789703 
L 424.580879 239.210874 
L 425.012233 245.180907 
L 425.443588 245.273007 
L 425.874942 244.427545 
L 426.306296 237.751911 
L 427.169005 216.452664 
L 427.600359 217.203623 
L 428.031714 220.8682 
L 428.463068 200.813147 
L 428.894423 190.714903 
L 429.325777 187.908159 
L 429.757131 188.94405 
L 430.188486 182.774239 
L 430.61984 207.755758 
L 431.051194 217.581066 
L 431.482549 224.024902 
L 431.913903 216.942567 
L 432.345257 216.287001 
L 432.776612 211.825124 
L 433.207966 221.718422 
L 434.502029 242.478141 
L 434.933384 248.082224 
L 435.364738 248.982392 
L 435.796092 245.436948 
L 436.227447 245.867245 
L 436.658801 241.867815 
L 437.090155 229.88894 
L 437.52151 223.024011 
L 437.952864 224.527635 
L 438.384218 217.038425 
L 438.815573 218.719421 
L 439.678282 217.452383 
L 440.109636 210.998263 
L 440.54099 220.634872 
L 440.972345 221.811161 
L 441.403699 230.522512 
L 441.835053 227.477021 
L 442.266408 220.333501 
L 442.697762 208.437244 
L 443.129116 203.504471 
L 443.560471 203.780685 
L 445.285888 241.303248 
L 445.717243 247.527247 
L 446.148597 245.510106 
L 446.579951 246.0641 
L 447.011306 239.55969 
L 447.44266 227.37304 
L 447.874014 222.876702 
L 448.305369 221.431752 
L 448.736723 209.427425 
L 449.168077 206.86183 
L 449.599432 211.070492 
L 450.030786 216.483006 
L 450.462141 214.850782 
L 451.756204 243.09771 
L 452.187558 242.18183 
L 452.618912 240.960768 
L 453.481621 225.073133 
L 453.912975 221.206996 
L 454.34433 223.689008 
L 454.775684 227.974762 
L 455.638393 240.546663 
L 456.069747 247.417029 
L 456.501102 247.708106 
L 456.932456 247.329174 
L 457.36381 240.151032 
L 457.795165 225.338981 
L 458.226519 215.281388 
L 458.657873 215.082431 
L 459.089228 208.184748 
L 459.520582 210.905562 
L 459.951936 216.451932 
L 460.383291 228.762761 
L 460.814645 228.846534 
L 461.246 234.908823 
L 461.677354 237.183411 
L 462.108708 249.102578 
L 462.540063 247.334599 
L 462.971417 247.498705 
L 463.402771 246.842159 
L 463.834126 247.846254 
L 464.26548 248.11885 
L 464.696834 247.098919 
L 465.990897 247.739588 
L 466.422252 248.304918 
L 466.853606 248.600574 
L 467.284961 247.512594 
L 467.716315 247.427622 
L 468.147669 246.716974 
L 468.579024 245.579055 
L 469.010378 245.212366 
L 469.873087 246.334873 
L 470.304441 246.611564 
L 470.735795 246.153345 
L 471.16715 246.631642 
L 472.029859 203.893356 
L 472.461213 97.256774 
L 472.892567 101.833665 
L 473.323922 122.74244 
L 473.755276 136.065421 
L 474.18663 137.40085 
L 474.617985 200.905237 
L 475.049339 206.949644 
L 475.480693 208.045763 
L 475.912048 213.816666 
L 476.343402 229.058936 
L 476.774756 252.209519 
L 477.206111 249.671469 
L 477.637465 246.241933 
L 478.931528 212.764368 
L 479.362883 213.745309 
L 479.794237 211.263583 
L 481.0883 232.71117 
L 481.519654 232.235073 
L 481.951009 230.547175 
L 482.382363 225.176055 
L 482.813718 228.547767 
L 483.245072 220.636571 
L 484.107781 239.565357 
L 484.539135 247.385003 
L 484.970489 248.693399 
L 485.401844 246.662353 
L 485.833198 245.608446 
L 486.264552 237.419444 
L 486.695907 225.473842 
L 487.127261 220.564482 
L 487.558615 221.318744 
L 487.98997 220.229632 
L 488.421324 223.251262 
L 488.852679 223.16831 
L 489.284033 226.012779 
L 489.715387 223.657851 
L 490.146742 214.991989 
L 490.578096 217.217509 
L 491.00945 220.107956 
L 491.440805 214.908286 
L 491.872159 217.788226 
L 492.303513 222.704822 
L 492.734868 219.740568 
L 493.597577 226.354375 
L 494.028931 227.79171 
L 494.460285 231.019572 
L 494.89164 239.602741 
L 495.754348 248.579688 
L 496.185703 247.193278 
L 496.617057 240.735263 
L 497.048411 223.963962 
L 497.479766 215.059311 
L 497.91112 216.466428 
L 498.342474 219.434749 
L 498.773829 214.427934 
L 499.205183 219.613407 
L 499.636538 223.070359 
L 500.499246 211.715552 
L 500.930601 221.96157 
L 501.793309 233.843302 
L 502.224664 236.006816 
L 502.656018 230.513775 
L 503.087372 217.030547 
L 503.518727 216.841822 
L 503.950081 217.209808 
L 504.381436 220.026098 
L 504.81279 225.216789 
L 505.244144 237.934943 
L 506.106853 240.406134 
L 506.538207 239.054939 
L 506.969562 235.715714 
L 507.400916 227.661574 
L 507.83227 207.220608 
L 508.263625 194.587996 
L 508.694979 195.541642 
L 509.126333 206.700718 
L 509.557688 214.270933 
L 509.989042 230.835239 
L 510.420397 237.033108 
L 510.851751 231.277357 
L 511.283105 228.17566 
L 511.71446 227.153062 
L 512.145814 223.678292 
L 512.577168 223.437804 
L 513.008523 229.19101 
L 513.439877 224.45876 
L 513.871231 221.96008 
L 514.73394 232.400814 
L 515.165295 234.948435 
L 516.028003 245.767337 
L 516.459358 245.539574 
L 516.890712 245.458107 
L 517.322066 238.54112 
L 517.753421 215.41513 
L 518.184775 133.238434 
L 518.616129 77.615591 
L 519.478838 115.694183 
L 519.910192 126.547708 
L 520.341547 195.030967 
L 520.772901 238.650606 
L 521.204256 226.177079 
L 521.63561 218.9591 
L 522.066964 216.231242 
L 522.498319 216.580646 
L 522.929673 212.191163 
L 523.361027 211.377494 
L 523.792382 215.450099 
L 524.223736 222.093739 
L 524.65509 220.222154 
L 525.517799 234.047032 
L 525.949154 238.043061 
L 526.811862 248.734442 
L 527.243217 246.274448 
L 528.968634 211.088801 
L 529.399988 208.844915 
L 529.831343 220.404636 
L 530.262697 220.391813 
L 531.125406 225.084989 
L 531.55676 222.894381 
L 531.988115 217.682715 
L 532.419469 216.604771 
L 532.850823 201.508022 
L 533.282178 196.397636 
L 533.713532 199.736069 
L 534.144886 197.073935 
L 534.576241 202.148748 
L 535.007595 218.945577 
L 535.438949 229.724706 
L 535.870304 234.224159 
L 536.301658 242.657641 
L 536.733013 246.406936 
L 537.164367 245.795191 
L 537.595721 246.067017 
L 538.027076 243.641181 
L 538.45843 222.224751 
L 538.889784 220.149028 
L 539.321139 216.176278 
L 539.752493 219.056295 
L 540.183847 214.726224 
L 540.615202 234.627913 
L 541.046556 237.977008 
L 541.47791 243.213636 
L 541.909265 241.895726 
L 542.340619 246.33612 
L 542.771974 240.462187 
L 543.203328 237.61956 
L 543.634682 229.389846 
L 544.066037 224.994273 
L 544.497391 222.355966 
L 544.928745 227.705866 
L 545.3601 230.032211 
L 545.791454 238.293273 
L 546.654163 250.481711 
L 547.085517 249.457239 
L 547.516872 249.460627 
L 547.948226 248.69381 
L 549.242289 206.275687 
L 549.673643 210.428131 
L 550.104998 208.766685 
L 550.536352 213.87982 
L 550.967706 216.867863 
L 551.399061 232.47802 
L 551.830415 223.480677 
L 552.261769 218.9741 
L 552.693124 217.06934 
L 553.124478 212.474402 
L 553.555833 195.129389 
L 553.987187 184.744908 
L 554.418541 186.094344 
L 554.849896 192.821547 
L 555.28125 202.183978 
L 556.143959 236.027546 
L 556.575313 244.169039 
L 557.006667 246.349166 
L 557.438022 249.124365 
L 557.869376 247.311476 
L 558.300731 247.233968 
L 558.732085 242.809599 
L 559.594794 209.722075 
L 560.026148 208.350805 
L 560.457502 202.679418 
L 560.888857 201.584471 
L 561.751565 223.945838 
L 562.18292 219.814833 
L 562.614274 219.350391 
L 563.045628 215.101172 
L 563.476983 209.116114 
L 563.908337 207.720649 
L 564.771046 211.188127 
L 565.2024 215.167457 
L 565.633755 221.400589 
L 566.496463 235.327418 
L 567.359172 247.169344 
L 567.790526 249.239763 
L 568.221881 249.121896 
L 568.653235 246.132351 
L 569.08459 236.100068 
L 569.947298 209.571488 
L 570.378653 204.232642 
L 570.810007 194.633822 
L 571.241361 100.619962 
L 571.672716 98.708266 
L 572.10407 136.577554 
L 572.535424 142.959152 
L 572.966779 147.015917 
L 573.398133 231.39544 
L 573.829487 232.165472 
L 574.260842 218.570903 
L 574.692196 215.097997 
L 575.554905 216.687322 
L 575.986259 218.190787 
L 576.417614 225.162589 
L 576.417614 225.162589 
" style="fill:none;stroke:#008000;stroke-dasharray:5.55,2.4;stroke-dashoffset:0;stroke-width:1.5;"/>
   </g>
   <g id="patch_3">
    <path d="M 43.78125 267.118125 
L 43.78125 22.318125 
" style="fill:none;stroke:#000000;stroke-linecap:square;stroke-linejoin:miter;stroke-width:0.8;"/>
   </g>
   <g id="patch_4">
    <path d="M 601.78125 267.118125 
L 601.78125 22.318125 
" style="fill:none;stroke:#000000;stroke-linecap:square;stroke-linejoin:miter;stroke-width:0.8;"/>
   </g>
   <g id="patch_5">
    <path d="M 43.78125 267.118125 
L 601.78125 267.118125 
" style="fill:none;stroke:#000000;stroke-linecap:square;stroke-linejoin:miter;stroke-width:0.8;"/>
   </g>
   <g id="patch_6">
    <path d="M 43.78125 22.318125 
L 601.78125 22.318125 
" style="fill:none;stroke:#000000;stroke-linecap:square;stroke-linejoin:miter;stroke-width:0.8;"/>
   </g>
   <g id="text_17">
    <!-- Previsão de Consumo Casa 26 -->
    <g transform="translate(232.013438 16.318125)scale(0.12 -0.12)">
     <defs>
      <path d="M 2.984375 54.6875 
L 12.5 54.6875 
L 29.59375 8.796875 
L 46.6875 54.6875 
L 56.203125 54.6875 
L 35.6875 0 
L 23.484375 0 
z
" id="DejaVuSans-118"/>
      <path d="M 44.28125 53.078125 
L 44.28125 44.578125 
Q 40.484375 46.53125 36.375 47.5 
Q 32.28125 48.484375 27.875 48.484375 
Q 21.1875 48.484375 17.84375 46.4375 
Q 14.5 44.390625 14.5 40.28125 
Q 14.5 37.15625 16.890625 35.375 
Q 19.28125 33.59375 26.515625 31.984375 
L 29.59375 31.296875 
Q 39.15625 29.25 43.1875 25.515625 
Q 47.21875 21.78125 47.21875 15.09375 
Q 47.21875 7.46875 41.1875 3.015625 
Q 35.15625 -1.421875 24.609375 -1.421875 
Q 20.21875 -1.421875 15.453125 -0.5625 
Q 10.6875 0.296875 5.421875 2 
L 5.421875 11.28125 
Q 10.40625 8.6875 15.234375 7.390625 
Q 20.0625 6.109375 24.8125 6.109375 
Q 31.15625 6.109375 34.5625 8.28125 
Q 37.984375 10.453125 37.984375 14.40625 
Q 37.984375 18.0625 35.515625 20.015625 
Q 33.0625 21.96875 24.703125 23.78125 
L 21.578125 24.515625 
Q 13.234375 26.265625 9.515625 29.90625 
Q 5.8125 33.546875 5.8125 39.890625 
Q 5.8125 47.609375 11.28125 51.796875 
Q 16.75 56 26.8125 56 
Q 31.78125 56 36.171875 55.265625 
Q 40.578125 54.546875 44.28125 53.078125 
z
" id="DejaVuSans-115"/>
      <path d="M 34.28125 27.484375 
Q 23.390625 27.484375 19.1875 25 
Q 14.984375 22.515625 14.984375 16.5 
Q 14.984375 11.71875 18.140625 8.90625 
Q 21.296875 6.109375 26.703125 6.109375 
Q 34.1875 6.109375 38.703125 11.40625 
Q 43.21875 16.703125 43.21875 25.484375 
L 43.21875 27.484375 
z
M 52.203125 31.203125 
L 52.203125 0 
L 43.21875 0 
L 43.21875 8.296875 
Q 40.140625 3.328125 35.546875 0.953125 
Q 30.953125 -1.421875 24.3125 -1.421875 
Q 15.921875 -1.421875 10.953125 3.296875 
Q 6 8.015625 6 15.921875 
Q 6 25.140625 12.171875 29.828125 
Q 18.359375 34.515625 30.609375 34.515625 
L 43.21875 34.515625 
L 43.21875 35.40625 
Q 43.21875 41.609375 39.140625 45 
Q 35.0625 48.390625 27.6875 48.390625 
Q 23 48.390625 18.546875 47.265625 
Q 14.109375 46.140625 10.015625 43.890625 
L 10.015625 52.203125 
Q 14.9375 54.109375 19.578125 55.046875 
Q 24.21875 56 28.609375 56 
Q 40.484375 56 46.34375 49.84375 
Q 52.203125 43.703125 52.203125 31.203125 
z
M 28.8125 66.890625 
L 26.03125 69.578125 
Q 24.953125 70.5625 24.140625 71.015625 
Q 23.34375 71.484375 22.703125 71.484375 
Q 20.84375 71.484375 19.96875 69.703125 
Q 19.09375 67.921875 19 63.921875 
L 12.890625 63.921875 
Q 12.984375 70.515625 15.46875 74.09375 
Q 17.96875 77.6875 22.40625 77.6875 
Q 24.265625 77.6875 25.828125 77 
Q 27.390625 76.3125 29.203125 74.703125 
L 31.984375 72.015625 
Q 33.0625 71.046875 33.859375 70.578125 
Q 34.671875 70.125 35.296875 70.125 
Q 37.15625 70.125 38.03125 71.90625 
Q 38.921875 73.6875 39.015625 77.6875 
L 45.125 77.6875 
Q 45.015625 71.09375 42.53125 67.5 
Q 40.046875 63.921875 35.59375 63.921875 
Q 33.734375 63.921875 32.171875 64.59375 
Q 30.609375 65.28125 28.8125 66.890625 
z
" id="DejaVuSans-227"/>
      <path d="M 64.40625 67.28125 
L 64.40625 56.890625 
Q 59.421875 61.53125 53.78125 63.8125 
Q 48.140625 66.109375 41.796875 66.109375 
Q 29.296875 66.109375 22.65625 58.46875 
Q 16.015625 50.828125 16.015625 36.375 
Q 16.015625 21.96875 22.65625 14.328125 
Q 29.296875 6.6875 41.796875 6.6875 
Q 48.140625 6.6875 53.78125 8.984375 
Q 59.421875 11.28125 64.40625 15.921875 
L 64.40625 5.609375 
Q 59.234375 2.09375 53.4375 0.328125 
Q 47.65625 -1.421875 41.21875 -1.421875 
Q 24.65625 -1.421875 15.125 8.703125 
Q 5.609375 18.84375 5.609375 36.375 
Q 5.609375 53.953125 15.125 64.078125 
Q 24.65625 74.21875 41.21875 74.21875 
Q 47.75 74.21875 53.53125 72.484375 
Q 59.328125 70.75 64.40625 67.28125 
z
" id="DejaVuSans-67"/>
      <path d="M 8.5 21.578125 
L 8.5 54.6875 
L 17.484375 54.6875 
L 17.484375 21.921875 
Q 17.484375 14.15625 20.5 10.265625 
Q 23.53125 6.390625 29.59375 6.390625 
Q 36.859375 6.390625 41.078125 11.03125 
Q 45.3125 15.671875 45.3125 23.6875 
L 45.3125 54.6875 
L 54.296875 54.6875 
L 54.296875 0 
L 45.3125 0 
L 45.3125 8.40625 
Q 42.046875 3.421875 37.71875 1 
Q 33.40625 -1.421875 27.6875 -1.421875 
Q 18.265625 -1.421875 13.375 4.4375 
Q 8.5 10.296875 8.5 21.578125 
z
M 31.109375 56 
z
" id="DejaVuSans-117"/>
      <path d="M 52 44.1875 
Q 55.375 50.25 60.0625 53.125 
Q 64.75 56 71.09375 56 
Q 79.640625 56 84.28125 50.015625 
Q 88.921875 44.046875 88.921875 33.015625 
L 88.921875 0 
L 79.890625 0 
L 79.890625 32.71875 
Q 79.890625 40.578125 77.09375 44.375 
Q 74.3125 48.1875 68.609375 48.1875 
Q 61.625 48.1875 57.5625 43.546875 
Q 53.515625 38.921875 53.515625 30.90625 
L 53.515625 0 
L 44.484375 0 
L 44.484375 32.71875 
Q 44.484375 40.625 41.703125 44.40625 
Q 38.921875 48.1875 33.109375 48.1875 
Q 26.21875 48.1875 22.15625 43.53125 
Q 18.109375 38.875 18.109375 30.90625 
L 18.109375 0 
L 9.078125 0 
L 9.078125 54.6875 
L 18.109375 54.6875 
L 18.109375 46.1875 
Q 21.1875 51.21875 25.484375 53.609375 
Q 29.78125 56 35.6875 56 
Q 41.65625 56 45.828125 52.96875 
Q 50 49.953125 52 44.1875 
z
" id="DejaVuSans-109"/>
     </defs>
     <use xlink:href="#DejaVuSans-80"/>
     <use x="58.552734" xlink:href="#DejaVuSans-114"/>
     <use x="97.416016" xlink:href="#DejaVuSans-101"/>
     <use x="158.939453" xlink:href="#DejaVuSans-118"/>
     <use x="218.119141" xlink:href="#DejaVuSans-105"/>
     <use x="245.902344" xlink:href="#DejaVuSans-115"/>
     <use x="298.001953" xlink:href="#DejaVuSans-227"/>
     <use x="359.28125" xlink:href="#DejaVuSans-111"/>
     <use x="420.462891" xlink:href="#DejaVuSans-32"/>
     <use x="452.25" xlink:href="#DejaVuSans-100"/>
     <use x="515.726562" xlink:href="#DejaVuSans-101"/>
     <use x="577.25" xlink:href="#DejaVuSans-32"/>
     <use x="609.037109" xlink:href="#DejaVuSans-67"/>
     <use x="678.861328" xlink:href="#DejaVuSans-111"/>
     <use x="740.042969" xlink:href="#DejaVuSans-110"/>
     <use x="803.421875" xlink:href="#DejaVuSans-115"/>
     <use x="855.521484" xlink:href="#DejaVuSans-117"/>
     <use x="918.900391" xlink:href="#DejaVuSans-109"/>
     <use x="1016.3125" xlink:href="#DejaVuSans-111"/>
     <use x="1077.494141" xlink:href="#DejaVuSans-32"/>
     <use x="1109.28125" xlink:href="#DejaVuSans-67"/>
     <use x="1179.105469" xlink:href="#DejaVuSans-97"/>
     <use x="1240.384766" xlink:href="#DejaVuSans-115"/>
     <use x="1292.484375" xlink:href="#DejaVuSans-97"/>
     <use x="1353.763672" xlink:href="#DejaVuSans-32"/>
     <use x="1385.550781" xlink:href="#DejaVuSans-50"/>
     <use x="1449.173828" xlink:href="#DejaVuSans-54"/>
    </g>
   </g>
   <g id="legend_1">
    <g id="patch_7">
     <path d="M 522.942188 59.674375 
L 594.78125 59.674375 
Q 596.78125 59.674375 596.78125 57.674375 
L 596.78125 29.318125 
Q 596.78125 27.318125 594.78125 27.318125 
L 522.942188 27.318125 
Q 520.942188 27.318125 520.942188 29.318125 
L 520.942188 57.674375 
Q 520.942188 59.674375 522.942188 59.674375 
z
" style="fill:#ffffff;opacity:0.8;stroke:#cccccc;stroke-linejoin:miter;"/>
    </g>
    <g id="line2d_18">
     <path d="M 524.942188 35.416562 
L 544.942188 35.416562 
" style="fill:none;stroke:#000000;stroke-linecap:square;stroke-width:1.5;"/>
    </g>
    <g id="line2d_19"/>
    <g id="text_18">
     <!-- Real -->
     <g transform="translate(552.942188 38.916562)scale(0.1 -0.1)">
      <defs>
       <path d="M 44.390625 34.1875 
Q 47.5625 33.109375 50.5625 29.59375 
Q 53.5625 26.078125 56.59375 19.921875 
L 66.609375 0 
L 56 0 
L 46.6875 18.703125 
Q 43.0625 26.03125 39.671875 28.421875 
Q 36.28125 30.8125 30.421875 30.8125 
L 19.671875 30.8125 
L 19.671875 0 
L 9.8125 0 
L 9.8125 72.90625 
L 32.078125 72.90625 
Q 44.578125 72.90625 50.734375 67.671875 
Q 56.890625 62.453125 56.890625 51.90625 
Q 56.890625 45.015625 53.6875 40.46875 
Q 50.484375 35.9375 44.390625 34.1875 
z
M 19.671875 64.796875 
L 19.671875 38.921875 
L 32.078125 38.921875 
Q 39.203125 38.921875 42.84375 42.21875 
Q 46.484375 45.515625 46.484375 51.90625 
Q 46.484375 58.296875 42.84375 61.546875 
Q 39.203125 64.796875 32.078125 64.796875 
z
" id="DejaVuSans-82"/>
       <path d="M 9.421875 75.984375 
L 18.40625 75.984375 
L 18.40625 0 
L 9.421875 0 
z
" id="DejaVuSans-108"/>
      </defs>
      <use xlink:href="#DejaVuSans-82"/>
      <use x="64.982422" xlink:href="#DejaVuSans-101"/>
      <use x="126.505859" xlink:href="#DejaVuSans-97"/>
      <use x="187.785156" xlink:href="#DejaVuSans-108"/>
     </g>
    </g>
    <g id="line2d_20">
     <path d="M 524.942188 50.094688 
L 544.942188 50.094688 
" style="fill:none;stroke:#008000;stroke-dasharray:5.55,2.4;stroke-dashoffset:0;stroke-width:1.5;"/>
    </g>
    <g id="line2d_21"/>
    <g id="text_19">
     <!-- Previsto -->
     <g transform="translate(552.942188 53.594688)scale(0.1 -0.1)">
      <defs>
       <path d="M 18.3125 70.21875 
L 18.3125 54.6875 
L 36.8125 54.6875 
L 36.8125 47.703125 
L 18.3125 47.703125 
L 18.3125 18.015625 
Q 18.3125 11.328125 20.140625 9.421875 
Q 21.96875 7.515625 27.59375 7.515625 
L 36.8125 7.515625 
L 36.8125 0 
L 27.59375 0 
Q 17.1875 0 13.234375 3.875 
Q 9.28125 7.765625 9.28125 18.015625 
L 9.28125 47.703125 
L 2.6875 47.703125 
L 2.6875 54.6875 
L 9.28125 54.6875 
L 9.28125 70.21875 
z
" id="DejaVuSans-116"/>
      </defs>
      <use xlink:href="#DejaVuSans-80"/>
      <use x="58.552734" xlink:href="#DejaVuSans-114"/>
      <use x="97.416016" xlink:href="#DejaVuSans-101"/>
      <use x="158.939453" xlink:href="#DejaVuSans-118"/>
      <use x="218.119141" xlink:href="#DejaVuSans-105"/>
      <use x="245.902344" xlink:href="#DejaVuSans-115"/>
      <use x="298.001953" xlink:href="#DejaVuSans-116"/>
      <use x="337.210938" xlink:href="#DejaVuSans-111"/>
     </g>
    </g>
   </g>
  </g>
 </g>
 <defs>
  <clipPath id="pc9d9803bc6">
   <rect height="244.8" width="558" x="43.78125" y="22.318125"/>
  </clipPath>
 </defs>
</svg>
